M48
; DRILL file {KiCad (5.1.4)-1} date 5/25/2023 1:29:20 PM
; FORMAT={-:-/ absolute / metric / decimal}
; #@! TF.CreationDate,2023-05-25T13:29:20-04:00
; #@! TF.GenerationSoftware,Kicad,Pcbnew,(5.1.4)-1
; #@! TF.FileFunction,Plated,1,2,PTH
FMAT,2
METRIC
T1C0.600
T2C0.800
T3C1.000
T4C1.470
T5C6.000
T6C8.400
%
G90
G05
T1
X137.9Y-215.2
X139.218Y-212.018
X139.218Y-218.382
X142.4Y-210.7
X142.4Y-219.7
X145.582Y-212.018
X145.582Y-218.382
X146.9Y-215.2
T2
X136.1Y-234.6
X137.945Y-230.145
X137.945Y-239.055
X142.4Y-228.3
X142.4Y-240.9
X146.855Y-230.145
X146.855Y-239.055
X148.7Y-234.6
T3
X173.661Y-156.695
X176.016Y-155.743
X178.371Y-154.792
X180.726Y-153.84
X198.014Y-209.544
X200.369Y-208.593
X202.724Y-207.641
X205.079Y-206.69
X87.054Y-189.076
X89.409Y-190.027
X91.765Y-190.979
X94.12Y-191.93
X250.582Y-214.19
X251.533Y-216.545
X252.485Y-218.9
X253.436Y-221.255
X94.172Y-171.459
X96.527Y-172.411
X98.882Y-173.362
X101.237Y-174.314
X190.896Y-191.928
X193.251Y-190.976
X195.606Y-190.025
X197.961Y-189.073
X31.579Y-221.258
X32.531Y-218.903
X33.482Y-216.547
X34.434Y-214.192
X79.851Y-252.225
X81.879Y-253.754
X83.908Y-255.283
X85.936Y-256.811
X104.289Y-153.843
X106.645Y-154.794
X109.0Y-155.746
X111.355Y-156.697
X199.106Y-256.815
X201.134Y-255.287
X203.163Y-253.758
X205.191Y-252.23
X79.937Y-206.692
X82.292Y-207.644
X84.647Y-208.595
X87.002Y-209.547
X183.778Y-174.311
X186.134Y-173.36
X188.489Y-172.408
X190.844Y-171.457
T4
X210.397Y-146.257
X211.065Y-144.412
X215.334Y-141.523
X215.514Y-142.076
X72.808Y-181.119
X74.569Y-180.256
X79.392Y-181.666
X79.647Y-181.143
X60.436Y-161.021
X62.197Y-160.158
X67.02Y-161.568
X67.275Y-161.045
X67.553Y-143.405
X69.315Y-142.542
X74.138Y-143.951
X74.392Y-143.428
X205.143Y-183.971
X205.811Y-182.127
X210.079Y-179.237
X210.259Y-179.79
X260.24Y-168.182
X260.908Y-166.337
X265.176Y-163.448
X265.356Y-164.001
X33.828Y-176.156
X35.59Y-175.293
X40.413Y-176.702
X40.668Y-176.18
X244.122Y-179.008
X244.79Y-177.164
X249.058Y-174.274
X249.238Y-174.827
X212.26Y-201.572
X212.928Y-199.728
X217.197Y-196.838
X217.377Y-197.391
X40.946Y-158.54
X42.708Y-157.677
X47.531Y-159.086
X47.785Y-158.563
X190.908Y-148.738
X191.576Y-146.894
X195.844Y-144.004
X196.024Y-144.557
X26.711Y-193.772
X28.472Y-192.91
X33.296Y-194.319
X33.55Y-193.796
X79.925Y-163.503
X81.687Y-162.64
X86.51Y-164.049
X86.764Y-163.526
X229.887Y-143.775
X230.555Y-141.931
X234.823Y-139.041
X235.003Y-139.594
X10.593Y-182.946
X12.354Y-182.083
X17.178Y-183.493
X17.432Y-182.97
X31.945Y-130.097
X33.707Y-129.234
X38.53Y-130.643
X38.785Y-130.12
X231.75Y-199.106
X232.418Y-197.262
X236.686Y-194.372
X236.866Y-194.925
X217.515Y-163.873
X218.183Y-162.029
X222.451Y-159.139
X222.631Y-159.692
X253.123Y-150.565
X253.79Y-148.721
X258.059Y-145.831
X258.239Y-146.384
X237.004Y-161.392
X237.672Y-159.547
X241.941Y-156.658
X242.121Y-157.21
X48.064Y-140.923
X49.825Y-140.06
X54.648Y-141.469
X54.903Y-140.947
X46.2Y-196.254
X47.962Y-195.391
X52.785Y-196.801
X53.04Y-196.278
X246.005Y-132.949
X246.673Y-131.104
X250.941Y-128.215
X251.121Y-128.768
X53.318Y-178.638
X55.08Y-177.775
X59.903Y-179.184
X60.157Y-178.661
X24.828Y-147.713
X26.589Y-146.85
X31.413Y-148.26
X31.667Y-147.737
X87.043Y-145.886
X88.804Y-145.023
X93.627Y-146.433
X93.882Y-145.91
X17.71Y-165.33
X19.472Y-164.467
X24.295Y-165.876
X24.55Y-165.353
X267.358Y-185.798
X268.025Y-183.954
X272.294Y-181.064
X272.474Y-181.617
X65.69Y-198.736
X67.452Y-197.873
X72.275Y-199.282
X72.529Y-198.759
X251.239Y-196.625
X251.907Y-194.78
X256.176Y-191.891
X256.356Y-192.443
X224.632Y-181.49
X225.3Y-179.645
X229.569Y-176.756
X229.749Y-177.309
X198.025Y-166.355
X198.693Y-164.51
X202.962Y-161.621
X203.142Y-162.174
T5
X142.4Y-215.2
T6
X142.4Y-234.6
T0
M30
