M48
; DRILL file {KiCad (5.1.4)-1} date 5/25/2023 1:29:20 PM
; FORMAT={-:-/ absolute / metric / decimal}
; #@! TF.CreationDate,2023-05-25T13:29:20-04:00
; #@! TF.GenerationSoftware,Kicad,Pcbnew,(5.1.4)-1
; #@! TF.FileFunction,NonPlated,1,2,NPTH
FMAT,2
METRIC
T1C1.750
T2C3.000
T3C3.988
%
G90
G05
T1
X210.171Y-149.087
X219.592Y-145.281
X70.679Y-182.999
X80.099Y-186.805
X58.307Y-162.9
X67.727Y-166.706
X65.424Y-145.284
X74.844Y-149.09
X204.917Y-186.802
X214.337Y-182.996
X260.014Y-171.013
X269.434Y-167.207
X31.699Y-178.035
X41.12Y-181.841
X243.896Y-181.839
X253.316Y-178.033
X212.034Y-204.403
X221.455Y-200.597
X38.817Y-160.419
X48.237Y-164.225
X190.682Y-151.569
X200.102Y-147.763
X24.582Y-195.652
X34.002Y-199.458
X77.796Y-165.382
X87.216Y-169.188
X229.661Y-146.606
X239.081Y-142.8
X8.464Y-184.826
X17.884Y-188.632
X29.816Y-131.976
X39.237Y-135.782
X231.524Y-201.937
X240.944Y-198.131
X217.289Y-166.704
X226.709Y-162.898
X252.896Y-153.396
X262.317Y-149.59
X236.778Y-164.222
X246.199Y-160.416
X45.935Y-142.802
X55.355Y-146.608
X44.071Y-198.133
X53.492Y-201.939
X245.779Y-135.78
X255.199Y-131.974
X51.189Y-180.517
X60.609Y-184.323
X22.699Y-149.593
X32.119Y-153.399
X84.914Y-147.766
X94.334Y-151.572
X15.581Y-167.209
X25.002Y-171.015
X267.132Y-188.629
X276.552Y-184.823
X63.561Y-200.615
X72.981Y-204.421
X251.013Y-199.455
X260.434Y-195.649
X224.406Y-184.32
X233.827Y-180.514
X197.799Y-169.186
X207.22Y-165.38
T2
X214.429Y-152.846
X219.366Y-148.112
X71.131Y-188.66
X77.97Y-188.684
X58.759Y-168.562
X65.598Y-168.586
X65.876Y-150.946
X72.715Y-150.969
X209.175Y-190.561
X214.111Y-185.827
X264.272Y-174.771
X269.208Y-170.037
X32.152Y-183.697
X38.991Y-183.721
X248.154Y-185.597
X253.09Y-180.864
X216.292Y-208.162
X221.229Y-203.428
X39.269Y-166.08
X46.108Y-166.104
X194.94Y-155.328
X199.876Y-150.594
X25.034Y-201.313
X31.873Y-201.337
X78.248Y-171.044
X85.087Y-171.067
X233.919Y-150.364
X238.855Y-145.631
X8.916Y-190.487
X15.755Y-190.511
X30.268Y-137.638
X37.108Y-137.661
X235.782Y-205.696
X240.718Y-200.962
X221.547Y-170.463
X226.483Y-165.729
X257.155Y-157.155
X262.091Y-152.421
X241.036Y-167.981
X245.973Y-163.247
X46.387Y-148.464
X53.226Y-148.488
X44.524Y-203.795
X51.363Y-203.819
X250.037Y-139.538
X254.973Y-134.804
X51.641Y-186.178
X58.48Y-186.202
X23.151Y-155.254
X29.99Y-155.278
X85.366Y-153.427
X92.205Y-153.451
X16.033Y-172.871
X22.873Y-172.894
X271.39Y-192.388
X276.326Y-187.654
X64.013Y-206.277
X70.852Y-206.3
X255.272Y-203.214
X260.208Y-198.48
X228.664Y-188.079
X233.601Y-183.345
X202.057Y-172.944
X206.994Y-168.21
T3
X214.881Y-147.184
X75.389Y-184.902
X63.017Y-164.803
X70.134Y-147.187
X209.627Y-184.899
X264.724Y-169.11
X36.41Y-179.938
X248.606Y-179.936
X216.745Y-202.5
X43.527Y-162.322
X195.392Y-149.666
X29.292Y-197.555
X82.506Y-167.285
X234.371Y-144.703
X13.174Y-186.729
X34.527Y-133.879
X236.234Y-200.034
X221.999Y-164.801
X257.607Y-151.493
X241.489Y-162.319
X50.645Y-144.705
X48.782Y-200.036
X250.489Y-133.877
X55.899Y-182.42
X27.409Y-151.496
X89.624Y-149.669
X20.291Y-169.112
X271.842Y-186.726
X68.271Y-202.518
X255.724Y-197.552
X229.117Y-182.417
X202.509Y-167.283
T0
M30
