G04 #@! TF.GenerationSoftware,KiCad,Pcbnew,(5.1.4)-1*
G04 #@! TF.CreationDate,2023-05-25T13:29:14-04:00*
G04 #@! TF.ProjectId,ThumbsUp,5468756d-6273-4557-902e-6b696361645f,rev?*
G04 #@! TF.SameCoordinates,Original*
G04 #@! TF.FileFunction,Profile,NP*
%FSLAX46Y46*%
G04 Gerber Fmt 4.6, Leading zero omitted, Abs format (unit mm)*
G04 Created by KiCad (PCBNEW (5.1.4)-1) date 2023-05-25 13:29:14*
%MOMM*%
%LPD*%
G04 APERTURE LIST*
%ADD10C,0.050000*%
G04 APERTURE END LIST*
D10*
X134684133Y-163563809D02*
X150315867Y-163563809D01*
X141500000Y-271700000D02*
X143500000Y-271700000D01*
X103390808Y-271716377D02*
X141500000Y-271700000D01*
X86489237Y-138699134D02*
X99469811Y-143943626D01*
X31392118Y-122909661D02*
X28788537Y-124014816D01*
X86489237Y-138699134D02*
X79980285Y-141462020D01*
X18487507Y-202900104D02*
X32395264Y-208519203D01*
X29932324Y-222623597D02*
X48012409Y-229928425D01*
X16277198Y-197692942D02*
X18487507Y-202900104D01*
X99469811Y-143943626D02*
X102232698Y-150452578D01*
X29656035Y-221972702D02*
X29932324Y-222623597D01*
X32395264Y-208519203D02*
X33776708Y-211773679D01*
X117994823Y-156820890D02*
X134684133Y-163563809D01*
X65145343Y-135468315D02*
X79980285Y-141462020D01*
X2191469Y-189844869D02*
X3296624Y-192448450D01*
X103390808Y-271716377D02*
X48012409Y-229928425D01*
X3296624Y-192448450D02*
X16277198Y-197692942D01*
X31392118Y-122909661D02*
X63843553Y-136020892D01*
X28788537Y-124014816D02*
X2191469Y-189844869D01*
X65145343Y-135468315D02*
X63843553Y-136020892D01*
X117994823Y-156820890D02*
X102232698Y-150452578D01*
X29656035Y-221972702D02*
X33776708Y-211773679D01*
X181609192Y-271716377D02*
X143500000Y-271700000D01*
X181609192Y-271716377D02*
X236987591Y-229928425D01*
X255067676Y-222623597D02*
X236987591Y-229928425D01*
X255343965Y-221972702D02*
X255067676Y-222623597D01*
X252604736Y-208519203D02*
X251223292Y-211773679D01*
X255343965Y-221972702D02*
X251223292Y-211773679D01*
X266512493Y-202900104D02*
X252604736Y-208519203D01*
X268722802Y-197692942D02*
X266512493Y-202900104D01*
X281703376Y-192448450D02*
X268722802Y-197692942D01*
X282808531Y-189844869D02*
X281703376Y-192448450D01*
X256211463Y-124014816D02*
X282808531Y-189844869D01*
X253607882Y-122909661D02*
X256211463Y-124014816D01*
X219854657Y-135468315D02*
X221156447Y-136020892D01*
X198510763Y-138699134D02*
X205019715Y-141462020D01*
X167005177Y-156820890D02*
X182767302Y-150452578D01*
X185530189Y-143943626D02*
X182767302Y-150452578D01*
X167005177Y-156820890D02*
X150315867Y-163563809D01*
X198510763Y-138699134D02*
X185530189Y-143943626D01*
X219854657Y-135468315D02*
X205019715Y-141462020D01*
X253607882Y-122909661D02*
X221156447Y-136020892D01*
M02*
