%FSLAX45Y45*%
G04 Gerber Fmt 4.5, Leading zero omitted, Abs format (unit mm)*
G04 Created by KiCad (PCBNEW (5.1.4)-1) date 2023-05-25 13:29:21*
%MOMM*%
%LPD*%
G04 APERTURE LIST*
%ADD10C,0.050000*%
%ADD11C,0.200000*%
%ADD12C,0.300000*%
G04 APERTURE END LIST*
D10*
X13468413Y-16356381D02*
X15031587Y-16356381D01*
X14150000Y-27170000D02*
X14350000Y-27170000D01*
X10339081Y-27171638D02*
X14150000Y-27170000D01*
X8648924Y-13869913D02*
X9946981Y-14394363D01*
X3139212Y-12290966D02*
X2878854Y-12401482D01*
X8648924Y-13869913D02*
X7998028Y-14146202D01*
X1848751Y-20290010D02*
X3239526Y-20851920D01*
X2993232Y-22262360D02*
X4801241Y-22992842D01*
X1627720Y-19769294D02*
X1848751Y-20290010D01*
X9946981Y-14394363D02*
X10223270Y-15045258D01*
X2965603Y-22197270D02*
X2993232Y-22262360D01*
X3239526Y-20851920D02*
X3377671Y-21177368D01*
X11799482Y-15682089D02*
X13468413Y-16356381D01*
X6514534Y-13546831D02*
X7998028Y-14146202D01*
X219147Y-18984487D02*
X329662Y-19244845D01*
X10339081Y-27171638D02*
X4801241Y-22992842D01*
X329662Y-19244845D02*
X1627720Y-19769294D01*
X3139212Y-12290966D02*
X6384355Y-13602089D01*
X2878854Y-12401482D02*
X219147Y-18984487D01*
X6514534Y-13546831D02*
X6384355Y-13602089D01*
X11799482Y-15682089D02*
X10223270Y-15045258D01*
X2965603Y-22197270D02*
X3377671Y-21177368D01*
X18160919Y-27171638D02*
X14350000Y-27170000D01*
X18160919Y-27171638D02*
X23698759Y-22992842D01*
X25506768Y-22262360D02*
X23698759Y-22992842D01*
X25534396Y-22197270D02*
X25506768Y-22262360D01*
X25260474Y-20851920D02*
X25122329Y-21177368D01*
X25534396Y-22197270D02*
X25122329Y-21177368D01*
X26651249Y-20290010D02*
X25260474Y-20851920D01*
X26872280Y-19769294D02*
X26651249Y-20290010D01*
X28170338Y-19244845D02*
X26872280Y-19769294D01*
X28280853Y-18984487D02*
X28170338Y-19244845D01*
X25621146Y-12401482D02*
X28280853Y-18984487D01*
X25360788Y-12290966D02*
X25621146Y-12401482D01*
X21985466Y-13546831D02*
X22115645Y-13602089D01*
X19851076Y-13869913D02*
X20501972Y-14146202D01*
X16700518Y-15682089D02*
X18276730Y-15045258D01*
X18553019Y-14394363D02*
X18276730Y-15045258D01*
X16700518Y-15682089D02*
X15031587Y-16356381D01*
X19851076Y-13869913D02*
X18553019Y-14394363D01*
X21985466Y-13546831D02*
X20501972Y-14146202D01*
X25360788Y-12290966D02*
X22115645Y-13602089D01*
D11*
X13760000Y-21490000D02*
X13820000Y-21550000D01*
X13820000Y-21490000D02*
X13760000Y-21550000D01*
X13891802Y-21171802D02*
X13951802Y-21231802D01*
X13951802Y-21171802D02*
X13891802Y-21231802D01*
X13891802Y-21808198D02*
X13951802Y-21868198D01*
X13951802Y-21808198D02*
X13891802Y-21868198D01*
X14210000Y-21040000D02*
X14270000Y-21100000D01*
X14270000Y-21040000D02*
X14210000Y-21100000D01*
X14210000Y-21940000D02*
X14270000Y-22000000D01*
X14270000Y-21940000D02*
X14210000Y-22000000D01*
X14528198Y-21171802D02*
X14588198Y-21231802D01*
X14588198Y-21171802D02*
X14528198Y-21231802D01*
X14528198Y-21808198D02*
X14588198Y-21868198D01*
X14588198Y-21808198D02*
X14528198Y-21868198D01*
X14660000Y-21490000D02*
X14720000Y-21550000D01*
X14720000Y-21490000D02*
X14660000Y-21550000D01*
X13650000Y-23460000D02*
G75*
G03X13650000Y-23460000I-40000J0D01*
G01*
X13834523Y-23014523D02*
G75*
G03X13834523Y-23014523I-40000J0D01*
G01*
X13834523Y-23905477D02*
G75*
G03X13834523Y-23905477I-40000J0D01*
G01*
X14280000Y-22830000D02*
G75*
G03X14280000Y-22830000I-40000J0D01*
G01*
X14280000Y-24090000D02*
G75*
G03X14280000Y-24090000I-40000J0D01*
G01*
X14725477Y-23014523D02*
G75*
G03X14725477Y-23014523I-40000J0D01*
G01*
X14725477Y-23905477D02*
G75*
G03X14725477Y-23905477I-40000J0D01*
G01*
X14910000Y-23460000D02*
G75*
G03X14910000Y-23460000I-40000J0D01*
G01*
X17366096Y-15619457D02*
X17366096Y-15719457D01*
X17316096Y-15669457D02*
X17416096Y-15669457D01*
X17601600Y-15524307D02*
X17601600Y-15624307D01*
X17551600Y-15574307D02*
X17651600Y-15574307D01*
X17837105Y-15429157D02*
X17837105Y-15529157D01*
X17787105Y-15479157D02*
X17887105Y-15479157D01*
X18072610Y-15334007D02*
X18072610Y-15434007D01*
X18022610Y-15384007D02*
X18122610Y-15384007D01*
X19801353Y-20904405D02*
X19801353Y-21004405D01*
X19751353Y-20954405D02*
X19851353Y-20954405D01*
X20036858Y-20809255D02*
X20036858Y-20909255D01*
X19986858Y-20859255D02*
X20086858Y-20859255D01*
X20272362Y-20714105D02*
X20272362Y-20814105D01*
X20222362Y-20764105D02*
X20322362Y-20764105D01*
X20507867Y-20618955D02*
X20507867Y-20718955D01*
X20457867Y-20668955D02*
X20557867Y-20668955D01*
X8705445Y-18857554D02*
X8705445Y-18957554D01*
X8655445Y-18907554D02*
X8755445Y-18907554D01*
X8940950Y-18952705D02*
X8940950Y-19052705D01*
X8890950Y-19002705D02*
X8990950Y-19002705D01*
X9176454Y-19047855D02*
X9176454Y-19147855D01*
X9126454Y-19097855D02*
X9226454Y-19097855D01*
X9411959Y-19143005D02*
X9411959Y-19243005D01*
X9361959Y-19193005D02*
X9461959Y-19193005D01*
X25058173Y-21368996D02*
X25058173Y-21468996D01*
X25008173Y-21418996D02*
X25108173Y-21418996D01*
X25153323Y-21604500D02*
X25153323Y-21704500D01*
X25103323Y-21654500D02*
X25203323Y-21654500D01*
X25248473Y-21840005D02*
X25248473Y-21940005D01*
X25198473Y-21890005D02*
X25298473Y-21890005D01*
X25343623Y-22075510D02*
X25343623Y-22175510D01*
X25293623Y-22125510D02*
X25393623Y-22125510D01*
X9417197Y-17095905D02*
X9417197Y-17195905D01*
X9367197Y-17145905D02*
X9467197Y-17145905D01*
X9652702Y-17191055D02*
X9652702Y-17291055D01*
X9602702Y-17241055D02*
X9702702Y-17241055D01*
X9888207Y-17286205D02*
X9888207Y-17386205D01*
X9838207Y-17336205D02*
X9938207Y-17336205D01*
X10123711Y-17381355D02*
X10123711Y-17481355D01*
X10073711Y-17431355D02*
X10173711Y-17431355D01*
X19089601Y-19142756D02*
X19089601Y-19242756D01*
X19039601Y-19192756D02*
X19139601Y-19192756D01*
X19325105Y-19047606D02*
X19325105Y-19147606D01*
X19275105Y-19097606D02*
X19375105Y-19097606D01*
X19560610Y-18952456D02*
X19560610Y-19052456D01*
X19510610Y-19002456D02*
X19610610Y-19002456D01*
X19796115Y-18857306D02*
X19796115Y-18957306D01*
X19746115Y-18907306D02*
X19846115Y-18907306D01*
X3157936Y-22075758D02*
X3157936Y-22175758D01*
X3107936Y-22125758D02*
X3207936Y-22125758D01*
X3253086Y-21840254D02*
X3253086Y-21940254D01*
X3203086Y-21890254D02*
X3303086Y-21890254D01*
X3348236Y-21604749D02*
X3348236Y-21704749D01*
X3298236Y-21654749D02*
X3398236Y-21654749D01*
X3443386Y-21369244D02*
X3443386Y-21469244D01*
X3393386Y-21419244D02*
X3493386Y-21419244D01*
X7985089Y-25172530D02*
X7985089Y-25272530D01*
X7935089Y-25222530D02*
X8035089Y-25222530D01*
X8187943Y-25325391D02*
X8187943Y-25425391D01*
X8137943Y-25375391D02*
X8237943Y-25375391D01*
X8390796Y-25478252D02*
X8390796Y-25578252D01*
X8340796Y-25528252D02*
X8440796Y-25528252D01*
X8593650Y-25631113D02*
X8593650Y-25731113D01*
X8543650Y-25681113D02*
X8643650Y-25681113D01*
X10428950Y-15334256D02*
X10428950Y-15434256D01*
X10378950Y-15384256D02*
X10478950Y-15384256D01*
X10664455Y-15429406D02*
X10664455Y-15529406D01*
X10614455Y-15479406D02*
X10714455Y-15479406D01*
X10899959Y-15524556D02*
X10899959Y-15624556D01*
X10849959Y-15574556D02*
X10949959Y-15574556D01*
X11135464Y-15619706D02*
X11135464Y-15719706D01*
X11085464Y-15669706D02*
X11185464Y-15669706D01*
X19910568Y-25631535D02*
X19910568Y-25731535D01*
X19860568Y-25681535D02*
X19960568Y-25681535D01*
X20113421Y-25478674D02*
X20113421Y-25578674D01*
X20063421Y-25528674D02*
X20163421Y-25528674D01*
X20316274Y-25325813D02*
X20316274Y-25425813D01*
X20266274Y-25375813D02*
X20366274Y-25375813D01*
X20519128Y-25172952D02*
X20519128Y-25272952D01*
X20469128Y-25222952D02*
X20569128Y-25222952D01*
X7993692Y-20619204D02*
X7993692Y-20719204D01*
X7943692Y-20669204D02*
X8043692Y-20669204D01*
X8229197Y-20714354D02*
X8229197Y-20814354D01*
X8179197Y-20764354D02*
X8279197Y-20764354D01*
X8464702Y-20809504D02*
X8464702Y-20909504D01*
X8414702Y-20859504D02*
X8514702Y-20859504D01*
X8700206Y-20904654D02*
X8700206Y-21004654D01*
X8650206Y-20954654D02*
X8750206Y-20954654D01*
X18377848Y-17381107D02*
X18377848Y-17481107D01*
X18327848Y-17431107D02*
X18427848Y-17431107D01*
X18613353Y-17285957D02*
X18613353Y-17385957D01*
X18563353Y-17335957D02*
X18663353Y-17335957D01*
X18848857Y-17190807D02*
X18848857Y-17290807D01*
X18798857Y-17240807D02*
X18898857Y-17240807D01*
X19084362Y-17095657D02*
X19084362Y-17195657D01*
X19034362Y-17145657D02*
X19134362Y-17145657D01*
X21091712Y-14677636D02*
X21091712Y-14573690D01*
X20987766Y-14573690D01*
X20987766Y-14677636D01*
X21091712Y-14677636D01*
X21158480Y-14493194D02*
X21158480Y-14389248D01*
X21054535Y-14389248D01*
X21054535Y-14493194D01*
X21158480Y-14493194D01*
X21585323Y-14204256D02*
X21585323Y-14100311D01*
X21481378Y-14100311D01*
X21481378Y-14204256D01*
X21585323Y-14204256D01*
X21603342Y-14259531D02*
X21603342Y-14155586D01*
X21499396Y-14155586D01*
X21499396Y-14259531D01*
X21603342Y-14259531D01*
X7332727Y-18163894D02*
X7332727Y-18059948D01*
X7228781Y-18059948D01*
X7228781Y-18163894D01*
X7332727Y-18163894D01*
X7508880Y-18077598D02*
X7508880Y-17973653D01*
X7404935Y-17973653D01*
X7404935Y-18077598D01*
X7508880Y-18077598D01*
X7991202Y-18218542D02*
X7991202Y-18114597D01*
X7887257Y-18114597D01*
X7887257Y-18218542D01*
X7991202Y-18218542D01*
X8016638Y-18166264D02*
X8016638Y-18062319D01*
X7912693Y-18062319D01*
X7912693Y-18166264D01*
X8016638Y-18166264D01*
X6095526Y-16154084D02*
X6095526Y-16050138D01*
X5991581Y-16050138D01*
X5991581Y-16154084D01*
X6095526Y-16154084D01*
X6271680Y-16067788D02*
X6271680Y-15963843D01*
X6167735Y-15963843D01*
X6167735Y-16067788D01*
X6271680Y-16067788D01*
X6754002Y-16208732D02*
X6754002Y-16104787D01*
X6650057Y-16104787D01*
X6650057Y-16208732D01*
X6754002Y-16208732D01*
X6779438Y-16156454D02*
X6779438Y-16052509D01*
X6675493Y-16052509D01*
X6675493Y-16156454D01*
X6779438Y-16156454D01*
X6807279Y-14392434D02*
X6807279Y-14288489D01*
X6703333Y-14288489D01*
X6703333Y-14392434D01*
X6807279Y-14392434D01*
X6983433Y-14306139D02*
X6983433Y-14202193D01*
X6879487Y-14202193D01*
X6879487Y-14306139D01*
X6983433Y-14306139D01*
X7465755Y-14447083D02*
X7465755Y-14343137D01*
X7361809Y-14343137D01*
X7361809Y-14447083D01*
X7465755Y-14447083D01*
X7491191Y-14394805D02*
X7491191Y-14290859D01*
X7387245Y-14290859D01*
X7387245Y-14394805D01*
X7491191Y-14394805D01*
X20566264Y-18449095D02*
X20566264Y-18345150D01*
X20462319Y-18345150D01*
X20462319Y-18449095D01*
X20566264Y-18449095D01*
X20633033Y-18264653D02*
X20633033Y-18160707D01*
X20529087Y-18160707D01*
X20529087Y-18264653D01*
X20633033Y-18264653D01*
X21059876Y-17975715D02*
X21059876Y-17871770D01*
X20955930Y-17871770D01*
X20955930Y-17975715D01*
X21059876Y-17975715D01*
X21077894Y-18030991D02*
X21077894Y-17927045D01*
X20973949Y-17927045D01*
X20973949Y-18030991D01*
X21077894Y-18030991D01*
X26075976Y-16870148D02*
X26075976Y-16766202D01*
X25972031Y-16766202D01*
X25972031Y-16870148D01*
X26075976Y-16870148D01*
X26142745Y-16685706D02*
X26142745Y-16581760D01*
X26038799Y-16581760D01*
X26038799Y-16685706D01*
X26142745Y-16685706D01*
X26569588Y-16396768D02*
X26569588Y-16292822D01*
X26465642Y-16292822D01*
X26465642Y-16396768D01*
X26569588Y-16396768D01*
X26587606Y-16452043D02*
X26587606Y-16348098D01*
X26483661Y-16348098D01*
X26483661Y-16452043D01*
X26587606Y-16452043D01*
X3434821Y-17667572D02*
X3434821Y-17563627D01*
X3330876Y-17563627D01*
X3330876Y-17667572D01*
X3434821Y-17667572D01*
X3610975Y-17581277D02*
X3610975Y-17477331D01*
X3507029Y-17477331D01*
X3507029Y-17581277D01*
X3610975Y-17581277D01*
X4093297Y-17722221D02*
X4093297Y-17618276D01*
X3989352Y-17618276D01*
X3989352Y-17722221D01*
X4093297Y-17722221D01*
X4118733Y-17669943D02*
X4118733Y-17565997D01*
X4014788Y-17565997D01*
X4014788Y-17669943D01*
X4118733Y-17669943D01*
X24464169Y-17952774D02*
X24464169Y-17848829D01*
X24360224Y-17848829D01*
X24360224Y-17952774D01*
X24464169Y-17952774D01*
X24530938Y-17768332D02*
X24530938Y-17664386D01*
X24426992Y-17664386D01*
X24426992Y-17768332D01*
X24530938Y-17768332D01*
X24957781Y-17479394D02*
X24957781Y-17375449D01*
X24853835Y-17375449D01*
X24853835Y-17479394D01*
X24957781Y-17479394D01*
X24975800Y-17534669D02*
X24975800Y-17430724D01*
X24871854Y-17430724D01*
X24871854Y-17534669D01*
X24975800Y-17534669D01*
X21278017Y-20209193D02*
X21278017Y-20105248D01*
X21174071Y-20105248D01*
X21174071Y-20209193D01*
X21278017Y-20209193D01*
X21344785Y-20024751D02*
X21344785Y-19920805D01*
X21240840Y-19920805D01*
X21240840Y-20024751D01*
X21344785Y-20024751D01*
X21771628Y-19735813D02*
X21771628Y-19631868D01*
X21667683Y-19631868D01*
X21667683Y-19735813D01*
X21771628Y-19735813D01*
X21789647Y-19791088D02*
X21789647Y-19687143D01*
X21685701Y-19687143D01*
X21685701Y-19791088D01*
X21789647Y-19791088D01*
X4146574Y-15905923D02*
X4146574Y-15801977D01*
X4042628Y-15801977D01*
X4042628Y-15905923D01*
X4146574Y-15905923D01*
X4322728Y-15819628D02*
X4322728Y-15715682D01*
X4218782Y-15715682D01*
X4218782Y-15819628D01*
X4322728Y-15819628D01*
X4805050Y-15960572D02*
X4805050Y-15856626D01*
X4701104Y-15856626D01*
X4701104Y-15960572D01*
X4805050Y-15960572D01*
X4830486Y-15908294D02*
X4830486Y-15804348D01*
X4726540Y-15804348D01*
X4726540Y-15908294D01*
X4830486Y-15908294D01*
X19142759Y-14925797D02*
X19142759Y-14821851D01*
X19038814Y-14821851D01*
X19038814Y-14925797D01*
X19142759Y-14925797D01*
X19209528Y-14741354D02*
X19209528Y-14637409D01*
X19105582Y-14637409D01*
X19105582Y-14741354D01*
X19209528Y-14741354D01*
X19636371Y-14452417D02*
X19636371Y-14348471D01*
X19532425Y-14348471D01*
X19532425Y-14452417D01*
X19636371Y-14452417D01*
X19654389Y-14507692D02*
X19654389Y-14403746D01*
X19550444Y-14403746D01*
X19550444Y-14507692D01*
X19654389Y-14507692D01*
X2723069Y-19429222D02*
X2723069Y-19325276D01*
X2619123Y-19325276D01*
X2619123Y-19429222D01*
X2723069Y-19429222D01*
X2899223Y-19342926D02*
X2899223Y-19238981D01*
X2795277Y-19238981D01*
X2795277Y-19342926D01*
X2899223Y-19342926D01*
X3381545Y-19483870D02*
X3381545Y-19379925D01*
X3277599Y-19379925D01*
X3277599Y-19483870D01*
X3381545Y-19483870D01*
X3406981Y-19431592D02*
X3406981Y-19327647D01*
X3303035Y-19327647D01*
X3303035Y-19431592D01*
X3406981Y-19431592D01*
X8044479Y-16402244D02*
X8044479Y-16298299D01*
X7940533Y-16298299D01*
X7940533Y-16402244D01*
X8044479Y-16402244D01*
X8220633Y-16315949D02*
X8220633Y-16212003D01*
X8116687Y-16212003D01*
X8116687Y-16315949D01*
X8220633Y-16315949D01*
X8702955Y-16456893D02*
X8702955Y-16352947D01*
X8599009Y-16352947D01*
X8599009Y-16456893D01*
X8702955Y-16456893D01*
X8728391Y-16404615D02*
X8728391Y-16300669D01*
X8624445Y-16300669D01*
X8624445Y-16404615D01*
X8728391Y-16404615D01*
X23040664Y-14429475D02*
X23040664Y-14325530D01*
X22936719Y-14325530D01*
X22936719Y-14429475D01*
X23040664Y-14429475D01*
X23107433Y-14245033D02*
X23107433Y-14141088D01*
X23003487Y-14141088D01*
X23003487Y-14245033D01*
X23107433Y-14245033D01*
X23534276Y-13956096D02*
X23534276Y-13852150D01*
X23430330Y-13852150D01*
X23430330Y-13956096D01*
X23534276Y-13956096D01*
X23552294Y-14011371D02*
X23552294Y-13907425D01*
X23448349Y-13907425D01*
X23448349Y-14011371D01*
X23552294Y-14011371D01*
X1111262Y-18346596D02*
X1111262Y-18242650D01*
X1007317Y-18242650D01*
X1007317Y-18346596D01*
X1111262Y-18346596D01*
X1287416Y-18260300D02*
X1287416Y-18156355D01*
X1183470Y-18156355D01*
X1183470Y-18260300D01*
X1287416Y-18260300D01*
X1769738Y-18401244D02*
X1769738Y-18297299D01*
X1665792Y-18297299D01*
X1665792Y-18401244D01*
X1769738Y-18401244D01*
X1795174Y-18348966D02*
X1795174Y-18245021D01*
X1691228Y-18245021D01*
X1691228Y-18348966D01*
X1795174Y-18348966D01*
X3246520Y-13061648D02*
X3246520Y-12957702D01*
X3142574Y-12957702D01*
X3142574Y-13061648D01*
X3246520Y-13061648D01*
X3422673Y-12975352D02*
X3422673Y-12871407D01*
X3318728Y-12871407D01*
X3318728Y-12975352D01*
X3422673Y-12975352D01*
X3904996Y-13116296D02*
X3904996Y-13012351D01*
X3801050Y-13012351D01*
X3801050Y-13116296D01*
X3904996Y-13116296D01*
X3930431Y-13064018D02*
X3930431Y-12960073D01*
X3826486Y-12960073D01*
X3826486Y-13064018D01*
X3930431Y-13064018D01*
X23226969Y-19962584D02*
X23226969Y-19858638D01*
X23123024Y-19858638D01*
X23123024Y-19962584D01*
X23226969Y-19962584D01*
X23293738Y-19778142D02*
X23293738Y-19674196D01*
X23189792Y-19674196D01*
X23189792Y-19778142D01*
X23293738Y-19778142D01*
X23720581Y-19489204D02*
X23720581Y-19385259D01*
X23616635Y-19385259D01*
X23616635Y-19489204D01*
X23720581Y-19489204D01*
X23738599Y-19544479D02*
X23738599Y-19440534D01*
X23634654Y-19440534D01*
X23634654Y-19544479D01*
X23738599Y-19544479D01*
X21803464Y-16439285D02*
X21803464Y-16335340D01*
X21699519Y-16335340D01*
X21699519Y-16439285D01*
X21803464Y-16439285D01*
X21870233Y-16254843D02*
X21870233Y-16150897D01*
X21766287Y-16150897D01*
X21766287Y-16254843D01*
X21870233Y-16254843D01*
X22297076Y-15965905D02*
X22297076Y-15861960D01*
X22193130Y-15861960D01*
X22193130Y-15965905D01*
X22297076Y-15965905D01*
X22315095Y-16021181D02*
X22315095Y-15917235D01*
X22211149Y-15917235D01*
X22211149Y-16021181D01*
X22315095Y-16021181D01*
X25364224Y-15108499D02*
X25364224Y-15004553D01*
X25260278Y-15004553D01*
X25260278Y-15108499D01*
X25364224Y-15108499D01*
X25430992Y-14924056D02*
X25430992Y-14820111D01*
X25327047Y-14820111D01*
X25327047Y-14924056D01*
X25430992Y-14924056D01*
X25857835Y-14635119D02*
X25857835Y-14531173D01*
X25753890Y-14531173D01*
X25753890Y-14635119D01*
X25857835Y-14635119D01*
X25875854Y-14690394D02*
X25875854Y-14586448D01*
X25771908Y-14586448D01*
X25771908Y-14690394D01*
X25875854Y-14690394D01*
X23752417Y-16191125D02*
X23752417Y-16087179D01*
X23648471Y-16087179D01*
X23648471Y-16191125D01*
X23752417Y-16191125D01*
X23819185Y-16006682D02*
X23819185Y-15902737D01*
X23715240Y-15902737D01*
X23715240Y-16006682D01*
X23819185Y-16006682D01*
X24246029Y-15717745D02*
X24246029Y-15613799D01*
X24142083Y-15613799D01*
X24142083Y-15717745D01*
X24246029Y-15717745D01*
X24264047Y-15773020D02*
X24264047Y-15669074D01*
X24160101Y-15669074D01*
X24160101Y-15773020D01*
X24264047Y-15773020D01*
X4858326Y-14144274D02*
X4858326Y-14040328D01*
X4754381Y-14040328D01*
X4754381Y-14144274D01*
X4858326Y-14144274D01*
X5034480Y-14057978D02*
X5034480Y-13954033D01*
X4930535Y-13954033D01*
X4930535Y-14057978D01*
X5034480Y-14057978D01*
X5516802Y-14198922D02*
X5516802Y-14094977D01*
X5412857Y-14094977D01*
X5412857Y-14198922D01*
X5516802Y-14198922D01*
X5542238Y-14146644D02*
X5542238Y-14042699D01*
X5438293Y-14042699D01*
X5438293Y-14146644D01*
X5542238Y-14146644D01*
X4672022Y-19677382D02*
X4672022Y-19573437D01*
X4568076Y-19573437D01*
X4568076Y-19677382D01*
X4672022Y-19677382D01*
X4848175Y-19591087D02*
X4848175Y-19487141D01*
X4744230Y-19487141D01*
X4744230Y-19591087D01*
X4848175Y-19591087D01*
X5330497Y-19732031D02*
X5330497Y-19628085D01*
X5226552Y-19628085D01*
X5226552Y-19732031D01*
X5330497Y-19732031D01*
X5355933Y-19679753D02*
X5355933Y-19575807D01*
X5251988Y-19575807D01*
X5251988Y-19679753D01*
X5355933Y-19679753D01*
X24652471Y-13346849D02*
X24652471Y-13242904D01*
X24548525Y-13242904D01*
X24548525Y-13346849D01*
X24652471Y-13346849D01*
X24719240Y-13162407D02*
X24719240Y-13058461D01*
X24615294Y-13058461D01*
X24615294Y-13162407D01*
X24719240Y-13162407D01*
X25146083Y-12873469D02*
X25146083Y-12769524D01*
X25042137Y-12769524D01*
X25042137Y-12873469D01*
X25146083Y-12873469D01*
X25164101Y-12928745D02*
X25164101Y-12824799D01*
X25060156Y-12824799D01*
X25060156Y-12928745D01*
X25164101Y-12928745D01*
X5383774Y-17915733D02*
X5383774Y-17811787D01*
X5279828Y-17811787D01*
X5279828Y-17915733D01*
X5383774Y-17915733D01*
X5559928Y-17829438D02*
X5559928Y-17725492D01*
X5455982Y-17725492D01*
X5455982Y-17829438D01*
X5559928Y-17829438D01*
X6042250Y-17970382D02*
X6042250Y-17866436D01*
X5938304Y-17866436D01*
X5938304Y-17970382D01*
X6042250Y-17970382D01*
X6067686Y-17918104D02*
X6067686Y-17814158D01*
X5963740Y-17814158D01*
X5963740Y-17918104D01*
X6067686Y-17918104D01*
X2534767Y-14823297D02*
X2534767Y-14719351D01*
X2430822Y-14719351D01*
X2430822Y-14823297D01*
X2534767Y-14823297D01*
X2710921Y-14737002D02*
X2710921Y-14633056D01*
X2606975Y-14633056D01*
X2606975Y-14737002D01*
X2710921Y-14737002D01*
X3193243Y-14877946D02*
X3193243Y-14774000D01*
X3089297Y-14774000D01*
X3089297Y-14877946D01*
X3193243Y-14877946D01*
X3218679Y-14825667D02*
X3218679Y-14721722D01*
X3114733Y-14721722D01*
X3114733Y-14825667D01*
X3218679Y-14825667D01*
X8756232Y-14640595D02*
X8756232Y-14536649D01*
X8652286Y-14536649D01*
X8652286Y-14640595D01*
X8756232Y-14640595D01*
X8932385Y-14554300D02*
X8932385Y-14450354D01*
X8828440Y-14450354D01*
X8828440Y-14554300D01*
X8932385Y-14554300D01*
X9414708Y-14695244D02*
X9414708Y-14591298D01*
X9310762Y-14591298D01*
X9310762Y-14695244D01*
X9414708Y-14695244D01*
X9440144Y-14642965D02*
X9440144Y-14539020D01*
X9336198Y-14539020D01*
X9336198Y-14642965D01*
X9440144Y-14642965D01*
X1823015Y-16584946D02*
X1823015Y-16481001D01*
X1719069Y-16481001D01*
X1719069Y-16584946D01*
X1823015Y-16584946D01*
X1999168Y-16498651D02*
X1999168Y-16394705D01*
X1895223Y-16394705D01*
X1895223Y-16498651D01*
X1999168Y-16498651D01*
X2481491Y-16639595D02*
X2481491Y-16535649D01*
X2377545Y-16535649D01*
X2377545Y-16639595D01*
X2481491Y-16639595D01*
X2506927Y-16587317D02*
X2506927Y-16483371D01*
X2402981Y-16483371D01*
X2402981Y-16587317D01*
X2506927Y-16587317D01*
X26787729Y-18631797D02*
X26787729Y-18527852D01*
X26683783Y-18527852D01*
X26683783Y-18631797D01*
X26787729Y-18631797D01*
X26854497Y-18447355D02*
X26854497Y-18343410D01*
X26750552Y-18343410D01*
X26750552Y-18447355D01*
X26854497Y-18447355D01*
X27281340Y-18158418D02*
X27281340Y-18054472D01*
X27177395Y-18054472D01*
X27177395Y-18158418D01*
X27281340Y-18158418D01*
X27299359Y-18213693D02*
X27299359Y-18109747D01*
X27195413Y-18109747D01*
X27195413Y-18213693D01*
X27299359Y-18213693D01*
X6620974Y-19925543D02*
X6620974Y-19821597D01*
X6517028Y-19821597D01*
X6517028Y-19925543D01*
X6620974Y-19925543D01*
X6797128Y-19839248D02*
X6797128Y-19735302D01*
X6693182Y-19735302D01*
X6693182Y-19839248D01*
X6797128Y-19839248D01*
X7279450Y-19980192D02*
X7279450Y-19876246D01*
X7175504Y-19876246D01*
X7175504Y-19980192D01*
X7279450Y-19980192D01*
X7304886Y-19927913D02*
X7304886Y-19823968D01*
X7200940Y-19823968D01*
X7200940Y-19927913D01*
X7304886Y-19927913D01*
X25175922Y-19714423D02*
X25175922Y-19610478D01*
X25071976Y-19610478D01*
X25071976Y-19714423D01*
X25175922Y-19714423D01*
X25242690Y-19529981D02*
X25242690Y-19426036D01*
X25138745Y-19426036D01*
X25138745Y-19529981D01*
X25242690Y-19529981D01*
X25669534Y-19241044D02*
X25669534Y-19137098D01*
X25565588Y-19137098D01*
X25565588Y-19241044D01*
X25669534Y-19241044D01*
X25687552Y-19296319D02*
X25687552Y-19192373D01*
X25583606Y-19192373D01*
X25583606Y-19296319D01*
X25687552Y-19296319D01*
X22515217Y-18200935D02*
X22515217Y-18096989D01*
X22411271Y-18096989D01*
X22411271Y-18200935D01*
X22515217Y-18200935D01*
X22581985Y-18016492D02*
X22581985Y-17912547D01*
X22478040Y-17912547D01*
X22478040Y-18016492D01*
X22581985Y-18016492D01*
X23008828Y-17727555D02*
X23008828Y-17623609D01*
X22904883Y-17623609D01*
X22904883Y-17727555D01*
X23008828Y-17727555D01*
X23026847Y-17782830D02*
X23026847Y-17678884D01*
X22922901Y-17678884D01*
X22922901Y-17782830D01*
X23026847Y-17782830D01*
X19854512Y-16687446D02*
X19854512Y-16583500D01*
X19750566Y-16583500D01*
X19750566Y-16687446D01*
X19854512Y-16687446D01*
X19921280Y-16503004D02*
X19921280Y-16399058D01*
X19817335Y-16399058D01*
X19817335Y-16503004D01*
X19921280Y-16503004D01*
X20348123Y-16214066D02*
X20348123Y-16110120D01*
X20244178Y-16110120D01*
X20244178Y-16214066D01*
X20348123Y-16214066D01*
X20366142Y-16269341D02*
X20366142Y-16165396D01*
X20262196Y-16165396D01*
X20262196Y-16269341D01*
X20366142Y-16269341D01*
X14240000Y-21820000D02*
X14540000Y-21520000D01*
X14240000Y-21220000D01*
X13940000Y-21520000D01*
X14240000Y-21820000D01*
X13820000Y-23040000D02*
X14660000Y-23880000D01*
X14660000Y-23040000D02*
X13820000Y-23880000D01*
X14660000Y-23460000D02*
G75*
G03X14660000Y-23460000I-420000J0D01*
G01*
D12*
X503075Y-27639852D02*
X503075Y-27339852D01*
X574504Y-27339852D01*
X617361Y-27354138D01*
X645933Y-27382709D01*
X660218Y-27411281D01*
X674504Y-27468423D01*
X674504Y-27511281D01*
X660218Y-27568423D01*
X645933Y-27596995D01*
X617361Y-27625566D01*
X574504Y-27639852D01*
X503075Y-27639852D01*
X803075Y-27639852D02*
X803075Y-27439852D01*
X803075Y-27496995D02*
X817361Y-27468423D01*
X831647Y-27454138D01*
X860218Y-27439852D01*
X888790Y-27439852D01*
X988790Y-27639852D02*
X988790Y-27439852D01*
X988790Y-27339852D02*
X974504Y-27354138D01*
X988790Y-27368423D01*
X1003075Y-27354138D01*
X988790Y-27339852D01*
X988790Y-27368423D01*
X1174504Y-27639852D02*
X1145933Y-27625566D01*
X1131647Y-27596995D01*
X1131647Y-27339852D01*
X1331647Y-27639852D02*
X1303075Y-27625566D01*
X1288790Y-27596995D01*
X1288790Y-27339852D01*
X1674504Y-27639852D02*
X1674504Y-27339852D01*
X1774504Y-27554138D01*
X1874504Y-27339852D01*
X1874504Y-27639852D01*
X2145933Y-27639852D02*
X2145933Y-27482709D01*
X2131647Y-27454138D01*
X2103075Y-27439852D01*
X2045932Y-27439852D01*
X2017361Y-27454138D01*
X2145933Y-27625566D02*
X2117361Y-27639852D01*
X2045932Y-27639852D01*
X2017361Y-27625566D01*
X2003075Y-27596995D01*
X2003075Y-27568423D01*
X2017361Y-27539852D01*
X2045932Y-27525566D01*
X2117361Y-27525566D01*
X2145933Y-27511281D01*
X2288790Y-27439852D02*
X2288790Y-27739852D01*
X2288790Y-27454138D02*
X2317361Y-27439852D01*
X2374504Y-27439852D01*
X2403075Y-27454138D01*
X2417361Y-27468423D01*
X2431647Y-27496995D01*
X2431647Y-27582709D01*
X2417361Y-27611281D01*
X2403075Y-27625566D01*
X2374504Y-27639852D01*
X2317361Y-27639852D01*
X2288790Y-27625566D01*
X2560218Y-27611281D02*
X2574504Y-27625566D01*
X2560218Y-27639852D01*
X2545933Y-27625566D01*
X2560218Y-27611281D01*
X2560218Y-27639852D01*
X2560218Y-27454138D02*
X2574504Y-27468423D01*
X2560218Y-27482709D01*
X2545933Y-27468423D01*
X2560218Y-27454138D01*
X2560218Y-27482709D01*
X156647Y-28104138D02*
X216647Y-28164138D01*
X216647Y-28104138D02*
X156647Y-28164138D01*
X560218Y-27969852D02*
X588790Y-27969852D01*
X617361Y-27984138D01*
X631647Y-27998423D01*
X645933Y-28026995D01*
X660218Y-28084138D01*
X660218Y-28155566D01*
X645933Y-28212709D01*
X631647Y-28241281D01*
X617361Y-28255566D01*
X588790Y-28269852D01*
X560218Y-28269852D01*
X531647Y-28255566D01*
X517361Y-28241281D01*
X503075Y-28212709D01*
X488790Y-28155566D01*
X488790Y-28084138D01*
X503075Y-28026995D01*
X517361Y-27998423D01*
X531647Y-27984138D01*
X560218Y-27969852D01*
X788790Y-28241281D02*
X803075Y-28255566D01*
X788790Y-28269852D01*
X774504Y-28255566D01*
X788790Y-28241281D01*
X788790Y-28269852D01*
X1060218Y-27969852D02*
X1003075Y-27969852D01*
X974504Y-27984138D01*
X960218Y-27998423D01*
X931647Y-28041281D01*
X917361Y-28098423D01*
X917361Y-28212709D01*
X931647Y-28241281D01*
X945932Y-28255566D01*
X974504Y-28269852D01*
X1031647Y-28269852D01*
X1060218Y-28255566D01*
X1074504Y-28241281D01*
X1088790Y-28212709D01*
X1088790Y-28141281D01*
X1074504Y-28112709D01*
X1060218Y-28098423D01*
X1031647Y-28084138D01*
X974504Y-28084138D01*
X945932Y-28098423D01*
X931647Y-28112709D01*
X917361Y-28141281D01*
X1274504Y-27969852D02*
X1303075Y-27969852D01*
X1331647Y-27984138D01*
X1345933Y-27998423D01*
X1360218Y-28026995D01*
X1374504Y-28084138D01*
X1374504Y-28155566D01*
X1360218Y-28212709D01*
X1345933Y-28241281D01*
X1331647Y-28255566D01*
X1303075Y-28269852D01*
X1274504Y-28269852D01*
X1245933Y-28255566D01*
X1231647Y-28241281D01*
X1217361Y-28212709D01*
X1203075Y-28155566D01*
X1203075Y-28084138D01*
X1217361Y-28026995D01*
X1231647Y-27998423D01*
X1245933Y-27984138D01*
X1274504Y-27969852D01*
X1503075Y-28269852D02*
X1503075Y-28069852D01*
X1503075Y-28098423D02*
X1517361Y-28084138D01*
X1545932Y-28069852D01*
X1588790Y-28069852D01*
X1617361Y-28084138D01*
X1631647Y-28112709D01*
X1631647Y-28269852D01*
X1631647Y-28112709D02*
X1645932Y-28084138D01*
X1674504Y-28069852D01*
X1717361Y-28069852D01*
X1745932Y-28084138D01*
X1760218Y-28112709D01*
X1760218Y-28269852D01*
X1903075Y-28269852D02*
X1903075Y-28069852D01*
X1903075Y-28098423D02*
X1917361Y-28084138D01*
X1945932Y-28069852D01*
X1988790Y-28069852D01*
X2017361Y-28084138D01*
X2031647Y-28112709D01*
X2031647Y-28269852D01*
X2031647Y-28112709D02*
X2045932Y-28084138D01*
X2074504Y-28069852D01*
X2117361Y-28069852D01*
X2145933Y-28084138D01*
X2160218Y-28112709D01*
X2160218Y-28269852D01*
X2745933Y-27955566D02*
X2488790Y-28341281D01*
X3131647Y-27969852D02*
X3160218Y-27969852D01*
X3188790Y-27984138D01*
X3203075Y-27998423D01*
X3217361Y-28026995D01*
X3231647Y-28084138D01*
X3231647Y-28155566D01*
X3217361Y-28212709D01*
X3203075Y-28241281D01*
X3188790Y-28255566D01*
X3160218Y-28269852D01*
X3131647Y-28269852D01*
X3103075Y-28255566D01*
X3088790Y-28241281D01*
X3074504Y-28212709D01*
X3060218Y-28155566D01*
X3060218Y-28084138D01*
X3074504Y-28026995D01*
X3088790Y-27998423D01*
X3103075Y-27984138D01*
X3131647Y-27969852D01*
X3360218Y-28241281D02*
X3374504Y-28255566D01*
X3360218Y-28269852D01*
X3345932Y-28255566D01*
X3360218Y-28241281D01*
X3360218Y-28269852D01*
X3560218Y-27969852D02*
X3588790Y-27969852D01*
X3617361Y-27984138D01*
X3631647Y-27998423D01*
X3645932Y-28026995D01*
X3660218Y-28084138D01*
X3660218Y-28155566D01*
X3645932Y-28212709D01*
X3631647Y-28241281D01*
X3617361Y-28255566D01*
X3588790Y-28269852D01*
X3560218Y-28269852D01*
X3531647Y-28255566D01*
X3517361Y-28241281D01*
X3503075Y-28212709D01*
X3488790Y-28155566D01*
X3488790Y-28084138D01*
X3503075Y-28026995D01*
X3517361Y-27998423D01*
X3531647Y-27984138D01*
X3560218Y-27969852D01*
X3774504Y-27998423D02*
X3788790Y-27984138D01*
X3817361Y-27969852D01*
X3888790Y-27969852D01*
X3917361Y-27984138D01*
X3931647Y-27998423D01*
X3945932Y-28026995D01*
X3945932Y-28055566D01*
X3931647Y-28098423D01*
X3760218Y-28269852D01*
X3945932Y-28269852D01*
X4203075Y-28069852D02*
X4203075Y-28269852D01*
X4131647Y-27955566D02*
X4060218Y-28169852D01*
X4245933Y-28169852D01*
X4345933Y-27969852D02*
X4345933Y-28026995D01*
X4460218Y-27969852D02*
X4460218Y-28026995D01*
X4903075Y-28384138D02*
X4888790Y-28369852D01*
X4860218Y-28326995D01*
X4845933Y-28298423D01*
X4831647Y-28255566D01*
X4817361Y-28184138D01*
X4817361Y-28126995D01*
X4831647Y-28055566D01*
X4845933Y-28012709D01*
X4860218Y-27984138D01*
X4888790Y-27941281D01*
X4903075Y-27926995D01*
X5060218Y-28098423D02*
X5031647Y-28084138D01*
X5017361Y-28069852D01*
X5003075Y-28041281D01*
X5003075Y-28026995D01*
X5017361Y-27998423D01*
X5031647Y-27984138D01*
X5060218Y-27969852D01*
X5117361Y-27969852D01*
X5145933Y-27984138D01*
X5160218Y-27998423D01*
X5174504Y-28026995D01*
X5174504Y-28041281D01*
X5160218Y-28069852D01*
X5145933Y-28084138D01*
X5117361Y-28098423D01*
X5060218Y-28098423D01*
X5031647Y-28112709D01*
X5017361Y-28126995D01*
X5003075Y-28155566D01*
X5003075Y-28212709D01*
X5017361Y-28241281D01*
X5031647Y-28255566D01*
X5060218Y-28269852D01*
X5117361Y-28269852D01*
X5145933Y-28255566D01*
X5160218Y-28241281D01*
X5174504Y-28212709D01*
X5174504Y-28155566D01*
X5160218Y-28126995D01*
X5145933Y-28112709D01*
X5117361Y-28098423D01*
X5531647Y-28269852D02*
X5531647Y-27969852D01*
X5660218Y-28269852D02*
X5660218Y-28112709D01*
X5645932Y-28084138D01*
X5617361Y-28069852D01*
X5574504Y-28069852D01*
X5545933Y-28084138D01*
X5531647Y-28098423D01*
X5845932Y-28269852D02*
X5817361Y-28255566D01*
X5803075Y-28241281D01*
X5788790Y-28212709D01*
X5788790Y-28126995D01*
X5803075Y-28098423D01*
X5817361Y-28084138D01*
X5845932Y-28069852D01*
X5888790Y-28069852D01*
X5917361Y-28084138D01*
X5931647Y-28098423D01*
X5945932Y-28126995D01*
X5945932Y-28212709D01*
X5931647Y-28241281D01*
X5917361Y-28255566D01*
X5888790Y-28269852D01*
X5845932Y-28269852D01*
X6117361Y-28269852D02*
X6088790Y-28255566D01*
X6074504Y-28226995D01*
X6074504Y-27969852D01*
X6345932Y-28255566D02*
X6317361Y-28269852D01*
X6260218Y-28269852D01*
X6231647Y-28255566D01*
X6217361Y-28226995D01*
X6217361Y-28112709D01*
X6231647Y-28084138D01*
X6260218Y-28069852D01*
X6317361Y-28069852D01*
X6345932Y-28084138D01*
X6360218Y-28112709D01*
X6360218Y-28141281D01*
X6217361Y-28169852D01*
X6474504Y-28255566D02*
X6503075Y-28269852D01*
X6560218Y-28269852D01*
X6588790Y-28255566D01*
X6603075Y-28226995D01*
X6603075Y-28212709D01*
X6588790Y-28184138D01*
X6560218Y-28169852D01*
X6517361Y-28169852D01*
X6488790Y-28155566D01*
X6474504Y-28126995D01*
X6474504Y-28112709D01*
X6488790Y-28084138D01*
X6517361Y-28069852D01*
X6560218Y-28069852D01*
X6588790Y-28084138D01*
X6703075Y-28384138D02*
X6717361Y-28369852D01*
X6745932Y-28326995D01*
X6760218Y-28298423D01*
X6774504Y-28255566D01*
X6788790Y-28184138D01*
X6788790Y-28126995D01*
X6774504Y-28055566D01*
X6760218Y-28012709D01*
X6745932Y-27984138D01*
X6717361Y-27941281D01*
X6703075Y-27926995D01*
X216647Y-28530138D02*
G75*
G03X216647Y-28530138I-40000J0D01*
G01*
X560218Y-28365852D02*
X588790Y-28365852D01*
X617361Y-28380138D01*
X631647Y-28394423D01*
X645933Y-28422995D01*
X660218Y-28480138D01*
X660218Y-28551566D01*
X645933Y-28608709D01*
X631647Y-28637281D01*
X617361Y-28651566D01*
X588790Y-28665852D01*
X560218Y-28665852D01*
X531647Y-28651566D01*
X517361Y-28637281D01*
X503075Y-28608709D01*
X488790Y-28551566D01*
X488790Y-28480138D01*
X503075Y-28422995D01*
X517361Y-28394423D01*
X531647Y-28380138D01*
X560218Y-28365852D01*
X788790Y-28637281D02*
X803075Y-28651566D01*
X788790Y-28665852D01*
X774504Y-28651566D01*
X788790Y-28637281D01*
X788790Y-28665852D01*
X974504Y-28494423D02*
X945932Y-28480138D01*
X931647Y-28465852D01*
X917361Y-28437281D01*
X917361Y-28422995D01*
X931647Y-28394423D01*
X945932Y-28380138D01*
X974504Y-28365852D01*
X1031647Y-28365852D01*
X1060218Y-28380138D01*
X1074504Y-28394423D01*
X1088790Y-28422995D01*
X1088790Y-28437281D01*
X1074504Y-28465852D01*
X1060218Y-28480138D01*
X1031647Y-28494423D01*
X974504Y-28494423D01*
X945932Y-28508709D01*
X931647Y-28522995D01*
X917361Y-28551566D01*
X917361Y-28608709D01*
X931647Y-28637281D01*
X945932Y-28651566D01*
X974504Y-28665852D01*
X1031647Y-28665852D01*
X1060218Y-28651566D01*
X1074504Y-28637281D01*
X1088790Y-28608709D01*
X1088790Y-28551566D01*
X1074504Y-28522995D01*
X1060218Y-28508709D01*
X1031647Y-28494423D01*
X1274504Y-28365852D02*
X1303075Y-28365852D01*
X1331647Y-28380138D01*
X1345933Y-28394423D01*
X1360218Y-28422995D01*
X1374504Y-28480138D01*
X1374504Y-28551566D01*
X1360218Y-28608709D01*
X1345933Y-28637281D01*
X1331647Y-28651566D01*
X1303075Y-28665852D01*
X1274504Y-28665852D01*
X1245933Y-28651566D01*
X1231647Y-28637281D01*
X1217361Y-28608709D01*
X1203075Y-28551566D01*
X1203075Y-28480138D01*
X1217361Y-28422995D01*
X1231647Y-28394423D01*
X1245933Y-28380138D01*
X1274504Y-28365852D01*
X1503075Y-28665852D02*
X1503075Y-28465852D01*
X1503075Y-28494423D02*
X1517361Y-28480138D01*
X1545932Y-28465852D01*
X1588790Y-28465852D01*
X1617361Y-28480138D01*
X1631647Y-28508709D01*
X1631647Y-28665852D01*
X1631647Y-28508709D02*
X1645932Y-28480138D01*
X1674504Y-28465852D01*
X1717361Y-28465852D01*
X1745932Y-28480138D01*
X1760218Y-28508709D01*
X1760218Y-28665852D01*
X1903075Y-28665852D02*
X1903075Y-28465852D01*
X1903075Y-28494423D02*
X1917361Y-28480138D01*
X1945932Y-28465852D01*
X1988790Y-28465852D01*
X2017361Y-28480138D01*
X2031647Y-28508709D01*
X2031647Y-28665852D01*
X2031647Y-28508709D02*
X2045932Y-28480138D01*
X2074504Y-28465852D01*
X2117361Y-28465852D01*
X2145933Y-28480138D01*
X2160218Y-28508709D01*
X2160218Y-28665852D01*
X2745933Y-28351566D02*
X2488790Y-28737281D01*
X3131647Y-28365852D02*
X3160218Y-28365852D01*
X3188790Y-28380138D01*
X3203075Y-28394423D01*
X3217361Y-28422995D01*
X3231647Y-28480138D01*
X3231647Y-28551566D01*
X3217361Y-28608709D01*
X3203075Y-28637281D01*
X3188790Y-28651566D01*
X3160218Y-28665852D01*
X3131647Y-28665852D01*
X3103075Y-28651566D01*
X3088790Y-28637281D01*
X3074504Y-28608709D01*
X3060218Y-28551566D01*
X3060218Y-28480138D01*
X3074504Y-28422995D01*
X3088790Y-28394423D01*
X3103075Y-28380138D01*
X3131647Y-28365852D01*
X3360218Y-28637281D02*
X3374504Y-28651566D01*
X3360218Y-28665852D01*
X3345932Y-28651566D01*
X3360218Y-28637281D01*
X3360218Y-28665852D01*
X3560218Y-28365852D02*
X3588790Y-28365852D01*
X3617361Y-28380138D01*
X3631647Y-28394423D01*
X3645932Y-28422995D01*
X3660218Y-28480138D01*
X3660218Y-28551566D01*
X3645932Y-28608709D01*
X3631647Y-28637281D01*
X3617361Y-28651566D01*
X3588790Y-28665852D01*
X3560218Y-28665852D01*
X3531647Y-28651566D01*
X3517361Y-28637281D01*
X3503075Y-28608709D01*
X3488790Y-28551566D01*
X3488790Y-28480138D01*
X3503075Y-28422995D01*
X3517361Y-28394423D01*
X3531647Y-28380138D01*
X3560218Y-28365852D01*
X3760218Y-28365852D02*
X3945932Y-28365852D01*
X3845932Y-28480138D01*
X3888790Y-28480138D01*
X3917361Y-28494423D01*
X3931647Y-28508709D01*
X3945932Y-28537281D01*
X3945932Y-28608709D01*
X3931647Y-28637281D01*
X3917361Y-28651566D01*
X3888790Y-28665852D01*
X3803075Y-28665852D01*
X3774504Y-28651566D01*
X3760218Y-28637281D01*
X4231647Y-28665852D02*
X4060218Y-28665852D01*
X4145932Y-28665852D02*
X4145932Y-28365852D01*
X4117361Y-28408709D01*
X4088790Y-28437281D01*
X4060218Y-28451566D01*
X4345933Y-28365852D02*
X4345933Y-28422995D01*
X4460218Y-28365852D02*
X4460218Y-28422995D01*
X4903075Y-28780138D02*
X4888790Y-28765852D01*
X4860218Y-28722995D01*
X4845933Y-28694423D01*
X4831647Y-28651566D01*
X4817361Y-28580138D01*
X4817361Y-28522995D01*
X4831647Y-28451566D01*
X4845933Y-28408709D01*
X4860218Y-28380138D01*
X4888790Y-28337281D01*
X4903075Y-28322995D01*
X5060218Y-28494423D02*
X5031647Y-28480138D01*
X5017361Y-28465852D01*
X5003075Y-28437281D01*
X5003075Y-28422995D01*
X5017361Y-28394423D01*
X5031647Y-28380138D01*
X5060218Y-28365852D01*
X5117361Y-28365852D01*
X5145933Y-28380138D01*
X5160218Y-28394423D01*
X5174504Y-28422995D01*
X5174504Y-28437281D01*
X5160218Y-28465852D01*
X5145933Y-28480138D01*
X5117361Y-28494423D01*
X5060218Y-28494423D01*
X5031647Y-28508709D01*
X5017361Y-28522995D01*
X5003075Y-28551566D01*
X5003075Y-28608709D01*
X5017361Y-28637281D01*
X5031647Y-28651566D01*
X5060218Y-28665852D01*
X5117361Y-28665852D01*
X5145933Y-28651566D01*
X5160218Y-28637281D01*
X5174504Y-28608709D01*
X5174504Y-28551566D01*
X5160218Y-28522995D01*
X5145933Y-28508709D01*
X5117361Y-28494423D01*
X5531647Y-28665852D02*
X5531647Y-28365852D01*
X5660218Y-28665852D02*
X5660218Y-28508709D01*
X5645932Y-28480138D01*
X5617361Y-28465852D01*
X5574504Y-28465852D01*
X5545933Y-28480138D01*
X5531647Y-28494423D01*
X5845932Y-28665852D02*
X5817361Y-28651566D01*
X5803075Y-28637281D01*
X5788790Y-28608709D01*
X5788790Y-28522995D01*
X5803075Y-28494423D01*
X5817361Y-28480138D01*
X5845932Y-28465852D01*
X5888790Y-28465852D01*
X5917361Y-28480138D01*
X5931647Y-28494423D01*
X5945932Y-28522995D01*
X5945932Y-28608709D01*
X5931647Y-28637281D01*
X5917361Y-28651566D01*
X5888790Y-28665852D01*
X5845932Y-28665852D01*
X6117361Y-28665852D02*
X6088790Y-28651566D01*
X6074504Y-28622995D01*
X6074504Y-28365852D01*
X6345932Y-28651566D02*
X6317361Y-28665852D01*
X6260218Y-28665852D01*
X6231647Y-28651566D01*
X6217361Y-28622995D01*
X6217361Y-28508709D01*
X6231647Y-28480138D01*
X6260218Y-28465852D01*
X6317361Y-28465852D01*
X6345932Y-28480138D01*
X6360218Y-28508709D01*
X6360218Y-28537281D01*
X6217361Y-28565852D01*
X6474504Y-28651566D02*
X6503075Y-28665852D01*
X6560218Y-28665852D01*
X6588790Y-28651566D01*
X6603075Y-28622995D01*
X6603075Y-28608709D01*
X6588790Y-28580138D01*
X6560218Y-28565852D01*
X6517361Y-28565852D01*
X6488790Y-28551566D01*
X6474504Y-28522995D01*
X6474504Y-28508709D01*
X6488790Y-28480138D01*
X6517361Y-28465852D01*
X6560218Y-28465852D01*
X6588790Y-28480138D01*
X6703075Y-28780138D02*
X6717361Y-28765852D01*
X6745932Y-28722995D01*
X6760218Y-28694423D01*
X6774504Y-28651566D01*
X6788790Y-28580138D01*
X6788790Y-28522995D01*
X6774504Y-28451566D01*
X6760218Y-28408709D01*
X6745932Y-28380138D01*
X6717361Y-28337281D01*
X6703075Y-28322995D01*
X166647Y-28876138D02*
X166647Y-28976138D01*
X116647Y-28926138D02*
X216647Y-28926138D01*
X660218Y-29061852D02*
X488790Y-29061852D01*
X574504Y-29061852D02*
X574504Y-28761852D01*
X545933Y-28804709D01*
X517361Y-28833281D01*
X488790Y-28847566D01*
X788790Y-29033281D02*
X803075Y-29047566D01*
X788790Y-29061852D01*
X774504Y-29047566D01*
X788790Y-29033281D01*
X788790Y-29061852D01*
X988790Y-28761852D02*
X1017361Y-28761852D01*
X1045932Y-28776138D01*
X1060218Y-28790423D01*
X1074504Y-28818995D01*
X1088790Y-28876138D01*
X1088790Y-28947566D01*
X1074504Y-29004709D01*
X1060218Y-29033281D01*
X1045932Y-29047566D01*
X1017361Y-29061852D01*
X988790Y-29061852D01*
X960218Y-29047566D01*
X945932Y-29033281D01*
X931647Y-29004709D01*
X917361Y-28947566D01*
X917361Y-28876138D01*
X931647Y-28818995D01*
X945932Y-28790423D01*
X960218Y-28776138D01*
X988790Y-28761852D01*
X1274504Y-28761852D02*
X1303075Y-28761852D01*
X1331647Y-28776138D01*
X1345933Y-28790423D01*
X1360218Y-28818995D01*
X1374504Y-28876138D01*
X1374504Y-28947566D01*
X1360218Y-29004709D01*
X1345933Y-29033281D01*
X1331647Y-29047566D01*
X1303075Y-29061852D01*
X1274504Y-29061852D01*
X1245933Y-29047566D01*
X1231647Y-29033281D01*
X1217361Y-29004709D01*
X1203075Y-28947566D01*
X1203075Y-28876138D01*
X1217361Y-28818995D01*
X1231647Y-28790423D01*
X1245933Y-28776138D01*
X1274504Y-28761852D01*
X1503075Y-29061852D02*
X1503075Y-28861852D01*
X1503075Y-28890423D02*
X1517361Y-28876138D01*
X1545932Y-28861852D01*
X1588790Y-28861852D01*
X1617361Y-28876138D01*
X1631647Y-28904709D01*
X1631647Y-29061852D01*
X1631647Y-28904709D02*
X1645932Y-28876138D01*
X1674504Y-28861852D01*
X1717361Y-28861852D01*
X1745932Y-28876138D01*
X1760218Y-28904709D01*
X1760218Y-29061852D01*
X1903075Y-29061852D02*
X1903075Y-28861852D01*
X1903075Y-28890423D02*
X1917361Y-28876138D01*
X1945932Y-28861852D01*
X1988790Y-28861852D01*
X2017361Y-28876138D01*
X2031647Y-28904709D01*
X2031647Y-29061852D01*
X2031647Y-28904709D02*
X2045932Y-28876138D01*
X2074504Y-28861852D01*
X2117361Y-28861852D01*
X2145933Y-28876138D01*
X2160218Y-28904709D01*
X2160218Y-29061852D01*
X2745933Y-28747566D02*
X2488790Y-29133281D01*
X3131647Y-28761852D02*
X3160218Y-28761852D01*
X3188790Y-28776138D01*
X3203075Y-28790423D01*
X3217361Y-28818995D01*
X3231647Y-28876138D01*
X3231647Y-28947566D01*
X3217361Y-29004709D01*
X3203075Y-29033281D01*
X3188790Y-29047566D01*
X3160218Y-29061852D01*
X3131647Y-29061852D01*
X3103075Y-29047566D01*
X3088790Y-29033281D01*
X3074504Y-29004709D01*
X3060218Y-28947566D01*
X3060218Y-28876138D01*
X3074504Y-28818995D01*
X3088790Y-28790423D01*
X3103075Y-28776138D01*
X3131647Y-28761852D01*
X3360218Y-29033281D02*
X3374504Y-29047566D01*
X3360218Y-29061852D01*
X3345932Y-29047566D01*
X3360218Y-29033281D01*
X3360218Y-29061852D01*
X3560218Y-28761852D02*
X3588790Y-28761852D01*
X3617361Y-28776138D01*
X3631647Y-28790423D01*
X3645932Y-28818995D01*
X3660218Y-28876138D01*
X3660218Y-28947566D01*
X3645932Y-29004709D01*
X3631647Y-29033281D01*
X3617361Y-29047566D01*
X3588790Y-29061852D01*
X3560218Y-29061852D01*
X3531647Y-29047566D01*
X3517361Y-29033281D01*
X3503075Y-29004709D01*
X3488790Y-28947566D01*
X3488790Y-28876138D01*
X3503075Y-28818995D01*
X3517361Y-28790423D01*
X3531647Y-28776138D01*
X3560218Y-28761852D01*
X3760218Y-28761852D02*
X3945932Y-28761852D01*
X3845932Y-28876138D01*
X3888790Y-28876138D01*
X3917361Y-28890423D01*
X3931647Y-28904709D01*
X3945932Y-28933281D01*
X3945932Y-29004709D01*
X3931647Y-29033281D01*
X3917361Y-29047566D01*
X3888790Y-29061852D01*
X3803075Y-29061852D01*
X3774504Y-29047566D01*
X3760218Y-29033281D01*
X4088790Y-29061852D02*
X4145932Y-29061852D01*
X4174504Y-29047566D01*
X4188790Y-29033281D01*
X4217361Y-28990423D01*
X4231647Y-28933281D01*
X4231647Y-28818995D01*
X4217361Y-28790423D01*
X4203075Y-28776138D01*
X4174504Y-28761852D01*
X4117361Y-28761852D01*
X4088790Y-28776138D01*
X4074504Y-28790423D01*
X4060218Y-28818995D01*
X4060218Y-28890423D01*
X4074504Y-28918995D01*
X4088790Y-28933281D01*
X4117361Y-28947566D01*
X4174504Y-28947566D01*
X4203075Y-28933281D01*
X4217361Y-28918995D01*
X4231647Y-28890423D01*
X4345933Y-28761852D02*
X4345933Y-28818995D01*
X4460218Y-28761852D02*
X4460218Y-28818995D01*
X4903075Y-29176138D02*
X4888790Y-29161852D01*
X4860218Y-29118995D01*
X4845933Y-29090423D01*
X4831647Y-29047566D01*
X4817361Y-28976138D01*
X4817361Y-28918995D01*
X4831647Y-28847566D01*
X4845933Y-28804709D01*
X4860218Y-28776138D01*
X4888790Y-28733281D01*
X4903075Y-28718995D01*
X5145933Y-28861852D02*
X5145933Y-29061852D01*
X5074504Y-28747566D02*
X5003075Y-28961852D01*
X5188790Y-28961852D01*
X5345933Y-28890423D02*
X5317361Y-28876138D01*
X5303075Y-28861852D01*
X5288790Y-28833281D01*
X5288790Y-28818995D01*
X5303075Y-28790423D01*
X5317361Y-28776138D01*
X5345933Y-28761852D01*
X5403075Y-28761852D01*
X5431647Y-28776138D01*
X5445933Y-28790423D01*
X5460218Y-28818995D01*
X5460218Y-28833281D01*
X5445933Y-28861852D01*
X5431647Y-28876138D01*
X5403075Y-28890423D01*
X5345933Y-28890423D01*
X5317361Y-28904709D01*
X5303075Y-28918995D01*
X5288790Y-28947566D01*
X5288790Y-29004709D01*
X5303075Y-29033281D01*
X5317361Y-29047566D01*
X5345933Y-29061852D01*
X5403075Y-29061852D01*
X5431647Y-29047566D01*
X5445933Y-29033281D01*
X5460218Y-29004709D01*
X5460218Y-28947566D01*
X5445933Y-28918995D01*
X5431647Y-28904709D01*
X5403075Y-28890423D01*
X5817361Y-29061852D02*
X5817361Y-28761852D01*
X5945932Y-29061852D02*
X5945932Y-28904709D01*
X5931647Y-28876138D01*
X5903075Y-28861852D01*
X5860218Y-28861852D01*
X5831647Y-28876138D01*
X5817361Y-28890423D01*
X6131647Y-29061852D02*
X6103075Y-29047566D01*
X6088790Y-29033281D01*
X6074504Y-29004709D01*
X6074504Y-28918995D01*
X6088790Y-28890423D01*
X6103075Y-28876138D01*
X6131647Y-28861852D01*
X6174504Y-28861852D01*
X6203075Y-28876138D01*
X6217361Y-28890423D01*
X6231647Y-28918995D01*
X6231647Y-29004709D01*
X6217361Y-29033281D01*
X6203075Y-29047566D01*
X6174504Y-29061852D01*
X6131647Y-29061852D01*
X6403075Y-29061852D02*
X6374504Y-29047566D01*
X6360218Y-29018995D01*
X6360218Y-28761852D01*
X6631647Y-29047566D02*
X6603075Y-29061852D01*
X6545932Y-29061852D01*
X6517361Y-29047566D01*
X6503075Y-29018995D01*
X6503075Y-28904709D01*
X6517361Y-28876138D01*
X6545932Y-28861852D01*
X6603075Y-28861852D01*
X6631647Y-28876138D01*
X6645932Y-28904709D01*
X6645932Y-28933281D01*
X6503075Y-28961852D01*
X6760218Y-29047566D02*
X6788790Y-29061852D01*
X6845932Y-29061852D01*
X6874504Y-29047566D01*
X6888790Y-29018995D01*
X6888790Y-29004709D01*
X6874504Y-28976138D01*
X6845932Y-28961852D01*
X6803075Y-28961852D01*
X6774504Y-28947566D01*
X6760218Y-28918995D01*
X6760218Y-28904709D01*
X6774504Y-28876138D01*
X6803075Y-28861852D01*
X6845932Y-28861852D01*
X6874504Y-28876138D01*
X6988790Y-29176138D02*
X7003075Y-29161852D01*
X7031647Y-29118995D01*
X7045932Y-29090423D01*
X7060218Y-29047566D01*
X7074504Y-28976138D01*
X7074504Y-28918995D01*
X7060218Y-28847566D01*
X7045932Y-28804709D01*
X7031647Y-28776138D01*
X7003075Y-28733281D01*
X6988790Y-28718995D01*
X195120Y-29374111D02*
X195120Y-29270165D01*
X91174Y-29270165D01*
X91174Y-29374111D01*
X195120Y-29374111D01*
X660218Y-29457852D02*
X488790Y-29457852D01*
X574504Y-29457852D02*
X574504Y-29157852D01*
X545933Y-29200709D01*
X517361Y-29229281D01*
X488790Y-29243566D01*
X788790Y-29429281D02*
X803075Y-29443566D01*
X788790Y-29457852D01*
X774504Y-29443566D01*
X788790Y-29429281D01*
X788790Y-29457852D01*
X1060218Y-29257852D02*
X1060218Y-29457852D01*
X988790Y-29143566D02*
X917361Y-29357852D01*
X1103075Y-29357852D01*
X1188790Y-29157852D02*
X1388790Y-29157852D01*
X1260218Y-29457852D01*
X1503075Y-29457852D02*
X1503075Y-29257852D01*
X1503075Y-29286423D02*
X1517361Y-29272138D01*
X1545932Y-29257852D01*
X1588790Y-29257852D01*
X1617361Y-29272138D01*
X1631647Y-29300709D01*
X1631647Y-29457852D01*
X1631647Y-29300709D02*
X1645932Y-29272138D01*
X1674504Y-29257852D01*
X1717361Y-29257852D01*
X1745932Y-29272138D01*
X1760218Y-29300709D01*
X1760218Y-29457852D01*
X1903075Y-29457852D02*
X1903075Y-29257852D01*
X1903075Y-29286423D02*
X1917361Y-29272138D01*
X1945932Y-29257852D01*
X1988790Y-29257852D01*
X2017361Y-29272138D01*
X2031647Y-29300709D01*
X2031647Y-29457852D01*
X2031647Y-29300709D02*
X2045932Y-29272138D01*
X2074504Y-29257852D01*
X2117361Y-29257852D01*
X2145933Y-29272138D01*
X2160218Y-29300709D01*
X2160218Y-29457852D01*
X2745933Y-29143566D02*
X2488790Y-29529281D01*
X3131647Y-29157852D02*
X3160218Y-29157852D01*
X3188790Y-29172138D01*
X3203075Y-29186423D01*
X3217361Y-29214995D01*
X3231647Y-29272138D01*
X3231647Y-29343566D01*
X3217361Y-29400709D01*
X3203075Y-29429281D01*
X3188790Y-29443566D01*
X3160218Y-29457852D01*
X3131647Y-29457852D01*
X3103075Y-29443566D01*
X3088790Y-29429281D01*
X3074504Y-29400709D01*
X3060218Y-29343566D01*
X3060218Y-29272138D01*
X3074504Y-29214995D01*
X3088790Y-29186423D01*
X3103075Y-29172138D01*
X3131647Y-29157852D01*
X3360218Y-29429281D02*
X3374504Y-29443566D01*
X3360218Y-29457852D01*
X3345932Y-29443566D01*
X3360218Y-29429281D01*
X3360218Y-29457852D01*
X3560218Y-29157852D02*
X3588790Y-29157852D01*
X3617361Y-29172138D01*
X3631647Y-29186423D01*
X3645932Y-29214995D01*
X3660218Y-29272138D01*
X3660218Y-29343566D01*
X3645932Y-29400709D01*
X3631647Y-29429281D01*
X3617361Y-29443566D01*
X3588790Y-29457852D01*
X3560218Y-29457852D01*
X3531647Y-29443566D01*
X3517361Y-29429281D01*
X3503075Y-29400709D01*
X3488790Y-29343566D01*
X3488790Y-29272138D01*
X3503075Y-29214995D01*
X3517361Y-29186423D01*
X3531647Y-29172138D01*
X3560218Y-29157852D01*
X3931647Y-29157852D02*
X3788790Y-29157852D01*
X3774504Y-29300709D01*
X3788790Y-29286423D01*
X3817361Y-29272138D01*
X3888790Y-29272138D01*
X3917361Y-29286423D01*
X3931647Y-29300709D01*
X3945932Y-29329281D01*
X3945932Y-29400709D01*
X3931647Y-29429281D01*
X3917361Y-29443566D01*
X3888790Y-29457852D01*
X3817361Y-29457852D01*
X3788790Y-29443566D01*
X3774504Y-29429281D01*
X4117361Y-29286423D02*
X4088790Y-29272138D01*
X4074504Y-29257852D01*
X4060218Y-29229281D01*
X4060218Y-29214995D01*
X4074504Y-29186423D01*
X4088790Y-29172138D01*
X4117361Y-29157852D01*
X4174504Y-29157852D01*
X4203075Y-29172138D01*
X4217361Y-29186423D01*
X4231647Y-29214995D01*
X4231647Y-29229281D01*
X4217361Y-29257852D01*
X4203075Y-29272138D01*
X4174504Y-29286423D01*
X4117361Y-29286423D01*
X4088790Y-29300709D01*
X4074504Y-29314995D01*
X4060218Y-29343566D01*
X4060218Y-29400709D01*
X4074504Y-29429281D01*
X4088790Y-29443566D01*
X4117361Y-29457852D01*
X4174504Y-29457852D01*
X4203075Y-29443566D01*
X4217361Y-29429281D01*
X4231647Y-29400709D01*
X4231647Y-29343566D01*
X4217361Y-29314995D01*
X4203075Y-29300709D01*
X4174504Y-29286423D01*
X4345933Y-29157852D02*
X4345933Y-29214995D01*
X4460218Y-29157852D02*
X4460218Y-29214995D01*
X4903075Y-29572138D02*
X4888790Y-29557852D01*
X4860218Y-29514995D01*
X4845933Y-29486423D01*
X4831647Y-29443566D01*
X4817361Y-29372138D01*
X4817361Y-29314995D01*
X4831647Y-29243566D01*
X4845933Y-29200709D01*
X4860218Y-29172138D01*
X4888790Y-29129281D01*
X4903075Y-29114995D01*
X5174504Y-29457852D02*
X5003075Y-29457852D01*
X5088790Y-29457852D02*
X5088790Y-29157852D01*
X5060218Y-29200709D01*
X5031647Y-29229281D01*
X5003075Y-29243566D01*
X5288790Y-29186423D02*
X5303075Y-29172138D01*
X5331647Y-29157852D01*
X5403075Y-29157852D01*
X5431647Y-29172138D01*
X5445933Y-29186423D01*
X5460218Y-29214995D01*
X5460218Y-29243566D01*
X5445933Y-29286423D01*
X5274504Y-29457852D01*
X5460218Y-29457852D01*
X5631647Y-29286423D02*
X5603075Y-29272138D01*
X5588790Y-29257852D01*
X5574504Y-29229281D01*
X5574504Y-29214995D01*
X5588790Y-29186423D01*
X5603075Y-29172138D01*
X5631647Y-29157852D01*
X5688790Y-29157852D01*
X5717361Y-29172138D01*
X5731647Y-29186423D01*
X5745932Y-29214995D01*
X5745932Y-29229281D01*
X5731647Y-29257852D01*
X5717361Y-29272138D01*
X5688790Y-29286423D01*
X5631647Y-29286423D01*
X5603075Y-29300709D01*
X5588790Y-29314995D01*
X5574504Y-29343566D01*
X5574504Y-29400709D01*
X5588790Y-29429281D01*
X5603075Y-29443566D01*
X5631647Y-29457852D01*
X5688790Y-29457852D01*
X5717361Y-29443566D01*
X5731647Y-29429281D01*
X5745932Y-29400709D01*
X5745932Y-29343566D01*
X5731647Y-29314995D01*
X5717361Y-29300709D01*
X5688790Y-29286423D01*
X6103075Y-29457852D02*
X6103075Y-29157852D01*
X6231647Y-29457852D02*
X6231647Y-29300709D01*
X6217361Y-29272138D01*
X6188790Y-29257852D01*
X6145932Y-29257852D01*
X6117361Y-29272138D01*
X6103075Y-29286423D01*
X6417361Y-29457852D02*
X6388790Y-29443566D01*
X6374504Y-29429281D01*
X6360218Y-29400709D01*
X6360218Y-29314995D01*
X6374504Y-29286423D01*
X6388790Y-29272138D01*
X6417361Y-29257852D01*
X6460218Y-29257852D01*
X6488790Y-29272138D01*
X6503075Y-29286423D01*
X6517361Y-29314995D01*
X6517361Y-29400709D01*
X6503075Y-29429281D01*
X6488790Y-29443566D01*
X6460218Y-29457852D01*
X6417361Y-29457852D01*
X6688790Y-29457852D02*
X6660218Y-29443566D01*
X6645932Y-29414995D01*
X6645932Y-29157852D01*
X6917361Y-29443566D02*
X6888790Y-29457852D01*
X6831647Y-29457852D01*
X6803075Y-29443566D01*
X6788790Y-29414995D01*
X6788790Y-29300709D01*
X6803075Y-29272138D01*
X6831647Y-29257852D01*
X6888790Y-29257852D01*
X6917361Y-29272138D01*
X6931647Y-29300709D01*
X6931647Y-29329281D01*
X6788790Y-29357852D01*
X7045932Y-29443566D02*
X7074504Y-29457852D01*
X7131647Y-29457852D01*
X7160218Y-29443566D01*
X7174504Y-29414995D01*
X7174504Y-29400709D01*
X7160218Y-29372138D01*
X7131647Y-29357852D01*
X7088790Y-29357852D01*
X7060218Y-29343566D01*
X7045932Y-29314995D01*
X7045932Y-29300709D01*
X7060218Y-29272138D01*
X7088790Y-29257852D01*
X7131647Y-29257852D01*
X7160218Y-29272138D01*
X7274504Y-29572138D02*
X7288790Y-29557852D01*
X7317361Y-29514995D01*
X7331647Y-29486423D01*
X7345932Y-29443566D01*
X7360218Y-29372138D01*
X7360218Y-29314995D01*
X7345932Y-29243566D01*
X7331647Y-29200709D01*
X7317361Y-29172138D01*
X7288790Y-29129281D01*
X7274504Y-29114995D01*
X-83353Y-30018138D02*
X216647Y-29718138D01*
X-83353Y-29418138D01*
X-383353Y-29718138D01*
X-83353Y-30018138D01*
X631647Y-29553852D02*
X574504Y-29553852D01*
X545933Y-29568138D01*
X531647Y-29582423D01*
X503075Y-29625281D01*
X488790Y-29682423D01*
X488790Y-29796709D01*
X503075Y-29825281D01*
X517361Y-29839566D01*
X545933Y-29853852D01*
X603075Y-29853852D01*
X631647Y-29839566D01*
X645933Y-29825281D01*
X660218Y-29796709D01*
X660218Y-29725281D01*
X645933Y-29696709D01*
X631647Y-29682423D01*
X603075Y-29668138D01*
X545933Y-29668138D01*
X517361Y-29682423D01*
X503075Y-29696709D01*
X488790Y-29725281D01*
X788790Y-29825281D02*
X803075Y-29839566D01*
X788790Y-29853852D01*
X774504Y-29839566D01*
X788790Y-29825281D01*
X788790Y-29853852D01*
X988790Y-29553852D02*
X1017361Y-29553852D01*
X1045932Y-29568138D01*
X1060218Y-29582423D01*
X1074504Y-29610995D01*
X1088790Y-29668138D01*
X1088790Y-29739566D01*
X1074504Y-29796709D01*
X1060218Y-29825281D01*
X1045932Y-29839566D01*
X1017361Y-29853852D01*
X988790Y-29853852D01*
X960218Y-29839566D01*
X945932Y-29825281D01*
X931647Y-29796709D01*
X917361Y-29739566D01*
X917361Y-29668138D01*
X931647Y-29610995D01*
X945932Y-29582423D01*
X960218Y-29568138D01*
X988790Y-29553852D01*
X1274504Y-29553852D02*
X1303075Y-29553852D01*
X1331647Y-29568138D01*
X1345933Y-29582423D01*
X1360218Y-29610995D01*
X1374504Y-29668138D01*
X1374504Y-29739566D01*
X1360218Y-29796709D01*
X1345933Y-29825281D01*
X1331647Y-29839566D01*
X1303075Y-29853852D01*
X1274504Y-29853852D01*
X1245933Y-29839566D01*
X1231647Y-29825281D01*
X1217361Y-29796709D01*
X1203075Y-29739566D01*
X1203075Y-29668138D01*
X1217361Y-29610995D01*
X1231647Y-29582423D01*
X1245933Y-29568138D01*
X1274504Y-29553852D01*
X1503075Y-29853852D02*
X1503075Y-29653852D01*
X1503075Y-29682423D02*
X1517361Y-29668138D01*
X1545932Y-29653852D01*
X1588790Y-29653852D01*
X1617361Y-29668138D01*
X1631647Y-29696709D01*
X1631647Y-29853852D01*
X1631647Y-29696709D02*
X1645932Y-29668138D01*
X1674504Y-29653852D01*
X1717361Y-29653852D01*
X1745932Y-29668138D01*
X1760218Y-29696709D01*
X1760218Y-29853852D01*
X1903075Y-29853852D02*
X1903075Y-29653852D01*
X1903075Y-29682423D02*
X1917361Y-29668138D01*
X1945932Y-29653852D01*
X1988790Y-29653852D01*
X2017361Y-29668138D01*
X2031647Y-29696709D01*
X2031647Y-29853852D01*
X2031647Y-29696709D02*
X2045932Y-29668138D01*
X2074504Y-29653852D01*
X2117361Y-29653852D01*
X2145933Y-29668138D01*
X2160218Y-29696709D01*
X2160218Y-29853852D01*
X2745933Y-29539566D02*
X2488790Y-29925281D01*
X3131647Y-29553852D02*
X3160218Y-29553852D01*
X3188790Y-29568138D01*
X3203075Y-29582423D01*
X3217361Y-29610995D01*
X3231647Y-29668138D01*
X3231647Y-29739566D01*
X3217361Y-29796709D01*
X3203075Y-29825281D01*
X3188790Y-29839566D01*
X3160218Y-29853852D01*
X3131647Y-29853852D01*
X3103075Y-29839566D01*
X3088790Y-29825281D01*
X3074504Y-29796709D01*
X3060218Y-29739566D01*
X3060218Y-29668138D01*
X3074504Y-29610995D01*
X3088790Y-29582423D01*
X3103075Y-29568138D01*
X3131647Y-29553852D01*
X3360218Y-29825281D02*
X3374504Y-29839566D01*
X3360218Y-29853852D01*
X3345932Y-29839566D01*
X3360218Y-29825281D01*
X3360218Y-29853852D01*
X3488790Y-29582423D02*
X3503075Y-29568138D01*
X3531647Y-29553852D01*
X3603075Y-29553852D01*
X3631647Y-29568138D01*
X3645932Y-29582423D01*
X3660218Y-29610995D01*
X3660218Y-29639566D01*
X3645932Y-29682423D01*
X3474504Y-29853852D01*
X3660218Y-29853852D01*
X3760218Y-29553852D02*
X3945932Y-29553852D01*
X3845932Y-29668138D01*
X3888790Y-29668138D01*
X3917361Y-29682423D01*
X3931647Y-29696709D01*
X3945932Y-29725281D01*
X3945932Y-29796709D01*
X3931647Y-29825281D01*
X3917361Y-29839566D01*
X3888790Y-29853852D01*
X3803075Y-29853852D01*
X3774504Y-29839566D01*
X3760218Y-29825281D01*
X4203075Y-29553852D02*
X4145932Y-29553852D01*
X4117361Y-29568138D01*
X4103075Y-29582423D01*
X4074504Y-29625281D01*
X4060218Y-29682423D01*
X4060218Y-29796709D01*
X4074504Y-29825281D01*
X4088790Y-29839566D01*
X4117361Y-29853852D01*
X4174504Y-29853852D01*
X4203075Y-29839566D01*
X4217361Y-29825281D01*
X4231647Y-29796709D01*
X4231647Y-29725281D01*
X4217361Y-29696709D01*
X4203075Y-29682423D01*
X4174504Y-29668138D01*
X4117361Y-29668138D01*
X4088790Y-29682423D01*
X4074504Y-29696709D01*
X4060218Y-29725281D01*
X4345933Y-29553852D02*
X4345933Y-29610995D01*
X4460218Y-29553852D02*
X4460218Y-29610995D01*
X4903075Y-29968138D02*
X4888790Y-29953852D01*
X4860218Y-29910995D01*
X4845933Y-29882423D01*
X4831647Y-29839566D01*
X4817361Y-29768138D01*
X4817361Y-29710995D01*
X4831647Y-29639566D01*
X4845933Y-29596709D01*
X4860218Y-29568138D01*
X4888790Y-29525281D01*
X4903075Y-29510995D01*
X5174504Y-29853852D02*
X5003075Y-29853852D01*
X5088790Y-29853852D02*
X5088790Y-29553852D01*
X5060218Y-29596709D01*
X5031647Y-29625281D01*
X5003075Y-29639566D01*
X5531647Y-29853852D02*
X5531647Y-29553852D01*
X5660218Y-29853852D02*
X5660218Y-29696709D01*
X5645932Y-29668138D01*
X5617361Y-29653852D01*
X5574504Y-29653852D01*
X5545933Y-29668138D01*
X5531647Y-29682423D01*
X5845932Y-29853852D02*
X5817361Y-29839566D01*
X5803075Y-29825281D01*
X5788790Y-29796709D01*
X5788790Y-29710995D01*
X5803075Y-29682423D01*
X5817361Y-29668138D01*
X5845932Y-29653852D01*
X5888790Y-29653852D01*
X5917361Y-29668138D01*
X5931647Y-29682423D01*
X5945932Y-29710995D01*
X5945932Y-29796709D01*
X5931647Y-29825281D01*
X5917361Y-29839566D01*
X5888790Y-29853852D01*
X5845932Y-29853852D01*
X6117361Y-29853852D02*
X6088790Y-29839566D01*
X6074504Y-29810995D01*
X6074504Y-29553852D01*
X6345932Y-29839566D02*
X6317361Y-29853852D01*
X6260218Y-29853852D01*
X6231647Y-29839566D01*
X6217361Y-29810995D01*
X6217361Y-29696709D01*
X6231647Y-29668138D01*
X6260218Y-29653852D01*
X6317361Y-29653852D01*
X6345932Y-29668138D01*
X6360218Y-29696709D01*
X6360218Y-29725281D01*
X6217361Y-29753852D01*
X6460218Y-29968138D02*
X6474504Y-29953852D01*
X6503075Y-29910995D01*
X6517361Y-29882423D01*
X6531647Y-29839566D01*
X6545932Y-29768138D01*
X6545932Y-29710995D01*
X6531647Y-29639566D01*
X6517361Y-29596709D01*
X6503075Y-29568138D01*
X6474504Y-29525281D01*
X6460218Y-29510995D01*
X-623353Y-30028138D02*
X216647Y-30868138D01*
X216647Y-30028138D02*
X-623353Y-30868138D01*
X216647Y-30448138D02*
G75*
G03X216647Y-30448138I-420000J0D01*
G01*
X545933Y-30412423D02*
X517361Y-30398138D01*
X503075Y-30383852D01*
X488790Y-30355281D01*
X488790Y-30340995D01*
X503075Y-30312423D01*
X517361Y-30298138D01*
X545933Y-30283852D01*
X603075Y-30283852D01*
X631647Y-30298138D01*
X645933Y-30312423D01*
X660218Y-30340995D01*
X660218Y-30355281D01*
X645933Y-30383852D01*
X631647Y-30398138D01*
X603075Y-30412423D01*
X545933Y-30412423D01*
X517361Y-30426709D01*
X503075Y-30440995D01*
X488790Y-30469566D01*
X488790Y-30526709D01*
X503075Y-30555281D01*
X517361Y-30569566D01*
X545933Y-30583852D01*
X603075Y-30583852D01*
X631647Y-30569566D01*
X645933Y-30555281D01*
X660218Y-30526709D01*
X660218Y-30469566D01*
X645933Y-30440995D01*
X631647Y-30426709D01*
X603075Y-30412423D01*
X788790Y-30555281D02*
X803075Y-30569566D01*
X788790Y-30583852D01*
X774504Y-30569566D01*
X788790Y-30555281D01*
X788790Y-30583852D01*
X1060218Y-30383852D02*
X1060218Y-30583852D01*
X988790Y-30269566D02*
X917361Y-30483852D01*
X1103075Y-30483852D01*
X1274504Y-30283852D02*
X1303075Y-30283852D01*
X1331647Y-30298138D01*
X1345933Y-30312423D01*
X1360218Y-30340995D01*
X1374504Y-30398138D01*
X1374504Y-30469566D01*
X1360218Y-30526709D01*
X1345933Y-30555281D01*
X1331647Y-30569566D01*
X1303075Y-30583852D01*
X1274504Y-30583852D01*
X1245933Y-30569566D01*
X1231647Y-30555281D01*
X1217361Y-30526709D01*
X1203075Y-30469566D01*
X1203075Y-30398138D01*
X1217361Y-30340995D01*
X1231647Y-30312423D01*
X1245933Y-30298138D01*
X1274504Y-30283852D01*
X1503075Y-30583852D02*
X1503075Y-30383852D01*
X1503075Y-30412423D02*
X1517361Y-30398138D01*
X1545932Y-30383852D01*
X1588790Y-30383852D01*
X1617361Y-30398138D01*
X1631647Y-30426709D01*
X1631647Y-30583852D01*
X1631647Y-30426709D02*
X1645932Y-30398138D01*
X1674504Y-30383852D01*
X1717361Y-30383852D01*
X1745932Y-30398138D01*
X1760218Y-30426709D01*
X1760218Y-30583852D01*
X1903075Y-30583852D02*
X1903075Y-30383852D01*
X1903075Y-30412423D02*
X1917361Y-30398138D01*
X1945932Y-30383852D01*
X1988790Y-30383852D01*
X2017361Y-30398138D01*
X2031647Y-30426709D01*
X2031647Y-30583852D01*
X2031647Y-30426709D02*
X2045932Y-30398138D01*
X2074504Y-30383852D01*
X2117361Y-30383852D01*
X2145933Y-30398138D01*
X2160218Y-30426709D01*
X2160218Y-30583852D01*
X2745933Y-30269566D02*
X2488790Y-30655281D01*
X3131647Y-30283852D02*
X3160218Y-30283852D01*
X3188790Y-30298138D01*
X3203075Y-30312423D01*
X3217361Y-30340995D01*
X3231647Y-30398138D01*
X3231647Y-30469566D01*
X3217361Y-30526709D01*
X3203075Y-30555281D01*
X3188790Y-30569566D01*
X3160218Y-30583852D01*
X3131647Y-30583852D01*
X3103075Y-30569566D01*
X3088790Y-30555281D01*
X3074504Y-30526709D01*
X3060218Y-30469566D01*
X3060218Y-30398138D01*
X3074504Y-30340995D01*
X3088790Y-30312423D01*
X3103075Y-30298138D01*
X3131647Y-30283852D01*
X3360218Y-30555281D02*
X3374504Y-30569566D01*
X3360218Y-30583852D01*
X3345932Y-30569566D01*
X3360218Y-30555281D01*
X3360218Y-30583852D01*
X3474504Y-30283852D02*
X3660218Y-30283852D01*
X3560218Y-30398138D01*
X3603075Y-30398138D01*
X3631647Y-30412423D01*
X3645932Y-30426709D01*
X3660218Y-30455281D01*
X3660218Y-30526709D01*
X3645932Y-30555281D01*
X3631647Y-30569566D01*
X3603075Y-30583852D01*
X3517361Y-30583852D01*
X3488790Y-30569566D01*
X3474504Y-30555281D01*
X3760218Y-30283852D02*
X3945932Y-30283852D01*
X3845932Y-30398138D01*
X3888790Y-30398138D01*
X3917361Y-30412423D01*
X3931647Y-30426709D01*
X3945932Y-30455281D01*
X3945932Y-30526709D01*
X3931647Y-30555281D01*
X3917361Y-30569566D01*
X3888790Y-30583852D01*
X3803075Y-30583852D01*
X3774504Y-30569566D01*
X3760218Y-30555281D01*
X4231647Y-30583852D02*
X4060218Y-30583852D01*
X4145932Y-30583852D02*
X4145932Y-30283852D01*
X4117361Y-30326709D01*
X4088790Y-30355281D01*
X4060218Y-30369566D01*
X4345933Y-30283852D02*
X4345933Y-30340995D01*
X4460218Y-30283852D02*
X4460218Y-30340995D01*
X4903075Y-30698138D02*
X4888790Y-30683852D01*
X4860218Y-30640995D01*
X4845933Y-30612423D01*
X4831647Y-30569566D01*
X4817361Y-30498138D01*
X4817361Y-30440995D01*
X4831647Y-30369566D01*
X4845933Y-30326709D01*
X4860218Y-30298138D01*
X4888790Y-30255281D01*
X4903075Y-30240995D01*
X5174504Y-30583852D02*
X5003075Y-30583852D01*
X5088790Y-30583852D02*
X5088790Y-30283852D01*
X5060218Y-30326709D01*
X5031647Y-30355281D01*
X5003075Y-30369566D01*
X5531647Y-30583852D02*
X5531647Y-30283852D01*
X5660218Y-30583852D02*
X5660218Y-30426709D01*
X5645932Y-30398138D01*
X5617361Y-30383852D01*
X5574504Y-30383852D01*
X5545933Y-30398138D01*
X5531647Y-30412423D01*
X5845932Y-30583852D02*
X5817361Y-30569566D01*
X5803075Y-30555281D01*
X5788790Y-30526709D01*
X5788790Y-30440995D01*
X5803075Y-30412423D01*
X5817361Y-30398138D01*
X5845932Y-30383852D01*
X5888790Y-30383852D01*
X5917361Y-30398138D01*
X5931647Y-30412423D01*
X5945932Y-30440995D01*
X5945932Y-30526709D01*
X5931647Y-30555281D01*
X5917361Y-30569566D01*
X5888790Y-30583852D01*
X5845932Y-30583852D01*
X6117361Y-30583852D02*
X6088790Y-30569566D01*
X6074504Y-30540995D01*
X6074504Y-30283852D01*
X6345932Y-30569566D02*
X6317361Y-30583852D01*
X6260218Y-30583852D01*
X6231647Y-30569566D01*
X6217361Y-30540995D01*
X6217361Y-30426709D01*
X6231647Y-30398138D01*
X6260218Y-30383852D01*
X6317361Y-30383852D01*
X6345932Y-30398138D01*
X6360218Y-30426709D01*
X6360218Y-30455281D01*
X6217361Y-30483852D01*
X6460218Y-30698138D02*
X6474504Y-30683852D01*
X6503075Y-30640995D01*
X6517361Y-30612423D01*
X6531647Y-30569566D01*
X6545932Y-30498138D01*
X6545932Y-30440995D01*
X6531647Y-30369566D01*
X6517361Y-30326709D01*
X6503075Y-30298138D01*
X6474504Y-30255281D01*
X6460218Y-30240995D01*
M02*
