%FSLAX45Y45*%
G04 Gerber Fmt 4.5, Leading zero omitted, Abs format (unit mm)*
G04 Created by KiCad (PCBNEW (5.1.4)-1) date 2023-05-25 13:29:21*
%MOMM*%
%LPD*%
G04 APERTURE LIST*
%ADD10C,0.050000*%
%ADD11C,0.200000*%
%ADD12C,0.300000*%
G04 APERTURE END LIST*
D10*
X13468413Y-16356381D02*
X15031587Y-16356381D01*
X14150000Y-27170000D02*
X14350000Y-27170000D01*
X10339081Y-27171638D02*
X14150000Y-27170000D01*
X8648924Y-13869913D02*
X9946981Y-14394363D01*
X3139212Y-12290966D02*
X2878854Y-12401482D01*
X8648924Y-13869913D02*
X7998028Y-14146202D01*
X1848751Y-20290010D02*
X3239526Y-20851920D01*
X2993232Y-22262360D02*
X4801241Y-22992842D01*
X1627720Y-19769294D02*
X1848751Y-20290010D01*
X9946981Y-14394363D02*
X10223270Y-15045258D01*
X2965603Y-22197270D02*
X2993232Y-22262360D01*
X3239526Y-20851920D02*
X3377671Y-21177368D01*
X11799482Y-15682089D02*
X13468413Y-16356381D01*
X6514534Y-13546831D02*
X7998028Y-14146202D01*
X219147Y-18984487D02*
X329662Y-19244845D01*
X10339081Y-27171638D02*
X4801241Y-22992842D01*
X329662Y-19244845D02*
X1627720Y-19769294D01*
X3139212Y-12290966D02*
X6384355Y-13602089D01*
X2878854Y-12401482D02*
X219147Y-18984487D01*
X6514534Y-13546831D02*
X6384355Y-13602089D01*
X11799482Y-15682089D02*
X10223270Y-15045258D01*
X2965603Y-22197270D02*
X3377671Y-21177368D01*
X18160919Y-27171638D02*
X14350000Y-27170000D01*
X18160919Y-27171638D02*
X23698759Y-22992842D01*
X25506768Y-22262360D02*
X23698759Y-22992842D01*
X25534396Y-22197270D02*
X25506768Y-22262360D01*
X25260474Y-20851920D02*
X25122329Y-21177368D01*
X25534396Y-22197270D02*
X25122329Y-21177368D01*
X26651249Y-20290010D02*
X25260474Y-20851920D01*
X26872280Y-19769294D02*
X26651249Y-20290010D01*
X28170338Y-19244845D02*
X26872280Y-19769294D01*
X28280853Y-18984487D02*
X28170338Y-19244845D01*
X25621146Y-12401482D02*
X28280853Y-18984487D01*
X25360788Y-12290966D02*
X25621146Y-12401482D01*
X21985466Y-13546831D02*
X22115645Y-13602089D01*
X19851076Y-13869913D02*
X20501972Y-14146202D01*
X16700518Y-15682089D02*
X18276730Y-15045258D01*
X18553019Y-14394363D02*
X18276730Y-15045258D01*
X16700518Y-15682089D02*
X15031587Y-16356381D01*
X19851076Y-13869913D02*
X18553019Y-14394363D01*
X21985466Y-13546831D02*
X20501972Y-14146202D01*
X25360788Y-12290966D02*
X22115645Y-13602089D01*
D11*
X20929637Y-14821243D02*
X21104637Y-14996243D01*
X21104637Y-14821243D02*
X20929637Y-14996243D01*
X21871656Y-14440643D02*
X22046656Y-14615643D01*
X22046656Y-14440643D02*
X21871656Y-14615643D01*
X6980351Y-18212351D02*
X7155351Y-18387351D01*
X7155351Y-18212351D02*
X6980351Y-18387351D01*
X7922370Y-18592951D02*
X8097370Y-18767951D01*
X8097370Y-18592951D02*
X7922370Y-18767951D01*
X5743151Y-16202541D02*
X5918151Y-16377541D01*
X5918151Y-16202541D02*
X5743151Y-16377541D01*
X6685170Y-16583141D02*
X6860170Y-16758141D01*
X6860170Y-16583141D02*
X6685170Y-16758141D01*
X6454904Y-14440891D02*
X6629904Y-14615891D01*
X6629904Y-14440891D02*
X6454904Y-14615891D01*
X7396923Y-14821491D02*
X7571923Y-14996491D01*
X7571923Y-14821491D02*
X7396923Y-14996491D01*
X20404189Y-18592702D02*
X20579189Y-18767702D01*
X20579189Y-18592702D02*
X20404189Y-18767702D01*
X21346208Y-18212102D02*
X21521208Y-18387102D01*
X21521208Y-18212102D02*
X21346208Y-18387102D01*
X25913901Y-17013755D02*
X26088901Y-17188755D01*
X26088901Y-17013755D02*
X25913901Y-17188755D01*
X26855920Y-16633155D02*
X27030920Y-16808155D01*
X27030920Y-16633155D02*
X26855920Y-16808155D01*
X3082446Y-17716029D02*
X3257446Y-17891029D01*
X3257446Y-17716029D02*
X3082446Y-17891029D01*
X4024465Y-18096630D02*
X4199465Y-18271630D01*
X4199465Y-18096630D02*
X4024465Y-18271630D01*
X24302094Y-18096381D02*
X24477094Y-18271381D01*
X24477094Y-18096381D02*
X24302094Y-18271381D01*
X25244113Y-17715781D02*
X25419113Y-17890781D01*
X25419113Y-17715781D02*
X25244113Y-17890781D01*
X21115942Y-20352800D02*
X21290942Y-20527800D01*
X21290942Y-20352800D02*
X21115942Y-20527800D01*
X22057961Y-19972200D02*
X22232961Y-20147200D01*
X22232961Y-19972200D02*
X22057961Y-20147200D01*
X3794199Y-15954380D02*
X3969199Y-16129380D01*
X3969199Y-15954380D02*
X3794199Y-16129380D01*
X4736218Y-16334980D02*
X4911218Y-16509980D01*
X4911218Y-16334980D02*
X4736218Y-16509980D01*
X18980684Y-15069404D02*
X19155684Y-15244404D01*
X19155684Y-15069404D02*
X18980684Y-15244404D01*
X19922703Y-14688803D02*
X20097703Y-14863803D01*
X20097703Y-14688803D02*
X19922703Y-14863803D01*
X2370694Y-19477679D02*
X2545694Y-19652679D01*
X2545694Y-19477679D02*
X2370694Y-19652679D01*
X3312712Y-19858279D02*
X3487712Y-20033279D01*
X3487712Y-19858279D02*
X3312712Y-20033279D01*
X7692104Y-16450701D02*
X7867104Y-16625701D01*
X7867104Y-16450701D02*
X7692104Y-16625701D01*
X8634123Y-16831301D02*
X8809123Y-17006301D01*
X8809123Y-16831301D02*
X8634123Y-17006301D01*
X22878589Y-14573082D02*
X23053589Y-14748082D01*
X23053589Y-14573082D02*
X22878589Y-14748082D01*
X23820608Y-14192482D02*
X23995608Y-14367482D01*
X23995608Y-14192482D02*
X23820608Y-14367482D01*
X758887Y-18395053D02*
X933887Y-18570053D01*
X933887Y-18395053D02*
X758887Y-18570053D01*
X1700906Y-18775653D02*
X1875906Y-18950653D01*
X1875906Y-18775653D02*
X1700906Y-18950653D01*
X2894144Y-13110105D02*
X3069144Y-13285105D01*
X3069144Y-13110105D02*
X2894144Y-13285105D01*
X3836163Y-13490705D02*
X4011163Y-13665705D01*
X4011163Y-13490705D02*
X3836163Y-13665705D01*
X23064894Y-20106191D02*
X23239894Y-20281191D01*
X23239894Y-20106191D02*
X23064894Y-20281191D01*
X24006913Y-19725591D02*
X24181913Y-19900591D01*
X24181913Y-19725591D02*
X24006913Y-19900591D01*
X21641389Y-16582892D02*
X21816389Y-16757892D01*
X21816389Y-16582892D02*
X21641389Y-16757892D01*
X22583408Y-16202292D02*
X22758408Y-16377292D01*
X22758408Y-16202292D02*
X22583408Y-16377292D01*
X25202149Y-15252106D02*
X25377149Y-15427106D01*
X25377149Y-15252106D02*
X25202149Y-15427106D01*
X26144167Y-14871505D02*
X26319167Y-15046505D01*
X26319167Y-14871505D02*
X26144167Y-15046505D01*
X23590342Y-16334732D02*
X23765342Y-16509732D01*
X23765342Y-16334732D02*
X23590342Y-16509732D01*
X24532361Y-15954131D02*
X24707361Y-16129131D01*
X24707361Y-15954131D02*
X24532361Y-16129131D01*
X4505951Y-14192731D02*
X4680951Y-14367731D01*
X4680951Y-14192731D02*
X4505951Y-14367731D01*
X5447970Y-14573331D02*
X5622970Y-14748331D01*
X5622970Y-14573331D02*
X5447970Y-14748331D01*
X4319646Y-19725839D02*
X4494646Y-19900839D01*
X4494646Y-19725839D02*
X4319646Y-19900839D01*
X5261665Y-20106439D02*
X5436665Y-20281439D01*
X5436665Y-20106439D02*
X5261665Y-20281439D01*
X24490396Y-13490456D02*
X24665396Y-13665456D01*
X24665396Y-13490456D02*
X24490396Y-13665456D01*
X25432415Y-13109856D02*
X25607415Y-13284856D01*
X25607415Y-13109856D02*
X25432415Y-13284856D01*
X5031399Y-17964190D02*
X5206399Y-18139190D01*
X5206399Y-17964190D02*
X5031399Y-18139190D01*
X5973418Y-18344790D02*
X6148418Y-18519790D01*
X6148418Y-18344790D02*
X5973418Y-18519790D01*
X2182392Y-14871754D02*
X2357392Y-15046754D01*
X2357392Y-14871754D02*
X2182392Y-15046754D01*
X3124411Y-15252354D02*
X3299411Y-15427354D01*
X3299411Y-15252354D02*
X3124411Y-15427354D01*
X8403857Y-14689052D02*
X8578857Y-14864052D01*
X8578857Y-14689052D02*
X8403857Y-14864052D01*
X9345875Y-15069652D02*
X9520875Y-15244652D01*
X9520875Y-15069652D02*
X9345875Y-15244652D01*
X1470639Y-16633403D02*
X1645639Y-16808403D01*
X1645639Y-16633403D02*
X1470639Y-16808403D01*
X2412658Y-17014003D02*
X2587658Y-17189003D01*
X2587658Y-17014003D02*
X2412658Y-17189003D01*
X26625654Y-18775404D02*
X26800654Y-18950404D01*
X26800654Y-18775404D02*
X26625654Y-18950404D01*
X27567672Y-18394804D02*
X27742672Y-18569804D01*
X27742672Y-18394804D02*
X27567672Y-18569804D01*
X6268599Y-19974000D02*
X6443599Y-20149000D01*
X6443599Y-19974000D02*
X6268599Y-20149000D01*
X7210618Y-20354600D02*
X7385618Y-20529600D01*
X7385618Y-20354600D02*
X7210618Y-20529600D01*
X25013847Y-19858030D02*
X25188847Y-20033030D01*
X25188847Y-19858030D02*
X25013847Y-20033030D01*
X25955866Y-19477430D02*
X26130866Y-19652430D01*
X26130866Y-19477430D02*
X25955866Y-19652430D01*
X22353142Y-18344542D02*
X22528142Y-18519542D01*
X22528142Y-18344542D02*
X22353142Y-18519542D01*
X23295161Y-17963941D02*
X23470161Y-18138941D01*
X23470161Y-17963941D02*
X23295161Y-18138941D01*
X19692437Y-16831053D02*
X19867437Y-17006053D01*
X19867437Y-16831053D02*
X19692437Y-17006053D01*
X20634455Y-16450453D02*
X20809455Y-16625453D01*
X20809455Y-16450453D02*
X20634455Y-16625453D01*
X21592942Y-15284602D02*
G75*
G03X21592942Y-15284602I-150000J0D01*
G01*
X22086553Y-14811222D02*
G75*
G03X22086553Y-14811222I-150000J0D01*
G01*
X7263056Y-18866010D02*
G75*
G03X7263056Y-18866010I-150000J0D01*
G01*
X7946968Y-18868380D02*
G75*
G03X7946968Y-18868380I-150000J0D01*
G01*
X6025856Y-16856200D02*
G75*
G03X6025856Y-16856200I-150000J0D01*
G01*
X6709768Y-16858571D02*
G75*
G03X6709768Y-16858571I-150000J0D01*
G01*
X6737608Y-15094551D02*
G75*
G03X6737608Y-15094551I-150000J0D01*
G01*
X7421520Y-15096921D02*
G75*
G03X7421520Y-15096921I-150000J0D01*
G01*
X21067494Y-19056062D02*
G75*
G03X21067494Y-19056062I-150000J0D01*
G01*
X21561106Y-18582682D02*
G75*
G03X21561106Y-18582682I-150000J0D01*
G01*
X26577206Y-17477114D02*
G75*
G03X26577206Y-17477114I-150000J0D01*
G01*
X27070818Y-17003734D02*
G75*
G03X27070818Y-17003734I-150000J0D01*
G01*
X3365151Y-18369689D02*
G75*
G03X3365151Y-18369689I-150000J0D01*
G01*
X4049063Y-18372059D02*
G75*
G03X4049063Y-18372059I-150000J0D01*
G01*
X24965399Y-18559740D02*
G75*
G03X24965399Y-18559740I-150000J0D01*
G01*
X25459011Y-18086361D02*
G75*
G03X25459011Y-18086361I-150000J0D01*
G01*
X21779247Y-20816160D02*
G75*
G03X21779247Y-20816160I-150000J0D01*
G01*
X22272858Y-20342780D02*
G75*
G03X22272858Y-20342780I-150000J0D01*
G01*
X4076903Y-16608039D02*
G75*
G03X4076903Y-16608039I-150000J0D01*
G01*
X4760815Y-16610410D02*
G75*
G03X4760815Y-16610410I-150000J0D01*
G01*
X19643989Y-15532763D02*
G75*
G03X19643989Y-15532763I-150000J0D01*
G01*
X20137601Y-15059383D02*
G75*
G03X20137601Y-15059383I-150000J0D01*
G01*
X2653398Y-20131338D02*
G75*
G03X2653398Y-20131338I-150000J0D01*
G01*
X3337310Y-20133709D02*
G75*
G03X3337310Y-20133709I-150000J0D01*
G01*
X7974808Y-17104361D02*
G75*
G03X7974808Y-17104361I-150000J0D01*
G01*
X8658720Y-17106731D02*
G75*
G03X8658720Y-17106731I-150000J0D01*
G01*
X23541894Y-15036442D02*
G75*
G03X23541894Y-15036442I-150000J0D01*
G01*
X24035506Y-14563062D02*
G75*
G03X24035506Y-14563062I-150000J0D01*
G01*
X1041592Y-19048712D02*
G75*
G03X1041592Y-19048712I-150000J0D01*
G01*
X1725503Y-19051083D02*
G75*
G03X1725503Y-19051083I-150000J0D01*
G01*
X3176849Y-13763764D02*
G75*
G03X3176849Y-13763764I-150000J0D01*
G01*
X3860761Y-13766134D02*
G75*
G03X3860761Y-13766134I-150000J0D01*
G01*
X23728199Y-20569550D02*
G75*
G03X23728199Y-20569550I-150000J0D01*
G01*
X24221811Y-20096170D02*
G75*
G03X24221811Y-20096170I-150000J0D01*
G01*
X22304694Y-17046252D02*
G75*
G03X22304694Y-17046252I-150000J0D01*
G01*
X22798306Y-16572872D02*
G75*
G03X22798306Y-16572872I-150000J0D01*
G01*
X25865453Y-15715465D02*
G75*
G03X25865453Y-15715465I-150000J0D01*
G01*
X26359065Y-15242085D02*
G75*
G03X26359065Y-15242085I-150000J0D01*
G01*
X24253647Y-16798091D02*
G75*
G03X24253647Y-16798091I-150000J0D01*
G01*
X24747258Y-16324711D02*
G75*
G03X24747258Y-16324711I-150000J0D01*
G01*
X4788656Y-14846390D02*
G75*
G03X4788656Y-14846390I-150000J0D01*
G01*
X5472568Y-14848761D02*
G75*
G03X5472568Y-14848761I-150000J0D01*
G01*
X4602351Y-20379499D02*
G75*
G03X4602351Y-20379499I-150000J0D01*
G01*
X5286263Y-20381869D02*
G75*
G03X5286263Y-20381869I-150000J0D01*
G01*
X25153701Y-13953816D02*
G75*
G03X25153701Y-13953816I-150000J0D01*
G01*
X25647312Y-13480436D02*
G75*
G03X25647312Y-13480436I-150000J0D01*
G01*
X5314103Y-18617849D02*
G75*
G03X5314103Y-18617849I-150000J0D01*
G01*
X5998015Y-18620220D02*
G75*
G03X5998015Y-18620220I-150000J0D01*
G01*
X2465097Y-15525413D02*
G75*
G03X2465097Y-15525413I-150000J0D01*
G01*
X3149008Y-15527784D02*
G75*
G03X3149008Y-15527784I-150000J0D01*
G01*
X8686561Y-15342711D02*
G75*
G03X8686561Y-15342711I-150000J0D01*
G01*
X9370473Y-15345082D02*
G75*
G03X9370473Y-15345082I-150000J0D01*
G01*
X1753344Y-17287063D02*
G75*
G03X1753344Y-17287063I-150000J0D01*
G01*
X2437256Y-17289433D02*
G75*
G03X2437256Y-17289433I-150000J0D01*
G01*
X27288958Y-19238764D02*
G75*
G03X27288958Y-19238764I-150000J0D01*
G01*
X27782570Y-18765384D02*
G75*
G03X27782570Y-18765384I-150000J0D01*
G01*
X6551303Y-20627659D02*
G75*
G03X6551303Y-20627659I-150000J0D01*
G01*
X7235215Y-20630030D02*
G75*
G03X7235215Y-20630030I-150000J0D01*
G01*
X25677152Y-20321390D02*
G75*
G03X25677152Y-20321390I-150000J0D01*
G01*
X26170763Y-19848010D02*
G75*
G03X26170763Y-19848010I-150000J0D01*
G01*
X23016447Y-18807901D02*
G75*
G03X23016447Y-18807901I-150000J0D01*
G01*
X23510058Y-18334521D02*
G75*
G03X23510058Y-18334521I-150000J0D01*
G01*
X20355742Y-17294412D02*
G75*
G03X20355742Y-17294412I-150000J0D01*
G01*
X20849353Y-16821032D02*
G75*
G03X20849353Y-16821032I-150000J0D01*
G01*
X21488146Y-14519053D02*
X21488146Y-14917833D01*
X21288756Y-14718443D02*
X21687536Y-14718443D01*
X7538861Y-18290761D02*
X7538861Y-18689541D01*
X7339471Y-18490151D02*
X7738251Y-18490151D01*
X6301661Y-16280951D02*
X6301661Y-16679731D01*
X6102271Y-16480341D02*
X6501051Y-16480341D01*
X7013413Y-14519301D02*
X7013413Y-14918081D01*
X6814023Y-14718691D02*
X7212803Y-14718691D01*
X20962699Y-18290512D02*
X20962699Y-18689292D01*
X20763309Y-18489902D02*
X21162089Y-18489902D01*
X26472410Y-16711565D02*
X26472410Y-17110345D01*
X26273020Y-16910955D02*
X26671800Y-16910955D01*
X3640956Y-17794439D02*
X3640956Y-18193219D01*
X3441566Y-17993829D02*
X3840346Y-17993829D01*
X24860604Y-17794191D02*
X24860604Y-18192971D01*
X24661214Y-17993581D02*
X25059994Y-17993581D01*
X21674451Y-20050610D02*
X21674451Y-20449390D01*
X21475061Y-20250000D02*
X21873841Y-20250000D01*
X4352708Y-16032790D02*
X4352708Y-16431570D01*
X4153318Y-16232180D02*
X4552098Y-16232180D01*
X19539194Y-14767213D02*
X19539194Y-15165993D01*
X19339804Y-14966603D02*
X19738584Y-14966603D01*
X2929203Y-19556089D02*
X2929203Y-19954869D01*
X2729813Y-19755479D02*
X3128593Y-19755479D01*
X8250613Y-16529111D02*
X8250613Y-16927891D01*
X8051223Y-16728501D02*
X8450003Y-16728501D01*
X23437099Y-14270892D02*
X23437099Y-14669672D01*
X23237709Y-14470282D02*
X23636489Y-14470282D01*
X1317396Y-18473463D02*
X1317396Y-18872243D01*
X1118006Y-18672853D02*
X1516786Y-18672853D01*
X3452654Y-13188515D02*
X3452654Y-13587295D01*
X3253264Y-13387905D02*
X3652044Y-13387905D01*
X23623404Y-19804001D02*
X23623404Y-20202781D01*
X23424014Y-20003391D02*
X23822794Y-20003391D01*
X22199899Y-16280702D02*
X22199899Y-16679482D01*
X22000509Y-16480092D02*
X22399289Y-16480092D01*
X25760658Y-14949915D02*
X25760658Y-15348695D01*
X25561268Y-15149305D02*
X25960048Y-15149305D01*
X24148851Y-16032542D02*
X24148851Y-16431322D01*
X23949461Y-16231932D02*
X24348241Y-16231932D01*
X5064461Y-14271141D02*
X5064461Y-14669921D01*
X4865071Y-14470531D02*
X5263851Y-14470531D01*
X4878156Y-19804249D02*
X4878156Y-20203029D01*
X4678766Y-20003639D02*
X5077546Y-20003639D01*
X25048905Y-13188266D02*
X25048905Y-13587046D01*
X24849515Y-13387656D02*
X25248295Y-13387656D01*
X5589908Y-18042600D02*
X5589908Y-18441380D01*
X5390518Y-18241990D02*
X5789298Y-18241990D01*
X2740901Y-14950164D02*
X2740901Y-15348944D01*
X2541511Y-15149554D02*
X2940291Y-15149554D01*
X8962366Y-14767462D02*
X8962366Y-15166242D01*
X8762976Y-14966852D02*
X9161756Y-14966852D01*
X2029149Y-16711813D02*
X2029149Y-17110593D01*
X1829759Y-16911203D02*
X2228539Y-16911203D01*
X27184163Y-18473214D02*
X27184163Y-18871994D01*
X26984773Y-18672604D02*
X27383553Y-18672604D01*
X6827108Y-20052410D02*
X6827108Y-20451190D01*
X6627718Y-20251800D02*
X7026498Y-20251800D01*
X25572356Y-19555840D02*
X25572356Y-19954620D01*
X25372966Y-19755230D02*
X25771746Y-19755230D01*
X22911651Y-18042352D02*
X22911651Y-18441132D01*
X22712261Y-18241742D02*
X23111041Y-18241742D01*
X20250946Y-16528863D02*
X20250946Y-16927643D01*
X20051556Y-16728253D02*
X20450336Y-16728253D01*
D12*
X503075Y-27639852D02*
X503075Y-27339852D01*
X574504Y-27339852D01*
X617361Y-27354138D01*
X645933Y-27382709D01*
X660218Y-27411281D01*
X674504Y-27468423D01*
X674504Y-27511281D01*
X660218Y-27568423D01*
X645933Y-27596995D01*
X617361Y-27625566D01*
X574504Y-27639852D01*
X503075Y-27639852D01*
X803075Y-27639852D02*
X803075Y-27439852D01*
X803075Y-27496995D02*
X817361Y-27468423D01*
X831647Y-27454138D01*
X860218Y-27439852D01*
X888790Y-27439852D01*
X988790Y-27639852D02*
X988790Y-27439852D01*
X988790Y-27339852D02*
X974504Y-27354138D01*
X988790Y-27368423D01*
X1003075Y-27354138D01*
X988790Y-27339852D01*
X988790Y-27368423D01*
X1174504Y-27639852D02*
X1145933Y-27625566D01*
X1131647Y-27596995D01*
X1131647Y-27339852D01*
X1331647Y-27639852D02*
X1303075Y-27625566D01*
X1288790Y-27596995D01*
X1288790Y-27339852D01*
X1674504Y-27639852D02*
X1674504Y-27339852D01*
X1774504Y-27554138D01*
X1874504Y-27339852D01*
X1874504Y-27639852D01*
X2145933Y-27639852D02*
X2145933Y-27482709D01*
X2131647Y-27454138D01*
X2103075Y-27439852D01*
X2045932Y-27439852D01*
X2017361Y-27454138D01*
X2145933Y-27625566D02*
X2117361Y-27639852D01*
X2045932Y-27639852D01*
X2017361Y-27625566D01*
X2003075Y-27596995D01*
X2003075Y-27568423D01*
X2017361Y-27539852D01*
X2045932Y-27525566D01*
X2117361Y-27525566D01*
X2145933Y-27511281D01*
X2288790Y-27439852D02*
X2288790Y-27739852D01*
X2288790Y-27454138D02*
X2317361Y-27439852D01*
X2374504Y-27439852D01*
X2403075Y-27454138D01*
X2417361Y-27468423D01*
X2431647Y-27496995D01*
X2431647Y-27582709D01*
X2417361Y-27611281D01*
X2403075Y-27625566D01*
X2374504Y-27639852D01*
X2317361Y-27639852D01*
X2288790Y-27625566D01*
X2560218Y-27611281D02*
X2574504Y-27625566D01*
X2560218Y-27639852D01*
X2545933Y-27625566D01*
X2560218Y-27611281D01*
X2560218Y-27639852D01*
X2560218Y-27454138D02*
X2574504Y-27468423D01*
X2560218Y-27482709D01*
X2545933Y-27468423D01*
X2560218Y-27454138D01*
X2560218Y-27482709D01*
X41647Y-28046638D02*
X216647Y-28221638D01*
X216647Y-28046638D02*
X41647Y-28221638D01*
X660218Y-28269852D02*
X488790Y-28269852D01*
X574504Y-28269852D02*
X574504Y-27969852D01*
X545933Y-28012709D01*
X517361Y-28041281D01*
X488790Y-28055566D01*
X788790Y-28241281D02*
X803075Y-28255566D01*
X788790Y-28269852D01*
X774504Y-28255566D01*
X788790Y-28241281D01*
X788790Y-28269852D01*
X903075Y-27969852D02*
X1103075Y-27969852D01*
X974504Y-28269852D01*
X1360218Y-27969852D02*
X1217361Y-27969852D01*
X1203075Y-28112709D01*
X1217361Y-28098423D01*
X1245933Y-28084138D01*
X1317361Y-28084138D01*
X1345933Y-28098423D01*
X1360218Y-28112709D01*
X1374504Y-28141281D01*
X1374504Y-28212709D01*
X1360218Y-28241281D01*
X1345933Y-28255566D01*
X1317361Y-28269852D01*
X1245933Y-28269852D01*
X1217361Y-28255566D01*
X1203075Y-28241281D01*
X1503075Y-28269852D02*
X1503075Y-28069852D01*
X1503075Y-28098423D02*
X1517361Y-28084138D01*
X1545932Y-28069852D01*
X1588790Y-28069852D01*
X1617361Y-28084138D01*
X1631647Y-28112709D01*
X1631647Y-28269852D01*
X1631647Y-28112709D02*
X1645932Y-28084138D01*
X1674504Y-28069852D01*
X1717361Y-28069852D01*
X1745932Y-28084138D01*
X1760218Y-28112709D01*
X1760218Y-28269852D01*
X1903075Y-28269852D02*
X1903075Y-28069852D01*
X1903075Y-28098423D02*
X1917361Y-28084138D01*
X1945932Y-28069852D01*
X1988790Y-28069852D01*
X2017361Y-28084138D01*
X2031647Y-28112709D01*
X2031647Y-28269852D01*
X2031647Y-28112709D02*
X2045932Y-28084138D01*
X2074504Y-28069852D01*
X2117361Y-28069852D01*
X2145933Y-28084138D01*
X2160218Y-28112709D01*
X2160218Y-28269852D01*
X2745933Y-27955566D02*
X2488790Y-28341281D01*
X3131647Y-27969852D02*
X3160218Y-27969852D01*
X3188790Y-27984138D01*
X3203075Y-27998423D01*
X3217361Y-28026995D01*
X3231647Y-28084138D01*
X3231647Y-28155566D01*
X3217361Y-28212709D01*
X3203075Y-28241281D01*
X3188790Y-28255566D01*
X3160218Y-28269852D01*
X3131647Y-28269852D01*
X3103075Y-28255566D01*
X3088790Y-28241281D01*
X3074504Y-28212709D01*
X3060218Y-28155566D01*
X3060218Y-28084138D01*
X3074504Y-28026995D01*
X3088790Y-27998423D01*
X3103075Y-27984138D01*
X3131647Y-27969852D01*
X3360218Y-28241281D02*
X3374504Y-28255566D01*
X3360218Y-28269852D01*
X3345932Y-28255566D01*
X3360218Y-28241281D01*
X3360218Y-28269852D01*
X3560218Y-27969852D02*
X3588790Y-27969852D01*
X3617361Y-27984138D01*
X3631647Y-27998423D01*
X3645932Y-28026995D01*
X3660218Y-28084138D01*
X3660218Y-28155566D01*
X3645932Y-28212709D01*
X3631647Y-28241281D01*
X3617361Y-28255566D01*
X3588790Y-28269852D01*
X3560218Y-28269852D01*
X3531647Y-28255566D01*
X3517361Y-28241281D01*
X3503075Y-28212709D01*
X3488790Y-28155566D01*
X3488790Y-28084138D01*
X3503075Y-28026995D01*
X3517361Y-27998423D01*
X3531647Y-27984138D01*
X3560218Y-27969852D01*
X3917361Y-27969852D02*
X3860218Y-27969852D01*
X3831647Y-27984138D01*
X3817361Y-27998423D01*
X3788790Y-28041281D01*
X3774504Y-28098423D01*
X3774504Y-28212709D01*
X3788790Y-28241281D01*
X3803075Y-28255566D01*
X3831647Y-28269852D01*
X3888790Y-28269852D01*
X3917361Y-28255566D01*
X3931647Y-28241281D01*
X3945932Y-28212709D01*
X3945932Y-28141281D01*
X3931647Y-28112709D01*
X3917361Y-28098423D01*
X3888790Y-28084138D01*
X3831647Y-28084138D01*
X3803075Y-28098423D01*
X3788790Y-28112709D01*
X3774504Y-28141281D01*
X4088790Y-28269852D02*
X4145932Y-28269852D01*
X4174504Y-28255566D01*
X4188790Y-28241281D01*
X4217361Y-28198423D01*
X4231647Y-28141281D01*
X4231647Y-28026995D01*
X4217361Y-27998423D01*
X4203075Y-27984138D01*
X4174504Y-27969852D01*
X4117361Y-27969852D01*
X4088790Y-27984138D01*
X4074504Y-27998423D01*
X4060218Y-28026995D01*
X4060218Y-28098423D01*
X4074504Y-28126995D01*
X4088790Y-28141281D01*
X4117361Y-28155566D01*
X4174504Y-28155566D01*
X4203075Y-28141281D01*
X4217361Y-28126995D01*
X4231647Y-28098423D01*
X4345933Y-27969852D02*
X4345933Y-28026995D01*
X4460218Y-27969852D02*
X4460218Y-28026995D01*
X4903075Y-28384138D02*
X4888790Y-28369852D01*
X4860218Y-28326995D01*
X4845933Y-28298423D01*
X4831647Y-28255566D01*
X4817361Y-28184138D01*
X4817361Y-28126995D01*
X4831647Y-28055566D01*
X4845933Y-28012709D01*
X4860218Y-27984138D01*
X4888790Y-27941281D01*
X4903075Y-27926995D01*
X5145933Y-27969852D02*
X5088790Y-27969852D01*
X5060218Y-27984138D01*
X5045933Y-27998423D01*
X5017361Y-28041281D01*
X5003075Y-28098423D01*
X5003075Y-28212709D01*
X5017361Y-28241281D01*
X5031647Y-28255566D01*
X5060218Y-28269852D01*
X5117361Y-28269852D01*
X5145933Y-28255566D01*
X5160218Y-28241281D01*
X5174504Y-28212709D01*
X5174504Y-28141281D01*
X5160218Y-28112709D01*
X5145933Y-28098423D01*
X5117361Y-28084138D01*
X5060218Y-28084138D01*
X5031647Y-28098423D01*
X5017361Y-28112709D01*
X5003075Y-28141281D01*
X5431647Y-28069852D02*
X5431647Y-28269852D01*
X5360218Y-27955566D02*
X5288790Y-28169852D01*
X5474504Y-28169852D01*
X5817361Y-28269852D02*
X5817361Y-27969852D01*
X5945932Y-28269852D02*
X5945932Y-28112709D01*
X5931647Y-28084138D01*
X5903075Y-28069852D01*
X5860218Y-28069852D01*
X5831647Y-28084138D01*
X5817361Y-28098423D01*
X6131647Y-28269852D02*
X6103075Y-28255566D01*
X6088790Y-28241281D01*
X6074504Y-28212709D01*
X6074504Y-28126995D01*
X6088790Y-28098423D01*
X6103075Y-28084138D01*
X6131647Y-28069852D01*
X6174504Y-28069852D01*
X6203075Y-28084138D01*
X6217361Y-28098423D01*
X6231647Y-28126995D01*
X6231647Y-28212709D01*
X6217361Y-28241281D01*
X6203075Y-28255566D01*
X6174504Y-28269852D01*
X6131647Y-28269852D01*
X6403075Y-28269852D02*
X6374504Y-28255566D01*
X6360218Y-28226995D01*
X6360218Y-27969852D01*
X6631647Y-28255566D02*
X6603075Y-28269852D01*
X6545932Y-28269852D01*
X6517361Y-28255566D01*
X6503075Y-28226995D01*
X6503075Y-28112709D01*
X6517361Y-28084138D01*
X6545932Y-28069852D01*
X6603075Y-28069852D01*
X6631647Y-28084138D01*
X6645932Y-28112709D01*
X6645932Y-28141281D01*
X6503075Y-28169852D01*
X6760218Y-28255566D02*
X6788790Y-28269852D01*
X6845932Y-28269852D01*
X6874504Y-28255566D01*
X6888790Y-28226995D01*
X6888790Y-28212709D01*
X6874504Y-28184138D01*
X6845932Y-28169852D01*
X6803075Y-28169852D01*
X6774504Y-28155566D01*
X6760218Y-28126995D01*
X6760218Y-28112709D01*
X6774504Y-28084138D01*
X6803075Y-28069852D01*
X6845932Y-28069852D01*
X6874504Y-28084138D01*
X6988790Y-28384138D02*
X7003075Y-28369852D01*
X7031647Y-28326995D01*
X7045932Y-28298423D01*
X7060218Y-28255566D01*
X7074504Y-28184138D01*
X7074504Y-28126995D01*
X7060218Y-28055566D01*
X7045932Y-28012709D01*
X7031647Y-27984138D01*
X7003075Y-27941281D01*
X6988790Y-27926995D01*
X7531647Y-28384138D02*
X7517361Y-28369852D01*
X7488790Y-28326995D01*
X7474504Y-28298423D01*
X7460218Y-28255566D01*
X7445932Y-28184138D01*
X7445932Y-28126995D01*
X7460218Y-28055566D01*
X7474504Y-28012709D01*
X7488790Y-27984138D01*
X7517361Y-27941281D01*
X7531647Y-27926995D01*
X7645932Y-28069852D02*
X7645932Y-28269852D01*
X7645932Y-28098423D02*
X7660218Y-28084138D01*
X7688790Y-28069852D01*
X7731647Y-28069852D01*
X7760218Y-28084138D01*
X7774504Y-28112709D01*
X7774504Y-28269852D01*
X7960218Y-28269852D02*
X7931647Y-28255566D01*
X7917361Y-28241281D01*
X7903075Y-28212709D01*
X7903075Y-28126995D01*
X7917361Y-28098423D01*
X7931647Y-28084138D01*
X7960218Y-28069852D01*
X8003075Y-28069852D01*
X8031647Y-28084138D01*
X8045932Y-28098423D01*
X8060218Y-28126995D01*
X8060218Y-28212709D01*
X8045932Y-28241281D01*
X8031647Y-28255566D01*
X8003075Y-28269852D01*
X7960218Y-28269852D01*
X8145932Y-28069852D02*
X8260218Y-28069852D01*
X8188790Y-27969852D02*
X8188790Y-28226995D01*
X8203075Y-28255566D01*
X8231647Y-28269852D01*
X8260218Y-28269852D01*
X8588790Y-28069852D02*
X8588790Y-28369852D01*
X8588790Y-28084138D02*
X8617361Y-28069852D01*
X8674504Y-28069852D01*
X8703075Y-28084138D01*
X8717361Y-28098423D01*
X8731647Y-28126995D01*
X8731647Y-28212709D01*
X8717361Y-28241281D01*
X8703075Y-28255566D01*
X8674504Y-28269852D01*
X8617361Y-28269852D01*
X8588790Y-28255566D01*
X8903075Y-28269852D02*
X8874504Y-28255566D01*
X8860218Y-28226995D01*
X8860218Y-27969852D01*
X9145933Y-28269852D02*
X9145933Y-28112709D01*
X9131647Y-28084138D01*
X9103075Y-28069852D01*
X9045933Y-28069852D01*
X9017361Y-28084138D01*
X9145933Y-28255566D02*
X9117361Y-28269852D01*
X9045933Y-28269852D01*
X9017361Y-28255566D01*
X9003075Y-28226995D01*
X9003075Y-28198423D01*
X9017361Y-28169852D01*
X9045933Y-28155566D01*
X9117361Y-28155566D01*
X9145933Y-28141281D01*
X9245933Y-28069852D02*
X9360218Y-28069852D01*
X9288790Y-27969852D02*
X9288790Y-28226995D01*
X9303075Y-28255566D01*
X9331647Y-28269852D01*
X9360218Y-28269852D01*
X9574504Y-28255566D02*
X9545933Y-28269852D01*
X9488790Y-28269852D01*
X9460218Y-28255566D01*
X9445933Y-28226995D01*
X9445933Y-28112709D01*
X9460218Y-28084138D01*
X9488790Y-28069852D01*
X9545933Y-28069852D01*
X9574504Y-28084138D01*
X9588790Y-28112709D01*
X9588790Y-28141281D01*
X9445933Y-28169852D01*
X9845933Y-28269852D02*
X9845933Y-27969852D01*
X9845933Y-28255566D02*
X9817361Y-28269852D01*
X9760218Y-28269852D01*
X9731647Y-28255566D01*
X9717361Y-28241281D01*
X9703075Y-28212709D01*
X9703075Y-28126995D01*
X9717361Y-28098423D01*
X9731647Y-28084138D01*
X9760218Y-28069852D01*
X9817361Y-28069852D01*
X9845933Y-28084138D01*
X9960218Y-28384138D02*
X9974504Y-28369852D01*
X10003075Y-28326995D01*
X10017361Y-28298423D01*
X10031647Y-28255566D01*
X10045933Y-28184138D01*
X10045933Y-28126995D01*
X10031647Y-28055566D01*
X10017361Y-28012709D01*
X10003075Y-27984138D01*
X9974504Y-27941281D01*
X9960218Y-27926995D01*
X216647Y-28530138D02*
G75*
G03X216647Y-28530138I-150000J0D01*
G01*
X474504Y-28365852D02*
X660218Y-28365852D01*
X560218Y-28480138D01*
X603075Y-28480138D01*
X631647Y-28494423D01*
X645933Y-28508709D01*
X660218Y-28537281D01*
X660218Y-28608709D01*
X645933Y-28637281D01*
X631647Y-28651566D01*
X603075Y-28665852D01*
X517361Y-28665852D01*
X488790Y-28651566D01*
X474504Y-28637281D01*
X788790Y-28637281D02*
X803075Y-28651566D01*
X788790Y-28665852D01*
X774504Y-28651566D01*
X788790Y-28637281D01*
X788790Y-28665852D01*
X988790Y-28365852D02*
X1017361Y-28365852D01*
X1045932Y-28380138D01*
X1060218Y-28394423D01*
X1074504Y-28422995D01*
X1088790Y-28480138D01*
X1088790Y-28551566D01*
X1074504Y-28608709D01*
X1060218Y-28637281D01*
X1045932Y-28651566D01*
X1017361Y-28665852D01*
X988790Y-28665852D01*
X960218Y-28651566D01*
X945932Y-28637281D01*
X931647Y-28608709D01*
X917361Y-28551566D01*
X917361Y-28480138D01*
X931647Y-28422995D01*
X945932Y-28394423D01*
X960218Y-28380138D01*
X988790Y-28365852D01*
X1274504Y-28365852D02*
X1303075Y-28365852D01*
X1331647Y-28380138D01*
X1345933Y-28394423D01*
X1360218Y-28422995D01*
X1374504Y-28480138D01*
X1374504Y-28551566D01*
X1360218Y-28608709D01*
X1345933Y-28637281D01*
X1331647Y-28651566D01*
X1303075Y-28665852D01*
X1274504Y-28665852D01*
X1245933Y-28651566D01*
X1231647Y-28637281D01*
X1217361Y-28608709D01*
X1203075Y-28551566D01*
X1203075Y-28480138D01*
X1217361Y-28422995D01*
X1231647Y-28394423D01*
X1245933Y-28380138D01*
X1274504Y-28365852D01*
X1503075Y-28665852D02*
X1503075Y-28465852D01*
X1503075Y-28494423D02*
X1517361Y-28480138D01*
X1545932Y-28465852D01*
X1588790Y-28465852D01*
X1617361Y-28480138D01*
X1631647Y-28508709D01*
X1631647Y-28665852D01*
X1631647Y-28508709D02*
X1645932Y-28480138D01*
X1674504Y-28465852D01*
X1717361Y-28465852D01*
X1745932Y-28480138D01*
X1760218Y-28508709D01*
X1760218Y-28665852D01*
X1903075Y-28665852D02*
X1903075Y-28465852D01*
X1903075Y-28494423D02*
X1917361Y-28480138D01*
X1945932Y-28465852D01*
X1988790Y-28465852D01*
X2017361Y-28480138D01*
X2031647Y-28508709D01*
X2031647Y-28665852D01*
X2031647Y-28508709D02*
X2045932Y-28480138D01*
X2074504Y-28465852D01*
X2117361Y-28465852D01*
X2145933Y-28480138D01*
X2160218Y-28508709D01*
X2160218Y-28665852D01*
X2745933Y-28351566D02*
X2488790Y-28737281D01*
X3131647Y-28365852D02*
X3160218Y-28365852D01*
X3188790Y-28380138D01*
X3203075Y-28394423D01*
X3217361Y-28422995D01*
X3231647Y-28480138D01*
X3231647Y-28551566D01*
X3217361Y-28608709D01*
X3203075Y-28637281D01*
X3188790Y-28651566D01*
X3160218Y-28665852D01*
X3131647Y-28665852D01*
X3103075Y-28651566D01*
X3088790Y-28637281D01*
X3074504Y-28608709D01*
X3060218Y-28551566D01*
X3060218Y-28480138D01*
X3074504Y-28422995D01*
X3088790Y-28394423D01*
X3103075Y-28380138D01*
X3131647Y-28365852D01*
X3360218Y-28637281D02*
X3374504Y-28651566D01*
X3360218Y-28665852D01*
X3345932Y-28651566D01*
X3360218Y-28637281D01*
X3360218Y-28665852D01*
X3660218Y-28665852D02*
X3488790Y-28665852D01*
X3574504Y-28665852D02*
X3574504Y-28365852D01*
X3545932Y-28408709D01*
X3517361Y-28437281D01*
X3488790Y-28451566D01*
X3945932Y-28665852D02*
X3774504Y-28665852D01*
X3860218Y-28665852D02*
X3860218Y-28365852D01*
X3831647Y-28408709D01*
X3803075Y-28437281D01*
X3774504Y-28451566D01*
X4117361Y-28494423D02*
X4088790Y-28480138D01*
X4074504Y-28465852D01*
X4060218Y-28437281D01*
X4060218Y-28422995D01*
X4074504Y-28394423D01*
X4088790Y-28380138D01*
X4117361Y-28365852D01*
X4174504Y-28365852D01*
X4203075Y-28380138D01*
X4217361Y-28394423D01*
X4231647Y-28422995D01*
X4231647Y-28437281D01*
X4217361Y-28465852D01*
X4203075Y-28480138D01*
X4174504Y-28494423D01*
X4117361Y-28494423D01*
X4088790Y-28508709D01*
X4074504Y-28522995D01*
X4060218Y-28551566D01*
X4060218Y-28608709D01*
X4074504Y-28637281D01*
X4088790Y-28651566D01*
X4117361Y-28665852D01*
X4174504Y-28665852D01*
X4203075Y-28651566D01*
X4217361Y-28637281D01*
X4231647Y-28608709D01*
X4231647Y-28551566D01*
X4217361Y-28522995D01*
X4203075Y-28508709D01*
X4174504Y-28494423D01*
X4345933Y-28365852D02*
X4345933Y-28422995D01*
X4460218Y-28365852D02*
X4460218Y-28422995D01*
X4903075Y-28780138D02*
X4888790Y-28765852D01*
X4860218Y-28722995D01*
X4845933Y-28694423D01*
X4831647Y-28651566D01*
X4817361Y-28580138D01*
X4817361Y-28522995D01*
X4831647Y-28451566D01*
X4845933Y-28408709D01*
X4860218Y-28380138D01*
X4888790Y-28337281D01*
X4903075Y-28322995D01*
X5145933Y-28365852D02*
X5088790Y-28365852D01*
X5060218Y-28380138D01*
X5045933Y-28394423D01*
X5017361Y-28437281D01*
X5003075Y-28494423D01*
X5003075Y-28608709D01*
X5017361Y-28637281D01*
X5031647Y-28651566D01*
X5060218Y-28665852D01*
X5117361Y-28665852D01*
X5145933Y-28651566D01*
X5160218Y-28637281D01*
X5174504Y-28608709D01*
X5174504Y-28537281D01*
X5160218Y-28508709D01*
X5145933Y-28494423D01*
X5117361Y-28480138D01*
X5060218Y-28480138D01*
X5031647Y-28494423D01*
X5017361Y-28508709D01*
X5003075Y-28537281D01*
X5431647Y-28465852D02*
X5431647Y-28665852D01*
X5360218Y-28351566D02*
X5288790Y-28565852D01*
X5474504Y-28565852D01*
X5817361Y-28665852D02*
X5817361Y-28365852D01*
X5945932Y-28665852D02*
X5945932Y-28508709D01*
X5931647Y-28480138D01*
X5903075Y-28465852D01*
X5860218Y-28465852D01*
X5831647Y-28480138D01*
X5817361Y-28494423D01*
X6131647Y-28665852D02*
X6103075Y-28651566D01*
X6088790Y-28637281D01*
X6074504Y-28608709D01*
X6074504Y-28522995D01*
X6088790Y-28494423D01*
X6103075Y-28480138D01*
X6131647Y-28465852D01*
X6174504Y-28465852D01*
X6203075Y-28480138D01*
X6217361Y-28494423D01*
X6231647Y-28522995D01*
X6231647Y-28608709D01*
X6217361Y-28637281D01*
X6203075Y-28651566D01*
X6174504Y-28665852D01*
X6131647Y-28665852D01*
X6403075Y-28665852D02*
X6374504Y-28651566D01*
X6360218Y-28622995D01*
X6360218Y-28365852D01*
X6631647Y-28651566D02*
X6603075Y-28665852D01*
X6545932Y-28665852D01*
X6517361Y-28651566D01*
X6503075Y-28622995D01*
X6503075Y-28508709D01*
X6517361Y-28480138D01*
X6545932Y-28465852D01*
X6603075Y-28465852D01*
X6631647Y-28480138D01*
X6645932Y-28508709D01*
X6645932Y-28537281D01*
X6503075Y-28565852D01*
X6760218Y-28651566D02*
X6788790Y-28665852D01*
X6845932Y-28665852D01*
X6874504Y-28651566D01*
X6888790Y-28622995D01*
X6888790Y-28608709D01*
X6874504Y-28580138D01*
X6845932Y-28565852D01*
X6803075Y-28565852D01*
X6774504Y-28551566D01*
X6760218Y-28522995D01*
X6760218Y-28508709D01*
X6774504Y-28480138D01*
X6803075Y-28465852D01*
X6845932Y-28465852D01*
X6874504Y-28480138D01*
X6988790Y-28780138D02*
X7003075Y-28765852D01*
X7031647Y-28722995D01*
X7045932Y-28694423D01*
X7060218Y-28651566D01*
X7074504Y-28580138D01*
X7074504Y-28522995D01*
X7060218Y-28451566D01*
X7045932Y-28408709D01*
X7031647Y-28380138D01*
X7003075Y-28337281D01*
X6988790Y-28322995D01*
X7531647Y-28780138D02*
X7517361Y-28765852D01*
X7488790Y-28722995D01*
X7474504Y-28694423D01*
X7460218Y-28651566D01*
X7445932Y-28580138D01*
X7445932Y-28522995D01*
X7460218Y-28451566D01*
X7474504Y-28408709D01*
X7488790Y-28380138D01*
X7517361Y-28337281D01*
X7531647Y-28322995D01*
X7645932Y-28465852D02*
X7645932Y-28665852D01*
X7645932Y-28494423D02*
X7660218Y-28480138D01*
X7688790Y-28465852D01*
X7731647Y-28465852D01*
X7760218Y-28480138D01*
X7774504Y-28508709D01*
X7774504Y-28665852D01*
X7960218Y-28665852D02*
X7931647Y-28651566D01*
X7917361Y-28637281D01*
X7903075Y-28608709D01*
X7903075Y-28522995D01*
X7917361Y-28494423D01*
X7931647Y-28480138D01*
X7960218Y-28465852D01*
X8003075Y-28465852D01*
X8031647Y-28480138D01*
X8045932Y-28494423D01*
X8060218Y-28522995D01*
X8060218Y-28608709D01*
X8045932Y-28637281D01*
X8031647Y-28651566D01*
X8003075Y-28665852D01*
X7960218Y-28665852D01*
X8145932Y-28465852D02*
X8260218Y-28465852D01*
X8188790Y-28365852D02*
X8188790Y-28622995D01*
X8203075Y-28651566D01*
X8231647Y-28665852D01*
X8260218Y-28665852D01*
X8588790Y-28465852D02*
X8588790Y-28765852D01*
X8588790Y-28480138D02*
X8617361Y-28465852D01*
X8674504Y-28465852D01*
X8703075Y-28480138D01*
X8717361Y-28494423D01*
X8731647Y-28522995D01*
X8731647Y-28608709D01*
X8717361Y-28637281D01*
X8703075Y-28651566D01*
X8674504Y-28665852D01*
X8617361Y-28665852D01*
X8588790Y-28651566D01*
X8903075Y-28665852D02*
X8874504Y-28651566D01*
X8860218Y-28622995D01*
X8860218Y-28365852D01*
X9145933Y-28665852D02*
X9145933Y-28508709D01*
X9131647Y-28480138D01*
X9103075Y-28465852D01*
X9045933Y-28465852D01*
X9017361Y-28480138D01*
X9145933Y-28651566D02*
X9117361Y-28665852D01*
X9045933Y-28665852D01*
X9017361Y-28651566D01*
X9003075Y-28622995D01*
X9003075Y-28594423D01*
X9017361Y-28565852D01*
X9045933Y-28551566D01*
X9117361Y-28551566D01*
X9145933Y-28537281D01*
X9245933Y-28465852D02*
X9360218Y-28465852D01*
X9288790Y-28365852D02*
X9288790Y-28622995D01*
X9303075Y-28651566D01*
X9331647Y-28665852D01*
X9360218Y-28665852D01*
X9574504Y-28651566D02*
X9545933Y-28665852D01*
X9488790Y-28665852D01*
X9460218Y-28651566D01*
X9445933Y-28622995D01*
X9445933Y-28508709D01*
X9460218Y-28480138D01*
X9488790Y-28465852D01*
X9545933Y-28465852D01*
X9574504Y-28480138D01*
X9588790Y-28508709D01*
X9588790Y-28537281D01*
X9445933Y-28565852D01*
X9845933Y-28665852D02*
X9845933Y-28365852D01*
X9845933Y-28651566D02*
X9817361Y-28665852D01*
X9760218Y-28665852D01*
X9731647Y-28651566D01*
X9717361Y-28637281D01*
X9703075Y-28608709D01*
X9703075Y-28522995D01*
X9717361Y-28494423D01*
X9731647Y-28480138D01*
X9760218Y-28465852D01*
X9817361Y-28465852D01*
X9845933Y-28480138D01*
X9960218Y-28780138D02*
X9974504Y-28765852D01*
X10003075Y-28722995D01*
X10017361Y-28694423D01*
X10031647Y-28651566D01*
X10045933Y-28580138D01*
X10045933Y-28522995D01*
X10031647Y-28451566D01*
X10017361Y-28408709D01*
X10003075Y-28380138D01*
X9974504Y-28337281D01*
X9960218Y-28322995D01*
X17257Y-28760748D02*
X17257Y-29159528D01*
X-182133Y-28960138D02*
X216647Y-28960138D01*
X474504Y-28795852D02*
X660218Y-28795852D01*
X560218Y-28910138D01*
X603075Y-28910138D01*
X631647Y-28924423D01*
X645933Y-28938709D01*
X660218Y-28967281D01*
X660218Y-29038709D01*
X645933Y-29067281D01*
X631647Y-29081566D01*
X603075Y-29095852D01*
X517361Y-29095852D01*
X488790Y-29081566D01*
X474504Y-29067281D01*
X788790Y-29067281D02*
X803075Y-29081566D01*
X788790Y-29095852D01*
X774504Y-29081566D01*
X788790Y-29067281D01*
X788790Y-29095852D01*
X945932Y-29095852D02*
X1003075Y-29095852D01*
X1031647Y-29081566D01*
X1045932Y-29067281D01*
X1074504Y-29024423D01*
X1088790Y-28967281D01*
X1088790Y-28852995D01*
X1074504Y-28824423D01*
X1060218Y-28810138D01*
X1031647Y-28795852D01*
X974504Y-28795852D01*
X945932Y-28810138D01*
X931647Y-28824423D01*
X917361Y-28852995D01*
X917361Y-28924423D01*
X931647Y-28952995D01*
X945932Y-28967281D01*
X974504Y-28981566D01*
X1031647Y-28981566D01*
X1060218Y-28967281D01*
X1074504Y-28952995D01*
X1088790Y-28924423D01*
X1231647Y-29095852D02*
X1288790Y-29095852D01*
X1317361Y-29081566D01*
X1331647Y-29067281D01*
X1360218Y-29024423D01*
X1374504Y-28967281D01*
X1374504Y-28852995D01*
X1360218Y-28824423D01*
X1345933Y-28810138D01*
X1317361Y-28795852D01*
X1260218Y-28795852D01*
X1231647Y-28810138D01*
X1217361Y-28824423D01*
X1203075Y-28852995D01*
X1203075Y-28924423D01*
X1217361Y-28952995D01*
X1231647Y-28967281D01*
X1260218Y-28981566D01*
X1317361Y-28981566D01*
X1345933Y-28967281D01*
X1360218Y-28952995D01*
X1374504Y-28924423D01*
X1503075Y-29095852D02*
X1503075Y-28895852D01*
X1503075Y-28924423D02*
X1517361Y-28910138D01*
X1545932Y-28895852D01*
X1588790Y-28895852D01*
X1617361Y-28910138D01*
X1631647Y-28938709D01*
X1631647Y-29095852D01*
X1631647Y-28938709D02*
X1645932Y-28910138D01*
X1674504Y-28895852D01*
X1717361Y-28895852D01*
X1745932Y-28910138D01*
X1760218Y-28938709D01*
X1760218Y-29095852D01*
X1903075Y-29095852D02*
X1903075Y-28895852D01*
X1903075Y-28924423D02*
X1917361Y-28910138D01*
X1945932Y-28895852D01*
X1988790Y-28895852D01*
X2017361Y-28910138D01*
X2031647Y-28938709D01*
X2031647Y-29095852D01*
X2031647Y-28938709D02*
X2045932Y-28910138D01*
X2074504Y-28895852D01*
X2117361Y-28895852D01*
X2145933Y-28910138D01*
X2160218Y-28938709D01*
X2160218Y-29095852D01*
X2745933Y-28781566D02*
X2488790Y-29167281D01*
X3131647Y-28795852D02*
X3160218Y-28795852D01*
X3188790Y-28810138D01*
X3203075Y-28824423D01*
X3217361Y-28852995D01*
X3231647Y-28910138D01*
X3231647Y-28981566D01*
X3217361Y-29038709D01*
X3203075Y-29067281D01*
X3188790Y-29081566D01*
X3160218Y-29095852D01*
X3131647Y-29095852D01*
X3103075Y-29081566D01*
X3088790Y-29067281D01*
X3074504Y-29038709D01*
X3060218Y-28981566D01*
X3060218Y-28910138D01*
X3074504Y-28852995D01*
X3088790Y-28824423D01*
X3103075Y-28810138D01*
X3131647Y-28795852D01*
X3360218Y-29067281D02*
X3374504Y-29081566D01*
X3360218Y-29095852D01*
X3345932Y-29081566D01*
X3360218Y-29067281D01*
X3360218Y-29095852D01*
X3660218Y-29095852D02*
X3488790Y-29095852D01*
X3574504Y-29095852D02*
X3574504Y-28795852D01*
X3545932Y-28838709D01*
X3517361Y-28867281D01*
X3488790Y-28881566D01*
X3931647Y-28795852D02*
X3788790Y-28795852D01*
X3774504Y-28938709D01*
X3788790Y-28924423D01*
X3817361Y-28910138D01*
X3888790Y-28910138D01*
X3917361Y-28924423D01*
X3931647Y-28938709D01*
X3945932Y-28967281D01*
X3945932Y-29038709D01*
X3931647Y-29067281D01*
X3917361Y-29081566D01*
X3888790Y-29095852D01*
X3817361Y-29095852D01*
X3788790Y-29081566D01*
X3774504Y-29067281D01*
X4045932Y-28795852D02*
X4245933Y-28795852D01*
X4117361Y-29095852D01*
X4345933Y-28795852D02*
X4345933Y-28852995D01*
X4460218Y-28795852D02*
X4460218Y-28852995D01*
X4903075Y-29210138D02*
X4888790Y-29195852D01*
X4860218Y-29152995D01*
X4845933Y-29124423D01*
X4831647Y-29081566D01*
X4817361Y-29010138D01*
X4817361Y-28952995D01*
X4831647Y-28881566D01*
X4845933Y-28838709D01*
X4860218Y-28810138D01*
X4888790Y-28767281D01*
X4903075Y-28752995D01*
X4988790Y-28795852D02*
X5174504Y-28795852D01*
X5074504Y-28910138D01*
X5117361Y-28910138D01*
X5145933Y-28924423D01*
X5160218Y-28938709D01*
X5174504Y-28967281D01*
X5174504Y-29038709D01*
X5160218Y-29067281D01*
X5145933Y-29081566D01*
X5117361Y-29095852D01*
X5031647Y-29095852D01*
X5003075Y-29081566D01*
X4988790Y-29067281D01*
X5288790Y-28824423D02*
X5303075Y-28810138D01*
X5331647Y-28795852D01*
X5403075Y-28795852D01*
X5431647Y-28810138D01*
X5445933Y-28824423D01*
X5460218Y-28852995D01*
X5460218Y-28881566D01*
X5445933Y-28924423D01*
X5274504Y-29095852D01*
X5460218Y-29095852D01*
X5817361Y-29095852D02*
X5817361Y-28795852D01*
X5945932Y-29095852D02*
X5945932Y-28938709D01*
X5931647Y-28910138D01*
X5903075Y-28895852D01*
X5860218Y-28895852D01*
X5831647Y-28910138D01*
X5817361Y-28924423D01*
X6131647Y-29095852D02*
X6103075Y-29081566D01*
X6088790Y-29067281D01*
X6074504Y-29038709D01*
X6074504Y-28952995D01*
X6088790Y-28924423D01*
X6103075Y-28910138D01*
X6131647Y-28895852D01*
X6174504Y-28895852D01*
X6203075Y-28910138D01*
X6217361Y-28924423D01*
X6231647Y-28952995D01*
X6231647Y-29038709D01*
X6217361Y-29067281D01*
X6203075Y-29081566D01*
X6174504Y-29095852D01*
X6131647Y-29095852D01*
X6403075Y-29095852D02*
X6374504Y-29081566D01*
X6360218Y-29052995D01*
X6360218Y-28795852D01*
X6631647Y-29081566D02*
X6603075Y-29095852D01*
X6545932Y-29095852D01*
X6517361Y-29081566D01*
X6503075Y-29052995D01*
X6503075Y-28938709D01*
X6517361Y-28910138D01*
X6545932Y-28895852D01*
X6603075Y-28895852D01*
X6631647Y-28910138D01*
X6645932Y-28938709D01*
X6645932Y-28967281D01*
X6503075Y-28995852D01*
X6760218Y-29081566D02*
X6788790Y-29095852D01*
X6845932Y-29095852D01*
X6874504Y-29081566D01*
X6888790Y-29052995D01*
X6888790Y-29038709D01*
X6874504Y-29010138D01*
X6845932Y-28995852D01*
X6803075Y-28995852D01*
X6774504Y-28981566D01*
X6760218Y-28952995D01*
X6760218Y-28938709D01*
X6774504Y-28910138D01*
X6803075Y-28895852D01*
X6845932Y-28895852D01*
X6874504Y-28910138D01*
X6988790Y-29210138D02*
X7003075Y-29195852D01*
X7031647Y-29152995D01*
X7045932Y-29124423D01*
X7060218Y-29081566D01*
X7074504Y-29010138D01*
X7074504Y-28952995D01*
X7060218Y-28881566D01*
X7045932Y-28838709D01*
X7031647Y-28810138D01*
X7003075Y-28767281D01*
X6988790Y-28752995D01*
X7531647Y-29210138D02*
X7517361Y-29195852D01*
X7488790Y-29152995D01*
X7474504Y-29124423D01*
X7460218Y-29081566D01*
X7445932Y-29010138D01*
X7445932Y-28952995D01*
X7460218Y-28881566D01*
X7474504Y-28838709D01*
X7488790Y-28810138D01*
X7517361Y-28767281D01*
X7531647Y-28752995D01*
X7645932Y-28895852D02*
X7645932Y-29095852D01*
X7645932Y-28924423D02*
X7660218Y-28910138D01*
X7688790Y-28895852D01*
X7731647Y-28895852D01*
X7760218Y-28910138D01*
X7774504Y-28938709D01*
X7774504Y-29095852D01*
X7960218Y-29095852D02*
X7931647Y-29081566D01*
X7917361Y-29067281D01*
X7903075Y-29038709D01*
X7903075Y-28952995D01*
X7917361Y-28924423D01*
X7931647Y-28910138D01*
X7960218Y-28895852D01*
X8003075Y-28895852D01*
X8031647Y-28910138D01*
X8045932Y-28924423D01*
X8060218Y-28952995D01*
X8060218Y-29038709D01*
X8045932Y-29067281D01*
X8031647Y-29081566D01*
X8003075Y-29095852D01*
X7960218Y-29095852D01*
X8145932Y-28895852D02*
X8260218Y-28895852D01*
X8188790Y-28795852D02*
X8188790Y-29052995D01*
X8203075Y-29081566D01*
X8231647Y-29095852D01*
X8260218Y-29095852D01*
X8588790Y-28895852D02*
X8588790Y-29195852D01*
X8588790Y-28910138D02*
X8617361Y-28895852D01*
X8674504Y-28895852D01*
X8703075Y-28910138D01*
X8717361Y-28924423D01*
X8731647Y-28952995D01*
X8731647Y-29038709D01*
X8717361Y-29067281D01*
X8703075Y-29081566D01*
X8674504Y-29095852D01*
X8617361Y-29095852D01*
X8588790Y-29081566D01*
X8903075Y-29095852D02*
X8874504Y-29081566D01*
X8860218Y-29052995D01*
X8860218Y-28795852D01*
X9145933Y-29095852D02*
X9145933Y-28938709D01*
X9131647Y-28910138D01*
X9103075Y-28895852D01*
X9045933Y-28895852D01*
X9017361Y-28910138D01*
X9145933Y-29081566D02*
X9117361Y-29095852D01*
X9045933Y-29095852D01*
X9017361Y-29081566D01*
X9003075Y-29052995D01*
X9003075Y-29024423D01*
X9017361Y-28995852D01*
X9045933Y-28981566D01*
X9117361Y-28981566D01*
X9145933Y-28967281D01*
X9245933Y-28895852D02*
X9360218Y-28895852D01*
X9288790Y-28795852D02*
X9288790Y-29052995D01*
X9303075Y-29081566D01*
X9331647Y-29095852D01*
X9360218Y-29095852D01*
X9574504Y-29081566D02*
X9545933Y-29095852D01*
X9488790Y-29095852D01*
X9460218Y-29081566D01*
X9445933Y-29052995D01*
X9445933Y-28938709D01*
X9460218Y-28910138D01*
X9488790Y-28895852D01*
X9545933Y-28895852D01*
X9574504Y-28910138D01*
X9588790Y-28938709D01*
X9588790Y-28967281D01*
X9445933Y-28995852D01*
X9845933Y-29095852D02*
X9845933Y-28795852D01*
X9845933Y-29081566D02*
X9817361Y-29095852D01*
X9760218Y-29095852D01*
X9731647Y-29081566D01*
X9717361Y-29067281D01*
X9703075Y-29038709D01*
X9703075Y-28952995D01*
X9717361Y-28924423D01*
X9731647Y-28910138D01*
X9760218Y-28895852D01*
X9817361Y-28895852D01*
X9845933Y-28910138D01*
X9960218Y-29210138D02*
X9974504Y-29195852D01*
X10003075Y-29152995D01*
X10017361Y-29124423D01*
X10031647Y-29081566D01*
X10045933Y-29010138D01*
X10045933Y-28952995D01*
X10031647Y-28881566D01*
X10017361Y-28838709D01*
X10003075Y-28810138D01*
X9974504Y-28767281D01*
X9960218Y-28752995D01*
M02*
