%FSLAX45Y45*%
G04 Gerber Fmt 4.5, Leading zero omitted, Abs format (unit mm)*
G04 Created by KiCad (PCBNEW (5.1.4)-1) date 2023-05-25 13:23:47*
%MOMM*%
%LPD*%
G04 APERTURE LIST*
%ADD10C,0.050000*%
%ADD11C,0.200000*%
%ADD12C,0.300000*%
G04 APERTURE END LIST*
D10*
X7133000Y-2737000D02*
X5699000Y-2158000D01*
X5162000Y-2479000D02*
X3825000Y-1940000D01*
X22809000Y-2155000D02*
X21341000Y-2748000D01*
X24672000Y-1938000D02*
X23319000Y-2484000D01*
X11799482Y3317911D02*
X13402500Y2670000D01*
X14150000Y-8170000D02*
X14350000Y-8170000D01*
X14210000Y490000D02*
X14290000Y490000D01*
X15031587Y2580000D02*
X15097500Y2670000D01*
X14870000Y490000D02*
X15030000Y650000D01*
X14870000Y490000D02*
X14290000Y490000D01*
X15031587Y2580000D02*
X15030000Y650000D01*
X18160919Y-8171638D02*
X14350000Y-8170000D01*
X25506768Y-3262360D02*
X23698759Y-3992842D01*
X25534396Y-3197270D02*
X25506768Y-3262360D01*
X16700518Y3317911D02*
X15097500Y2670000D01*
X18160919Y-8171638D02*
X23698759Y-3992842D01*
X16700518Y3317911D02*
X18020000Y3850000D01*
X25534396Y-3197270D02*
X25122329Y-2177368D01*
X2965603Y-3197270D02*
X3377671Y-2177368D01*
X5162000Y-2479000D02*
X5699000Y-2158000D01*
X3825000Y-1940000D02*
X3377671Y-2177368D01*
X11799482Y3317911D02*
X10480000Y3850000D01*
X13630000Y490000D02*
X13470000Y650000D01*
X2993232Y-3262360D02*
X4801241Y-3992842D01*
X7390000Y-2640000D02*
X9920000Y3610000D01*
X10339081Y-8171638D02*
X4801241Y-3992842D01*
X7390000Y-2640000D02*
X7133000Y-2737000D01*
X13630000Y490000D02*
X14210000Y490000D01*
X2965603Y-3197270D02*
X2993232Y-3262360D01*
X21110000Y-2640000D02*
X21341000Y-2748000D01*
X9920000Y3610000D02*
X10480000Y3850000D01*
X13468413Y2580000D02*
X13470000Y650000D01*
X10339081Y-8171638D02*
X14150000Y-8170000D01*
X13468413Y2580000D02*
X13402500Y2670000D01*
X18580000Y3610000D02*
X18020000Y3850000D01*
X21110000Y-2640000D02*
X18580000Y3610000D01*
X23319000Y-2484000D02*
X22809000Y-2155000D01*
X24672000Y-1938000D02*
X25122329Y-2177368D01*
D11*
X7005000Y-3555000D02*
X7045000Y-3595000D01*
X7045000Y-3555000D02*
X7005000Y-3595000D01*
X7095000Y-4195000D02*
X7135000Y-4235000D01*
X7135000Y-4195000D02*
X7095000Y-4235000D01*
X8735000Y-4230000D02*
X8775000Y-4270000D01*
X8775000Y-4230000D02*
X8735000Y-4270000D01*
X8910000Y-4880000D02*
X8950000Y-4920000D01*
X8950000Y-4880000D02*
X8910000Y-4920000D01*
X9015000Y-4200000D02*
X9055000Y-4240000D01*
X9055000Y-4200000D02*
X9015000Y-4240000D01*
X9090000Y-1785000D02*
X9130000Y-1825000D01*
X9130000Y-1785000D02*
X9090000Y-1825000D01*
X9270000Y-4210000D02*
X9310000Y-4250000D01*
X9310000Y-4210000D02*
X9270000Y-4250000D01*
X9397197Y1874095D02*
X9437197Y1834095D01*
X9437197Y1874095D02*
X9397197Y1834095D01*
X9540000Y-4225000D02*
X9580000Y-4265000D01*
X9580000Y-4225000D02*
X9540000Y-4265000D01*
X9632702Y1778945D02*
X9672702Y1738945D01*
X9672702Y1778945D02*
X9632702Y1738945D01*
X9800000Y-4235000D02*
X9840000Y-4275000D01*
X9840000Y-4235000D02*
X9800000Y-4275000D01*
X9905000Y-1810000D02*
X9945000Y-1850000D01*
X9945000Y-1810000D02*
X9905000Y-1850000D01*
X10055000Y-4245000D02*
X10095000Y-4285000D01*
X10095000Y-4245000D02*
X10055000Y-4285000D01*
X10310000Y1325000D02*
X10350000Y1285000D01*
X10350000Y1325000D02*
X10310000Y1285000D01*
X10315000Y-4250000D02*
X10355000Y-4290000D01*
X10355000Y-4250000D02*
X10315000Y-4290000D01*
X10564717Y1415806D02*
X10604717Y1375806D01*
X10604717Y1415806D02*
X10564717Y1375806D01*
X10569436Y1619580D02*
X10609436Y1579580D01*
X10609436Y1619580D02*
X10569436Y1579580D01*
X10570565Y1515636D02*
X10610565Y1475636D01*
X10610565Y1515636D02*
X10570565Y1475636D01*
X10575000Y-4255000D02*
X10615000Y-4295000D01*
X10615000Y-4255000D02*
X10575000Y-4295000D01*
X10580440Y1718973D02*
X10620440Y1678973D01*
X10620440Y1718973D02*
X10580440Y1678973D01*
X10835000Y-4245000D02*
X10875000Y-4285000D01*
X10875000Y-4245000D02*
X10835000Y-4285000D01*
X11225000Y-4593903D02*
X11265000Y-4633903D01*
X11265000Y-4593903D02*
X11225000Y-4633903D01*
X12005000Y-3790000D02*
X12045000Y-3830000D01*
X12045000Y-3790000D02*
X12005000Y-3830000D01*
X12009998Y-4035000D02*
X12049998Y-4075000D01*
X12049998Y-4035000D02*
X12009998Y-4075000D01*
X12019222Y-3539222D02*
X12059222Y-3579222D01*
X12059222Y-3539222D02*
X12019222Y-3579222D01*
X12030000Y-3290000D02*
X12070000Y-3330000D01*
X12070000Y-3290000D02*
X12030000Y-3330000D01*
X12035000Y-3045000D02*
X12075000Y-3085000D01*
X12075000Y-3045000D02*
X12035000Y-3085000D01*
X12035222Y-2539778D02*
X12075222Y-2579778D01*
X12075222Y-2539778D02*
X12035222Y-2579778D01*
X12040000Y-2295000D02*
X12080000Y-2335000D01*
X12080000Y-2295000D02*
X12040000Y-2335000D01*
X12040000Y-2790000D02*
X12080000Y-2830000D01*
X12080000Y-2790000D02*
X12040000Y-2830000D01*
X12050000Y-2045000D02*
X12090000Y-2085000D01*
X12090000Y-2045000D02*
X12050000Y-2085000D01*
X12055000Y-1795000D02*
X12095000Y-1835000D01*
X12095000Y-1795000D02*
X12055000Y-1835000D01*
X12715000Y-4310000D02*
X12755000Y-4350000D01*
X12755000Y-4310000D02*
X12715000Y-4350000D01*
X12819904Y-4324904D02*
X12859904Y-4364904D01*
X12859904Y-4324904D02*
X12819904Y-4364904D01*
X12975000Y-6320000D02*
X13015000Y-6360000D01*
X13015000Y-6320000D02*
X12975000Y-6360000D01*
X13055000Y-6405000D02*
X13095000Y-6445000D01*
X13095000Y-6405000D02*
X13055000Y-6445000D01*
X13160000Y-6125000D02*
X13200000Y-6165000D01*
X13200000Y-6125000D02*
X13160000Y-6165000D01*
X13190000Y-6010000D02*
X13230000Y-6050000D01*
X13230000Y-6010000D02*
X13190000Y-6050000D01*
X13210000Y-4170000D02*
X13250000Y-4210000D01*
X13250000Y-4170000D02*
X13210000Y-4210000D01*
X13680000Y-6015000D02*
X13720000Y-6055000D01*
X13720000Y-6015000D02*
X13680000Y-6055000D01*
X13715000Y-4315000D02*
X13755000Y-4355000D01*
X13755000Y-4315000D02*
X13715000Y-4355000D01*
X13771132Y-6099839D02*
X13811132Y-6139839D01*
X13811132Y-6099839D02*
X13771132Y-6139839D01*
X13875000Y-4280000D02*
X13915000Y-4320000D01*
X13915000Y-4280000D02*
X13875000Y-4320000D01*
X14790000Y-4895000D02*
X14830000Y-4935000D01*
X14830000Y-4895000D02*
X14790000Y-4935000D01*
X14890000Y-4860000D02*
X14930000Y-4900000D01*
X14930000Y-4860000D02*
X14890000Y-4900000D01*
X14992000Y-4535000D02*
X15032000Y-4575000D01*
X15032000Y-4535000D02*
X14992000Y-4575000D01*
X15095000Y-4415000D02*
X15135000Y-4455000D01*
X15135000Y-4415000D02*
X15095000Y-4455000D01*
X15660000Y-4420000D02*
X15700000Y-4460000D01*
X15700000Y-4420000D02*
X15660000Y-4460000D01*
X16375000Y-1625000D02*
X16415000Y-1665000D01*
X16415000Y-1625000D02*
X16375000Y-1665000D01*
X16375000Y-1860000D02*
X16415000Y-1900000D01*
X16415000Y-1860000D02*
X16375000Y-1900000D01*
X16380000Y-1140000D02*
X16420000Y-1180000D01*
X16420000Y-1140000D02*
X16380000Y-1180000D01*
X16380000Y-1380000D02*
X16420000Y-1420000D01*
X16420000Y-1380000D02*
X16380000Y-1420000D01*
X16380000Y-2350000D02*
X16420000Y-2390000D01*
X16420000Y-2350000D02*
X16380000Y-2390000D01*
X16385000Y-2110000D02*
X16425000Y-2150000D01*
X16425000Y-2110000D02*
X16385000Y-2150000D01*
X16385000Y-3110000D02*
X16425000Y-3150000D01*
X16425000Y-3110000D02*
X16385000Y-3150000D01*
X16395000Y-2605000D02*
X16435000Y-2645000D01*
X16435000Y-2605000D02*
X16395000Y-2645000D01*
X16395000Y-2855000D02*
X16435000Y-2895000D01*
X16435000Y-2855000D02*
X16395000Y-2895000D01*
X16403750Y-3851250D02*
X16443750Y-3891250D01*
X16443750Y-3851250D02*
X16403750Y-3891250D01*
X16405000Y-3605000D02*
X16445000Y-3645000D01*
X16445000Y-3605000D02*
X16405000Y-3645000D01*
X16410000Y-4110000D02*
X16450000Y-4150000D01*
X16450000Y-4110000D02*
X16410000Y-4150000D01*
X16625000Y-4420000D02*
X16665000Y-4460000D01*
X16665000Y-4420000D02*
X16625000Y-4460000D01*
X16635000Y-4535000D02*
X16675000Y-4575000D01*
X16675000Y-4535000D02*
X16635000Y-4575000D01*
X17480000Y-4445000D02*
X17520000Y-4485000D01*
X17520000Y-4445000D02*
X17480000Y-4485000D01*
X17765000Y-4440000D02*
X17805000Y-4480000D01*
X17805000Y-4440000D02*
X17765000Y-4480000D01*
X18045000Y-4440000D02*
X18085000Y-4480000D01*
X18085000Y-4440000D02*
X18045000Y-4480000D01*
X18325000Y-4435000D02*
X18365000Y-4475000D01*
X18365000Y-4435000D02*
X18325000Y-4475000D01*
X18607705Y-4438904D02*
X18647705Y-4478904D01*
X18647705Y-4438904D02*
X18607705Y-4478904D01*
X18611097Y-1610000D02*
X18651097Y-1650000D01*
X18651097Y-1610000D02*
X18611097Y-1650000D01*
X18890000Y-4420000D02*
X18930000Y-4460000D01*
X18930000Y-4420000D02*
X18890000Y-4460000D01*
X19170000Y-4420000D02*
X19210000Y-4460000D01*
X19210000Y-4420000D02*
X19170000Y-4460000D01*
X19390000Y-6170000D02*
X19430000Y-6210000D01*
X19430000Y-6170000D02*
X19390000Y-6210000D01*
X19455000Y-4415000D02*
X19495000Y-4455000D01*
X19495000Y-4415000D02*
X19455000Y-4455000D01*
X20820000Y-5200000D02*
X20860000Y-5240000D01*
X20860000Y-5200000D02*
X20820000Y-5240000D01*
X21450000Y-5120001D02*
X21490000Y-5160001D01*
X21490000Y-5120001D02*
X21450000Y-5160001D01*
X23341199Y-3496400D02*
X23381199Y-3536400D01*
X23381199Y-3496400D02*
X23341199Y-3536400D01*
X13917500Y-7600000D02*
G75*
G03X13917500Y-7600000I-37500J0D01*
G01*
X14080000Y-7560000D02*
X14080000Y-7640000D01*
X14040000Y-7600000D02*
X14120000Y-7600000D01*
X14280000Y-7560000D02*
X14280000Y-7640000D01*
X14240000Y-7600000D02*
X14320000Y-7600000D01*
X6585809Y-5180743D02*
X6585809Y-5110032D01*
X6515097Y-5110032D01*
X6515097Y-5180743D01*
X6585809Y-5180743D01*
X6788662Y-5333604D02*
X6788662Y-5262893D01*
X6717951Y-5262893D01*
X6717951Y-5333604D01*
X6788662Y-5333604D01*
X6991516Y-5486465D02*
X6991516Y-5415754D01*
X6920804Y-5415754D01*
X6920804Y-5486465D01*
X6991516Y-5486465D01*
X7194369Y-5639326D02*
X7194369Y-5568615D01*
X7123658Y-5568615D01*
X7123658Y-5639326D01*
X7194369Y-5639326D01*
X19124956Y-228112D02*
X19124956Y-157400D01*
X19054245Y-157400D01*
X19054245Y-228112D01*
X19124956Y-228112D01*
X19360461Y-132962D02*
X19360461Y-62250D01*
X19289750Y-62250D01*
X19289750Y-132962D01*
X19360461Y-132962D01*
X19595966Y-37812D02*
X19595966Y32900D01*
X19525254Y32900D01*
X19525254Y-37812D01*
X19595966Y-37812D01*
X19831470Y57338D02*
X19831470Y128050D01*
X19760759Y128050D01*
X19760759Y57338D01*
X19831470Y57338D01*
X18413204Y1533537D02*
X18413204Y1604249D01*
X18342492Y1604249D01*
X18342492Y1533537D01*
X18413204Y1533537D01*
X18648708Y1628688D02*
X18648708Y1699399D01*
X18577997Y1699399D01*
X18577997Y1628688D01*
X18648708Y1628688D01*
X18884213Y1723838D02*
X18884213Y1794549D01*
X18813502Y1794549D01*
X18813502Y1723838D01*
X18884213Y1723838D01*
X19119718Y1818988D02*
X19119718Y1889699D01*
X19049006Y1889699D01*
X19049006Y1818988D01*
X19119718Y1818988D01*
X3193292Y-3161114D02*
X3193292Y-3090403D01*
X3122580Y-3090403D01*
X3122580Y-3161114D01*
X3193292Y-3161114D01*
X3288442Y-2925609D02*
X3288442Y-2854898D01*
X3217731Y-2854898D01*
X3217731Y-2925609D01*
X3288442Y-2925609D01*
X3383592Y-2690105D02*
X3383592Y-2619393D01*
X3312881Y-2619393D01*
X3312881Y-2690105D01*
X3383592Y-2690105D01*
X3478742Y-2454600D02*
X3478742Y-2383889D01*
X3408031Y-2383889D01*
X3408031Y-2454600D01*
X3478742Y-2454600D01*
X13715356Y-7635356D02*
X13715356Y-7564644D01*
X13644644Y-7564644D01*
X13644644Y-7635356D01*
X13715356Y-7635356D01*
X14515356Y-7635356D02*
X14515356Y-7564644D01*
X14444644Y-7564644D01*
X14444644Y-7635356D01*
X14515356Y-7635356D01*
X19836709Y-1989761D02*
X19836709Y-1919050D01*
X19765997Y-1919050D01*
X19765997Y-1989761D01*
X19836709Y-1989761D01*
X20072213Y-1894611D02*
X20072213Y-1823900D01*
X20001502Y-1823900D01*
X20001502Y-1894611D01*
X20072213Y-1894611D01*
X20307718Y-1799461D02*
X20307718Y-1728750D01*
X20237007Y-1728750D01*
X20237007Y-1799461D01*
X20307718Y-1799461D01*
X20543223Y-1704311D02*
X20543223Y-1633599D01*
X20472511Y-1633599D01*
X20472511Y-1704311D01*
X20543223Y-1704311D01*
X9452553Y1818739D02*
X9452553Y1889451D01*
X9381842Y1889451D01*
X9381842Y1818739D01*
X9452553Y1818739D01*
X9688058Y1723589D02*
X9688058Y1794300D01*
X9617346Y1794300D01*
X9617346Y1723589D01*
X9688058Y1723589D01*
X9923562Y1628439D02*
X9923562Y1699150D01*
X9852851Y1699150D01*
X9852851Y1628439D01*
X9923562Y1628439D01*
X10159067Y1533289D02*
X10159067Y1604000D01*
X10088356Y1604000D01*
X10088356Y1533289D01*
X10159067Y1533289D01*
X9171245Y-7140101D02*
X9171245Y-7069390D01*
X9100534Y-7069390D01*
X9100534Y-7140101D01*
X9171245Y-7140101D01*
X9324106Y-6937248D02*
X9324106Y-6866536D01*
X9253395Y-6866536D01*
X9253395Y-6937248D01*
X9324106Y-6937248D01*
X9476967Y-6734394D02*
X9476967Y-6663683D01*
X9406256Y-6663683D01*
X9406256Y-6734394D01*
X9476967Y-6734394D01*
X9629828Y-6531541D02*
X9629828Y-6460829D01*
X9559117Y-6460829D01*
X9559117Y-6531541D01*
X9629828Y-6531541D01*
X18943504Y-6533167D02*
X18943504Y-6462455D01*
X18872792Y-6462455D01*
X18872792Y-6533167D01*
X18943504Y-6533167D01*
X19096365Y-6736020D02*
X19096365Y-6665309D01*
X19025653Y-6665309D01*
X19025653Y-6736020D01*
X19096365Y-6736020D01*
X19249226Y-6938873D02*
X19249226Y-6868162D01*
X19178514Y-6868162D01*
X19178514Y-6938873D01*
X19249226Y-6938873D01*
X19402087Y-7141727D02*
X19402087Y-7071016D01*
X19331375Y-7071016D01*
X19331375Y-7141727D01*
X19402087Y-7141727D01*
X14175356Y-3355356D02*
X14175356Y-3284644D01*
X14104644Y-3284644D01*
X14104644Y-3355356D01*
X14175356Y-3355356D01*
X14429356Y-3355356D02*
X14429356Y-3284644D01*
X14358644Y-3284644D01*
X14358644Y-3355356D01*
X14429356Y-3355356D01*
X25093529Y-2454351D02*
X25093529Y-2383640D01*
X25022817Y-2383640D01*
X25022817Y-2454351D01*
X25093529Y-2454351D01*
X25188679Y-2689856D02*
X25188679Y-2619145D01*
X25117967Y-2619145D01*
X25117967Y-2689856D01*
X25188679Y-2689856D01*
X25283829Y-2925361D02*
X25283829Y-2854649D01*
X25213117Y-2854649D01*
X25213117Y-2925361D01*
X25283829Y-2925361D01*
X25378979Y-3160865D02*
X25378979Y-3090154D01*
X25308267Y-3090154D01*
X25308267Y-3160865D01*
X25378979Y-3160865D01*
X14285356Y14644D02*
X14285356Y85356D01*
X14214644Y85356D01*
X14214644Y14644D01*
X14285356Y14644D01*
X14285356Y-239356D02*
X14285356Y-168644D01*
X14214644Y-168644D01*
X14214644Y-239356D01*
X14285356Y-239356D01*
X14285356Y-493356D02*
X14285356Y-422644D01*
X14214644Y-422644D01*
X14214644Y-493356D01*
X14285356Y-493356D01*
X14285356Y-747356D02*
X14285356Y-676644D01*
X14214644Y-676644D01*
X14214644Y-747356D01*
X14285356Y-747356D01*
X8740801Y57090D02*
X8740801Y127801D01*
X8670089Y127801D01*
X8670089Y57090D01*
X8740801Y57090D01*
X8976305Y-38060D02*
X8976305Y32651D01*
X8905594Y32651D01*
X8905594Y-38060D01*
X8976305Y-38060D01*
X9211810Y-133210D02*
X9211810Y-62499D01*
X9141099Y-62499D01*
X9141099Y-133210D01*
X9211810Y-133210D01*
X9447315Y-228360D02*
X9447315Y-157649D01*
X9376603Y-157649D01*
X9376603Y-228360D01*
X9447315Y-228360D01*
X17401451Y3295187D02*
X17401451Y3365898D01*
X17330740Y3365898D01*
X17330740Y3295187D01*
X17401451Y3295187D01*
X17636956Y3390337D02*
X17636956Y3461048D01*
X17566245Y3461048D01*
X17566245Y3390337D01*
X17636956Y3390337D01*
X17872461Y3485487D02*
X17872461Y3556198D01*
X17801749Y3556198D01*
X17801749Y3485487D01*
X17872461Y3485487D01*
X18107965Y3580637D02*
X18107965Y3651348D01*
X18037254Y3651348D01*
X18037254Y3580637D01*
X18107965Y3580637D01*
X21381358Y-5639147D02*
X21381358Y-5568436D01*
X21310647Y-5568436D01*
X21310647Y-5639147D01*
X21381358Y-5639147D01*
X21584212Y-5486286D02*
X21584212Y-5415575D01*
X21513500Y-5415575D01*
X21513500Y-5486286D01*
X21584212Y-5486286D01*
X21787065Y-5333425D02*
X21787065Y-5262714D01*
X21716354Y-5262714D01*
X21716354Y-5333425D01*
X21787065Y-5333425D01*
X21989919Y-5180564D02*
X21989919Y-5109853D01*
X21919207Y-5109853D01*
X21919207Y-5180564D01*
X21989919Y-5180564D01*
X19945923Y-6716891D02*
X19945923Y-6646180D01*
X19875212Y-6646180D01*
X19875212Y-6716891D01*
X19945923Y-6716891D01*
X20148777Y-6564030D02*
X20148777Y-6493319D01*
X20078065Y-6493319D01*
X20078065Y-6564030D01*
X20148777Y-6564030D01*
X20351630Y-6411169D02*
X20351630Y-6340458D01*
X20280919Y-6340458D01*
X20280919Y-6411169D01*
X20351630Y-6411169D01*
X20554484Y-6258308D02*
X20554484Y-6187597D01*
X20483772Y-6187597D01*
X20483772Y-6258308D01*
X20554484Y-6258308D01*
X8029048Y-1704559D02*
X8029048Y-1633848D01*
X7958336Y-1633848D01*
X7958336Y-1704559D01*
X8029048Y-1704559D01*
X8264553Y-1799709D02*
X8264553Y-1728998D01*
X8193841Y-1728998D01*
X8193841Y-1799709D01*
X8264553Y-1799709D01*
X8500057Y-1894859D02*
X8500057Y-1824148D01*
X8429346Y-1824148D01*
X8429346Y-1894859D01*
X8500057Y-1894859D01*
X8735562Y-1990010D02*
X8735562Y-1919298D01*
X8664851Y-1919298D01*
X8664851Y-1990010D01*
X8735562Y-1990010D01*
X8020445Y-6257886D02*
X8020445Y-6187174D01*
X7949734Y-6187174D01*
X7949734Y-6257886D01*
X8020445Y-6257886D01*
X8223298Y-6410747D02*
X8223298Y-6340035D01*
X8152587Y-6340035D01*
X8152587Y-6410747D01*
X8223298Y-6410747D01*
X8426152Y-6563608D02*
X8426152Y-6492896D01*
X8355440Y-6492896D01*
X8355440Y-6563608D01*
X8426152Y-6563608D01*
X8629005Y-6716469D02*
X8629005Y-6645757D01*
X8558294Y-6645757D01*
X8558294Y-6716469D01*
X8629005Y-6716469D01*
X10464306Y3580389D02*
X10464306Y3651100D01*
X10393594Y3651100D01*
X10393594Y3580389D01*
X10464306Y3580389D01*
X10699810Y3485238D02*
X10699810Y3555950D01*
X10629099Y3555950D01*
X10629099Y3485238D01*
X10699810Y3485238D01*
X10935315Y3390088D02*
X10935315Y3460800D01*
X10864604Y3460800D01*
X10864604Y3390088D01*
X10935315Y3390088D01*
X11170820Y3294938D02*
X11170820Y3365650D01*
X11100108Y3365650D01*
X11100108Y3294938D01*
X11170820Y3294938D01*
X16940000Y-7332500D02*
X16992500Y-7280000D01*
X16940000Y-7227500D01*
X16887500Y-7280000D01*
X16940000Y-7332500D01*
X16940000Y-7782500D02*
X16992500Y-7730000D01*
X16940000Y-7677500D01*
X16887500Y-7730000D01*
X16940000Y-7782500D01*
X17265000Y-8007500D02*
X17317500Y-7955000D01*
X17265000Y-7902500D01*
X17212500Y-7955000D01*
X17265000Y-8007500D01*
X17590000Y-7332500D02*
X17642500Y-7280000D01*
X17590000Y-7227500D01*
X17537500Y-7280000D01*
X17590000Y-7332500D01*
X17590000Y-7782500D02*
X17642500Y-7730000D01*
X17590000Y-7677500D01*
X17537500Y-7730000D01*
X17590000Y-7782500D01*
X13433000Y-2188000D02*
X13543000Y-2298000D01*
X13543000Y-2188000D02*
X13433000Y-2298000D01*
X13543000Y-2243000D02*
G75*
G03X13543000Y-2243000I-55000J0D01*
G01*
X17489980Y-1814383D02*
X17636980Y-1961383D01*
X17636980Y-1814383D02*
X17489980Y-1961383D01*
X17563480Y-1814383D02*
X17563480Y-1961383D01*
X17489980Y-1887883D02*
X17636980Y-1887883D01*
X17507999Y-1869659D02*
X17654999Y-2016659D01*
X17654999Y-1869659D02*
X17507999Y-2016659D01*
X17581499Y-1869659D02*
X17581499Y-2016659D01*
X17507999Y-1943159D02*
X17654999Y-1943159D01*
X17934842Y-1580721D02*
X18081842Y-1727721D01*
X18081842Y-1580721D02*
X17934842Y-1727721D01*
X18008342Y-1580721D02*
X18008342Y-1727721D01*
X17934842Y-1654221D02*
X18081842Y-1654221D01*
X18001610Y-1396279D02*
X18148610Y-1543279D01*
X18148610Y-1396279D02*
X18001610Y-1543279D01*
X18075110Y-1396279D02*
X18075110Y-1543279D01*
X18001610Y-1469779D02*
X18148610Y-1469779D01*
X11087304Y82042D02*
X11234304Y-64958D01*
X11234304Y82042D02*
X11087304Y-64958D01*
X11160804Y82042D02*
X11160804Y-64958D01*
X11087304Y8542D02*
X11234304Y8542D01*
X11112740Y134321D02*
X11259740Y-12679D01*
X11259740Y134321D02*
X11112740Y-12679D01*
X11186240Y134321D02*
X11186240Y-12679D01*
X11112740Y60821D02*
X11259740Y60821D01*
X11595062Y-6623D02*
X11742062Y-153624D01*
X11742062Y-6623D02*
X11595062Y-153624D01*
X11668562Y-6623D02*
X11668562Y-153624D01*
X11595062Y-80124D02*
X11742062Y-80124D01*
X11771216Y79672D02*
X11918216Y-67328D01*
X11918216Y79672D02*
X11771216Y-67328D01*
X11844716Y79672D02*
X11844716Y-67328D01*
X11771216Y6172D02*
X11918216Y6172D01*
X9663799Y-3441256D02*
X9810799Y-3588256D01*
X9810799Y-3441256D02*
X9663799Y-3588256D01*
X9737299Y-3441256D02*
X9737299Y-3588256D01*
X9663799Y-3514756D02*
X9810799Y-3514756D01*
X9689235Y-3388978D02*
X9836235Y-3535978D01*
X9836235Y-3388978D02*
X9689235Y-3535978D01*
X9762735Y-3388978D02*
X9762735Y-3535978D01*
X9689235Y-3462478D02*
X9836235Y-3462478D01*
X10171557Y-3529922D02*
X10318557Y-3676922D01*
X10318557Y-3529922D02*
X10171557Y-3676922D01*
X10245057Y-3529922D02*
X10245057Y-3676922D01*
X10171557Y-3603422D02*
X10318557Y-3603422D01*
X10347711Y-3443627D02*
X10494711Y-3590627D01*
X10494711Y-3443627D02*
X10347711Y-3590627D01*
X10421211Y-3443627D02*
X10421211Y-3590627D01*
X10347711Y-3517127D02*
X10494711Y-3517127D01*
X17977967Y2049794D02*
X18124967Y1902794D01*
X18124967Y2049794D02*
X17977967Y1902794D01*
X18051467Y2049794D02*
X18051467Y1902794D01*
X17977967Y1976294D02*
X18124967Y1976294D01*
X17995986Y1994519D02*
X18142986Y1847519D01*
X18142986Y1994519D02*
X17995986Y1847519D01*
X18069486Y1994519D02*
X18069486Y1847519D01*
X17995986Y1921019D02*
X18142986Y1921019D01*
X18422829Y2283457D02*
X18569829Y2136457D01*
X18569829Y2283457D02*
X18422829Y2136457D01*
X18496329Y2283457D02*
X18496329Y2136457D01*
X18422829Y2209957D02*
X18569829Y2209957D01*
X18489597Y2467899D02*
X18636597Y2320899D01*
X18636597Y2467899D02*
X18489597Y2320899D01*
X18563097Y2467899D02*
X18563097Y2320899D01*
X18489597Y2394399D02*
X18636597Y2394399D01*
X16066475Y1708915D02*
X16213475Y1561915D01*
X16213475Y1708915D02*
X16066475Y1561915D01*
X16139975Y1708915D02*
X16139975Y1561915D01*
X16066475Y1635415D02*
X16213475Y1635415D01*
X16084494Y1653640D02*
X16231494Y1506640D01*
X16231494Y1653640D02*
X16084494Y1506640D01*
X16157994Y1653640D02*
X16157994Y1506640D01*
X16084494Y1580140D02*
X16231494Y1580140D01*
X16511337Y1942578D02*
X16658337Y1795578D01*
X16658337Y1942578D02*
X16511337Y1795578D01*
X16584837Y1942578D02*
X16584837Y1795578D01*
X16511337Y1869078D02*
X16658337Y1869078D01*
X16578105Y2127020D02*
X16725105Y1980020D01*
X16725105Y2127020D02*
X16578105Y1980020D01*
X16651605Y2127020D02*
X16651605Y1980020D01*
X16578105Y2053520D02*
X16725105Y2053520D01*
X16778228Y-52734D02*
X16925228Y-199734D01*
X16925228Y-52734D02*
X16778228Y-199734D01*
X16851728Y-52734D02*
X16851728Y-199734D01*
X16778228Y-126234D02*
X16925228Y-126234D01*
X16796246Y-108009D02*
X16943246Y-255009D01*
X16943246Y-108009D02*
X16796246Y-255009D01*
X16869746Y-108009D02*
X16869746Y-255009D01*
X16796246Y-181509D02*
X16943246Y-181509D01*
X17223089Y180928D02*
X17370089Y33928D01*
X17370089Y180928D02*
X17223089Y33928D01*
X17296589Y180928D02*
X17296589Y33928D01*
X17223089Y107428D02*
X17370089Y107428D01*
X17289858Y365371D02*
X17436858Y218371D01*
X17436858Y365371D02*
X17289858Y218371D01*
X17363358Y365371D02*
X17363358Y218371D01*
X17289858Y291871D02*
X17436858Y291871D01*
X8464059Y-1338728D02*
X8611059Y-1485728D01*
X8611059Y-1338728D02*
X8464059Y-1485728D01*
X8537559Y-1338728D02*
X8537559Y-1485728D01*
X8464059Y-1412228D02*
X8611059Y-1412228D01*
X8489495Y-1286450D02*
X8636495Y-1433450D01*
X8636495Y-1286450D02*
X8489495Y-1433450D01*
X8562995Y-1286450D02*
X8562995Y-1433450D01*
X8489495Y-1359950D02*
X8636495Y-1359950D01*
X8971818Y-1427394D02*
X9118818Y-1574394D01*
X9118818Y-1427394D02*
X8971818Y-1574394D01*
X9045318Y-1427394D02*
X9045318Y-1574394D01*
X8971818Y-1500894D02*
X9118818Y-1500894D01*
X9147971Y-1341098D02*
X9294971Y-1488098D01*
X9294971Y-1341098D02*
X9147971Y-1488098D01*
X9221471Y-1341098D02*
X9221471Y-1488098D01*
X9147971Y-1414598D02*
X9294971Y-1414598D01*
X19401472Y-1473504D02*
X19548472Y-1620504D01*
X19548472Y-1473504D02*
X19401472Y-1620504D01*
X19474972Y-1473504D02*
X19474972Y-1620504D01*
X19401472Y-1547004D02*
X19548472Y-1547004D01*
X19419491Y-1528780D02*
X19566491Y-1675780D01*
X19566491Y-1528780D02*
X19419491Y-1675780D01*
X19492991Y-1528780D02*
X19492991Y-1675780D01*
X19419491Y-1602280D02*
X19566491Y-1602280D01*
X19846334Y-1239842D02*
X19993334Y-1386842D01*
X19993334Y-1239842D02*
X19846334Y-1386842D01*
X19919834Y-1239842D02*
X19919834Y-1386842D01*
X19846334Y-1313342D02*
X19993334Y-1313342D01*
X19913102Y-1055400D02*
X20060102Y-1202400D01*
X20060102Y-1055400D02*
X19913102Y-1202400D01*
X19986602Y-1055400D02*
X19986602Y-1202400D01*
X19913102Y-1128900D02*
X20060102Y-1128900D01*
X3667098Y-3067648D02*
X3814098Y-3214648D01*
X3814098Y-3067648D02*
X3667098Y-3214648D01*
X3740598Y-3067648D02*
X3740598Y-3214648D01*
X3667098Y-3141148D02*
X3814098Y-3141148D01*
X3692534Y-3015370D02*
X3839534Y-3162370D01*
X3839534Y-3015370D02*
X3692534Y-3162370D01*
X3766034Y-3015370D02*
X3766034Y-3162370D01*
X3692534Y-3088870D02*
X3839534Y-3088870D01*
X4174856Y-3156314D02*
X4321856Y-3303314D01*
X4321856Y-3156314D02*
X4174856Y-3303314D01*
X4248356Y-3156314D02*
X4248356Y-3303314D01*
X4174856Y-3229814D02*
X4321856Y-3229814D01*
X4351010Y-3070018D02*
X4498010Y-3217018D01*
X4498010Y-3070018D02*
X4351010Y-3217018D01*
X4424510Y-3070018D02*
X4424510Y-3217018D01*
X4351010Y-3143518D02*
X4498010Y-3143518D01*
X9887565Y2184571D02*
X10034565Y2037571D01*
X10034565Y2184571D02*
X9887565Y2037571D01*
X9961065Y2184571D02*
X9961065Y2037571D01*
X9887565Y2111071D02*
X10034565Y2111071D01*
X9913000Y2236849D02*
X10060000Y2089849D01*
X10060000Y2236849D02*
X9913000Y2089849D01*
X9986500Y2236849D02*
X9986500Y2089849D01*
X9913000Y2163349D02*
X10060000Y2163349D01*
X10395323Y2095905D02*
X10542323Y1948905D01*
X10542323Y2095905D02*
X10395323Y1948905D01*
X10468823Y2095905D02*
X10468823Y1948905D01*
X10395323Y2022405D02*
X10542323Y2022405D01*
X10571476Y2182200D02*
X10718476Y2035200D01*
X10718476Y2182200D02*
X10571476Y2035200D01*
X10644976Y2182200D02*
X10644976Y2035200D01*
X10571476Y2108700D02*
X10718476Y2108700D01*
X18689720Y288145D02*
X18836720Y141145D01*
X18836720Y288145D02*
X18689720Y141145D01*
X18763220Y288145D02*
X18763220Y141145D01*
X18689720Y214645D02*
X18836720Y214645D01*
X18707738Y232870D02*
X18854738Y85870D01*
X18854738Y232870D02*
X18707738Y85870D01*
X18781238Y232870D02*
X18781238Y85870D01*
X18707738Y159370D02*
X18854738Y159370D01*
X19134581Y521807D02*
X19281581Y374807D01*
X19281581Y521807D02*
X19134581Y374807D01*
X19208081Y521807D02*
X19208081Y374807D01*
X19134581Y448307D02*
X19281581Y448307D01*
X19201350Y706250D02*
X19348350Y559250D01*
X19348350Y706250D02*
X19201350Y559250D01*
X19274850Y706250D02*
X19274850Y559250D01*
X19201350Y632750D02*
X19348350Y632750D01*
X5616051Y-3315808D02*
X5763051Y-3462808D01*
X5763051Y-3315808D02*
X5616051Y-3462808D01*
X5689551Y-3315808D02*
X5689551Y-3462808D01*
X5616051Y-3389308D02*
X5763051Y-3389308D01*
X5641487Y-3263530D02*
X5788487Y-3410530D01*
X5788487Y-3263530D02*
X5641487Y-3410530D01*
X5714987Y-3263530D02*
X5714987Y-3410530D01*
X5641487Y-3337030D02*
X5788487Y-3337030D01*
X6123809Y-3404474D02*
X6270809Y-3551474D01*
X6270809Y-3404474D02*
X6123809Y-3551474D01*
X6197309Y-3404474D02*
X6197309Y-3551474D01*
X6123809Y-3477974D02*
X6270809Y-3477974D01*
X6299963Y-3318179D02*
X6446963Y-3465179D01*
X6446963Y-3318179D02*
X6299963Y-3465179D01*
X6373463Y-3318179D02*
X6373463Y-3465179D01*
X6299963Y-3391679D02*
X6446963Y-3391679D01*
X9175812Y422921D02*
X9322812Y275921D01*
X9322812Y422921D02*
X9175812Y275921D01*
X9249312Y422921D02*
X9249312Y275921D01*
X9175812Y349421D02*
X9322812Y349421D01*
X9201248Y475200D02*
X9348248Y328200D01*
X9348248Y475200D02*
X9201248Y328200D01*
X9274748Y475200D02*
X9274748Y328200D01*
X9201248Y401700D02*
X9348248Y401700D01*
X9683570Y334256D02*
X9830570Y187255D01*
X9830570Y334256D02*
X9683570Y187255D01*
X9757070Y334256D02*
X9757070Y187255D01*
X9683570Y260755D02*
X9830570Y260755D01*
X9859724Y420551D02*
X10006724Y273551D01*
X10006724Y420551D02*
X9859724Y273551D01*
X9933224Y420551D02*
X9933224Y273551D01*
X9859724Y347051D02*
X10006724Y347051D01*
X24198433Y-3202425D02*
X24345433Y-3349425D01*
X24345433Y-3202425D02*
X24198433Y-3349425D01*
X24271933Y-3202425D02*
X24271933Y-3349425D01*
X24198433Y-3275925D02*
X24345433Y-3275925D01*
X24216452Y-3257700D02*
X24363452Y-3404700D01*
X24363452Y-3257700D02*
X24216452Y-3404700D01*
X24289952Y-3257700D02*
X24289952Y-3404700D01*
X24216452Y-3331200D02*
X24363452Y-3331200D01*
X24643295Y-2968762D02*
X24790295Y-3115762D01*
X24790295Y-2968762D02*
X24643295Y-3115762D01*
X24716795Y-2968762D02*
X24716795Y-3115762D01*
X24643295Y-3042262D02*
X24790295Y-3042262D01*
X24710063Y-2784320D02*
X24857063Y-2931320D01*
X24857063Y-2784320D02*
X24710063Y-2931320D01*
X24783563Y-2784320D02*
X24783563Y-2931320D01*
X24710063Y-2857820D02*
X24857063Y-2857820D01*
X11799056Y1843692D02*
X11946056Y1696692D01*
X11946056Y1843692D02*
X11799056Y1696692D01*
X11872556Y1843692D02*
X11872556Y1696692D01*
X11799056Y1770192D02*
X11946056Y1770192D01*
X11824492Y1895970D02*
X11971492Y1748970D01*
X11971492Y1895970D02*
X11824492Y1748970D01*
X11897992Y1895970D02*
X11897992Y1748970D01*
X11824492Y1822470D02*
X11971492Y1822470D01*
X12306814Y1755026D02*
X12453814Y1608026D01*
X12453814Y1755026D02*
X12306814Y1608026D01*
X12380314Y1755026D02*
X12380314Y1608026D01*
X12306814Y1681526D02*
X12453814Y1681526D01*
X12482968Y1841321D02*
X12629968Y1694321D01*
X12629968Y1841321D02*
X12482968Y1694321D01*
X12556468Y1841321D02*
X12556468Y1694321D01*
X12482968Y1767821D02*
X12629968Y1767821D01*
X10375551Y-1679607D02*
X10522551Y-1826607D01*
X10522551Y-1679607D02*
X10375551Y-1826607D01*
X10449051Y-1679607D02*
X10449051Y-1826607D01*
X10375551Y-1753107D02*
X10522551Y-1753107D01*
X10400987Y-1627329D02*
X10547987Y-1774329D01*
X10547987Y-1627329D02*
X10400987Y-1774329D01*
X10474487Y-1627329D02*
X10474487Y-1774329D01*
X10400987Y-1700829D02*
X10547987Y-1700829D01*
X10883310Y-1768273D02*
X11030310Y-1915273D01*
X11030310Y-1768273D02*
X10883310Y-1915273D01*
X10956810Y-1768273D02*
X10956810Y-1915273D01*
X10883310Y-1841773D02*
X11030310Y-1841773D01*
X11059463Y-1681977D02*
X11206463Y-1828977D01*
X11206463Y-1681977D02*
X11059463Y-1828977D01*
X11132963Y-1681977D02*
X11132963Y-1828977D01*
X11059463Y-1755477D02*
X11206463Y-1755477D01*
X7752307Y-3100377D02*
X7899307Y-3247377D01*
X7899307Y-3100377D02*
X7752307Y-3247377D01*
X7825807Y-3100377D02*
X7825807Y-3247377D01*
X7752307Y-3173877D02*
X7899307Y-3173877D01*
X7777743Y-3048099D02*
X7924743Y-3195099D01*
X7924743Y-3048099D02*
X7777743Y-3195099D01*
X7851243Y-3048099D02*
X7851243Y-3195099D01*
X7777743Y-3121599D02*
X7924743Y-3121599D01*
X8260065Y-3189043D02*
X8407065Y-3336043D01*
X8407065Y-3189043D02*
X8260065Y-3336043D01*
X8333565Y-3189043D02*
X8333565Y-3336043D01*
X8260065Y-3262543D02*
X8407065Y-3262543D01*
X8436219Y-3102748D02*
X8583219Y-3249748D01*
X8583219Y-3102748D02*
X8436219Y-3249748D01*
X8509719Y-3102748D02*
X8509719Y-3249748D01*
X8436219Y-3176248D02*
X8583219Y-3176248D01*
X18201733Y-3576033D02*
X18348733Y-3723033D01*
X18348733Y-3576033D02*
X18201733Y-3723033D01*
X18275233Y-3576033D02*
X18275233Y-3723033D01*
X18201733Y-3649533D02*
X18348733Y-3649533D01*
X18219751Y-3631308D02*
X18366751Y-3778308D01*
X18366751Y-3631308D02*
X18219751Y-3778308D01*
X18293251Y-3631308D02*
X18293251Y-3778308D01*
X18219751Y-3704808D02*
X18366751Y-3704808D01*
X18646594Y-3342370D02*
X18793594Y-3489370D01*
X18793594Y-3342370D02*
X18646594Y-3489370D01*
X18720094Y-3342370D02*
X18720094Y-3489370D01*
X18646594Y-3415870D02*
X18793594Y-3415870D01*
X18713363Y-3157928D02*
X18860363Y-3304928D01*
X18860363Y-3157928D02*
X18713363Y-3304928D01*
X18786863Y-3157928D02*
X18786863Y-3304928D01*
X18713363Y-3231428D02*
X18860363Y-3231428D01*
X20113225Y-3235154D02*
X20260225Y-3382154D01*
X20260225Y-3235154D02*
X20113225Y-3382154D01*
X20186725Y-3235154D02*
X20186725Y-3382154D01*
X20113225Y-3308654D02*
X20260225Y-3308654D01*
X20131243Y-3290429D02*
X20278243Y-3437429D01*
X20278243Y-3290429D02*
X20131243Y-3437429D01*
X20204743Y-3290429D02*
X20204743Y-3437429D01*
X20131243Y-3363929D02*
X20278243Y-3363929D01*
X20558086Y-3001491D02*
X20705086Y-3148491D01*
X20705086Y-3001491D02*
X20558086Y-3148491D01*
X20631586Y-3001491D02*
X20631586Y-3148491D01*
X20558086Y-3074991D02*
X20705086Y-3074991D01*
X20624855Y-2817049D02*
X20771855Y-2964049D01*
X20771855Y-2817049D02*
X20624855Y-2964049D01*
X20698355Y-2817049D02*
X20698355Y-2964049D01*
X20624855Y-2890549D02*
X20771855Y-2890549D01*
X22249481Y-3450585D02*
X22396481Y-3597585D01*
X22396481Y-3450585D02*
X22249481Y-3597585D01*
X22322981Y-3450585D02*
X22322981Y-3597585D01*
X22249481Y-3524085D02*
X22396481Y-3524085D01*
X22267499Y-3505860D02*
X22414499Y-3652860D01*
X22414499Y-3505860D02*
X22267499Y-3652860D01*
X22340999Y-3505860D02*
X22340999Y-3652860D01*
X22267499Y-3579360D02*
X22414499Y-3579360D01*
X22694342Y-3216923D02*
X22841342Y-3363923D01*
X22841342Y-3216923D02*
X22694342Y-3363923D01*
X22767842Y-3216923D02*
X22767842Y-3363923D01*
X22694342Y-3290423D02*
X22841342Y-3290423D01*
X22761111Y-3032480D02*
X22908111Y-3179480D01*
X22908111Y-3032480D02*
X22761111Y-3179480D01*
X22834611Y-3032480D02*
X22834611Y-3179480D01*
X22761111Y-3105980D02*
X22908111Y-3105980D01*
X13413000Y372000D02*
X13563000Y222000D01*
X13563000Y372000D02*
X13413000Y222000D01*
X13541033Y243966D02*
X13541033Y350033D01*
X13434966Y350033D01*
X13434966Y243966D01*
X13541033Y243966D01*
X13413000Y118000D02*
X13563000Y-32000D01*
X13563000Y118000D02*
X13413000Y-32000D01*
X13541033Y-10034D02*
X13541033Y96033D01*
X13434966Y96033D01*
X13434966Y-10034D01*
X13541033Y-10034D01*
X13413000Y-136000D02*
X13563000Y-286000D01*
X13563000Y-136000D02*
X13413000Y-286000D01*
X13541033Y-264034D02*
X13541033Y-157967D01*
X13434966Y-157967D01*
X13434966Y-264034D01*
X13541033Y-264034D01*
X13413000Y-390000D02*
X13563000Y-540000D01*
X13563000Y-390000D02*
X13413000Y-540000D01*
X13541033Y-518033D02*
X13541033Y-411966D01*
X13434966Y-411966D01*
X13434966Y-518033D01*
X13541033Y-518033D01*
X13413000Y-644000D02*
X13563000Y-794000D01*
X13563000Y-644000D02*
X13413000Y-794000D01*
X13541033Y-772033D02*
X13541033Y-665967D01*
X13434966Y-665967D01*
X13434966Y-772033D01*
X13541033Y-772033D01*
X13413000Y-898000D02*
X13563000Y-1048000D01*
X13563000Y-898000D02*
X13413000Y-1048000D01*
X13541033Y-1026033D02*
X13541033Y-919966D01*
X13434966Y-919966D01*
X13434966Y-1026033D01*
X13541033Y-1026033D01*
X13413000Y-1152000D02*
X13563000Y-1302000D01*
X13563000Y-1152000D02*
X13413000Y-1302000D01*
X13541033Y-1280034D02*
X13541033Y-1173967D01*
X13434966Y-1173967D01*
X13434966Y-1280034D01*
X13541033Y-1280034D01*
X13413000Y-1406000D02*
X13563000Y-1556000D01*
X13563000Y-1406000D02*
X13413000Y-1556000D01*
X13541033Y-1534033D02*
X13541033Y-1427966D01*
X13434966Y-1427966D01*
X13434966Y-1534033D01*
X13541033Y-1534033D01*
X13413000Y-1660000D02*
X13563000Y-1810000D01*
X13563000Y-1660000D02*
X13413000Y-1810000D01*
X13541033Y-1788033D02*
X13541033Y-1681966D01*
X13434966Y-1681966D01*
X13434966Y-1788033D01*
X13541033Y-1788033D01*
X13413000Y-1914000D02*
X13563000Y-2064000D01*
X13563000Y-1914000D02*
X13413000Y-2064000D01*
X13541033Y-2042033D02*
X13541033Y-1935966D01*
X13434966Y-1935966D01*
X13434966Y-2042033D01*
X13541033Y-2042033D01*
X13413000Y-2422000D02*
X13563000Y-2572000D01*
X13563000Y-2422000D02*
X13413000Y-2572000D01*
X13541033Y-2550034D02*
X13541033Y-2443967D01*
X13434966Y-2443967D01*
X13434966Y-2550034D01*
X13541033Y-2550034D01*
X14937000Y372000D02*
X15087000Y222000D01*
X15087000Y372000D02*
X14937000Y222000D01*
X15065033Y243966D02*
X15065033Y350033D01*
X14958966Y350033D01*
X14958966Y243966D01*
X15065033Y243966D01*
X14937000Y118000D02*
X15087000Y-32000D01*
X15087000Y118000D02*
X14937000Y-32000D01*
X15065033Y-10034D02*
X15065033Y96033D01*
X14958966Y96033D01*
X14958966Y-10034D01*
X15065033Y-10034D01*
X14937000Y-136000D02*
X15087000Y-286000D01*
X15087000Y-136000D02*
X14937000Y-286000D01*
X15065033Y-264034D02*
X15065033Y-157967D01*
X14958966Y-157967D01*
X14958966Y-264034D01*
X15065033Y-264034D01*
X14937000Y-390000D02*
X15087000Y-540000D01*
X15087000Y-390000D02*
X14937000Y-540000D01*
X15065033Y-518033D02*
X15065033Y-411966D01*
X14958966Y-411966D01*
X14958966Y-518033D01*
X15065033Y-518033D01*
X14937000Y-644000D02*
X15087000Y-794000D01*
X15087000Y-644000D02*
X14937000Y-794000D01*
X15065033Y-772033D02*
X15065033Y-665967D01*
X14958966Y-665967D01*
X14958966Y-772033D01*
X15065033Y-772033D01*
X14937000Y-898000D02*
X15087000Y-1048000D01*
X15087000Y-898000D02*
X14937000Y-1048000D01*
X15065033Y-1026033D02*
X15065033Y-919966D01*
X14958966Y-919966D01*
X14958966Y-1026033D01*
X15065033Y-1026033D01*
X14937000Y-1152000D02*
X15087000Y-1302000D01*
X15087000Y-1152000D02*
X14937000Y-1302000D01*
X15065033Y-1280034D02*
X15065033Y-1173967D01*
X14958966Y-1173967D01*
X14958966Y-1280034D01*
X15065033Y-1280034D01*
X14937000Y-1406000D02*
X15087000Y-1556000D01*
X15087000Y-1406000D02*
X14937000Y-1556000D01*
X15065033Y-1534033D02*
X15065033Y-1427966D01*
X14958966Y-1427966D01*
X14958966Y-1534033D01*
X15065033Y-1534033D01*
X14937000Y-1660000D02*
X15087000Y-1810000D01*
X15087000Y-1660000D02*
X14937000Y-1810000D01*
X15065033Y-1788033D02*
X15065033Y-1681966D01*
X14958966Y-1681966D01*
X14958966Y-1788033D01*
X15065033Y-1788033D01*
X14937000Y-1914000D02*
X15087000Y-2064000D01*
X15087000Y-1914000D02*
X14937000Y-2064000D01*
X15065033Y-2042033D02*
X15065033Y-1935966D01*
X14958966Y-1935966D01*
X14958966Y-2042033D01*
X15065033Y-2042033D01*
X14937000Y-2168000D02*
X15087000Y-2318000D01*
X15087000Y-2168000D02*
X14937000Y-2318000D01*
X15065033Y-2296034D02*
X15065033Y-2189967D01*
X14958966Y-2189967D01*
X14958966Y-2296034D01*
X15065033Y-2296034D01*
X14937000Y-2422000D02*
X15087000Y-2572000D01*
X15087000Y-2422000D02*
X14937000Y-2572000D01*
X15065033Y-2550034D02*
X15065033Y-2443967D01*
X14958966Y-2443967D01*
X14958966Y-2550034D01*
X15065033Y-2550034D01*
D12*
X3249532Y-8639852D02*
X3249532Y-8339852D01*
X3320960Y-8339852D01*
X3363818Y-8354138D01*
X3392389Y-8382709D01*
X3406675Y-8411281D01*
X3420960Y-8468424D01*
X3420960Y-8511281D01*
X3406675Y-8568424D01*
X3392389Y-8596995D01*
X3363818Y-8625566D01*
X3320960Y-8639852D01*
X3249532Y-8639852D01*
X3549532Y-8639852D02*
X3549532Y-8439852D01*
X3549532Y-8496995D02*
X3563818Y-8468424D01*
X3578103Y-8454138D01*
X3606675Y-8439852D01*
X3635246Y-8439852D01*
X3735246Y-8639852D02*
X3735246Y-8439852D01*
X3735246Y-8339852D02*
X3720960Y-8354138D01*
X3735246Y-8368423D01*
X3749532Y-8354138D01*
X3735246Y-8339852D01*
X3735246Y-8368423D01*
X3920960Y-8639852D02*
X3892389Y-8625566D01*
X3878103Y-8596995D01*
X3878103Y-8339852D01*
X4078103Y-8639852D02*
X4049532Y-8625566D01*
X4035246Y-8596995D01*
X4035246Y-8339852D01*
X4420961Y-8639852D02*
X4420961Y-8339852D01*
X4520961Y-8554138D01*
X4620961Y-8339852D01*
X4620961Y-8639852D01*
X4892389Y-8639852D02*
X4892389Y-8482709D01*
X4878103Y-8454138D01*
X4849532Y-8439852D01*
X4792389Y-8439852D01*
X4763818Y-8454138D01*
X4892389Y-8625566D02*
X4863818Y-8639852D01*
X4792389Y-8639852D01*
X4763818Y-8625566D01*
X4749532Y-8596995D01*
X4749532Y-8568424D01*
X4763818Y-8539852D01*
X4792389Y-8525566D01*
X4863818Y-8525566D01*
X4892389Y-8511281D01*
X5035246Y-8439852D02*
X5035246Y-8739852D01*
X5035246Y-8454138D02*
X5063818Y-8439852D01*
X5120961Y-8439852D01*
X5149532Y-8454138D01*
X5163818Y-8468424D01*
X5178103Y-8496995D01*
X5178103Y-8582709D01*
X5163818Y-8611281D01*
X5149532Y-8625566D01*
X5120961Y-8639852D01*
X5063818Y-8639852D01*
X5035246Y-8625566D01*
X5306675Y-8611281D02*
X5320961Y-8625566D01*
X5306675Y-8639852D01*
X5292389Y-8625566D01*
X5306675Y-8611281D01*
X5306675Y-8639852D01*
X5306675Y-8454138D02*
X5320961Y-8468424D01*
X5306675Y-8482709D01*
X5292389Y-8468424D01*
X5306675Y-8454138D01*
X5306675Y-8482709D01*
X2923103Y-9114138D02*
X2963103Y-9154138D01*
X2963103Y-9114138D02*
X2923103Y-9154138D01*
X3306675Y-8969852D02*
X3335246Y-8969852D01*
X3363818Y-8984138D01*
X3378103Y-8998424D01*
X3392389Y-9026995D01*
X3406675Y-9084138D01*
X3406675Y-9155566D01*
X3392389Y-9212709D01*
X3378103Y-9241281D01*
X3363818Y-9255566D01*
X3335246Y-9269852D01*
X3306675Y-9269852D01*
X3278103Y-9255566D01*
X3263818Y-9241281D01*
X3249532Y-9212709D01*
X3235246Y-9155566D01*
X3235246Y-9084138D01*
X3249532Y-9026995D01*
X3263818Y-8998424D01*
X3278103Y-8984138D01*
X3306675Y-8969852D01*
X3535246Y-9241281D02*
X3549532Y-9255566D01*
X3535246Y-9269852D01*
X3520960Y-9255566D01*
X3535246Y-9241281D01*
X3535246Y-9269852D01*
X3806675Y-9069852D02*
X3806675Y-9269852D01*
X3735246Y-8955566D02*
X3663818Y-9169852D01*
X3849532Y-9169852D01*
X4020960Y-8969852D02*
X4049532Y-8969852D01*
X4078103Y-8984138D01*
X4092389Y-8998424D01*
X4106675Y-9026995D01*
X4120960Y-9084138D01*
X4120960Y-9155566D01*
X4106675Y-9212709D01*
X4092389Y-9241281D01*
X4078103Y-9255566D01*
X4049532Y-9269852D01*
X4020960Y-9269852D01*
X3992389Y-9255566D01*
X3978103Y-9241281D01*
X3963818Y-9212709D01*
X3949532Y-9155566D01*
X3949532Y-9084138D01*
X3963818Y-9026995D01*
X3978103Y-8998424D01*
X3992389Y-8984138D01*
X4020960Y-8969852D01*
X4249532Y-9269852D02*
X4249532Y-9069852D01*
X4249532Y-9098424D02*
X4263818Y-9084138D01*
X4292389Y-9069852D01*
X4335246Y-9069852D01*
X4363818Y-9084138D01*
X4378103Y-9112709D01*
X4378103Y-9269852D01*
X4378103Y-9112709D02*
X4392389Y-9084138D01*
X4420961Y-9069852D01*
X4463818Y-9069852D01*
X4492389Y-9084138D01*
X4506675Y-9112709D01*
X4506675Y-9269852D01*
X4649532Y-9269852D02*
X4649532Y-9069852D01*
X4649532Y-9098424D02*
X4663818Y-9084138D01*
X4692389Y-9069852D01*
X4735246Y-9069852D01*
X4763818Y-9084138D01*
X4778103Y-9112709D01*
X4778103Y-9269852D01*
X4778103Y-9112709D02*
X4792389Y-9084138D01*
X4820961Y-9069852D01*
X4863818Y-9069852D01*
X4892389Y-9084138D01*
X4906675Y-9112709D01*
X4906675Y-9269852D01*
X5492389Y-8955566D02*
X5235246Y-9341281D01*
X5878103Y-8969852D02*
X5906675Y-8969852D01*
X5935246Y-8984138D01*
X5949532Y-8998424D01*
X5963818Y-9026995D01*
X5978103Y-9084138D01*
X5978103Y-9155566D01*
X5963818Y-9212709D01*
X5949532Y-9241281D01*
X5935246Y-9255566D01*
X5906675Y-9269852D01*
X5878103Y-9269852D01*
X5849532Y-9255566D01*
X5835246Y-9241281D01*
X5820960Y-9212709D01*
X5806675Y-9155566D01*
X5806675Y-9084138D01*
X5820960Y-9026995D01*
X5835246Y-8998424D01*
X5849532Y-8984138D01*
X5878103Y-8969852D01*
X6106675Y-9241281D02*
X6120960Y-9255566D01*
X6106675Y-9269852D01*
X6092389Y-9255566D01*
X6106675Y-9241281D01*
X6106675Y-9269852D01*
X6306675Y-8969852D02*
X6335246Y-8969852D01*
X6363818Y-8984138D01*
X6378103Y-8998424D01*
X6392389Y-9026995D01*
X6406675Y-9084138D01*
X6406675Y-9155566D01*
X6392389Y-9212709D01*
X6378103Y-9241281D01*
X6363818Y-9255566D01*
X6335246Y-9269852D01*
X6306675Y-9269852D01*
X6278103Y-9255566D01*
X6263818Y-9241281D01*
X6249532Y-9212709D01*
X6235246Y-9155566D01*
X6235246Y-9084138D01*
X6249532Y-9026995D01*
X6263818Y-8998424D01*
X6278103Y-8984138D01*
X6306675Y-8969852D01*
X6692389Y-9269852D02*
X6520960Y-9269852D01*
X6606675Y-9269852D02*
X6606675Y-8969852D01*
X6578103Y-9012709D01*
X6549532Y-9041281D01*
X6520960Y-9055566D01*
X6949532Y-8969852D02*
X6892389Y-8969852D01*
X6863818Y-8984138D01*
X6849532Y-8998424D01*
X6820960Y-9041281D01*
X6806675Y-9098424D01*
X6806675Y-9212709D01*
X6820960Y-9241281D01*
X6835246Y-9255566D01*
X6863818Y-9269852D01*
X6920960Y-9269852D01*
X6949532Y-9255566D01*
X6963818Y-9241281D01*
X6978103Y-9212709D01*
X6978103Y-9141281D01*
X6963818Y-9112709D01*
X6949532Y-9098424D01*
X6920960Y-9084138D01*
X6863818Y-9084138D01*
X6835246Y-9098424D01*
X6820960Y-9112709D01*
X6806675Y-9141281D01*
X7092389Y-8969852D02*
X7092389Y-9026995D01*
X7206675Y-8969852D02*
X7206675Y-9026995D01*
X7649532Y-9384138D02*
X7635246Y-9369852D01*
X7606675Y-9326995D01*
X7592389Y-9298424D01*
X7578103Y-9255566D01*
X7563818Y-9184138D01*
X7563818Y-9126995D01*
X7578103Y-9055566D01*
X7592389Y-9012709D01*
X7606675Y-8984138D01*
X7635246Y-8941281D01*
X7649532Y-8926995D01*
X7735246Y-8969852D02*
X7935246Y-8969852D01*
X7806675Y-9269852D01*
X8192389Y-8969852D02*
X8049532Y-8969852D01*
X8035246Y-9112709D01*
X8049532Y-9098424D01*
X8078103Y-9084138D01*
X8149532Y-9084138D01*
X8178103Y-9098424D01*
X8192389Y-9112709D01*
X8206675Y-9141281D01*
X8206675Y-9212709D01*
X8192389Y-9241281D01*
X8178103Y-9255566D01*
X8149532Y-9269852D01*
X8078103Y-9269852D01*
X8049532Y-9255566D01*
X8035246Y-9241281D01*
X8563818Y-9269852D02*
X8563818Y-8969852D01*
X8692389Y-9269852D02*
X8692389Y-9112709D01*
X8678103Y-9084138D01*
X8649532Y-9069852D01*
X8606675Y-9069852D01*
X8578103Y-9084138D01*
X8563818Y-9098424D01*
X8878103Y-9269852D02*
X8849532Y-9255566D01*
X8835246Y-9241281D01*
X8820961Y-9212709D01*
X8820961Y-9126995D01*
X8835246Y-9098424D01*
X8849532Y-9084138D01*
X8878103Y-9069852D01*
X8920961Y-9069852D01*
X8949532Y-9084138D01*
X8963818Y-9098424D01*
X8978103Y-9126995D01*
X8978103Y-9212709D01*
X8963818Y-9241281D01*
X8949532Y-9255566D01*
X8920961Y-9269852D01*
X8878103Y-9269852D01*
X9149532Y-9269852D02*
X9120961Y-9255566D01*
X9106675Y-9226995D01*
X9106675Y-8969852D01*
X9378103Y-9255566D02*
X9349532Y-9269852D01*
X9292389Y-9269852D01*
X9263818Y-9255566D01*
X9249532Y-9226995D01*
X9249532Y-9112709D01*
X9263818Y-9084138D01*
X9292389Y-9069852D01*
X9349532Y-9069852D01*
X9378103Y-9084138D01*
X9392389Y-9112709D01*
X9392389Y-9141281D01*
X9249532Y-9169852D01*
X9506675Y-9255566D02*
X9535246Y-9269852D01*
X9592389Y-9269852D01*
X9620961Y-9255566D01*
X9635246Y-9226995D01*
X9635246Y-9212709D01*
X9620961Y-9184138D01*
X9592389Y-9169852D01*
X9549532Y-9169852D01*
X9520961Y-9155566D01*
X9506675Y-9126995D01*
X9506675Y-9112709D01*
X9520961Y-9084138D01*
X9549532Y-9069852D01*
X9592389Y-9069852D01*
X9620961Y-9084138D01*
X9735246Y-9384138D02*
X9749532Y-9369852D01*
X9778103Y-9326995D01*
X9792389Y-9298424D01*
X9806675Y-9255566D01*
X9820961Y-9184138D01*
X9820961Y-9126995D01*
X9806675Y-9055566D01*
X9792389Y-9012709D01*
X9778103Y-8984138D01*
X9749532Y-8941281D01*
X9735246Y-8926995D01*
X2963103Y-9530138D02*
G75*
G03X2963103Y-9530138I-37500J0D01*
G01*
X3306675Y-9365852D02*
X3335246Y-9365852D01*
X3363818Y-9380138D01*
X3378103Y-9394424D01*
X3392389Y-9422995D01*
X3406675Y-9480138D01*
X3406675Y-9551566D01*
X3392389Y-9608709D01*
X3378103Y-9637281D01*
X3363818Y-9651566D01*
X3335246Y-9665852D01*
X3306675Y-9665852D01*
X3278103Y-9651566D01*
X3263818Y-9637281D01*
X3249532Y-9608709D01*
X3235246Y-9551566D01*
X3235246Y-9480138D01*
X3249532Y-9422995D01*
X3263818Y-9394424D01*
X3278103Y-9380138D01*
X3306675Y-9365852D01*
X3535246Y-9637281D02*
X3549532Y-9651566D01*
X3535246Y-9665852D01*
X3520960Y-9651566D01*
X3535246Y-9637281D01*
X3535246Y-9665852D01*
X3649532Y-9365852D02*
X3849532Y-9365852D01*
X3720960Y-9665852D01*
X4106675Y-9365852D02*
X3963818Y-9365852D01*
X3949532Y-9508709D01*
X3963818Y-9494424D01*
X3992389Y-9480138D01*
X4063818Y-9480138D01*
X4092389Y-9494424D01*
X4106675Y-9508709D01*
X4120960Y-9537281D01*
X4120960Y-9608709D01*
X4106675Y-9637281D01*
X4092389Y-9651566D01*
X4063818Y-9665852D01*
X3992389Y-9665852D01*
X3963818Y-9651566D01*
X3949532Y-9637281D01*
X4249532Y-9665852D02*
X4249532Y-9465852D01*
X4249532Y-9494424D02*
X4263818Y-9480138D01*
X4292389Y-9465852D01*
X4335246Y-9465852D01*
X4363818Y-9480138D01*
X4378103Y-9508709D01*
X4378103Y-9665852D01*
X4378103Y-9508709D02*
X4392389Y-9480138D01*
X4420961Y-9465852D01*
X4463818Y-9465852D01*
X4492389Y-9480138D01*
X4506675Y-9508709D01*
X4506675Y-9665852D01*
X4649532Y-9665852D02*
X4649532Y-9465852D01*
X4649532Y-9494424D02*
X4663818Y-9480138D01*
X4692389Y-9465852D01*
X4735246Y-9465852D01*
X4763818Y-9480138D01*
X4778103Y-9508709D01*
X4778103Y-9665852D01*
X4778103Y-9508709D02*
X4792389Y-9480138D01*
X4820961Y-9465852D01*
X4863818Y-9465852D01*
X4892389Y-9480138D01*
X4906675Y-9508709D01*
X4906675Y-9665852D01*
X5492389Y-9351566D02*
X5235246Y-9737281D01*
X5878103Y-9365852D02*
X5906675Y-9365852D01*
X5935246Y-9380138D01*
X5949532Y-9394424D01*
X5963818Y-9422995D01*
X5978103Y-9480138D01*
X5978103Y-9551566D01*
X5963818Y-9608709D01*
X5949532Y-9637281D01*
X5935246Y-9651566D01*
X5906675Y-9665852D01*
X5878103Y-9665852D01*
X5849532Y-9651566D01*
X5835246Y-9637281D01*
X5820960Y-9608709D01*
X5806675Y-9551566D01*
X5806675Y-9480138D01*
X5820960Y-9422995D01*
X5835246Y-9394424D01*
X5849532Y-9380138D01*
X5878103Y-9365852D01*
X6106675Y-9637281D02*
X6120960Y-9651566D01*
X6106675Y-9665852D01*
X6092389Y-9651566D01*
X6106675Y-9637281D01*
X6106675Y-9665852D01*
X6306675Y-9365852D02*
X6335246Y-9365852D01*
X6363818Y-9380138D01*
X6378103Y-9394424D01*
X6392389Y-9422995D01*
X6406675Y-9480138D01*
X6406675Y-9551566D01*
X6392389Y-9608709D01*
X6378103Y-9637281D01*
X6363818Y-9651566D01*
X6335246Y-9665852D01*
X6306675Y-9665852D01*
X6278103Y-9651566D01*
X6263818Y-9637281D01*
X6249532Y-9608709D01*
X6235246Y-9551566D01*
X6235246Y-9480138D01*
X6249532Y-9422995D01*
X6263818Y-9394424D01*
X6278103Y-9380138D01*
X6306675Y-9365852D01*
X6506675Y-9365852D02*
X6692389Y-9365852D01*
X6592389Y-9480138D01*
X6635246Y-9480138D01*
X6663818Y-9494424D01*
X6678103Y-9508709D01*
X6692389Y-9537281D01*
X6692389Y-9608709D01*
X6678103Y-9637281D01*
X6663818Y-9651566D01*
X6635246Y-9665852D01*
X6549532Y-9665852D01*
X6520960Y-9651566D01*
X6506675Y-9637281D01*
X6878103Y-9365852D02*
X6906675Y-9365852D01*
X6935246Y-9380138D01*
X6949532Y-9394424D01*
X6963818Y-9422995D01*
X6978103Y-9480138D01*
X6978103Y-9551566D01*
X6963818Y-9608709D01*
X6949532Y-9637281D01*
X6935246Y-9651566D01*
X6906675Y-9665852D01*
X6878103Y-9665852D01*
X6849532Y-9651566D01*
X6835246Y-9637281D01*
X6820960Y-9608709D01*
X6806675Y-9551566D01*
X6806675Y-9480138D01*
X6820960Y-9422995D01*
X6835246Y-9394424D01*
X6849532Y-9380138D01*
X6878103Y-9365852D01*
X7092389Y-9365852D02*
X7092389Y-9422995D01*
X7206675Y-9365852D02*
X7206675Y-9422995D01*
X7649532Y-9780138D02*
X7635246Y-9765852D01*
X7606675Y-9722995D01*
X7592389Y-9694424D01*
X7578103Y-9651566D01*
X7563818Y-9580138D01*
X7563818Y-9522995D01*
X7578103Y-9451566D01*
X7592389Y-9408709D01*
X7606675Y-9380138D01*
X7635246Y-9337281D01*
X7649532Y-9322995D01*
X7920960Y-9665852D02*
X7749532Y-9665852D01*
X7835246Y-9665852D02*
X7835246Y-9365852D01*
X7806675Y-9408709D01*
X7778103Y-9437281D01*
X7749532Y-9451566D01*
X8278103Y-9665852D02*
X8278103Y-9365852D01*
X8406675Y-9665852D02*
X8406675Y-9508709D01*
X8392389Y-9480138D01*
X8363818Y-9465852D01*
X8320960Y-9465852D01*
X8292389Y-9480138D01*
X8278103Y-9494424D01*
X8592389Y-9665852D02*
X8563818Y-9651566D01*
X8549532Y-9637281D01*
X8535246Y-9608709D01*
X8535246Y-9522995D01*
X8549532Y-9494424D01*
X8563818Y-9480138D01*
X8592389Y-9465852D01*
X8635246Y-9465852D01*
X8663818Y-9480138D01*
X8678103Y-9494424D01*
X8692389Y-9522995D01*
X8692389Y-9608709D01*
X8678103Y-9637281D01*
X8663818Y-9651566D01*
X8635246Y-9665852D01*
X8592389Y-9665852D01*
X8863818Y-9665852D02*
X8835246Y-9651566D01*
X8820961Y-9622995D01*
X8820961Y-9365852D01*
X9092389Y-9651566D02*
X9063818Y-9665852D01*
X9006675Y-9665852D01*
X8978103Y-9651566D01*
X8963818Y-9622995D01*
X8963818Y-9508709D01*
X8978103Y-9480138D01*
X9006675Y-9465852D01*
X9063818Y-9465852D01*
X9092389Y-9480138D01*
X9106675Y-9508709D01*
X9106675Y-9537281D01*
X8963818Y-9565852D01*
X9206675Y-9780138D02*
X9220961Y-9765852D01*
X9249532Y-9722995D01*
X9263818Y-9694424D01*
X9278103Y-9651566D01*
X9292389Y-9580138D01*
X9292389Y-9522995D01*
X9278103Y-9451566D01*
X9263818Y-9408709D01*
X9249532Y-9380138D01*
X9220961Y-9337281D01*
X9206675Y-9322995D01*
X2923103Y-9886138D02*
X2923103Y-9966138D01*
X2883103Y-9926138D02*
X2963103Y-9926138D01*
X3306675Y-9761852D02*
X3335246Y-9761852D01*
X3363818Y-9776138D01*
X3378103Y-9790424D01*
X3392389Y-9818995D01*
X3406675Y-9876138D01*
X3406675Y-9947566D01*
X3392389Y-10004709D01*
X3378103Y-10033281D01*
X3363818Y-10047566D01*
X3335246Y-10061852D01*
X3306675Y-10061852D01*
X3278103Y-10047566D01*
X3263818Y-10033281D01*
X3249532Y-10004709D01*
X3235246Y-9947566D01*
X3235246Y-9876138D01*
X3249532Y-9818995D01*
X3263818Y-9790424D01*
X3278103Y-9776138D01*
X3306675Y-9761852D01*
X3535246Y-10033281D02*
X3549532Y-10047566D01*
X3535246Y-10061852D01*
X3520960Y-10047566D01*
X3535246Y-10033281D01*
X3535246Y-10061852D01*
X3720960Y-9890424D02*
X3692389Y-9876138D01*
X3678103Y-9861852D01*
X3663818Y-9833281D01*
X3663818Y-9818995D01*
X3678103Y-9790424D01*
X3692389Y-9776138D01*
X3720960Y-9761852D01*
X3778103Y-9761852D01*
X3806675Y-9776138D01*
X3820960Y-9790424D01*
X3835246Y-9818995D01*
X3835246Y-9833281D01*
X3820960Y-9861852D01*
X3806675Y-9876138D01*
X3778103Y-9890424D01*
X3720960Y-9890424D01*
X3692389Y-9904709D01*
X3678103Y-9918995D01*
X3663818Y-9947566D01*
X3663818Y-10004709D01*
X3678103Y-10033281D01*
X3692389Y-10047566D01*
X3720960Y-10061852D01*
X3778103Y-10061852D01*
X3806675Y-10047566D01*
X3820960Y-10033281D01*
X3835246Y-10004709D01*
X3835246Y-9947566D01*
X3820960Y-9918995D01*
X3806675Y-9904709D01*
X3778103Y-9890424D01*
X4020960Y-9761852D02*
X4049532Y-9761852D01*
X4078103Y-9776138D01*
X4092389Y-9790424D01*
X4106675Y-9818995D01*
X4120960Y-9876138D01*
X4120960Y-9947566D01*
X4106675Y-10004709D01*
X4092389Y-10033281D01*
X4078103Y-10047566D01*
X4049532Y-10061852D01*
X4020960Y-10061852D01*
X3992389Y-10047566D01*
X3978103Y-10033281D01*
X3963818Y-10004709D01*
X3949532Y-9947566D01*
X3949532Y-9876138D01*
X3963818Y-9818995D01*
X3978103Y-9790424D01*
X3992389Y-9776138D01*
X4020960Y-9761852D01*
X4249532Y-10061852D02*
X4249532Y-9861852D01*
X4249532Y-9890424D02*
X4263818Y-9876138D01*
X4292389Y-9861852D01*
X4335246Y-9861852D01*
X4363818Y-9876138D01*
X4378103Y-9904709D01*
X4378103Y-10061852D01*
X4378103Y-9904709D02*
X4392389Y-9876138D01*
X4420961Y-9861852D01*
X4463818Y-9861852D01*
X4492389Y-9876138D01*
X4506675Y-9904709D01*
X4506675Y-10061852D01*
X4649532Y-10061852D02*
X4649532Y-9861852D01*
X4649532Y-9890424D02*
X4663818Y-9876138D01*
X4692389Y-9861852D01*
X4735246Y-9861852D01*
X4763818Y-9876138D01*
X4778103Y-9904709D01*
X4778103Y-10061852D01*
X4778103Y-9904709D02*
X4792389Y-9876138D01*
X4820961Y-9861852D01*
X4863818Y-9861852D01*
X4892389Y-9876138D01*
X4906675Y-9904709D01*
X4906675Y-10061852D01*
X5492389Y-9747566D02*
X5235246Y-10133281D01*
X5878103Y-9761852D02*
X5906675Y-9761852D01*
X5935246Y-9776138D01*
X5949532Y-9790424D01*
X5963818Y-9818995D01*
X5978103Y-9876138D01*
X5978103Y-9947566D01*
X5963818Y-10004709D01*
X5949532Y-10033281D01*
X5935246Y-10047566D01*
X5906675Y-10061852D01*
X5878103Y-10061852D01*
X5849532Y-10047566D01*
X5835246Y-10033281D01*
X5820960Y-10004709D01*
X5806675Y-9947566D01*
X5806675Y-9876138D01*
X5820960Y-9818995D01*
X5835246Y-9790424D01*
X5849532Y-9776138D01*
X5878103Y-9761852D01*
X6106675Y-10033281D02*
X6120960Y-10047566D01*
X6106675Y-10061852D01*
X6092389Y-10047566D01*
X6106675Y-10033281D01*
X6106675Y-10061852D01*
X6306675Y-9761852D02*
X6335246Y-9761852D01*
X6363818Y-9776138D01*
X6378103Y-9790424D01*
X6392389Y-9818995D01*
X6406675Y-9876138D01*
X6406675Y-9947566D01*
X6392389Y-10004709D01*
X6378103Y-10033281D01*
X6363818Y-10047566D01*
X6335246Y-10061852D01*
X6306675Y-10061852D01*
X6278103Y-10047566D01*
X6263818Y-10033281D01*
X6249532Y-10004709D01*
X6235246Y-9947566D01*
X6235246Y-9876138D01*
X6249532Y-9818995D01*
X6263818Y-9790424D01*
X6278103Y-9776138D01*
X6306675Y-9761852D01*
X6506675Y-9761852D02*
X6692389Y-9761852D01*
X6592389Y-9876138D01*
X6635246Y-9876138D01*
X6663818Y-9890424D01*
X6678103Y-9904709D01*
X6692389Y-9933281D01*
X6692389Y-10004709D01*
X6678103Y-10033281D01*
X6663818Y-10047566D01*
X6635246Y-10061852D01*
X6549532Y-10061852D01*
X6520960Y-10047566D01*
X6506675Y-10033281D01*
X6978103Y-10061852D02*
X6806675Y-10061852D01*
X6892389Y-10061852D02*
X6892389Y-9761852D01*
X6863818Y-9804709D01*
X6835246Y-9833281D01*
X6806675Y-9847566D01*
X7092389Y-9761852D02*
X7092389Y-9818995D01*
X7206675Y-9761852D02*
X7206675Y-9818995D01*
X7649532Y-10176138D02*
X7635246Y-10161852D01*
X7606675Y-10118995D01*
X7592389Y-10090424D01*
X7578103Y-10047566D01*
X7563818Y-9976138D01*
X7563818Y-9918995D01*
X7578103Y-9847566D01*
X7592389Y-9804709D01*
X7606675Y-9776138D01*
X7635246Y-9733281D01*
X7649532Y-9718995D01*
X7749532Y-9790424D02*
X7763818Y-9776138D01*
X7792389Y-9761852D01*
X7863818Y-9761852D01*
X7892389Y-9776138D01*
X7906675Y-9790424D01*
X7920960Y-9818995D01*
X7920960Y-9847566D01*
X7906675Y-9890424D01*
X7735246Y-10061852D01*
X7920960Y-10061852D01*
X8278103Y-10061852D02*
X8278103Y-9761852D01*
X8406675Y-10061852D02*
X8406675Y-9904709D01*
X8392389Y-9876138D01*
X8363818Y-9861852D01*
X8320960Y-9861852D01*
X8292389Y-9876138D01*
X8278103Y-9890424D01*
X8592389Y-10061852D02*
X8563818Y-10047566D01*
X8549532Y-10033281D01*
X8535246Y-10004709D01*
X8535246Y-9918995D01*
X8549532Y-9890424D01*
X8563818Y-9876138D01*
X8592389Y-9861852D01*
X8635246Y-9861852D01*
X8663818Y-9876138D01*
X8678103Y-9890424D01*
X8692389Y-9918995D01*
X8692389Y-10004709D01*
X8678103Y-10033281D01*
X8663818Y-10047566D01*
X8635246Y-10061852D01*
X8592389Y-10061852D01*
X8863818Y-10061852D02*
X8835246Y-10047566D01*
X8820961Y-10018995D01*
X8820961Y-9761852D01*
X9092389Y-10047566D02*
X9063818Y-10061852D01*
X9006675Y-10061852D01*
X8978103Y-10047566D01*
X8963818Y-10018995D01*
X8963818Y-9904709D01*
X8978103Y-9876138D01*
X9006675Y-9861852D01*
X9063818Y-9861852D01*
X9092389Y-9876138D01*
X9106675Y-9904709D01*
X9106675Y-9933281D01*
X8963818Y-9961852D01*
X9220961Y-10047566D02*
X9249532Y-10061852D01*
X9306675Y-10061852D01*
X9335246Y-10047566D01*
X9349532Y-10018995D01*
X9349532Y-10004709D01*
X9335246Y-9976138D01*
X9306675Y-9961852D01*
X9263818Y-9961852D01*
X9235246Y-9947566D01*
X9220961Y-9918995D01*
X9220961Y-9904709D01*
X9235246Y-9876138D01*
X9263818Y-9861852D01*
X9306675Y-9861852D01*
X9335246Y-9876138D01*
X9449532Y-10176138D02*
X9463818Y-10161852D01*
X9492389Y-10118995D01*
X9506675Y-10090424D01*
X9520961Y-10047566D01*
X9535246Y-9976138D01*
X9535246Y-9918995D01*
X9520961Y-9847566D01*
X9506675Y-9804709D01*
X9492389Y-9776138D01*
X9463818Y-9733281D01*
X9449532Y-9718995D01*
X2948459Y-10357494D02*
X2948459Y-10286782D01*
X2877748Y-10286782D01*
X2877748Y-10357494D01*
X2948459Y-10357494D01*
X3406675Y-10457852D02*
X3235246Y-10457852D01*
X3320960Y-10457852D02*
X3320960Y-10157852D01*
X3292389Y-10200709D01*
X3263818Y-10229281D01*
X3235246Y-10243566D01*
X3535246Y-10429281D02*
X3549532Y-10443566D01*
X3535246Y-10457852D01*
X3520960Y-10443566D01*
X3535246Y-10429281D01*
X3535246Y-10457852D01*
X3735246Y-10157852D02*
X3763818Y-10157852D01*
X3792389Y-10172138D01*
X3806675Y-10186424D01*
X3820960Y-10214995D01*
X3835246Y-10272138D01*
X3835246Y-10343566D01*
X3820960Y-10400709D01*
X3806675Y-10429281D01*
X3792389Y-10443566D01*
X3763818Y-10457852D01*
X3735246Y-10457852D01*
X3706675Y-10443566D01*
X3692389Y-10429281D01*
X3678103Y-10400709D01*
X3663818Y-10343566D01*
X3663818Y-10272138D01*
X3678103Y-10214995D01*
X3692389Y-10186424D01*
X3706675Y-10172138D01*
X3735246Y-10157852D01*
X4020960Y-10157852D02*
X4049532Y-10157852D01*
X4078103Y-10172138D01*
X4092389Y-10186424D01*
X4106675Y-10214995D01*
X4120960Y-10272138D01*
X4120960Y-10343566D01*
X4106675Y-10400709D01*
X4092389Y-10429281D01*
X4078103Y-10443566D01*
X4049532Y-10457852D01*
X4020960Y-10457852D01*
X3992389Y-10443566D01*
X3978103Y-10429281D01*
X3963818Y-10400709D01*
X3949532Y-10343566D01*
X3949532Y-10272138D01*
X3963818Y-10214995D01*
X3978103Y-10186424D01*
X3992389Y-10172138D01*
X4020960Y-10157852D01*
X4249532Y-10457852D02*
X4249532Y-10257852D01*
X4249532Y-10286424D02*
X4263818Y-10272138D01*
X4292389Y-10257852D01*
X4335246Y-10257852D01*
X4363818Y-10272138D01*
X4378103Y-10300709D01*
X4378103Y-10457852D01*
X4378103Y-10300709D02*
X4392389Y-10272138D01*
X4420961Y-10257852D01*
X4463818Y-10257852D01*
X4492389Y-10272138D01*
X4506675Y-10300709D01*
X4506675Y-10457852D01*
X4649532Y-10457852D02*
X4649532Y-10257852D01*
X4649532Y-10286424D02*
X4663818Y-10272138D01*
X4692389Y-10257852D01*
X4735246Y-10257852D01*
X4763818Y-10272138D01*
X4778103Y-10300709D01*
X4778103Y-10457852D01*
X4778103Y-10300709D02*
X4792389Y-10272138D01*
X4820961Y-10257852D01*
X4863818Y-10257852D01*
X4892389Y-10272138D01*
X4906675Y-10300709D01*
X4906675Y-10457852D01*
X5492389Y-10143566D02*
X5235246Y-10529281D01*
X5878103Y-10157852D02*
X5906675Y-10157852D01*
X5935246Y-10172138D01*
X5949532Y-10186424D01*
X5963818Y-10214995D01*
X5978103Y-10272138D01*
X5978103Y-10343566D01*
X5963818Y-10400709D01*
X5949532Y-10429281D01*
X5935246Y-10443566D01*
X5906675Y-10457852D01*
X5878103Y-10457852D01*
X5849532Y-10443566D01*
X5835246Y-10429281D01*
X5820960Y-10400709D01*
X5806675Y-10343566D01*
X5806675Y-10272138D01*
X5820960Y-10214995D01*
X5835246Y-10186424D01*
X5849532Y-10172138D01*
X5878103Y-10157852D01*
X6106675Y-10429281D02*
X6120960Y-10443566D01*
X6106675Y-10457852D01*
X6092389Y-10443566D01*
X6106675Y-10429281D01*
X6106675Y-10457852D01*
X6306675Y-10157852D02*
X6335246Y-10157852D01*
X6363818Y-10172138D01*
X6378103Y-10186424D01*
X6392389Y-10214995D01*
X6406675Y-10272138D01*
X6406675Y-10343566D01*
X6392389Y-10400709D01*
X6378103Y-10429281D01*
X6363818Y-10443566D01*
X6335246Y-10457852D01*
X6306675Y-10457852D01*
X6278103Y-10443566D01*
X6263818Y-10429281D01*
X6249532Y-10400709D01*
X6235246Y-10343566D01*
X6235246Y-10272138D01*
X6249532Y-10214995D01*
X6263818Y-10186424D01*
X6278103Y-10172138D01*
X6306675Y-10157852D01*
X6506675Y-10157852D02*
X6692389Y-10157852D01*
X6592389Y-10272138D01*
X6635246Y-10272138D01*
X6663818Y-10286424D01*
X6678103Y-10300709D01*
X6692389Y-10329281D01*
X6692389Y-10400709D01*
X6678103Y-10429281D01*
X6663818Y-10443566D01*
X6635246Y-10457852D01*
X6549532Y-10457852D01*
X6520960Y-10443566D01*
X6506675Y-10429281D01*
X6835246Y-10457852D02*
X6892389Y-10457852D01*
X6920960Y-10443566D01*
X6935246Y-10429281D01*
X6963818Y-10386424D01*
X6978103Y-10329281D01*
X6978103Y-10214995D01*
X6963818Y-10186424D01*
X6949532Y-10172138D01*
X6920960Y-10157852D01*
X6863818Y-10157852D01*
X6835246Y-10172138D01*
X6820960Y-10186424D01*
X6806675Y-10214995D01*
X6806675Y-10286424D01*
X6820960Y-10314995D01*
X6835246Y-10329281D01*
X6863818Y-10343566D01*
X6920960Y-10343566D01*
X6949532Y-10329281D01*
X6963818Y-10314995D01*
X6978103Y-10286424D01*
X7092389Y-10157852D02*
X7092389Y-10214995D01*
X7206675Y-10157852D02*
X7206675Y-10214995D01*
X7649532Y-10572138D02*
X7635246Y-10557852D01*
X7606675Y-10514995D01*
X7592389Y-10486424D01*
X7578103Y-10443566D01*
X7563818Y-10372138D01*
X7563818Y-10314995D01*
X7578103Y-10243566D01*
X7592389Y-10200709D01*
X7606675Y-10172138D01*
X7635246Y-10129281D01*
X7649532Y-10114995D01*
X7735246Y-10157852D02*
X7935246Y-10157852D01*
X7806675Y-10457852D01*
X8035246Y-10186424D02*
X8049532Y-10172138D01*
X8078103Y-10157852D01*
X8149532Y-10157852D01*
X8178103Y-10172138D01*
X8192389Y-10186424D01*
X8206675Y-10214995D01*
X8206675Y-10243566D01*
X8192389Y-10286424D01*
X8020960Y-10457852D01*
X8206675Y-10457852D01*
X8563818Y-10457852D02*
X8563818Y-10157852D01*
X8692389Y-10457852D02*
X8692389Y-10300709D01*
X8678103Y-10272138D01*
X8649532Y-10257852D01*
X8606675Y-10257852D01*
X8578103Y-10272138D01*
X8563818Y-10286424D01*
X8878103Y-10457852D02*
X8849532Y-10443566D01*
X8835246Y-10429281D01*
X8820961Y-10400709D01*
X8820961Y-10314995D01*
X8835246Y-10286424D01*
X8849532Y-10272138D01*
X8878103Y-10257852D01*
X8920961Y-10257852D01*
X8949532Y-10272138D01*
X8963818Y-10286424D01*
X8978103Y-10314995D01*
X8978103Y-10400709D01*
X8963818Y-10429281D01*
X8949532Y-10443566D01*
X8920961Y-10457852D01*
X8878103Y-10457852D01*
X9149532Y-10457852D02*
X9120961Y-10443566D01*
X9106675Y-10414995D01*
X9106675Y-10157852D01*
X9378103Y-10443566D02*
X9349532Y-10457852D01*
X9292389Y-10457852D01*
X9263818Y-10443566D01*
X9249532Y-10414995D01*
X9249532Y-10300709D01*
X9263818Y-10272138D01*
X9292389Y-10257852D01*
X9349532Y-10257852D01*
X9378103Y-10272138D01*
X9392389Y-10300709D01*
X9392389Y-10329281D01*
X9249532Y-10357852D01*
X9506675Y-10443566D02*
X9535246Y-10457852D01*
X9592389Y-10457852D01*
X9620961Y-10443566D01*
X9635246Y-10414995D01*
X9635246Y-10400709D01*
X9620961Y-10372138D01*
X9592389Y-10357852D01*
X9549532Y-10357852D01*
X9520961Y-10343566D01*
X9506675Y-10314995D01*
X9506675Y-10300709D01*
X9520961Y-10272138D01*
X9549532Y-10257852D01*
X9592389Y-10257852D01*
X9620961Y-10272138D01*
X9735246Y-10572138D02*
X9749532Y-10557852D01*
X9778103Y-10514995D01*
X9792389Y-10486424D01*
X9806675Y-10443566D01*
X9820961Y-10372138D01*
X9820961Y-10314995D01*
X9806675Y-10243566D01*
X9792389Y-10200709D01*
X9778103Y-10172138D01*
X9749532Y-10129281D01*
X9735246Y-10114995D01*
X2910603Y-10770638D02*
X2963103Y-10718138D01*
X2910603Y-10665638D01*
X2858103Y-10718138D01*
X2910603Y-10770638D01*
X3406675Y-10853852D02*
X3235246Y-10853852D01*
X3320960Y-10853852D02*
X3320960Y-10553852D01*
X3292389Y-10596709D01*
X3263818Y-10625281D01*
X3235246Y-10639566D01*
X3535246Y-10825281D02*
X3549532Y-10839566D01*
X3535246Y-10853852D01*
X3520960Y-10839566D01*
X3535246Y-10825281D01*
X3535246Y-10853852D01*
X3735246Y-10553852D02*
X3763818Y-10553852D01*
X3792389Y-10568138D01*
X3806675Y-10582424D01*
X3820960Y-10610995D01*
X3835246Y-10668138D01*
X3835246Y-10739566D01*
X3820960Y-10796709D01*
X3806675Y-10825281D01*
X3792389Y-10839566D01*
X3763818Y-10853852D01*
X3735246Y-10853852D01*
X3706675Y-10839566D01*
X3692389Y-10825281D01*
X3678103Y-10796709D01*
X3663818Y-10739566D01*
X3663818Y-10668138D01*
X3678103Y-10610995D01*
X3692389Y-10582424D01*
X3706675Y-10568138D01*
X3735246Y-10553852D01*
X4106675Y-10553852D02*
X3963818Y-10553852D01*
X3949532Y-10696709D01*
X3963818Y-10682424D01*
X3992389Y-10668138D01*
X4063818Y-10668138D01*
X4092389Y-10682424D01*
X4106675Y-10696709D01*
X4120960Y-10725281D01*
X4120960Y-10796709D01*
X4106675Y-10825281D01*
X4092389Y-10839566D01*
X4063818Y-10853852D01*
X3992389Y-10853852D01*
X3963818Y-10839566D01*
X3949532Y-10825281D01*
X4249532Y-10853852D02*
X4249532Y-10653852D01*
X4249532Y-10682424D02*
X4263818Y-10668138D01*
X4292389Y-10653852D01*
X4335246Y-10653852D01*
X4363818Y-10668138D01*
X4378103Y-10696709D01*
X4378103Y-10853852D01*
X4378103Y-10696709D02*
X4392389Y-10668138D01*
X4420961Y-10653852D01*
X4463818Y-10653852D01*
X4492389Y-10668138D01*
X4506675Y-10696709D01*
X4506675Y-10853852D01*
X4649532Y-10853852D02*
X4649532Y-10653852D01*
X4649532Y-10682424D02*
X4663818Y-10668138D01*
X4692389Y-10653852D01*
X4735246Y-10653852D01*
X4763818Y-10668138D01*
X4778103Y-10696709D01*
X4778103Y-10853852D01*
X4778103Y-10696709D02*
X4792389Y-10668138D01*
X4820961Y-10653852D01*
X4863818Y-10653852D01*
X4892389Y-10668138D01*
X4906675Y-10696709D01*
X4906675Y-10853852D01*
X5492389Y-10539566D02*
X5235246Y-10925281D01*
X5878103Y-10553852D02*
X5906675Y-10553852D01*
X5935246Y-10568138D01*
X5949532Y-10582424D01*
X5963818Y-10610995D01*
X5978103Y-10668138D01*
X5978103Y-10739566D01*
X5963818Y-10796709D01*
X5949532Y-10825281D01*
X5935246Y-10839566D01*
X5906675Y-10853852D01*
X5878103Y-10853852D01*
X5849532Y-10839566D01*
X5835246Y-10825281D01*
X5820960Y-10796709D01*
X5806675Y-10739566D01*
X5806675Y-10668138D01*
X5820960Y-10610995D01*
X5835246Y-10582424D01*
X5849532Y-10568138D01*
X5878103Y-10553852D01*
X6106675Y-10825281D02*
X6120960Y-10839566D01*
X6106675Y-10853852D01*
X6092389Y-10839566D01*
X6106675Y-10825281D01*
X6106675Y-10853852D01*
X6306675Y-10553852D02*
X6335246Y-10553852D01*
X6363818Y-10568138D01*
X6378103Y-10582424D01*
X6392389Y-10610995D01*
X6406675Y-10668138D01*
X6406675Y-10739566D01*
X6392389Y-10796709D01*
X6378103Y-10825281D01*
X6363818Y-10839566D01*
X6335246Y-10853852D01*
X6306675Y-10853852D01*
X6278103Y-10839566D01*
X6263818Y-10825281D01*
X6249532Y-10796709D01*
X6235246Y-10739566D01*
X6235246Y-10668138D01*
X6249532Y-10610995D01*
X6263818Y-10582424D01*
X6278103Y-10568138D01*
X6306675Y-10553852D01*
X6663818Y-10653852D02*
X6663818Y-10853852D01*
X6592389Y-10539566D02*
X6520960Y-10753852D01*
X6706675Y-10753852D01*
X6978103Y-10853852D02*
X6806675Y-10853852D01*
X6892389Y-10853852D02*
X6892389Y-10553852D01*
X6863818Y-10596709D01*
X6835246Y-10625281D01*
X6806675Y-10639566D01*
X7092389Y-10553852D02*
X7092389Y-10610995D01*
X7206675Y-10553852D02*
X7206675Y-10610995D01*
X7649532Y-10968138D02*
X7635246Y-10953852D01*
X7606675Y-10910995D01*
X7592389Y-10882424D01*
X7578103Y-10839566D01*
X7563818Y-10768138D01*
X7563818Y-10710995D01*
X7578103Y-10639566D01*
X7592389Y-10596709D01*
X7606675Y-10568138D01*
X7635246Y-10525281D01*
X7649532Y-10510995D01*
X7906675Y-10553852D02*
X7763818Y-10553852D01*
X7749532Y-10696709D01*
X7763818Y-10682424D01*
X7792389Y-10668138D01*
X7863818Y-10668138D01*
X7892389Y-10682424D01*
X7906675Y-10696709D01*
X7920960Y-10725281D01*
X7920960Y-10796709D01*
X7906675Y-10825281D01*
X7892389Y-10839566D01*
X7863818Y-10853852D01*
X7792389Y-10853852D01*
X7763818Y-10839566D01*
X7749532Y-10825281D01*
X8278103Y-10853852D02*
X8278103Y-10553852D01*
X8406675Y-10853852D02*
X8406675Y-10696709D01*
X8392389Y-10668138D01*
X8363818Y-10653852D01*
X8320960Y-10653852D01*
X8292389Y-10668138D01*
X8278103Y-10682424D01*
X8592389Y-10853852D02*
X8563818Y-10839566D01*
X8549532Y-10825281D01*
X8535246Y-10796709D01*
X8535246Y-10710995D01*
X8549532Y-10682424D01*
X8563818Y-10668138D01*
X8592389Y-10653852D01*
X8635246Y-10653852D01*
X8663818Y-10668138D01*
X8678103Y-10682424D01*
X8692389Y-10710995D01*
X8692389Y-10796709D01*
X8678103Y-10825281D01*
X8663818Y-10839566D01*
X8635246Y-10853852D01*
X8592389Y-10853852D01*
X8863818Y-10853852D02*
X8835246Y-10839566D01*
X8820961Y-10810995D01*
X8820961Y-10553852D01*
X9092389Y-10839566D02*
X9063818Y-10853852D01*
X9006675Y-10853852D01*
X8978103Y-10839566D01*
X8963818Y-10810995D01*
X8963818Y-10696709D01*
X8978103Y-10668138D01*
X9006675Y-10653852D01*
X9063818Y-10653852D01*
X9092389Y-10668138D01*
X9106675Y-10696709D01*
X9106675Y-10725281D01*
X8963818Y-10753852D01*
X9220961Y-10839566D02*
X9249532Y-10853852D01*
X9306675Y-10853852D01*
X9335246Y-10839566D01*
X9349532Y-10810995D01*
X9349532Y-10796709D01*
X9335246Y-10768138D01*
X9306675Y-10753852D01*
X9263818Y-10753852D01*
X9235246Y-10739566D01*
X9220961Y-10710995D01*
X9220961Y-10696709D01*
X9235246Y-10668138D01*
X9263818Y-10653852D01*
X9306675Y-10653852D01*
X9335246Y-10668138D01*
X9449532Y-10968138D02*
X9463818Y-10953852D01*
X9492389Y-10910995D01*
X9506675Y-10882424D01*
X9520961Y-10839566D01*
X9535246Y-10768138D01*
X9535246Y-10710995D01*
X9520961Y-10639566D01*
X9506675Y-10596709D01*
X9492389Y-10568138D01*
X9463818Y-10525281D01*
X9449532Y-10510995D01*
X2853103Y-11059138D02*
X2963103Y-11169138D01*
X2963103Y-11059138D02*
X2853103Y-11169138D01*
X2963103Y-11114138D02*
G75*
G03X2963103Y-11114138I-55000J0D01*
G01*
X3406675Y-11249852D02*
X3235246Y-11249852D01*
X3320960Y-11249852D02*
X3320960Y-10949852D01*
X3292389Y-10992709D01*
X3263818Y-11021281D01*
X3235246Y-11035566D01*
X3535246Y-11221281D02*
X3549532Y-11235566D01*
X3535246Y-11249852D01*
X3520960Y-11235566D01*
X3535246Y-11221281D01*
X3535246Y-11249852D01*
X3835246Y-11249852D02*
X3663818Y-11249852D01*
X3749532Y-11249852D02*
X3749532Y-10949852D01*
X3720960Y-10992709D01*
X3692389Y-11021281D01*
X3663818Y-11035566D01*
X4020960Y-10949852D02*
X4049532Y-10949852D01*
X4078103Y-10964138D01*
X4092389Y-10978424D01*
X4106675Y-11006995D01*
X4120960Y-11064138D01*
X4120960Y-11135566D01*
X4106675Y-11192709D01*
X4092389Y-11221281D01*
X4078103Y-11235566D01*
X4049532Y-11249852D01*
X4020960Y-11249852D01*
X3992389Y-11235566D01*
X3978103Y-11221281D01*
X3963818Y-11192709D01*
X3949532Y-11135566D01*
X3949532Y-11064138D01*
X3963818Y-11006995D01*
X3978103Y-10978424D01*
X3992389Y-10964138D01*
X4020960Y-10949852D01*
X4249532Y-11249852D02*
X4249532Y-11049852D01*
X4249532Y-11078424D02*
X4263818Y-11064138D01*
X4292389Y-11049852D01*
X4335246Y-11049852D01*
X4363818Y-11064138D01*
X4378103Y-11092709D01*
X4378103Y-11249852D01*
X4378103Y-11092709D02*
X4392389Y-11064138D01*
X4420961Y-11049852D01*
X4463818Y-11049852D01*
X4492389Y-11064138D01*
X4506675Y-11092709D01*
X4506675Y-11249852D01*
X4649532Y-11249852D02*
X4649532Y-11049852D01*
X4649532Y-11078424D02*
X4663818Y-11064138D01*
X4692389Y-11049852D01*
X4735246Y-11049852D01*
X4763818Y-11064138D01*
X4778103Y-11092709D01*
X4778103Y-11249852D01*
X4778103Y-11092709D02*
X4792389Y-11064138D01*
X4820961Y-11049852D01*
X4863818Y-11049852D01*
X4892389Y-11064138D01*
X4906675Y-11092709D01*
X4906675Y-11249852D01*
X5492389Y-10935566D02*
X5235246Y-11321281D01*
X5878103Y-10949852D02*
X5906675Y-10949852D01*
X5935246Y-10964138D01*
X5949532Y-10978424D01*
X5963818Y-11006995D01*
X5978103Y-11064138D01*
X5978103Y-11135566D01*
X5963818Y-11192709D01*
X5949532Y-11221281D01*
X5935246Y-11235566D01*
X5906675Y-11249852D01*
X5878103Y-11249852D01*
X5849532Y-11235566D01*
X5835246Y-11221281D01*
X5820960Y-11192709D01*
X5806675Y-11135566D01*
X5806675Y-11064138D01*
X5820960Y-11006995D01*
X5835246Y-10978424D01*
X5849532Y-10964138D01*
X5878103Y-10949852D01*
X6106675Y-11221281D02*
X6120960Y-11235566D01*
X6106675Y-11249852D01*
X6092389Y-11235566D01*
X6106675Y-11221281D01*
X6106675Y-11249852D01*
X6306675Y-10949852D02*
X6335246Y-10949852D01*
X6363818Y-10964138D01*
X6378103Y-10978424D01*
X6392389Y-11006995D01*
X6406675Y-11064138D01*
X6406675Y-11135566D01*
X6392389Y-11192709D01*
X6378103Y-11221281D01*
X6363818Y-11235566D01*
X6335246Y-11249852D01*
X6306675Y-11249852D01*
X6278103Y-11235566D01*
X6263818Y-11221281D01*
X6249532Y-11192709D01*
X6235246Y-11135566D01*
X6235246Y-11064138D01*
X6249532Y-11006995D01*
X6263818Y-10978424D01*
X6278103Y-10964138D01*
X6306675Y-10949852D01*
X6663818Y-11049852D02*
X6663818Y-11249852D01*
X6592389Y-10935566D02*
X6520960Y-11149852D01*
X6706675Y-11149852D01*
X6792389Y-10949852D02*
X6978103Y-10949852D01*
X6878103Y-11064138D01*
X6920960Y-11064138D01*
X6949532Y-11078424D01*
X6963818Y-11092709D01*
X6978103Y-11121281D01*
X6978103Y-11192709D01*
X6963818Y-11221281D01*
X6949532Y-11235566D01*
X6920960Y-11249852D01*
X6835246Y-11249852D01*
X6806675Y-11235566D01*
X6792389Y-11221281D01*
X7092389Y-10949852D02*
X7092389Y-11006995D01*
X7206675Y-10949852D02*
X7206675Y-11006995D01*
X7649532Y-11364138D02*
X7635246Y-11349852D01*
X7606675Y-11306995D01*
X7592389Y-11278423D01*
X7578103Y-11235566D01*
X7563818Y-11164138D01*
X7563818Y-11106995D01*
X7578103Y-11035566D01*
X7592389Y-10992709D01*
X7606675Y-10964138D01*
X7635246Y-10921281D01*
X7649532Y-10906995D01*
X7920960Y-11249852D02*
X7749532Y-11249852D01*
X7835246Y-11249852D02*
X7835246Y-10949852D01*
X7806675Y-10992709D01*
X7778103Y-11021281D01*
X7749532Y-11035566D01*
X8278103Y-11249852D02*
X8278103Y-10949852D01*
X8406675Y-11249852D02*
X8406675Y-11092709D01*
X8392389Y-11064138D01*
X8363818Y-11049852D01*
X8320960Y-11049852D01*
X8292389Y-11064138D01*
X8278103Y-11078424D01*
X8592389Y-11249852D02*
X8563818Y-11235566D01*
X8549532Y-11221281D01*
X8535246Y-11192709D01*
X8535246Y-11106995D01*
X8549532Y-11078424D01*
X8563818Y-11064138D01*
X8592389Y-11049852D01*
X8635246Y-11049852D01*
X8663818Y-11064138D01*
X8678103Y-11078424D01*
X8692389Y-11106995D01*
X8692389Y-11192709D01*
X8678103Y-11221281D01*
X8663818Y-11235566D01*
X8635246Y-11249852D01*
X8592389Y-11249852D01*
X8863818Y-11249852D02*
X8835246Y-11235566D01*
X8820961Y-11206995D01*
X8820961Y-10949852D01*
X9092389Y-11235566D02*
X9063818Y-11249852D01*
X9006675Y-11249852D01*
X8978103Y-11235566D01*
X8963818Y-11206995D01*
X8963818Y-11092709D01*
X8978103Y-11064138D01*
X9006675Y-11049852D01*
X9063818Y-11049852D01*
X9092389Y-11064138D01*
X9106675Y-11092709D01*
X9106675Y-11121281D01*
X8963818Y-11149852D01*
X9206675Y-11364138D02*
X9220961Y-11349852D01*
X9249532Y-11306995D01*
X9263818Y-11278423D01*
X9278103Y-11235566D01*
X9292389Y-11164138D01*
X9292389Y-11106995D01*
X9278103Y-11035566D01*
X9263818Y-10992709D01*
X9249532Y-10964138D01*
X9220961Y-10921281D01*
X9206675Y-10906995D01*
X2816103Y-11436638D02*
X2963103Y-11583638D01*
X2963103Y-11436638D02*
X2816103Y-11583638D01*
X2889603Y-11436638D02*
X2889603Y-11583638D01*
X2816103Y-11510138D02*
X2963103Y-11510138D01*
X3406675Y-11645852D02*
X3235246Y-11645852D01*
X3320960Y-11645852D02*
X3320960Y-11345852D01*
X3292389Y-11388709D01*
X3263818Y-11417281D01*
X3235246Y-11431566D01*
X3535246Y-11617281D02*
X3549532Y-11631566D01*
X3535246Y-11645852D01*
X3520960Y-11631566D01*
X3535246Y-11617281D01*
X3535246Y-11645852D01*
X3806675Y-11445852D02*
X3806675Y-11645852D01*
X3735246Y-11331566D02*
X3663818Y-11545852D01*
X3849532Y-11545852D01*
X3935246Y-11345852D02*
X4135246Y-11345852D01*
X4006675Y-11645852D01*
X4249532Y-11645852D02*
X4249532Y-11445852D01*
X4249532Y-11474423D02*
X4263818Y-11460138D01*
X4292389Y-11445852D01*
X4335246Y-11445852D01*
X4363818Y-11460138D01*
X4378103Y-11488709D01*
X4378103Y-11645852D01*
X4378103Y-11488709D02*
X4392389Y-11460138D01*
X4420961Y-11445852D01*
X4463818Y-11445852D01*
X4492389Y-11460138D01*
X4506675Y-11488709D01*
X4506675Y-11645852D01*
X4649532Y-11645852D02*
X4649532Y-11445852D01*
X4649532Y-11474423D02*
X4663818Y-11460138D01*
X4692389Y-11445852D01*
X4735246Y-11445852D01*
X4763818Y-11460138D01*
X4778103Y-11488709D01*
X4778103Y-11645852D01*
X4778103Y-11488709D02*
X4792389Y-11460138D01*
X4820961Y-11445852D01*
X4863818Y-11445852D01*
X4892389Y-11460138D01*
X4906675Y-11488709D01*
X4906675Y-11645852D01*
X5492389Y-11331566D02*
X5235246Y-11717281D01*
X5878103Y-11345852D02*
X5906675Y-11345852D01*
X5935246Y-11360138D01*
X5949532Y-11374423D01*
X5963818Y-11402995D01*
X5978103Y-11460138D01*
X5978103Y-11531566D01*
X5963818Y-11588709D01*
X5949532Y-11617281D01*
X5935246Y-11631566D01*
X5906675Y-11645852D01*
X5878103Y-11645852D01*
X5849532Y-11631566D01*
X5835246Y-11617281D01*
X5820960Y-11588709D01*
X5806675Y-11531566D01*
X5806675Y-11460138D01*
X5820960Y-11402995D01*
X5835246Y-11374423D01*
X5849532Y-11360138D01*
X5878103Y-11345852D01*
X6106675Y-11617281D02*
X6120960Y-11631566D01*
X6106675Y-11645852D01*
X6092389Y-11631566D01*
X6106675Y-11617281D01*
X6106675Y-11645852D01*
X6306675Y-11345852D02*
X6335246Y-11345852D01*
X6363818Y-11360138D01*
X6378103Y-11374423D01*
X6392389Y-11402995D01*
X6406675Y-11460138D01*
X6406675Y-11531566D01*
X6392389Y-11588709D01*
X6378103Y-11617281D01*
X6363818Y-11631566D01*
X6335246Y-11645852D01*
X6306675Y-11645852D01*
X6278103Y-11631566D01*
X6263818Y-11617281D01*
X6249532Y-11588709D01*
X6235246Y-11531566D01*
X6235246Y-11460138D01*
X6249532Y-11402995D01*
X6263818Y-11374423D01*
X6278103Y-11360138D01*
X6306675Y-11345852D01*
X6678103Y-11345852D02*
X6535246Y-11345852D01*
X6520960Y-11488709D01*
X6535246Y-11474423D01*
X6563818Y-11460138D01*
X6635246Y-11460138D01*
X6663818Y-11474423D01*
X6678103Y-11488709D01*
X6692389Y-11517281D01*
X6692389Y-11588709D01*
X6678103Y-11617281D01*
X6663818Y-11631566D01*
X6635246Y-11645852D01*
X6563818Y-11645852D01*
X6535246Y-11631566D01*
X6520960Y-11617281D01*
X6863818Y-11474423D02*
X6835246Y-11460138D01*
X6820960Y-11445852D01*
X6806675Y-11417281D01*
X6806675Y-11402995D01*
X6820960Y-11374423D01*
X6835246Y-11360138D01*
X6863818Y-11345852D01*
X6920960Y-11345852D01*
X6949532Y-11360138D01*
X6963818Y-11374423D01*
X6978103Y-11402995D01*
X6978103Y-11417281D01*
X6963818Y-11445852D01*
X6949532Y-11460138D01*
X6920960Y-11474423D01*
X6863818Y-11474423D01*
X6835246Y-11488709D01*
X6820960Y-11502995D01*
X6806675Y-11531566D01*
X6806675Y-11588709D01*
X6820960Y-11617281D01*
X6835246Y-11631566D01*
X6863818Y-11645852D01*
X6920960Y-11645852D01*
X6949532Y-11631566D01*
X6963818Y-11617281D01*
X6978103Y-11588709D01*
X6978103Y-11531566D01*
X6963818Y-11502995D01*
X6949532Y-11488709D01*
X6920960Y-11474423D01*
X7092389Y-11345852D02*
X7092389Y-11402995D01*
X7206675Y-11345852D02*
X7206675Y-11402995D01*
X7649532Y-11760138D02*
X7635246Y-11745852D01*
X7606675Y-11702995D01*
X7592389Y-11674423D01*
X7578103Y-11631566D01*
X7563818Y-11560138D01*
X7563818Y-11502995D01*
X7578103Y-11431566D01*
X7592389Y-11388709D01*
X7606675Y-11360138D01*
X7635246Y-11317281D01*
X7649532Y-11302995D01*
X7806675Y-11474423D02*
X7778103Y-11460138D01*
X7763818Y-11445852D01*
X7749532Y-11417281D01*
X7749532Y-11402995D01*
X7763818Y-11374423D01*
X7778103Y-11360138D01*
X7806675Y-11345852D01*
X7863818Y-11345852D01*
X7892389Y-11360138D01*
X7906675Y-11374423D01*
X7920960Y-11402995D01*
X7920960Y-11417281D01*
X7906675Y-11445852D01*
X7892389Y-11460138D01*
X7863818Y-11474423D01*
X7806675Y-11474423D01*
X7778103Y-11488709D01*
X7763818Y-11502995D01*
X7749532Y-11531566D01*
X7749532Y-11588709D01*
X7763818Y-11617281D01*
X7778103Y-11631566D01*
X7806675Y-11645852D01*
X7863818Y-11645852D01*
X7892389Y-11631566D01*
X7906675Y-11617281D01*
X7920960Y-11588709D01*
X7920960Y-11531566D01*
X7906675Y-11502995D01*
X7892389Y-11488709D01*
X7863818Y-11474423D01*
X8106675Y-11345852D02*
X8135246Y-11345852D01*
X8163818Y-11360138D01*
X8178103Y-11374423D01*
X8192389Y-11402995D01*
X8206675Y-11460138D01*
X8206675Y-11531566D01*
X8192389Y-11588709D01*
X8178103Y-11617281D01*
X8163818Y-11631566D01*
X8135246Y-11645852D01*
X8106675Y-11645852D01*
X8078103Y-11631566D01*
X8063818Y-11617281D01*
X8049532Y-11588709D01*
X8035246Y-11531566D01*
X8035246Y-11460138D01*
X8049532Y-11402995D01*
X8063818Y-11374423D01*
X8078103Y-11360138D01*
X8106675Y-11345852D01*
X8563818Y-11645852D02*
X8563818Y-11345852D01*
X8692389Y-11645852D02*
X8692389Y-11488709D01*
X8678103Y-11460138D01*
X8649532Y-11445852D01*
X8606675Y-11445852D01*
X8578103Y-11460138D01*
X8563818Y-11474423D01*
X8878103Y-11645852D02*
X8849532Y-11631566D01*
X8835246Y-11617281D01*
X8820961Y-11588709D01*
X8820961Y-11502995D01*
X8835246Y-11474423D01*
X8849532Y-11460138D01*
X8878103Y-11445852D01*
X8920961Y-11445852D01*
X8949532Y-11460138D01*
X8963818Y-11474423D01*
X8978103Y-11502995D01*
X8978103Y-11588709D01*
X8963818Y-11617281D01*
X8949532Y-11631566D01*
X8920961Y-11645852D01*
X8878103Y-11645852D01*
X9149532Y-11645852D02*
X9120961Y-11631566D01*
X9106675Y-11602995D01*
X9106675Y-11345852D01*
X9378103Y-11631566D02*
X9349532Y-11645852D01*
X9292389Y-11645852D01*
X9263818Y-11631566D01*
X9249532Y-11602995D01*
X9249532Y-11488709D01*
X9263818Y-11460138D01*
X9292389Y-11445852D01*
X9349532Y-11445852D01*
X9378103Y-11460138D01*
X9392389Y-11488709D01*
X9392389Y-11517281D01*
X9249532Y-11545852D01*
X9506675Y-11631566D02*
X9535246Y-11645852D01*
X9592389Y-11645852D01*
X9620961Y-11631566D01*
X9635246Y-11602995D01*
X9635246Y-11588709D01*
X9620961Y-11560138D01*
X9592389Y-11545852D01*
X9549532Y-11545852D01*
X9520961Y-11531566D01*
X9506675Y-11502995D01*
X9506675Y-11488709D01*
X9520961Y-11460138D01*
X9549532Y-11445852D01*
X9592389Y-11445852D01*
X9620961Y-11460138D01*
X9735246Y-11760138D02*
X9749532Y-11745852D01*
X9778103Y-11702995D01*
X9792389Y-11674423D01*
X9806675Y-11631566D01*
X9820961Y-11560138D01*
X9820961Y-11502995D01*
X9806675Y-11431566D01*
X9792389Y-11388709D01*
X9778103Y-11360138D01*
X9749532Y-11317281D01*
X9735246Y-11302995D01*
X2813103Y-11831138D02*
X2963103Y-11981138D01*
X2963103Y-11831138D02*
X2813103Y-11981138D01*
X2941137Y-11959171D02*
X2941137Y-11853104D01*
X2835070Y-11853104D01*
X2835070Y-11959171D01*
X2941137Y-11959171D01*
X3406675Y-12041852D02*
X3235246Y-12041852D01*
X3320960Y-12041852D02*
X3320960Y-11741852D01*
X3292389Y-11784709D01*
X3263818Y-11813281D01*
X3235246Y-11827566D01*
X3535246Y-12013281D02*
X3549532Y-12027566D01*
X3535246Y-12041852D01*
X3520960Y-12027566D01*
X3535246Y-12013281D01*
X3535246Y-12041852D01*
X3820960Y-11741852D02*
X3678103Y-11741852D01*
X3663818Y-11884709D01*
X3678103Y-11870423D01*
X3706675Y-11856138D01*
X3778103Y-11856138D01*
X3806675Y-11870423D01*
X3820960Y-11884709D01*
X3835246Y-11913281D01*
X3835246Y-11984709D01*
X3820960Y-12013281D01*
X3806675Y-12027566D01*
X3778103Y-12041852D01*
X3706675Y-12041852D01*
X3678103Y-12027566D01*
X3663818Y-12013281D01*
X4020960Y-11741852D02*
X4049532Y-11741852D01*
X4078103Y-11756138D01*
X4092389Y-11770423D01*
X4106675Y-11798995D01*
X4120960Y-11856138D01*
X4120960Y-11927566D01*
X4106675Y-11984709D01*
X4092389Y-12013281D01*
X4078103Y-12027566D01*
X4049532Y-12041852D01*
X4020960Y-12041852D01*
X3992389Y-12027566D01*
X3978103Y-12013281D01*
X3963818Y-11984709D01*
X3949532Y-11927566D01*
X3949532Y-11856138D01*
X3963818Y-11798995D01*
X3978103Y-11770423D01*
X3992389Y-11756138D01*
X4020960Y-11741852D01*
X4249532Y-12041852D02*
X4249532Y-11841852D01*
X4249532Y-11870423D02*
X4263818Y-11856138D01*
X4292389Y-11841852D01*
X4335246Y-11841852D01*
X4363818Y-11856138D01*
X4378103Y-11884709D01*
X4378103Y-12041852D01*
X4378103Y-11884709D02*
X4392389Y-11856138D01*
X4420961Y-11841852D01*
X4463818Y-11841852D01*
X4492389Y-11856138D01*
X4506675Y-11884709D01*
X4506675Y-12041852D01*
X4649532Y-12041852D02*
X4649532Y-11841852D01*
X4649532Y-11870423D02*
X4663818Y-11856138D01*
X4692389Y-11841852D01*
X4735246Y-11841852D01*
X4763818Y-11856138D01*
X4778103Y-11884709D01*
X4778103Y-12041852D01*
X4778103Y-11884709D02*
X4792389Y-11856138D01*
X4820961Y-11841852D01*
X4863818Y-11841852D01*
X4892389Y-11856138D01*
X4906675Y-11884709D01*
X4906675Y-12041852D01*
X5492389Y-11727566D02*
X5235246Y-12113281D01*
X5878103Y-11741852D02*
X5906675Y-11741852D01*
X5935246Y-11756138D01*
X5949532Y-11770423D01*
X5963818Y-11798995D01*
X5978103Y-11856138D01*
X5978103Y-11927566D01*
X5963818Y-11984709D01*
X5949532Y-12013281D01*
X5935246Y-12027566D01*
X5906675Y-12041852D01*
X5878103Y-12041852D01*
X5849532Y-12027566D01*
X5835246Y-12013281D01*
X5820960Y-11984709D01*
X5806675Y-11927566D01*
X5806675Y-11856138D01*
X5820960Y-11798995D01*
X5835246Y-11770423D01*
X5849532Y-11756138D01*
X5878103Y-11741852D01*
X6106675Y-12013281D02*
X6120960Y-12027566D01*
X6106675Y-12041852D01*
X6092389Y-12027566D01*
X6106675Y-12013281D01*
X6106675Y-12041852D01*
X6306675Y-11741852D02*
X6335246Y-11741852D01*
X6363818Y-11756138D01*
X6378103Y-11770423D01*
X6392389Y-11798995D01*
X6406675Y-11856138D01*
X6406675Y-11927566D01*
X6392389Y-11984709D01*
X6378103Y-12013281D01*
X6363818Y-12027566D01*
X6335246Y-12041852D01*
X6306675Y-12041852D01*
X6278103Y-12027566D01*
X6263818Y-12013281D01*
X6249532Y-11984709D01*
X6235246Y-11927566D01*
X6235246Y-11856138D01*
X6249532Y-11798995D01*
X6263818Y-11770423D01*
X6278103Y-11756138D01*
X6306675Y-11741852D01*
X6678103Y-11741852D02*
X6535246Y-11741852D01*
X6520960Y-11884709D01*
X6535246Y-11870423D01*
X6563818Y-11856138D01*
X6635246Y-11856138D01*
X6663818Y-11870423D01*
X6678103Y-11884709D01*
X6692389Y-11913281D01*
X6692389Y-11984709D01*
X6678103Y-12013281D01*
X6663818Y-12027566D01*
X6635246Y-12041852D01*
X6563818Y-12041852D01*
X6535246Y-12027566D01*
X6520960Y-12013281D01*
X6835246Y-12041852D02*
X6892389Y-12041852D01*
X6920960Y-12027566D01*
X6935246Y-12013281D01*
X6963818Y-11970423D01*
X6978103Y-11913281D01*
X6978103Y-11798995D01*
X6963818Y-11770423D01*
X6949532Y-11756138D01*
X6920960Y-11741852D01*
X6863818Y-11741852D01*
X6835246Y-11756138D01*
X6820960Y-11770423D01*
X6806675Y-11798995D01*
X6806675Y-11870423D01*
X6820960Y-11898995D01*
X6835246Y-11913281D01*
X6863818Y-11927566D01*
X6920960Y-11927566D01*
X6949532Y-11913281D01*
X6963818Y-11898995D01*
X6978103Y-11870423D01*
X7092389Y-11741852D02*
X7092389Y-11798995D01*
X7206675Y-11741852D02*
X7206675Y-11798995D01*
X7649532Y-12156138D02*
X7635246Y-12141852D01*
X7606675Y-12098995D01*
X7592389Y-12070423D01*
X7578103Y-12027566D01*
X7563818Y-11956138D01*
X7563818Y-11898995D01*
X7578103Y-11827566D01*
X7592389Y-11784709D01*
X7606675Y-11756138D01*
X7635246Y-11713281D01*
X7649532Y-11698995D01*
X7749532Y-11770423D02*
X7763818Y-11756138D01*
X7792389Y-11741852D01*
X7863818Y-11741852D01*
X7892389Y-11756138D01*
X7906675Y-11770423D01*
X7920960Y-11798995D01*
X7920960Y-11827566D01*
X7906675Y-11870423D01*
X7735246Y-12041852D01*
X7920960Y-12041852D01*
X8020960Y-11741852D02*
X8206675Y-11741852D01*
X8106675Y-11856138D01*
X8149532Y-11856138D01*
X8178103Y-11870423D01*
X8192389Y-11884709D01*
X8206675Y-11913281D01*
X8206675Y-11984709D01*
X8192389Y-12013281D01*
X8178103Y-12027566D01*
X8149532Y-12041852D01*
X8063818Y-12041852D01*
X8035246Y-12027566D01*
X8020960Y-12013281D01*
X8563818Y-12041852D02*
X8563818Y-11741852D01*
X8692389Y-12041852D02*
X8692389Y-11884709D01*
X8678103Y-11856138D01*
X8649532Y-11841852D01*
X8606675Y-11841852D01*
X8578103Y-11856138D01*
X8563818Y-11870423D01*
X8878103Y-12041852D02*
X8849532Y-12027566D01*
X8835246Y-12013281D01*
X8820961Y-11984709D01*
X8820961Y-11898995D01*
X8835246Y-11870423D01*
X8849532Y-11856138D01*
X8878103Y-11841852D01*
X8920961Y-11841852D01*
X8949532Y-11856138D01*
X8963818Y-11870423D01*
X8978103Y-11898995D01*
X8978103Y-11984709D01*
X8963818Y-12013281D01*
X8949532Y-12027566D01*
X8920961Y-12041852D01*
X8878103Y-12041852D01*
X9149532Y-12041852D02*
X9120961Y-12027566D01*
X9106675Y-11998995D01*
X9106675Y-11741852D01*
X9378103Y-12027566D02*
X9349532Y-12041852D01*
X9292389Y-12041852D01*
X9263818Y-12027566D01*
X9249532Y-11998995D01*
X9249532Y-11884709D01*
X9263818Y-11856138D01*
X9292389Y-11841852D01*
X9349532Y-11841852D01*
X9378103Y-11856138D01*
X9392389Y-11884709D01*
X9392389Y-11913281D01*
X9249532Y-11941852D01*
X9506675Y-12027566D02*
X9535246Y-12041852D01*
X9592389Y-12041852D01*
X9620961Y-12027566D01*
X9635246Y-11998995D01*
X9635246Y-11984709D01*
X9620961Y-11956138D01*
X9592389Y-11941852D01*
X9549532Y-11941852D01*
X9520961Y-11927566D01*
X9506675Y-11898995D01*
X9506675Y-11884709D01*
X9520961Y-11856138D01*
X9549532Y-11841852D01*
X9592389Y-11841852D01*
X9620961Y-11856138D01*
X9735246Y-12156138D02*
X9749532Y-12141852D01*
X9778103Y-12098995D01*
X9792389Y-12070423D01*
X9806675Y-12027566D01*
X9820961Y-11956138D01*
X9820961Y-11898995D01*
X9806675Y-11827566D01*
X9792389Y-11784709D01*
X9778103Y-11756138D01*
X9749532Y-11713281D01*
X9735246Y-11698995D01*
M02*
