G04 #@! TF.GenerationSoftware,KiCad,Pcbnew,(5.1.4)-1*
G04 #@! TF.CreationDate,2024-10-11T12:26:31-04:00*
G04 #@! TF.ProjectId,ThumbsUp,5468756d-6273-4557-902e-6b696361645f,rev?*
G04 #@! TF.SameCoordinates,Original*
G04 #@! TF.FileFunction,Copper,L1,Top*
G04 #@! TF.FilePolarity,Positive*
%FSLAX46Y46*%
G04 Gerber Fmt 4.6, Leading zero omitted, Abs format (unit mm)*
G04 Created by KiCad (PCBNEW (5.1.4)-1) date 2024-10-11 12:26:31*
%MOMM*%
%LPD*%
G04 APERTURE LIST*
%ADD10R,2.000000X2.000000*%
%ADD11C,2.000000*%
%ADD12C,1.575000*%
%ADD13C,1.700000*%
%ADD14C,1.700000*%
%ADD15C,0.100000*%
%ADD16C,2.250000*%
%ADD17C,2.250000*%
%ADD18R,1.700000X1.700000*%
%ADD19O,1.700000X1.700000*%
%ADD20C,1.500000*%
%ADD21C,1.200000*%
%ADD22C,1.300000*%
%ADD23C,0.800000*%
%ADD24C,0.508000*%
%ADD25C,0.254000*%
G04 APERTURE END LIST*
D10*
X134880000Y2970000D03*
D11*
X134880000Y430000D03*
X134880000Y-2110000D03*
X134880000Y-4650000D03*
X134880000Y-7190000D03*
X134880000Y-9730000D03*
X134880000Y-12270000D03*
X134880000Y-14810000D03*
X134880000Y-17350000D03*
X134880000Y-19890000D03*
X134880000Y-22430000D03*
X134880000Y-24970000D03*
X150120000Y-24970000D03*
X150120000Y-22430000D03*
X150120000Y-19890000D03*
X150120000Y-17350000D03*
X150120000Y-14810000D03*
X150120000Y-12270000D03*
X150120000Y-9730000D03*
X150120000Y-7190000D03*
X150120000Y-4650000D03*
X150120000Y-2110000D03*
X150120000Y430000D03*
X150120000Y2970000D03*
D12*
X175900000Y-72800000D03*
X175900000Y-77300000D03*
X169400000Y-72800000D03*
X169400000Y-77300000D03*
X172650000Y-79550000D03*
D13*
X213460025Y-56037912D03*
D14*
X213460025Y-56037912D02*
X213460025Y-56037912D01*
D13*
X215488560Y-54509302D03*
D14*
X215488560Y-54509302D02*
X215488560Y-54509302D01*
D13*
X217517094Y-52980692D03*
D14*
X217517094Y-52980692D02*
X217517094Y-52980692D01*
D13*
X219545628Y-51452082D03*
D15*
G36*
X218355245Y-51284785D02*
G01*
X219712925Y-50261699D01*
X220736011Y-51619379D01*
X219378331Y-52642465D01*
X218355245Y-51284785D01*
X218355245Y-51284785D01*
G37*
D13*
X85936497Y-66811130D03*
D14*
X85936497Y-66811130D02*
X85936497Y-66811130D01*
D13*
X83907962Y-65282520D03*
D14*
X83907962Y-65282520D02*
X83907962Y-65282520D01*
D13*
X81879428Y-63753910D03*
D14*
X81879428Y-63753910D02*
X81879428Y-63753910D01*
D13*
X79850894Y-62225300D03*
D15*
G36*
X79683597Y-61034917D02*
G01*
X81041277Y-62058003D01*
X80018191Y-63415683D01*
X78660511Y-62392597D01*
X79683597Y-61034917D01*
X79683597Y-61034917D01*
G37*
D13*
X71590133Y-56039707D03*
D15*
G36*
X71422836Y-54849324D02*
G01*
X72780516Y-55872410D01*
X71757430Y-57230090D01*
X70399750Y-56207004D01*
X71422836Y-54849324D01*
X71422836Y-54849324D01*
G37*
D13*
X69561599Y-54511097D03*
D14*
X69561599Y-54511097D02*
X69561599Y-54511097D01*
D13*
X67533065Y-52982487D03*
D14*
X67533065Y-52982487D02*
X67533065Y-52982487D01*
D13*
X65504530Y-51453877D03*
D14*
X65504530Y-51453877D02*
X65504530Y-51453877D01*
D13*
X95944722Y-64961851D03*
D15*
G36*
X94754339Y-65129148D02*
G01*
X95777425Y-63771468D01*
X97135105Y-64794554D01*
X96112019Y-66152234D01*
X94754339Y-65129148D01*
X94754339Y-65129148D01*
G37*
D13*
X94416112Y-66990385D03*
D14*
X94416112Y-66990385D02*
X94416112Y-66990385D01*
D13*
X92887502Y-69018919D03*
D14*
X92887502Y-69018919D02*
X92887502Y-69018919D01*
D13*
X91358892Y-71047454D03*
D14*
X91358892Y-71047454D02*
X91358892Y-71047454D01*
D13*
X205191279Y-62229523D03*
D14*
X205191279Y-62229523D02*
X205191279Y-62229523D01*
D13*
X203162744Y-63758133D03*
D14*
X203162744Y-63758133D02*
X203162744Y-63758133D01*
D13*
X201134210Y-65286743D03*
D14*
X201134210Y-65286743D02*
X201134210Y-65286743D01*
D13*
X199105676Y-66815353D03*
D15*
G36*
X197915293Y-66648056D02*
G01*
X199272973Y-65624970D01*
X200296059Y-66982650D01*
X198938379Y-68005736D01*
X197915293Y-66648056D01*
X197915293Y-66648056D01*
G37*
D13*
X193667308Y-71063713D03*
D14*
X193667308Y-71063713D02*
X193667308Y-71063713D01*
D13*
X192138698Y-69035178D03*
D14*
X192138698Y-69035178D02*
X192138698Y-69035178D01*
D13*
X190610088Y-67006644D03*
D14*
X190610088Y-67006644D02*
X190610088Y-67006644D01*
D13*
X189081478Y-64978110D03*
D15*
G36*
X188914181Y-66168493D02*
G01*
X187891095Y-64810813D01*
X189248775Y-63787727D01*
X190271861Y-65145407D01*
X188914181Y-66168493D01*
X188914181Y-66168493D01*
G37*
D16*
X247167948Y-30422621D03*
X247501790Y-29500410D03*
D17*
X247835633Y-28578198D02*
X247167947Y-30422622D01*
D16*
X242899517Y-33311997D03*
X242809424Y-33035622D03*
D17*
X242719332Y-32759246D02*
X242899516Y-33311998D01*
D13*
X104289498Y36157443D03*
D14*
X104289498Y36157443D02*
X104289498Y36157443D01*
D13*
X106644545Y35205942D03*
D14*
X106644545Y35205942D02*
X106644545Y35205942D01*
D13*
X108999592Y34254442D03*
D14*
X108999592Y34254442D02*
X108999592Y34254442D01*
D13*
X111354639Y33302941D03*
D15*
G36*
X111824330Y32196419D02*
G01*
X110248117Y32833250D01*
X110884948Y34409463D01*
X112461161Y33772632D01*
X111824330Y32196419D01*
X111824330Y32196419D01*
G37*
D13*
X34433864Y-24192442D03*
D15*
G36*
X35540386Y-23722751D02*
G01*
X34903555Y-25298964D01*
X33327342Y-24662133D01*
X33964173Y-23085920D01*
X35540386Y-23722751D01*
X35540386Y-23722751D01*
G37*
D13*
X33482363Y-26547489D03*
D14*
X33482363Y-26547489D02*
X33482363Y-26547489D01*
D13*
X32530863Y-28902536D03*
D14*
X32530863Y-28902536D02*
X32530863Y-28902536D01*
D13*
X31579362Y-31257583D03*
D14*
X31579362Y-31257583D02*
X31579362Y-31257583D01*
D13*
X101237114Y15686447D03*
D15*
G36*
X101706805Y14579925D02*
G01*
X100130592Y15216756D01*
X100767423Y16792969D01*
X102343636Y16156138D01*
X101706805Y14579925D01*
X101706805Y14579925D01*
G37*
D13*
X98882067Y16637948D03*
D14*
X98882067Y16637948D02*
X98882067Y16637948D01*
D13*
X96527020Y17589448D03*
D14*
X96527020Y17589448D02*
X96527020Y17589448D01*
D13*
X94171973Y18540949D03*
D14*
X94171973Y18540949D02*
X94171973Y18540949D01*
D13*
X87002063Y-19546539D03*
D15*
G36*
X87471754Y-20653061D02*
G01*
X85895541Y-20016230D01*
X86532372Y-18440017D01*
X88108585Y-19076848D01*
X87471754Y-20653061D01*
X87471754Y-20653061D01*
G37*
D13*
X84647016Y-18595038D03*
D14*
X84647016Y-18595038D02*
X84647016Y-18595038D01*
D13*
X82291969Y-17643538D03*
D14*
X82291969Y-17643538D02*
X82291969Y-17643538D01*
D13*
X79936922Y-16692037D03*
D14*
X79936922Y-16692037D02*
X79936922Y-16692037D01*
D13*
X198013530Y-19544054D03*
D15*
G36*
X196907008Y-19074363D02*
G01*
X198483221Y-18437532D01*
X199120052Y-20013745D01*
X197543839Y-20650576D01*
X196907008Y-19074363D01*
X196907008Y-19074363D01*
G37*
D13*
X200368577Y-18592553D03*
D14*
X200368577Y-18592553D02*
X200368577Y-18592553D01*
D13*
X202723624Y-17641053D03*
D14*
X202723624Y-17641053D02*
X202723624Y-17641053D01*
D13*
X205078671Y-16689552D03*
D14*
X205078671Y-16689552D02*
X205078671Y-16689552D01*
D13*
X190896005Y-1927561D03*
D15*
G36*
X189789483Y-1457870D02*
G01*
X191365696Y-821039D01*
X192002527Y-2397252D01*
X190426314Y-3034083D01*
X189789483Y-1457870D01*
X189789483Y-1457870D01*
G37*
D13*
X193251052Y-976060D03*
D14*
X193251052Y-976060D02*
X193251052Y-976060D01*
D13*
X195606099Y-24560D03*
D14*
X195606099Y-24560D02*
X195606099Y-24560D01*
D13*
X197961146Y926941D03*
D14*
X197961146Y926941D02*
X197961146Y926941D01*
D13*
X173660955Y33305425D03*
D15*
G36*
X172554433Y33775116D02*
G01*
X174130646Y34411947D01*
X174767477Y32835734D01*
X173191264Y32198903D01*
X172554433Y33775116D01*
X172554433Y33775116D01*
G37*
D13*
X176016002Y34256926D03*
D14*
X176016002Y34256926D02*
X176016002Y34256926D01*
D13*
X178371049Y35208426D03*
D14*
X178371049Y35208426D02*
X178371049Y35208426D01*
D13*
X180726096Y36159927D03*
D14*
X180726096Y36159927D02*
X180726096Y36159927D01*
D13*
X250581730Y-24189957D03*
D15*
G36*
X251051421Y-23083435D02*
G01*
X251688252Y-24659648D01*
X250112039Y-25296479D01*
X249475208Y-23720266D01*
X251051421Y-23083435D01*
X251051421Y-23083435D01*
G37*
D13*
X251533231Y-26545004D03*
D14*
X251533231Y-26545004D02*
X251533231Y-26545004D01*
D13*
X252484731Y-28900051D03*
D14*
X252484731Y-28900051D02*
X252484731Y-28900051D01*
D13*
X253436232Y-31255098D03*
D14*
X253436232Y-31255098D02*
X253436232Y-31255098D01*
D13*
X94119589Y-1930046D03*
D15*
G36*
X94589280Y-3036568D02*
G01*
X93013067Y-2399737D01*
X93649898Y-823524D01*
X95226111Y-1460355D01*
X94589280Y-3036568D01*
X94589280Y-3036568D01*
G37*
D13*
X91764542Y-978545D03*
D14*
X91764542Y-978545D02*
X91764542Y-978545D01*
D13*
X89409495Y-27045D03*
D14*
X89409495Y-27045D02*
X89409495Y-27045D01*
D13*
X87054448Y924456D03*
D14*
X87054448Y924456D02*
X87054448Y924456D01*
D13*
X183778480Y15688932D03*
D15*
G36*
X182671958Y16158623D02*
G01*
X184248171Y16795454D01*
X184885002Y15219241D01*
X183308789Y14582410D01*
X182671958Y16158623D01*
X182671958Y16158623D01*
G37*
D13*
X186133527Y16640433D03*
D14*
X186133527Y16640433D02*
X186133527Y16640433D01*
D13*
X188488574Y17591933D03*
D14*
X188488574Y17591933D02*
X188488574Y17591933D01*
D13*
X190843621Y18543434D03*
D14*
X190843621Y18543434D02*
X190843621Y18543434D01*
D16*
X57022689Y-33631694D03*
D17*
X57149869Y-33370303D02*
X56895509Y-33893085D01*
D16*
X56895510Y-33893085D03*
X62853859Y-34348267D03*
D17*
X63734628Y-33916790D02*
X61973090Y-34779744D01*
D16*
X61973091Y-34779744D03*
X42483564Y-32298138D03*
X43364332Y-31866661D03*
D17*
X44245101Y-31435184D02*
X42483563Y-32298138D01*
D16*
X37405983Y-31411479D03*
X37533162Y-31150088D03*
D17*
X37660342Y-30888697D02*
X37405982Y-31411479D01*
D16*
X92620298Y3755605D03*
D17*
X92747478Y4016996D02*
X92493118Y3494214D01*
D16*
X92493119Y3494214D03*
X98451468Y3039032D03*
D17*
X99332237Y3470509D02*
X97570699Y2607555D01*
D16*
X97570700Y2607555D03*
D18*
X142500000Y500000D03*
D19*
X142500000Y-2040000D03*
X142500000Y-4580000D03*
X142500000Y-7120000D03*
D16*
X99737824Y21372099D03*
D17*
X99865004Y21633490D02*
X99610644Y21110708D01*
D16*
X99610645Y21110708D03*
X105568994Y20655526D03*
D17*
X106449763Y21087003D02*
X104688225Y20224049D01*
D16*
X104688226Y20224049D03*
X123803145Y16815259D03*
X124683913Y17246736D03*
D17*
X125564682Y17678213D02*
X123803144Y16815259D01*
D16*
X118725564Y17701918D03*
X118852743Y17963309D03*
D17*
X118979923Y18224700D02*
X118725563Y17701918D01*
D16*
X223319898Y-35517228D03*
D17*
X223229806Y-35240852D02*
X223409990Y-35793604D01*
D16*
X223409991Y-35793603D03*
X228012264Y-31982016D03*
D17*
X228346107Y-31059804D02*
X227678421Y-32904228D01*
D16*
X227678422Y-32904227D03*
X172965893Y1074283D03*
X173299735Y1996494D03*
D17*
X173633578Y2918706D02*
X172965892Y1074282D01*
D16*
X168697462Y-1815093D03*
X168607369Y-1538718D03*
D17*
X168517277Y-1262342D02*
X168697461Y-1815094D01*
D16*
X187200943Y-34158703D03*
X187534785Y-33236492D03*
D17*
X187868628Y-32314280D02*
X187200942Y-34158704D01*
D16*
X182932512Y-37048079D03*
X182842419Y-36771704D03*
D17*
X182752327Y-36495328D02*
X182932511Y-37048080D01*
D16*
X85502773Y-13860888D03*
D17*
X85629953Y-13599497D02*
X85375593Y-14122279D01*
D16*
X85375594Y-14122279D03*
X91333943Y-14577461D03*
D17*
X92214712Y-14145984D02*
X90453174Y-15008938D01*
D16*
X90453175Y-15008938D03*
X180083418Y-16542210D03*
X180417260Y-15619999D03*
D17*
X180751103Y-14697787D02*
X180083417Y-16542211D01*
D16*
X175814987Y-19431586D03*
X175724894Y-19155211D03*
D17*
X175634802Y-18878835D02*
X175814986Y-19431587D01*
D16*
X116685620Y-801235D03*
X117566388Y-369758D03*
D17*
X118447157Y61719D02*
X116685619Y-801235D01*
D16*
X111608039Y85424D03*
X111735218Y346815D03*
D17*
X111862398Y608206D02*
X111608038Y85424D01*
D16*
X194839814Y-15746421D03*
D17*
X194749722Y-15470045D02*
X194929906Y-16022797D01*
D16*
X194929907Y-16022796D03*
X199532180Y-12211209D03*
D17*
X199866023Y-11288997D02*
X199198337Y-13133421D01*
D16*
X199198338Y-13133420D03*
X109568095Y-18417728D03*
X110448863Y-17986251D03*
D17*
X111329632Y-17554774D02*
X109568094Y-18417728D01*
D16*
X104490514Y-17531069D03*
X104617693Y-17269678D03*
D17*
X104744873Y-17008287D02*
X104490513Y-17531069D01*
D16*
X78385248Y-31477381D03*
D17*
X78512428Y-31215990D02*
X78258068Y-31738772D01*
D16*
X78258069Y-31738772D03*
X84216418Y-32193954D03*
D17*
X85097187Y-31762477D02*
X83335649Y-32625431D01*
D16*
X83335650Y-32625431D03*
X102450569Y-36034221D03*
X103331337Y-35602744D03*
D17*
X104212106Y-35171267D02*
X102450568Y-36034221D01*
D16*
X97372988Y-35147562D03*
X97500167Y-34886171D03*
D17*
X97627347Y-34624780D02*
X97372987Y-35147562D01*
D16*
X187722288Y1870072D03*
D17*
X187632196Y2146448D02*
X187812380Y1593696D01*
D16*
X187812381Y1593697D03*
X192414654Y5405284D03*
D17*
X192748497Y6327496D02*
X192080811Y4483072D01*
D16*
X192080812Y4483073D03*
X201957339Y-33362914D03*
D17*
X201867247Y-33086538D02*
X202047431Y-33639290D01*
D16*
X202047432Y-33639289D03*
X206649705Y-29827702D03*
D17*
X206983548Y-28905490D02*
X206315862Y-30749914D01*
D16*
X206315863Y-30749913D03*
X180604763Y19486565D03*
D17*
X180514671Y19762941D02*
X180694855Y19210189D01*
D16*
X180694856Y19210190D03*
X185297129Y23021777D03*
D17*
X185630972Y23943989D02*
X184963286Y22099565D01*
D16*
X184963287Y22099566D03*
X165848368Y18690777D03*
X166182210Y19612988D03*
D17*
X166516053Y20535200D02*
X165848367Y18690776D01*
D16*
X161579937Y15801401D03*
X161489844Y16077776D03*
D17*
X161399752Y16354152D02*
X161579936Y15801400D01*
D20*
X136800000Y-76000000D03*
X144800000Y-76000000D03*
D21*
X138800000Y-76000000D03*
D22*
X140800000Y-76000000D03*
X142800000Y-76000000D03*
D19*
X143940000Y-33200000D03*
D18*
X141400000Y-33200000D03*
D23*
X233611994Y-35163996D03*
X100750000Y-42650000D03*
X103350000Y-42700000D03*
X105950000Y-42750000D03*
X108550000Y-42650000D03*
X90350000Y-42200000D03*
X92900000Y-42300000D03*
X95600000Y-42450000D03*
X98200000Y-42550000D03*
X120250000Y-38100000D03*
X99250000Y-18300000D03*
X91100000Y-18050002D03*
X120299984Y-40550000D03*
X120750000Y-18150000D03*
X120500000Y-33100000D03*
X164300000Y-41300000D03*
X164250000Y-36250000D03*
X164237500Y-38712500D03*
X186310969Y-16300000D03*
X164050000Y-31300000D03*
X164150000Y-28750000D03*
X164150000Y-26250000D03*
X164000000Y-23700000D03*
X183450000Y-44550000D03*
X180650000Y-44600000D03*
X177850000Y-44600000D03*
X175000000Y-44650000D03*
X106004398Y16989730D03*
X94171973Y18540949D03*
X70250000Y-35750000D03*
X137911322Y-61198391D03*
X127350000Y-43300000D03*
X138950000Y-42999998D03*
X71150000Y-42150000D03*
X194100000Y-61900000D03*
X105894355Y15995801D03*
X96527020Y17589448D03*
X137000000Y-60350000D03*
X137350000Y-43350000D03*
X128399039Y-43449041D03*
X105905647Y14956361D03*
X131800000Y-61450002D03*
X105847170Y13958060D03*
X132100000Y-60300000D03*
X112450000Y-46139030D03*
X132300000Y-41900000D03*
X166450000Y-44400000D03*
X151150000Y-44350000D03*
X156800000Y-44400000D03*
X214700000Y-51400008D03*
X87550000Y-42500000D03*
X166550000Y-45550000D03*
X150120000Y-45550002D03*
X89300000Y-48999998D03*
X208400000Y-52200000D03*
X130750000Y-64250000D03*
X129950000Y-63400000D03*
X148100000Y-49150000D03*
X149100000Y-48800000D03*
X120550000Y-30650000D03*
X120600000Y-28100000D03*
X120552224Y-25597776D03*
X120600000Y-23150000D03*
X120392216Y-35592216D03*
X103300000Y13050000D03*
X120700000Y-20650000D03*
X164050000Y-21300000D03*
X163950000Y-18800000D03*
X163950000Y-16450000D03*
X164000000Y-14000000D03*
X164000000Y-11600000D03*
X194750000Y-44350000D03*
X191900000Y-44400000D03*
X189100000Y-44400000D03*
X186277049Y-44589041D03*
D24*
X134880000Y-2110000D02*
X134880000Y-4650000D01*
X33482363Y-27951036D02*
X32530863Y-28902536D01*
X33482363Y-26547489D02*
X33482363Y-27951036D01*
X32530863Y-30306082D02*
X31579362Y-31257583D01*
X32530863Y-28902536D02*
X32530863Y-30306082D01*
X182136287Y-71063713D02*
X175900000Y-77300000D01*
X193667308Y-71063713D02*
X182136287Y-71063713D01*
X175900000Y-77300000D02*
X172750000Y-77300000D01*
X172750000Y-77300000D02*
X169400000Y-77300000D01*
X172550000Y-77300000D02*
X172750000Y-77300000D01*
X172650000Y-79550000D02*
X172650000Y-77400000D01*
X172650000Y-77400000D02*
X172550000Y-77300000D01*
X250581730Y-25593503D02*
X251533231Y-26545004D01*
X250581730Y-24189957D02*
X250581730Y-25593503D01*
X251533231Y-27948551D02*
X252484731Y-28900051D01*
X251533231Y-26545004D02*
X251533231Y-27948551D01*
X252484731Y-30303597D02*
X253436232Y-31255098D01*
X252484731Y-28900051D02*
X252484731Y-30303597D01*
X37050000Y-34350000D02*
X33957583Y-31257583D01*
X33957583Y-31257583D02*
X31579362Y-31257583D01*
X40400000Y-34350000D02*
X37050000Y-34350000D01*
X40400000Y-30497757D02*
X40400000Y-34350000D01*
X38202243Y-28300000D02*
X40400000Y-30497757D01*
X35100000Y-28300000D02*
X38202243Y-28300000D01*
X33482363Y-26547489D02*
X33482363Y-26682363D01*
X33482363Y-26682363D02*
X35100000Y-28300000D01*
X237110043Y-24189957D02*
X250581730Y-24189957D01*
X233700000Y-27600000D02*
X237110043Y-24189957D01*
X233700000Y-34270000D02*
X233700000Y-27600000D01*
X232900000Y-35070000D02*
X233700000Y-34270000D01*
X125945020Y-45285020D02*
X125950000Y-45290000D01*
X46200000Y-34350000D02*
X40400000Y-34350000D01*
X128120878Y-45285020D02*
X73821280Y-45285020D01*
X129602949Y-43802949D02*
X128120878Y-45285020D01*
X73821280Y-45285020D02*
X73767271Y-45231011D01*
X73767271Y-45231011D02*
X66109338Y-45231011D01*
X66109338Y-45231011D02*
X57978328Y-37100000D01*
X48950000Y-37100000D02*
X46200000Y-34350000D01*
X57978328Y-37100000D02*
X48950000Y-37100000D01*
X129602949Y-9927051D02*
X129602949Y-43802949D01*
X134880000Y-4650000D02*
X129602949Y-9927051D01*
X233611994Y-35163996D02*
X232993996Y-35163996D01*
X232993996Y-35163996D02*
X232900000Y-35070000D01*
X193667308Y-69162296D02*
X226929604Y-35900000D01*
X226929604Y-35900000D02*
X232070000Y-35900000D01*
X193667308Y-71063713D02*
X193667308Y-69162296D01*
X232070000Y-35900000D02*
X232900000Y-35070000D01*
X168286307Y-77300000D02*
X169400000Y-77300000D01*
X155178328Y-77300000D02*
X168286307Y-77300000D01*
X145202958Y-67324630D02*
X155178328Y-77300000D01*
X145202958Y-34462958D02*
X145202958Y-67324630D01*
X143940000Y-33200000D02*
X145202958Y-34462958D01*
D25*
X99868272Y-42650000D02*
X91587969Y-34369697D01*
X96699996Y-14273800D02*
X96699996Y-3299996D01*
X100750000Y-42650000D02*
X99868272Y-42650000D01*
X91587969Y-34369697D02*
X91587972Y-19385824D01*
X95330046Y-1930046D02*
X94119589Y-1930046D01*
X91587972Y-19385824D02*
X96699996Y-14273800D01*
X96699996Y-3299996D02*
X95330046Y-1930046D01*
X101595989Y-40945989D02*
X98806329Y-40945989D01*
X92614541Y-128546D02*
X91764542Y-978545D01*
X97154007Y-14461857D02*
X97154007Y-2580211D01*
X103350000Y-42700000D02*
X101595989Y-40945989D01*
X98806329Y-40945989D02*
X92041980Y-34181640D01*
X92041980Y-34181640D02*
X92041982Y-19573882D01*
X92041982Y-19573882D02*
X97154007Y-14461857D01*
X94702342Y-128546D02*
X92614541Y-128546D01*
X97154007Y-2580211D02*
X94702342Y-128546D01*
X103691978Y-40491978D02*
X98994385Y-40491977D01*
X105950000Y-42750000D02*
X103691978Y-40491978D01*
X98994385Y-40491977D02*
X92495991Y-33993583D01*
X90259494Y822954D02*
X89409495Y-27045D01*
X94392910Y822954D02*
X90259494Y822954D01*
X92495991Y-33993583D02*
X92495992Y-19761940D01*
X97608018Y-2392154D02*
X94392910Y822954D01*
X97608018Y-14649914D02*
X97608018Y-2392154D01*
X92495992Y-19761940D02*
X97608018Y-14649914D01*
X87904447Y1774455D02*
X87054448Y924456D01*
X105937967Y-40037967D02*
X99182443Y-40037967D01*
X94083477Y1774455D02*
X87904447Y1774455D01*
X92950002Y-33805526D02*
X92950002Y-19949998D01*
X99182443Y-40037967D02*
X92950002Y-33805526D01*
X92950002Y-19949998D02*
X98062030Y-14837970D01*
X108550000Y-42650000D02*
X105937967Y-40037967D01*
X98062030Y-14837970D02*
X98062030Y-2204098D01*
X98062030Y-2204098D02*
X94083477Y1774455D01*
X89699998Y-22244474D02*
X87725720Y-20270196D01*
X87725720Y-20270196D02*
X87002063Y-19546539D01*
X90350000Y-42200000D02*
X89699998Y-41549998D01*
X89699998Y-41549998D02*
X89699998Y-22244474D01*
X90154009Y-19880213D02*
X88018835Y-17745039D01*
X85497015Y-17745039D02*
X84647016Y-18595038D01*
X92900000Y-42300000D02*
X90154009Y-39554009D01*
X88018835Y-17745039D02*
X85497015Y-17745039D01*
X90154009Y-39554009D02*
X90154009Y-19880213D01*
X87709403Y-16793539D02*
X83141968Y-16793539D01*
X90608020Y-19692156D02*
X87709403Y-16793539D01*
X83141968Y-16793539D02*
X82291969Y-17643538D01*
X95600000Y-42450000D02*
X90608020Y-37458020D01*
X90608020Y-37458020D02*
X90608020Y-19692156D01*
X91062031Y-35412031D02*
X91062031Y-19504099D01*
X98200000Y-42550000D02*
X91062031Y-35412031D01*
X80786921Y-15842038D02*
X79936922Y-16692037D01*
X87399970Y-15842038D02*
X80786921Y-15842038D01*
X91062031Y-19504099D02*
X87399970Y-15842038D01*
X98545989Y-16395989D02*
X119850001Y-37700001D01*
X93005786Y3494214D02*
X98545989Y-2045989D01*
X92493119Y3494214D02*
X93005786Y3494214D01*
X98545989Y-2045989D02*
X98545989Y-16395989D01*
X119850001Y-37700001D02*
X120250000Y-38100000D01*
X91099998Y-18050000D02*
X91100000Y-18050002D01*
X90250000Y-18050000D02*
X91099998Y-18050000D01*
X85629953Y-13599497D02*
X85799497Y-13599497D01*
X85799497Y-13599497D02*
X90250000Y-18050000D01*
X119450000Y-40550000D02*
X120299984Y-40550000D01*
X117850000Y-38950000D02*
X119450000Y-40550000D01*
X117850000Y-36350000D02*
X117850000Y-38950000D01*
X99250000Y-18300000D02*
X99800000Y-18300000D01*
X99800000Y-18300000D02*
X117850000Y-36350000D01*
X111608039Y-2058039D02*
X111608039Y85424D01*
X117858020Y-8308020D02*
X111608039Y-2058039D01*
X117858020Y-15258020D02*
X117858020Y-8308020D01*
X120750000Y-18150000D02*
X117858020Y-15258020D01*
X104744873Y-17785428D02*
X104744873Y-17008287D01*
X104744873Y-21194873D02*
X104744873Y-17008287D01*
X120500000Y-33100000D02*
X116650000Y-33100000D01*
X116650000Y-33100000D02*
X104744873Y-21194873D01*
X175634802Y-19611771D02*
X175634802Y-18878835D01*
X175800000Y-19776969D02*
X175634802Y-19611771D01*
X168681921Y-37048079D02*
X182932512Y-37048079D01*
X164300000Y-41300000D02*
X164430000Y-41300000D01*
X164430000Y-41300000D02*
X168681921Y-37048079D01*
X185516040Y30293D02*
X187632196Y2146448D01*
X185516040Y-17476028D02*
X185516040Y30293D01*
X164250000Y-36250000D02*
X166742068Y-36250000D01*
X166742068Y-36250000D02*
X185516040Y-17476028D01*
X186310969Y-17323167D02*
X186310969Y-16865685D01*
X164237500Y-38712500D02*
X164921636Y-38712500D01*
X164921636Y-38712500D02*
X186310969Y-17323167D01*
X186310969Y-16865685D02*
X186310969Y-16300000D01*
X190843621Y17341353D02*
X190843621Y18543434D01*
X190843621Y17143621D02*
X190843621Y17341353D01*
X189090000Y15390000D02*
X190843621Y17143621D01*
X171026204Y-31300000D02*
X185062030Y-17264174D01*
X164050000Y-31300000D02*
X171026204Y-31300000D01*
X185062030Y-17264174D02*
X185062030Y137973D01*
X187690187Y15390000D02*
X189090000Y15390000D01*
X185062030Y137973D02*
X181400003Y3800000D01*
X181400003Y3800000D02*
X181400003Y9099816D01*
X181400003Y9099816D02*
X187690187Y15390000D01*
X188450000Y17553359D02*
X188488574Y17591933D01*
X188450000Y16900000D02*
X188450000Y17553359D01*
X172934136Y-28750000D02*
X184608020Y-17076116D01*
X184608020Y-17076116D02*
X184608020Y-50085D01*
X164150000Y-28750000D02*
X172934136Y-28750000D01*
X184608020Y-50085D02*
X180945992Y3611943D01*
X180945992Y3611943D02*
X180945992Y9395992D01*
X180945992Y9395992D02*
X188450000Y16900000D01*
X174792068Y-26250000D02*
X184154010Y-16888058D01*
X164150000Y-26250000D02*
X174792068Y-26250000D01*
X184154010Y-16888058D02*
X184154010Y-238143D01*
X184154010Y-238143D02*
X180491981Y3423886D01*
X180491981Y3423886D02*
X180491981Y9796806D01*
X180491981Y9796806D02*
X186133527Y15438352D01*
X186133527Y15438352D02*
X186133527Y16640433D01*
X183750000Y15660452D02*
X183778480Y15688932D01*
X183750000Y13850000D02*
X183750000Y15660452D01*
X180037970Y3235829D02*
X180037970Y10137970D01*
X183700000Y-426201D02*
X180037970Y3235829D01*
X183700000Y-16300000D02*
X183700000Y-426201D01*
X180037970Y10137970D02*
X183750000Y13850000D01*
X183700000Y-16700000D02*
X183700000Y-16300000D01*
X164000000Y-23700000D02*
X176700000Y-23700000D01*
X176700000Y-23700000D02*
X183700000Y-16700000D01*
X183450000Y-44550000D02*
X185774011Y-42225989D01*
X196850000Y-2260000D02*
X197961146Y-1148854D01*
X193512030Y-37277677D02*
X193512030Y-25362030D01*
X197961146Y-275140D02*
X197961146Y926941D01*
X197961146Y-1148854D02*
X197961146Y-275140D01*
X194590000Y-2260000D02*
X196850000Y-2260000D01*
X188400002Y-20250002D02*
X188400002Y-8449998D01*
X193512030Y-25362030D02*
X188400002Y-20250002D01*
X185774011Y-42225989D02*
X188563718Y-42225989D01*
X188563718Y-42225989D02*
X193512030Y-37277677D01*
X188400002Y-8449998D02*
X194590000Y-2260000D01*
X194756100Y-874559D02*
X195606099Y-24560D01*
X187945991Y-8229009D02*
X194756100Y-1418900D01*
X193058019Y-25550087D02*
X187945991Y-20438059D01*
X187945991Y-20438059D02*
X187945991Y-8229009D01*
X193058019Y-37089620D02*
X193058019Y-25550087D01*
X183478022Y-41771978D02*
X188375660Y-41771978D01*
X180650000Y-44600000D02*
X183478022Y-41771978D01*
X188375660Y-41771978D02*
X193058019Y-37089620D01*
X194756100Y-1418900D02*
X194756100Y-874559D01*
X193251052Y-2248948D02*
X193251052Y-2178141D01*
X177850000Y-44600000D02*
X181132033Y-41317967D01*
X192604008Y-36901563D02*
X192604008Y-25738144D01*
X187491980Y-20626116D02*
X187491980Y-8008020D01*
X192604008Y-25738144D02*
X187491980Y-20626116D01*
X187491980Y-8008020D02*
X193251052Y-2248948D01*
X193251052Y-2178141D02*
X193251052Y-976060D01*
X188187603Y-41317967D02*
X192604008Y-36901563D01*
X181132033Y-41317967D02*
X188187603Y-41317967D01*
X178786044Y-40863956D02*
X187999546Y-40863956D01*
X175000000Y-44650000D02*
X178786044Y-40863956D01*
X190172348Y-2651218D02*
X190896005Y-1927561D01*
X187037969Y-20814173D02*
X187037969Y-5785597D01*
X187037969Y-5785597D02*
X190172348Y-2651218D01*
X192149997Y-25926201D02*
X187037969Y-20814173D01*
X192149997Y-36713506D02*
X192149997Y-25926201D01*
X187999546Y-40863956D02*
X192149997Y-36713506D01*
X94581024Y18950000D02*
X94171973Y18540949D01*
X102000000Y18950000D02*
X94581024Y18950000D01*
X106004398Y16989730D02*
X103960270Y16989730D01*
X103960270Y16989730D02*
X102000000Y18950000D01*
X138404011Y-60705702D02*
X138311321Y-60798392D01*
X138311321Y-60798392D02*
X137911322Y-61198391D01*
X138404011Y-42045989D02*
X138404011Y-60705702D01*
X138550001Y-42599999D02*
X138950000Y-42999998D01*
X138404011Y-42454009D02*
X138550001Y-42599999D01*
X138404011Y-42045989D02*
X138404011Y-42454009D01*
X71549999Y-42549999D02*
X71150000Y-42150000D01*
X70250000Y-35750000D02*
X70250000Y-41250000D01*
X127350000Y-43300000D02*
X126950001Y-43699999D01*
X70250000Y-41250000D02*
X70750001Y-41750001D01*
X72699999Y-43699999D02*
X71549999Y-42549999D01*
X126950001Y-43699999D02*
X72699999Y-43699999D01*
X70750001Y-41750001D02*
X71150000Y-42150000D01*
X194800000Y-61200000D02*
X194100000Y-61900000D01*
X200807932Y-61200000D02*
X194800000Y-61200000D01*
X228346107Y-31059804D02*
X228346107Y-33661825D01*
X228346107Y-33661825D02*
X200807932Y-61200000D01*
X138404011Y-1304011D02*
X138404011Y-42045989D01*
X138400000Y-1300000D02*
X138404011Y-1304011D01*
X138400000Y504000D02*
X138400000Y-1300000D01*
X134880000Y2970000D02*
X135934000Y2970000D01*
X135934000Y2970000D02*
X138400000Y504000D01*
X97391583Y18454011D02*
X96527020Y17589448D01*
X101853921Y18454011D02*
X97391583Y18454011D01*
X105894355Y15995801D02*
X104312131Y15995801D01*
X104312131Y15995801D02*
X101853921Y18454011D01*
X137000000Y-60250000D02*
X137000000Y-60350000D01*
X137950000Y-59300000D02*
X137000000Y-60250000D01*
X134880000Y430000D02*
X137950000Y-2640000D01*
X137915685Y-43350000D02*
X137950000Y-43350000D01*
X137350000Y-43350000D02*
X137915685Y-43350000D01*
X137950000Y-2640000D02*
X137950000Y-43350000D01*
X137950000Y-43350000D02*
X137950000Y-59300000D01*
X127999040Y-43849040D02*
X128399039Y-43449041D01*
X49309917Y-36500000D02*
X58200000Y-36500000D01*
X74061943Y-44704011D02*
X127144069Y-44704011D01*
X58200000Y-36500000D02*
X66350000Y-44650000D01*
X74007932Y-44650000D02*
X74061943Y-44704011D01*
X127144069Y-44704011D02*
X127999040Y-43849040D01*
X44245101Y-31435184D02*
X49309917Y-36500000D01*
X66350000Y-44650000D02*
X74007932Y-44650000D01*
X247167948Y-29245883D02*
X247167948Y-30422621D01*
X247835633Y-28578198D02*
X247167948Y-29245883D01*
X241187379Y-30422621D02*
X235100000Y-36510000D01*
X201134210Y-62525790D02*
X201134210Y-64084662D01*
X201134210Y-64084662D02*
X201134210Y-65286743D01*
X227150000Y-36510000D02*
X201134210Y-62525790D01*
X235100000Y-36510000D02*
X227150000Y-36510000D01*
X247167948Y-30422621D02*
X241187379Y-30422621D01*
X105339962Y14956361D02*
X105905647Y14956361D01*
X104709503Y14956361D02*
X105339962Y14956361D01*
X101665864Y18000000D02*
X104709503Y14956361D01*
X100244119Y18000000D02*
X101665864Y18000000D01*
X98882067Y16637948D02*
X100244119Y18000000D01*
X131091980Y-16058020D02*
X131091980Y-41976116D01*
X134880000Y-12270000D02*
X131091980Y-16058020D01*
X131093033Y-41977169D02*
X131093033Y-60743035D01*
X131400001Y-61050003D02*
X131800000Y-61450002D01*
X131093033Y-60743035D02*
X131400001Y-61050003D01*
X131091980Y-41976116D02*
X131093033Y-41977169D01*
X105281485Y13958060D02*
X105847170Y13958060D01*
X104941940Y13958060D02*
X105281485Y13958060D01*
X101237114Y15686447D02*
X103213553Y15686447D01*
X103213553Y15686447D02*
X104941940Y13958060D01*
X131572999Y-41815067D02*
X131572999Y-59772999D01*
X134880000Y-14810000D02*
X131545990Y-18144010D01*
X131545990Y-18144010D02*
X131545990Y-41788058D01*
X131545990Y-41788058D02*
X131572999Y-41815067D01*
X131700001Y-59900001D02*
X132100000Y-60300000D01*
X131572999Y-59772999D02*
X131700001Y-59900001D01*
X112000000Y-18225142D02*
X111329632Y-17554774D01*
X125564682Y3464682D02*
X125564682Y17678213D01*
X121450000Y-650000D02*
X125564682Y3464682D01*
X118447157Y61719D02*
X119158876Y-650000D01*
X119158876Y-650000D02*
X121450000Y-650000D01*
X151200000Y-44400000D02*
X151150000Y-44350000D01*
X132000000Y-41600000D02*
X132300000Y-41900000D01*
X132000000Y-20230000D02*
X132000000Y-41600000D01*
X134880000Y-17350000D02*
X132000000Y-20230000D01*
X70819377Y-46139030D02*
X112450000Y-46139030D01*
X65504530Y-51453877D02*
X70819377Y-46139030D01*
X156800000Y-44400000D02*
X151200000Y-44400000D01*
X166450000Y-44400000D02*
X156800000Y-44400000D01*
X219545628Y-51452082D02*
X214752074Y-51452082D01*
X214752074Y-51452082D02*
X214700000Y-51400008D01*
X85097187Y-31762477D02*
X85097187Y-31802811D01*
X85097187Y-36397187D02*
X87550000Y-38850000D01*
X85097187Y-31762477D02*
X85097187Y-36397187D01*
X87550000Y-38850000D02*
X87550000Y-42500000D01*
X165984315Y-45550000D02*
X166550000Y-45550000D01*
X150120000Y-24970000D02*
X150120000Y-45550000D01*
X150120000Y-45550000D02*
X165984315Y-45550000D01*
X89299998Y-49000000D02*
X89300000Y-48999998D01*
X78600000Y-49000000D02*
X89299998Y-49000000D01*
X71590133Y-56039707D02*
X71590133Y-56009867D01*
X71590133Y-56009867D02*
X78600000Y-49000000D01*
X208400000Y-51634315D02*
X208400000Y-52200000D01*
X208400000Y-30321942D02*
X208400000Y-51634315D01*
X206983548Y-28905490D02*
X208400000Y-30321942D01*
X130750000Y-63684315D02*
X130750000Y-64250000D01*
X130637970Y-42164174D02*
X130639022Y-42165226D01*
X130639022Y-42165226D02*
X130639022Y-62739022D01*
X130750000Y-62850000D02*
X130750000Y-63684315D01*
X130639022Y-62739022D02*
X130750000Y-62850000D01*
X130637970Y-13972030D02*
X130637970Y-42164174D01*
X134880000Y-9730000D02*
X130637970Y-13972030D01*
X130183960Y-42352232D02*
X130185011Y-42353283D01*
X130185011Y-42353283D02*
X130185011Y-62599304D01*
X130185011Y-62599304D02*
X129950000Y-62834315D01*
X130183959Y-11886041D02*
X130183960Y-42352232D01*
X129950000Y-62834315D02*
X129950000Y-63400000D01*
X134880000Y-7190000D02*
X130183959Y-11886041D01*
D24*
X148078110Y-64978110D02*
X187917163Y-64978110D01*
X146364979Y-63264979D02*
X148078110Y-64978110D01*
X146364979Y-8405021D02*
X146364979Y-63264979D01*
X187917163Y-64978110D02*
X189081478Y-64978110D01*
X150120000Y-4650000D02*
X146364979Y-8405021D01*
D25*
X174786307Y-72800000D02*
X169400000Y-72800000D01*
X175900000Y-72800000D02*
X174786307Y-72800000D01*
X151500000Y-72800000D02*
X168286307Y-72800000D01*
X168286307Y-72800000D02*
X169400000Y-72800000D01*
X145783968Y-67083968D02*
X151500000Y-72800000D01*
X150120000Y-2110000D02*
X145783968Y-6446032D01*
X145783968Y-6446032D02*
X145783968Y-67083968D01*
D24*
X140800000Y-38900000D02*
X140800000Y-76000000D01*
X139300000Y-37400000D02*
X140800000Y-38900000D01*
X139300000Y-31400000D02*
X139300000Y-37400000D01*
X145170000Y-25530000D02*
X139300000Y-31400000D01*
X150120000Y2970000D02*
X145170000Y-1980000D01*
X145170000Y-1980000D02*
X145170000Y-25530000D01*
D25*
X148100000Y-48342068D02*
X148100000Y-48584315D01*
X150120000Y-7190000D02*
X146945990Y-10364010D01*
X146945990Y-47188058D02*
X148100000Y-48342068D01*
X146945990Y-10364010D02*
X146945990Y-47188058D01*
X148100000Y-48584315D02*
X148100000Y-49150000D01*
X150120000Y-9730000D02*
X147400000Y-12450000D01*
X147400000Y-12450000D02*
X147400000Y-46534315D01*
X147400000Y-46534315D02*
X149100000Y-48234315D01*
X149100000Y-48234315D02*
X149100000Y-48800000D01*
X111249998Y21600002D02*
X111249998Y28515866D01*
X106670000Y31280000D02*
X104289498Y33660502D01*
X108485864Y31280000D02*
X106670000Y31280000D01*
X104289498Y33660502D02*
X104289498Y34955362D01*
X115587967Y-25687967D02*
X115587967Y-9248307D01*
X104289498Y34955362D02*
X104289498Y36157443D01*
X111249998Y28515866D02*
X108485864Y31280000D01*
X115587965Y-9248305D02*
X107237969Y-898305D01*
X115587967Y-9248307D02*
X115587965Y-9248305D01*
X107237969Y-898305D02*
X107237971Y17587975D01*
X107237971Y17587975D02*
X111249998Y21600002D01*
X120550000Y-30650000D02*
X115587967Y-25687967D01*
X116041978Y-9060250D02*
X116041975Y-9060247D01*
X107691980Y-710247D02*
X107691981Y17399917D01*
X106644545Y34003861D02*
X106644545Y35205942D01*
X106644545Y33763387D02*
X106644545Y34003861D01*
X107691981Y17399917D02*
X111704009Y21411945D01*
X116041975Y-9060247D02*
X107691980Y-710247D01*
X116041978Y-23541978D02*
X116041978Y-9060250D01*
X120600000Y-28100000D02*
X116041978Y-23541978D01*
X111704009Y21411945D02*
X111704009Y28703923D01*
X111704009Y28703923D02*
X106644545Y33763387D01*
X112158020Y28891980D02*
X108999592Y32050408D01*
X112158020Y21223888D02*
X112158020Y28891980D01*
X108145991Y-522190D02*
X108145991Y17211859D01*
X116495985Y-8872189D02*
X108145991Y-522190D01*
X108145991Y17211859D02*
X112158020Y21223888D01*
X116495989Y-21541541D02*
X116495988Y-8872192D01*
X120552224Y-25597776D02*
X116495989Y-21541541D01*
X108999592Y32050408D02*
X108999592Y34254442D01*
X116495988Y-8872192D02*
X116495985Y-8872189D01*
X111340000Y33288302D02*
X111354639Y33302941D01*
X111340000Y30430000D02*
X111340000Y33288302D01*
X112612031Y29157969D02*
X111340000Y30430000D01*
X112612031Y21035831D02*
X112612031Y29157969D01*
X120600000Y-23150000D02*
X116950000Y-19500000D01*
X116950000Y-8684136D02*
X116949995Y-8684131D01*
X116949995Y-8684131D02*
X108600002Y-334133D01*
X108600002Y-334133D02*
X108600002Y17023802D01*
X116950000Y-19500000D02*
X116950000Y-8684136D01*
X108600002Y17023802D02*
X112612031Y21035831D01*
X103300000Y12484315D02*
X103300000Y13050000D01*
X118500148Y-35592216D02*
X99000000Y-16092068D01*
X120392216Y-35592216D02*
X118500148Y-35592216D01*
X99000000Y-16092068D02*
X99000000Y-2900000D01*
X99000000Y-2900000D02*
X106700000Y4800000D01*
X106700000Y4800000D02*
X106700000Y9084315D01*
X106700000Y9084315D02*
X103300000Y12484315D01*
X109100000Y-192068D02*
X109100000Y8344777D01*
X109100000Y8344777D02*
X118979923Y18224700D01*
X117404010Y-17354010D02*
X117404010Y-8496078D01*
X117404010Y-8496078D02*
X109100000Y-192068D01*
X120700000Y-20650000D02*
X117404010Y-17354010D01*
X180510000Y19758270D02*
X180514671Y19762941D01*
X168650000Y-16700000D02*
X168650000Y-11700000D01*
X168650000Y-11700000D02*
X179569857Y-780143D01*
X164050000Y-21300000D02*
X168650000Y-16700000D01*
X179569857Y-780143D02*
X179569857Y15509857D01*
X179569857Y15509857D02*
X180510000Y16450000D01*
X180510000Y16450000D02*
X180510000Y19758270D01*
X174000002Y27020002D02*
X180726096Y33746096D01*
X180726096Y33746096D02*
X180726096Y34957846D01*
X174000002Y20550002D02*
X174000002Y27020002D01*
X179062030Y15487974D02*
X174000002Y20550002D01*
X168195990Y-11511944D02*
X179062031Y-645903D01*
X168195990Y-14554010D02*
X168195990Y-11511944D01*
X163950000Y-18800000D02*
X168195990Y-14554010D01*
X180726096Y34957846D02*
X180726096Y36159927D01*
X179062031Y-645903D02*
X179062030Y15487974D01*
X178608020Y-457846D02*
X178608020Y15299916D01*
X178371049Y32033117D02*
X178371049Y34006345D01*
X173545992Y27208060D02*
X178371049Y32033117D01*
X163950000Y-15115866D02*
X178608020Y-457846D01*
X173545991Y20361945D02*
X173545992Y27208060D01*
X178371049Y34006345D02*
X178371049Y35208426D01*
X163950000Y-16450000D02*
X163950000Y-15115866D01*
X178608020Y15299916D02*
X173545991Y20361945D01*
X164399999Y-13600001D02*
X164792067Y-13600001D01*
X178154009Y-238059D02*
X178154009Y15111859D01*
X176016002Y33054845D02*
X176016002Y34256926D01*
X178154009Y15111859D02*
X173091980Y20173888D01*
X176016002Y30320138D02*
X176016002Y33054845D01*
X173091980Y20173888D02*
X173091982Y27396118D01*
X173091982Y27396118D02*
X176016002Y30320138D01*
X164792067Y-13600001D02*
X178154009Y-238059D01*
X164000000Y-14000000D02*
X164399999Y-13600001D01*
X173640000Y33284470D02*
X173660955Y33305425D01*
X173640000Y28600000D02*
X173640000Y33284470D01*
X172637969Y27597969D02*
X173640000Y28600000D01*
X165054011Y-10545989D02*
X167204011Y-10545989D01*
X164000000Y-11600000D02*
X165054011Y-10545989D01*
X167204011Y-10545989D02*
X177700000Y-50000D01*
X177700000Y-50000D02*
X177700000Y14923800D01*
X177700000Y14923800D02*
X172637969Y19985831D01*
X172637969Y19985831D02*
X172637969Y27597969D01*
X205078671Y-18481329D02*
X205078671Y-16689552D01*
X203430000Y-20130000D02*
X205078671Y-18481329D01*
X194750000Y-38650000D02*
X195340000Y-38060000D01*
X195340000Y-26428224D02*
X201638224Y-20130000D01*
X201638224Y-20130000D02*
X203430000Y-20130000D01*
X194750000Y-44350000D02*
X194750000Y-38650000D01*
X195340000Y-38060000D02*
X195340000Y-26428224D01*
X201873625Y-19238443D02*
X201873625Y-18491052D01*
X194885989Y-26226079D02*
X201873625Y-19238443D01*
X191900000Y-40857932D02*
X194885989Y-37871943D01*
X191900000Y-44400000D02*
X191900000Y-40857932D01*
X201873625Y-18491052D02*
X202723624Y-17641053D01*
X194885989Y-37871943D02*
X194885989Y-26226079D01*
X189100000Y-44400000D02*
X189100000Y-43015864D01*
X194431979Y-26038021D02*
X200368577Y-20101423D01*
X200368577Y-19794634D02*
X200368577Y-18592553D01*
X200368577Y-20101423D02*
X200368577Y-19794634D01*
X194431979Y-37683885D02*
X194431979Y-26038021D01*
X189100000Y-43015864D02*
X194431979Y-37683885D01*
X186277049Y-44172951D02*
X186277049Y-44589041D01*
X187770000Y-42680000D02*
X186277049Y-44172951D01*
X188751775Y-42680000D02*
X187770000Y-42680000D01*
X193966041Y-37465734D02*
X188751775Y-42680000D01*
X193966041Y-25733959D02*
X193966041Y-37465734D01*
X198013530Y-21686470D02*
X193966041Y-25733959D01*
X198013530Y-19544054D02*
X198013530Y-21686470D01*
D24*
X142800000Y-75080762D02*
X142800000Y-76000000D01*
X142800000Y-35958000D02*
X142800000Y-75080762D01*
X141400000Y-34558000D02*
X142800000Y-35958000D01*
X141400000Y-33200000D02*
X141400000Y-34558000D01*
M02*
