G04 #@! TF.GenerationSoftware,KiCad,Pcbnew,(5.1.4)-1*
G04 #@! TF.CreationDate,2024-10-11T12:26:31-04:00*
G04 #@! TF.ProjectId,ThumbsUp,5468756d-6273-4557-902e-6b696361645f,rev?*
G04 #@! TF.SameCoordinates,Original*
G04 #@! TF.FileFunction,Copper,L2,Bot*
G04 #@! TF.FilePolarity,Positive*
%FSLAX46Y46*%
G04 Gerber Fmt 4.6, Leading zero omitted, Abs format (unit mm)*
G04 Created by KiCad (PCBNEW (5.1.4)-1) date 2024-10-11 12:26:31*
%MOMM*%
%LPD*%
G04 APERTURE LIST*
%ADD10C,0.300000*%
%ADD11R,2.000000X2.000000*%
%ADD12C,2.000000*%
%ADD13C,1.575000*%
%ADD14C,1.700000*%
%ADD15C,1.700000*%
%ADD16C,0.100000*%
%ADD17C,2.500000*%
%ADD18C,2.250000*%
%ADD19C,2.250000*%
%ADD20R,1.700000X1.700000*%
%ADD21O,1.700000X1.700000*%
%ADD22C,1.500000*%
%ADD23C,1.200000*%
%ADD24C,1.300000*%
%ADD25C,0.975000*%
%ADD26R,0.900000X1.200000*%
%ADD27R,1.200000X0.900000*%
%ADD28C,0.800000*%
%ADD29C,0.508000*%
%ADD30C,0.254000*%
G04 APERTURE END LIST*
D10*
X154278571Y-30817857D02*
X154064285Y-30889285D01*
X153992857Y-30960714D01*
X153921428Y-31103571D01*
X153921428Y-31317857D01*
X153992857Y-31460714D01*
X154064285Y-31532142D01*
X154207142Y-31603571D01*
X154778571Y-31603571D01*
X154778571Y-30103571D01*
X154278571Y-30103571D01*
X154135714Y-30175000D01*
X154064285Y-30246428D01*
X153992857Y-30389285D01*
X153992857Y-30532142D01*
X154064285Y-30675000D01*
X154135714Y-30746428D01*
X154278571Y-30817857D01*
X154778571Y-30817857D01*
X152635714Y-31603571D02*
X152635714Y-30817857D01*
X152707142Y-30675000D01*
X152850000Y-30603571D01*
X153135714Y-30603571D01*
X153278571Y-30675000D01*
X152635714Y-31532142D02*
X152778571Y-31603571D01*
X153135714Y-31603571D01*
X153278571Y-31532142D01*
X153350000Y-31389285D01*
X153350000Y-31246428D01*
X153278571Y-31103571D01*
X153135714Y-31032142D01*
X152778571Y-31032142D01*
X152635714Y-30960714D01*
X152135714Y-30603571D02*
X151564285Y-30603571D01*
X151921428Y-30103571D02*
X151921428Y-31389285D01*
X151850000Y-31532142D01*
X151707142Y-31603571D01*
X151564285Y-31603571D01*
X151278571Y-30603571D02*
X150707142Y-30603571D01*
X151064285Y-30103571D02*
X151064285Y-31389285D01*
X150992857Y-31532142D01*
X150850000Y-31603571D01*
X150707142Y-31603571D01*
X149635714Y-31532142D02*
X149778571Y-31603571D01*
X150064285Y-31603571D01*
X150207142Y-31532142D01*
X150278571Y-31389285D01*
X150278571Y-30817857D01*
X150207142Y-30675000D01*
X150064285Y-30603571D01*
X149778571Y-30603571D01*
X149635714Y-30675000D01*
X149564285Y-30817857D01*
X149564285Y-30960714D01*
X150278571Y-31103571D01*
X148921428Y-31603571D02*
X148921428Y-30603571D01*
X148921428Y-30889285D02*
X148850000Y-30746428D01*
X148778571Y-30675000D01*
X148635714Y-30603571D01*
X148492857Y-30603571D01*
X148135714Y-30603571D02*
X147778571Y-31603571D01*
X147421428Y-30603571D02*
X147778571Y-31603571D01*
X147921428Y-31960714D01*
X147992857Y-32032142D01*
X148135714Y-32103571D01*
X154814285Y-32653571D02*
X154814285Y-32939285D01*
X154242857Y-32653571D02*
X154242857Y-32939285D01*
X153600000Y-33582142D02*
X152457142Y-33582142D01*
X151814285Y-32653571D02*
X151814285Y-32939285D01*
X151242857Y-32653571D02*
X151242857Y-32939285D01*
X149457142Y-33153571D02*
X148314285Y-33582142D01*
X149457142Y-34010714D01*
X147600000Y-33153571D02*
X146457142Y-33582142D01*
X147600000Y-34010714D01*
X137507142Y-30717857D02*
X137292857Y-30789285D01*
X137221428Y-30860714D01*
X137150000Y-31003571D01*
X137150000Y-31217857D01*
X137221428Y-31360714D01*
X137292857Y-31432142D01*
X137435714Y-31503571D01*
X138007142Y-31503571D01*
X138007142Y-30003571D01*
X137507142Y-30003571D01*
X137364285Y-30075000D01*
X137292857Y-30146428D01*
X137221428Y-30289285D01*
X137221428Y-30432142D01*
X137292857Y-30575000D01*
X137364285Y-30646428D01*
X137507142Y-30717857D01*
X138007142Y-30717857D01*
X135864285Y-31503571D02*
X135864285Y-30717857D01*
X135935714Y-30575000D01*
X136078571Y-30503571D01*
X136364285Y-30503571D01*
X136507142Y-30575000D01*
X135864285Y-31432142D02*
X136007142Y-31503571D01*
X136364285Y-31503571D01*
X136507142Y-31432142D01*
X136578571Y-31289285D01*
X136578571Y-31146428D01*
X136507142Y-31003571D01*
X136364285Y-30932142D01*
X136007142Y-30932142D01*
X135864285Y-30860714D01*
X135364285Y-30503571D02*
X134792857Y-30503571D01*
X135150000Y-30003571D02*
X135150000Y-31289285D01*
X135078571Y-31432142D01*
X134935714Y-31503571D01*
X134792857Y-31503571D01*
X134507142Y-30503571D02*
X133935714Y-30503571D01*
X134292857Y-30003571D02*
X134292857Y-31289285D01*
X134221428Y-31432142D01*
X134078571Y-31503571D01*
X133935714Y-31503571D01*
X132864285Y-31432142D02*
X133007142Y-31503571D01*
X133292857Y-31503571D01*
X133435714Y-31432142D01*
X133507142Y-31289285D01*
X133507142Y-30717857D01*
X133435714Y-30575000D01*
X133292857Y-30503571D01*
X133007142Y-30503571D01*
X132864285Y-30575000D01*
X132792857Y-30717857D01*
X132792857Y-30860714D01*
X133507142Y-31003571D01*
X132150000Y-31503571D02*
X132150000Y-30503571D01*
X132150000Y-30789285D02*
X132078571Y-30646428D01*
X132007142Y-30575000D01*
X131864285Y-30503571D01*
X131721428Y-30503571D01*
X131364285Y-30503571D02*
X131007142Y-31503571D01*
X130650000Y-30503571D02*
X131007142Y-31503571D01*
X131150000Y-31860714D01*
X131221428Y-31932142D01*
X131364285Y-32003571D01*
X137971428Y-33053571D02*
X139114285Y-33482142D01*
X137971428Y-33910714D01*
X136114285Y-33053571D02*
X137257142Y-33482142D01*
X136114285Y-33910714D01*
X134328571Y-32553571D02*
X134328571Y-32839285D01*
X133757142Y-32553571D02*
X133757142Y-32839285D01*
X133114285Y-33482142D02*
X131971428Y-33482142D01*
X132542857Y-34053571D02*
X132542857Y-32910714D01*
X131328571Y-32553571D02*
X131328571Y-32839285D01*
X130757142Y-32553571D02*
X130757142Y-32839285D01*
D11*
X134880000Y2970000D03*
D12*
X134880000Y430000D03*
X134880000Y-2110000D03*
X134880000Y-4650000D03*
X134880000Y-7190000D03*
X134880000Y-9730000D03*
X134880000Y-12270000D03*
X134880000Y-14810000D03*
X134880000Y-17350000D03*
X134880000Y-19890000D03*
X134880000Y-22430000D03*
X134880000Y-24970000D03*
X150120000Y-24970000D03*
X150120000Y-22430000D03*
X150120000Y-19890000D03*
X150120000Y-17350000D03*
X150120000Y-14810000D03*
X150120000Y-12270000D03*
X150120000Y-9730000D03*
X150120000Y-7190000D03*
X150120000Y-4650000D03*
X150120000Y-2110000D03*
X150120000Y430000D03*
X150120000Y2970000D03*
D13*
X175900000Y-72800000D03*
X175900000Y-77300000D03*
X169400000Y-72800000D03*
X169400000Y-77300000D03*
X172650000Y-79550000D03*
D14*
X213460025Y-56037912D03*
D15*
X213460025Y-56037912D02*
X213460025Y-56037912D01*
D14*
X215488560Y-54509302D03*
D15*
X215488560Y-54509302D02*
X215488560Y-54509302D01*
D14*
X217517094Y-52980692D03*
D15*
X217517094Y-52980692D02*
X217517094Y-52980692D01*
D14*
X219545628Y-51452082D03*
D16*
G36*
X218355245Y-51284785D02*
G01*
X219712925Y-50261699D01*
X220736011Y-51619379D01*
X219378331Y-52642465D01*
X218355245Y-51284785D01*
X218355245Y-51284785D01*
G37*
D14*
X85936497Y-66811130D03*
D15*
X85936497Y-66811130D02*
X85936497Y-66811130D01*
D14*
X83907962Y-65282520D03*
D15*
X83907962Y-65282520D02*
X83907962Y-65282520D01*
D14*
X81879428Y-63753910D03*
D15*
X81879428Y-63753910D02*
X81879428Y-63753910D01*
D14*
X79850894Y-62225300D03*
D16*
G36*
X79683597Y-61034917D02*
G01*
X81041277Y-62058003D01*
X80018191Y-63415683D01*
X78660511Y-62392597D01*
X79683597Y-61034917D01*
X79683597Y-61034917D01*
G37*
D14*
X71590133Y-56039707D03*
D16*
G36*
X71422836Y-54849324D02*
G01*
X72780516Y-55872410D01*
X71757430Y-57230090D01*
X70399750Y-56207004D01*
X71422836Y-54849324D01*
X71422836Y-54849324D01*
G37*
D14*
X69561599Y-54511097D03*
D15*
X69561599Y-54511097D02*
X69561599Y-54511097D01*
D14*
X67533065Y-52982487D03*
D15*
X67533065Y-52982487D02*
X67533065Y-52982487D01*
D14*
X65504530Y-51453877D03*
D15*
X65504530Y-51453877D02*
X65504530Y-51453877D01*
D14*
X95944722Y-64961851D03*
D16*
G36*
X94754339Y-65129148D02*
G01*
X95777425Y-63771468D01*
X97135105Y-64794554D01*
X96112019Y-66152234D01*
X94754339Y-65129148D01*
X94754339Y-65129148D01*
G37*
D14*
X94416112Y-66990385D03*
D15*
X94416112Y-66990385D02*
X94416112Y-66990385D01*
D14*
X92887502Y-69018919D03*
D15*
X92887502Y-69018919D02*
X92887502Y-69018919D01*
D14*
X91358892Y-71047454D03*
D15*
X91358892Y-71047454D02*
X91358892Y-71047454D01*
D14*
X205191279Y-62229523D03*
D15*
X205191279Y-62229523D02*
X205191279Y-62229523D01*
D14*
X203162744Y-63758133D03*
D15*
X203162744Y-63758133D02*
X203162744Y-63758133D01*
D14*
X201134210Y-65286743D03*
D15*
X201134210Y-65286743D02*
X201134210Y-65286743D01*
D14*
X199105676Y-66815353D03*
D16*
G36*
X197915293Y-66648056D02*
G01*
X199272973Y-65624970D01*
X200296059Y-66982650D01*
X198938379Y-68005736D01*
X197915293Y-66648056D01*
X197915293Y-66648056D01*
G37*
D14*
X193667308Y-71063713D03*
D15*
X193667308Y-71063713D02*
X193667308Y-71063713D01*
D14*
X192138698Y-69035178D03*
D15*
X192138698Y-69035178D02*
X192138698Y-69035178D01*
D14*
X190610088Y-67006644D03*
D15*
X190610088Y-67006644D02*
X190610088Y-67006644D01*
D14*
X189081478Y-64978110D03*
D16*
G36*
X188914181Y-66168493D02*
G01*
X187891095Y-64810813D01*
X189248775Y-63787727D01*
X190271861Y-65145407D01*
X188914181Y-66168493D01*
X188914181Y-66168493D01*
G37*
D17*
X235830964Y-27949443D03*
D16*
G36*
X235117063Y-29586046D02*
G01*
X234180546Y-27268087D01*
X236544865Y-26312840D01*
X237481382Y-28630799D01*
X235117063Y-29586046D01*
X235117063Y-29586046D01*
G37*
D17*
X246865169Y-20751856D03*
D16*
G36*
X246151268Y-22388459D02*
G01*
X245214751Y-20070500D01*
X247579070Y-19115253D01*
X248515587Y-21433212D01*
X246151268Y-22388459D01*
X246151268Y-22388459D01*
G37*
D18*
X247167948Y-30422621D03*
X247501790Y-29500410D03*
D19*
X247835633Y-28578198D02*
X247167947Y-30422622D01*
D18*
X242899517Y-33311997D03*
X242809424Y-33035622D03*
D19*
X242719332Y-32759246D02*
X242899516Y-33311998D01*
D14*
X104289498Y36157443D03*
D15*
X104289498Y36157443D02*
X104289498Y36157443D01*
D14*
X106644545Y35205942D03*
D15*
X106644545Y35205942D02*
X106644545Y35205942D01*
D14*
X108999592Y34254442D03*
D15*
X108999592Y34254442D02*
X108999592Y34254442D01*
D14*
X111354639Y33302941D03*
D16*
G36*
X111824330Y32196419D02*
G01*
X110248117Y32833250D01*
X110884948Y34409463D01*
X112461161Y33772632D01*
X111824330Y32196419D01*
X111824330Y32196419D01*
G37*
D14*
X34433864Y-24192442D03*
D16*
G36*
X35540386Y-23722751D02*
G01*
X34903555Y-25298964D01*
X33327342Y-24662133D01*
X33964173Y-23085920D01*
X35540386Y-23722751D01*
X35540386Y-23722751D01*
G37*
D14*
X33482363Y-26547489D03*
D15*
X33482363Y-26547489D02*
X33482363Y-26547489D01*
D14*
X32530863Y-28902536D03*
D15*
X32530863Y-28902536D02*
X32530863Y-28902536D01*
D14*
X31579362Y-31257583D03*
D15*
X31579362Y-31257583D02*
X31579362Y-31257583D01*
D14*
X101237114Y15686447D03*
D16*
G36*
X101706805Y14579925D02*
G01*
X100130592Y15216756D01*
X100767423Y16792969D01*
X102343636Y16156138D01*
X101706805Y14579925D01*
X101706805Y14579925D01*
G37*
D14*
X98882067Y16637948D03*
D15*
X98882067Y16637948D02*
X98882067Y16637948D01*
D14*
X96527020Y17589448D03*
D15*
X96527020Y17589448D02*
X96527020Y17589448D01*
D14*
X94171973Y18540949D03*
D15*
X94171973Y18540949D02*
X94171973Y18540949D01*
D14*
X87002063Y-19546539D03*
D16*
G36*
X87471754Y-20653061D02*
G01*
X85895541Y-20016230D01*
X86532372Y-18440017D01*
X88108585Y-19076848D01*
X87471754Y-20653061D01*
X87471754Y-20653061D01*
G37*
D14*
X84647016Y-18595038D03*
D15*
X84647016Y-18595038D02*
X84647016Y-18595038D01*
D14*
X82291969Y-17643538D03*
D15*
X82291969Y-17643538D02*
X82291969Y-17643538D01*
D14*
X79936922Y-16692037D03*
D15*
X79936922Y-16692037D02*
X79936922Y-16692037D01*
D14*
X198013530Y-19544054D03*
D16*
G36*
X196907008Y-19074363D02*
G01*
X198483221Y-18437532D01*
X199120052Y-20013745D01*
X197543839Y-20650576D01*
X196907008Y-19074363D01*
X196907008Y-19074363D01*
G37*
D14*
X200368577Y-18592553D03*
D15*
X200368577Y-18592553D02*
X200368577Y-18592553D01*
D14*
X202723624Y-17641053D03*
D15*
X202723624Y-17641053D02*
X202723624Y-17641053D01*
D14*
X205078671Y-16689552D03*
D15*
X205078671Y-16689552D02*
X205078671Y-16689552D01*
D14*
X190896005Y-1927561D03*
D16*
G36*
X189789483Y-1457870D02*
G01*
X191365696Y-821039D01*
X192002527Y-2397252D01*
X190426314Y-3034083D01*
X189789483Y-1457870D01*
X189789483Y-1457870D01*
G37*
D14*
X193251052Y-976060D03*
D15*
X193251052Y-976060D02*
X193251052Y-976060D01*
D14*
X195606099Y-24560D03*
D15*
X195606099Y-24560D02*
X195606099Y-24560D01*
D14*
X197961146Y926941D03*
D15*
X197961146Y926941D02*
X197961146Y926941D01*
D14*
X173660955Y33305425D03*
D16*
G36*
X172554433Y33775116D02*
G01*
X174130646Y34411947D01*
X174767477Y32835734D01*
X173191264Y32198903D01*
X172554433Y33775116D01*
X172554433Y33775116D01*
G37*
D14*
X176016002Y34256926D03*
D15*
X176016002Y34256926D02*
X176016002Y34256926D01*
D14*
X178371049Y35208426D03*
D15*
X178371049Y35208426D02*
X178371049Y35208426D01*
D14*
X180726096Y36159927D03*
D15*
X180726096Y36159927D02*
X180726096Y36159927D01*
D14*
X250581730Y-24189957D03*
D16*
G36*
X251051421Y-23083435D02*
G01*
X251688252Y-24659648D01*
X250112039Y-25296479D01*
X249475208Y-23720266D01*
X251051421Y-23083435D01*
X251051421Y-23083435D01*
G37*
D14*
X251533231Y-26545004D03*
D15*
X251533231Y-26545004D02*
X251533231Y-26545004D01*
D14*
X252484731Y-28900051D03*
D15*
X252484731Y-28900051D02*
X252484731Y-28900051D01*
D14*
X253436232Y-31255098D03*
D15*
X253436232Y-31255098D02*
X253436232Y-31255098D01*
D14*
X94119589Y-1930046D03*
D16*
G36*
X94589280Y-3036568D02*
G01*
X93013067Y-2399737D01*
X93649898Y-823524D01*
X95226111Y-1460355D01*
X94589280Y-3036568D01*
X94589280Y-3036568D01*
G37*
D14*
X91764542Y-978545D03*
D15*
X91764542Y-978545D02*
X91764542Y-978545D01*
D14*
X89409495Y-27045D03*
D15*
X89409495Y-27045D02*
X89409495Y-27045D01*
D14*
X87054448Y924456D03*
D15*
X87054448Y924456D02*
X87054448Y924456D01*
D14*
X183778480Y15688932D03*
D16*
G36*
X182671958Y16158623D02*
G01*
X184248171Y16795454D01*
X184885002Y15219241D01*
X183308789Y14582410D01*
X182671958Y16158623D01*
X182671958Y16158623D01*
G37*
D14*
X186133527Y16640433D03*
D15*
X186133527Y16640433D02*
X186133527Y16640433D01*
D14*
X188488574Y17591933D03*
D15*
X188488574Y17591933D02*
X188488574Y17591933D01*
D14*
X190843621Y18543434D03*
D15*
X190843621Y18543434D02*
X190843621Y18543434D01*
D18*
X57022689Y-33631694D03*
D19*
X57149869Y-33370303D02*
X56895509Y-33893085D01*
D18*
X56895510Y-33893085D03*
X62853859Y-34348267D03*
D19*
X63734628Y-33916790D02*
X61973090Y-34779744D01*
D18*
X61973091Y-34779744D03*
D17*
X68473168Y-27612850D03*
D16*
G36*
X66822750Y-28294206D02*
G01*
X67759267Y-25976247D01*
X70123586Y-26931494D01*
X69187069Y-29249453D01*
X66822750Y-28294206D01*
X66822750Y-28294206D01*
G37*
D17*
X55535961Y-25125357D03*
D16*
G36*
X53885543Y-25806713D02*
G01*
X54822060Y-23488754D01*
X57186379Y-24444001D01*
X56249862Y-26761960D01*
X53885543Y-25806713D01*
X53885543Y-25806713D01*
G37*
D17*
X36046434Y-22643751D03*
D16*
G36*
X34396016Y-23325107D02*
G01*
X35332533Y-21007148D01*
X37696852Y-21962395D01*
X36760335Y-24280354D01*
X34396016Y-23325107D01*
X34396016Y-23325107D01*
G37*
D17*
X48983641Y-25131244D03*
D16*
G36*
X47333223Y-25812600D02*
G01*
X48269740Y-23494641D01*
X50634059Y-24449888D01*
X49697542Y-26767847D01*
X47333223Y-25812600D01*
X47333223Y-25812600D01*
G37*
D18*
X42483564Y-32298138D03*
X43364332Y-31866661D03*
D19*
X44245101Y-31435184D02*
X42483563Y-32298138D01*
D18*
X37405983Y-31411479D03*
X37533162Y-31150088D03*
D19*
X37660342Y-30888697D02*
X37405982Y-31411479D01*
D18*
X92620298Y3755605D03*
D19*
X92747478Y4016996D02*
X92493118Y3494214D01*
D18*
X92493119Y3494214D03*
X98451468Y3039032D03*
D19*
X99332237Y3470509D02*
X97570699Y2607555D01*
D18*
X97570700Y2607555D03*
D17*
X104070777Y9774449D03*
D16*
G36*
X102420359Y9093093D02*
G01*
X103356876Y11411052D01*
X105721195Y10455805D01*
X104784678Y8137846D01*
X102420359Y9093093D01*
X102420359Y9093093D01*
G37*
D17*
X91133570Y12261942D03*
D16*
G36*
X89483152Y11580586D02*
G01*
X90419669Y13898545D01*
X92783988Y12943298D01*
X91847471Y10625339D01*
X89483152Y11580586D01*
X89483152Y11580586D01*
G37*
D20*
X142500000Y500000D03*
D21*
X142500000Y-2040000D03*
X142500000Y-4580000D03*
X142500000Y-7120000D03*
D18*
X99737824Y21372099D03*
D19*
X99865004Y21633490D02*
X99610644Y21110708D01*
D18*
X99610645Y21110708D03*
X105568994Y20655526D03*
D19*
X106449763Y21087003D02*
X104688225Y20224049D01*
D18*
X104688226Y20224049D03*
D17*
X111188303Y27390943D03*
D16*
G36*
X109537885Y26709587D02*
G01*
X110474402Y29027546D01*
X112838721Y28072299D01*
X111902204Y25754340D01*
X109537885Y26709587D01*
X109537885Y26709587D01*
G37*
D17*
X98251096Y29878436D03*
D16*
G36*
X96600678Y29197080D02*
G01*
X97537195Y31515039D01*
X99901514Y30559792D01*
X98964997Y28241833D01*
X96600678Y29197080D01*
X96600678Y29197080D01*
G37*
D17*
X117366015Y26469646D03*
D16*
G36*
X115715597Y25788290D02*
G01*
X116652114Y28106249D01*
X119016433Y27151002D01*
X118079916Y24833043D01*
X115715597Y25788290D01*
X115715597Y25788290D01*
G37*
D17*
X130303222Y23982153D03*
D16*
G36*
X128652804Y23300797D02*
G01*
X129589321Y25618756D01*
X131953640Y24663509D01*
X131017123Y22345550D01*
X128652804Y23300797D01*
X128652804Y23300797D01*
G37*
D18*
X123803145Y16815259D03*
X124683913Y17246736D03*
D19*
X125564682Y17678213D02*
X123803144Y16815259D01*
D18*
X118725564Y17701918D03*
X118852743Y17963309D03*
D19*
X118979923Y18224700D02*
X118725563Y17701918D01*
D18*
X223319898Y-35517228D03*
D19*
X223229806Y-35240852D02*
X223409990Y-35793604D01*
D18*
X223409991Y-35793603D03*
X228012264Y-31982016D03*
D19*
X228346107Y-31059804D02*
X227678421Y-32904228D01*
D18*
X227678422Y-32904227D03*
D17*
X227375643Y-23233462D03*
D16*
G36*
X226661742Y-24870065D02*
G01*
X225725225Y-22552106D01*
X228089544Y-21596859D01*
X229026061Y-23914818D01*
X226661742Y-24870065D01*
X226661742Y-24870065D01*
G37*
D17*
X216341438Y-30431049D03*
D16*
G36*
X215627537Y-32067652D02*
G01*
X214691020Y-29749693D01*
X217055339Y-28794446D01*
X217991856Y-31112405D01*
X215627537Y-32067652D01*
X215627537Y-32067652D01*
G37*
D17*
X161628909Y3547461D03*
D16*
G36*
X160915008Y1910858D02*
G01*
X159978491Y4228817D01*
X162342810Y5184064D01*
X163279327Y2866105D01*
X160915008Y1910858D01*
X160915008Y1910858D01*
G37*
D17*
X172663114Y10745048D03*
D16*
G36*
X171949213Y9108445D02*
G01*
X171012696Y11426404D01*
X173377015Y12381651D01*
X174313532Y10063692D01*
X171949213Y9108445D01*
X171949213Y9108445D01*
G37*
D18*
X172965893Y1074283D03*
X173299735Y1996494D03*
D19*
X173633578Y2918706D02*
X172965892Y1074282D01*
D18*
X168697462Y-1815093D03*
X168607369Y-1538718D03*
D19*
X168517277Y-1262342D02*
X168697461Y-1815094D01*
D17*
X175863959Y-31685525D03*
D16*
G36*
X175150058Y-33322128D02*
G01*
X174213541Y-31004169D01*
X176577860Y-30048922D01*
X177514377Y-32366881D01*
X175150058Y-33322128D01*
X175150058Y-33322128D01*
G37*
D17*
X186898164Y-24487938D03*
D16*
G36*
X186184263Y-26124541D02*
G01*
X185247746Y-23806582D01*
X187612065Y-22851335D01*
X188548582Y-25169294D01*
X186184263Y-26124541D01*
X186184263Y-26124541D01*
G37*
D18*
X187200943Y-34158703D03*
X187534785Y-33236492D03*
D19*
X187868628Y-32314280D02*
X187200942Y-34158704D01*
D18*
X182932512Y-37048079D03*
X182842419Y-36771704D03*
D19*
X182752327Y-36495328D02*
X182932511Y-37048080D01*
D18*
X85502773Y-13860888D03*
D19*
X85629953Y-13599497D02*
X85375593Y-14122279D01*
D18*
X85375594Y-14122279D03*
X91333943Y-14577461D03*
D19*
X92214712Y-14145984D02*
X90453174Y-15008938D01*
D18*
X90453175Y-15008938D03*
D17*
X96953252Y-7842044D03*
D16*
G36*
X95302834Y-8523400D02*
G01*
X96239351Y-6205441D01*
X98603670Y-7160688D01*
X97667153Y-9478647D01*
X95302834Y-8523400D01*
X95302834Y-8523400D01*
G37*
D17*
X84016045Y-5354551D03*
D16*
G36*
X82365627Y-6035907D02*
G01*
X83302144Y-3717948D01*
X85666463Y-4673195D01*
X84729946Y-6991154D01*
X82365627Y-6035907D01*
X82365627Y-6035907D01*
G37*
D17*
X168746434Y-14069032D03*
D16*
G36*
X168032533Y-15705635D02*
G01*
X167096016Y-13387676D01*
X169460335Y-12432429D01*
X170396852Y-14750388D01*
X168032533Y-15705635D01*
X168032533Y-15705635D01*
G37*
D17*
X179780639Y-6871445D03*
D16*
G36*
X179066738Y-8508048D02*
G01*
X178130221Y-6190089D01*
X180494540Y-5234842D01*
X181431057Y-7552801D01*
X179066738Y-8508048D01*
X179066738Y-8508048D01*
G37*
D18*
X180083418Y-16542210D03*
X180417260Y-15619999D03*
D19*
X180751103Y-14697787D02*
X180083417Y-16542211D01*
D18*
X175814987Y-19431586D03*
X175724894Y-19155211D03*
D19*
X175634802Y-18878835D02*
X175814986Y-19431587D01*
D17*
X110248490Y8853152D03*
D16*
G36*
X108598072Y8171796D02*
G01*
X109534589Y10489755D01*
X111898908Y9534508D01*
X110962391Y7216549D01*
X108598072Y8171796D01*
X108598072Y8171796D01*
G37*
D17*
X123185697Y6365659D03*
D16*
G36*
X121535279Y5684303D02*
G01*
X122471796Y8002262D01*
X124836115Y7047015D01*
X123899598Y4729056D01*
X121535279Y5684303D01*
X121535279Y5684303D01*
G37*
D18*
X116685620Y-801235D03*
X117566388Y-369758D03*
D19*
X118447157Y61719D02*
X116685619Y-801235D01*
D18*
X111608039Y85424D03*
X111735218Y346815D03*
D19*
X111862398Y608206D02*
X111608038Y85424D01*
D18*
X194839814Y-15746421D03*
D19*
X194749722Y-15470045D02*
X194929906Y-16022797D01*
D18*
X194929907Y-16022796D03*
X199532180Y-12211209D03*
D19*
X199866023Y-11288997D02*
X199198337Y-13133421D01*
D18*
X199198338Y-13133420D03*
D17*
X198895559Y-3462655D03*
D16*
G36*
X198181658Y-5099258D02*
G01*
X197245141Y-2781299D01*
X199609460Y-1826052D01*
X200545977Y-4144011D01*
X198181658Y-5099258D01*
X198181658Y-5099258D01*
G37*
D17*
X187861354Y-10660242D03*
D16*
G36*
X187147453Y-12296845D02*
G01*
X186210936Y-9978886D01*
X188575255Y-9023639D01*
X189511772Y-11341598D01*
X187147453Y-12296845D01*
X187147453Y-12296845D01*
G37*
D17*
X103130965Y-8763341D03*
D16*
G36*
X101480547Y-9444697D02*
G01*
X102417064Y-7126738D01*
X104781383Y-8081985D01*
X103844866Y-10399944D01*
X101480547Y-9444697D01*
X101480547Y-9444697D01*
G37*
D17*
X116068172Y-11250834D03*
D16*
G36*
X114417754Y-11932190D02*
G01*
X115354271Y-9614231D01*
X117718590Y-10569478D01*
X116782073Y-12887437D01*
X114417754Y-11932190D01*
X114417754Y-11932190D01*
G37*
D18*
X109568095Y-18417728D03*
X110448863Y-17986251D03*
D19*
X111329632Y-17554774D02*
X109568094Y-18417728D01*
D18*
X104490514Y-17531069D03*
X104617693Y-17269678D03*
D19*
X104744873Y-17008287D02*
X104490513Y-17531069D01*
D18*
X78385248Y-31477381D03*
D19*
X78512428Y-31215990D02*
X78258068Y-31738772D01*
D18*
X78258069Y-31738772D03*
X84216418Y-32193954D03*
D19*
X85097187Y-31762477D02*
X83335649Y-32625431D01*
D18*
X83335650Y-32625431D03*
D17*
X89835727Y-25458537D03*
D16*
G36*
X88185309Y-26139893D02*
G01*
X89121826Y-23821934D01*
X91486145Y-24777181D01*
X90549628Y-27095140D01*
X88185309Y-26139893D01*
X88185309Y-26139893D01*
G37*
D17*
X76898520Y-22971044D03*
D16*
G36*
X75248102Y-23652400D02*
G01*
X76184619Y-21334441D01*
X78548938Y-22289688D01*
X77612421Y-24607647D01*
X75248102Y-23652400D01*
X75248102Y-23652400D01*
G37*
D17*
X96013439Y-26379834D03*
D16*
G36*
X94363021Y-27061190D02*
G01*
X95299538Y-24743231D01*
X97663857Y-25698478D01*
X96727340Y-28016437D01*
X94363021Y-27061190D01*
X94363021Y-27061190D01*
G37*
D17*
X108950646Y-28867327D03*
D16*
G36*
X107300228Y-29548683D02*
G01*
X108236745Y-27230724D01*
X110601064Y-28185971D01*
X109664547Y-30503930D01*
X107300228Y-29548683D01*
X107300228Y-29548683D01*
G37*
D18*
X102450569Y-36034221D03*
X103331337Y-35602744D03*
D19*
X104212106Y-35171267D02*
X102450568Y-36034221D01*
D18*
X97372988Y-35147562D03*
X97500167Y-34886171D03*
D19*
X97627347Y-34624780D02*
X97372987Y-35147562D01*
D18*
X187722288Y1870072D03*
D19*
X187632196Y2146448D02*
X187812380Y1593696D01*
D18*
X187812381Y1593697D03*
X192414654Y5405284D03*
D19*
X192748497Y6327496D02*
X192080811Y4483072D01*
D18*
X192080812Y4483073D03*
D17*
X191778033Y14153838D03*
D16*
G36*
X191064132Y12517235D02*
G01*
X190127615Y14835194D01*
X192491934Y15790441D01*
X193428451Y13472482D01*
X191064132Y12517235D01*
X191064132Y12517235D01*
G37*
D17*
X180743828Y6956251D03*
D16*
G36*
X180029927Y5319648D02*
G01*
X179093410Y7637607D01*
X181457729Y8592854D01*
X182394246Y6274895D01*
X180029927Y5319648D01*
X180029927Y5319648D01*
G37*
D18*
X201957339Y-33362914D03*
D19*
X201867247Y-33086538D02*
X202047431Y-33639290D01*
D18*
X202047432Y-33639289D03*
X206649705Y-29827702D03*
D19*
X206983548Y-28905490D02*
X206315862Y-30749914D01*
D18*
X206315863Y-30749913D03*
D17*
X206013084Y-21079148D03*
D16*
G36*
X205299183Y-22715751D02*
G01*
X204362666Y-20397792D01*
X206726985Y-19442545D01*
X207663502Y-21760504D01*
X205299183Y-22715751D01*
X205299183Y-22715751D01*
G37*
D17*
X194978879Y-28276735D03*
D16*
G36*
X194264978Y-29913338D02*
G01*
X193328461Y-27595379D01*
X195692780Y-26640132D01*
X196629297Y-28958091D01*
X194264978Y-29913338D01*
X194264978Y-29913338D01*
G37*
D18*
X180604763Y19486565D03*
D19*
X180514671Y19762941D02*
X180694855Y19210189D01*
D18*
X180694856Y19210190D03*
X185297129Y23021777D03*
D19*
X185630972Y23943989D02*
X184963286Y22099565D01*
D18*
X184963287Y22099566D03*
D17*
X184660508Y31770331D03*
D16*
G36*
X183946607Y30133728D02*
G01*
X183010090Y32451687D01*
X185374409Y33406934D01*
X186310926Y31088975D01*
X183946607Y30133728D01*
X183946607Y30133728D01*
G37*
D17*
X173626303Y24572744D03*
D16*
G36*
X172912402Y22936141D02*
G01*
X171975885Y25254100D01*
X174340204Y26209347D01*
X175276721Y23891388D01*
X172912402Y22936141D01*
X172912402Y22936141D01*
G37*
D17*
X154511384Y21163955D03*
D16*
G36*
X153797483Y19527352D02*
G01*
X152860966Y21845311D01*
X155225285Y22800558D01*
X156161802Y20482599D01*
X153797483Y19527352D01*
X153797483Y19527352D01*
G37*
D17*
X165545589Y28361542D03*
D16*
G36*
X164831688Y26724939D02*
G01*
X163895171Y29042898D01*
X166259490Y29998145D01*
X167196007Y27680186D01*
X164831688Y26724939D01*
X164831688Y26724939D01*
G37*
D18*
X165848368Y18690777D03*
X166182210Y19612988D03*
D19*
X166516053Y20535200D02*
X165848367Y18690776D01*
D18*
X161579937Y15801401D03*
X161489844Y16077776D03*
D19*
X161399752Y16354152D02*
X161579936Y15801400D01*
D22*
X136800000Y-76000000D03*
X144800000Y-76000000D03*
D23*
X138800000Y-76000000D03*
D24*
X140800000Y-76000000D03*
X142800000Y-76000000D03*
D16*
G36*
X183380142Y-67051174D02*
G01*
X183403803Y-67054684D01*
X183427007Y-67060496D01*
X183449529Y-67068554D01*
X183471153Y-67078782D01*
X183491670Y-67091079D01*
X183510883Y-67105329D01*
X183528607Y-67121393D01*
X183544671Y-67139117D01*
X183558921Y-67158330D01*
X183571218Y-67178847D01*
X183581446Y-67200471D01*
X183589504Y-67222993D01*
X183595316Y-67246197D01*
X183598826Y-67269858D01*
X183600000Y-67293750D01*
X183600000Y-67781250D01*
X183598826Y-67805142D01*
X183595316Y-67828803D01*
X183589504Y-67852007D01*
X183581446Y-67874529D01*
X183571218Y-67896153D01*
X183558921Y-67916670D01*
X183544671Y-67935883D01*
X183528607Y-67953607D01*
X183510883Y-67969671D01*
X183491670Y-67983921D01*
X183471153Y-67996218D01*
X183449529Y-68006446D01*
X183427007Y-68014504D01*
X183403803Y-68020316D01*
X183380142Y-68023826D01*
X183356250Y-68025000D01*
X182443750Y-68025000D01*
X182419858Y-68023826D01*
X182396197Y-68020316D01*
X182372993Y-68014504D01*
X182350471Y-68006446D01*
X182328847Y-67996218D01*
X182308330Y-67983921D01*
X182289117Y-67969671D01*
X182271393Y-67953607D01*
X182255329Y-67935883D01*
X182241079Y-67916670D01*
X182228782Y-67896153D01*
X182218554Y-67874529D01*
X182210496Y-67852007D01*
X182204684Y-67828803D01*
X182201174Y-67805142D01*
X182200000Y-67781250D01*
X182200000Y-67293750D01*
X182201174Y-67269858D01*
X182204684Y-67246197D01*
X182210496Y-67222993D01*
X182218554Y-67200471D01*
X182228782Y-67178847D01*
X182241079Y-67158330D01*
X182255329Y-67139117D01*
X182271393Y-67121393D01*
X182289117Y-67105329D01*
X182308330Y-67091079D01*
X182328847Y-67078782D01*
X182350471Y-67068554D01*
X182372993Y-67060496D01*
X182396197Y-67054684D01*
X182419858Y-67051174D01*
X182443750Y-67050000D01*
X183356250Y-67050000D01*
X183380142Y-67051174D01*
X183380142Y-67051174D01*
G37*
D25*
X182900000Y-67537500D03*
D16*
G36*
X183380142Y-65176174D02*
G01*
X183403803Y-65179684D01*
X183427007Y-65185496D01*
X183449529Y-65193554D01*
X183471153Y-65203782D01*
X183491670Y-65216079D01*
X183510883Y-65230329D01*
X183528607Y-65246393D01*
X183544671Y-65264117D01*
X183558921Y-65283330D01*
X183571218Y-65303847D01*
X183581446Y-65325471D01*
X183589504Y-65347993D01*
X183595316Y-65371197D01*
X183598826Y-65394858D01*
X183600000Y-65418750D01*
X183600000Y-65906250D01*
X183598826Y-65930142D01*
X183595316Y-65953803D01*
X183589504Y-65977007D01*
X183581446Y-65999529D01*
X183571218Y-66021153D01*
X183558921Y-66041670D01*
X183544671Y-66060883D01*
X183528607Y-66078607D01*
X183510883Y-66094671D01*
X183491670Y-66108921D01*
X183471153Y-66121218D01*
X183449529Y-66131446D01*
X183427007Y-66139504D01*
X183403803Y-66145316D01*
X183380142Y-66148826D01*
X183356250Y-66150000D01*
X182443750Y-66150000D01*
X182419858Y-66148826D01*
X182396197Y-66145316D01*
X182372993Y-66139504D01*
X182350471Y-66131446D01*
X182328847Y-66121218D01*
X182308330Y-66108921D01*
X182289117Y-66094671D01*
X182271393Y-66078607D01*
X182255329Y-66060883D01*
X182241079Y-66041670D01*
X182228782Y-66021153D01*
X182218554Y-65999529D01*
X182210496Y-65977007D01*
X182204684Y-65953803D01*
X182201174Y-65930142D01*
X182200000Y-65906250D01*
X182200000Y-65418750D01*
X182201174Y-65394858D01*
X182204684Y-65371197D01*
X182210496Y-65347993D01*
X182218554Y-65325471D01*
X182228782Y-65303847D01*
X182241079Y-65283330D01*
X182255329Y-65264117D01*
X182271393Y-65246393D01*
X182289117Y-65230329D01*
X182308330Y-65216079D01*
X182328847Y-65203782D01*
X182350471Y-65193554D01*
X182372993Y-65185496D01*
X182396197Y-65179684D01*
X182419858Y-65176174D01*
X182443750Y-65175000D01*
X183356250Y-65175000D01*
X183380142Y-65176174D01*
X183380142Y-65176174D01*
G37*
D25*
X182900000Y-65662500D03*
D16*
G36*
X181380142Y-65176174D02*
G01*
X181403803Y-65179684D01*
X181427007Y-65185496D01*
X181449529Y-65193554D01*
X181471153Y-65203782D01*
X181491670Y-65216079D01*
X181510883Y-65230329D01*
X181528607Y-65246393D01*
X181544671Y-65264117D01*
X181558921Y-65283330D01*
X181571218Y-65303847D01*
X181581446Y-65325471D01*
X181589504Y-65347993D01*
X181595316Y-65371197D01*
X181598826Y-65394858D01*
X181600000Y-65418750D01*
X181600000Y-65906250D01*
X181598826Y-65930142D01*
X181595316Y-65953803D01*
X181589504Y-65977007D01*
X181581446Y-65999529D01*
X181571218Y-66021153D01*
X181558921Y-66041670D01*
X181544671Y-66060883D01*
X181528607Y-66078607D01*
X181510883Y-66094671D01*
X181491670Y-66108921D01*
X181471153Y-66121218D01*
X181449529Y-66131446D01*
X181427007Y-66139504D01*
X181403803Y-66145316D01*
X181380142Y-66148826D01*
X181356250Y-66150000D01*
X180443750Y-66150000D01*
X180419858Y-66148826D01*
X180396197Y-66145316D01*
X180372993Y-66139504D01*
X180350471Y-66131446D01*
X180328847Y-66121218D01*
X180308330Y-66108921D01*
X180289117Y-66094671D01*
X180271393Y-66078607D01*
X180255329Y-66060883D01*
X180241079Y-66041670D01*
X180228782Y-66021153D01*
X180218554Y-65999529D01*
X180210496Y-65977007D01*
X180204684Y-65953803D01*
X180201174Y-65930142D01*
X180200000Y-65906250D01*
X180200000Y-65418750D01*
X180201174Y-65394858D01*
X180204684Y-65371197D01*
X180210496Y-65347993D01*
X180218554Y-65325471D01*
X180228782Y-65303847D01*
X180241079Y-65283330D01*
X180255329Y-65264117D01*
X180271393Y-65246393D01*
X180289117Y-65230329D01*
X180308330Y-65216079D01*
X180328847Y-65203782D01*
X180350471Y-65193554D01*
X180372993Y-65185496D01*
X180396197Y-65179684D01*
X180419858Y-65176174D01*
X180443750Y-65175000D01*
X181356250Y-65175000D01*
X181380142Y-65176174D01*
X181380142Y-65176174D01*
G37*
D25*
X180900000Y-65662500D03*
D16*
G36*
X181380142Y-67051174D02*
G01*
X181403803Y-67054684D01*
X181427007Y-67060496D01*
X181449529Y-67068554D01*
X181471153Y-67078782D01*
X181491670Y-67091079D01*
X181510883Y-67105329D01*
X181528607Y-67121393D01*
X181544671Y-67139117D01*
X181558921Y-67158330D01*
X181571218Y-67178847D01*
X181581446Y-67200471D01*
X181589504Y-67222993D01*
X181595316Y-67246197D01*
X181598826Y-67269858D01*
X181600000Y-67293750D01*
X181600000Y-67781250D01*
X181598826Y-67805142D01*
X181595316Y-67828803D01*
X181589504Y-67852007D01*
X181581446Y-67874529D01*
X181571218Y-67896153D01*
X181558921Y-67916670D01*
X181544671Y-67935883D01*
X181528607Y-67953607D01*
X181510883Y-67969671D01*
X181491670Y-67983921D01*
X181471153Y-67996218D01*
X181449529Y-68006446D01*
X181427007Y-68014504D01*
X181403803Y-68020316D01*
X181380142Y-68023826D01*
X181356250Y-68025000D01*
X180443750Y-68025000D01*
X180419858Y-68023826D01*
X180396197Y-68020316D01*
X180372993Y-68014504D01*
X180350471Y-68006446D01*
X180328847Y-67996218D01*
X180308330Y-67983921D01*
X180289117Y-67969671D01*
X180271393Y-67953607D01*
X180255329Y-67935883D01*
X180241079Y-67916670D01*
X180228782Y-67896153D01*
X180218554Y-67874529D01*
X180210496Y-67852007D01*
X180204684Y-67828803D01*
X180201174Y-67805142D01*
X180200000Y-67781250D01*
X180200000Y-67293750D01*
X180201174Y-67269858D01*
X180204684Y-67246197D01*
X180210496Y-67222993D01*
X180218554Y-67200471D01*
X180228782Y-67178847D01*
X180241079Y-67158330D01*
X180255329Y-67139117D01*
X180271393Y-67121393D01*
X180289117Y-67105329D01*
X180308330Y-67091079D01*
X180328847Y-67078782D01*
X180350471Y-67068554D01*
X180372993Y-67060496D01*
X180396197Y-67054684D01*
X180419858Y-67051174D01*
X180443750Y-67050000D01*
X181356250Y-67050000D01*
X181380142Y-67051174D01*
X181380142Y-67051174D01*
G37*
D25*
X180900000Y-67537500D03*
D21*
X143940000Y-33200000D03*
D20*
X141400000Y-33200000D03*
D26*
X162850000Y-11600000D03*
X159550000Y-11600000D03*
X162850000Y-14000000D03*
X159550000Y-14000000D03*
X162850000Y-16400000D03*
X159550000Y-16400000D03*
X162850000Y-18800000D03*
X159550000Y-18800000D03*
X162850000Y-21250000D03*
X159550000Y-21250000D03*
D27*
X97900000Y-52650000D03*
X97900000Y-55950000D03*
D26*
X162850000Y-6700000D03*
X159550000Y-6700000D03*
D27*
X95400000Y-55950000D03*
X95400000Y-52650000D03*
D26*
X121750000Y-20650000D03*
X125050000Y-20650000D03*
X121750000Y-35600000D03*
X125050000Y-35600000D03*
X121750000Y-23098888D03*
X125050000Y-23098888D03*
X121750000Y-25597776D03*
X125050000Y-25597776D03*
X121750000Y-28096664D03*
X125050000Y-28096664D03*
X121750000Y-30595552D03*
X125050000Y-30595552D03*
D27*
X203111530Y-45650000D03*
X203111530Y-48950000D03*
X200292300Y-45650000D03*
X200292300Y-48950000D03*
X186276920Y-48950000D03*
X186276920Y-45650000D03*
X189096150Y-48950000D03*
X189096150Y-45650000D03*
X191915380Y-48950000D03*
X191915380Y-45650000D03*
X194734610Y-48950000D03*
X194734610Y-45650000D03*
X175000000Y-48950000D03*
X175000000Y-45650000D03*
X177819230Y-48950000D03*
X177819230Y-45650000D03*
X180638460Y-48950000D03*
X180638460Y-45650000D03*
X183457690Y-48950000D03*
X183457690Y-45650000D03*
D26*
X162850000Y-23700000D03*
X159550000Y-23700000D03*
X162850000Y-26250000D03*
X159550000Y-26250000D03*
X162850000Y-28750000D03*
X159550000Y-28750000D03*
X162850000Y-31250000D03*
X159550000Y-31250000D03*
D27*
X208750000Y-45650000D03*
X208750000Y-48950000D03*
X205930760Y-45650000D03*
X205930760Y-48950000D03*
X197473070Y-45650000D03*
X197473070Y-48950000D03*
D26*
X162850000Y-38712500D03*
X159550000Y-38712500D03*
X162850000Y-36250000D03*
X159550000Y-36250000D03*
X162850000Y-41200000D03*
X159550000Y-41200000D03*
X162850000Y-33750000D03*
X159550000Y-33750000D03*
X162850000Y-9150000D03*
X159550000Y-9150000D03*
D27*
X85054545Y-43700000D03*
X85054545Y-47000000D03*
D26*
X121750000Y-33100000D03*
X125050000Y-33100000D03*
X121750000Y-18150000D03*
X125050000Y-18150000D03*
D27*
X75272729Y-43700000D03*
X75272729Y-47000000D03*
X72827275Y-43700000D03*
X72827275Y-47000000D03*
X82609091Y-43700000D03*
X82609091Y-47000000D03*
D26*
X121750000Y-40590000D03*
X125050000Y-40590000D03*
X121750000Y-38100000D03*
X125050000Y-38100000D03*
D27*
X77718183Y-43700000D03*
X77718183Y-47000000D03*
X80163637Y-43700000D03*
X80163637Y-47000000D03*
X85527270Y-52650000D03*
X85527270Y-55950000D03*
X87972733Y-52650000D03*
X87972733Y-55950000D03*
X90418187Y-52650000D03*
X90418187Y-55950000D03*
X92863641Y-52650000D03*
X92863641Y-55950000D03*
X98200000Y-43700000D03*
X98200000Y-47000000D03*
X95600000Y-43700000D03*
X95600000Y-47000000D03*
X93000000Y-43700000D03*
X93000000Y-47000000D03*
X90400000Y-43700000D03*
X90400000Y-47000000D03*
X108550000Y-43700000D03*
X108550000Y-47000000D03*
X105950000Y-43700000D03*
X105950000Y-47000000D03*
X103350000Y-43700000D03*
X103350000Y-47000000D03*
X100750000Y-43700000D03*
X100750000Y-47000000D03*
D28*
X233611994Y-35163996D03*
X100750000Y-42650000D03*
X103350000Y-42700000D03*
X105950000Y-42750000D03*
X108550000Y-42650000D03*
X90350000Y-42200000D03*
X92900000Y-42300000D03*
X95600000Y-42450000D03*
X98200000Y-42550000D03*
X120250000Y-38100000D03*
X99250000Y-18300000D03*
X91100000Y-18050002D03*
X120299984Y-40550000D03*
X120750000Y-18150000D03*
X120500000Y-33100000D03*
X164300000Y-41300000D03*
X164250000Y-36250000D03*
X164237500Y-38712500D03*
X186310969Y-16300000D03*
X164050000Y-31300000D03*
X164150000Y-28750000D03*
X164150000Y-26250000D03*
X164000000Y-23700000D03*
X183450000Y-44550000D03*
X180650000Y-44600000D03*
X177850000Y-44600000D03*
X175000000Y-44650000D03*
X106004398Y16989730D03*
X94171973Y18540949D03*
X70250000Y-35750000D03*
X137911322Y-61198391D03*
X127350000Y-43300000D03*
X138950000Y-42999998D03*
X71150000Y-42150000D03*
X194100000Y-61900000D03*
X105894355Y15995801D03*
X96527020Y17589448D03*
X137000000Y-60350000D03*
X137350000Y-43350000D03*
X128399039Y-43449041D03*
X105905647Y14956361D03*
X131800000Y-61450002D03*
X105847170Y13958060D03*
X132100000Y-60300000D03*
X112450000Y-46139030D03*
X132300000Y-41900000D03*
X166450000Y-44400000D03*
X151150000Y-44350000D03*
X156800000Y-44400000D03*
X214700000Y-51400008D03*
X87550000Y-42500000D03*
X166550000Y-45550000D03*
X150120000Y-45550002D03*
X89300000Y-48999998D03*
X208400000Y-52200000D03*
X130750000Y-64250000D03*
X129950000Y-63400000D03*
X148100000Y-49150000D03*
X149100000Y-48800000D03*
X120550000Y-30650000D03*
X120600000Y-28100000D03*
X120552224Y-25597776D03*
X120600000Y-23150000D03*
X120392216Y-35592216D03*
X103300000Y13050000D03*
X120700000Y-20650000D03*
X164050000Y-21300000D03*
X163950000Y-18800000D03*
X163950000Y-16450000D03*
X164000000Y-14000000D03*
X164000000Y-11600000D03*
X194750000Y-44350000D03*
X191900000Y-44400000D03*
X189100000Y-44400000D03*
X186277049Y-44589041D03*
D29*
X142570000Y430000D02*
X142500000Y500000D01*
X150120000Y430000D02*
X142570000Y430000D01*
X134950000Y-2040000D02*
X134880000Y-2110000D01*
X142500000Y-2040000D02*
X134950000Y-2040000D01*
X233611994Y-35540000D02*
X233611994Y-35163996D01*
X245844782Y-35540000D02*
X233611994Y-35540000D01*
X252484731Y-28900051D02*
X245844782Y-35540000D01*
X142500000Y500000D02*
X142500000Y-7120000D01*
X143940000Y-8560000D02*
X143940000Y-33200000D01*
X142500000Y-7120000D02*
X143940000Y-8560000D01*
D30*
X100750000Y-43700000D02*
X100750000Y-42996000D01*
X100750000Y-42996000D02*
X100750000Y-42650000D01*
X103350000Y-43700000D02*
X103350000Y-42996000D01*
X103350000Y-42996000D02*
X103350000Y-42700000D01*
X105950000Y-43700000D02*
X105950000Y-42750000D01*
X108550000Y-43700000D02*
X108550000Y-42996000D01*
X108550000Y-42996000D02*
X108550000Y-42650000D01*
X90400000Y-42996000D02*
X90350000Y-42946000D01*
X90400000Y-43700000D02*
X90400000Y-42996000D01*
X90350000Y-42946000D02*
X90350000Y-42200000D01*
X93000000Y-43700000D02*
X93000000Y-42400000D01*
X93000000Y-42400000D02*
X92900000Y-42300000D01*
X95600000Y-43700000D02*
X95600000Y-42996000D01*
X95600000Y-42996000D02*
X95600000Y-42450000D01*
X98200000Y-43700000D02*
X98200000Y-42550000D01*
X86350000Y-66397627D02*
X85936497Y-66811130D01*
X86350000Y-63167641D02*
X86350000Y-66397627D01*
X92863641Y-55950000D02*
X92863641Y-56654000D01*
X92863641Y-56654000D02*
X86350000Y-63167641D01*
X83907962Y-63164225D02*
X83907962Y-64080439D01*
X83907962Y-64080439D02*
X83907962Y-65282520D01*
X90418187Y-56654000D02*
X83907962Y-63164225D01*
X90418187Y-55950000D02*
X90418187Y-56654000D01*
X81879428Y-62612241D02*
X81879428Y-63753910D01*
X87972733Y-55950000D02*
X87972733Y-56518936D01*
X87972733Y-56518936D02*
X81879428Y-62612241D01*
X79955970Y-62225300D02*
X79850894Y-62225300D01*
X85527270Y-56654000D02*
X79955970Y-62225300D01*
X85527270Y-55950000D02*
X85527270Y-56654000D01*
X55770511Y-32768086D02*
X56895510Y-33893085D01*
X54505036Y-31502611D02*
X55770511Y-32768086D01*
X54505036Y-26156282D02*
X54505036Y-31502611D01*
X55535961Y-25125357D02*
X54505036Y-26156282D01*
X58020509Y-35018084D02*
X56895510Y-33893085D01*
X62102425Y-39100000D02*
X58020509Y-35018084D01*
X79150000Y-39100000D02*
X62102425Y-39100000D01*
X80163637Y-43700000D02*
X80163637Y-40113637D01*
X80163637Y-40113637D02*
X79150000Y-39100000D01*
X34497743Y-24192442D02*
X36046434Y-22643751D01*
X34433864Y-24192442D02*
X34497743Y-24192442D01*
X35050000Y-24808578D02*
X34433864Y-24192442D01*
X37660342Y-30888697D02*
X35050000Y-28278355D01*
X35050000Y-28278355D02*
X35050000Y-24808578D01*
X61914367Y-39554010D02*
X61764367Y-39404010D01*
X77718183Y-43700000D02*
X77718183Y-40368183D01*
X77718183Y-40368183D02*
X76904011Y-39554011D01*
X40994504Y-35000000D02*
X38530982Y-32536478D01*
X38530982Y-32536478D02*
X37405983Y-31411479D01*
X57354010Y-39404010D02*
X52950000Y-35000000D01*
X61764367Y-39404010D02*
X57354010Y-39404010D01*
X52950000Y-35000000D02*
X40994504Y-35000000D01*
X76904011Y-39554011D02*
X61914367Y-39554010D01*
X121741104Y-38100000D02*
X120815685Y-38100000D01*
X120815685Y-38100000D02*
X120250000Y-38100000D01*
X121750000Y-38091104D02*
X121741104Y-38100000D01*
X90360000Y6404474D02*
X92747478Y4016996D01*
X91133570Y12261942D02*
X90360000Y11488372D01*
X90360000Y11488372D02*
X90360000Y6404474D01*
X84250595Y-12997280D02*
X85375594Y-14122279D01*
X82985120Y-11731805D02*
X84250595Y-12997280D01*
X82985120Y-6385476D02*
X82985120Y-11731805D01*
X84016045Y-5354551D02*
X82985120Y-6385476D01*
X99250000Y-18300000D02*
X91349998Y-18300000D01*
X91349998Y-18300000D02*
X91100000Y-18050002D01*
X121750000Y-40590000D02*
X120339984Y-40590000D01*
X120339984Y-40590000D02*
X120299984Y-40550000D01*
X82609091Y-36089794D02*
X78258069Y-31738772D01*
X82609091Y-43700000D02*
X82609091Y-36089794D01*
X77133070Y-30613773D02*
X78258069Y-31738772D01*
X76230000Y-29710703D02*
X77133070Y-30613773D01*
X76898520Y-22971044D02*
X76230000Y-23639564D01*
X76230000Y-23639564D02*
X76230000Y-29710703D01*
X69561599Y-42012439D02*
X69561599Y-53309016D01*
X72158961Y-41082999D02*
X70491039Y-41082999D01*
X69561599Y-53309016D02*
X69561599Y-54511097D01*
X72827275Y-43700000D02*
X72827275Y-41751313D01*
X72827275Y-41751313D02*
X72158961Y-41082999D01*
X70491039Y-41082999D02*
X69561599Y-42012439D01*
X75272729Y-42996000D02*
X72795718Y-40518989D01*
X67533065Y-43398905D02*
X67533065Y-51780406D01*
X70412981Y-40518989D02*
X67533065Y-43398905D01*
X67533065Y-51780406D02*
X67533065Y-52982487D01*
X75272729Y-43700000D02*
X75272729Y-42996000D01*
X72795718Y-40518989D02*
X70412981Y-40518989D01*
X109217565Y3253039D02*
X111862398Y608206D01*
X109217565Y7822227D02*
X109217565Y3253039D01*
X110248490Y8853152D02*
X109217565Y7822227D01*
X121750000Y-18150000D02*
X120750000Y-18150000D01*
X102100040Y-14363454D02*
X104744873Y-17008287D01*
X102100040Y-9794266D02*
X102100040Y-14363454D01*
X103130965Y-8763341D02*
X102100040Y-9794266D01*
X121750000Y-33100000D02*
X121046000Y-33100000D01*
X121046000Y-33100000D02*
X120500000Y-33100000D01*
X94982514Y-31979947D02*
X97627347Y-34624780D01*
X94982514Y-27410759D02*
X94982514Y-31979947D01*
X96013439Y-26379834D02*
X94982514Y-27410759D01*
X85054545Y-36045455D02*
X85054545Y-43700000D01*
X97627347Y-34624780D02*
X86475220Y-34624780D01*
X86475220Y-34624780D02*
X85054545Y-36045455D01*
X161628909Y2099293D02*
X161628909Y3547461D01*
X164990544Y-1262342D02*
X161628909Y2099293D01*
X168517277Y-1262342D02*
X164990544Y-1262342D01*
X168517277Y-5732723D02*
X168517277Y-1262342D01*
X162850000Y-9150000D02*
X165100000Y-9150000D01*
X165100000Y-9150000D02*
X168517277Y-5732723D01*
X168746434Y-15517200D02*
X168746434Y-14069032D01*
X172108069Y-18878835D02*
X168746434Y-15517200D01*
X175634802Y-18878835D02*
X172108069Y-18878835D01*
X175634802Y-26565198D02*
X175634802Y-18878835D01*
X162850000Y-33750000D02*
X168450000Y-33750000D01*
X168450000Y-33750000D02*
X175634802Y-26565198D01*
X175863959Y-33133693D02*
X175863959Y-31685525D01*
X179225594Y-36495328D02*
X175863959Y-33133693D01*
X182752327Y-36495328D02*
X179225594Y-36495328D01*
X162900000Y-41300000D02*
X163604000Y-41300000D01*
X163604000Y-41300000D02*
X164300000Y-41300000D01*
X180743828Y5508083D02*
X180743828Y6956251D01*
X184105463Y2146448D02*
X180743828Y5508083D01*
X187632196Y2146448D02*
X184105463Y2146448D01*
X162900000Y-36250000D02*
X163604000Y-36250000D01*
X163604000Y-36250000D02*
X164250000Y-36250000D01*
X187861354Y-12108410D02*
X187861354Y-10660242D01*
X191222989Y-15470045D02*
X187861354Y-12108410D01*
X194749722Y-15470045D02*
X191222989Y-15470045D01*
X162900000Y-38712500D02*
X164237500Y-38712500D01*
X186350000Y-12171596D02*
X187861354Y-10660242D01*
X186310969Y-16300000D02*
X186350000Y-16260969D01*
X186350000Y-16260969D02*
X186350000Y-12171596D01*
X197473070Y-38213651D02*
X202047432Y-33639289D01*
X197473070Y-45650000D02*
X197473070Y-38213651D01*
X194978879Y-29724903D02*
X194978879Y-28276735D01*
X198340514Y-33086538D02*
X194978879Y-29724903D01*
X201867247Y-33086538D02*
X198340514Y-33086538D01*
X217517094Y-51778611D02*
X217517094Y-52980692D01*
X217517094Y-48875026D02*
X217517094Y-51778611D01*
X211688058Y-43045990D02*
X217517094Y-48875026D01*
X206954010Y-43045990D02*
X211688058Y-43045990D01*
X205930760Y-45650000D02*
X205930760Y-44069240D01*
X205930760Y-44069240D02*
X206954010Y-43045990D01*
X215488560Y-53307221D02*
X215488560Y-54509302D01*
X215488560Y-47488560D02*
X215488560Y-53307221D01*
X209400000Y-43500000D02*
X211500000Y-43500000D01*
X208750000Y-44150000D02*
X209400000Y-43500000D01*
X211500000Y-43500000D02*
X215488560Y-47488560D01*
X208750000Y-45650000D02*
X208750000Y-44150000D01*
X163554000Y-31250000D02*
X163604000Y-31300000D01*
X162850000Y-31250000D02*
X163554000Y-31250000D01*
X163604000Y-31300000D02*
X164050000Y-31300000D01*
X162850000Y-28750000D02*
X164150000Y-28750000D01*
X162850000Y-26250000D02*
X164150000Y-26250000D01*
X162850000Y-23700000D02*
X164000000Y-23700000D01*
X183457690Y-44946000D02*
X183450000Y-44938310D01*
X183457690Y-45650000D02*
X183457690Y-44946000D01*
X183450000Y-44938310D02*
X183450000Y-44550000D01*
X180638460Y-44946000D02*
X180650000Y-44934460D01*
X180638460Y-45650000D02*
X180638460Y-44946000D01*
X180650000Y-44934460D02*
X180650000Y-44600000D01*
X177819230Y-44946000D02*
X177850000Y-44915230D01*
X177819230Y-45650000D02*
X177819230Y-44946000D01*
X177850000Y-44915230D02*
X177850000Y-44600000D01*
X175000000Y-45650000D02*
X175000000Y-44946000D01*
X175000000Y-44946000D02*
X175000000Y-44650000D01*
X214866306Y-30431049D02*
X216341438Y-30431049D01*
X214807251Y-30431049D02*
X214866306Y-30431049D01*
X200292300Y-44946000D02*
X214807251Y-30431049D01*
X200292300Y-45650000D02*
X200292300Y-44946000D01*
X216341438Y-31879217D02*
X216341438Y-30431049D01*
X219703073Y-35240852D02*
X216341438Y-31879217D01*
X223229806Y-35240852D02*
X219703073Y-35240852D01*
X235830964Y-29397611D02*
X235830964Y-27949443D01*
X239192599Y-32759246D02*
X235830964Y-29397611D01*
X242719332Y-32759246D02*
X239192599Y-32759246D01*
X242337520Y-32750000D02*
X242899517Y-33311997D01*
X231560000Y-32750000D02*
X242337520Y-32750000D01*
X225110000Y-39200000D02*
X231560000Y-32750000D01*
X206700000Y-39200000D02*
X225110000Y-39200000D01*
X203111530Y-45650000D02*
X203111530Y-42788470D01*
X203111530Y-42788470D02*
X206700000Y-39200000D01*
X228406568Y-24264387D02*
X227375643Y-23233462D01*
X231050000Y-26907819D02*
X228406568Y-24264387D01*
X231050000Y-28355911D02*
X231050000Y-26907819D01*
X228346107Y-31059804D02*
X231050000Y-28355911D01*
X106004398Y16945602D02*
X106004398Y16989730D01*
X109045990Y13904010D02*
X106004398Y16945602D01*
X121295990Y13904010D02*
X109045990Y13904010D01*
X134880000Y2970000D02*
X134710000Y2800000D01*
X121295990Y13904008D02*
X127854010Y7345988D01*
X121295990Y13904010D02*
X121295990Y13904008D01*
X127854010Y7345988D02*
X127854010Y4138056D01*
X129022066Y2970000D02*
X134880000Y2970000D01*
X127854010Y4138056D02*
X129022066Y2970000D01*
X138550001Y-42599999D02*
X138950000Y-42999998D01*
X132748962Y-42627002D02*
X132775965Y-42599999D01*
X132775965Y-42599999D02*
X138550001Y-42599999D01*
X128022998Y-42627002D02*
X132748962Y-42627002D01*
X127350000Y-43300000D02*
X128022998Y-42627002D01*
X69850001Y-35350001D02*
X70250000Y-35750000D01*
X68430000Y-33930000D02*
X69850001Y-35350001D01*
X61973091Y-34779744D02*
X62822835Y-33930000D01*
X62822835Y-33930000D02*
X68430000Y-33930000D01*
X68473168Y-29061018D02*
X68473168Y-27612850D01*
X68473168Y-33806832D02*
X68473168Y-29061018D01*
X63734628Y-33916790D02*
X68363210Y-33916790D01*
X68363210Y-33916790D02*
X68473168Y-33806832D01*
X71150000Y-42150000D02*
X71110000Y-42190000D01*
X138477007Y-61198391D02*
X137911322Y-61198391D01*
X138675398Y-61000000D02*
X138477007Y-61198391D01*
X199105676Y-66815353D02*
X193290323Y-61000000D01*
X193290323Y-61000000D02*
X138675398Y-61000000D01*
X48983641Y-26579412D02*
X48983641Y-25131244D01*
X48983641Y-30016359D02*
X48983641Y-26579412D01*
X44245101Y-31435184D02*
X47564816Y-31435184D01*
X47564816Y-31435184D02*
X48983641Y-30016359D01*
X246150000Y-21467025D02*
X246865169Y-20751856D01*
X247835633Y-28578198D02*
X246150000Y-26892565D01*
X246150000Y-26892565D02*
X246150000Y-21467025D01*
X106294354Y15595802D02*
X105894355Y15995801D01*
X108440156Y13450000D02*
X106294354Y15595802D01*
X134760000Y550000D02*
X130800000Y550000D01*
X130800000Y550000D02*
X127400000Y3950000D01*
X134880000Y430000D02*
X134760000Y550000D01*
X127400000Y3950000D02*
X127400000Y7157932D01*
X127400000Y7157932D02*
X121107933Y13449999D01*
X121107933Y13449999D02*
X108440156Y13450000D01*
X137565685Y-60350000D02*
X137000000Y-60350000D01*
X138075962Y-60350000D02*
X137565685Y-60350000D01*
X196347467Y-60500000D02*
X138225962Y-60500000D01*
X138225962Y-60500000D02*
X138075962Y-60350000D01*
X201134210Y-65286743D02*
X196347467Y-60500000D01*
X137350000Y-43350000D02*
X128498080Y-43350000D01*
X128498080Y-43350000D02*
X128399039Y-43449041D01*
X106305646Y14556362D02*
X105905647Y14956361D01*
X107866019Y12995989D02*
X106305646Y14556362D01*
X126945989Y-10795989D02*
X126945989Y6969875D01*
X128420000Y-12270000D02*
X126945989Y-10795989D01*
X126945989Y6969875D02*
X120919875Y12995989D01*
X120919875Y12995989D02*
X107866019Y12995989D01*
X134880000Y-12270000D02*
X128420000Y-12270000D01*
X136301040Y-59622998D02*
X134474036Y-61450002D01*
X199450600Y-60045989D02*
X138414019Y-60045989D01*
X203162744Y-63758133D02*
X199450600Y-60045989D01*
X134474036Y-61450002D02*
X132365685Y-61450002D01*
X137991028Y-59622998D02*
X136301040Y-59622998D01*
X132365685Y-61450002D02*
X131800000Y-61450002D01*
X138414019Y-60045989D02*
X137991028Y-59622998D01*
X95944722Y-65094722D02*
X95944722Y-64961851D01*
X97050000Y-66200000D02*
X95944722Y-65094722D01*
X97050000Y-67700000D02*
X97050000Y-66200000D01*
X93350000Y-71400000D02*
X97050000Y-67700000D01*
X91358892Y-71047454D02*
X91711438Y-71400000D01*
X91711438Y-71400000D02*
X93350000Y-71400000D01*
X99456571Y-61450002D02*
X95944722Y-64961851D01*
X131800000Y-61450002D02*
X99456571Y-61450002D01*
X130317932Y-14810000D02*
X126491978Y-10984046D01*
X107263251Y12541979D02*
X106247169Y13558061D01*
X106247169Y13558061D02*
X105847170Y13958060D01*
X120731818Y12541978D02*
X107263251Y12541979D01*
X126491978Y6781818D02*
X120731818Y12541978D01*
X126491978Y-10984046D02*
X126491978Y6781818D01*
X134880000Y-14810000D02*
X130317932Y-14810000D01*
X138179085Y-59168987D02*
X138602076Y-59591978D01*
X133231013Y-59168987D02*
X138179085Y-59168987D01*
X132100000Y-60300000D02*
X133231013Y-59168987D01*
X138602076Y-59591978D02*
X202553734Y-59591978D01*
X204341280Y-61379524D02*
X205191279Y-62229523D01*
X202553734Y-59591978D02*
X204341280Y-61379524D01*
X168750000Y25157131D02*
X165545589Y28361542D01*
X168750000Y21750000D02*
X168750000Y25157131D01*
X166516053Y20535200D02*
X167535200Y20535200D01*
X167535200Y20535200D02*
X168750000Y21750000D01*
X166516053Y16892109D02*
X172663114Y10745048D01*
X166516053Y20535200D02*
X166516053Y16892109D01*
X173694039Y9714123D02*
X172663114Y10745048D01*
X173694039Y9655961D02*
X173694039Y9714123D01*
X176150000Y7200000D02*
X173694039Y9655961D01*
X173633578Y2918706D02*
X176150000Y5435128D01*
X176150000Y5435128D02*
X176150000Y7200000D01*
X173633578Y-724384D02*
X179780639Y-6871445D01*
X173633578Y2918706D02*
X173633578Y-724384D01*
X180811564Y-7902370D02*
X179780639Y-6871445D01*
X183400000Y-10490806D02*
X180811564Y-7902370D01*
X183400000Y-12048890D02*
X183400000Y-10490806D01*
X180751103Y-14697787D02*
X183400000Y-12048890D01*
X180083418Y-17673192D02*
X180083418Y-16542210D01*
X186898164Y-24487938D02*
X180083418Y-17673192D01*
X190000000Y-27589774D02*
X186898164Y-24487938D01*
X190000000Y-31200000D02*
X190000000Y-27589774D01*
X187868628Y-32314280D02*
X188885720Y-32314280D01*
X188885720Y-32314280D02*
X190000000Y-31200000D01*
X123185697Y15299228D02*
X125564682Y17678213D01*
X116068172Y-2317266D02*
X118447157Y61719D01*
X116068172Y-11250834D02*
X116068172Y-2317266D01*
X108950646Y-19933760D02*
X111329632Y-17554774D01*
X108950646Y-28867327D02*
X108950646Y-19933760D01*
X117543304Y-11250834D02*
X116068172Y-11250834D01*
X126116700Y-11250834D02*
X117543304Y-11250834D01*
X132215866Y-17350000D02*
X126116700Y-11250834D01*
X134880000Y-17350000D02*
X132215866Y-17350000D01*
X104212106Y-35171267D02*
X112450000Y-43409161D01*
X112450000Y-45573345D02*
X112450000Y-46139030D01*
X112450000Y-43409161D02*
X112450000Y-45573345D01*
X168104011Y-42745989D02*
X166849999Y-44000001D01*
X166849999Y-44000001D02*
X166450000Y-44400000D01*
X183654011Y-42745989D02*
X168104011Y-42745989D01*
X187868628Y-38531372D02*
X183654011Y-42745989D01*
X187868628Y-32314280D02*
X187868628Y-38531372D01*
X132300000Y-41900000D02*
X148700000Y-41900000D01*
X148700000Y-41900000D02*
X150750001Y-43950001D01*
X150750001Y-43950001D02*
X151150000Y-44350000D01*
X125564682Y19834682D02*
X125564682Y17678213D01*
X130303222Y23982153D02*
X129712153Y23982153D01*
X129712153Y23982153D02*
X125564682Y19834682D01*
X118447157Y2387157D02*
X118447157Y61719D01*
X123185697Y6365659D02*
X122425659Y6365659D01*
X122425659Y6365659D02*
X118447157Y2387157D01*
X111329632Y-15260368D02*
X111329632Y-17554774D01*
X116068172Y-11250834D02*
X115339166Y-11250834D01*
X115339166Y-11250834D02*
X111329632Y-15260368D01*
X104212106Y-32937894D02*
X104212106Y-35171267D01*
X108950646Y-28867327D02*
X108282673Y-28867327D01*
X108282673Y-28867327D02*
X104212106Y-32937894D01*
X156800000Y-44400000D02*
X163800008Y-51400008D01*
X163800008Y-51400008D02*
X214134315Y-51400008D01*
X214134315Y-51400008D02*
X214700000Y-51400008D01*
X89835727Y-15626386D02*
X90453175Y-15008938D01*
X89835727Y-25458537D02*
X89835727Y-15626386D01*
X96953252Y1990107D02*
X97570700Y2607555D01*
X96953252Y-7842044D02*
X96953252Y1990107D01*
X205350000Y-21742232D02*
X206013084Y-21079148D01*
X206983548Y-28905490D02*
X205350000Y-27271942D01*
X205350000Y-27271942D02*
X205350000Y-21742232D01*
X199198338Y-15151662D02*
X199198338Y-13133420D01*
X196250000Y-18100000D02*
X199198338Y-15151662D01*
X196250000Y-21200000D02*
X196250000Y-18100000D01*
X199950000Y-24900000D02*
X196250000Y-21200000D01*
X205350000Y-27271942D02*
X205350000Y-24900000D01*
X205350000Y-24900000D02*
X199950000Y-24900000D01*
X198658214Y-3700000D02*
X198895559Y-3462655D01*
X198650000Y-3700000D02*
X198658214Y-3700000D01*
X198400000Y-3950000D02*
X198650000Y-3700000D01*
X199866023Y-11288997D02*
X198400000Y-9822974D01*
X198400000Y-9822974D02*
X198400000Y-7250000D01*
X198400000Y-7250000D02*
X198400000Y-3950000D01*
X192950000Y-7250000D02*
X198400000Y-7250000D01*
X188750000Y-3050000D02*
X192950000Y-7250000D01*
X188750000Y-900000D02*
X188750000Y-3050000D01*
X192748497Y6327496D02*
X192748497Y3098497D01*
X192748497Y3098497D02*
X188750000Y-900000D01*
X191200000Y13575805D02*
X191778033Y14153838D01*
X192748497Y6327496D02*
X191200000Y7875993D01*
X185630972Y23943989D02*
X185630972Y20580972D01*
X185630972Y20580972D02*
X180750000Y15700000D01*
X180750000Y15700000D02*
X180750000Y14700000D01*
X185000000Y10450000D02*
X191200000Y10450000D01*
X180750000Y14700000D02*
X185000000Y10450000D01*
X191200000Y7875993D02*
X191200000Y10450000D01*
X191200000Y10450000D02*
X191200000Y13575805D01*
X184730839Y31700000D02*
X184660508Y31770331D01*
X184800000Y31700000D02*
X184730839Y31700000D01*
X184050000Y30950000D02*
X184800000Y31700000D01*
X185630972Y23943989D02*
X184050000Y25524961D01*
X184050000Y25524961D02*
X184050000Y30950000D01*
X104350000Y18987240D02*
X106449763Y21087003D01*
X104070777Y9774449D02*
X104350000Y10053672D01*
X104350000Y10053672D02*
X104350000Y18987240D01*
X168900000Y-43200000D02*
X166949999Y-45150001D01*
X166949999Y-45150001D02*
X166550000Y-45550000D01*
X183842068Y-43200000D02*
X168900000Y-43200000D01*
X190454010Y-36588058D02*
X183842068Y-43200000D01*
X190454010Y-26995990D02*
X190454010Y-36588058D01*
X196250000Y-21200000D02*
X190454010Y-26995990D01*
X87550000Y-42500000D02*
X87550000Y-47250000D01*
X87550000Y-47250000D02*
X89304010Y-49004010D01*
X89304010Y-49004010D02*
X146665992Y-49004010D01*
X149720001Y-45950001D02*
X150120000Y-45550002D01*
X146665992Y-49004010D02*
X149720001Y-45950001D01*
X99332237Y5962237D02*
X99332237Y3470509D01*
X104070777Y9774449D02*
X103144449Y9774449D01*
X103144449Y9774449D02*
X99332237Y5962237D01*
X106449763Y23429763D02*
X106449763Y21087003D01*
X111188303Y27390943D02*
X110410943Y27390943D01*
X110410943Y27390943D02*
X106449763Y23429763D01*
X92214712Y-11845288D02*
X92214712Y-14145984D01*
X96953252Y-7842044D02*
X96217956Y-7842044D01*
X96217956Y-7842044D02*
X92214712Y-11845288D01*
X85097187Y-29272813D02*
X85097187Y-31762477D01*
X89835727Y-25458537D02*
X88911463Y-25458537D01*
X88911463Y-25458537D02*
X85097187Y-29272813D01*
X89304010Y-49004010D02*
X89300000Y-49000000D01*
X89300000Y-49000000D02*
X89300000Y-48999998D01*
X209622113Y-52200000D02*
X208965685Y-52200000D01*
X208965685Y-52200000D02*
X208400000Y-52200000D01*
X213460025Y-56037912D02*
X209622113Y-52200000D01*
X190936617Y-69035178D02*
X192138698Y-69035178D01*
X181385178Y-69035178D02*
X190936617Y-69035178D01*
X180900000Y-67537500D02*
X180900000Y-68550000D01*
X180900000Y-68550000D02*
X181385178Y-69035178D01*
X131450000Y-63550000D02*
X130750000Y-64250000D01*
X180900000Y-67537500D02*
X176912500Y-63550000D01*
X176912500Y-63550000D02*
X131450000Y-63550000D01*
X183062500Y-67700000D02*
X182900000Y-67537500D01*
X190610088Y-67006644D02*
X189916732Y-67700000D01*
X189916732Y-67700000D02*
X183062500Y-67700000D01*
X130000000Y-63400000D02*
X129950000Y-63400000D01*
X130350000Y-63050000D02*
X130000000Y-63400000D01*
X190000000Y-63050000D02*
X130350000Y-63050000D01*
X191550000Y-64600000D02*
X190000000Y-63050000D01*
X190610088Y-67006644D02*
X191550000Y-66066732D01*
X191550000Y-66066732D02*
X191550000Y-64600000D01*
D29*
X180912500Y-65650000D02*
X180900000Y-65662500D01*
X189081478Y-64978110D02*
X188409588Y-65650000D01*
X188409588Y-65650000D02*
X180912500Y-65650000D01*
D30*
X124450000Y-18150000D02*
X125050000Y-18150000D01*
X123595990Y-19004010D02*
X124450000Y-18150000D01*
X123595990Y-37349990D02*
X123595990Y-19004010D01*
X125050000Y-38100000D02*
X124346000Y-38100000D01*
X124346000Y-38100000D02*
X123595990Y-37349990D01*
X101604000Y-47000000D02*
X108550000Y-47000000D01*
X100750000Y-47000000D02*
X101604000Y-47000000D01*
X127850000Y-18150000D02*
X125050000Y-18150000D01*
X134880000Y-19890000D02*
X129590000Y-19890000D01*
X129590000Y-19890000D02*
X127850000Y-18150000D01*
X109404000Y-47000000D02*
X108550000Y-47000000D01*
X121050000Y-47000000D02*
X109404000Y-47000000D01*
X123550000Y-44500000D02*
X121050000Y-47000000D01*
X124346000Y-38100000D02*
X123550000Y-38896000D01*
X123550000Y-38896000D02*
X123550000Y-44500000D01*
X90400000Y-47000000D02*
X98200000Y-47000000D01*
X125900000Y-33100000D02*
X125050000Y-33100000D01*
X127050000Y-31950000D02*
X125900000Y-33100000D01*
X127050000Y-28000000D02*
X127050000Y-31950000D01*
X134880000Y-24970000D02*
X130080000Y-24970000D01*
X130080000Y-24970000D02*
X127050000Y-28000000D01*
X125800000Y-33100000D02*
X125050000Y-33100000D01*
X127050000Y-34350000D02*
X125800000Y-33100000D01*
X127050000Y-39800000D02*
X127050000Y-34350000D01*
X125050000Y-40590000D02*
X126260000Y-40590000D01*
X126260000Y-40590000D02*
X127050000Y-39800000D01*
X98200000Y-47600000D02*
X98200000Y-47000000D01*
X99150000Y-48550000D02*
X98200000Y-47600000D01*
X120300000Y-48550000D02*
X99150000Y-48550000D01*
X125050000Y-40590000D02*
X125050000Y-43800000D01*
X125050000Y-43800000D02*
X120300000Y-48550000D01*
X92863641Y-52650000D02*
X85527270Y-52650000D01*
X85054545Y-47000000D02*
X82609091Y-47000000D01*
X85054545Y-52177275D02*
X85527270Y-52650000D01*
X85054545Y-47000000D02*
X85054545Y-52177275D01*
X91272187Y-52650000D02*
X90418187Y-52650000D01*
X147142337Y-49541978D02*
X147534315Y-49150000D01*
X147534315Y-49150000D02*
X148100000Y-49150000D01*
X96825663Y-49541978D02*
X147142337Y-49541978D01*
X93717641Y-52650000D02*
X96825663Y-49541978D01*
X92863641Y-52650000D02*
X93717641Y-52650000D01*
X80163637Y-47000000D02*
X72827275Y-47000000D01*
X80163637Y-47704000D02*
X80163637Y-47000000D01*
X80163637Y-52613637D02*
X80163637Y-47704000D01*
X81700000Y-54150000D02*
X80163637Y-52613637D01*
X94604000Y-54150000D02*
X81700000Y-54150000D01*
X95400000Y-52650000D02*
X95400000Y-53354000D01*
X95400000Y-53354000D02*
X94604000Y-54150000D01*
X149100000Y-49215685D02*
X149100000Y-48800000D01*
X96254000Y-52650000D02*
X98908011Y-49995989D01*
X98908011Y-49995989D02*
X148319696Y-49995989D01*
X95400000Y-52650000D02*
X96254000Y-52650000D01*
X148319696Y-49995989D02*
X149100000Y-49215685D01*
X159250000Y-31250000D02*
X159550000Y-31250000D01*
X158200000Y-32300000D02*
X159250000Y-31250000D01*
X158200000Y-35400000D02*
X158200000Y-32300000D01*
X159550000Y-36250000D02*
X159050000Y-36250000D01*
X159050000Y-36250000D02*
X158200000Y-35400000D01*
X159550000Y-31250000D02*
X159550000Y-23700000D01*
X159350000Y-23700000D02*
X159550000Y-23700000D01*
X158250000Y-22600000D02*
X159350000Y-23700000D01*
X158250000Y-9746000D02*
X158250000Y-22600000D01*
X159550000Y-9150000D02*
X158846000Y-9150000D01*
X158846000Y-9150000D02*
X158250000Y-9746000D01*
X158850000Y-9150000D02*
X159550000Y-9150000D01*
X150120000Y-14810000D02*
X153190000Y-14810000D01*
X153190000Y-14810000D02*
X158850000Y-9150000D01*
X183457690Y-48950000D02*
X175000000Y-48950000D01*
X160100000Y-33750000D02*
X159550000Y-33750000D01*
X160650000Y-34300000D02*
X160100000Y-33750000D01*
X160650000Y-38316500D02*
X160650000Y-34300000D01*
X159550000Y-38712500D02*
X160254000Y-38712500D01*
X160254000Y-38712500D02*
X160650000Y-38316500D01*
X158812500Y-38712500D02*
X158846000Y-38712500D01*
X157745990Y-37645990D02*
X158812500Y-38712500D01*
X158846000Y-38712500D02*
X159550000Y-38712500D01*
X157745990Y-23245990D02*
X157745990Y-37645990D01*
X151850000Y-17350000D02*
X157745990Y-23245990D01*
X150120000Y-17350000D02*
X151850000Y-17350000D01*
X164851204Y-48950000D02*
X160750000Y-44848796D01*
X175000000Y-48950000D02*
X164851204Y-48950000D01*
X159550000Y-39566500D02*
X159550000Y-38712500D01*
X160750000Y-40766500D02*
X159550000Y-39566500D01*
X160750000Y-44848796D02*
X160750000Y-40766500D01*
X125050000Y-20650000D02*
X125050000Y-30595552D01*
X124750000Y-35600000D02*
X125050000Y-35600000D01*
X124050000Y-34900000D02*
X124750000Y-35600000D01*
X124050000Y-31250000D02*
X124050000Y-34900000D01*
X125050000Y-30595552D02*
X124704448Y-30595552D01*
X124704448Y-30595552D02*
X124050000Y-31250000D01*
X128150000Y-20650000D02*
X125050000Y-20650000D01*
X134880000Y-22430000D02*
X129930000Y-22430000D01*
X129930000Y-22430000D02*
X128150000Y-20650000D01*
X121046000Y-30595552D02*
X120991552Y-30650000D01*
X121750000Y-30595552D02*
X121046000Y-30595552D01*
X120991552Y-30650000D02*
X120550000Y-30650000D01*
X121046000Y-28096664D02*
X121042664Y-28100000D01*
X121750000Y-28096664D02*
X121046000Y-28096664D01*
X121042664Y-28100000D02*
X120600000Y-28100000D01*
X121750000Y-25597776D02*
X120552224Y-25597776D01*
X121046000Y-23098888D02*
X121044888Y-23100000D01*
X121750000Y-23098888D02*
X121046000Y-23098888D01*
X121044888Y-23100000D02*
X120650000Y-23100000D01*
X120650000Y-23100000D02*
X120600000Y-23150000D01*
X121750000Y-35592216D02*
X120392216Y-35592216D01*
X98485646Y22235707D02*
X99610645Y21110708D01*
X97220171Y23501182D02*
X98485646Y22235707D01*
X97220171Y28847511D02*
X97220171Y23501182D01*
X98251096Y29878436D02*
X97220171Y28847511D01*
X103300000Y17421353D02*
X103300000Y13615685D01*
X103300000Y13615685D02*
X103300000Y13050000D01*
X99610645Y21110708D02*
X103300000Y17421353D01*
X121046000Y-20600000D02*
X120996000Y-20650000D01*
X121750000Y-20600000D02*
X121046000Y-20600000D01*
X120996000Y-20650000D02*
X120700000Y-20650000D01*
X117600565Y18826917D02*
X118725564Y17701918D01*
X117071517Y19355965D02*
X117600565Y18826917D01*
X117071517Y24726980D02*
X117071517Y19355965D01*
X117366015Y25021478D02*
X117071517Y24726980D01*
X117366015Y26469646D02*
X117366015Y25021478D01*
X92887502Y-68737502D02*
X92887502Y-69018919D01*
X91600000Y-67450000D02*
X92887502Y-68737502D01*
X91600000Y-60454000D02*
X91600000Y-67450000D01*
X95400000Y-55950000D02*
X95400000Y-56654000D01*
X95400000Y-56654000D02*
X91600000Y-60454000D01*
X154511384Y19715787D02*
X154511384Y21163955D01*
X157873019Y16354152D02*
X154511384Y19715787D01*
X161399752Y16354152D02*
X157873019Y16354152D01*
X160454938Y14676402D02*
X161579937Y15801401D01*
X163900000Y-6700000D02*
X164750000Y-5850000D01*
X162850000Y-6700000D02*
X163900000Y-6700000D01*
X164750000Y-5850000D02*
X164750000Y-4950000D01*
X164750000Y-4950000D02*
X158450000Y1350000D01*
X158450000Y1350000D02*
X158450000Y12671464D01*
X158450000Y12671464D02*
X160454938Y14676402D01*
X159550000Y-20396000D02*
X159550000Y-11600000D01*
X159550000Y-21250000D02*
X159550000Y-20396000D01*
X159700000Y-11600000D02*
X159550000Y-11600000D01*
X160650000Y-10650000D02*
X159700000Y-11600000D01*
X159550000Y-6700000D02*
X160254000Y-6700000D01*
X160254000Y-6700000D02*
X160650000Y-7096000D01*
X160650000Y-7096000D02*
X160650000Y-10650000D01*
X158800000Y-6700000D02*
X159550000Y-6700000D01*
X150120000Y-12270000D02*
X153230000Y-12270000D01*
X153230000Y-12270000D02*
X158800000Y-6700000D01*
X97750000Y-55950000D02*
X97900000Y-55950000D01*
X92950000Y-60750000D02*
X97750000Y-55950000D01*
X94416112Y-66990385D02*
X92950000Y-65524273D01*
X92950000Y-65524273D02*
X92950000Y-60750000D01*
X173626303Y23124576D02*
X173626303Y24572744D01*
X176987938Y19762941D02*
X173626303Y23124576D01*
X180514671Y19762941D02*
X176987938Y19762941D01*
X162850000Y-21250000D02*
X163554000Y-21250000D01*
X163554000Y-21250000D02*
X164000000Y-21250000D01*
X164000000Y-21250000D02*
X164050000Y-21300000D01*
X162850000Y-18800000D02*
X163950000Y-18800000D01*
X162850000Y-16400000D02*
X163554000Y-16400000D01*
X163554000Y-16400000D02*
X163900000Y-16400000D01*
X163900000Y-16400000D02*
X163950000Y-16450000D01*
X162850000Y-14000000D02*
X163554000Y-14000000D01*
X163554000Y-14000000D02*
X164000000Y-14000000D01*
X162850000Y-11600000D02*
X164000000Y-11600000D01*
X194734610Y-44946000D02*
X194750000Y-44930610D01*
X194734610Y-45650000D02*
X194734610Y-44946000D01*
X194750000Y-44930610D02*
X194750000Y-44350000D01*
X191915380Y-44946000D02*
X191900000Y-44930620D01*
X191915380Y-45650000D02*
X191915380Y-44946000D01*
X191900000Y-44930620D02*
X191900000Y-44400000D01*
X189096150Y-45650000D02*
X189096150Y-44403850D01*
X189096150Y-44403850D02*
X189100000Y-44400000D01*
X186276920Y-44589170D02*
X186277049Y-44589041D01*
X186276920Y-45650000D02*
X186276920Y-44589170D01*
X155580000Y-22430000D02*
X156800000Y-23650000D01*
X156800000Y-23650000D02*
X156800000Y-42234136D01*
X150120000Y-22430000D02*
X155580000Y-22430000D01*
X148584136Y-50450000D02*
X156800000Y-42234136D01*
X97900000Y-52650000D02*
X100100000Y-50450000D01*
X100100000Y-50450000D02*
X148584136Y-50450000D01*
X208750000Y-48950000D02*
X201146300Y-48950000D01*
X201146300Y-48950000D02*
X200292300Y-48950000D01*
X200292300Y-49807700D02*
X200292300Y-48950000D01*
X199354011Y-50745989D02*
X200292300Y-49807700D01*
X165363057Y-50745989D02*
X199354011Y-50745989D01*
X156800000Y-42234136D02*
X156851204Y-42234136D01*
X156851204Y-42234136D02*
X165363057Y-50745989D01*
X196619070Y-48950000D02*
X186276920Y-48950000D01*
X197473070Y-48950000D02*
X196619070Y-48950000D01*
X157254011Y-23396079D02*
X157254011Y-38050011D01*
X157254011Y-38050011D02*
X159550000Y-40346000D01*
X153747932Y-19890000D02*
X157254011Y-23396079D01*
X150120000Y-19890000D02*
X153747932Y-19890000D01*
X159550000Y-40346000D02*
X159550000Y-41200000D01*
X159550000Y-42054000D02*
X159550000Y-41200000D01*
X159550000Y-44290864D02*
X159550000Y-42054000D01*
X165551114Y-50291978D02*
X159550000Y-44290864D01*
X185708022Y-50291978D02*
X165551114Y-50291978D01*
X186276920Y-48950000D02*
X186276920Y-49723080D01*
X186276920Y-49723080D02*
X185708022Y-50291978D01*
M02*
