G04 #@! TF.GenerationSoftware,KiCad,Pcbnew,(5.1.4)-1*
G04 #@! TF.CreationDate,2024-10-11T12:26:31-04:00*
G04 #@! TF.ProjectId,ThumbsUp,5468756d-6273-4557-902e-6b696361645f,rev?*
G04 #@! TF.SameCoordinates,Original*
G04 #@! TF.FileFunction,Soldermask,Top*
G04 #@! TF.FilePolarity,Negative*
%FSLAX46Y46*%
G04 Gerber Fmt 4.6, Leading zero omitted, Abs format (unit mm)*
G04 Created by KiCad (PCBNEW (5.1.4)-1) date 2024-10-11 12:26:31*
%MOMM*%
%LPD*%
G04 APERTURE LIST*
%ADD10C,0.100000*%
G04 APERTURE END LIST*
D10*
G36*
X172894581Y-78743723D02*
G01*
X173047178Y-78806930D01*
X173184512Y-78898694D01*
X173301306Y-79015488D01*
X173393070Y-79152822D01*
X173456277Y-79305419D01*
X173488500Y-79467414D01*
X173488500Y-79632586D01*
X173456277Y-79794581D01*
X173393070Y-79947178D01*
X173301306Y-80084512D01*
X173184512Y-80201306D01*
X173047178Y-80293070D01*
X172894581Y-80356277D01*
X172732586Y-80388500D01*
X172567414Y-80388500D01*
X172405419Y-80356277D01*
X172252822Y-80293070D01*
X172115488Y-80201306D01*
X171998694Y-80084512D01*
X171906930Y-79947178D01*
X171843723Y-79794581D01*
X171811500Y-79632586D01*
X171811500Y-79467414D01*
X171843723Y-79305419D01*
X171906930Y-79152822D01*
X171998694Y-79015488D01*
X172115488Y-78898694D01*
X172252822Y-78806930D01*
X172405419Y-78743723D01*
X172567414Y-78711500D01*
X172732586Y-78711500D01*
X172894581Y-78743723D01*
X172894581Y-78743723D01*
G37*
G36*
X176144581Y-76493723D02*
G01*
X176297178Y-76556930D01*
X176434512Y-76648694D01*
X176551306Y-76765488D01*
X176643070Y-76902822D01*
X176706277Y-77055419D01*
X176738500Y-77217414D01*
X176738500Y-77382586D01*
X176706277Y-77544581D01*
X176643070Y-77697178D01*
X176551306Y-77834512D01*
X176434512Y-77951306D01*
X176297178Y-78043070D01*
X176144581Y-78106277D01*
X175982586Y-78138500D01*
X175817414Y-78138500D01*
X175655419Y-78106277D01*
X175502822Y-78043070D01*
X175365488Y-77951306D01*
X175248694Y-77834512D01*
X175156930Y-77697178D01*
X175093723Y-77544581D01*
X175061500Y-77382586D01*
X175061500Y-77217414D01*
X175093723Y-77055419D01*
X175156930Y-76902822D01*
X175248694Y-76765488D01*
X175365488Y-76648694D01*
X175502822Y-76556930D01*
X175655419Y-76493723D01*
X175817414Y-76461500D01*
X175982586Y-76461500D01*
X176144581Y-76493723D01*
X176144581Y-76493723D01*
G37*
G36*
X169644581Y-76493723D02*
G01*
X169797178Y-76556930D01*
X169934512Y-76648694D01*
X170051306Y-76765488D01*
X170143070Y-76902822D01*
X170206277Y-77055419D01*
X170238500Y-77217414D01*
X170238500Y-77382586D01*
X170206277Y-77544581D01*
X170143070Y-77697178D01*
X170051306Y-77834512D01*
X169934512Y-77951306D01*
X169797178Y-78043070D01*
X169644581Y-78106277D01*
X169482586Y-78138500D01*
X169317414Y-78138500D01*
X169155419Y-78106277D01*
X169002822Y-78043070D01*
X168865488Y-77951306D01*
X168748694Y-77834512D01*
X168656930Y-77697178D01*
X168593723Y-77544581D01*
X168561500Y-77382586D01*
X168561500Y-77217414D01*
X168593723Y-77055419D01*
X168656930Y-76902822D01*
X168748694Y-76765488D01*
X168865488Y-76648694D01*
X169002822Y-76556930D01*
X169155419Y-76493723D01*
X169317414Y-76461500D01*
X169482586Y-76461500D01*
X169644581Y-76493723D01*
X169644581Y-76493723D01*
G37*
G36*
X137033642Y-75229781D02*
G01*
X137179414Y-75290162D01*
X137179416Y-75290163D01*
X137310608Y-75377822D01*
X137422178Y-75489392D01*
X137509837Y-75620584D01*
X137509838Y-75620586D01*
X137570219Y-75766358D01*
X137601000Y-75921107D01*
X137601000Y-76078893D01*
X137570219Y-76233642D01*
X137529457Y-76332049D01*
X137509837Y-76379416D01*
X137422178Y-76510608D01*
X137310608Y-76622178D01*
X137179416Y-76709837D01*
X137179415Y-76709838D01*
X137179414Y-76709838D01*
X137033642Y-76770219D01*
X136878893Y-76801000D01*
X136721107Y-76801000D01*
X136566358Y-76770219D01*
X136420586Y-76709838D01*
X136420585Y-76709838D01*
X136420584Y-76709837D01*
X136289392Y-76622178D01*
X136177822Y-76510608D01*
X136090163Y-76379416D01*
X136070543Y-76332049D01*
X136029781Y-76233642D01*
X135999000Y-76078893D01*
X135999000Y-75921107D01*
X136029781Y-75766358D01*
X136090162Y-75620586D01*
X136090163Y-75620584D01*
X136177822Y-75489392D01*
X136289392Y-75377822D01*
X136420584Y-75290163D01*
X136420586Y-75290162D01*
X136566358Y-75229781D01*
X136721107Y-75199000D01*
X136878893Y-75199000D01*
X137033642Y-75229781D01*
X137033642Y-75229781D01*
G37*
G36*
X145033642Y-75229781D02*
G01*
X145179414Y-75290162D01*
X145179416Y-75290163D01*
X145310608Y-75377822D01*
X145422178Y-75489392D01*
X145509837Y-75620584D01*
X145509838Y-75620586D01*
X145570219Y-75766358D01*
X145601000Y-75921107D01*
X145601000Y-76078893D01*
X145570219Y-76233642D01*
X145529457Y-76332049D01*
X145509837Y-76379416D01*
X145422178Y-76510608D01*
X145310608Y-76622178D01*
X145179416Y-76709837D01*
X145179415Y-76709838D01*
X145179414Y-76709838D01*
X145033642Y-76770219D01*
X144878893Y-76801000D01*
X144721107Y-76801000D01*
X144566358Y-76770219D01*
X144420586Y-76709838D01*
X144420585Y-76709838D01*
X144420584Y-76709837D01*
X144289392Y-76622178D01*
X144177822Y-76510608D01*
X144090163Y-76379416D01*
X144070543Y-76332049D01*
X144029781Y-76233642D01*
X143999000Y-76078893D01*
X143999000Y-75921107D01*
X144029781Y-75766358D01*
X144090162Y-75620586D01*
X144090163Y-75620584D01*
X144177822Y-75489392D01*
X144289392Y-75377822D01*
X144420584Y-75290163D01*
X144420586Y-75290162D01*
X144566358Y-75229781D01*
X144721107Y-75199000D01*
X144878893Y-75199000D01*
X145033642Y-75229781D01*
X145033642Y-75229781D01*
G37*
G36*
X143004473Y-75325938D02*
G01*
X143132049Y-75378782D01*
X143246859Y-75455495D01*
X143344505Y-75553141D01*
X143421218Y-75667951D01*
X143474062Y-75795527D01*
X143501000Y-75930956D01*
X143501000Y-76069044D01*
X143474062Y-76204473D01*
X143421218Y-76332049D01*
X143344505Y-76446859D01*
X143246859Y-76544505D01*
X143132049Y-76621218D01*
X143004473Y-76674062D01*
X142869044Y-76701000D01*
X142730956Y-76701000D01*
X142595527Y-76674062D01*
X142467951Y-76621218D01*
X142353141Y-76544505D01*
X142255495Y-76446859D01*
X142178782Y-76332049D01*
X142125938Y-76204473D01*
X142099000Y-76069044D01*
X142099000Y-75930956D01*
X142125938Y-75795527D01*
X142178782Y-75667951D01*
X142255495Y-75553141D01*
X142353141Y-75455495D01*
X142467951Y-75378782D01*
X142595527Y-75325938D01*
X142730956Y-75299000D01*
X142869044Y-75299000D01*
X143004473Y-75325938D01*
X143004473Y-75325938D01*
G37*
G36*
X141004473Y-75325938D02*
G01*
X141132049Y-75378782D01*
X141246859Y-75455495D01*
X141344505Y-75553141D01*
X141421218Y-75667951D01*
X141474062Y-75795527D01*
X141501000Y-75930956D01*
X141501000Y-76069044D01*
X141474062Y-76204473D01*
X141421218Y-76332049D01*
X141344505Y-76446859D01*
X141246859Y-76544505D01*
X141132049Y-76621218D01*
X141004473Y-76674062D01*
X140869044Y-76701000D01*
X140730956Y-76701000D01*
X140595527Y-76674062D01*
X140467951Y-76621218D01*
X140353141Y-76544505D01*
X140255495Y-76446859D01*
X140178782Y-76332049D01*
X140125938Y-76204473D01*
X140099000Y-76069044D01*
X140099000Y-75930956D01*
X140125938Y-75795527D01*
X140178782Y-75667951D01*
X140255495Y-75553141D01*
X140353141Y-75455495D01*
X140467951Y-75378782D01*
X140595527Y-75325938D01*
X140730956Y-75299000D01*
X140869044Y-75299000D01*
X141004473Y-75325938D01*
X141004473Y-75325938D01*
G37*
G36*
X138989890Y-75374017D02*
G01*
X139108364Y-75423091D01*
X139156860Y-75455495D01*
X139214988Y-75494335D01*
X139305665Y-75585012D01*
X139376910Y-75691638D01*
X139425983Y-75810110D01*
X139451000Y-75935881D01*
X139451000Y-76064119D01*
X139448061Y-76078893D01*
X139425983Y-76189890D01*
X139376909Y-76308364D01*
X139305665Y-76414988D01*
X139214988Y-76505665D01*
X139108364Y-76576909D01*
X139108363Y-76576910D01*
X139108362Y-76576910D01*
X138989890Y-76625983D01*
X138864119Y-76651000D01*
X138735881Y-76651000D01*
X138610110Y-76625983D01*
X138491638Y-76576910D01*
X138491637Y-76576910D01*
X138491636Y-76576909D01*
X138385012Y-76505665D01*
X138294335Y-76414988D01*
X138223091Y-76308364D01*
X138174017Y-76189890D01*
X138151939Y-76078893D01*
X138149000Y-76064119D01*
X138149000Y-75935881D01*
X138174017Y-75810110D01*
X138223090Y-75691638D01*
X138294335Y-75585012D01*
X138385012Y-75494335D01*
X138443140Y-75455495D01*
X138491636Y-75423091D01*
X138610110Y-75374017D01*
X138735881Y-75349000D01*
X138864119Y-75349000D01*
X138989890Y-75374017D01*
X138989890Y-75374017D01*
G37*
G36*
X169644581Y-71993723D02*
G01*
X169797178Y-72056930D01*
X169934512Y-72148694D01*
X170051306Y-72265488D01*
X170143070Y-72402822D01*
X170206277Y-72555419D01*
X170238500Y-72717414D01*
X170238500Y-72882586D01*
X170206277Y-73044581D01*
X170143070Y-73197178D01*
X170051306Y-73334512D01*
X169934512Y-73451306D01*
X169797178Y-73543070D01*
X169644581Y-73606277D01*
X169482586Y-73638500D01*
X169317414Y-73638500D01*
X169155419Y-73606277D01*
X169002822Y-73543070D01*
X168865488Y-73451306D01*
X168748694Y-73334512D01*
X168656930Y-73197178D01*
X168593723Y-73044581D01*
X168561500Y-72882586D01*
X168561500Y-72717414D01*
X168593723Y-72555419D01*
X168656930Y-72402822D01*
X168748694Y-72265488D01*
X168865488Y-72148694D01*
X169002822Y-72056930D01*
X169155419Y-71993723D01*
X169317414Y-71961500D01*
X169482586Y-71961500D01*
X169644581Y-71993723D01*
X169644581Y-71993723D01*
G37*
G36*
X176144581Y-71993723D02*
G01*
X176297178Y-72056930D01*
X176434512Y-72148694D01*
X176551306Y-72265488D01*
X176643070Y-72402822D01*
X176706277Y-72555419D01*
X176738500Y-72717414D01*
X176738500Y-72882586D01*
X176706277Y-73044581D01*
X176643070Y-73197178D01*
X176551306Y-73334512D01*
X176434512Y-73451306D01*
X176297178Y-73543070D01*
X176144581Y-73606277D01*
X175982586Y-73638500D01*
X175817414Y-73638500D01*
X175655419Y-73606277D01*
X175502822Y-73543070D01*
X175365488Y-73451306D01*
X175248694Y-73334512D01*
X175156930Y-73197178D01*
X175093723Y-73044581D01*
X175061500Y-72882586D01*
X175061500Y-72717414D01*
X175093723Y-72555419D01*
X175156930Y-72402822D01*
X175248694Y-72265488D01*
X175365488Y-72148694D01*
X175502822Y-72056930D01*
X175655419Y-71993723D01*
X175817414Y-71961500D01*
X175982586Y-71961500D01*
X176144581Y-71993723D01*
X176144581Y-71993723D01*
G37*
G36*
X193777750Y-70169231D02*
G01*
X193843935Y-70175750D01*
X194013774Y-70227270D01*
X194170299Y-70310935D01*
X194206037Y-70340265D01*
X194307494Y-70423527D01*
X194390756Y-70524984D01*
X194420086Y-70560722D01*
X194503751Y-70717247D01*
X194555271Y-70887086D01*
X194572667Y-71063713D01*
X194555271Y-71240340D01*
X194503751Y-71410179D01*
X194420086Y-71566704D01*
X194390756Y-71602442D01*
X194307494Y-71703899D01*
X194206037Y-71787161D01*
X194170299Y-71816491D01*
X194013774Y-71900156D01*
X193843935Y-71951676D01*
X193777751Y-71958194D01*
X193711568Y-71964713D01*
X193623048Y-71964713D01*
X193556865Y-71958194D01*
X193490681Y-71951676D01*
X193320842Y-71900156D01*
X193164317Y-71816491D01*
X193128579Y-71787161D01*
X193027122Y-71703899D01*
X192943860Y-71602442D01*
X192914530Y-71566704D01*
X192830865Y-71410179D01*
X192779345Y-71240340D01*
X192761949Y-71063713D01*
X192779345Y-70887086D01*
X192830865Y-70717247D01*
X192914530Y-70560722D01*
X192943860Y-70524984D01*
X193027122Y-70423527D01*
X193128579Y-70340265D01*
X193164317Y-70310935D01*
X193320842Y-70227270D01*
X193490681Y-70175750D01*
X193556866Y-70169231D01*
X193623048Y-70162713D01*
X193711568Y-70162713D01*
X193777750Y-70169231D01*
X193777750Y-70169231D01*
G37*
G36*
X91469335Y-70152973D02*
G01*
X91535519Y-70159491D01*
X91705358Y-70211011D01*
X91861883Y-70294676D01*
X91897621Y-70324006D01*
X91999078Y-70407268D01*
X92082340Y-70508725D01*
X92111670Y-70544463D01*
X92195335Y-70700988D01*
X92246855Y-70870827D01*
X92264251Y-71047454D01*
X92246855Y-71224081D01*
X92195335Y-71393920D01*
X92111670Y-71550445D01*
X92098328Y-71566702D01*
X91999078Y-71687640D01*
X91897621Y-71770902D01*
X91861883Y-71800232D01*
X91705358Y-71883897D01*
X91535519Y-71935417D01*
X91469334Y-71941936D01*
X91403152Y-71948454D01*
X91314632Y-71948454D01*
X91248450Y-71941936D01*
X91182265Y-71935417D01*
X91012426Y-71883897D01*
X90855901Y-71800232D01*
X90820163Y-71770902D01*
X90718706Y-71687640D01*
X90619456Y-71566702D01*
X90606114Y-71550445D01*
X90522449Y-71393920D01*
X90470929Y-71224081D01*
X90453533Y-71047454D01*
X90470929Y-70870827D01*
X90522449Y-70700988D01*
X90606114Y-70544463D01*
X90635444Y-70508725D01*
X90718706Y-70407268D01*
X90820163Y-70324006D01*
X90855901Y-70294676D01*
X91012426Y-70211011D01*
X91182265Y-70159491D01*
X91248449Y-70152973D01*
X91314632Y-70146454D01*
X91403152Y-70146454D01*
X91469335Y-70152973D01*
X91469335Y-70152973D01*
G37*
G36*
X192249141Y-68140697D02*
G01*
X192315325Y-68147215D01*
X192485164Y-68198735D01*
X192641689Y-68282400D01*
X192677427Y-68311730D01*
X192778884Y-68394992D01*
X192862146Y-68496449D01*
X192891476Y-68532187D01*
X192975141Y-68688712D01*
X193026661Y-68858551D01*
X193044057Y-69035178D01*
X193026661Y-69211805D01*
X192975141Y-69381644D01*
X192891476Y-69538169D01*
X192862146Y-69573907D01*
X192778884Y-69675364D01*
X192677427Y-69758626D01*
X192641689Y-69787956D01*
X192485164Y-69871621D01*
X192315325Y-69923141D01*
X192249141Y-69929659D01*
X192182958Y-69936178D01*
X192094438Y-69936178D01*
X192028255Y-69929659D01*
X191962071Y-69923141D01*
X191792232Y-69871621D01*
X191635707Y-69787956D01*
X191599969Y-69758626D01*
X191498512Y-69675364D01*
X191415250Y-69573907D01*
X191385920Y-69538169D01*
X191302255Y-69381644D01*
X191250735Y-69211805D01*
X191233339Y-69035178D01*
X191250735Y-68858551D01*
X191302255Y-68688712D01*
X191385920Y-68532187D01*
X191415250Y-68496449D01*
X191498512Y-68394992D01*
X191599969Y-68311730D01*
X191635707Y-68282400D01*
X191792232Y-68198735D01*
X191962071Y-68147215D01*
X192028255Y-68140697D01*
X192094438Y-68134178D01*
X192182958Y-68134178D01*
X192249141Y-68140697D01*
X192249141Y-68140697D01*
G37*
G36*
X92997944Y-68124437D02*
G01*
X93064129Y-68130956D01*
X93233968Y-68182476D01*
X93390493Y-68266141D01*
X93426231Y-68295471D01*
X93527688Y-68378733D01*
X93610950Y-68480190D01*
X93640280Y-68515928D01*
X93723945Y-68672453D01*
X93775465Y-68842292D01*
X93792861Y-69018919D01*
X93775465Y-69195546D01*
X93723945Y-69365385D01*
X93640280Y-69521910D01*
X93626938Y-69538167D01*
X93527688Y-69659105D01*
X93426231Y-69742367D01*
X93390493Y-69771697D01*
X93233968Y-69855362D01*
X93064129Y-69906882D01*
X92997944Y-69913401D01*
X92931762Y-69919919D01*
X92843242Y-69919919D01*
X92777060Y-69913401D01*
X92710875Y-69906882D01*
X92541036Y-69855362D01*
X92384511Y-69771697D01*
X92348773Y-69742367D01*
X92247316Y-69659105D01*
X92148066Y-69538167D01*
X92134724Y-69521910D01*
X92051059Y-69365385D01*
X91999539Y-69195546D01*
X91982143Y-69018919D01*
X91999539Y-68842292D01*
X92051059Y-68672453D01*
X92134724Y-68515928D01*
X92164054Y-68480190D01*
X92247316Y-68378733D01*
X92348773Y-68295471D01*
X92384511Y-68266141D01*
X92541036Y-68182476D01*
X92710875Y-68130956D01*
X92777060Y-68124437D01*
X92843242Y-68117919D01*
X92931762Y-68117919D01*
X92997944Y-68124437D01*
X92997944Y-68124437D01*
G37*
G36*
X199851637Y-66308139D02*
G01*
X200367482Y-66992688D01*
X200367482Y-66992689D01*
X199546782Y-67611130D01*
X198928341Y-68077159D01*
X198928340Y-68077159D01*
X198109398Y-66990385D01*
X197843870Y-66638018D01*
X197843870Y-66638017D01*
X198809810Y-65910130D01*
X199283011Y-65553547D01*
X199283012Y-65553547D01*
X199851637Y-66308139D01*
X199851637Y-66308139D01*
G37*
G36*
X190720530Y-66112162D02*
G01*
X190786715Y-66118681D01*
X190956554Y-66170201D01*
X191113079Y-66253866D01*
X191148817Y-66283196D01*
X191250274Y-66366458D01*
X191330867Y-66464662D01*
X191362866Y-66503653D01*
X191446531Y-66660178D01*
X191498051Y-66830017D01*
X191515447Y-67006644D01*
X191498051Y-67183271D01*
X191446531Y-67353110D01*
X191362866Y-67509635D01*
X191333536Y-67545373D01*
X191250274Y-67646830D01*
X191148817Y-67730092D01*
X191113079Y-67759422D01*
X190956554Y-67843087D01*
X190786715Y-67894607D01*
X190720530Y-67901126D01*
X190654348Y-67907644D01*
X190565828Y-67907644D01*
X190499646Y-67901126D01*
X190433461Y-67894607D01*
X190263622Y-67843087D01*
X190107097Y-67759422D01*
X190071359Y-67730092D01*
X189969902Y-67646830D01*
X189886640Y-67545373D01*
X189857310Y-67509635D01*
X189773645Y-67353110D01*
X189722125Y-67183271D01*
X189704729Y-67006644D01*
X189722125Y-66830017D01*
X189773645Y-66660178D01*
X189857310Y-66503653D01*
X189889309Y-66464662D01*
X189969902Y-66366458D01*
X190071359Y-66283196D01*
X190107097Y-66253866D01*
X190263622Y-66170201D01*
X190433461Y-66118681D01*
X190499646Y-66112162D01*
X190565828Y-66105644D01*
X190654348Y-66105644D01*
X190720530Y-66112162D01*
X190720530Y-66112162D01*
G37*
G36*
X94526554Y-66095903D02*
G01*
X94592739Y-66102422D01*
X94762578Y-66153942D01*
X94919103Y-66237607D01*
X94954841Y-66266937D01*
X95056298Y-66350199D01*
X95139560Y-66451656D01*
X95168890Y-66487394D01*
X95252555Y-66643919D01*
X95304075Y-66813758D01*
X95321471Y-66990385D01*
X95304075Y-67167012D01*
X95252555Y-67336851D01*
X95168890Y-67493376D01*
X95155548Y-67509633D01*
X95056298Y-67630571D01*
X94972802Y-67699093D01*
X94919103Y-67743163D01*
X94762578Y-67826828D01*
X94592739Y-67878348D01*
X94526555Y-67884866D01*
X94460372Y-67891385D01*
X94371852Y-67891385D01*
X94305669Y-67884866D01*
X94239485Y-67878348D01*
X94069646Y-67826828D01*
X93913121Y-67743163D01*
X93859422Y-67699093D01*
X93775926Y-67630571D01*
X93676676Y-67509633D01*
X93663334Y-67493376D01*
X93579669Y-67336851D01*
X93528149Y-67167012D01*
X93510753Y-66990385D01*
X93528149Y-66813758D01*
X93579669Y-66643919D01*
X93663334Y-66487394D01*
X93692664Y-66451656D01*
X93775926Y-66350199D01*
X93877383Y-66266937D01*
X93913121Y-66237607D01*
X94069646Y-66153942D01*
X94239485Y-66102422D01*
X94305670Y-66095903D01*
X94371852Y-66089385D01*
X94460372Y-66089385D01*
X94526554Y-66095903D01*
X94526554Y-66095903D01*
G37*
G36*
X86046940Y-65916649D02*
G01*
X86113124Y-65923167D01*
X86282963Y-65974687D01*
X86439488Y-66058352D01*
X86475226Y-66087682D01*
X86576683Y-66170944D01*
X86644733Y-66253865D01*
X86689275Y-66308139D01*
X86772940Y-66464664D01*
X86824460Y-66634503D01*
X86841856Y-66811130D01*
X86824460Y-66987757D01*
X86772940Y-67157596D01*
X86689275Y-67314121D01*
X86670621Y-67336851D01*
X86576683Y-67451316D01*
X86475226Y-67534578D01*
X86439488Y-67563908D01*
X86282963Y-67647573D01*
X86113124Y-67699093D01*
X86046939Y-67705612D01*
X85980757Y-67712130D01*
X85892237Y-67712130D01*
X85826055Y-67705612D01*
X85759870Y-67699093D01*
X85590031Y-67647573D01*
X85433506Y-67563908D01*
X85397768Y-67534578D01*
X85296311Y-67451316D01*
X85202373Y-67336851D01*
X85183719Y-67314121D01*
X85100054Y-67157596D01*
X85048534Y-66987757D01*
X85031138Y-66811130D01*
X85048534Y-66634503D01*
X85100054Y-66464664D01*
X85183719Y-66308139D01*
X85228261Y-66253865D01*
X85296311Y-66170944D01*
X85397768Y-66087682D01*
X85433506Y-66058352D01*
X85590031Y-65974687D01*
X85759870Y-65923167D01*
X85826054Y-65916649D01*
X85892237Y-65910130D01*
X85980757Y-65910130D01*
X86046940Y-65916649D01*
X86046940Y-65916649D01*
G37*
G36*
X189811919Y-64450300D02*
G01*
X190343284Y-65155445D01*
X190343284Y-65155446D01*
X189522584Y-65773887D01*
X188904143Y-66239916D01*
X188904142Y-66239916D01*
X188052779Y-65110118D01*
X187819672Y-64800775D01*
X187819672Y-64800774D01*
X188743526Y-64104601D01*
X189258813Y-63716304D01*
X189258814Y-63716304D01*
X189811919Y-64450300D01*
X189811919Y-64450300D01*
G37*
G36*
X96304248Y-64104599D02*
G01*
X97206528Y-64784515D01*
X97206528Y-64784516D01*
X96961169Y-65110118D01*
X96122058Y-66223657D01*
X96122057Y-66223657D01*
X95232791Y-65553547D01*
X94682916Y-65139187D01*
X94682916Y-65139186D01*
X95202029Y-64450300D01*
X95767386Y-63700045D01*
X95767387Y-63700045D01*
X96304248Y-64104599D01*
X96304248Y-64104599D01*
G37*
G36*
X201244653Y-64392262D02*
G01*
X201310837Y-64398780D01*
X201480676Y-64450300D01*
X201637201Y-64533965D01*
X201672939Y-64563295D01*
X201774396Y-64646557D01*
X201857658Y-64748014D01*
X201886988Y-64783752D01*
X201970653Y-64940277D01*
X202022173Y-65110116D01*
X202039569Y-65286743D01*
X202022173Y-65463370D01*
X201970653Y-65633209D01*
X201886988Y-65789734D01*
X201857658Y-65825472D01*
X201774396Y-65926929D01*
X201672939Y-66010191D01*
X201637201Y-66039521D01*
X201637199Y-66039522D01*
X201488579Y-66118962D01*
X201480676Y-66123186D01*
X201310837Y-66174706D01*
X201244653Y-66181224D01*
X201178470Y-66187743D01*
X201089950Y-66187743D01*
X201023767Y-66181224D01*
X200957583Y-66174706D01*
X200787744Y-66123186D01*
X200779842Y-66118962D01*
X200631221Y-66039522D01*
X200631219Y-66039521D01*
X200595481Y-66010191D01*
X200494024Y-65926929D01*
X200410762Y-65825472D01*
X200381432Y-65789734D01*
X200297767Y-65633209D01*
X200246247Y-65463370D01*
X200228851Y-65286743D01*
X200246247Y-65110116D01*
X200297767Y-64940277D01*
X200381432Y-64783752D01*
X200410762Y-64748014D01*
X200494024Y-64646557D01*
X200595481Y-64563295D01*
X200631219Y-64533965D01*
X200787744Y-64450300D01*
X200957583Y-64398780D01*
X201023767Y-64392262D01*
X201089950Y-64385743D01*
X201178470Y-64385743D01*
X201244653Y-64392262D01*
X201244653Y-64392262D01*
G37*
G36*
X83995098Y-64385743D02*
G01*
X84084589Y-64394557D01*
X84254428Y-64446077D01*
X84254430Y-64446078D01*
X84332691Y-64487910D01*
X84410953Y-64529742D01*
X84446691Y-64559072D01*
X84548148Y-64642334D01*
X84631410Y-64743791D01*
X84660740Y-64779529D01*
X84744405Y-64936054D01*
X84795925Y-65105893D01*
X84813321Y-65282520D01*
X84795925Y-65459147D01*
X84744405Y-65628986D01*
X84660740Y-65785511D01*
X84657274Y-65789734D01*
X84548148Y-65922706D01*
X84446691Y-66005968D01*
X84410953Y-66035298D01*
X84254428Y-66118963D01*
X84084589Y-66170483D01*
X84041711Y-66174706D01*
X83952222Y-66183520D01*
X83863702Y-66183520D01*
X83774213Y-66174706D01*
X83731335Y-66170483D01*
X83561496Y-66118963D01*
X83404971Y-66035298D01*
X83369233Y-66005968D01*
X83267776Y-65922706D01*
X83158650Y-65789734D01*
X83155184Y-65785511D01*
X83071519Y-65628986D01*
X83019999Y-65459147D01*
X83002603Y-65282520D01*
X83019999Y-65105893D01*
X83071519Y-64936054D01*
X83155184Y-64779529D01*
X83184514Y-64743791D01*
X83267776Y-64642334D01*
X83369233Y-64559072D01*
X83404971Y-64529742D01*
X83483233Y-64487910D01*
X83561494Y-64446078D01*
X83561496Y-64446077D01*
X83731335Y-64394557D01*
X83820826Y-64385743D01*
X83863702Y-64381520D01*
X83952222Y-64381520D01*
X83995098Y-64385743D01*
X83995098Y-64385743D01*
G37*
G36*
X203273186Y-62863651D02*
G01*
X203339371Y-62870170D01*
X203509210Y-62921690D01*
X203665735Y-63005355D01*
X203701473Y-63034685D01*
X203802930Y-63117947D01*
X203886192Y-63219404D01*
X203915522Y-63255142D01*
X203999187Y-63411667D01*
X204050707Y-63581506D01*
X204068103Y-63758133D01*
X204050707Y-63934760D01*
X203999187Y-64104599D01*
X203915522Y-64261124D01*
X203886192Y-64296862D01*
X203802930Y-64398319D01*
X203701473Y-64481581D01*
X203665735Y-64510911D01*
X203665733Y-64510912D01*
X203517113Y-64590352D01*
X203509210Y-64594576D01*
X203339371Y-64646096D01*
X203273186Y-64652615D01*
X203207004Y-64659133D01*
X203118484Y-64659133D01*
X203052302Y-64652615D01*
X202986117Y-64646096D01*
X202816278Y-64594576D01*
X202808376Y-64590352D01*
X202659755Y-64510912D01*
X202659753Y-64510911D01*
X202624015Y-64481581D01*
X202522558Y-64398319D01*
X202439296Y-64296862D01*
X202409966Y-64261124D01*
X202326301Y-64104599D01*
X202274781Y-63934760D01*
X202257385Y-63758133D01*
X202274781Y-63581506D01*
X202326301Y-63411667D01*
X202409966Y-63255142D01*
X202439296Y-63219404D01*
X202522558Y-63117947D01*
X202624015Y-63034685D01*
X202659753Y-63005355D01*
X202816278Y-62921690D01*
X202986117Y-62870170D01*
X203052302Y-62863651D01*
X203118484Y-62857133D01*
X203207004Y-62857133D01*
X203273186Y-62863651D01*
X203273186Y-62863651D01*
G37*
G36*
X81966564Y-62857133D02*
G01*
X82056055Y-62865947D01*
X82225894Y-62917467D01*
X82225896Y-62917468D01*
X82304156Y-62959299D01*
X82382419Y-63001132D01*
X82418157Y-63030462D01*
X82519614Y-63113724D01*
X82602876Y-63215181D01*
X82632206Y-63250919D01*
X82715871Y-63407444D01*
X82767391Y-63577283D01*
X82784787Y-63753910D01*
X82767391Y-63930537D01*
X82715871Y-64100376D01*
X82632206Y-64256901D01*
X82628740Y-64261124D01*
X82519614Y-64394096D01*
X82418157Y-64477358D01*
X82382419Y-64506688D01*
X82225894Y-64590353D01*
X82056055Y-64641873D01*
X81989871Y-64648391D01*
X81923688Y-64654910D01*
X81835168Y-64654910D01*
X81768985Y-64648391D01*
X81702801Y-64641873D01*
X81532962Y-64590353D01*
X81376437Y-64506688D01*
X81340699Y-64477358D01*
X81239242Y-64394096D01*
X81130116Y-64261124D01*
X81126650Y-64256901D01*
X81042985Y-64100376D01*
X80991465Y-63930537D01*
X80974069Y-63753910D01*
X80991465Y-63577283D01*
X81042985Y-63407444D01*
X81126650Y-63250919D01*
X81155980Y-63215181D01*
X81239242Y-63113724D01*
X81340699Y-63030462D01*
X81376437Y-63001132D01*
X81454699Y-62959300D01*
X81532960Y-62917468D01*
X81532962Y-62917467D01*
X81702801Y-62865947D01*
X81792292Y-62857133D01*
X81835168Y-62852910D01*
X81923688Y-62852910D01*
X81966564Y-62857133D01*
X81966564Y-62857133D01*
G37*
G36*
X80175269Y-61341560D02*
G01*
X81112700Y-62047964D01*
X81112700Y-62047965D01*
X80842788Y-62406150D01*
X80028230Y-63487106D01*
X80028229Y-63487106D01*
X79272293Y-62917467D01*
X78589088Y-62402636D01*
X78589088Y-62402635D01*
X79098568Y-61726532D01*
X79673558Y-60963494D01*
X79673559Y-60963494D01*
X80175269Y-61341560D01*
X80175269Y-61341560D01*
G37*
G36*
X205301722Y-61335042D02*
G01*
X205367906Y-61341560D01*
X205537745Y-61393080D01*
X205694270Y-61476745D01*
X205730008Y-61506075D01*
X205831465Y-61589337D01*
X205914727Y-61690794D01*
X205944057Y-61726532D01*
X206027722Y-61883057D01*
X206079242Y-62052896D01*
X206096638Y-62229523D01*
X206079242Y-62406150D01*
X206027722Y-62575989D01*
X205944057Y-62732514D01*
X205914727Y-62768252D01*
X205831465Y-62869709D01*
X205730008Y-62952971D01*
X205694270Y-62982301D01*
X205537745Y-63065966D01*
X205367906Y-63117486D01*
X205301721Y-63124005D01*
X205235539Y-63130523D01*
X205147019Y-63130523D01*
X205080837Y-63124005D01*
X205014652Y-63117486D01*
X204844813Y-63065966D01*
X204688288Y-62982301D01*
X204652550Y-62952971D01*
X204551093Y-62869709D01*
X204467831Y-62768252D01*
X204438501Y-62732514D01*
X204354836Y-62575989D01*
X204303316Y-62406150D01*
X204285920Y-62229523D01*
X204303316Y-62052896D01*
X204354836Y-61883057D01*
X204438501Y-61726532D01*
X204467831Y-61690794D01*
X204551093Y-61589337D01*
X204652550Y-61506075D01*
X204688288Y-61476745D01*
X204844813Y-61393080D01*
X205014652Y-61341560D01*
X205080836Y-61335042D01*
X205147019Y-61328523D01*
X205235539Y-61328523D01*
X205301722Y-61335042D01*
X205301722Y-61335042D01*
G37*
G36*
X71889221Y-55136912D02*
G01*
X72851939Y-55862371D01*
X72851939Y-55862372D01*
X72385910Y-56480813D01*
X71767469Y-57301513D01*
X71767468Y-57301513D01*
X71089583Y-56790690D01*
X70328327Y-56217043D01*
X70328327Y-56217042D01*
X70945726Y-55397726D01*
X71412797Y-54777901D01*
X71412798Y-54777901D01*
X71889221Y-55136912D01*
X71889221Y-55136912D01*
G37*
G36*
X213570467Y-55143430D02*
G01*
X213636652Y-55149949D01*
X213806491Y-55201469D01*
X213963016Y-55285134D01*
X213998754Y-55314464D01*
X214100211Y-55397726D01*
X214183473Y-55499183D01*
X214212803Y-55534921D01*
X214296468Y-55691446D01*
X214347988Y-55861285D01*
X214365384Y-56037912D01*
X214347988Y-56214539D01*
X214296468Y-56384378D01*
X214212803Y-56540903D01*
X214183473Y-56576641D01*
X214100211Y-56678098D01*
X213998754Y-56761360D01*
X213963016Y-56790690D01*
X213806491Y-56874355D01*
X213636652Y-56925875D01*
X213570468Y-56932393D01*
X213504285Y-56938912D01*
X213415765Y-56938912D01*
X213349582Y-56932393D01*
X213283398Y-56925875D01*
X213113559Y-56874355D01*
X212957034Y-56790690D01*
X212921296Y-56761360D01*
X212819839Y-56678098D01*
X212736577Y-56576641D01*
X212707247Y-56540903D01*
X212623582Y-56384378D01*
X212572062Y-56214539D01*
X212554666Y-56037912D01*
X212572062Y-55861285D01*
X212623582Y-55691446D01*
X212707247Y-55534921D01*
X212736577Y-55499183D01*
X212819839Y-55397726D01*
X212921296Y-55314464D01*
X212957034Y-55285134D01*
X213113559Y-55201469D01*
X213283398Y-55149949D01*
X213349583Y-55143430D01*
X213415765Y-55136912D01*
X213504285Y-55136912D01*
X213570467Y-55143430D01*
X213570467Y-55143430D01*
G37*
G36*
X69672042Y-53616616D02*
G01*
X69738226Y-53623134D01*
X69908065Y-53674654D01*
X70064590Y-53758319D01*
X70100328Y-53787649D01*
X70201785Y-53870911D01*
X70285047Y-53972368D01*
X70314377Y-54008106D01*
X70314378Y-54008108D01*
X70397082Y-54162834D01*
X70398042Y-54164631D01*
X70449562Y-54334470D01*
X70466958Y-54511097D01*
X70449562Y-54687724D01*
X70398042Y-54857563D01*
X70314377Y-55014088D01*
X70285047Y-55049826D01*
X70201785Y-55151283D01*
X70100328Y-55234545D01*
X70064590Y-55263875D01*
X69908065Y-55347540D01*
X69738226Y-55399060D01*
X69672042Y-55405578D01*
X69605859Y-55412097D01*
X69517339Y-55412097D01*
X69451156Y-55405578D01*
X69384972Y-55399060D01*
X69215133Y-55347540D01*
X69058608Y-55263875D01*
X69022870Y-55234545D01*
X68921413Y-55151283D01*
X68838151Y-55049826D01*
X68808821Y-55014088D01*
X68725156Y-54857563D01*
X68673636Y-54687724D01*
X68656240Y-54511097D01*
X68673636Y-54334470D01*
X68725156Y-54164631D01*
X68726117Y-54162834D01*
X68808820Y-54008108D01*
X68808821Y-54008106D01*
X68838151Y-53972368D01*
X68921413Y-53870911D01*
X69022870Y-53787649D01*
X69058608Y-53758319D01*
X69215133Y-53674654D01*
X69384972Y-53623134D01*
X69451156Y-53616616D01*
X69517339Y-53610097D01*
X69605859Y-53610097D01*
X69672042Y-53616616D01*
X69672042Y-53616616D01*
G37*
G36*
X215599003Y-53614821D02*
G01*
X215665187Y-53621339D01*
X215835026Y-53672859D01*
X215991551Y-53756524D01*
X216027289Y-53785854D01*
X216128746Y-53869116D01*
X216212008Y-53970573D01*
X216241338Y-54006311D01*
X216325003Y-54162836D01*
X216376523Y-54332675D01*
X216393919Y-54509302D01*
X216376523Y-54685929D01*
X216325003Y-54855768D01*
X216325002Y-54855770D01*
X216283170Y-54934031D01*
X216241338Y-55012293D01*
X216212008Y-55048031D01*
X216128746Y-55149488D01*
X216027289Y-55232750D01*
X215991551Y-55262080D01*
X215835026Y-55345745D01*
X215665187Y-55397265D01*
X215599003Y-55403783D01*
X215532820Y-55410302D01*
X215444300Y-55410302D01*
X215378117Y-55403783D01*
X215311933Y-55397265D01*
X215142094Y-55345745D01*
X214985569Y-55262080D01*
X214949831Y-55232750D01*
X214848374Y-55149488D01*
X214765112Y-55048031D01*
X214735782Y-55012293D01*
X214693950Y-54934031D01*
X214652118Y-54855770D01*
X214652117Y-54855768D01*
X214600597Y-54685929D01*
X214583201Y-54509302D01*
X214600597Y-54332675D01*
X214652117Y-54162836D01*
X214735782Y-54006311D01*
X214765112Y-53970573D01*
X214848374Y-53869116D01*
X214949831Y-53785854D01*
X214985569Y-53756524D01*
X215142094Y-53672859D01*
X215311933Y-53621339D01*
X215378117Y-53614821D01*
X215444300Y-53608302D01*
X215532820Y-53608302D01*
X215599003Y-53614821D01*
X215599003Y-53614821D01*
G37*
G36*
X67643508Y-52088006D02*
G01*
X67709692Y-52094524D01*
X67879531Y-52146044D01*
X68036056Y-52229709D01*
X68071794Y-52259039D01*
X68173251Y-52342301D01*
X68256513Y-52443758D01*
X68285843Y-52479496D01*
X68285844Y-52479498D01*
X68368548Y-52634224D01*
X68369508Y-52636021D01*
X68421028Y-52805860D01*
X68438424Y-52982487D01*
X68421028Y-53159114D01*
X68369508Y-53328953D01*
X68285843Y-53485478D01*
X68256513Y-53521216D01*
X68173251Y-53622673D01*
X68071794Y-53705935D01*
X68036056Y-53735265D01*
X67879531Y-53818930D01*
X67709692Y-53870450D01*
X67643508Y-53876968D01*
X67577325Y-53883487D01*
X67488805Y-53883487D01*
X67422622Y-53876968D01*
X67356438Y-53870450D01*
X67186599Y-53818930D01*
X67030074Y-53735265D01*
X66994336Y-53705935D01*
X66892879Y-53622673D01*
X66809617Y-53521216D01*
X66780287Y-53485478D01*
X66696622Y-53328953D01*
X66645102Y-53159114D01*
X66627706Y-52982487D01*
X66645102Y-52805860D01*
X66696622Y-52636021D01*
X66697583Y-52634224D01*
X66780286Y-52479498D01*
X66780287Y-52479496D01*
X66809617Y-52443758D01*
X66892879Y-52342301D01*
X66994336Y-52259039D01*
X67030074Y-52229709D01*
X67186599Y-52146044D01*
X67356438Y-52094524D01*
X67422622Y-52088006D01*
X67488805Y-52081487D01*
X67577325Y-52081487D01*
X67643508Y-52088006D01*
X67643508Y-52088006D01*
G37*
G36*
X217627537Y-52086211D02*
G01*
X217693721Y-52092729D01*
X217863560Y-52144249D01*
X218020085Y-52227914D01*
X218055823Y-52257244D01*
X218157280Y-52340506D01*
X218240542Y-52441963D01*
X218269872Y-52477701D01*
X218353537Y-52634226D01*
X218405057Y-52804065D01*
X218422453Y-52980692D01*
X218405057Y-53157319D01*
X218404512Y-53159114D01*
X218353536Y-53327160D01*
X218311704Y-53405421D01*
X218269872Y-53483683D01*
X218240542Y-53519421D01*
X218157280Y-53620878D01*
X218055823Y-53704140D01*
X218020085Y-53733470D01*
X217863560Y-53817135D01*
X217693721Y-53868655D01*
X217627537Y-53875173D01*
X217561354Y-53881692D01*
X217472834Y-53881692D01*
X217406651Y-53875173D01*
X217340467Y-53868655D01*
X217170628Y-53817135D01*
X217014103Y-53733470D01*
X216978365Y-53704140D01*
X216876908Y-53620878D01*
X216793646Y-53519421D01*
X216764316Y-53483683D01*
X216722484Y-53405421D01*
X216680652Y-53327160D01*
X216629676Y-53159114D01*
X216629131Y-53157319D01*
X216611735Y-52980692D01*
X216629131Y-52804065D01*
X216680651Y-52634226D01*
X216764316Y-52477701D01*
X216793646Y-52441963D01*
X216876908Y-52340506D01*
X216978365Y-52257244D01*
X217014103Y-52227914D01*
X217170628Y-52144249D01*
X217340467Y-52092729D01*
X217406651Y-52086211D01*
X217472834Y-52079692D01*
X217561354Y-52079692D01*
X217627537Y-52086211D01*
X217627537Y-52086211D01*
G37*
G36*
X220107896Y-50701099D02*
G01*
X220807434Y-51629417D01*
X220807434Y-51629418D01*
X220124229Y-52144249D01*
X219368293Y-52713888D01*
X219368292Y-52713888D01*
X218679887Y-51800343D01*
X218283822Y-51274747D01*
X218283822Y-51274746D01*
X219156104Y-50617435D01*
X219722963Y-50190276D01*
X219722964Y-50190276D01*
X220107896Y-50701099D01*
X220107896Y-50701099D01*
G37*
G36*
X65614973Y-50559396D02*
G01*
X65681157Y-50565914D01*
X65850996Y-50617434D01*
X66007521Y-50701099D01*
X66043259Y-50730429D01*
X66144716Y-50813691D01*
X66227978Y-50915148D01*
X66257308Y-50950886D01*
X66340973Y-51107411D01*
X66392493Y-51277250D01*
X66409889Y-51453877D01*
X66392493Y-51630504D01*
X66340973Y-51800343D01*
X66257308Y-51956868D01*
X66227978Y-51992606D01*
X66144716Y-52094063D01*
X66043259Y-52177325D01*
X66007521Y-52206655D01*
X65850996Y-52290320D01*
X65681157Y-52341840D01*
X65614973Y-52348358D01*
X65548790Y-52354877D01*
X65460270Y-52354877D01*
X65394088Y-52348359D01*
X65327903Y-52341840D01*
X65158064Y-52290320D01*
X65001539Y-52206655D01*
X64965801Y-52177325D01*
X64864344Y-52094063D01*
X64781082Y-51992606D01*
X64751752Y-51956868D01*
X64668087Y-51800343D01*
X64616567Y-51630504D01*
X64599171Y-51453877D01*
X64616567Y-51277250D01*
X64668087Y-51107411D01*
X64751752Y-50950886D01*
X64781082Y-50915148D01*
X64864344Y-50813691D01*
X64965801Y-50730429D01*
X65001539Y-50701099D01*
X65158064Y-50617434D01*
X65327903Y-50565914D01*
X65394088Y-50559395D01*
X65460270Y-50552877D01*
X65548790Y-50552877D01*
X65614973Y-50559396D01*
X65614973Y-50559396D01*
G37*
G36*
X106611234Y-32401555D02*
G01*
X106779756Y-32471359D01*
X106931421Y-32572698D01*
X107060402Y-32701679D01*
X107161741Y-32853344D01*
X107231545Y-33021866D01*
X107267130Y-33200767D01*
X107267130Y-33383173D01*
X107231545Y-33562074D01*
X107161741Y-33730596D01*
X107060402Y-33882261D01*
X106931421Y-34011242D01*
X106779756Y-34112581D01*
X106611234Y-34182385D01*
X106432333Y-34217970D01*
X106249927Y-34217970D01*
X106071026Y-34182385D01*
X105902504Y-34112581D01*
X105750839Y-34011242D01*
X105621858Y-33882261D01*
X105520519Y-33730596D01*
X105450715Y-33562074D01*
X105415130Y-33383173D01*
X105415130Y-33200767D01*
X105450715Y-33021866D01*
X105520519Y-32853344D01*
X105621858Y-32701679D01*
X105750839Y-32572698D01*
X105902504Y-32471359D01*
X106071026Y-32401555D01*
X106249927Y-32365970D01*
X106432333Y-32365970D01*
X106611234Y-32401555D01*
X106611234Y-32401555D01*
G37*
G36*
X178944567Y-32399070D02*
G01*
X179113089Y-32468874D01*
X179264754Y-32570213D01*
X179393735Y-32699194D01*
X179495074Y-32850859D01*
X179564878Y-33019381D01*
X179600463Y-33198282D01*
X179600463Y-33380688D01*
X179564878Y-33559589D01*
X179495074Y-33728111D01*
X179393735Y-33879776D01*
X179264754Y-34008757D01*
X179113089Y-34110096D01*
X178944567Y-34179900D01*
X178765666Y-34215485D01*
X178583260Y-34215485D01*
X178404359Y-34179900D01*
X178235837Y-34110096D01*
X178084172Y-34008757D01*
X177955191Y-33879776D01*
X177853852Y-33728111D01*
X177784048Y-33559589D01*
X177748463Y-33380688D01*
X177748463Y-33198282D01*
X177784048Y-33019381D01*
X177853852Y-32850859D01*
X177955191Y-32699194D01*
X178084172Y-32570213D01*
X178235837Y-32468874D01*
X178404359Y-32399070D01*
X178583260Y-32363485D01*
X178765666Y-32363485D01*
X178944567Y-32399070D01*
X178944567Y-32399070D01*
G37*
G36*
X144046315Y-32305112D02*
G01*
X144116627Y-32312037D01*
X144286466Y-32363557D01*
X144442991Y-32447222D01*
X144469374Y-32468874D01*
X144580186Y-32559814D01*
X144663448Y-32661271D01*
X144692778Y-32697009D01*
X144692779Y-32697011D01*
X144776342Y-32853344D01*
X144776443Y-32853534D01*
X144827963Y-33023373D01*
X144845359Y-33200000D01*
X144827963Y-33376627D01*
X144776443Y-33546466D01*
X144692778Y-33702991D01*
X144672163Y-33728110D01*
X144580186Y-33840186D01*
X144478729Y-33923448D01*
X144442991Y-33952778D01*
X144442989Y-33952779D01*
X144338263Y-34008757D01*
X144286466Y-34036443D01*
X144116627Y-34087963D01*
X144050443Y-34094481D01*
X143984260Y-34101000D01*
X143895740Y-34101000D01*
X143829557Y-34094481D01*
X143763373Y-34087963D01*
X143593534Y-34036443D01*
X143541738Y-34008757D01*
X143437011Y-33952779D01*
X143437009Y-33952778D01*
X143401271Y-33923448D01*
X143299814Y-33840186D01*
X143207837Y-33728110D01*
X143187222Y-33702991D01*
X143103557Y-33546466D01*
X143052037Y-33376627D01*
X143034641Y-33200000D01*
X143052037Y-33023373D01*
X143103557Y-32853534D01*
X143103659Y-32853344D01*
X143187221Y-32697011D01*
X143187222Y-32697009D01*
X143216552Y-32661271D01*
X143299814Y-32559814D01*
X143410626Y-32468874D01*
X143437009Y-32447222D01*
X143593534Y-32363557D01*
X143763373Y-32312037D01*
X143833685Y-32305112D01*
X143895740Y-32299000D01*
X143984260Y-32299000D01*
X144046315Y-32305112D01*
X144046315Y-32305112D01*
G37*
G36*
X142301000Y-34101000D02*
G01*
X140499000Y-34101000D01*
X140499000Y-32299000D01*
X142301000Y-32299000D01*
X142301000Y-34101000D01*
X142301000Y-34101000D01*
G37*
G36*
X102227510Y-29422653D02*
G01*
X102445510Y-29512952D01*
X102599659Y-29576802D01*
X102934584Y-29800592D01*
X103219413Y-30085421D01*
X103443203Y-30420346D01*
X103478186Y-30504804D01*
X103597352Y-30792495D01*
X103675936Y-31187563D01*
X103675936Y-31590375D01*
X103597352Y-31985443D01*
X103507053Y-32203443D01*
X103443203Y-32357592D01*
X103219413Y-32692517D01*
X102934584Y-32977346D01*
X102599659Y-33201136D01*
X102445510Y-33264986D01*
X102227510Y-33355285D01*
X101832442Y-33433869D01*
X101429630Y-33433869D01*
X101034562Y-33355285D01*
X100816562Y-33264986D01*
X100662413Y-33201136D01*
X100327488Y-32977346D01*
X100042659Y-32692517D01*
X99818869Y-32357592D01*
X99755019Y-32203443D01*
X99664720Y-31985443D01*
X99586136Y-31590375D01*
X99586136Y-31187563D01*
X99664720Y-30792495D01*
X99783886Y-30504804D01*
X99818869Y-30420346D01*
X100042659Y-30085421D01*
X100327488Y-29800592D01*
X100662413Y-29576802D01*
X100816562Y-29512952D01*
X101034562Y-29422653D01*
X101429630Y-29344069D01*
X101832442Y-29344069D01*
X102227510Y-29422653D01*
X102227510Y-29422653D01*
G37*
G36*
X183981031Y-29420168D02*
G01*
X184101297Y-29469984D01*
X184353180Y-29574317D01*
X184688105Y-29798107D01*
X184972934Y-30082936D01*
X185196724Y-30417861D01*
X185218729Y-30470986D01*
X185350873Y-30790010D01*
X185429457Y-31185078D01*
X185429457Y-31587890D01*
X185350873Y-31982958D01*
X185302058Y-32100807D01*
X185196724Y-32355107D01*
X184972934Y-32690032D01*
X184688105Y-32974861D01*
X184353180Y-33198651D01*
X184199031Y-33262501D01*
X183981031Y-33352800D01*
X183585963Y-33431384D01*
X183183151Y-33431384D01*
X182788083Y-33352800D01*
X182570083Y-33262501D01*
X182415934Y-33198651D01*
X182081009Y-32974861D01*
X181796180Y-32690032D01*
X181572390Y-32355107D01*
X181467056Y-32100807D01*
X181418241Y-31982958D01*
X181339657Y-31587890D01*
X181339657Y-31185078D01*
X181418241Y-30790010D01*
X181550385Y-30470986D01*
X181572390Y-30417861D01*
X181796180Y-30082936D01*
X182081009Y-29798107D01*
X182415934Y-29574317D01*
X182667817Y-29469984D01*
X182788083Y-29420168D01*
X183183151Y-29341584D01*
X183585963Y-29341584D01*
X183981031Y-29420168D01*
X183981031Y-29420168D01*
G37*
G36*
X66133756Y-31147078D02*
G01*
X66302278Y-31216882D01*
X66453943Y-31318221D01*
X66582924Y-31447202D01*
X66684263Y-31598867D01*
X66754067Y-31767389D01*
X66789652Y-31946290D01*
X66789652Y-32128696D01*
X66754067Y-32307597D01*
X66684263Y-32476119D01*
X66582924Y-32627784D01*
X66453943Y-32756765D01*
X66302278Y-32858104D01*
X66133756Y-32927908D01*
X65954855Y-32963493D01*
X65772449Y-32963493D01*
X65593548Y-32927908D01*
X65425026Y-32858104D01*
X65273361Y-32756765D01*
X65144380Y-32627784D01*
X65043041Y-32476119D01*
X64973237Y-32307597D01*
X64937652Y-32128696D01*
X64937652Y-31946290D01*
X64973237Y-31767389D01*
X65043041Y-31598867D01*
X65144380Y-31447202D01*
X65273361Y-31318221D01*
X65425026Y-31216882D01*
X65593548Y-31147078D01*
X65772449Y-31111493D01*
X65954855Y-31111493D01*
X66133756Y-31147078D01*
X66133756Y-31147078D01*
G37*
G36*
X219422046Y-31144594D02*
G01*
X219590568Y-31214398D01*
X219742233Y-31315737D01*
X219871214Y-31444718D01*
X219972553Y-31596383D01*
X220042357Y-31764905D01*
X220077942Y-31943806D01*
X220077942Y-32126212D01*
X220042357Y-32305113D01*
X219972553Y-32473635D01*
X219871214Y-32625300D01*
X219742233Y-32754281D01*
X219590568Y-32855620D01*
X219422046Y-32925424D01*
X219243145Y-32961009D01*
X219060739Y-32961009D01*
X218881838Y-32925424D01*
X218713316Y-32855620D01*
X218561651Y-32754281D01*
X218432670Y-32625300D01*
X218331331Y-32473635D01*
X218261527Y-32305113D01*
X218225942Y-32126212D01*
X218225942Y-31943806D01*
X218261527Y-31764905D01*
X218331331Y-31596383D01*
X218432670Y-31444718D01*
X218561651Y-31315737D01*
X218713316Y-31214398D01*
X218881838Y-31144594D01*
X219060739Y-31109009D01*
X219243145Y-31109009D01*
X219422046Y-31144594D01*
X219422046Y-31144594D01*
G37*
G36*
X61750032Y-28168176D02*
G01*
X61958769Y-28254638D01*
X62122181Y-28322325D01*
X62457106Y-28546115D01*
X62741935Y-28830944D01*
X62965725Y-29165869D01*
X63029575Y-29320018D01*
X63119874Y-29538018D01*
X63198458Y-29933086D01*
X63198458Y-30335898D01*
X63119874Y-30730966D01*
X63046283Y-30908630D01*
X62965725Y-31103115D01*
X62741935Y-31438040D01*
X62457106Y-31722869D01*
X62122181Y-31946659D01*
X62028545Y-31985444D01*
X61750032Y-32100808D01*
X61354964Y-32179392D01*
X60952152Y-32179392D01*
X60557084Y-32100808D01*
X60278571Y-31985444D01*
X60184935Y-31946659D01*
X59850010Y-31722869D01*
X59565181Y-31438040D01*
X59341391Y-31103115D01*
X59260833Y-30908630D01*
X59187242Y-30730966D01*
X59108658Y-30335898D01*
X59108658Y-29933086D01*
X59187242Y-29538018D01*
X59277541Y-29320018D01*
X59341391Y-29165869D01*
X59565181Y-28830944D01*
X59850010Y-28546115D01*
X60184935Y-28322325D01*
X60348347Y-28254638D01*
X60557084Y-28168176D01*
X60952152Y-28089592D01*
X61354964Y-28089592D01*
X61750032Y-28168176D01*
X61750032Y-28168176D01*
G37*
G36*
X224458510Y-28165692D02*
G01*
X224673244Y-28254638D01*
X224830659Y-28319841D01*
X225165584Y-28543631D01*
X225450413Y-28828460D01*
X225674203Y-29163385D01*
X225709667Y-29249004D01*
X225828352Y-29535534D01*
X225906936Y-29930602D01*
X225906936Y-30333414D01*
X225828352Y-30728482D01*
X225753732Y-30908630D01*
X225674203Y-31100631D01*
X225450413Y-31435556D01*
X225165584Y-31720385D01*
X224830659Y-31944175D01*
X224731026Y-31985444D01*
X224458510Y-32098324D01*
X224063442Y-32176908D01*
X223660630Y-32176908D01*
X223265562Y-32098324D01*
X222993046Y-31985444D01*
X222893413Y-31944175D01*
X222558488Y-31720385D01*
X222273659Y-31435556D01*
X222049869Y-31100631D01*
X221970340Y-30908630D01*
X221895720Y-30728482D01*
X221817136Y-30333414D01*
X221817136Y-29930602D01*
X221895720Y-29535534D01*
X222014405Y-29249004D01*
X222049869Y-29163385D01*
X222273659Y-28828460D01*
X222558488Y-28543631D01*
X222893413Y-28319841D01*
X223050828Y-28254638D01*
X223265562Y-28165692D01*
X223660630Y-28087108D01*
X224063442Y-28087108D01*
X224458510Y-28165692D01*
X224458510Y-28165692D01*
G37*
G36*
X31689805Y-30363102D02*
G01*
X31755989Y-30369620D01*
X31925828Y-30421140D01*
X32082353Y-30504805D01*
X32118091Y-30534135D01*
X32219548Y-30617397D01*
X32302810Y-30718854D01*
X32332140Y-30754592D01*
X32415805Y-30911117D01*
X32467325Y-31080956D01*
X32484721Y-31257583D01*
X32467325Y-31434210D01*
X32416558Y-31601566D01*
X32415804Y-31604051D01*
X32373972Y-31682312D01*
X32332140Y-31760574D01*
X32326547Y-31767389D01*
X32219548Y-31897769D01*
X32118091Y-31981031D01*
X32082353Y-32010361D01*
X31925828Y-32094026D01*
X31755989Y-32145546D01*
X31689805Y-32152064D01*
X31623622Y-32158583D01*
X31535102Y-32158583D01*
X31468919Y-32152064D01*
X31402735Y-32145546D01*
X31232896Y-32094026D01*
X31076371Y-32010361D01*
X31040633Y-31981031D01*
X30939176Y-31897769D01*
X30832177Y-31767389D01*
X30826584Y-31760574D01*
X30784752Y-31682312D01*
X30742920Y-31604051D01*
X30742166Y-31601566D01*
X30691399Y-31434210D01*
X30674003Y-31257583D01*
X30691399Y-31080956D01*
X30742919Y-30911117D01*
X30826584Y-30754592D01*
X30855914Y-30718854D01*
X30939176Y-30617397D01*
X31040633Y-30534135D01*
X31076371Y-30504805D01*
X31232896Y-30421140D01*
X31402735Y-30369620D01*
X31468919Y-30363102D01*
X31535102Y-30356583D01*
X31623622Y-30356583D01*
X31689805Y-30363102D01*
X31689805Y-30363102D01*
G37*
G36*
X253546675Y-30360617D02*
G01*
X253612859Y-30367135D01*
X253782698Y-30418655D01*
X253782700Y-30418656D01*
X253787347Y-30421140D01*
X253939223Y-30502320D01*
X253974961Y-30531650D01*
X254076418Y-30614912D01*
X254149358Y-30703791D01*
X254189010Y-30752107D01*
X254272675Y-30908632D01*
X254324195Y-31078471D01*
X254341591Y-31255098D01*
X254324195Y-31431725D01*
X254272675Y-31601564D01*
X254189010Y-31758089D01*
X254159680Y-31793827D01*
X254076418Y-31895284D01*
X253974961Y-31978546D01*
X253939223Y-32007876D01*
X253782698Y-32091541D01*
X253612859Y-32143061D01*
X253546674Y-32149580D01*
X253480492Y-32156098D01*
X253391972Y-32156098D01*
X253325790Y-32149580D01*
X253259605Y-32143061D01*
X253089766Y-32091541D01*
X252933241Y-32007876D01*
X252897503Y-31978546D01*
X252796046Y-31895284D01*
X252712784Y-31793827D01*
X252683454Y-31758089D01*
X252599789Y-31601564D01*
X252548269Y-31431725D01*
X252530873Y-31255098D01*
X252548269Y-31078471D01*
X252599789Y-30908632D01*
X252683454Y-30752107D01*
X252723106Y-30703791D01*
X252796046Y-30614912D01*
X252897503Y-30531650D01*
X252933241Y-30502320D01*
X253085117Y-30421140D01*
X253089764Y-30418656D01*
X253089766Y-30418655D01*
X253259605Y-30367135D01*
X253325790Y-30360616D01*
X253391972Y-30354098D01*
X253480492Y-30354098D01*
X253546675Y-30360617D01*
X253546675Y-30360617D01*
G37*
G36*
X179203071Y-28937490D02*
G01*
X179352896Y-28967292D01*
X179635160Y-29084209D01*
X179889191Y-29253947D01*
X180105227Y-29469983D01*
X180274965Y-29724014D01*
X180391882Y-30006278D01*
X180419216Y-30143694D01*
X180451486Y-30305927D01*
X180451486Y-30611449D01*
X180434746Y-30695608D01*
X180391882Y-30911098D01*
X180274965Y-31193362D01*
X180105227Y-31447393D01*
X179889191Y-31663429D01*
X179635160Y-31833167D01*
X179352896Y-31950084D01*
X179203071Y-31979886D01*
X179053247Y-32009688D01*
X178747725Y-32009688D01*
X178597901Y-31979886D01*
X178448076Y-31950084D01*
X178165812Y-31833167D01*
X177911781Y-31663429D01*
X177695745Y-31447393D01*
X177526007Y-31193362D01*
X177409090Y-30911098D01*
X177366226Y-30695608D01*
X177349486Y-30611449D01*
X177349486Y-30305927D01*
X177381756Y-30143694D01*
X177409090Y-30006278D01*
X177526007Y-29724014D01*
X177695745Y-29469983D01*
X177911781Y-29253947D01*
X178165812Y-29084209D01*
X178448076Y-28967292D01*
X178597901Y-28937490D01*
X178747725Y-28907688D01*
X179053247Y-28907688D01*
X179203071Y-28937490D01*
X179203071Y-28937490D01*
G37*
G36*
X87496315Y-28992765D02*
G01*
X87664837Y-29062569D01*
X87816502Y-29163908D01*
X87945483Y-29292889D01*
X88046822Y-29444554D01*
X88116626Y-29613076D01*
X88152211Y-29791977D01*
X88152211Y-29974383D01*
X88116626Y-30153284D01*
X88046822Y-30321806D01*
X87945483Y-30473471D01*
X87816502Y-30602452D01*
X87664837Y-30703791D01*
X87496315Y-30773595D01*
X87317414Y-30809180D01*
X87135008Y-30809180D01*
X86956107Y-30773595D01*
X86787585Y-30703791D01*
X86635920Y-30602452D01*
X86506939Y-30473471D01*
X86405600Y-30321806D01*
X86335796Y-30153284D01*
X86300211Y-29974383D01*
X86300211Y-29791977D01*
X86335796Y-29613076D01*
X86405600Y-29444554D01*
X86506939Y-29292889D01*
X86635920Y-29163908D01*
X86787585Y-29062569D01*
X86956107Y-28992765D01*
X87135008Y-28957180D01*
X87317414Y-28957180D01*
X87496315Y-28992765D01*
X87496315Y-28992765D01*
G37*
G36*
X198059487Y-28990280D02*
G01*
X198228009Y-29060084D01*
X198379674Y-29161423D01*
X198508655Y-29290404D01*
X198609994Y-29442069D01*
X198679798Y-29610591D01*
X198715383Y-29789492D01*
X198715383Y-29971898D01*
X198679798Y-30150799D01*
X198609994Y-30319321D01*
X198508655Y-30470986D01*
X198379674Y-30599967D01*
X198228009Y-30701306D01*
X198059487Y-30771110D01*
X197880586Y-30806695D01*
X197698180Y-30806695D01*
X197519279Y-30771110D01*
X197350757Y-30701306D01*
X197199092Y-30599967D01*
X197070111Y-30470986D01*
X196968772Y-30319321D01*
X196898968Y-30150799D01*
X196863383Y-29971898D01*
X196863383Y-29789492D01*
X196898968Y-29610591D01*
X196968772Y-29442069D01*
X197070111Y-29290404D01*
X197199092Y-29161423D01*
X197350757Y-29060084D01*
X197519279Y-28990280D01*
X197698180Y-28954695D01*
X197880586Y-28954695D01*
X198059487Y-28990280D01*
X198059487Y-28990280D01*
G37*
G36*
X219680550Y-27683014D02*
G01*
X219830375Y-27712816D01*
X220112639Y-27829733D01*
X220366670Y-27999471D01*
X220582706Y-28215507D01*
X220752444Y-28469538D01*
X220869361Y-28751802D01*
X220897485Y-28893192D01*
X220928965Y-29051451D01*
X220928965Y-29356973D01*
X220907540Y-29464684D01*
X220869361Y-29656622D01*
X220752444Y-29938886D01*
X220582706Y-30192917D01*
X220366670Y-30408953D01*
X220112639Y-30578691D01*
X219830375Y-30695608D01*
X219680550Y-30725410D01*
X219530726Y-30755212D01*
X219225204Y-30755212D01*
X219075380Y-30725410D01*
X218925555Y-30695608D01*
X218643291Y-30578691D01*
X218389260Y-30408953D01*
X218173224Y-30192917D01*
X218003486Y-29938886D01*
X217886569Y-29656622D01*
X217848390Y-29464684D01*
X217826965Y-29356973D01*
X217826965Y-29051451D01*
X217858445Y-28893192D01*
X217886569Y-28751802D01*
X218003486Y-28469538D01*
X218173224Y-28215507D01*
X218389260Y-27999471D01*
X218643291Y-27829733D01*
X218925555Y-27712816D01*
X219075380Y-27683014D01*
X219225204Y-27653212D01*
X219530726Y-27653212D01*
X219680550Y-27683014D01*
X219680550Y-27683014D01*
G37*
G36*
X46644229Y-28665472D02*
G01*
X46812751Y-28735276D01*
X46964416Y-28836615D01*
X47093397Y-28965596D01*
X47194736Y-29117261D01*
X47264540Y-29285783D01*
X47300125Y-29464684D01*
X47300125Y-29647090D01*
X47264540Y-29825991D01*
X47194736Y-29994513D01*
X47093397Y-30146178D01*
X46964416Y-30275159D01*
X46812751Y-30376498D01*
X46644229Y-30446302D01*
X46465328Y-30481887D01*
X46282922Y-30481887D01*
X46104021Y-30446302D01*
X45935499Y-30376498D01*
X45783834Y-30275159D01*
X45654853Y-30146178D01*
X45553514Y-29994513D01*
X45483710Y-29825991D01*
X45448125Y-29647090D01*
X45448125Y-29464684D01*
X45483710Y-29285783D01*
X45553514Y-29117261D01*
X45654853Y-28965596D01*
X45783834Y-28836615D01*
X45935499Y-28735276D01*
X46104021Y-28665472D01*
X46282922Y-28629887D01*
X46465328Y-28629887D01*
X46644229Y-28665472D01*
X46644229Y-28665472D01*
G37*
G36*
X238911572Y-28662988D02*
G01*
X239080094Y-28732792D01*
X239231759Y-28834131D01*
X239360740Y-28963112D01*
X239462079Y-29114777D01*
X239531883Y-29283299D01*
X239567468Y-29462200D01*
X239567468Y-29644606D01*
X239531883Y-29823507D01*
X239462079Y-29992029D01*
X239360740Y-30143694D01*
X239231759Y-30272675D01*
X239080094Y-30374014D01*
X238911572Y-30443818D01*
X238732671Y-30479403D01*
X238550265Y-30479403D01*
X238371364Y-30443818D01*
X238202842Y-30374014D01*
X238051177Y-30272675D01*
X237922196Y-30143694D01*
X237820857Y-29992029D01*
X237751053Y-29823507D01*
X237715468Y-29644606D01*
X237715468Y-29462200D01*
X237751053Y-29283299D01*
X237820857Y-29114777D01*
X237922196Y-28963112D01*
X238051177Y-28834131D01*
X238202842Y-28732792D01*
X238371364Y-28662988D01*
X238550265Y-28627403D01*
X238732671Y-28627403D01*
X238911572Y-28662988D01*
X238911572Y-28662988D01*
G37*
G36*
X97191046Y-28595553D02*
G01*
X97359568Y-28665357D01*
X97511233Y-28766696D01*
X97640214Y-28895677D01*
X97741553Y-29047342D01*
X97811357Y-29215864D01*
X97846942Y-29394765D01*
X97846942Y-29577171D01*
X97811357Y-29756072D01*
X97741553Y-29924594D01*
X97640214Y-30076259D01*
X97511233Y-30205240D01*
X97359568Y-30306579D01*
X97191046Y-30376383D01*
X97012145Y-30411968D01*
X96829739Y-30411968D01*
X96650838Y-30376383D01*
X96482316Y-30306579D01*
X96330651Y-30205240D01*
X96201670Y-30076259D01*
X96100331Y-29924594D01*
X96030527Y-29756072D01*
X95994942Y-29577171D01*
X95994942Y-29394765D01*
X96030527Y-29215864D01*
X96100331Y-29047342D01*
X96201670Y-28895677D01*
X96330651Y-28766696D01*
X96482316Y-28665357D01*
X96650838Y-28595553D01*
X96829739Y-28559968D01*
X97012145Y-28559968D01*
X97191046Y-28595553D01*
X97191046Y-28595553D01*
G37*
G36*
X188364755Y-28593068D02*
G01*
X188533277Y-28662872D01*
X188684942Y-28764211D01*
X188813923Y-28893192D01*
X188915262Y-29044857D01*
X188985066Y-29213379D01*
X189020651Y-29392280D01*
X189020651Y-29574686D01*
X188985066Y-29753587D01*
X188915262Y-29922109D01*
X188813923Y-30073774D01*
X188684942Y-30202755D01*
X188533277Y-30304094D01*
X188364755Y-30373898D01*
X188185854Y-30409483D01*
X188003448Y-30409483D01*
X187824547Y-30373898D01*
X187656025Y-30304094D01*
X187504360Y-30202755D01*
X187375379Y-30073774D01*
X187274040Y-29922109D01*
X187204236Y-29753587D01*
X187168651Y-29574686D01*
X187168651Y-29392280D01*
X187204236Y-29213379D01*
X187274040Y-29044857D01*
X187375379Y-28893192D01*
X187504360Y-28764211D01*
X187656025Y-28662872D01*
X187824547Y-28593068D01*
X188003448Y-28557483D01*
X188185854Y-28557483D01*
X188364755Y-28593068D01*
X188364755Y-28593068D01*
G37*
G36*
X83112591Y-26013863D02*
G01*
X83270753Y-26079376D01*
X83484740Y-26168012D01*
X83819665Y-26391802D01*
X84104494Y-26676631D01*
X84328284Y-27011556D01*
X84345835Y-27053928D01*
X84482433Y-27383705D01*
X84561017Y-27778773D01*
X84561017Y-28181585D01*
X84482433Y-28576653D01*
X84420609Y-28725909D01*
X84328284Y-28948802D01*
X84104494Y-29283727D01*
X83819665Y-29568556D01*
X83484740Y-29792346D01*
X83403513Y-29825991D01*
X83112591Y-29946495D01*
X82717523Y-30025079D01*
X82314711Y-30025079D01*
X81919643Y-29946495D01*
X81628721Y-29825991D01*
X81547494Y-29792346D01*
X81212569Y-29568556D01*
X80927740Y-29283727D01*
X80703950Y-28948802D01*
X80611625Y-28725909D01*
X80549801Y-28576653D01*
X80471217Y-28181585D01*
X80471217Y-27778773D01*
X80549801Y-27383705D01*
X80686399Y-27053928D01*
X80703950Y-27011556D01*
X80927740Y-26676631D01*
X81212569Y-26391802D01*
X81547494Y-26168012D01*
X81761481Y-26079376D01*
X81919643Y-26013863D01*
X82314711Y-25935279D01*
X82717523Y-25935279D01*
X83112591Y-26013863D01*
X83112591Y-26013863D01*
G37*
G36*
X203095951Y-26011378D02*
G01*
X203216217Y-26061194D01*
X203468100Y-26165527D01*
X203803025Y-26389317D01*
X204087854Y-26674146D01*
X204311644Y-27009071D01*
X204343868Y-27086868D01*
X204465793Y-27381220D01*
X204544377Y-27776288D01*
X204544377Y-28179100D01*
X204465793Y-28574168D01*
X204403969Y-28723424D01*
X204311644Y-28946317D01*
X204087854Y-29281242D01*
X203803025Y-29566071D01*
X203468100Y-29789861D01*
X203435085Y-29803536D01*
X203095951Y-29944010D01*
X202700883Y-30022594D01*
X202298071Y-30022594D01*
X201903003Y-29944010D01*
X201563869Y-29803536D01*
X201530854Y-29789861D01*
X201195929Y-29566071D01*
X200911100Y-29281242D01*
X200687310Y-28946317D01*
X200594985Y-28723424D01*
X200533161Y-28574168D01*
X200454577Y-28179100D01*
X200454577Y-27776288D01*
X200533161Y-27381220D01*
X200655086Y-27086868D01*
X200687310Y-27009071D01*
X200911100Y-26674146D01*
X201195929Y-26389317D01*
X201530854Y-26165527D01*
X201782737Y-26061194D01*
X201903003Y-26011378D01*
X202298071Y-25932794D01*
X202700883Y-25932794D01*
X203095951Y-26011378D01*
X203095951Y-26011378D01*
G37*
G36*
X32641305Y-28008054D02*
G01*
X32707490Y-28014573D01*
X32877329Y-28066093D01*
X33033854Y-28149758D01*
X33056296Y-28168176D01*
X33171049Y-28262350D01*
X33254311Y-28363807D01*
X33283641Y-28399545D01*
X33367306Y-28556070D01*
X33418826Y-28725909D01*
X33436222Y-28902536D01*
X33418826Y-29079163D01*
X33368059Y-29246519D01*
X33367305Y-29249004D01*
X33348745Y-29283727D01*
X33283641Y-29405527D01*
X33269586Y-29422653D01*
X33171049Y-29542722D01*
X33088349Y-29610591D01*
X33033854Y-29655314D01*
X32877329Y-29738979D01*
X32707490Y-29790499D01*
X32641306Y-29797017D01*
X32575123Y-29803536D01*
X32486603Y-29803536D01*
X32420420Y-29797017D01*
X32354236Y-29790499D01*
X32184397Y-29738979D01*
X32027872Y-29655314D01*
X31973377Y-29610591D01*
X31890677Y-29542722D01*
X31792140Y-29422653D01*
X31778085Y-29405527D01*
X31712981Y-29283727D01*
X31694421Y-29249004D01*
X31693667Y-29246519D01*
X31642900Y-29079163D01*
X31625504Y-28902536D01*
X31642900Y-28725909D01*
X31694420Y-28556070D01*
X31778085Y-28399545D01*
X31807415Y-28363807D01*
X31890677Y-28262350D01*
X32005430Y-28168176D01*
X32027872Y-28149758D01*
X32184397Y-28066093D01*
X32354236Y-28014573D01*
X32420421Y-28008054D01*
X32486603Y-28001536D01*
X32575123Y-28001536D01*
X32641305Y-28008054D01*
X32641305Y-28008054D01*
G37*
G36*
X252595173Y-28005569D02*
G01*
X252661358Y-28012088D01*
X252831197Y-28063608D01*
X252987722Y-28147273D01*
X253013192Y-28168176D01*
X253124917Y-28259865D01*
X253191783Y-28341343D01*
X253237509Y-28397060D01*
X253321174Y-28553585D01*
X253372694Y-28723424D01*
X253390090Y-28900051D01*
X253372694Y-29076678D01*
X253321174Y-29246517D01*
X253321173Y-29246519D01*
X253302613Y-29281242D01*
X253237509Y-29403042D01*
X253208179Y-29438780D01*
X253124917Y-29540237D01*
X253039189Y-29610591D01*
X252987722Y-29652829D01*
X252831197Y-29736494D01*
X252661358Y-29788014D01*
X252595174Y-29794532D01*
X252528991Y-29801051D01*
X252440471Y-29801051D01*
X252374288Y-29794532D01*
X252308104Y-29788014D01*
X252138265Y-29736494D01*
X251981740Y-29652829D01*
X251930273Y-29610591D01*
X251844545Y-29540237D01*
X251761283Y-29438780D01*
X251731953Y-29403042D01*
X251666849Y-29281242D01*
X251648289Y-29246519D01*
X251648288Y-29246517D01*
X251596768Y-29076678D01*
X251579372Y-28900051D01*
X251596768Y-28723424D01*
X251648288Y-28553585D01*
X251731953Y-28397060D01*
X251777679Y-28341343D01*
X251844545Y-28259865D01*
X251956270Y-28168176D01*
X251981740Y-28147273D01*
X252138265Y-28063608D01*
X252308104Y-28012088D01*
X252374289Y-28005569D01*
X252440471Y-27999051D01*
X252528991Y-27999051D01*
X252595173Y-28005569D01*
X252595173Y-28005569D01*
G37*
G36*
X42260505Y-25686570D02*
G01*
X42468166Y-25772586D01*
X42632654Y-25840719D01*
X42967579Y-26064509D01*
X43252408Y-26349338D01*
X43476198Y-26684263D01*
X43540048Y-26838412D01*
X43630347Y-27056412D01*
X43708931Y-27451480D01*
X43708931Y-27854292D01*
X43630347Y-28249360D01*
X43569167Y-28397062D01*
X43476198Y-28621509D01*
X43252408Y-28956434D01*
X42967579Y-29241263D01*
X42632654Y-29465053D01*
X42620749Y-29469984D01*
X42260505Y-29619202D01*
X41865437Y-29697786D01*
X41462625Y-29697786D01*
X41067557Y-29619202D01*
X40707313Y-29469984D01*
X40695408Y-29465053D01*
X40360483Y-29241263D01*
X40075654Y-28956434D01*
X39851864Y-28621509D01*
X39758895Y-28397062D01*
X39697715Y-28249360D01*
X39619131Y-27854292D01*
X39619131Y-27451480D01*
X39697715Y-27056412D01*
X39788014Y-26838412D01*
X39851864Y-26684263D01*
X40075654Y-26349338D01*
X40360483Y-26064509D01*
X40695408Y-25840719D01*
X40859896Y-25772586D01*
X41067557Y-25686570D01*
X41462625Y-25607986D01*
X41865437Y-25607986D01*
X42260505Y-25686570D01*
X42260505Y-25686570D01*
G37*
G36*
X243948036Y-25684086D02*
G01*
X244161694Y-25772586D01*
X244320185Y-25838235D01*
X244655110Y-26062025D01*
X244939939Y-26346854D01*
X245163729Y-26681779D01*
X245224423Y-26828308D01*
X245317878Y-27053928D01*
X245396462Y-27448996D01*
X245396462Y-27851808D01*
X245317878Y-28246876D01*
X245227579Y-28464876D01*
X245163729Y-28619025D01*
X244939939Y-28953950D01*
X244655110Y-29238779D01*
X244320185Y-29462569D01*
X244166036Y-29526419D01*
X243948036Y-29616718D01*
X243552968Y-29695302D01*
X243150156Y-29695302D01*
X242755088Y-29616718D01*
X242537088Y-29526419D01*
X242382939Y-29462569D01*
X242048014Y-29238779D01*
X241763185Y-28953950D01*
X241539395Y-28619025D01*
X241475545Y-28464876D01*
X241385246Y-28246876D01*
X241306662Y-27851808D01*
X241306662Y-27448996D01*
X241385246Y-27053928D01*
X241478701Y-26828308D01*
X241539395Y-26681779D01*
X241763185Y-26346854D01*
X242048014Y-26062025D01*
X242382939Y-25838235D01*
X242541430Y-25772586D01*
X242755088Y-25684086D01*
X243150156Y-25605502D01*
X243552968Y-25605502D01*
X243948036Y-25684086D01*
X243948036Y-25684086D01*
G37*
G36*
X106191669Y-26109178D02*
G01*
X106341494Y-26138980D01*
X106623758Y-26255897D01*
X106877789Y-26425635D01*
X107093825Y-26641671D01*
X107263563Y-26895702D01*
X107380480Y-27177966D01*
X107385392Y-27202659D01*
X107440084Y-27477615D01*
X107440084Y-27783137D01*
X107425930Y-27854292D01*
X107380480Y-28082786D01*
X107263563Y-28365050D01*
X107093825Y-28619081D01*
X106877789Y-28835117D01*
X106623758Y-29004855D01*
X106341494Y-29121772D01*
X106191669Y-29151574D01*
X106041845Y-29181376D01*
X105736323Y-29181376D01*
X105586499Y-29151574D01*
X105436674Y-29121772D01*
X105154410Y-29004855D01*
X104900379Y-28835117D01*
X104684343Y-28619081D01*
X104514605Y-28365050D01*
X104397688Y-28082786D01*
X104352238Y-27854292D01*
X104338084Y-27783137D01*
X104338084Y-27477615D01*
X104392776Y-27202659D01*
X104397688Y-27177966D01*
X104514605Y-26895702D01*
X104684343Y-26641671D01*
X104900379Y-26425635D01*
X105154410Y-26255897D01*
X105436674Y-26138980D01*
X105586499Y-26109178D01*
X105736323Y-26079376D01*
X106041845Y-26079376D01*
X106191669Y-26109178D01*
X106191669Y-26109178D01*
G37*
G36*
X99247158Y-26064509D02*
G01*
X99502376Y-26115275D01*
X99784640Y-26232192D01*
X100038671Y-26401930D01*
X100254707Y-26617966D01*
X100424445Y-26871997D01*
X100541362Y-27154261D01*
X100541362Y-27154262D01*
X100600966Y-27453910D01*
X100600966Y-27759432D01*
X100586982Y-27829733D01*
X100541362Y-28059081D01*
X100424445Y-28341345D01*
X100254707Y-28595376D01*
X100038671Y-28811412D01*
X99784640Y-28981150D01*
X99502376Y-29098067D01*
X99418369Y-29114777D01*
X99202727Y-29157671D01*
X98897205Y-29157671D01*
X98681563Y-29114777D01*
X98597556Y-29098067D01*
X98315292Y-28981150D01*
X98061261Y-28811412D01*
X97845225Y-28595376D01*
X97675487Y-28341345D01*
X97558570Y-28059081D01*
X97512950Y-27829733D01*
X97498966Y-27759432D01*
X97498966Y-27453910D01*
X97558570Y-27154262D01*
X97558570Y-27154261D01*
X97675487Y-26871997D01*
X97845225Y-26617966D01*
X98061261Y-26401930D01*
X98315292Y-26232192D01*
X98597556Y-26115275D01*
X98852774Y-26064509D01*
X98897205Y-26055671D01*
X99202727Y-26055671D01*
X99247158Y-26064509D01*
X99247158Y-26064509D01*
G37*
G36*
X56713568Y-27341076D02*
G01*
X56882090Y-27410880D01*
X57033755Y-27512219D01*
X57162736Y-27641200D01*
X57264075Y-27792865D01*
X57333879Y-27961387D01*
X57369464Y-28140288D01*
X57369464Y-28322694D01*
X57333879Y-28501595D01*
X57264075Y-28670117D01*
X57162736Y-28821782D01*
X57033755Y-28950763D01*
X56882090Y-29052102D01*
X56713568Y-29121906D01*
X56534667Y-29157491D01*
X56352261Y-29157491D01*
X56173360Y-29121906D01*
X56004838Y-29052102D01*
X55853173Y-28950763D01*
X55724192Y-28821782D01*
X55622853Y-28670117D01*
X55553049Y-28501595D01*
X55517464Y-28322694D01*
X55517464Y-28140288D01*
X55553049Y-27961387D01*
X55622853Y-27792865D01*
X55724192Y-27641200D01*
X55853173Y-27512219D01*
X56004838Y-27410880D01*
X56173360Y-27341076D01*
X56352261Y-27305491D01*
X56534667Y-27305491D01*
X56713568Y-27341076D01*
X56713568Y-27341076D01*
G37*
G36*
X228842234Y-27338592D02*
G01*
X229010756Y-27408396D01*
X229162421Y-27509735D01*
X229291402Y-27638716D01*
X229392741Y-27790381D01*
X229462545Y-27958903D01*
X229498130Y-28137804D01*
X229498130Y-28320210D01*
X229462545Y-28499111D01*
X229392741Y-28667633D01*
X229291402Y-28819298D01*
X229162421Y-28948279D01*
X229010756Y-29049618D01*
X228842234Y-29119422D01*
X228663333Y-29155007D01*
X228480927Y-29155007D01*
X228302026Y-29119422D01*
X228133504Y-29049618D01*
X227981839Y-28948279D01*
X227852858Y-28819298D01*
X227751519Y-28667633D01*
X227681715Y-28499111D01*
X227646130Y-28320210D01*
X227646130Y-28137804D01*
X227681715Y-27958903D01*
X227751519Y-27790381D01*
X227852858Y-27638716D01*
X227981839Y-27509735D01*
X228133504Y-27408396D01*
X228302026Y-27338592D01*
X228480927Y-27303007D01*
X228663333Y-27303007D01*
X228842234Y-27338592D01*
X228842234Y-27338592D01*
G37*
G36*
X198263520Y-25517865D02*
G01*
X198467816Y-25558502D01*
X198750080Y-25675419D01*
X199004111Y-25845157D01*
X199220147Y-26061193D01*
X199389885Y-26315224D01*
X199506802Y-26597488D01*
X199520228Y-26664984D01*
X199566406Y-26897137D01*
X199566406Y-27202659D01*
X199546990Y-27300267D01*
X199506802Y-27502308D01*
X199389885Y-27784572D01*
X199220147Y-28038603D01*
X199004111Y-28254639D01*
X198750080Y-28424377D01*
X198467816Y-28541294D01*
X198386428Y-28557483D01*
X198168167Y-28600898D01*
X197862645Y-28600898D01*
X197644384Y-28557483D01*
X197562996Y-28541294D01*
X197280732Y-28424377D01*
X197026701Y-28254639D01*
X196810665Y-28038603D01*
X196640927Y-27784572D01*
X196524010Y-27502308D01*
X196483822Y-27300267D01*
X196464406Y-27202659D01*
X196464406Y-26897137D01*
X196510584Y-26664984D01*
X196524010Y-26597488D01*
X196640927Y-26315224D01*
X196810665Y-26061193D01*
X197026701Y-25845157D01*
X197280732Y-25675419D01*
X197562996Y-25558502D01*
X197767292Y-25517865D01*
X197862645Y-25498898D01*
X198168167Y-25498898D01*
X198263520Y-25517865D01*
X198263520Y-25517865D01*
G37*
G36*
X239083958Y-25184278D02*
G01*
X239319901Y-25231210D01*
X239602165Y-25348127D01*
X239856196Y-25517865D01*
X240072232Y-25733901D01*
X240241970Y-25987932D01*
X240358887Y-26270196D01*
X240372313Y-26337692D01*
X240418491Y-26569845D01*
X240418491Y-26875367D01*
X240400640Y-26965108D01*
X240358887Y-27175016D01*
X240241970Y-27457280D01*
X240072232Y-27711311D01*
X239856196Y-27927347D01*
X239602165Y-28097085D01*
X239319901Y-28214002D01*
X239170076Y-28243804D01*
X239020252Y-28273606D01*
X238714730Y-28273606D01*
X238564906Y-28243804D01*
X238415081Y-28214002D01*
X238132817Y-28097085D01*
X237878786Y-27927347D01*
X237662750Y-27711311D01*
X237493012Y-27457280D01*
X237376095Y-27175016D01*
X237334342Y-26965108D01*
X237316491Y-26875367D01*
X237316491Y-26569845D01*
X237362669Y-26337692D01*
X237376095Y-26270196D01*
X237493012Y-25987932D01*
X237662750Y-25733901D01*
X237878786Y-25517865D01*
X238132817Y-25348127D01*
X238415081Y-25231210D01*
X238651024Y-25184278D01*
X238714730Y-25171606D01*
X239020252Y-25171606D01*
X239083958Y-25184278D01*
X239083958Y-25184278D01*
G37*
G36*
X65714191Y-24854701D02*
G01*
X65864016Y-24884503D01*
X66146280Y-25001420D01*
X66400311Y-25171158D01*
X66616347Y-25387194D01*
X66786085Y-25641225D01*
X66896298Y-25907304D01*
X66903002Y-25923490D01*
X66962606Y-26223138D01*
X66962606Y-26528660D01*
X66940399Y-26640300D01*
X66903002Y-26828309D01*
X66786085Y-27110573D01*
X66616347Y-27364604D01*
X66400311Y-27580640D01*
X66146280Y-27750378D01*
X65864016Y-27867295D01*
X65714191Y-27897097D01*
X65564367Y-27926899D01*
X65258845Y-27926899D01*
X65109021Y-27897097D01*
X64959196Y-27867295D01*
X64676932Y-27750378D01*
X64422901Y-27580640D01*
X64206865Y-27364604D01*
X64037127Y-27110573D01*
X63920210Y-26828309D01*
X63882813Y-26640300D01*
X63860606Y-26528660D01*
X63860606Y-26223138D01*
X63920210Y-25923490D01*
X63926914Y-25907304D01*
X64037127Y-25641225D01*
X64206865Y-25387194D01*
X64422901Y-25171158D01*
X64676932Y-25001420D01*
X64959196Y-24884503D01*
X65109021Y-24854701D01*
X65258845Y-24824899D01*
X65564367Y-24824899D01*
X65714191Y-24854701D01*
X65714191Y-24854701D01*
G37*
G36*
X58826836Y-24821401D02*
G01*
X59024898Y-24860798D01*
X59307162Y-24977715D01*
X59561193Y-25147453D01*
X59777229Y-25363489D01*
X59946967Y-25617520D01*
X60063884Y-25899784D01*
X60079961Y-25980610D01*
X60123488Y-26199433D01*
X60123488Y-26504955D01*
X60110580Y-26569846D01*
X60063884Y-26804604D01*
X59946967Y-27086868D01*
X59777229Y-27340899D01*
X59561193Y-27556935D01*
X59307162Y-27726673D01*
X59024898Y-27843590D01*
X58983588Y-27851807D01*
X58725249Y-27903194D01*
X58419727Y-27903194D01*
X58161388Y-27851807D01*
X58120078Y-27843590D01*
X57837814Y-27726673D01*
X57583783Y-27556935D01*
X57367747Y-27340899D01*
X57198009Y-27086868D01*
X57081092Y-26804604D01*
X57034396Y-26569846D01*
X57021488Y-26504955D01*
X57021488Y-26199433D01*
X57065015Y-25980610D01*
X57081092Y-25899784D01*
X57198009Y-25617520D01*
X57367747Y-25363489D01*
X57583783Y-25147453D01*
X57837814Y-24977715D01*
X58120078Y-24860798D01*
X58318140Y-24821401D01*
X58419727Y-24801194D01*
X58725249Y-24801194D01*
X58826836Y-24821401D01*
X58826836Y-24821401D01*
G37*
G36*
X33592806Y-25653008D02*
G01*
X33658990Y-25659526D01*
X33828829Y-25711046D01*
X33985354Y-25794711D01*
X34000418Y-25807074D01*
X34122549Y-25907303D01*
X34188720Y-25987934D01*
X34235141Y-26044498D01*
X34318806Y-26201023D01*
X34370326Y-26370862D01*
X34387722Y-26547489D01*
X34370326Y-26724116D01*
X34318806Y-26893955D01*
X34235141Y-27050480D01*
X34205811Y-27086218D01*
X34122549Y-27187675D01*
X34021092Y-27270937D01*
X33985354Y-27300267D01*
X33828829Y-27383932D01*
X33658990Y-27435452D01*
X33592805Y-27441971D01*
X33526623Y-27448489D01*
X33438103Y-27448489D01*
X33371921Y-27441971D01*
X33305736Y-27435452D01*
X33135897Y-27383932D01*
X32979372Y-27300267D01*
X32943634Y-27270937D01*
X32842177Y-27187675D01*
X32758915Y-27086218D01*
X32729585Y-27050480D01*
X32645920Y-26893955D01*
X32594400Y-26724116D01*
X32577004Y-26547489D01*
X32594400Y-26370862D01*
X32645920Y-26201023D01*
X32729585Y-26044498D01*
X32776006Y-25987934D01*
X32842177Y-25907303D01*
X32964308Y-25807074D01*
X32979372Y-25794711D01*
X33135897Y-25711046D01*
X33305736Y-25659526D01*
X33371921Y-25653007D01*
X33438103Y-25646489D01*
X33526623Y-25646489D01*
X33592806Y-25653008D01*
X33592806Y-25653008D01*
G37*
G36*
X251643674Y-25650523D02*
G01*
X251709858Y-25657041D01*
X251879697Y-25708561D01*
X252036222Y-25792226D01*
X252051286Y-25804589D01*
X252173417Y-25904818D01*
X252256679Y-26006275D01*
X252286009Y-26042013D01*
X252369674Y-26198538D01*
X252421194Y-26368377D01*
X252438590Y-26545004D01*
X252421194Y-26721631D01*
X252369674Y-26891470D01*
X252286009Y-27047995D01*
X252279102Y-27056411D01*
X252173417Y-27185190D01*
X252071960Y-27268452D01*
X252036222Y-27297782D01*
X251879697Y-27381447D01*
X251709858Y-27432967D01*
X251643673Y-27439486D01*
X251577491Y-27446004D01*
X251488971Y-27446004D01*
X251422789Y-27439486D01*
X251356604Y-27432967D01*
X251186765Y-27381447D01*
X251030240Y-27297782D01*
X250994502Y-27268452D01*
X250893045Y-27185190D01*
X250787360Y-27056411D01*
X250780453Y-27047995D01*
X250696788Y-26891470D01*
X250645268Y-26721631D01*
X250627872Y-26545004D01*
X250645268Y-26368377D01*
X250696788Y-26198538D01*
X250780453Y-26042013D01*
X250809783Y-26006275D01*
X250893045Y-25904818D01*
X251015176Y-25804589D01*
X251030240Y-25792226D01*
X251186765Y-25708561D01*
X251356604Y-25657041D01*
X251422788Y-25650523D01*
X251488971Y-25644004D01*
X251577491Y-25644004D01*
X251643674Y-25650523D01*
X251643674Y-25650523D01*
G37*
G36*
X184139187Y-24203691D02*
G01*
X184289012Y-24233493D01*
X184571276Y-24350410D01*
X184825307Y-24520148D01*
X185041343Y-24736184D01*
X185211081Y-24990215D01*
X185327998Y-25272479D01*
X185328811Y-25276565D01*
X185387602Y-25572128D01*
X185387602Y-25877650D01*
X185360507Y-26013863D01*
X185327998Y-26177299D01*
X185211081Y-26459563D01*
X185041343Y-26713594D01*
X184825307Y-26929630D01*
X184571276Y-27099368D01*
X184289012Y-27216285D01*
X184139187Y-27246087D01*
X183989363Y-27275889D01*
X183683841Y-27275889D01*
X183534017Y-27246087D01*
X183384192Y-27216285D01*
X183101928Y-27099368D01*
X182847897Y-26929630D01*
X182631861Y-26713594D01*
X182462123Y-26459563D01*
X182345206Y-26177299D01*
X182312697Y-26013863D01*
X182285602Y-25877650D01*
X182285602Y-25572128D01*
X182344393Y-25276565D01*
X182345206Y-25272479D01*
X182462123Y-24990215D01*
X182631861Y-24736184D01*
X182847897Y-24520148D01*
X183101928Y-24350410D01*
X183384192Y-24233493D01*
X183534017Y-24203691D01*
X183683841Y-24173889D01*
X183989363Y-24173889D01*
X184139187Y-24203691D01*
X184139187Y-24203691D01*
G37*
G36*
X78076127Y-25186763D02*
G01*
X78244649Y-25256567D01*
X78396314Y-25357906D01*
X78525295Y-25486887D01*
X78626634Y-25638552D01*
X78696438Y-25807074D01*
X78732023Y-25985975D01*
X78732023Y-26168381D01*
X78696438Y-26347282D01*
X78626634Y-26515804D01*
X78525295Y-26667469D01*
X78396314Y-26796450D01*
X78244649Y-26897789D01*
X78076127Y-26967593D01*
X77897226Y-27003178D01*
X77714820Y-27003178D01*
X77535919Y-26967593D01*
X77367397Y-26897789D01*
X77215732Y-26796450D01*
X77086751Y-26667469D01*
X76985412Y-26515804D01*
X76915608Y-26347282D01*
X76880023Y-26168381D01*
X76880023Y-25985975D01*
X76915608Y-25807074D01*
X76985412Y-25638552D01*
X77086751Y-25486887D01*
X77215732Y-25357906D01*
X77367397Y-25256567D01*
X77535919Y-25186763D01*
X77714820Y-25151178D01*
X77897226Y-25151178D01*
X78076127Y-25186763D01*
X78076127Y-25186763D01*
G37*
G36*
X207479675Y-25184278D02*
G01*
X207648197Y-25254082D01*
X207799862Y-25355421D01*
X207928843Y-25484402D01*
X208030182Y-25636067D01*
X208099986Y-25804589D01*
X208135571Y-25983490D01*
X208135571Y-26165896D01*
X208099986Y-26344797D01*
X208030182Y-26513319D01*
X207928843Y-26664984D01*
X207799862Y-26793965D01*
X207648197Y-26895304D01*
X207479675Y-26965108D01*
X207300774Y-27000693D01*
X207118368Y-27000693D01*
X206939467Y-26965108D01*
X206770945Y-26895304D01*
X206619280Y-26793965D01*
X206490299Y-26664984D01*
X206388960Y-26513319D01*
X206319156Y-26344797D01*
X206283571Y-26165896D01*
X206283571Y-25983490D01*
X206319156Y-25804589D01*
X206388960Y-25636067D01*
X206490299Y-25484402D01*
X206619280Y-25355421D01*
X206770945Y-25254082D01*
X206939467Y-25184278D01*
X207118368Y-25148693D01*
X207300774Y-25148693D01*
X207479675Y-25184278D01*
X207479675Y-25184278D01*
G37*
G36*
X37224041Y-24859470D02*
G01*
X37392563Y-24929274D01*
X37544228Y-25030613D01*
X37673209Y-25159594D01*
X37774548Y-25311259D01*
X37844352Y-25479781D01*
X37879937Y-25658682D01*
X37879937Y-25841088D01*
X37844352Y-26019989D01*
X37774548Y-26188511D01*
X37673209Y-26340176D01*
X37544228Y-26469157D01*
X37392563Y-26570496D01*
X37224041Y-26640300D01*
X37045140Y-26675885D01*
X36862734Y-26675885D01*
X36683833Y-26640300D01*
X36515311Y-26570496D01*
X36363646Y-26469157D01*
X36234665Y-26340176D01*
X36133326Y-26188511D01*
X36063522Y-26019989D01*
X36027937Y-25841088D01*
X36027937Y-25658682D01*
X36063522Y-25479781D01*
X36133326Y-25311259D01*
X36234665Y-25159594D01*
X36363646Y-25030613D01*
X36515311Y-24929274D01*
X36683833Y-24859470D01*
X36862734Y-24823885D01*
X37045140Y-24823885D01*
X37224041Y-24859470D01*
X37224041Y-24859470D01*
G37*
G36*
X248331760Y-24856986D02*
G01*
X248500282Y-24926790D01*
X248651947Y-25028129D01*
X248780928Y-25157110D01*
X248882267Y-25308775D01*
X248952071Y-25477297D01*
X248987656Y-25656198D01*
X248987656Y-25838604D01*
X248952071Y-26017505D01*
X248882267Y-26186027D01*
X248780928Y-26337692D01*
X248651947Y-26466673D01*
X248500282Y-26568012D01*
X248331760Y-26637816D01*
X248152859Y-26673401D01*
X247970453Y-26673401D01*
X247791552Y-26637816D01*
X247623030Y-26568012D01*
X247471365Y-26466673D01*
X247342384Y-26337692D01*
X247241045Y-26186027D01*
X247171241Y-26017505D01*
X247135656Y-25838604D01*
X247135656Y-25656198D01*
X247171241Y-25477297D01*
X247241045Y-25308775D01*
X247342384Y-25157110D01*
X247471365Y-25028129D01*
X247623030Y-24926790D01*
X247791552Y-24856986D01*
X247970453Y-24821401D01*
X248152859Y-24821401D01*
X248331760Y-24856986D01*
X248331760Y-24856986D01*
G37*
G36*
X224616666Y-22949215D02*
G01*
X224766491Y-22979017D01*
X225048755Y-23095934D01*
X225302786Y-23265672D01*
X225518822Y-23481708D01*
X225688560Y-23735739D01*
X225805477Y-24018003D01*
X225815586Y-24068825D01*
X225865081Y-24317652D01*
X225865081Y-24623174D01*
X225857072Y-24663436D01*
X225805477Y-24922823D01*
X225688560Y-25205087D01*
X225518822Y-25459118D01*
X225302786Y-25675154D01*
X225048755Y-25844892D01*
X224766491Y-25961809D01*
X224616666Y-25991611D01*
X224466842Y-26021413D01*
X224161320Y-26021413D01*
X224011496Y-25991611D01*
X223861671Y-25961809D01*
X223579407Y-25844892D01*
X223325376Y-25675154D01*
X223109340Y-25459118D01*
X222939602Y-25205087D01*
X222822685Y-24922823D01*
X222771090Y-24663436D01*
X222763081Y-24623174D01*
X222763081Y-24317652D01*
X222812576Y-24068825D01*
X222822685Y-24018003D01*
X222939602Y-23735739D01*
X223109340Y-23481708D01*
X223325376Y-23265672D01*
X223579407Y-23095934D01*
X223861671Y-22979017D01*
X224011496Y-22949215D01*
X224161320Y-22919413D01*
X224466842Y-22919413D01*
X224616666Y-22949215D01*
X224616666Y-22949215D01*
G37*
G36*
X135186564Y-23959389D02*
G01*
X135377833Y-24038615D01*
X135377835Y-24038616D01*
X135390463Y-24047054D01*
X135549973Y-24153635D01*
X135696365Y-24300027D01*
X135811385Y-24472167D01*
X135890611Y-24663436D01*
X135931000Y-24866484D01*
X135931000Y-25073516D01*
X135890611Y-25276564D01*
X135828577Y-25426327D01*
X135811384Y-25467835D01*
X135696365Y-25639973D01*
X135549973Y-25786365D01*
X135377835Y-25901384D01*
X135377834Y-25901385D01*
X135377833Y-25901385D01*
X135186564Y-25980611D01*
X134983516Y-26021000D01*
X134776484Y-26021000D01*
X134573436Y-25980611D01*
X134382167Y-25901385D01*
X134382166Y-25901385D01*
X134382165Y-25901384D01*
X134210027Y-25786365D01*
X134063635Y-25639973D01*
X133948616Y-25467835D01*
X133931423Y-25426327D01*
X133869389Y-25276564D01*
X133829000Y-25073516D01*
X133829000Y-24866484D01*
X133869389Y-24663436D01*
X133948615Y-24472167D01*
X134063635Y-24300027D01*
X134210027Y-24153635D01*
X134369537Y-24047054D01*
X134382165Y-24038616D01*
X134382167Y-24038615D01*
X134573436Y-23959389D01*
X134776484Y-23919000D01*
X134983516Y-23919000D01*
X135186564Y-23959389D01*
X135186564Y-23959389D01*
G37*
G36*
X150426564Y-23959389D02*
G01*
X150617833Y-24038615D01*
X150617835Y-24038616D01*
X150630463Y-24047054D01*
X150789973Y-24153635D01*
X150936365Y-24300027D01*
X151051385Y-24472167D01*
X151130611Y-24663436D01*
X151171000Y-24866484D01*
X151171000Y-25073516D01*
X151130611Y-25276564D01*
X151068577Y-25426327D01*
X151051384Y-25467835D01*
X150936365Y-25639973D01*
X150789973Y-25786365D01*
X150617835Y-25901384D01*
X150617834Y-25901385D01*
X150617833Y-25901385D01*
X150426564Y-25980611D01*
X150223516Y-26021000D01*
X150016484Y-26021000D01*
X149813436Y-25980611D01*
X149622167Y-25901385D01*
X149622166Y-25901385D01*
X149622165Y-25901384D01*
X149450027Y-25786365D01*
X149303635Y-25639973D01*
X149188616Y-25467835D01*
X149171423Y-25426327D01*
X149109389Y-25276564D01*
X149069000Y-25073516D01*
X149069000Y-24866484D01*
X149109389Y-24663436D01*
X149188615Y-24472167D01*
X149303635Y-24300027D01*
X149450027Y-24153635D01*
X149609537Y-24047054D01*
X149622165Y-24038616D01*
X149622167Y-24038615D01*
X149813436Y-23959389D01*
X150016484Y-23919000D01*
X150223516Y-23919000D01*
X150426564Y-23959389D01*
X150426564Y-23959389D01*
G37*
G36*
X87022274Y-22689552D02*
G01*
X87226575Y-22730190D01*
X87508839Y-22847107D01*
X87762870Y-23016845D01*
X87978906Y-23232881D01*
X88148644Y-23486912D01*
X88265561Y-23769176D01*
X88325165Y-24068826D01*
X88325165Y-24374346D01*
X88265561Y-24673996D01*
X88148644Y-24956260D01*
X87978906Y-25210291D01*
X87762870Y-25426327D01*
X87508839Y-25596065D01*
X87226575Y-25712982D01*
X87121408Y-25733901D01*
X86926926Y-25772586D01*
X86621404Y-25772586D01*
X86426922Y-25733901D01*
X86321755Y-25712982D01*
X86039491Y-25596065D01*
X85785460Y-25426327D01*
X85569424Y-25210291D01*
X85399686Y-24956260D01*
X85282769Y-24673996D01*
X85223165Y-24374346D01*
X85223165Y-24068826D01*
X85282769Y-23769176D01*
X85399686Y-23486912D01*
X85569424Y-23232881D01*
X85785460Y-23016845D01*
X86039491Y-22847107D01*
X86321755Y-22730190D01*
X86526056Y-22689552D01*
X86621404Y-22670586D01*
X86926926Y-22670586D01*
X87022274Y-22689552D01*
X87022274Y-22689552D01*
G37*
G36*
X80183156Y-22665847D02*
G01*
X80387457Y-22706485D01*
X80669721Y-22823402D01*
X80923752Y-22993140D01*
X81139788Y-23209176D01*
X81309526Y-23463207D01*
X81426443Y-23745471D01*
X81486047Y-24045121D01*
X81486047Y-24350641D01*
X81426443Y-24650291D01*
X81309526Y-24932555D01*
X81139788Y-25186586D01*
X80923752Y-25402622D01*
X80669721Y-25572360D01*
X80387457Y-25689277D01*
X80268284Y-25712982D01*
X80087808Y-25748881D01*
X79782286Y-25748881D01*
X79601810Y-25712982D01*
X79482637Y-25689277D01*
X79200373Y-25572360D01*
X78946342Y-25402622D01*
X78730306Y-25186586D01*
X78560568Y-24932555D01*
X78443651Y-24650291D01*
X78384047Y-24350641D01*
X78384047Y-24045121D01*
X78443651Y-23745471D01*
X78560568Y-23463207D01*
X78730306Y-23209176D01*
X78946342Y-22993140D01*
X79200373Y-22823402D01*
X79482637Y-22706485D01*
X79686938Y-22665847D01*
X79782286Y-22646881D01*
X80087808Y-22646881D01*
X80183156Y-22665847D01*
X80183156Y-22665847D01*
G37*
G36*
X46224664Y-22373095D02*
G01*
X46374489Y-22402897D01*
X46656753Y-22519814D01*
X46910784Y-22689552D01*
X47126820Y-22905588D01*
X47296558Y-23159619D01*
X47413475Y-23441883D01*
X47417717Y-23463209D01*
X47463738Y-23694570D01*
X47473079Y-23741533D01*
X47473079Y-24047053D01*
X47413475Y-24346703D01*
X47296558Y-24628967D01*
X47126820Y-24882998D01*
X46910784Y-25099034D01*
X46656753Y-25268772D01*
X46374489Y-25385689D01*
X46224664Y-25415491D01*
X46074840Y-25445293D01*
X45769318Y-25445293D01*
X45619494Y-25415491D01*
X45469669Y-25385689D01*
X45187405Y-25268772D01*
X44933374Y-25099034D01*
X44717338Y-24882998D01*
X44547600Y-24628967D01*
X44430683Y-24346703D01*
X44371079Y-24047053D01*
X44371079Y-23741533D01*
X44380421Y-23694570D01*
X44426441Y-23463209D01*
X44430683Y-23441883D01*
X44547600Y-23159619D01*
X44717338Y-22905588D01*
X44933374Y-22689552D01*
X45187405Y-22519814D01*
X45469669Y-22402897D01*
X45619494Y-22373095D01*
X45769318Y-22343293D01*
X46074840Y-22343293D01*
X46224664Y-22373095D01*
X46224664Y-22373095D01*
G37*
G36*
X39270390Y-22326484D02*
G01*
X39535371Y-22379192D01*
X39817635Y-22496109D01*
X40071666Y-22665847D01*
X40287702Y-22881883D01*
X40457440Y-23135914D01*
X40574357Y-23418178D01*
X40594778Y-23520840D01*
X40628841Y-23692085D01*
X40633961Y-23717828D01*
X40633961Y-24023348D01*
X40574357Y-24322998D01*
X40457440Y-24605262D01*
X40287702Y-24859293D01*
X40071666Y-25075329D01*
X39817635Y-25245067D01*
X39535371Y-25361984D01*
X39385546Y-25391786D01*
X39235722Y-25421588D01*
X38930200Y-25421588D01*
X38780376Y-25391786D01*
X38630551Y-25361984D01*
X38348287Y-25245067D01*
X38094256Y-25075329D01*
X37878220Y-24859293D01*
X37708482Y-24605262D01*
X37591565Y-24322998D01*
X37531961Y-24023348D01*
X37531961Y-23717828D01*
X37537082Y-23692085D01*
X37571144Y-23520840D01*
X37591565Y-23418178D01*
X37708482Y-23135914D01*
X37878220Y-22881883D01*
X38094256Y-22665847D01*
X38348287Y-22496109D01*
X38630551Y-22379192D01*
X38895532Y-22326484D01*
X38930200Y-22319588D01*
X39235722Y-22319588D01*
X39270390Y-22326484D01*
X39270390Y-22326484D01*
G37*
G36*
X35606778Y-23694569D02*
G01*
X34931737Y-25365356D01*
X33260950Y-24690315D01*
X33935991Y-23019528D01*
X35606778Y-23694569D01*
X35606778Y-23694569D01*
G37*
G36*
X251754644Y-24687830D02*
G01*
X250083857Y-25362871D01*
X249408816Y-23692084D01*
X251079603Y-23017043D01*
X251754644Y-24687830D01*
X251754644Y-24687830D01*
G37*
G36*
X203199636Y-20784066D02*
G01*
X203403932Y-20824703D01*
X203686196Y-20941620D01*
X203940227Y-21111358D01*
X204156263Y-21327394D01*
X204326001Y-21581425D01*
X204431468Y-21836047D01*
X204442918Y-21863690D01*
X204502522Y-22163338D01*
X204502522Y-22468860D01*
X204489661Y-22533514D01*
X204442918Y-22768509D01*
X204326001Y-23050773D01*
X204156263Y-23304804D01*
X203940227Y-23520840D01*
X203686196Y-23690578D01*
X203403932Y-23807495D01*
X203254107Y-23837297D01*
X203104283Y-23867099D01*
X202798761Y-23867099D01*
X202648937Y-23837297D01*
X202499112Y-23807495D01*
X202216848Y-23690578D01*
X201962817Y-23520840D01*
X201746781Y-23304804D01*
X201577043Y-23050773D01*
X201460126Y-22768509D01*
X201413383Y-22533514D01*
X201400522Y-22468860D01*
X201400522Y-22163338D01*
X201460126Y-21863690D01*
X201471576Y-21836047D01*
X201577043Y-21581425D01*
X201746781Y-21327394D01*
X201962817Y-21111358D01*
X202216848Y-20941620D01*
X202499112Y-20824703D01*
X202703408Y-20784066D01*
X202798761Y-20765099D01*
X203104283Y-20765099D01*
X203199636Y-20784066D01*
X203199636Y-20784066D01*
G37*
G36*
X244106192Y-20467609D02*
G01*
X244256017Y-20497411D01*
X244538281Y-20614328D01*
X244792312Y-20784066D01*
X245008348Y-21000102D01*
X245178086Y-21254133D01*
X245295003Y-21536397D01*
X245324805Y-21686222D01*
X245354607Y-21836046D01*
X245354607Y-22141568D01*
X245350276Y-22163339D01*
X245295003Y-22441217D01*
X245178086Y-22723481D01*
X245008348Y-22977512D01*
X244792312Y-23193548D01*
X244538281Y-23363286D01*
X244256017Y-23480203D01*
X244222278Y-23486914D01*
X243956368Y-23539807D01*
X243650846Y-23539807D01*
X243384936Y-23486914D01*
X243351197Y-23480203D01*
X243068933Y-23363286D01*
X242814902Y-23193548D01*
X242598866Y-22977512D01*
X242429128Y-22723481D01*
X242312211Y-22441217D01*
X242256938Y-22163339D01*
X242252607Y-22141568D01*
X242252607Y-21836046D01*
X242282409Y-21686222D01*
X242312211Y-21536397D01*
X242429128Y-21254133D01*
X242598866Y-21000102D01*
X242814902Y-20784066D01*
X243068933Y-20614328D01*
X243351197Y-20497411D01*
X243501022Y-20467609D01*
X243650846Y-20437807D01*
X243956368Y-20437807D01*
X244106192Y-20467609D01*
X244106192Y-20467609D01*
G37*
G36*
X135186564Y-21419389D02*
G01*
X135377833Y-21498615D01*
X135377835Y-21498616D01*
X135501767Y-21581425D01*
X135549973Y-21613635D01*
X135696365Y-21760027D01*
X135811385Y-21932167D01*
X135890611Y-22123436D01*
X135931000Y-22326484D01*
X135931000Y-22533516D01*
X135890611Y-22736564D01*
X135811385Y-22927833D01*
X135811384Y-22927835D01*
X135696365Y-23099973D01*
X135549973Y-23246365D01*
X135377835Y-23361384D01*
X135377834Y-23361385D01*
X135377833Y-23361385D01*
X135186564Y-23440611D01*
X134983516Y-23481000D01*
X134776484Y-23481000D01*
X134573436Y-23440611D01*
X134382167Y-23361385D01*
X134382166Y-23361385D01*
X134382165Y-23361384D01*
X134210027Y-23246365D01*
X134063635Y-23099973D01*
X133948616Y-22927835D01*
X133948615Y-22927833D01*
X133869389Y-22736564D01*
X133829000Y-22533516D01*
X133829000Y-22326484D01*
X133869389Y-22123436D01*
X133948615Y-21932167D01*
X134063635Y-21760027D01*
X134210027Y-21613635D01*
X134258233Y-21581425D01*
X134382165Y-21498616D01*
X134382167Y-21498615D01*
X134573436Y-21419389D01*
X134776484Y-21379000D01*
X134983516Y-21379000D01*
X135186564Y-21419389D01*
X135186564Y-21419389D01*
G37*
G36*
X150426564Y-21419389D02*
G01*
X150617833Y-21498615D01*
X150617835Y-21498616D01*
X150741767Y-21581425D01*
X150789973Y-21613635D01*
X150936365Y-21760027D01*
X151051385Y-21932167D01*
X151130611Y-22123436D01*
X151171000Y-22326484D01*
X151171000Y-22533516D01*
X151130611Y-22736564D01*
X151051385Y-22927833D01*
X151051384Y-22927835D01*
X150936365Y-23099973D01*
X150789973Y-23246365D01*
X150617835Y-23361384D01*
X150617834Y-23361385D01*
X150617833Y-23361385D01*
X150426564Y-23440611D01*
X150223516Y-23481000D01*
X150016484Y-23481000D01*
X149813436Y-23440611D01*
X149622167Y-23361385D01*
X149622166Y-23361385D01*
X149622165Y-23361384D01*
X149450027Y-23246365D01*
X149303635Y-23099973D01*
X149188616Y-22927835D01*
X149188615Y-22927833D01*
X149109389Y-22736564D01*
X149069000Y-22533516D01*
X149069000Y-22326484D01*
X149109389Y-22123436D01*
X149188615Y-21932167D01*
X149303635Y-21760027D01*
X149450027Y-21613635D01*
X149498233Y-21581425D01*
X149622165Y-21498616D01*
X149622167Y-21498615D01*
X149813436Y-21419389D01*
X150016484Y-21379000D01*
X150223516Y-21379000D01*
X150426564Y-21419389D01*
X150426564Y-21419389D01*
G37*
G36*
X135186564Y-18879389D02*
G01*
X135377833Y-18958615D01*
X135377835Y-18958616D01*
X135549973Y-19073635D01*
X135696365Y-19220027D01*
X135781752Y-19347817D01*
X135811385Y-19392167D01*
X135890611Y-19583436D01*
X135931000Y-19786484D01*
X135931000Y-19993516D01*
X135890611Y-20196564D01*
X135811385Y-20387833D01*
X135811384Y-20387835D01*
X135696365Y-20559973D01*
X135549973Y-20706365D01*
X135377835Y-20821384D01*
X135377834Y-20821385D01*
X135377833Y-20821385D01*
X135186564Y-20900611D01*
X134983516Y-20941000D01*
X134776484Y-20941000D01*
X134573436Y-20900611D01*
X134382167Y-20821385D01*
X134382166Y-20821385D01*
X134382165Y-20821384D01*
X134210027Y-20706365D01*
X134063635Y-20559973D01*
X133948616Y-20387835D01*
X133948615Y-20387833D01*
X133869389Y-20196564D01*
X133829000Y-19993516D01*
X133829000Y-19786484D01*
X133869389Y-19583436D01*
X133948615Y-19392167D01*
X133978249Y-19347817D01*
X134063635Y-19220027D01*
X134210027Y-19073635D01*
X134382165Y-18958616D01*
X134382167Y-18958615D01*
X134573436Y-18879389D01*
X134776484Y-18839000D01*
X134983516Y-18839000D01*
X135186564Y-18879389D01*
X135186564Y-18879389D01*
G37*
G36*
X150426564Y-18879389D02*
G01*
X150617833Y-18958615D01*
X150617835Y-18958616D01*
X150789973Y-19073635D01*
X150936365Y-19220027D01*
X151021752Y-19347817D01*
X151051385Y-19392167D01*
X151130611Y-19583436D01*
X151171000Y-19786484D01*
X151171000Y-19993516D01*
X151130611Y-20196564D01*
X151051385Y-20387833D01*
X151051384Y-20387835D01*
X150936365Y-20559973D01*
X150789973Y-20706365D01*
X150617835Y-20821384D01*
X150617834Y-20821385D01*
X150617833Y-20821385D01*
X150426564Y-20900611D01*
X150223516Y-20941000D01*
X150016484Y-20941000D01*
X149813436Y-20900611D01*
X149622167Y-20821385D01*
X149622166Y-20821385D01*
X149622165Y-20821384D01*
X149450027Y-20706365D01*
X149303635Y-20559973D01*
X149188616Y-20387835D01*
X149188615Y-20387833D01*
X149109389Y-20196564D01*
X149069000Y-19993516D01*
X149069000Y-19786484D01*
X149109389Y-19583436D01*
X149188615Y-19392167D01*
X149218249Y-19347817D01*
X149303635Y-19220027D01*
X149450027Y-19073635D01*
X149622165Y-18958616D01*
X149622167Y-18958615D01*
X149813436Y-18879389D01*
X150016484Y-18839000D01*
X150223516Y-18839000D01*
X150426564Y-18879389D01*
X150426564Y-18879389D01*
G37*
G36*
X88174977Y-19048666D02*
G01*
X87499936Y-20719453D01*
X85829149Y-20044412D01*
X86504190Y-18373625D01*
X88174977Y-19048666D01*
X88174977Y-19048666D01*
G37*
G36*
X199186444Y-20041927D02*
G01*
X197515657Y-20716968D01*
X196840616Y-19046181D01*
X198511403Y-18371140D01*
X199186444Y-20041927D01*
X199186444Y-20041927D01*
G37*
G36*
X84757459Y-17700557D02*
G01*
X84823643Y-17707075D01*
X84993482Y-17758595D01*
X85150007Y-17842260D01*
X85185745Y-17871590D01*
X85287202Y-17954852D01*
X85370464Y-18056309D01*
X85399794Y-18092047D01*
X85483459Y-18248572D01*
X85534979Y-18418411D01*
X85552375Y-18595038D01*
X85534979Y-18771665D01*
X85483459Y-18941504D01*
X85399794Y-19098029D01*
X85370464Y-19133767D01*
X85287202Y-19235224D01*
X85185745Y-19318486D01*
X85150007Y-19347816D01*
X85150005Y-19347817D01*
X85067037Y-19392165D01*
X84993482Y-19431481D01*
X84823643Y-19483001D01*
X84757458Y-19489520D01*
X84691276Y-19496038D01*
X84602756Y-19496038D01*
X84536574Y-19489520D01*
X84470389Y-19483001D01*
X84300550Y-19431481D01*
X84226996Y-19392165D01*
X84144027Y-19347817D01*
X84144025Y-19347816D01*
X84108287Y-19318486D01*
X84006830Y-19235224D01*
X83923568Y-19133767D01*
X83894238Y-19098029D01*
X83810573Y-18941504D01*
X83759053Y-18771665D01*
X83741657Y-18595038D01*
X83759053Y-18418411D01*
X83810573Y-18248572D01*
X83894238Y-18092047D01*
X83923568Y-18056309D01*
X84006830Y-17954852D01*
X84108287Y-17871590D01*
X84144025Y-17842260D01*
X84300550Y-17758595D01*
X84470389Y-17707075D01*
X84536573Y-17700557D01*
X84602756Y-17694038D01*
X84691276Y-17694038D01*
X84757459Y-17700557D01*
X84757459Y-17700557D01*
G37*
G36*
X200479020Y-17698072D02*
G01*
X200545204Y-17704590D01*
X200715043Y-17756110D01*
X200871568Y-17839775D01*
X200881389Y-17847835D01*
X201008763Y-17952367D01*
X201092025Y-18053824D01*
X201121355Y-18089562D01*
X201205020Y-18246087D01*
X201256540Y-18415926D01*
X201273936Y-18592553D01*
X201256540Y-18769180D01*
X201205020Y-18939019D01*
X201121355Y-19095544D01*
X201092025Y-19131282D01*
X201008763Y-19232739D01*
X200907306Y-19316001D01*
X200871568Y-19345331D01*
X200715043Y-19428996D01*
X200545204Y-19480516D01*
X200479019Y-19487035D01*
X200412837Y-19493553D01*
X200324317Y-19493553D01*
X200258134Y-19487034D01*
X200191950Y-19480516D01*
X200022111Y-19428996D01*
X199865586Y-19345331D01*
X199829848Y-19316001D01*
X199728391Y-19232739D01*
X199645129Y-19131282D01*
X199615799Y-19095544D01*
X199532134Y-18939019D01*
X199480614Y-18769180D01*
X199463218Y-18592553D01*
X199480614Y-18415926D01*
X199532134Y-18246087D01*
X199615799Y-18089562D01*
X199645129Y-18053824D01*
X199728391Y-17952367D01*
X199855765Y-17847835D01*
X199865586Y-17839775D01*
X200022111Y-17756110D01*
X200191950Y-17704590D01*
X200258135Y-17698071D01*
X200324317Y-17691553D01*
X200412837Y-17691553D01*
X200479020Y-17698072D01*
X200479020Y-17698072D01*
G37*
G36*
X82402411Y-16749056D02*
G01*
X82468596Y-16755575D01*
X82638435Y-16807095D01*
X82794960Y-16890760D01*
X82830698Y-16920090D01*
X82932155Y-17003352D01*
X83015417Y-17104809D01*
X83044747Y-17140547D01*
X83128412Y-17297072D01*
X83179932Y-17466911D01*
X83197328Y-17643538D01*
X83179932Y-17820165D01*
X83128412Y-17990004D01*
X83044747Y-18146529D01*
X83028468Y-18166365D01*
X82932155Y-18283724D01*
X82830698Y-18366986D01*
X82794960Y-18396316D01*
X82638435Y-18479981D01*
X82468596Y-18531501D01*
X82402411Y-18538020D01*
X82336229Y-18544538D01*
X82247709Y-18544538D01*
X82181527Y-18538020D01*
X82115342Y-18531501D01*
X81945503Y-18479981D01*
X81788978Y-18396316D01*
X81753240Y-18366986D01*
X81651783Y-18283724D01*
X81555470Y-18166365D01*
X81539191Y-18146529D01*
X81455526Y-17990004D01*
X81404006Y-17820165D01*
X81386610Y-17643538D01*
X81404006Y-17466911D01*
X81455526Y-17297072D01*
X81539191Y-17140547D01*
X81568521Y-17104809D01*
X81651783Y-17003352D01*
X81753240Y-16920090D01*
X81788978Y-16890760D01*
X81945503Y-16807095D01*
X82115342Y-16755575D01*
X82181527Y-16749056D01*
X82247709Y-16742538D01*
X82336229Y-16742538D01*
X82402411Y-16749056D01*
X82402411Y-16749056D01*
G37*
G36*
X202834067Y-16746572D02*
G01*
X202900251Y-16753090D01*
X203070090Y-16804610D01*
X203226615Y-16888275D01*
X203262353Y-16917605D01*
X203363810Y-17000867D01*
X203447072Y-17102324D01*
X203476402Y-17138062D01*
X203560067Y-17294587D01*
X203611587Y-17464426D01*
X203628983Y-17641053D01*
X203611587Y-17817680D01*
X203560067Y-17987519D01*
X203476402Y-18144044D01*
X203458083Y-18166365D01*
X203363810Y-18281239D01*
X203262353Y-18364501D01*
X203226615Y-18393831D01*
X203070090Y-18477496D01*
X202900251Y-18529016D01*
X202834067Y-18535534D01*
X202767884Y-18542053D01*
X202679364Y-18542053D01*
X202613181Y-18535534D01*
X202546997Y-18529016D01*
X202377158Y-18477496D01*
X202220633Y-18393831D01*
X202184895Y-18364501D01*
X202083438Y-18281239D01*
X201989165Y-18166365D01*
X201970846Y-18144044D01*
X201887181Y-17987519D01*
X201835661Y-17817680D01*
X201818265Y-17641053D01*
X201835661Y-17464426D01*
X201887181Y-17294587D01*
X201970846Y-17138062D01*
X202000176Y-17102324D01*
X202083438Y-17000867D01*
X202184895Y-16917605D01*
X202220633Y-16888275D01*
X202377158Y-16804610D01*
X202546997Y-16753090D01*
X202613181Y-16746572D01*
X202679364Y-16740053D01*
X202767884Y-16740053D01*
X202834067Y-16746572D01*
X202834067Y-16746572D01*
G37*
G36*
X135186564Y-16339389D02*
G01*
X135320215Y-16394749D01*
X135377835Y-16418616D01*
X135549973Y-16533635D01*
X135696365Y-16680027D01*
X135746845Y-16755575D01*
X135811385Y-16852167D01*
X135890611Y-17043436D01*
X135931000Y-17246484D01*
X135931000Y-17453516D01*
X135890611Y-17656564D01*
X135823875Y-17817680D01*
X135811384Y-17847835D01*
X135696365Y-18019973D01*
X135549973Y-18166365D01*
X135377835Y-18281384D01*
X135377834Y-18281385D01*
X135377833Y-18281385D01*
X135186564Y-18360611D01*
X134983516Y-18401000D01*
X134776484Y-18401000D01*
X134573436Y-18360611D01*
X134382167Y-18281385D01*
X134382166Y-18281385D01*
X134382165Y-18281384D01*
X134210027Y-18166365D01*
X134063635Y-18019973D01*
X133948616Y-17847835D01*
X133936125Y-17817680D01*
X133869389Y-17656564D01*
X133829000Y-17453516D01*
X133829000Y-17246484D01*
X133869389Y-17043436D01*
X133948615Y-16852167D01*
X134013156Y-16755575D01*
X134063635Y-16680027D01*
X134210027Y-16533635D01*
X134382165Y-16418616D01*
X134439785Y-16394749D01*
X134573436Y-16339389D01*
X134776484Y-16299000D01*
X134983516Y-16299000D01*
X135186564Y-16339389D01*
X135186564Y-16339389D01*
G37*
G36*
X150426564Y-16339389D02*
G01*
X150560215Y-16394749D01*
X150617835Y-16418616D01*
X150789973Y-16533635D01*
X150936365Y-16680027D01*
X150986845Y-16755575D01*
X151051385Y-16852167D01*
X151130611Y-17043436D01*
X151171000Y-17246484D01*
X151171000Y-17453516D01*
X151130611Y-17656564D01*
X151063875Y-17817680D01*
X151051384Y-17847835D01*
X150936365Y-18019973D01*
X150789973Y-18166365D01*
X150617835Y-18281384D01*
X150617834Y-18281385D01*
X150617833Y-18281385D01*
X150426564Y-18360611D01*
X150223516Y-18401000D01*
X150016484Y-18401000D01*
X149813436Y-18360611D01*
X149622167Y-18281385D01*
X149622166Y-18281385D01*
X149622165Y-18281384D01*
X149450027Y-18166365D01*
X149303635Y-18019973D01*
X149188616Y-17847835D01*
X149176125Y-17817680D01*
X149109389Y-17656564D01*
X149069000Y-17453516D01*
X149069000Y-17246484D01*
X149109389Y-17043436D01*
X149188615Y-16852167D01*
X149253156Y-16755575D01*
X149303635Y-16680027D01*
X149450027Y-16533635D01*
X149622165Y-16418616D01*
X149679785Y-16394749D01*
X149813436Y-16339389D01*
X150016484Y-16299000D01*
X150223516Y-16299000D01*
X150426564Y-16339389D01*
X150426564Y-16339389D01*
G37*
G36*
X80047364Y-15797555D02*
G01*
X80113549Y-15804074D01*
X80283388Y-15855594D01*
X80439913Y-15939259D01*
X80447616Y-15945581D01*
X80577108Y-16051851D01*
X80660370Y-16153308D01*
X80689700Y-16189046D01*
X80773365Y-16345571D01*
X80824885Y-16515410D01*
X80842281Y-16692037D01*
X80824885Y-16868664D01*
X80773365Y-17038503D01*
X80689700Y-17195028D01*
X80660370Y-17230766D01*
X80577108Y-17332223D01*
X80475651Y-17415485D01*
X80439913Y-17444815D01*
X80283388Y-17528480D01*
X80113549Y-17580000D01*
X80047364Y-17586519D01*
X79981182Y-17593037D01*
X79892662Y-17593037D01*
X79826480Y-17586519D01*
X79760295Y-17580000D01*
X79590456Y-17528480D01*
X79433931Y-17444815D01*
X79398193Y-17415485D01*
X79296736Y-17332223D01*
X79213474Y-17230766D01*
X79184144Y-17195028D01*
X79100479Y-17038503D01*
X79048959Y-16868664D01*
X79031563Y-16692037D01*
X79048959Y-16515410D01*
X79100479Y-16345571D01*
X79184144Y-16189046D01*
X79213474Y-16153308D01*
X79296736Y-16051851D01*
X79426228Y-15945581D01*
X79433931Y-15939259D01*
X79590456Y-15855594D01*
X79760295Y-15804074D01*
X79826480Y-15797555D01*
X79892662Y-15791037D01*
X79981182Y-15791037D01*
X80047364Y-15797555D01*
X80047364Y-15797555D01*
G37*
G36*
X205189114Y-15795071D02*
G01*
X205255298Y-15801589D01*
X205425137Y-15853109D01*
X205581662Y-15936774D01*
X205589365Y-15943096D01*
X205718857Y-16049366D01*
X205771984Y-16114103D01*
X205831449Y-16186561D01*
X205915114Y-16343086D01*
X205966634Y-16512925D01*
X205984030Y-16689552D01*
X205966634Y-16866179D01*
X205915114Y-17036018D01*
X205831449Y-17192543D01*
X205802119Y-17228281D01*
X205718857Y-17329738D01*
X205617400Y-17413000D01*
X205581662Y-17442330D01*
X205425137Y-17525995D01*
X205255298Y-17577515D01*
X205189113Y-17584034D01*
X205122931Y-17590552D01*
X205034411Y-17590552D01*
X204968228Y-17584033D01*
X204902044Y-17577515D01*
X204732205Y-17525995D01*
X204575680Y-17442330D01*
X204539942Y-17413000D01*
X204438485Y-17329738D01*
X204355223Y-17228281D01*
X204325893Y-17192543D01*
X204242228Y-17036018D01*
X204190708Y-16866179D01*
X204173312Y-16689552D01*
X204190708Y-16512925D01*
X204242228Y-16343086D01*
X204325893Y-16186561D01*
X204385358Y-16114103D01*
X204438485Y-16049366D01*
X204567977Y-15943096D01*
X204575680Y-15936774D01*
X204732205Y-15853109D01*
X204902044Y-15801589D01*
X204968228Y-15795071D01*
X205034411Y-15788552D01*
X205122931Y-15788552D01*
X205189114Y-15795071D01*
X205189114Y-15795071D01*
G37*
G36*
X113728760Y-14785062D02*
G01*
X113897282Y-14854866D01*
X114048947Y-14956205D01*
X114177928Y-15085186D01*
X114279267Y-15236851D01*
X114349071Y-15405373D01*
X114384656Y-15584274D01*
X114384656Y-15766680D01*
X114349071Y-15945581D01*
X114279267Y-16114103D01*
X114177928Y-16265768D01*
X114048947Y-16394749D01*
X113897282Y-16496088D01*
X113728760Y-16565892D01*
X113549859Y-16601477D01*
X113367453Y-16601477D01*
X113188552Y-16565892D01*
X113020030Y-16496088D01*
X112868365Y-16394749D01*
X112739384Y-16265768D01*
X112638045Y-16114103D01*
X112568241Y-15945581D01*
X112532656Y-15766680D01*
X112532656Y-15584274D01*
X112568241Y-15405373D01*
X112638045Y-15236851D01*
X112739384Y-15085186D01*
X112868365Y-14956205D01*
X113020030Y-14854866D01*
X113188552Y-14785062D01*
X113367453Y-14749477D01*
X113549859Y-14749477D01*
X113728760Y-14785062D01*
X113728760Y-14785062D01*
G37*
G36*
X171827042Y-14782577D02*
G01*
X171995564Y-14852381D01*
X172147229Y-14953720D01*
X172276210Y-15082701D01*
X172377549Y-15234366D01*
X172447353Y-15402888D01*
X172482938Y-15581789D01*
X172482938Y-15764195D01*
X172447353Y-15943096D01*
X172377549Y-16111618D01*
X172276210Y-16263283D01*
X172147229Y-16392264D01*
X171995564Y-16493603D01*
X171827042Y-16563407D01*
X171648141Y-16598992D01*
X171465735Y-16598992D01*
X171286834Y-16563407D01*
X171118312Y-16493603D01*
X170966647Y-16392264D01*
X170837666Y-16263283D01*
X170736327Y-16111618D01*
X170666523Y-15943096D01*
X170630938Y-15764195D01*
X170630938Y-15581789D01*
X170666523Y-15402888D01*
X170736327Y-15234366D01*
X170837666Y-15082701D01*
X170966647Y-14953720D01*
X171118312Y-14852381D01*
X171286834Y-14782577D01*
X171465735Y-14746992D01*
X171648141Y-14746992D01*
X171827042Y-14782577D01*
X171827042Y-14782577D01*
G37*
G36*
X150426564Y-13799389D02*
G01*
X150617833Y-13878615D01*
X150617835Y-13878616D01*
X150789973Y-13993635D01*
X150936365Y-14140027D01*
X151051385Y-14312167D01*
X151130611Y-14503436D01*
X151171000Y-14706484D01*
X151171000Y-14913516D01*
X151130611Y-15116564D01*
X151080786Y-15236852D01*
X151051384Y-15307835D01*
X150936365Y-15479973D01*
X150789973Y-15626365D01*
X150617835Y-15741384D01*
X150617834Y-15741385D01*
X150617833Y-15741385D01*
X150426564Y-15820611D01*
X150223516Y-15861000D01*
X150016484Y-15861000D01*
X149813436Y-15820611D01*
X149622167Y-15741385D01*
X149622166Y-15741385D01*
X149622165Y-15741384D01*
X149450027Y-15626365D01*
X149303635Y-15479973D01*
X149188616Y-15307835D01*
X149159214Y-15236852D01*
X149109389Y-15116564D01*
X149069000Y-14913516D01*
X149069000Y-14706484D01*
X149109389Y-14503436D01*
X149188615Y-14312167D01*
X149303635Y-14140027D01*
X149450027Y-13993635D01*
X149622165Y-13878616D01*
X149622167Y-13878615D01*
X149813436Y-13799389D01*
X150016484Y-13759000D01*
X150223516Y-13759000D01*
X150426564Y-13799389D01*
X150426564Y-13799389D01*
G37*
G36*
X135186564Y-13799389D02*
G01*
X135377833Y-13878615D01*
X135377835Y-13878616D01*
X135549973Y-13993635D01*
X135696365Y-14140027D01*
X135811385Y-14312167D01*
X135890611Y-14503436D01*
X135931000Y-14706484D01*
X135931000Y-14913516D01*
X135890611Y-15116564D01*
X135840786Y-15236852D01*
X135811384Y-15307835D01*
X135696365Y-15479973D01*
X135549973Y-15626365D01*
X135377835Y-15741384D01*
X135377834Y-15741385D01*
X135377833Y-15741385D01*
X135186564Y-15820611D01*
X134983516Y-15861000D01*
X134776484Y-15861000D01*
X134573436Y-15820611D01*
X134382167Y-15741385D01*
X134382166Y-15741385D01*
X134382165Y-15741384D01*
X134210027Y-15626365D01*
X134063635Y-15479973D01*
X133948616Y-15307835D01*
X133919214Y-15236852D01*
X133869389Y-15116564D01*
X133829000Y-14913516D01*
X133829000Y-14706484D01*
X133869389Y-14503436D01*
X133948615Y-14312167D01*
X134063635Y-14140027D01*
X134210027Y-13993635D01*
X134382165Y-13878616D01*
X134382167Y-13878615D01*
X134573436Y-13799389D01*
X134776484Y-13759000D01*
X134983516Y-13759000D01*
X135186564Y-13799389D01*
X135186564Y-13799389D01*
G37*
G36*
X109345036Y-11806160D02*
G01*
X109563036Y-11896459D01*
X109717185Y-11960309D01*
X110052110Y-12184099D01*
X110336939Y-12468928D01*
X110560729Y-12803853D01*
X110582734Y-12856978D01*
X110714878Y-13176002D01*
X110793462Y-13571070D01*
X110793462Y-13973882D01*
X110714878Y-14368950D01*
X110704835Y-14393195D01*
X110560729Y-14741099D01*
X110336939Y-15076024D01*
X110052110Y-15360853D01*
X109717185Y-15584643D01*
X109563036Y-15648493D01*
X109345036Y-15738792D01*
X108949968Y-15817376D01*
X108547156Y-15817376D01*
X108152088Y-15738792D01*
X107934088Y-15648493D01*
X107779939Y-15584643D01*
X107445014Y-15360853D01*
X107160185Y-15076024D01*
X106936395Y-14741099D01*
X106792289Y-14393195D01*
X106782246Y-14368950D01*
X106703662Y-13973882D01*
X106703662Y-13571070D01*
X106782246Y-13176002D01*
X106914390Y-12856978D01*
X106936395Y-12803853D01*
X107160185Y-12468928D01*
X107445014Y-12184099D01*
X107779939Y-11960309D01*
X107934088Y-11896459D01*
X108152088Y-11806160D01*
X108547156Y-11727576D01*
X108949968Y-11727576D01*
X109345036Y-11806160D01*
X109345036Y-11806160D01*
G37*
G36*
X176863506Y-11803675D02*
G01*
X176983772Y-11853491D01*
X177235655Y-11957824D01*
X177570580Y-12181614D01*
X177855409Y-12466443D01*
X178079199Y-12801368D01*
X178101204Y-12854493D01*
X178233348Y-13173517D01*
X178311932Y-13568585D01*
X178311932Y-13971397D01*
X178233348Y-14366465D01*
X178143049Y-14584465D01*
X178079199Y-14738614D01*
X177855409Y-15073539D01*
X177570580Y-15358368D01*
X177235655Y-15582158D01*
X177128929Y-15626365D01*
X176863506Y-15736307D01*
X176468438Y-15814891D01*
X176065626Y-15814891D01*
X175670558Y-15736307D01*
X175405135Y-15626365D01*
X175298409Y-15582158D01*
X174963484Y-15358368D01*
X174678655Y-15073539D01*
X174454865Y-14738614D01*
X174391015Y-14584465D01*
X174300716Y-14366465D01*
X174222132Y-13971397D01*
X174222132Y-13568585D01*
X174300716Y-13173517D01*
X174432860Y-12854493D01*
X174454865Y-12801368D01*
X174678655Y-12466443D01*
X174963484Y-12181614D01*
X175298409Y-11957824D01*
X175550292Y-11853491D01*
X175670558Y-11803675D01*
X176065626Y-11725091D01*
X176468438Y-11725091D01*
X176863506Y-11803675D01*
X176863506Y-11803675D01*
G37*
G36*
X172085546Y-11320997D02*
G01*
X172235371Y-11350799D01*
X172517635Y-11467716D01*
X172771666Y-11637454D01*
X172987702Y-11853490D01*
X173157440Y-12107521D01*
X173274357Y-12389785D01*
X173287783Y-12457281D01*
X173333961Y-12689434D01*
X173333961Y-12994956D01*
X173315593Y-13087298D01*
X173274357Y-13294605D01*
X173157440Y-13576869D01*
X172987702Y-13830900D01*
X172771666Y-14046936D01*
X172517635Y-14216674D01*
X172235371Y-14333591D01*
X172085546Y-14363393D01*
X171935722Y-14393195D01*
X171630200Y-14393195D01*
X171480376Y-14363393D01*
X171330551Y-14333591D01*
X171048287Y-14216674D01*
X170794256Y-14046936D01*
X170578220Y-13830900D01*
X170408482Y-13576869D01*
X170291565Y-13294605D01*
X170250329Y-13087298D01*
X170231961Y-12994956D01*
X170231961Y-12689434D01*
X170278139Y-12457281D01*
X170291565Y-12389785D01*
X170408482Y-12107521D01*
X170578220Y-11853490D01*
X170794256Y-11637454D01*
X171048287Y-11467716D01*
X171330551Y-11350799D01*
X171480376Y-11320997D01*
X171630200Y-11291195D01*
X171935722Y-11291195D01*
X172085546Y-11320997D01*
X172085546Y-11320997D01*
G37*
G36*
X150426564Y-11259389D02*
G01*
X150616836Y-11338202D01*
X150617835Y-11338616D01*
X150789973Y-11453635D01*
X150936365Y-11600027D01*
X151021591Y-11727576D01*
X151051385Y-11772167D01*
X151130611Y-11963436D01*
X151171000Y-12166484D01*
X151171000Y-12373516D01*
X151130611Y-12576564D01*
X151054675Y-12759890D01*
X151051384Y-12767835D01*
X150936365Y-12939973D01*
X150789973Y-13086365D01*
X150617835Y-13201384D01*
X150617834Y-13201385D01*
X150617833Y-13201385D01*
X150426564Y-13280611D01*
X150223516Y-13321000D01*
X150016484Y-13321000D01*
X149813436Y-13280611D01*
X149622167Y-13201385D01*
X149622166Y-13201385D01*
X149622165Y-13201384D01*
X149450027Y-13086365D01*
X149303635Y-12939973D01*
X149188616Y-12767835D01*
X149185325Y-12759890D01*
X149109389Y-12576564D01*
X149069000Y-12373516D01*
X149069000Y-12166484D01*
X149109389Y-11963436D01*
X149188615Y-11772167D01*
X149218410Y-11727576D01*
X149303635Y-11600027D01*
X149450027Y-11453635D01*
X149622165Y-11338616D01*
X149623164Y-11338202D01*
X149813436Y-11259389D01*
X150016484Y-11219000D01*
X150223516Y-11219000D01*
X150426564Y-11259389D01*
X150426564Y-11259389D01*
G37*
G36*
X135186564Y-11259389D02*
G01*
X135376836Y-11338202D01*
X135377835Y-11338616D01*
X135549973Y-11453635D01*
X135696365Y-11600027D01*
X135781591Y-11727576D01*
X135811385Y-11772167D01*
X135890611Y-11963436D01*
X135931000Y-12166484D01*
X135931000Y-12373516D01*
X135890611Y-12576564D01*
X135814675Y-12759890D01*
X135811384Y-12767835D01*
X135696365Y-12939973D01*
X135549973Y-13086365D01*
X135377835Y-13201384D01*
X135377834Y-13201385D01*
X135377833Y-13201385D01*
X135186564Y-13280611D01*
X134983516Y-13321000D01*
X134776484Y-13321000D01*
X134573436Y-13280611D01*
X134382167Y-13201385D01*
X134382166Y-13201385D01*
X134382165Y-13201384D01*
X134210027Y-13086365D01*
X134063635Y-12939973D01*
X133948616Y-12767835D01*
X133945325Y-12759890D01*
X133869389Y-12576564D01*
X133829000Y-12373516D01*
X133829000Y-12166484D01*
X133869389Y-11963436D01*
X133948615Y-11772167D01*
X133978410Y-11727576D01*
X134063635Y-11600027D01*
X134210027Y-11453635D01*
X134382165Y-11338616D01*
X134383164Y-11338202D01*
X134573436Y-11259389D01*
X134776484Y-11219000D01*
X134983516Y-11219000D01*
X135186564Y-11259389D01*
X135186564Y-11259389D01*
G37*
G36*
X94613840Y-11376272D02*
G01*
X94782362Y-11446076D01*
X94934027Y-11547415D01*
X95063008Y-11676396D01*
X95164347Y-11828061D01*
X95234151Y-11996583D01*
X95269736Y-12175484D01*
X95269736Y-12357890D01*
X95234151Y-12536791D01*
X95164347Y-12705313D01*
X95063008Y-12856978D01*
X94934027Y-12985959D01*
X94782362Y-13087298D01*
X94613840Y-13157102D01*
X94434939Y-13192687D01*
X94252533Y-13192687D01*
X94073632Y-13157102D01*
X93905110Y-13087298D01*
X93753445Y-12985959D01*
X93624464Y-12856978D01*
X93523125Y-12705313D01*
X93453321Y-12536791D01*
X93417736Y-12357890D01*
X93417736Y-12175484D01*
X93453321Y-11996583D01*
X93523125Y-11828061D01*
X93624464Y-11676396D01*
X93753445Y-11547415D01*
X93905110Y-11446076D01*
X94073632Y-11376272D01*
X94252533Y-11340687D01*
X94434939Y-11340687D01*
X94613840Y-11376272D01*
X94613840Y-11376272D01*
G37*
G36*
X190941962Y-11373787D02*
G01*
X191110484Y-11443591D01*
X191262149Y-11544930D01*
X191391130Y-11673911D01*
X191492469Y-11825576D01*
X191562273Y-11994098D01*
X191597858Y-12172999D01*
X191597858Y-12355405D01*
X191562273Y-12534306D01*
X191492469Y-12702828D01*
X191391130Y-12854493D01*
X191262149Y-12983474D01*
X191110484Y-13084813D01*
X190941962Y-13154617D01*
X190763061Y-13190202D01*
X190580655Y-13190202D01*
X190401754Y-13154617D01*
X190233232Y-13084813D01*
X190081567Y-12983474D01*
X189952586Y-12854493D01*
X189851247Y-12702828D01*
X189781443Y-12534306D01*
X189745858Y-12355405D01*
X189745858Y-12172999D01*
X189781443Y-11994098D01*
X189851247Y-11825576D01*
X189952586Y-11673911D01*
X190081567Y-11544930D01*
X190233232Y-11443591D01*
X190401754Y-11373787D01*
X190580655Y-11338202D01*
X190763061Y-11338202D01*
X190941962Y-11373787D01*
X190941962Y-11373787D01*
G37*
G36*
X104308572Y-10979060D02*
G01*
X104477094Y-11048864D01*
X104628759Y-11150203D01*
X104757740Y-11279184D01*
X104859079Y-11430849D01*
X104928883Y-11599371D01*
X104964468Y-11778272D01*
X104964468Y-11960678D01*
X104928883Y-12139579D01*
X104859079Y-12308101D01*
X104757740Y-12459766D01*
X104628759Y-12588747D01*
X104477094Y-12690086D01*
X104308572Y-12759890D01*
X104129671Y-12795475D01*
X103947265Y-12795475D01*
X103768364Y-12759890D01*
X103599842Y-12690086D01*
X103448177Y-12588747D01*
X103319196Y-12459766D01*
X103217857Y-12308101D01*
X103148053Y-12139579D01*
X103112468Y-11960678D01*
X103112468Y-11778272D01*
X103148053Y-11599371D01*
X103217857Y-11430849D01*
X103319196Y-11279184D01*
X103448177Y-11150203D01*
X103599842Y-11048864D01*
X103768364Y-10979060D01*
X103947265Y-10943475D01*
X104129671Y-10943475D01*
X104308572Y-10979060D01*
X104308572Y-10979060D01*
G37*
G36*
X181247230Y-10976575D02*
G01*
X181415752Y-11046379D01*
X181567417Y-11147718D01*
X181696398Y-11276699D01*
X181797737Y-11428364D01*
X181867541Y-11596886D01*
X181903126Y-11775787D01*
X181903126Y-11958193D01*
X181867541Y-12137094D01*
X181797737Y-12305616D01*
X181696398Y-12457281D01*
X181567417Y-12586262D01*
X181415752Y-12687601D01*
X181247230Y-12757405D01*
X181068329Y-12792990D01*
X180885923Y-12792990D01*
X180707022Y-12757405D01*
X180538500Y-12687601D01*
X180386835Y-12586262D01*
X180257854Y-12457281D01*
X180156515Y-12305616D01*
X180086711Y-12137094D01*
X180051126Y-11958193D01*
X180051126Y-11775787D01*
X180086711Y-11596886D01*
X180156515Y-11428364D01*
X180257854Y-11276699D01*
X180386835Y-11147718D01*
X180538500Y-11046379D01*
X180707022Y-10976575D01*
X180885923Y-10940990D01*
X181068329Y-10940990D01*
X181247230Y-10976575D01*
X181247230Y-10976575D01*
G37*
G36*
X90230116Y-8397370D02*
G01*
X90388278Y-8462883D01*
X90602265Y-8551519D01*
X90937190Y-8775309D01*
X91222019Y-9060138D01*
X91445809Y-9395063D01*
X91445809Y-9395064D01*
X91599958Y-9767212D01*
X91678542Y-10162280D01*
X91678542Y-10565092D01*
X91599958Y-10960160D01*
X91522269Y-11147718D01*
X91445809Y-11332309D01*
X91222019Y-11667234D01*
X90937190Y-11952063D01*
X90602265Y-12175853D01*
X90448116Y-12239703D01*
X90230116Y-12330002D01*
X89835048Y-12408586D01*
X89432236Y-12408586D01*
X89037168Y-12330002D01*
X88819168Y-12239703D01*
X88665019Y-12175853D01*
X88330094Y-11952063D01*
X88045265Y-11667234D01*
X87821475Y-11332309D01*
X87745015Y-11147718D01*
X87667326Y-10960160D01*
X87588742Y-10565092D01*
X87588742Y-10162280D01*
X87667326Y-9767212D01*
X87821475Y-9395064D01*
X87821475Y-9395063D01*
X88045265Y-9060138D01*
X88330094Y-8775309D01*
X88665019Y-8551519D01*
X88879006Y-8462883D01*
X89037168Y-8397370D01*
X89432236Y-8318786D01*
X89835048Y-8318786D01*
X90230116Y-8397370D01*
X90230116Y-8397370D01*
G37*
G36*
X195978426Y-8394885D02*
G01*
X196098692Y-8444701D01*
X196350575Y-8549034D01*
X196685500Y-8772824D01*
X196970329Y-9057653D01*
X197194119Y-9392578D01*
X197231521Y-9482875D01*
X197348268Y-9764727D01*
X197426852Y-10159795D01*
X197426852Y-10562607D01*
X197348268Y-10957675D01*
X197310496Y-11048864D01*
X197194119Y-11329824D01*
X196970329Y-11664749D01*
X196685500Y-11949578D01*
X196350575Y-12173368D01*
X196196426Y-12237218D01*
X195978426Y-12327517D01*
X195583358Y-12406101D01*
X195180546Y-12406101D01*
X194785478Y-12327517D01*
X194567478Y-12237218D01*
X194413329Y-12173368D01*
X194078404Y-11949578D01*
X193793575Y-11664749D01*
X193569785Y-11329824D01*
X193453408Y-11048864D01*
X193415636Y-10957675D01*
X193337052Y-10562607D01*
X193337052Y-10159795D01*
X193415636Y-9764727D01*
X193532383Y-9482875D01*
X193569785Y-9392578D01*
X193793575Y-9057653D01*
X194078404Y-8772824D01*
X194413329Y-8549034D01*
X194665212Y-8444701D01*
X194785478Y-8394885D01*
X195180546Y-8316301D01*
X195583358Y-8316301D01*
X195978426Y-8394885D01*
X195978426Y-8394885D01*
G37*
G36*
X113309195Y-8492685D02*
G01*
X113459020Y-8522487D01*
X113741284Y-8639404D01*
X113995315Y-8809142D01*
X114211351Y-9025178D01*
X114381089Y-9279209D01*
X114498006Y-9561473D01*
X114502918Y-9586166D01*
X114557610Y-9861122D01*
X114557610Y-10166644D01*
X114545439Y-10227833D01*
X114498006Y-10466293D01*
X114381089Y-10748557D01*
X114211351Y-11002588D01*
X113995315Y-11218624D01*
X113741284Y-11388362D01*
X113459020Y-11505279D01*
X113309195Y-11535081D01*
X113159371Y-11564883D01*
X112853849Y-11564883D01*
X112704025Y-11535081D01*
X112554200Y-11505279D01*
X112271936Y-11388362D01*
X112017905Y-11218624D01*
X111801869Y-11002588D01*
X111632131Y-10748557D01*
X111515214Y-10466293D01*
X111467781Y-10227833D01*
X111455610Y-10166644D01*
X111455610Y-9861122D01*
X111510302Y-9586166D01*
X111515214Y-9561473D01*
X111632131Y-9279209D01*
X111801869Y-9025178D01*
X112017905Y-8809142D01*
X112271936Y-8639404D01*
X112554200Y-8522487D01*
X112704025Y-8492685D01*
X112853849Y-8462883D01*
X113159371Y-8462883D01*
X113309195Y-8492685D01*
X113309195Y-8492685D01*
G37*
G36*
X106439425Y-8462883D02*
G01*
X106619902Y-8498782D01*
X106902166Y-8615699D01*
X107156197Y-8785437D01*
X107372233Y-9001473D01*
X107541971Y-9255504D01*
X107658888Y-9537768D01*
X107658888Y-9537769D01*
X107718492Y-9837417D01*
X107718492Y-10142939D01*
X107713777Y-10166643D01*
X107658888Y-10442588D01*
X107541971Y-10724852D01*
X107372233Y-10978883D01*
X107156197Y-11194919D01*
X106902166Y-11364657D01*
X106619902Y-11481574D01*
X106500729Y-11505279D01*
X106320253Y-11541178D01*
X106014731Y-11541178D01*
X105834255Y-11505279D01*
X105715082Y-11481574D01*
X105432818Y-11364657D01*
X105178787Y-11194919D01*
X104962751Y-10978883D01*
X104793013Y-10724852D01*
X104676096Y-10442588D01*
X104621207Y-10166643D01*
X104616492Y-10142939D01*
X104616492Y-9837417D01*
X104676096Y-9537769D01*
X104676096Y-9537768D01*
X104793013Y-9255504D01*
X104962751Y-9001473D01*
X105178787Y-8785437D01*
X105432818Y-8615699D01*
X105715082Y-8498782D01*
X105895559Y-8462883D01*
X106014731Y-8439178D01*
X106320253Y-8439178D01*
X106439425Y-8462883D01*
X106439425Y-8462883D01*
G37*
G36*
X191200466Y-7912207D02*
G01*
X191350291Y-7942009D01*
X191632555Y-8058926D01*
X191886586Y-8228664D01*
X192102622Y-8444700D01*
X192272360Y-8698731D01*
X192389277Y-8980995D01*
X192402703Y-9048491D01*
X192448881Y-9280644D01*
X192448881Y-9586166D01*
X192419079Y-9735990D01*
X192389277Y-9885815D01*
X192272360Y-10168079D01*
X192102622Y-10422110D01*
X191886586Y-10638146D01*
X191632555Y-10807884D01*
X191350291Y-10924801D01*
X191268903Y-10940990D01*
X191050642Y-10984405D01*
X190745120Y-10984405D01*
X190526859Y-10940990D01*
X190445471Y-10924801D01*
X190163207Y-10807884D01*
X189909176Y-10638146D01*
X189693140Y-10422110D01*
X189523402Y-10168079D01*
X189406485Y-9885815D01*
X189376683Y-9735990D01*
X189346881Y-9586166D01*
X189346881Y-9280644D01*
X189393059Y-9048491D01*
X189406485Y-8980995D01*
X189523402Y-8698731D01*
X189693140Y-8444700D01*
X189909176Y-8228664D01*
X190163207Y-8058926D01*
X190445471Y-7942009D01*
X190595296Y-7912207D01*
X190745120Y-7882405D01*
X191050642Y-7882405D01*
X191200466Y-7912207D01*
X191200466Y-7912207D01*
G37*
G36*
X150426564Y-8719389D02*
G01*
X150617833Y-8798615D01*
X150617835Y-8798616D01*
X150789973Y-8913635D01*
X150936365Y-9060027D01*
X151016500Y-9179957D01*
X151051385Y-9232167D01*
X151130611Y-9423436D01*
X151171000Y-9626484D01*
X151171000Y-9833516D01*
X151130611Y-10036564D01*
X151076136Y-10168079D01*
X151051384Y-10227835D01*
X150936365Y-10399973D01*
X150789973Y-10546365D01*
X150617835Y-10661384D01*
X150617834Y-10661385D01*
X150617833Y-10661385D01*
X150426564Y-10740611D01*
X150223516Y-10781000D01*
X150016484Y-10781000D01*
X149813436Y-10740611D01*
X149622167Y-10661385D01*
X149622166Y-10661385D01*
X149622165Y-10661384D01*
X149450027Y-10546365D01*
X149303635Y-10399973D01*
X149188616Y-10227835D01*
X149163864Y-10168079D01*
X149109389Y-10036564D01*
X149069000Y-9833516D01*
X149069000Y-9626484D01*
X149109389Y-9423436D01*
X149188615Y-9232167D01*
X149223501Y-9179957D01*
X149303635Y-9060027D01*
X149450027Y-8913635D01*
X149622165Y-8798616D01*
X149622167Y-8798615D01*
X149813436Y-8719389D01*
X150016484Y-8679000D01*
X150223516Y-8679000D01*
X150426564Y-8719389D01*
X150426564Y-8719389D01*
G37*
G36*
X135186564Y-8719389D02*
G01*
X135377833Y-8798615D01*
X135377835Y-8798616D01*
X135549973Y-8913635D01*
X135696365Y-9060027D01*
X135776500Y-9179957D01*
X135811385Y-9232167D01*
X135890611Y-9423436D01*
X135931000Y-9626484D01*
X135931000Y-9833516D01*
X135890611Y-10036564D01*
X135836136Y-10168079D01*
X135811384Y-10227835D01*
X135696365Y-10399973D01*
X135549973Y-10546365D01*
X135377835Y-10661384D01*
X135377834Y-10661385D01*
X135377833Y-10661385D01*
X135186564Y-10740611D01*
X134983516Y-10781000D01*
X134776484Y-10781000D01*
X134573436Y-10740611D01*
X134382167Y-10661385D01*
X134382166Y-10661385D01*
X134382165Y-10661384D01*
X134210027Y-10546365D01*
X134063635Y-10399973D01*
X133948616Y-10227835D01*
X133923864Y-10168079D01*
X133869389Y-10036564D01*
X133829000Y-9833516D01*
X133829000Y-9626484D01*
X133869389Y-9423436D01*
X133948615Y-9232167D01*
X133983501Y-9179957D01*
X134063635Y-9060027D01*
X134210027Y-8913635D01*
X134382165Y-8798616D01*
X134382167Y-8798615D01*
X134573436Y-8719389D01*
X134776484Y-8679000D01*
X134983516Y-8679000D01*
X135186564Y-8719389D01*
X135186564Y-8719389D01*
G37*
G36*
X177021662Y-6587198D02*
G01*
X177171487Y-6617000D01*
X177453751Y-6733917D01*
X177707782Y-6903655D01*
X177923818Y-7119691D01*
X178093556Y-7373722D01*
X178203882Y-7640074D01*
X178210473Y-7655987D01*
X178270077Y-7955635D01*
X178270077Y-8261157D01*
X178242982Y-8397370D01*
X178210473Y-8560806D01*
X178093556Y-8843070D01*
X177923818Y-9097101D01*
X177707782Y-9313137D01*
X177453751Y-9482875D01*
X177171487Y-9599792D01*
X177037297Y-9626484D01*
X176871838Y-9659396D01*
X176566316Y-9659396D01*
X176400857Y-9626484D01*
X176266667Y-9599792D01*
X175984403Y-9482875D01*
X175730372Y-9313137D01*
X175514336Y-9097101D01*
X175344598Y-8843070D01*
X175227681Y-8560806D01*
X175195172Y-8397370D01*
X175168077Y-8261157D01*
X175168077Y-7955635D01*
X175227681Y-7655987D01*
X175234272Y-7640074D01*
X175344598Y-7373722D01*
X175514336Y-7119691D01*
X175730372Y-6903655D01*
X175984403Y-6733917D01*
X176266667Y-6617000D01*
X176416492Y-6587198D01*
X176566316Y-6557396D01*
X176871838Y-6557396D01*
X177021662Y-6587198D01*
X177021662Y-6587198D01*
G37*
G36*
X85193652Y-7570270D02*
G01*
X85362174Y-7640074D01*
X85513839Y-7741413D01*
X85642820Y-7870394D01*
X85744159Y-8022059D01*
X85813963Y-8190581D01*
X85849548Y-8369482D01*
X85849548Y-8551888D01*
X85813963Y-8730789D01*
X85744159Y-8899311D01*
X85642820Y-9050976D01*
X85513839Y-9179957D01*
X85362174Y-9281296D01*
X85193652Y-9351100D01*
X85014751Y-9386685D01*
X84832345Y-9386685D01*
X84653444Y-9351100D01*
X84484922Y-9281296D01*
X84333257Y-9179957D01*
X84204276Y-9050976D01*
X84102937Y-8899311D01*
X84033133Y-8730789D01*
X83997548Y-8551888D01*
X83997548Y-8369482D01*
X84033133Y-8190581D01*
X84102937Y-8022059D01*
X84204276Y-7870394D01*
X84333257Y-7741413D01*
X84484922Y-7640074D01*
X84653444Y-7570270D01*
X84832345Y-7534685D01*
X85014751Y-7534685D01*
X85193652Y-7570270D01*
X85193652Y-7570270D01*
G37*
G36*
X200362150Y-7567785D02*
G01*
X200530672Y-7637589D01*
X200682337Y-7738928D01*
X200811318Y-7867909D01*
X200912657Y-8019574D01*
X200982461Y-8188096D01*
X201018046Y-8366997D01*
X201018046Y-8549403D01*
X200982461Y-8728304D01*
X200912657Y-8896826D01*
X200811318Y-9048491D01*
X200682337Y-9177472D01*
X200530672Y-9278811D01*
X200362150Y-9348615D01*
X200183249Y-9384200D01*
X200000843Y-9384200D01*
X199821942Y-9348615D01*
X199653420Y-9278811D01*
X199501755Y-9177472D01*
X199372774Y-9048491D01*
X199271435Y-8896826D01*
X199201631Y-8728304D01*
X199166046Y-8549403D01*
X199166046Y-8366997D01*
X199201631Y-8188096D01*
X199271435Y-8019574D01*
X199372774Y-7867909D01*
X199501755Y-7738928D01*
X199653420Y-7637589D01*
X199821942Y-7567785D01*
X200000843Y-7532200D01*
X200183249Y-7532200D01*
X200362150Y-7567785D01*
X200362150Y-7567785D01*
G37*
G36*
X150426564Y-6179389D02*
G01*
X150617833Y-6258615D01*
X150617835Y-6258616D01*
X150789973Y-6373635D01*
X150936365Y-6520027D01*
X151001168Y-6617011D01*
X151051385Y-6692167D01*
X151130611Y-6883436D01*
X151171000Y-7086484D01*
X151171000Y-7293516D01*
X151130611Y-7496564D01*
X151071167Y-7640074D01*
X151051384Y-7687835D01*
X150936365Y-7859973D01*
X150789973Y-8006365D01*
X150617835Y-8121384D01*
X150617834Y-8121385D01*
X150617833Y-8121385D01*
X150426564Y-8200611D01*
X150223516Y-8241000D01*
X150016484Y-8241000D01*
X149813436Y-8200611D01*
X149622167Y-8121385D01*
X149622166Y-8121385D01*
X149622165Y-8121384D01*
X149450027Y-8006365D01*
X149303635Y-7859973D01*
X149188616Y-7687835D01*
X149168833Y-7640074D01*
X149109389Y-7496564D01*
X149069000Y-7293516D01*
X149069000Y-7086484D01*
X149109389Y-6883436D01*
X149188615Y-6692167D01*
X149238833Y-6617011D01*
X149303635Y-6520027D01*
X149450027Y-6373635D01*
X149622165Y-6258616D01*
X149622167Y-6258615D01*
X149813436Y-6179389D01*
X150016484Y-6139000D01*
X150223516Y-6139000D01*
X150426564Y-6179389D01*
X150426564Y-6179389D01*
G37*
G36*
X135186564Y-6179389D02*
G01*
X135377833Y-6258615D01*
X135377835Y-6258616D01*
X135549973Y-6373635D01*
X135696365Y-6520027D01*
X135761168Y-6617011D01*
X135811385Y-6692167D01*
X135890611Y-6883436D01*
X135931000Y-7086484D01*
X135931000Y-7293516D01*
X135890611Y-7496564D01*
X135831167Y-7640074D01*
X135811384Y-7687835D01*
X135696365Y-7859973D01*
X135549973Y-8006365D01*
X135377835Y-8121384D01*
X135377834Y-8121385D01*
X135377833Y-8121385D01*
X135186564Y-8200611D01*
X134983516Y-8241000D01*
X134776484Y-8241000D01*
X134573436Y-8200611D01*
X134382167Y-8121385D01*
X134382166Y-8121385D01*
X134382165Y-8121384D01*
X134210027Y-8006365D01*
X134063635Y-7859973D01*
X133948616Y-7687835D01*
X133928833Y-7640074D01*
X133869389Y-7496564D01*
X133829000Y-7293516D01*
X133829000Y-7086484D01*
X133869389Y-6883436D01*
X133948615Y-6692167D01*
X133998833Y-6617011D01*
X134063635Y-6520027D01*
X134210027Y-6373635D01*
X134382165Y-6258616D01*
X134382167Y-6258615D01*
X134573436Y-6179389D01*
X134776484Y-6139000D01*
X134983516Y-6139000D01*
X135186564Y-6179389D01*
X135186564Y-6179389D01*
G37*
G36*
X94189720Y-5082989D02*
G01*
X94344100Y-5113697D01*
X94626364Y-5230614D01*
X94880395Y-5400352D01*
X95096431Y-5616388D01*
X95266169Y-5870419D01*
X95383086Y-6152683D01*
X95442690Y-6452333D01*
X95442690Y-6757853D01*
X95383086Y-7057503D01*
X95266169Y-7339767D01*
X95096431Y-7593798D01*
X94880395Y-7809834D01*
X94626364Y-7979572D01*
X94344100Y-8096489D01*
X94218944Y-8121384D01*
X94044451Y-8156093D01*
X93738929Y-8156093D01*
X93564436Y-8121384D01*
X93439280Y-8096489D01*
X93157016Y-7979572D01*
X92902985Y-7809834D01*
X92686949Y-7593798D01*
X92517211Y-7339767D01*
X92400294Y-7057503D01*
X92340690Y-6757853D01*
X92340690Y-6452333D01*
X92400294Y-6152683D01*
X92517211Y-5870419D01*
X92686949Y-5616388D01*
X92902985Y-5400352D01*
X93157016Y-5230614D01*
X93439280Y-5113697D01*
X93593660Y-5082989D01*
X93738929Y-5054093D01*
X94044451Y-5054093D01*
X94189720Y-5082989D01*
X94189720Y-5082989D01*
G37*
G36*
X87324505Y-5054093D02*
G01*
X87504982Y-5089992D01*
X87787246Y-5206909D01*
X88041277Y-5376647D01*
X88257313Y-5592683D01*
X88427051Y-5846714D01*
X88543968Y-6128978D01*
X88556305Y-6191002D01*
X88591358Y-6367221D01*
X88603572Y-6428628D01*
X88603572Y-6734148D01*
X88543968Y-7033798D01*
X88427051Y-7316062D01*
X88257313Y-7570093D01*
X88041277Y-7786129D01*
X87787246Y-7955867D01*
X87504982Y-8072784D01*
X87385809Y-8096489D01*
X87205333Y-8132388D01*
X86899811Y-8132388D01*
X86719335Y-8096489D01*
X86600162Y-8072784D01*
X86317898Y-7955867D01*
X86063867Y-7786129D01*
X85847831Y-7570093D01*
X85678093Y-7316062D01*
X85561176Y-7033798D01*
X85501572Y-6734148D01*
X85501572Y-6428628D01*
X85513787Y-6367221D01*
X85548839Y-6191002D01*
X85561176Y-6128978D01*
X85678093Y-5846714D01*
X85847831Y-5592683D01*
X86063867Y-5376647D01*
X86317898Y-5206909D01*
X86600162Y-5089992D01*
X86780639Y-5054093D01*
X86899811Y-5030388D01*
X87205333Y-5030388D01*
X87324505Y-5054093D01*
X87324505Y-5054093D01*
G37*
G36*
X142610443Y-6225519D02*
G01*
X142676627Y-6232037D01*
X142846466Y-6283557D01*
X143002991Y-6367222D01*
X143010805Y-6373635D01*
X143140186Y-6479814D01*
X143203855Y-6557396D01*
X143252778Y-6617009D01*
X143336443Y-6773534D01*
X143387963Y-6943373D01*
X143405359Y-7120000D01*
X143387963Y-7296627D01*
X143336443Y-7466466D01*
X143252778Y-7622991D01*
X143225699Y-7655987D01*
X143140186Y-7760186D01*
X143038729Y-7843448D01*
X143002991Y-7872778D01*
X142846466Y-7956443D01*
X142676627Y-8007963D01*
X142610442Y-8014482D01*
X142544260Y-8021000D01*
X142455740Y-8021000D01*
X142389558Y-8014482D01*
X142323373Y-8007963D01*
X142153534Y-7956443D01*
X141997009Y-7872778D01*
X141961271Y-7843448D01*
X141859814Y-7760186D01*
X141774301Y-7655987D01*
X141747222Y-7622991D01*
X141663557Y-7466466D01*
X141612037Y-7296627D01*
X141594641Y-7120000D01*
X141612037Y-6943373D01*
X141663557Y-6773534D01*
X141747222Y-6617009D01*
X141796145Y-6557396D01*
X141859814Y-6479814D01*
X141989195Y-6373635D01*
X141997009Y-6367222D01*
X142153534Y-6283557D01*
X142323373Y-6232037D01*
X142389557Y-6225519D01*
X142455740Y-6219000D01*
X142544260Y-6219000D01*
X142610443Y-6225519D01*
X142610443Y-6225519D01*
G37*
G36*
X196136582Y-3178408D02*
G01*
X196286407Y-3208210D01*
X196568671Y-3325127D01*
X196822702Y-3494865D01*
X197038738Y-3710901D01*
X197208476Y-3964932D01*
X197319733Y-4233532D01*
X197325393Y-4247197D01*
X197384926Y-4546486D01*
X197384997Y-4546846D01*
X197384997Y-4852366D01*
X197325393Y-5152016D01*
X197208476Y-5434280D01*
X197038738Y-5688311D01*
X196822702Y-5904347D01*
X196568671Y-6074085D01*
X196286407Y-6191002D01*
X196145651Y-6219000D01*
X195986758Y-6250606D01*
X195681236Y-6250606D01*
X195522343Y-6219000D01*
X195381587Y-6191002D01*
X195099323Y-6074085D01*
X194845292Y-5904347D01*
X194629256Y-5688311D01*
X194459518Y-5434280D01*
X194342601Y-5152016D01*
X194282997Y-4852366D01*
X194282997Y-4546846D01*
X194283069Y-4546486D01*
X194342601Y-4247197D01*
X194348261Y-4233532D01*
X194459518Y-3964932D01*
X194629256Y-3710901D01*
X194845292Y-3494865D01*
X195099323Y-3325127D01*
X195381587Y-3208210D01*
X195531412Y-3178408D01*
X195681236Y-3148606D01*
X195986758Y-3148606D01*
X196136582Y-3178408D01*
X196136582Y-3178408D01*
G37*
G36*
X150426564Y-3639389D02*
G01*
X150599212Y-3710902D01*
X150617835Y-3718616D01*
X150789973Y-3833635D01*
X150936365Y-3980027D01*
X151001168Y-4077011D01*
X151051385Y-4152167D01*
X151130611Y-4343436D01*
X151171000Y-4546484D01*
X151171000Y-4753516D01*
X151130611Y-4956564D01*
X151051385Y-5147833D01*
X151051384Y-5147835D01*
X150936365Y-5319973D01*
X150789973Y-5466365D01*
X150617835Y-5581384D01*
X150617834Y-5581385D01*
X150617833Y-5581385D01*
X150426564Y-5660611D01*
X150223516Y-5701000D01*
X150016484Y-5701000D01*
X149813436Y-5660611D01*
X149622167Y-5581385D01*
X149622166Y-5581385D01*
X149622165Y-5581384D01*
X149450027Y-5466365D01*
X149303635Y-5319973D01*
X149188616Y-5147835D01*
X149188615Y-5147833D01*
X149109389Y-4956564D01*
X149069000Y-4753516D01*
X149069000Y-4546484D01*
X149109389Y-4343436D01*
X149188615Y-4152167D01*
X149238833Y-4077011D01*
X149303635Y-3980027D01*
X149450027Y-3833635D01*
X149622165Y-3718616D01*
X149640788Y-3710902D01*
X149813436Y-3639389D01*
X150016484Y-3599000D01*
X150223516Y-3599000D01*
X150426564Y-3639389D01*
X150426564Y-3639389D01*
G37*
G36*
X135186564Y-3639389D02*
G01*
X135359212Y-3710902D01*
X135377835Y-3718616D01*
X135549973Y-3833635D01*
X135696365Y-3980027D01*
X135761168Y-4077011D01*
X135811385Y-4152167D01*
X135890611Y-4343436D01*
X135931000Y-4546484D01*
X135931000Y-4753516D01*
X135890611Y-4956564D01*
X135811385Y-5147833D01*
X135811384Y-5147835D01*
X135696365Y-5319973D01*
X135549973Y-5466365D01*
X135377835Y-5581384D01*
X135377834Y-5581385D01*
X135377833Y-5581385D01*
X135186564Y-5660611D01*
X134983516Y-5701000D01*
X134776484Y-5701000D01*
X134573436Y-5660611D01*
X134382167Y-5581385D01*
X134382166Y-5581385D01*
X134382165Y-5581384D01*
X134210027Y-5466365D01*
X134063635Y-5319973D01*
X133948616Y-5147835D01*
X133948615Y-5147833D01*
X133869389Y-4956564D01*
X133829000Y-4753516D01*
X133829000Y-4546484D01*
X133869389Y-4343436D01*
X133948615Y-4152167D01*
X133998833Y-4077011D01*
X134063635Y-3980027D01*
X134210027Y-3833635D01*
X134382165Y-3718616D01*
X134400788Y-3710902D01*
X134573436Y-3639389D01*
X134776484Y-3599000D01*
X134983516Y-3599000D01*
X135186564Y-3639389D01*
X135186564Y-3639389D01*
G37*
G36*
X142610442Y-3685518D02*
G01*
X142676627Y-3692037D01*
X142846466Y-3743557D01*
X143002991Y-3827222D01*
X143010805Y-3833635D01*
X143140186Y-3939814D01*
X143223448Y-4041271D01*
X143252778Y-4077009D01*
X143336443Y-4233534D01*
X143387963Y-4403373D01*
X143405359Y-4580000D01*
X143387963Y-4756627D01*
X143336443Y-4926466D01*
X143252778Y-5082991D01*
X143247032Y-5089992D01*
X143140186Y-5220186D01*
X143038729Y-5303448D01*
X143002991Y-5332778D01*
X142846466Y-5416443D01*
X142676627Y-5467963D01*
X142610443Y-5474481D01*
X142544260Y-5481000D01*
X142455740Y-5481000D01*
X142389557Y-5474481D01*
X142323373Y-5467963D01*
X142153534Y-5416443D01*
X141997009Y-5332778D01*
X141961271Y-5303448D01*
X141859814Y-5220186D01*
X141752968Y-5089992D01*
X141747222Y-5082991D01*
X141663557Y-4926466D01*
X141612037Y-4756627D01*
X141594641Y-4580000D01*
X141612037Y-4403373D01*
X141663557Y-4233534D01*
X141747222Y-4077009D01*
X141776552Y-4041271D01*
X141859814Y-3939814D01*
X141989195Y-3833635D01*
X141997009Y-3827222D01*
X142153534Y-3743557D01*
X142323373Y-3692037D01*
X142389557Y-3685519D01*
X142455740Y-3679000D01*
X142544260Y-3679000D01*
X142610442Y-3685518D01*
X142610442Y-3685518D01*
G37*
G36*
X135186564Y-1099389D02*
G01*
X135321236Y-1155172D01*
X135377835Y-1178616D01*
X135549973Y-1293635D01*
X135696365Y-1440027D01*
X135761168Y-1537011D01*
X135811385Y-1612167D01*
X135890611Y-1803436D01*
X135931000Y-2006484D01*
X135931000Y-2213516D01*
X135890611Y-2416564D01*
X135838244Y-2542989D01*
X135811384Y-2607835D01*
X135696365Y-2779973D01*
X135549973Y-2926365D01*
X135377835Y-3041384D01*
X135377834Y-3041385D01*
X135377833Y-3041385D01*
X135186564Y-3120611D01*
X134983516Y-3161000D01*
X134776484Y-3161000D01*
X134573436Y-3120611D01*
X134382167Y-3041385D01*
X134382166Y-3041385D01*
X134382165Y-3041384D01*
X134210027Y-2926365D01*
X134063635Y-2779973D01*
X133948616Y-2607835D01*
X133921756Y-2542989D01*
X133869389Y-2416564D01*
X133829000Y-2213516D01*
X133829000Y-2006484D01*
X133869389Y-1803436D01*
X133948615Y-1612167D01*
X133998833Y-1537011D01*
X134063635Y-1440027D01*
X134210027Y-1293635D01*
X134382165Y-1178616D01*
X134438764Y-1155172D01*
X134573436Y-1099389D01*
X134776484Y-1059000D01*
X134983516Y-1059000D01*
X135186564Y-1099389D01*
X135186564Y-1099389D01*
G37*
G36*
X150426564Y-1099389D02*
G01*
X150561236Y-1155172D01*
X150617835Y-1178616D01*
X150789973Y-1293635D01*
X150936365Y-1440027D01*
X151001168Y-1537011D01*
X151051385Y-1612167D01*
X151130611Y-1803436D01*
X151171000Y-2006484D01*
X151171000Y-2213516D01*
X151130611Y-2416564D01*
X151078244Y-2542989D01*
X151051384Y-2607835D01*
X150936365Y-2779973D01*
X150789973Y-2926365D01*
X150617835Y-3041384D01*
X150617834Y-3041385D01*
X150617833Y-3041385D01*
X150426564Y-3120611D01*
X150223516Y-3161000D01*
X150016484Y-3161000D01*
X149813436Y-3120611D01*
X149622167Y-3041385D01*
X149622166Y-3041385D01*
X149622165Y-3041384D01*
X149450027Y-2926365D01*
X149303635Y-2779973D01*
X149188616Y-2607835D01*
X149161756Y-2542989D01*
X149109389Y-2416564D01*
X149069000Y-2213516D01*
X149069000Y-2006484D01*
X149109389Y-1803436D01*
X149188615Y-1612167D01*
X149238833Y-1537011D01*
X149303635Y-1440027D01*
X149450027Y-1293635D01*
X149622165Y-1178616D01*
X149678764Y-1155172D01*
X149813436Y-1099389D01*
X150016484Y-1059000D01*
X150223516Y-1059000D01*
X150426564Y-1099389D01*
X150426564Y-1099389D01*
G37*
G36*
X95292503Y-1432173D02*
G01*
X94617462Y-3102960D01*
X92946675Y-2427919D01*
X93621716Y-757132D01*
X95292503Y-1432173D01*
X95292503Y-1432173D01*
G37*
G36*
X192068919Y-2425434D02*
G01*
X190398132Y-3100475D01*
X189723091Y-1429688D01*
X191393878Y-754647D01*
X192068919Y-2425434D01*
X192068919Y-2425434D01*
G37*
G36*
X142610442Y-1145518D02*
G01*
X142676627Y-1152037D01*
X142846466Y-1203557D01*
X143002991Y-1287222D01*
X143010805Y-1293635D01*
X143140186Y-1399814D01*
X143223448Y-1501271D01*
X143252778Y-1537009D01*
X143336443Y-1693534D01*
X143387963Y-1863373D01*
X143405359Y-2040000D01*
X143387963Y-2216627D01*
X143336443Y-2386466D01*
X143252778Y-2542991D01*
X143223448Y-2578729D01*
X143140186Y-2680186D01*
X143038729Y-2763448D01*
X143002991Y-2792778D01*
X142846466Y-2876443D01*
X142676627Y-2927963D01*
X142610442Y-2934482D01*
X142544260Y-2941000D01*
X142455740Y-2941000D01*
X142389557Y-2934481D01*
X142323373Y-2927963D01*
X142153534Y-2876443D01*
X141997009Y-2792778D01*
X141961271Y-2763448D01*
X141859814Y-2680186D01*
X141776552Y-2578729D01*
X141747222Y-2542991D01*
X141663557Y-2386466D01*
X141612037Y-2216627D01*
X141594641Y-2040000D01*
X141612037Y-1863373D01*
X141663557Y-1693534D01*
X141747222Y-1537009D01*
X141776552Y-1501271D01*
X141859814Y-1399814D01*
X141989195Y-1293635D01*
X141997009Y-1287222D01*
X142153534Y-1203557D01*
X142323373Y-1152037D01*
X142389557Y-1145519D01*
X142455740Y-1139000D01*
X142544260Y-1139000D01*
X142610442Y-1145518D01*
X142610442Y-1145518D01*
G37*
G36*
X91874985Y-84064D02*
G01*
X91941169Y-90582D01*
X92111008Y-142102D01*
X92267533Y-225767D01*
X92284843Y-239973D01*
X92404728Y-338359D01*
X92456135Y-401000D01*
X92517320Y-475554D01*
X92600985Y-632079D01*
X92652505Y-801918D01*
X92669901Y-978545D01*
X92652505Y-1155172D01*
X92600985Y-1325011D01*
X92517320Y-1481536D01*
X92487990Y-1517274D01*
X92404728Y-1618731D01*
X92313581Y-1693532D01*
X92267533Y-1731323D01*
X92111008Y-1814988D01*
X91941169Y-1866508D01*
X91874984Y-1873027D01*
X91808802Y-1879545D01*
X91720282Y-1879545D01*
X91654100Y-1873027D01*
X91587915Y-1866508D01*
X91418076Y-1814988D01*
X91261551Y-1731323D01*
X91215503Y-1693532D01*
X91124356Y-1618731D01*
X91041094Y-1517274D01*
X91011764Y-1481536D01*
X90928099Y-1325011D01*
X90876579Y-1155172D01*
X90859183Y-978545D01*
X90876579Y-801918D01*
X90928099Y-632079D01*
X91011764Y-475554D01*
X91072949Y-401000D01*
X91124356Y-338359D01*
X91244241Y-239973D01*
X91261551Y-225767D01*
X91418076Y-142102D01*
X91587915Y-90582D01*
X91654099Y-84064D01*
X91720282Y-77545D01*
X91808802Y-77545D01*
X91874985Y-84064D01*
X91874985Y-84064D01*
G37*
G36*
X193361494Y-81578D02*
G01*
X193427679Y-88097D01*
X193597518Y-139617D01*
X193754043Y-223282D01*
X193774381Y-239973D01*
X193891238Y-335874D01*
X193974500Y-437331D01*
X194003830Y-473069D01*
X194087495Y-629594D01*
X194139015Y-799433D01*
X194156411Y-976060D01*
X194139015Y-1152687D01*
X194087495Y-1322526D01*
X194003830Y-1479051D01*
X193974500Y-1514789D01*
X193891238Y-1616246D01*
X193797063Y-1693532D01*
X193754043Y-1728838D01*
X193597518Y-1812503D01*
X193427679Y-1864023D01*
X193361494Y-1870542D01*
X193295312Y-1877060D01*
X193206792Y-1877060D01*
X193140610Y-1870542D01*
X193074425Y-1864023D01*
X192904586Y-1812503D01*
X192748061Y-1728838D01*
X192705041Y-1693532D01*
X192610866Y-1616246D01*
X192527604Y-1514789D01*
X192498274Y-1479051D01*
X192414609Y-1322526D01*
X192363089Y-1152687D01*
X192345693Y-976060D01*
X192363089Y-799433D01*
X192414609Y-629594D01*
X192498274Y-473069D01*
X192527604Y-437331D01*
X192610866Y-335874D01*
X192727723Y-239973D01*
X192748061Y-223282D01*
X192904586Y-139617D01*
X193074425Y-88097D01*
X193140610Y-81578D01*
X193206792Y-75060D01*
X193295312Y-75060D01*
X193361494Y-81578D01*
X193361494Y-81578D01*
G37*
G36*
X89519938Y867436D02*
G01*
X89586122Y860918D01*
X89755961Y809398D01*
X89912486Y725733D01*
X89948224Y696403D01*
X90049681Y613141D01*
X90115028Y533514D01*
X90162273Y475946D01*
X90245938Y319421D01*
X90297458Y149582D01*
X90314854Y-27045D01*
X90297458Y-203672D01*
X90245938Y-373511D01*
X90162273Y-530036D01*
X90132943Y-565774D01*
X90049681Y-667231D01*
X89948224Y-750493D01*
X89912486Y-779823D01*
X89755961Y-863488D01*
X89586122Y-915008D01*
X89519937Y-921527D01*
X89453755Y-928045D01*
X89365235Y-928045D01*
X89299053Y-921527D01*
X89232868Y-915008D01*
X89063029Y-863488D01*
X88906504Y-779823D01*
X88870766Y-750493D01*
X88769309Y-667231D01*
X88686047Y-565774D01*
X88656717Y-530036D01*
X88573052Y-373511D01*
X88521532Y-203672D01*
X88504136Y-27045D01*
X88521532Y149582D01*
X88573052Y319421D01*
X88656717Y475946D01*
X88703962Y533514D01*
X88769309Y613141D01*
X88870766Y696403D01*
X88906504Y725733D01*
X89063029Y809398D01*
X89232868Y860918D01*
X89299052Y867436D01*
X89365235Y873955D01*
X89453755Y873955D01*
X89519938Y867436D01*
X89519938Y867436D01*
G37*
G36*
X195716541Y869922D02*
G01*
X195782726Y863403D01*
X195952565Y811883D01*
X196109090Y728218D01*
X196144828Y698888D01*
X196246285Y615626D01*
X196329547Y514169D01*
X196358877Y478431D01*
X196442542Y321906D01*
X196494062Y152067D01*
X196511458Y-24560D01*
X196494062Y-201187D01*
X196442542Y-371026D01*
X196358877Y-527551D01*
X196329547Y-563289D01*
X196246285Y-664746D01*
X196144828Y-748008D01*
X196109090Y-777338D01*
X195952565Y-861003D01*
X195782726Y-912523D01*
X195716541Y-919042D01*
X195650359Y-925560D01*
X195561839Y-925560D01*
X195495657Y-919042D01*
X195429472Y-912523D01*
X195259633Y-861003D01*
X195103108Y-777338D01*
X195067370Y-748008D01*
X194965913Y-664746D01*
X194882651Y-563289D01*
X194853321Y-527551D01*
X194769656Y-371026D01*
X194718136Y-201187D01*
X194700740Y-24560D01*
X194718136Y152067D01*
X194769656Y321906D01*
X194853321Y478431D01*
X194882651Y514169D01*
X194965913Y615626D01*
X195067370Y698888D01*
X195103108Y728218D01*
X195259633Y811883D01*
X195429472Y863403D01*
X195495657Y869922D01*
X195561839Y876440D01*
X195650359Y876440D01*
X195716541Y869922D01*
X195716541Y869922D01*
G37*
G36*
X150426564Y1440611D02*
G01*
X150617833Y1361385D01*
X150617835Y1361384D01*
X150633787Y1350725D01*
X150789973Y1246365D01*
X150936365Y1099973D01*
X151051385Y927833D01*
X151130611Y736564D01*
X151171000Y533516D01*
X151171000Y326484D01*
X151130611Y123436D01*
X151115938Y88013D01*
X151051384Y-67835D01*
X150936365Y-239973D01*
X150789973Y-386365D01*
X150617835Y-501384D01*
X150617834Y-501385D01*
X150617833Y-501385D01*
X150426564Y-580611D01*
X150223516Y-621000D01*
X150016484Y-621000D01*
X149813436Y-580611D01*
X149622167Y-501385D01*
X149622166Y-501385D01*
X149622165Y-501384D01*
X149450027Y-386365D01*
X149303635Y-239973D01*
X149188616Y-67835D01*
X149124062Y88013D01*
X149109389Y123436D01*
X149069000Y326484D01*
X149069000Y533516D01*
X149109389Y736564D01*
X149188615Y927833D01*
X149303635Y1099973D01*
X149450027Y1246365D01*
X149606213Y1350725D01*
X149622165Y1361384D01*
X149622167Y1361385D01*
X149813436Y1440611D01*
X150016484Y1481000D01*
X150223516Y1481000D01*
X150426564Y1440611D01*
X150426564Y1440611D01*
G37*
G36*
X135186564Y1440611D02*
G01*
X135377833Y1361385D01*
X135377835Y1361384D01*
X135393787Y1350725D01*
X135549973Y1246365D01*
X135696365Y1099973D01*
X135811385Y927833D01*
X135890611Y736564D01*
X135931000Y533516D01*
X135931000Y326484D01*
X135890611Y123436D01*
X135875938Y88013D01*
X135811384Y-67835D01*
X135696365Y-239973D01*
X135549973Y-386365D01*
X135377835Y-501384D01*
X135377834Y-501385D01*
X135377833Y-501385D01*
X135186564Y-580611D01*
X134983516Y-621000D01*
X134776484Y-621000D01*
X134573436Y-580611D01*
X134382167Y-501385D01*
X134382166Y-501385D01*
X134382165Y-501384D01*
X134210027Y-386365D01*
X134063635Y-239973D01*
X133948616Y-67835D01*
X133884062Y88013D01*
X133869389Y123436D01*
X133829000Y326484D01*
X133829000Y533516D01*
X133869389Y736564D01*
X133948615Y927833D01*
X134063635Y1099973D01*
X134210027Y1246365D01*
X134366213Y1350725D01*
X134382165Y1361384D01*
X134382167Y1361385D01*
X134573436Y1440611D01*
X134776484Y1481000D01*
X134983516Y1481000D01*
X135186564Y1440611D01*
X135186564Y1440611D01*
G37*
G36*
X143401000Y-401000D02*
G01*
X141599000Y-401000D01*
X141599000Y1401000D01*
X143401000Y1401000D01*
X143401000Y-401000D01*
X143401000Y-401000D01*
G37*
G36*
X87164890Y1818938D02*
G01*
X87231075Y1812419D01*
X87400914Y1760899D01*
X87557439Y1677234D01*
X87565142Y1670912D01*
X87694634Y1564642D01*
X87763276Y1481000D01*
X87807226Y1427447D01*
X87890891Y1270922D01*
X87942411Y1101083D01*
X87959807Y924456D01*
X87942411Y747829D01*
X87890891Y577990D01*
X87807226Y421465D01*
X87777896Y385727D01*
X87694634Y284270D01*
X87593177Y201008D01*
X87557439Y171678D01*
X87400914Y88013D01*
X87231075Y36493D01*
X87164891Y29975D01*
X87098708Y23456D01*
X87010188Y23456D01*
X86944005Y29975D01*
X86877821Y36493D01*
X86707982Y88013D01*
X86551457Y171678D01*
X86515719Y201008D01*
X86414262Y284270D01*
X86331000Y385727D01*
X86301670Y421465D01*
X86218005Y577990D01*
X86166485Y747829D01*
X86149089Y924456D01*
X86166485Y1101083D01*
X86218005Y1270922D01*
X86301670Y1427447D01*
X86345620Y1481000D01*
X86414262Y1564642D01*
X86543754Y1670912D01*
X86551457Y1677234D01*
X86707982Y1760899D01*
X86877821Y1812419D01*
X86944006Y1818938D01*
X87010188Y1825456D01*
X87098708Y1825456D01*
X87164890Y1818938D01*
X87164890Y1818938D01*
G37*
G36*
X198071589Y1821422D02*
G01*
X198137773Y1814904D01*
X198307612Y1763384D01*
X198464137Y1679719D01*
X198471840Y1673397D01*
X198601332Y1567127D01*
X198684594Y1465670D01*
X198713924Y1429932D01*
X198797589Y1273407D01*
X198849109Y1103568D01*
X198866505Y926941D01*
X198849109Y750314D01*
X198797589Y580475D01*
X198713924Y423950D01*
X198684594Y388212D01*
X198601332Y286755D01*
X198499875Y203493D01*
X198464137Y174163D01*
X198307612Y90498D01*
X198137773Y38978D01*
X198071589Y32460D01*
X198005406Y25941D01*
X197916886Y25941D01*
X197850703Y32460D01*
X197784519Y38978D01*
X197614680Y90498D01*
X197458155Y174163D01*
X197422417Y203493D01*
X197320960Y286755D01*
X197237698Y388212D01*
X197208368Y423950D01*
X197124703Y580475D01*
X197073183Y750314D01*
X197055787Y926941D01*
X197073183Y1103568D01*
X197124703Y1273407D01*
X197208368Y1429932D01*
X197237698Y1465670D01*
X197320960Y1567127D01*
X197450452Y1673397D01*
X197458155Y1679719D01*
X197614680Y1763384D01*
X197784519Y1814904D01*
X197850703Y1821422D01*
X197916886Y1827941D01*
X198005406Y1827941D01*
X198071589Y1821422D01*
X198071589Y1821422D01*
G37*
G36*
X120846285Y2831431D02*
G01*
X121014807Y2761627D01*
X121166472Y2660288D01*
X121295453Y2531307D01*
X121396792Y2379642D01*
X121466596Y2211120D01*
X121502181Y2032219D01*
X121502181Y1849813D01*
X121466596Y1670912D01*
X121396792Y1502390D01*
X121295453Y1350725D01*
X121166472Y1221744D01*
X121014807Y1120405D01*
X120846285Y1050601D01*
X120667384Y1015016D01*
X120484978Y1015016D01*
X120306077Y1050601D01*
X120137555Y1120405D01*
X119985890Y1221744D01*
X119856909Y1350725D01*
X119755570Y1502390D01*
X119685766Y1670912D01*
X119650181Y1849813D01*
X119650181Y2032219D01*
X119685766Y2211120D01*
X119755570Y2379642D01*
X119856909Y2531307D01*
X119985890Y2660288D01*
X120137555Y2761627D01*
X120306077Y2831431D01*
X120484978Y2867016D01*
X120667384Y2867016D01*
X120846285Y2831431D01*
X120846285Y2831431D01*
G37*
G36*
X164709517Y2833916D02*
G01*
X164878039Y2764112D01*
X165029704Y2662773D01*
X165158685Y2533792D01*
X165260024Y2382127D01*
X165329828Y2213605D01*
X165365413Y2034704D01*
X165365413Y1852298D01*
X165329828Y1673397D01*
X165260024Y1504875D01*
X165158685Y1353210D01*
X165029704Y1224229D01*
X164878039Y1122890D01*
X164709517Y1053086D01*
X164530616Y1017501D01*
X164348210Y1017501D01*
X164169309Y1053086D01*
X164000787Y1122890D01*
X163849122Y1224229D01*
X163720141Y1353210D01*
X163618802Y1504875D01*
X163548998Y1673397D01*
X163513413Y1852298D01*
X163513413Y2034704D01*
X163548998Y2213605D01*
X163618802Y2382127D01*
X163720141Y2533792D01*
X163849122Y2662773D01*
X164000787Y2764112D01*
X164169309Y2833916D01*
X164348210Y2869501D01*
X164530616Y2869501D01*
X164709517Y2833916D01*
X164709517Y2833916D01*
G37*
G36*
X116462561Y5810333D02*
G01*
X116680561Y5720034D01*
X116834710Y5656184D01*
X117169635Y5432394D01*
X117454464Y5147565D01*
X117678254Y4812640D01*
X117700259Y4759515D01*
X117832403Y4440491D01*
X117910987Y4045423D01*
X117910987Y3642611D01*
X117832403Y3247543D01*
X117760318Y3073514D01*
X117678254Y2875394D01*
X117454464Y2540469D01*
X117169635Y2255640D01*
X116834710Y2031850D01*
X116680561Y1968000D01*
X116462561Y1877701D01*
X116067493Y1799117D01*
X115664681Y1799117D01*
X115269613Y1877701D01*
X115051613Y1968000D01*
X114897464Y2031850D01*
X114562539Y2255640D01*
X114277710Y2540469D01*
X114053920Y2875394D01*
X113971856Y3073514D01*
X113899771Y3247543D01*
X113821187Y3642611D01*
X113821187Y4045423D01*
X113899771Y4440491D01*
X114031915Y4759515D01*
X114053920Y4812640D01*
X114277710Y5147565D01*
X114562539Y5432394D01*
X114897464Y5656184D01*
X115051613Y5720034D01*
X115269613Y5810333D01*
X115664681Y5888917D01*
X116067493Y5888917D01*
X116462561Y5810333D01*
X116462561Y5810333D01*
G37*
G36*
X169745981Y5812818D02*
G01*
X169866247Y5763002D01*
X170118130Y5658669D01*
X170453055Y5434879D01*
X170737884Y5150050D01*
X170961674Y4815125D01*
X170983679Y4762000D01*
X171115823Y4442976D01*
X171194407Y4047908D01*
X171194407Y3645096D01*
X171115823Y3250028D01*
X171114793Y3247542D01*
X170961674Y2877879D01*
X170737884Y2542954D01*
X170453055Y2258125D01*
X170118130Y2034335D01*
X169963981Y1970485D01*
X169745981Y1880186D01*
X169350913Y1801602D01*
X168948101Y1801602D01*
X168553033Y1880186D01*
X168335033Y1970485D01*
X168180884Y2034335D01*
X167845959Y2258125D01*
X167561130Y2542954D01*
X167337340Y2877879D01*
X167184221Y3247542D01*
X167183191Y3250028D01*
X167104607Y3645096D01*
X167104607Y4047908D01*
X167183191Y4442976D01*
X167315335Y4762000D01*
X167337340Y4815125D01*
X167561130Y5150050D01*
X167845959Y5434879D01*
X168180884Y5658669D01*
X168432767Y5763002D01*
X168553033Y5812818D01*
X168948101Y5891402D01*
X169350913Y5891402D01*
X169745981Y5812818D01*
X169745981Y5812818D01*
G37*
G36*
X150426564Y3980611D02*
G01*
X150617833Y3901385D01*
X150617835Y3901384D01*
X150789973Y3786365D01*
X150936365Y3639973D01*
X151051385Y3467833D01*
X151130611Y3276564D01*
X151171000Y3073516D01*
X151171000Y2866484D01*
X151130611Y2663436D01*
X151075881Y2531306D01*
X151051384Y2472165D01*
X150936365Y2300027D01*
X150789973Y2153635D01*
X150617835Y2038616D01*
X150617834Y2038615D01*
X150617833Y2038615D01*
X150426564Y1959389D01*
X150223516Y1919000D01*
X150016484Y1919000D01*
X149813436Y1959389D01*
X149622167Y2038615D01*
X149622166Y2038615D01*
X149622165Y2038616D01*
X149450027Y2153635D01*
X149303635Y2300027D01*
X149188616Y2472165D01*
X149164119Y2531306D01*
X149109389Y2663436D01*
X149069000Y2866484D01*
X149069000Y3073516D01*
X149109389Y3276564D01*
X149188615Y3467833D01*
X149303635Y3639973D01*
X149450027Y3786365D01*
X149622165Y3901384D01*
X149622167Y3901385D01*
X149813436Y3980611D01*
X150016484Y4021000D01*
X150223516Y4021000D01*
X150426564Y3980611D01*
X150426564Y3980611D01*
G37*
G36*
X135931000Y1919000D02*
G01*
X133829000Y1919000D01*
X133829000Y4021000D01*
X135931000Y4021000D01*
X135931000Y1919000D01*
X135931000Y1919000D01*
G37*
G36*
X164968021Y6295496D02*
G01*
X165117846Y6265694D01*
X165400110Y6148777D01*
X165654141Y5979039D01*
X165870177Y5763003D01*
X166039915Y5508972D01*
X166156832Y5226708D01*
X166170258Y5159212D01*
X166195914Y5030232D01*
X166216436Y4927058D01*
X166216436Y4621538D01*
X166156832Y4321888D01*
X166039915Y4039624D01*
X165870177Y3785593D01*
X165654141Y3569557D01*
X165400110Y3399819D01*
X165117846Y3282902D01*
X164968021Y3253100D01*
X164818197Y3223298D01*
X164512675Y3223298D01*
X164362851Y3253100D01*
X164213026Y3282902D01*
X163930762Y3399819D01*
X163676731Y3569557D01*
X163460695Y3785593D01*
X163290957Y4039624D01*
X163174040Y4321888D01*
X163114436Y4621538D01*
X163114436Y4927058D01*
X163134959Y5030232D01*
X163160614Y5159212D01*
X163174040Y5226708D01*
X163290957Y5508972D01*
X163460695Y5763003D01*
X163676731Y5979039D01*
X163930762Y6148777D01*
X164213026Y6265694D01*
X164362851Y6295496D01*
X164512675Y6325298D01*
X164818197Y6325298D01*
X164968021Y6295496D01*
X164968021Y6295496D01*
G37*
G36*
X101731365Y6240221D02*
G01*
X101899887Y6170417D01*
X102051552Y6069078D01*
X102180533Y5940097D01*
X102281872Y5788432D01*
X102351676Y5619910D01*
X102387261Y5441009D01*
X102387261Y5258603D01*
X102351676Y5079702D01*
X102281872Y4911180D01*
X102180533Y4759515D01*
X102051552Y4630534D01*
X101899887Y4529195D01*
X101731365Y4459391D01*
X101552464Y4423806D01*
X101370058Y4423806D01*
X101191157Y4459391D01*
X101022635Y4529195D01*
X100870970Y4630534D01*
X100741989Y4759515D01*
X100640650Y4911180D01*
X100570846Y5079702D01*
X100535261Y5258603D01*
X100535261Y5441009D01*
X100570846Y5619910D01*
X100640650Y5788432D01*
X100741989Y5940097D01*
X100870970Y6069078D01*
X101022635Y6170417D01*
X101191157Y6240221D01*
X101370058Y6275806D01*
X101552464Y6275806D01*
X101731365Y6240221D01*
X101731365Y6240221D01*
G37*
G36*
X183824436Y6242706D02*
G01*
X183992958Y6172902D01*
X184144623Y6071563D01*
X184273604Y5942582D01*
X184374943Y5790917D01*
X184444747Y5622395D01*
X184480332Y5443494D01*
X184480332Y5261088D01*
X184444747Y5082187D01*
X184374943Y4913665D01*
X184273604Y4762000D01*
X184144623Y4633019D01*
X183992958Y4531680D01*
X183824436Y4461876D01*
X183645535Y4426291D01*
X183463129Y4426291D01*
X183284228Y4461876D01*
X183115706Y4531680D01*
X182964041Y4633019D01*
X182835060Y4762000D01*
X182733721Y4913665D01*
X182663917Y5082187D01*
X182628332Y5261088D01*
X182628332Y5443494D01*
X182663917Y5622395D01*
X182733721Y5790917D01*
X182835060Y5942582D01*
X182964041Y6071563D01*
X183115706Y6172902D01*
X183284228Y6242706D01*
X183463129Y6278291D01*
X183645535Y6278291D01*
X183824436Y6242706D01*
X183824436Y6242706D01*
G37*
G36*
X111426097Y6637433D02*
G01*
X111594619Y6567629D01*
X111746284Y6466290D01*
X111875265Y6337309D01*
X111976604Y6185644D01*
X112046408Y6017122D01*
X112081993Y5838221D01*
X112081993Y5655815D01*
X112046408Y5476914D01*
X111976604Y5308392D01*
X111875265Y5156727D01*
X111746284Y5027746D01*
X111594619Y4926407D01*
X111426097Y4856603D01*
X111247196Y4821018D01*
X111064790Y4821018D01*
X110885889Y4856603D01*
X110717367Y4926407D01*
X110565702Y5027746D01*
X110436721Y5156727D01*
X110335382Y5308392D01*
X110265578Y5476914D01*
X110229993Y5655815D01*
X110229993Y5838221D01*
X110265578Y6017122D01*
X110335382Y6185644D01*
X110436721Y6337309D01*
X110565702Y6466290D01*
X110717367Y6567629D01*
X110885889Y6637433D01*
X111064790Y6673018D01*
X111247196Y6673018D01*
X111426097Y6637433D01*
X111426097Y6637433D01*
G37*
G36*
X174129705Y6639918D02*
G01*
X174298227Y6570114D01*
X174449892Y6468775D01*
X174578873Y6339794D01*
X174680212Y6188129D01*
X174750016Y6019607D01*
X174785601Y5840706D01*
X174785601Y5658300D01*
X174750016Y5479399D01*
X174680212Y5310877D01*
X174578873Y5159212D01*
X174449892Y5030231D01*
X174298227Y4928892D01*
X174129705Y4859088D01*
X173950804Y4823503D01*
X173768398Y4823503D01*
X173589497Y4859088D01*
X173420975Y4928892D01*
X173269310Y5030231D01*
X173140329Y5159212D01*
X173038990Y5310877D01*
X172969186Y5479399D01*
X172933601Y5658300D01*
X172933601Y5840706D01*
X172969186Y6019607D01*
X173038990Y6188129D01*
X173140329Y6339794D01*
X173269310Y6468775D01*
X173420975Y6570114D01*
X173589497Y6639918D01*
X173768398Y6675503D01*
X173950804Y6675503D01*
X174129705Y6639918D01*
X174129705Y6639918D01*
G37*
G36*
X97347641Y9219123D02*
G01*
X97505803Y9153610D01*
X97719790Y9064974D01*
X98054715Y8841184D01*
X98339544Y8556355D01*
X98563334Y8221430D01*
X98563334Y8221429D01*
X98717483Y7849281D01*
X98796067Y7454213D01*
X98796067Y7051401D01*
X98717483Y6656333D01*
X98639794Y6468775D01*
X98563334Y6284184D01*
X98339544Y5949259D01*
X98054715Y5664430D01*
X97719790Y5440640D01*
X97565641Y5376790D01*
X97347641Y5286491D01*
X96952573Y5207907D01*
X96549761Y5207907D01*
X96154693Y5286491D01*
X95936693Y5376790D01*
X95782544Y5440640D01*
X95447619Y5664430D01*
X95162790Y5949259D01*
X94939000Y6284184D01*
X94862540Y6468775D01*
X94784851Y6656333D01*
X94706267Y7051401D01*
X94706267Y7454213D01*
X94784851Y7849281D01*
X94939000Y8221429D01*
X94939000Y8221430D01*
X95162790Y8556355D01*
X95447619Y8841184D01*
X95782544Y9064974D01*
X95996531Y9153610D01*
X96154693Y9219123D01*
X96549761Y9297707D01*
X96952573Y9297707D01*
X97347641Y9219123D01*
X97347641Y9219123D01*
G37*
G36*
X188860900Y9221608D02*
G01*
X188981166Y9171792D01*
X189233049Y9067459D01*
X189567974Y8843669D01*
X189852803Y8558840D01*
X190076593Y8223915D01*
X190113995Y8133618D01*
X190230742Y7851766D01*
X190309326Y7456698D01*
X190309326Y7053886D01*
X190230742Y6658818D01*
X190192970Y6567629D01*
X190076593Y6286669D01*
X189852803Y5951744D01*
X189567974Y5666915D01*
X189233049Y5443125D01*
X189078900Y5379275D01*
X188860900Y5288976D01*
X188465832Y5210392D01*
X188063020Y5210392D01*
X187667952Y5288976D01*
X187449952Y5379275D01*
X187295803Y5443125D01*
X186960878Y5666915D01*
X186676049Y5951744D01*
X186452259Y6286669D01*
X186335882Y6567629D01*
X186298110Y6658818D01*
X186219526Y7053886D01*
X186219526Y7456698D01*
X186298110Y7851766D01*
X186414857Y8133618D01*
X186452259Y8223915D01*
X186676049Y8558840D01*
X186960878Y8843669D01*
X187295803Y9067459D01*
X187547686Y9171792D01*
X187667952Y9221608D01*
X188063020Y9300192D01*
X188465832Y9300192D01*
X188860900Y9221608D01*
X188860900Y9221608D01*
G37*
G36*
X120426720Y9123808D02*
G01*
X120576545Y9094006D01*
X120858809Y8977089D01*
X121112840Y8807351D01*
X121328876Y8591315D01*
X121498614Y8337284D01*
X121615531Y8055020D01*
X121620443Y8030327D01*
X121675135Y7755371D01*
X121675135Y7449849D01*
X121645333Y7300025D01*
X121615531Y7150200D01*
X121498614Y6867936D01*
X121328876Y6613905D01*
X121112840Y6397869D01*
X120858809Y6228131D01*
X120576545Y6111214D01*
X120426720Y6081412D01*
X120276896Y6051610D01*
X119971374Y6051610D01*
X119821550Y6081412D01*
X119671725Y6111214D01*
X119389461Y6228131D01*
X119135430Y6397869D01*
X118919394Y6613905D01*
X118749656Y6867936D01*
X118632739Y7150200D01*
X118602937Y7300025D01*
X118573135Y7449849D01*
X118573135Y7755371D01*
X118627827Y8030327D01*
X118632739Y8055020D01*
X118749656Y8337284D01*
X118919394Y8591315D01*
X119135430Y8807351D01*
X119389461Y8977089D01*
X119671725Y9094006D01*
X119821550Y9123808D01*
X119971374Y9153610D01*
X120276896Y9153610D01*
X120426720Y9123808D01*
X120426720Y9123808D01*
G37*
G36*
X113556950Y9153610D02*
G01*
X113737427Y9117711D01*
X114019691Y9000794D01*
X114273722Y8831056D01*
X114489758Y8615020D01*
X114659496Y8360989D01*
X114776413Y8078725D01*
X114776413Y8078724D01*
X114836017Y7779076D01*
X114836017Y7473554D01*
X114831302Y7449850D01*
X114776413Y7173905D01*
X114659496Y6891641D01*
X114489758Y6637610D01*
X114273722Y6421574D01*
X114019691Y6251836D01*
X113737427Y6134919D01*
X113618254Y6111214D01*
X113437778Y6075315D01*
X113132256Y6075315D01*
X112951780Y6111214D01*
X112832607Y6134919D01*
X112550343Y6251836D01*
X112296312Y6421574D01*
X112080276Y6637610D01*
X111910538Y6891641D01*
X111793621Y7173905D01*
X111738732Y7449850D01*
X111734017Y7473554D01*
X111734017Y7779076D01*
X111793621Y8078724D01*
X111793621Y8078725D01*
X111910538Y8360989D01*
X112080276Y8615020D01*
X112296312Y8831056D01*
X112550343Y9000794D01*
X112832607Y9117711D01*
X113013084Y9153610D01*
X113132256Y9177315D01*
X113437778Y9177315D01*
X113556950Y9153610D01*
X113556950Y9153610D01*
G37*
G36*
X184082940Y9704286D02*
G01*
X184232765Y9674484D01*
X184515029Y9557567D01*
X184769060Y9387829D01*
X184985096Y9171793D01*
X185154834Y8917762D01*
X185271751Y8635498D01*
X185285177Y8568002D01*
X185331355Y8335849D01*
X185331355Y8030327D01*
X185301553Y7880503D01*
X185271751Y7730678D01*
X185154834Y7448414D01*
X184985096Y7194383D01*
X184769060Y6978347D01*
X184515029Y6808609D01*
X184232765Y6691692D01*
X184151377Y6675503D01*
X183933116Y6632088D01*
X183627594Y6632088D01*
X183409333Y6675503D01*
X183327945Y6691692D01*
X183045681Y6808609D01*
X182791650Y6978347D01*
X182575614Y7194383D01*
X182405876Y7448414D01*
X182288959Y7730678D01*
X182259157Y7880503D01*
X182229355Y8030327D01*
X182229355Y8335849D01*
X182275533Y8568002D01*
X182288959Y8635498D01*
X182405876Y8917762D01*
X182575614Y9171793D01*
X182791650Y9387829D01*
X183045681Y9557567D01*
X183327945Y9674484D01*
X183477770Y9704286D01*
X183627594Y9734088D01*
X183933116Y9734088D01*
X184082940Y9704286D01*
X184082940Y9704286D01*
G37*
G36*
X169904137Y11029295D02*
G01*
X170053962Y10999493D01*
X170336226Y10882576D01*
X170590257Y10712838D01*
X170806293Y10496802D01*
X170976031Y10242771D01*
X171086357Y9976419D01*
X171092948Y9960506D01*
X171152552Y9660858D01*
X171152552Y9355336D01*
X171125457Y9219123D01*
X171092948Y9055687D01*
X170976031Y8773423D01*
X170806293Y8519392D01*
X170590257Y8303356D01*
X170336226Y8133618D01*
X170053962Y8016701D01*
X169904137Y7986899D01*
X169754313Y7957097D01*
X169448791Y7957097D01*
X169298967Y7986899D01*
X169149142Y8016701D01*
X168866878Y8133618D01*
X168612847Y8303356D01*
X168396811Y8519392D01*
X168227073Y8773423D01*
X168110156Y9055687D01*
X168077647Y9219123D01*
X168050552Y9355336D01*
X168050552Y9660858D01*
X168110156Y9960506D01*
X168116747Y9976419D01*
X168227073Y10242771D01*
X168396811Y10496802D01*
X168612847Y10712838D01*
X168866878Y10882576D01*
X169149142Y10999493D01*
X169298967Y11029295D01*
X169448791Y11059097D01*
X169754313Y11059097D01*
X169904137Y11029295D01*
X169904137Y11029295D01*
G37*
G36*
X92311177Y10046223D02*
G01*
X92479699Y9976419D01*
X92631364Y9875080D01*
X92760345Y9746099D01*
X92861684Y9594434D01*
X92931488Y9425912D01*
X92967073Y9247011D01*
X92967073Y9064605D01*
X92931488Y8885704D01*
X92861684Y8717182D01*
X92760345Y8565517D01*
X92631364Y8436536D01*
X92479699Y8335197D01*
X92311177Y8265393D01*
X92132276Y8229808D01*
X91949870Y8229808D01*
X91770969Y8265393D01*
X91602447Y8335197D01*
X91450782Y8436536D01*
X91321801Y8565517D01*
X91220462Y8717182D01*
X91150658Y8885704D01*
X91115073Y9064605D01*
X91115073Y9247011D01*
X91150658Y9425912D01*
X91220462Y9594434D01*
X91321801Y9746099D01*
X91450782Y9875080D01*
X91602447Y9976419D01*
X91770969Y10046223D01*
X91949870Y10081808D01*
X92132276Y10081808D01*
X92311177Y10046223D01*
X92311177Y10046223D01*
G37*
G36*
X193244624Y10048708D02*
G01*
X193413146Y9978904D01*
X193564811Y9877565D01*
X193693792Y9748584D01*
X193795131Y9596919D01*
X193864935Y9428397D01*
X193900520Y9249496D01*
X193900520Y9067090D01*
X193864935Y8888189D01*
X193795131Y8719667D01*
X193693792Y8568002D01*
X193564811Y8439021D01*
X193413146Y8337682D01*
X193244624Y8267878D01*
X193065723Y8232293D01*
X192883317Y8232293D01*
X192704416Y8267878D01*
X192535894Y8337682D01*
X192384229Y8439021D01*
X192255248Y8568002D01*
X192153909Y8719667D01*
X192084105Y8888189D01*
X192048520Y9067090D01*
X192048520Y9249496D01*
X192084105Y9428397D01*
X192153909Y9596919D01*
X192255248Y9748584D01*
X192384229Y9877565D01*
X192535894Y9978904D01*
X192704416Y10048708D01*
X192883317Y10084293D01*
X193065723Y10084293D01*
X193244624Y10048708D01*
X193244624Y10048708D01*
G37*
G36*
X101311800Y12532598D02*
G01*
X101461625Y12502796D01*
X101743889Y12385879D01*
X101997920Y12216141D01*
X102213956Y12000105D01*
X102383694Y11746074D01*
X102500611Y11463810D01*
X102560215Y11164160D01*
X102560215Y10858640D01*
X102500611Y10558990D01*
X102383694Y10276726D01*
X102213956Y10022695D01*
X101997920Y9806659D01*
X101743889Y9636921D01*
X101461625Y9520004D01*
X101311800Y9490202D01*
X101161976Y9460400D01*
X100856454Y9460400D01*
X100706630Y9490202D01*
X100556805Y9520004D01*
X100274541Y9636921D01*
X100020510Y9806659D01*
X99804474Y10022695D01*
X99634736Y10276726D01*
X99517819Y10558990D01*
X99458215Y10858640D01*
X99458215Y11164160D01*
X99517819Y11463810D01*
X99634736Y11746074D01*
X99804474Y12000105D01*
X100020510Y12216141D01*
X100274541Y12385879D01*
X100556805Y12502796D01*
X100706630Y12532598D01*
X100856454Y12562400D01*
X101161976Y12562400D01*
X101311800Y12532598D01*
X101311800Y12532598D01*
G37*
G36*
X94442030Y12562400D02*
G01*
X94622507Y12526501D01*
X94904771Y12409584D01*
X95158802Y12239846D01*
X95374838Y12023810D01*
X95544576Y11769779D01*
X95661493Y11487515D01*
X95721097Y11187865D01*
X95721097Y10882345D01*
X95661493Y10582695D01*
X95544576Y10300431D01*
X95374838Y10046400D01*
X95158802Y9830364D01*
X94904771Y9660626D01*
X94622507Y9543709D01*
X94503334Y9520004D01*
X94322858Y9484105D01*
X94017336Y9484105D01*
X93836860Y9520004D01*
X93717687Y9543709D01*
X93435423Y9660626D01*
X93181392Y9830364D01*
X92965356Y10046400D01*
X92795618Y10300431D01*
X92678701Y10582695D01*
X92619097Y10882345D01*
X92619097Y11187865D01*
X92678701Y11487515D01*
X92795618Y11769779D01*
X92965356Y12023810D01*
X93181392Y12239846D01*
X93435423Y12409584D01*
X93717687Y12526501D01*
X93898164Y12562400D01*
X94017336Y12586105D01*
X94322858Y12586105D01*
X94442030Y12562400D01*
X94442030Y12562400D01*
G37*
G36*
X189019056Y14438085D02*
G01*
X189168881Y14408283D01*
X189451145Y14291366D01*
X189705176Y14121628D01*
X189921212Y13905592D01*
X190090950Y13651561D01*
X190207867Y13369297D01*
X190267471Y13069647D01*
X190267471Y12764127D01*
X190207867Y12464477D01*
X190090950Y12182213D01*
X189921212Y11928182D01*
X189705176Y11712146D01*
X189451145Y11542408D01*
X189168881Y11425491D01*
X189019056Y11395689D01*
X188869232Y11365887D01*
X188563710Y11365887D01*
X188413886Y11395689D01*
X188264061Y11425491D01*
X187981797Y11542408D01*
X187727766Y11712146D01*
X187511730Y11928182D01*
X187341992Y12182213D01*
X187225075Y12464477D01*
X187165471Y12764127D01*
X187165471Y13069647D01*
X187225075Y13369297D01*
X187341992Y13651561D01*
X187511730Y13905592D01*
X187727766Y14121628D01*
X187981797Y14291366D01*
X188264061Y14408283D01*
X188413886Y14438085D01*
X188563710Y14467887D01*
X188869232Y14467887D01*
X189019056Y14438085D01*
X189019056Y14438085D01*
G37*
G36*
X102410028Y16184320D02*
G01*
X101734987Y14513533D01*
X100064200Y15188574D01*
X100739241Y16859361D01*
X102410028Y16184320D01*
X102410028Y16184320D01*
G37*
G36*
X184951394Y15191059D02*
G01*
X183280607Y14516018D01*
X182605566Y16186805D01*
X184276353Y16861846D01*
X184951394Y15191059D01*
X184951394Y15191059D01*
G37*
G36*
X98992509Y17532430D02*
G01*
X99058694Y17525911D01*
X99228533Y17474391D01*
X99385058Y17390726D01*
X99420796Y17361396D01*
X99522253Y17278134D01*
X99605515Y17176677D01*
X99634845Y17140939D01*
X99718510Y16984414D01*
X99770030Y16814575D01*
X99787426Y16637948D01*
X99770030Y16461321D01*
X99718510Y16291482D01*
X99634845Y16134957D01*
X99605515Y16099219D01*
X99522253Y15997762D01*
X99420796Y15914500D01*
X99385058Y15885170D01*
X99228533Y15801505D01*
X99058694Y15749985D01*
X98992510Y15743467D01*
X98926327Y15736948D01*
X98837807Y15736948D01*
X98771624Y15743467D01*
X98705440Y15749985D01*
X98535601Y15801505D01*
X98379076Y15885170D01*
X98343338Y15914500D01*
X98241881Y15997762D01*
X98158619Y16099219D01*
X98129289Y16134957D01*
X98045624Y16291482D01*
X97994104Y16461321D01*
X97976708Y16637948D01*
X97994104Y16814575D01*
X98045624Y16984414D01*
X98129289Y17140939D01*
X98158619Y17176677D01*
X98241881Y17278134D01*
X98343338Y17361396D01*
X98379076Y17390726D01*
X98535601Y17474391D01*
X98705440Y17525911D01*
X98771625Y17532430D01*
X98837807Y17538948D01*
X98926327Y17538948D01*
X98992509Y17532430D01*
X98992509Y17532430D01*
G37*
G36*
X186243970Y17534914D02*
G01*
X186310154Y17528396D01*
X186479993Y17476876D01*
X186636518Y17393211D01*
X186672256Y17363881D01*
X186773713Y17280619D01*
X186856975Y17179162D01*
X186886305Y17143424D01*
X186969970Y16986899D01*
X187021490Y16817060D01*
X187038886Y16640433D01*
X187021490Y16463806D01*
X186969970Y16293967D01*
X186886305Y16137442D01*
X186856975Y16101704D01*
X186773713Y16000247D01*
X186672256Y15916985D01*
X186636518Y15887655D01*
X186479993Y15803990D01*
X186310154Y15752470D01*
X186243970Y15745952D01*
X186177787Y15739433D01*
X186089267Y15739433D01*
X186023085Y15745951D01*
X185956900Y15752470D01*
X185787061Y15803990D01*
X185630536Y15887655D01*
X185594798Y15916985D01*
X185493341Y16000247D01*
X185410079Y16101704D01*
X185380749Y16137442D01*
X185297084Y16293967D01*
X185245564Y16463806D01*
X185228168Y16640433D01*
X185245564Y16817060D01*
X185297084Y16986899D01*
X185380749Y17143424D01*
X185410079Y17179162D01*
X185493341Y17280619D01*
X185594798Y17363881D01*
X185630536Y17393211D01*
X185787061Y17476876D01*
X185956900Y17528396D01*
X186023084Y17534914D01*
X186089267Y17541433D01*
X186177787Y17541433D01*
X186243970Y17534914D01*
X186243970Y17534914D01*
G37*
G36*
X96637463Y18483929D02*
G01*
X96703647Y18477411D01*
X96873486Y18425891D01*
X97030011Y18342226D01*
X97065749Y18312896D01*
X97167206Y18229634D01*
X97250468Y18128177D01*
X97279798Y18092439D01*
X97363463Y17935914D01*
X97414983Y17766075D01*
X97432379Y17589448D01*
X97414983Y17412821D01*
X97363463Y17242982D01*
X97279798Y17086457D01*
X97250468Y17050719D01*
X97167206Y16949262D01*
X97065749Y16866000D01*
X97030011Y16836670D01*
X96873486Y16753005D01*
X96703647Y16701485D01*
X96637463Y16694967D01*
X96571280Y16688448D01*
X96482760Y16688448D01*
X96416577Y16694967D01*
X96350393Y16701485D01*
X96180554Y16753005D01*
X96024029Y16836670D01*
X95988291Y16866000D01*
X95886834Y16949262D01*
X95803572Y17050719D01*
X95774242Y17086457D01*
X95690577Y17242982D01*
X95639057Y17412821D01*
X95621661Y17589448D01*
X95639057Y17766075D01*
X95690577Y17935914D01*
X95774242Y18092439D01*
X95803572Y18128177D01*
X95886834Y18229634D01*
X95988291Y18312896D01*
X96024029Y18342226D01*
X96180554Y18425891D01*
X96350393Y18477411D01*
X96416577Y18483929D01*
X96482760Y18490448D01*
X96571280Y18490448D01*
X96637463Y18483929D01*
X96637463Y18483929D01*
G37*
G36*
X188599016Y18486415D02*
G01*
X188665201Y18479896D01*
X188835040Y18428376D01*
X188991565Y18344711D01*
X189027303Y18315381D01*
X189128760Y18232119D01*
X189212022Y18130662D01*
X189241352Y18094924D01*
X189325017Y17938399D01*
X189376537Y17768560D01*
X189393933Y17591933D01*
X189376537Y17415306D01*
X189325017Y17245467D01*
X189241352Y17088942D01*
X189212022Y17053204D01*
X189128760Y16951747D01*
X189027303Y16868485D01*
X188991565Y16839155D01*
X188835040Y16755490D01*
X188665201Y16703970D01*
X188599017Y16697452D01*
X188532834Y16690933D01*
X188444314Y16690933D01*
X188378131Y16697452D01*
X188311947Y16703970D01*
X188142108Y16755490D01*
X187985583Y16839155D01*
X187949845Y16868485D01*
X187848388Y16951747D01*
X187765126Y17053204D01*
X187735796Y17088942D01*
X187652131Y17245467D01*
X187600611Y17415306D01*
X187583215Y17591933D01*
X187600611Y17768560D01*
X187652131Y17938399D01*
X187735796Y18094924D01*
X187765126Y18130662D01*
X187848388Y18232119D01*
X187949845Y18315381D01*
X187985583Y18344711D01*
X188142108Y18428376D01*
X188311947Y18479896D01*
X188378132Y18486415D01*
X188444314Y18492933D01*
X188532834Y18492933D01*
X188599016Y18486415D01*
X188599016Y18486415D01*
G37*
G36*
X94282415Y19435431D02*
G01*
X94348600Y19428912D01*
X94518439Y19377392D01*
X94674964Y19293727D01*
X94710702Y19264397D01*
X94812159Y19181135D01*
X94863245Y19118885D01*
X94924751Y19043940D01*
X95008416Y18887415D01*
X95059936Y18717576D01*
X95077332Y18540949D01*
X95059936Y18364322D01*
X95008416Y18194483D01*
X94924751Y18037958D01*
X94895421Y18002220D01*
X94812159Y17900763D01*
X94710702Y17817501D01*
X94674964Y17788171D01*
X94518439Y17704506D01*
X94348600Y17652986D01*
X94282416Y17646468D01*
X94216233Y17639949D01*
X94127713Y17639949D01*
X94061530Y17646468D01*
X93995346Y17652986D01*
X93825507Y17704506D01*
X93668982Y17788171D01*
X93633244Y17817501D01*
X93531787Y17900763D01*
X93448525Y18002220D01*
X93419195Y18037958D01*
X93335530Y18194483D01*
X93284010Y18364322D01*
X93266614Y18540949D01*
X93284010Y18717576D01*
X93335530Y18887415D01*
X93419195Y19043940D01*
X93480701Y19118885D01*
X93531787Y19181135D01*
X93633244Y19264397D01*
X93668982Y19293727D01*
X93825507Y19377392D01*
X93995346Y19428912D01*
X94061531Y19435431D01*
X94127713Y19441949D01*
X94216233Y19441949D01*
X94282415Y19435431D01*
X94282415Y19435431D01*
G37*
G36*
X190954063Y19437916D02*
G01*
X191020248Y19431397D01*
X191190087Y19379877D01*
X191346612Y19296212D01*
X191357342Y19287406D01*
X191483807Y19183620D01*
X191567069Y19082163D01*
X191596399Y19046425D01*
X191680064Y18889900D01*
X191731584Y18720061D01*
X191748980Y18543434D01*
X191731584Y18366807D01*
X191680064Y18196968D01*
X191596399Y18040443D01*
X191567069Y18004705D01*
X191483807Y17903248D01*
X191382350Y17819986D01*
X191346612Y17790656D01*
X191190087Y17706991D01*
X191020248Y17655471D01*
X190954063Y17648952D01*
X190887881Y17642434D01*
X190799361Y17642434D01*
X190733179Y17648952D01*
X190666994Y17655471D01*
X190497155Y17706991D01*
X190340630Y17790656D01*
X190304892Y17819986D01*
X190203435Y17903248D01*
X190120173Y18004705D01*
X190090843Y18040443D01*
X190007178Y18196968D01*
X189955658Y18366807D01*
X189938262Y18543434D01*
X189955658Y18720061D01*
X190007178Y18889900D01*
X190090843Y19046425D01*
X190120173Y19082163D01*
X190203435Y19183620D01*
X190329900Y19287406D01*
X190340630Y19296212D01*
X190497155Y19379877D01*
X190666994Y19431397D01*
X190733179Y19437916D01*
X190799361Y19444434D01*
X190887881Y19444434D01*
X190954063Y19437916D01*
X190954063Y19437916D01*
G37*
G36*
X127963810Y20447925D02*
G01*
X128132332Y20378121D01*
X128283997Y20276782D01*
X128412978Y20147801D01*
X128514317Y19996136D01*
X128584121Y19827614D01*
X128619706Y19648713D01*
X128619706Y19466307D01*
X128584121Y19287406D01*
X128514317Y19118884D01*
X128412978Y18967219D01*
X128283997Y18838238D01*
X128132332Y18736899D01*
X127963810Y18667095D01*
X127784909Y18631510D01*
X127602503Y18631510D01*
X127423602Y18667095D01*
X127255080Y18736899D01*
X127103415Y18838238D01*
X126974434Y18967219D01*
X126873095Y19118884D01*
X126803291Y19287406D01*
X126767706Y19466307D01*
X126767706Y19648713D01*
X126803291Y19827614D01*
X126873095Y19996136D01*
X126974434Y20147801D01*
X127103415Y20276782D01*
X127255080Y20378121D01*
X127423602Y20447925D01*
X127602503Y20483510D01*
X127784909Y20483510D01*
X127963810Y20447925D01*
X127963810Y20447925D01*
G37*
G36*
X157591992Y20450410D02*
G01*
X157760514Y20380606D01*
X157912179Y20279267D01*
X158041160Y20150286D01*
X158142499Y19998621D01*
X158212303Y19830099D01*
X158247888Y19651198D01*
X158247888Y19468792D01*
X158212303Y19289891D01*
X158142499Y19121369D01*
X158041160Y18969704D01*
X157912179Y18840723D01*
X157760514Y18739384D01*
X157591992Y18669580D01*
X157413091Y18633995D01*
X157230685Y18633995D01*
X157051784Y18669580D01*
X156883262Y18739384D01*
X156731597Y18840723D01*
X156602616Y18969704D01*
X156501277Y19121369D01*
X156431473Y19289891D01*
X156395888Y19468792D01*
X156395888Y19651198D01*
X156431473Y19830099D01*
X156501277Y19998621D01*
X156602616Y20150286D01*
X156731597Y20279267D01*
X156883262Y20380606D01*
X157051784Y20450410D01*
X157230685Y20485995D01*
X157413091Y20485995D01*
X157591992Y20450410D01*
X157591992Y20450410D01*
G37*
G36*
X123580086Y23426827D02*
G01*
X123798086Y23336528D01*
X123952235Y23272678D01*
X124287160Y23048888D01*
X124571989Y22764059D01*
X124795779Y22429134D01*
X124817784Y22376009D01*
X124949928Y22056985D01*
X125028512Y21661917D01*
X125028512Y21259105D01*
X124949928Y20864037D01*
X124939885Y20839792D01*
X124795779Y20491888D01*
X124571989Y20156963D01*
X124287160Y19872134D01*
X123952235Y19648344D01*
X123798086Y19584494D01*
X123580086Y19494195D01*
X123185018Y19415611D01*
X122782206Y19415611D01*
X122387138Y19494195D01*
X122169138Y19584494D01*
X122014989Y19648344D01*
X121680064Y19872134D01*
X121395235Y20156963D01*
X121171445Y20491888D01*
X121027339Y20839792D01*
X121017296Y20864037D01*
X120938712Y21259105D01*
X120938712Y21661917D01*
X121017296Y22056985D01*
X121149440Y22376009D01*
X121171445Y22429134D01*
X121395235Y22764059D01*
X121680064Y23048888D01*
X122014989Y23272678D01*
X122169138Y23336528D01*
X122387138Y23426827D01*
X122782206Y23505411D01*
X123185018Y23505411D01*
X123580086Y23426827D01*
X123580086Y23426827D01*
G37*
G36*
X162628456Y23429312D02*
G01*
X162748722Y23379496D01*
X163000605Y23275163D01*
X163335530Y23051373D01*
X163620359Y22766544D01*
X163844149Y22431619D01*
X163866154Y22378494D01*
X163998298Y22059470D01*
X164076882Y21664402D01*
X164076882Y21261590D01*
X163998298Y20866522D01*
X163997268Y20864036D01*
X163844149Y20494373D01*
X163620359Y20159448D01*
X163335530Y19874619D01*
X163000605Y19650829D01*
X162846456Y19586979D01*
X162628456Y19496680D01*
X162233388Y19418096D01*
X161830576Y19418096D01*
X161435508Y19496680D01*
X161217508Y19586979D01*
X161063359Y19650829D01*
X160728434Y19874619D01*
X160443605Y20159448D01*
X160219815Y20494373D01*
X160066696Y20864036D01*
X160065666Y20866522D01*
X159987082Y21261590D01*
X159987082Y21664402D01*
X160065666Y22059470D01*
X160197810Y22378494D01*
X160219815Y22431619D01*
X160443605Y22766544D01*
X160728434Y23051373D01*
X161063359Y23275163D01*
X161315242Y23379496D01*
X161435508Y23429312D01*
X161830576Y23507896D01*
X162233388Y23507896D01*
X162628456Y23429312D01*
X162628456Y23429312D01*
G37*
G36*
X157850496Y23911990D02*
G01*
X158000321Y23882188D01*
X158282585Y23765271D01*
X158536616Y23595533D01*
X158752652Y23379497D01*
X158922390Y23125466D01*
X159039307Y22843202D01*
X159052733Y22775706D01*
X159078389Y22646726D01*
X159098911Y22543552D01*
X159098911Y22238032D01*
X159039307Y21938382D01*
X158922390Y21656118D01*
X158752652Y21402087D01*
X158536616Y21186051D01*
X158282585Y21016313D01*
X158000321Y20899396D01*
X157850496Y20869594D01*
X157700672Y20839792D01*
X157395150Y20839792D01*
X157245326Y20869594D01*
X157095501Y20899396D01*
X156813237Y21016313D01*
X156559206Y21186051D01*
X156343170Y21402087D01*
X156173432Y21656118D01*
X156056515Y21938382D01*
X155996911Y22238032D01*
X155996911Y22543552D01*
X156017434Y22646726D01*
X156043089Y22775706D01*
X156056515Y22843202D01*
X156173432Y23125466D01*
X156343170Y23379497D01*
X156559206Y23595533D01*
X156813237Y23765271D01*
X157095501Y23882188D01*
X157245326Y23911990D01*
X157395150Y23941792D01*
X157700672Y23941792D01*
X157850496Y23911990D01*
X157850496Y23911990D01*
G37*
G36*
X108848891Y23856715D02*
G01*
X109017413Y23786911D01*
X109169078Y23685572D01*
X109298059Y23556591D01*
X109399398Y23404926D01*
X109469202Y23236404D01*
X109504787Y23057503D01*
X109504787Y22875097D01*
X109469202Y22696196D01*
X109399398Y22527674D01*
X109298059Y22376009D01*
X109169078Y22247028D01*
X109017413Y22145689D01*
X108848891Y22075885D01*
X108669990Y22040300D01*
X108487584Y22040300D01*
X108308683Y22075885D01*
X108140161Y22145689D01*
X107988496Y22247028D01*
X107859515Y22376009D01*
X107758176Y22527674D01*
X107688372Y22696196D01*
X107652787Y22875097D01*
X107652787Y23057503D01*
X107688372Y23236404D01*
X107758176Y23404926D01*
X107859515Y23556591D01*
X107988496Y23685572D01*
X108140161Y23786911D01*
X108308683Y23856715D01*
X108487584Y23892300D01*
X108669990Y23892300D01*
X108848891Y23856715D01*
X108848891Y23856715D01*
G37*
G36*
X176706911Y23859199D02*
G01*
X176875433Y23789395D01*
X177027098Y23688056D01*
X177156079Y23559075D01*
X177257418Y23407410D01*
X177327222Y23238888D01*
X177362807Y23059987D01*
X177362807Y22877581D01*
X177327222Y22698680D01*
X177257418Y22530158D01*
X177156079Y22378493D01*
X177027098Y22249512D01*
X176875433Y22148173D01*
X176706911Y22078369D01*
X176528010Y22042784D01*
X176345604Y22042784D01*
X176166703Y22078369D01*
X175998181Y22148173D01*
X175846516Y22249512D01*
X175717535Y22378493D01*
X175616196Y22530158D01*
X175546392Y22698680D01*
X175510807Y22877581D01*
X175510807Y23059987D01*
X175546392Y23238888D01*
X175616196Y23407410D01*
X175717535Y23559075D01*
X175846516Y23688056D01*
X175998181Y23789395D01*
X176166703Y23859199D01*
X176345604Y23894784D01*
X176528010Y23894784D01*
X176706911Y23859199D01*
X176706911Y23859199D01*
G37*
G36*
X118543622Y24253927D02*
G01*
X118712144Y24184123D01*
X118863809Y24082784D01*
X118992790Y23953803D01*
X119094129Y23802138D01*
X119163933Y23633616D01*
X119199518Y23454715D01*
X119199518Y23272309D01*
X119163933Y23093408D01*
X119094129Y22924886D01*
X118992790Y22773221D01*
X118863809Y22644240D01*
X118712144Y22542901D01*
X118543622Y22473097D01*
X118364721Y22437512D01*
X118182315Y22437512D01*
X118003414Y22473097D01*
X117834892Y22542901D01*
X117683227Y22644240D01*
X117554246Y22773221D01*
X117452907Y22924886D01*
X117383103Y23093408D01*
X117347518Y23272309D01*
X117347518Y23454715D01*
X117383103Y23633616D01*
X117452907Y23802138D01*
X117554246Y23953803D01*
X117683227Y24082784D01*
X117834892Y24184123D01*
X118003414Y24253927D01*
X118182315Y24289512D01*
X118364721Y24289512D01*
X118543622Y24253927D01*
X118543622Y24253927D01*
G37*
G36*
X167012180Y24256412D02*
G01*
X167180702Y24186608D01*
X167332367Y24085269D01*
X167461348Y23956288D01*
X167562687Y23804623D01*
X167632491Y23636101D01*
X167668076Y23457200D01*
X167668076Y23274794D01*
X167632491Y23095893D01*
X167562687Y22927371D01*
X167461348Y22775706D01*
X167332367Y22646725D01*
X167180702Y22545386D01*
X167012180Y22475582D01*
X166833279Y22439997D01*
X166650873Y22439997D01*
X166471972Y22475582D01*
X166303450Y22545386D01*
X166151785Y22646725D01*
X166022804Y22775706D01*
X165921465Y22927371D01*
X165851661Y23095893D01*
X165816076Y23274794D01*
X165816076Y23457200D01*
X165851661Y23636101D01*
X165921465Y23804623D01*
X166022804Y23956288D01*
X166151785Y24085269D01*
X166303450Y24186608D01*
X166471972Y24256412D01*
X166650873Y24291997D01*
X166833279Y24291997D01*
X167012180Y24256412D01*
X167012180Y24256412D01*
G37*
G36*
X104465167Y26835617D02*
G01*
X104579436Y26788285D01*
X104837316Y26681468D01*
X105172241Y26457678D01*
X105457070Y26172849D01*
X105680860Y25837924D01*
X105680860Y25837923D01*
X105835009Y25465775D01*
X105913593Y25070707D01*
X105913593Y24667895D01*
X105835009Y24272827D01*
X105757320Y24085269D01*
X105680860Y23900678D01*
X105457070Y23565753D01*
X105172241Y23280924D01*
X104837316Y23057134D01*
X104683167Y22993284D01*
X104465167Y22902985D01*
X104070099Y22824401D01*
X103667287Y22824401D01*
X103272219Y22902985D01*
X103054219Y22993284D01*
X102900070Y23057134D01*
X102565145Y23280924D01*
X102280316Y23565753D01*
X102056526Y23900678D01*
X101980066Y24085269D01*
X101902377Y24272827D01*
X101823793Y24667895D01*
X101823793Y25070707D01*
X101902377Y25465775D01*
X102056526Y25837923D01*
X102056526Y25837924D01*
X102280316Y26172849D01*
X102565145Y26457678D01*
X102900070Y26681468D01*
X103157950Y26788285D01*
X103272219Y26835617D01*
X103667287Y26914201D01*
X104070099Y26914201D01*
X104465167Y26835617D01*
X104465167Y26835617D01*
G37*
G36*
X181743375Y26838101D02*
G01*
X181863641Y26788285D01*
X182115524Y26683952D01*
X182450449Y26460162D01*
X182735278Y26175333D01*
X182959068Y25840408D01*
X183019207Y25695219D01*
X183113217Y25468259D01*
X183191801Y25073191D01*
X183191801Y24670379D01*
X183113217Y24275311D01*
X183034499Y24085269D01*
X182959068Y23903162D01*
X182735278Y23568237D01*
X182450449Y23283408D01*
X182115524Y23059618D01*
X182089619Y23048888D01*
X181743375Y22905469D01*
X181348307Y22826885D01*
X180945495Y22826885D01*
X180550427Y22905469D01*
X180204183Y23048888D01*
X180178278Y23059618D01*
X179843353Y23283408D01*
X179558524Y23568237D01*
X179334734Y23903162D01*
X179259303Y24085269D01*
X179180585Y24275311D01*
X179102001Y24670379D01*
X179102001Y25073191D01*
X179180585Y25468259D01*
X179274595Y25695219D01*
X179334734Y25840408D01*
X179558524Y26175333D01*
X179843353Y26460162D01*
X180178278Y26683952D01*
X180430161Y26788285D01*
X180550427Y26838101D01*
X180945495Y26916685D01*
X181348307Y26916685D01*
X181743375Y26838101D01*
X181743375Y26838101D01*
G37*
G36*
X127544245Y26740302D02*
G01*
X127694070Y26710500D01*
X127976334Y26593583D01*
X128230365Y26423845D01*
X128446401Y26207809D01*
X128616139Y25953778D01*
X128733056Y25671514D01*
X128792660Y25371864D01*
X128792660Y25066344D01*
X128733056Y24766694D01*
X128616139Y24484430D01*
X128446401Y24230399D01*
X128230365Y24014363D01*
X127976334Y23844625D01*
X127694070Y23727708D01*
X127544245Y23697906D01*
X127394421Y23668104D01*
X127088899Y23668104D01*
X126939075Y23697906D01*
X126789250Y23727708D01*
X126506986Y23844625D01*
X126252955Y24014363D01*
X126036919Y24230399D01*
X125867181Y24484430D01*
X125750264Y24766694D01*
X125690660Y25066344D01*
X125690660Y25371864D01*
X125750264Y25671514D01*
X125867181Y25953778D01*
X126036919Y26207809D01*
X126252955Y26423845D01*
X126506986Y26593583D01*
X126789250Y26710500D01*
X126939075Y26740302D01*
X127088899Y26770104D01*
X127394421Y26770104D01*
X127544245Y26740302D01*
X127544245Y26740302D01*
G37*
G36*
X120674475Y26770104D02*
G01*
X120854952Y26734205D01*
X121137216Y26617288D01*
X121391247Y26447550D01*
X121607283Y26231514D01*
X121777021Y25977483D01*
X121893938Y25695219D01*
X121893938Y25695218D01*
X121953542Y25395570D01*
X121953542Y25090048D01*
X121948541Y25064907D01*
X121893938Y24790399D01*
X121777021Y24508135D01*
X121607283Y24254104D01*
X121391247Y24038068D01*
X121137216Y23868330D01*
X120854952Y23751413D01*
X120735779Y23727708D01*
X120555303Y23691809D01*
X120249781Y23691809D01*
X120069305Y23727708D01*
X119950132Y23751413D01*
X119667868Y23868330D01*
X119413837Y24038068D01*
X119197801Y24254104D01*
X119028063Y24508135D01*
X118911146Y24790399D01*
X118856543Y25064907D01*
X118851542Y25090048D01*
X118851542Y25395570D01*
X118911146Y25695218D01*
X118911146Y25695219D01*
X119028063Y25977483D01*
X119197801Y26231514D01*
X119413837Y26447550D01*
X119667868Y26617288D01*
X119950132Y26734205D01*
X120130609Y26770104D01*
X120249781Y26793809D01*
X120555303Y26793809D01*
X120674475Y26770104D01*
X120674475Y26770104D01*
G37*
G36*
X176965415Y27320779D02*
G01*
X177115240Y27290977D01*
X177397504Y27174060D01*
X177651535Y27004322D01*
X177867571Y26788286D01*
X178037309Y26534255D01*
X178154226Y26251991D01*
X178167652Y26184495D01*
X178208830Y25977481D01*
X178213830Y25952341D01*
X178213830Y25646821D01*
X178154226Y25347171D01*
X178037309Y25064907D01*
X177867571Y24810876D01*
X177651535Y24594840D01*
X177397504Y24425102D01*
X177115240Y24308185D01*
X177033857Y24291997D01*
X176815591Y24248581D01*
X176510069Y24248581D01*
X176291803Y24291997D01*
X176210420Y24308185D01*
X175928156Y24425102D01*
X175674125Y24594840D01*
X175458089Y24810876D01*
X175288351Y25064907D01*
X175171434Y25347171D01*
X175111830Y25646821D01*
X175111830Y25952341D01*
X175116831Y25977481D01*
X175158008Y26184495D01*
X175171434Y26251991D01*
X175288351Y26534255D01*
X175458089Y26788286D01*
X175674125Y27004322D01*
X175928156Y27174060D01*
X176210420Y27290977D01*
X176360245Y27320779D01*
X176510069Y27350581D01*
X176815591Y27350581D01*
X176965415Y27320779D01*
X176965415Y27320779D01*
G37*
G36*
X162786612Y28645789D02*
G01*
X162936437Y28615987D01*
X163218701Y28499070D01*
X163472732Y28329332D01*
X163688768Y28113296D01*
X163858506Y27859265D01*
X163975423Y27577001D01*
X163992415Y27491574D01*
X164035027Y27277352D01*
X164035027Y26971830D01*
X164008426Y26838100D01*
X163975423Y26672181D01*
X163858506Y26389917D01*
X163688768Y26135886D01*
X163472732Y25919850D01*
X163218701Y25750112D01*
X162936437Y25633195D01*
X162786612Y25603393D01*
X162636788Y25573591D01*
X162331266Y25573591D01*
X162181442Y25603393D01*
X162031617Y25633195D01*
X161749353Y25750112D01*
X161495322Y25919850D01*
X161279286Y26135886D01*
X161109548Y26389917D01*
X160992631Y26672181D01*
X160959628Y26838100D01*
X160933027Y26971830D01*
X160933027Y27277352D01*
X160975639Y27491574D01*
X160992631Y27577001D01*
X161109548Y27859265D01*
X161279286Y28113296D01*
X161495322Y28329332D01*
X161749353Y28499070D01*
X162031617Y28615987D01*
X162181442Y28645789D01*
X162331266Y28675591D01*
X162636788Y28675591D01*
X162786612Y28645789D01*
X162786612Y28645789D01*
G37*
G36*
X99428703Y27662717D02*
G01*
X99597225Y27592913D01*
X99748890Y27491574D01*
X99877871Y27362593D01*
X99979210Y27210928D01*
X100049014Y27042406D01*
X100084599Y26863505D01*
X100084599Y26681099D01*
X100049014Y26502198D01*
X99979210Y26333676D01*
X99877871Y26182011D01*
X99748890Y26053030D01*
X99597225Y25951691D01*
X99428703Y25881887D01*
X99249802Y25846302D01*
X99067396Y25846302D01*
X98888495Y25881887D01*
X98719973Y25951691D01*
X98568308Y26053030D01*
X98439327Y26182011D01*
X98337988Y26333676D01*
X98268184Y26502198D01*
X98232599Y26681099D01*
X98232599Y26863505D01*
X98268184Y27042406D01*
X98337988Y27210928D01*
X98439327Y27362593D01*
X98568308Y27491574D01*
X98719973Y27592913D01*
X98888495Y27662717D01*
X99067396Y27698302D01*
X99249802Y27698302D01*
X99428703Y27662717D01*
X99428703Y27662717D01*
G37*
G36*
X186127099Y27665201D02*
G01*
X186295621Y27595397D01*
X186447286Y27494058D01*
X186576267Y27365077D01*
X186677606Y27213412D01*
X186747410Y27044890D01*
X186782995Y26865989D01*
X186782995Y26683583D01*
X186747410Y26504682D01*
X186677606Y26336160D01*
X186576267Y26184495D01*
X186447286Y26055514D01*
X186295621Y25954175D01*
X186127099Y25884371D01*
X185948198Y25848786D01*
X185765792Y25848786D01*
X185586891Y25884371D01*
X185418369Y25954175D01*
X185266704Y26055514D01*
X185137723Y26184495D01*
X185036384Y26336160D01*
X184966580Y26504682D01*
X184930995Y26683583D01*
X184930995Y26865989D01*
X184966580Y27044890D01*
X185036384Y27213412D01*
X185137723Y27365077D01*
X185266704Y27494058D01*
X185418369Y27595397D01*
X185586891Y27665201D01*
X185765792Y27700786D01*
X185948198Y27700786D01*
X186127099Y27665201D01*
X186127099Y27665201D01*
G37*
G36*
X108429326Y30149092D02*
G01*
X108579151Y30119290D01*
X108861415Y30002373D01*
X109115446Y29832635D01*
X109331482Y29616599D01*
X109501220Y29362568D01*
X109618137Y29080304D01*
X109677741Y28780654D01*
X109677741Y28475134D01*
X109618137Y28175484D01*
X109501220Y27893220D01*
X109331482Y27639189D01*
X109115446Y27423153D01*
X108861415Y27253415D01*
X108579151Y27136498D01*
X108429326Y27106696D01*
X108279502Y27076894D01*
X107973980Y27076894D01*
X107824156Y27106696D01*
X107674331Y27136498D01*
X107392067Y27253415D01*
X107138036Y27423153D01*
X106922000Y27639189D01*
X106752262Y27893220D01*
X106635345Y28175484D01*
X106575741Y28475134D01*
X106575741Y28780654D01*
X106635345Y29080304D01*
X106752262Y29362568D01*
X106922000Y29616599D01*
X107138036Y29832635D01*
X107392067Y30002373D01*
X107674331Y30119290D01*
X107824156Y30149092D01*
X107973980Y30178894D01*
X108279502Y30178894D01*
X108429326Y30149092D01*
X108429326Y30149092D01*
G37*
G36*
X101559556Y30178894D02*
G01*
X101740033Y30142995D01*
X102022297Y30026078D01*
X102276328Y29856340D01*
X102492364Y29640304D01*
X102662102Y29386273D01*
X102779019Y29104009D01*
X102838623Y28804359D01*
X102838623Y28498839D01*
X102779019Y28199189D01*
X102662102Y27916925D01*
X102492364Y27662894D01*
X102276328Y27446858D01*
X102022297Y27277120D01*
X101740033Y27160203D01*
X101620860Y27136498D01*
X101440384Y27100599D01*
X101134862Y27100599D01*
X100954386Y27136498D01*
X100835213Y27160203D01*
X100552949Y27277120D01*
X100298918Y27446858D01*
X100082882Y27662894D01*
X99913144Y27916925D01*
X99796227Y28199189D01*
X99736623Y28498839D01*
X99736623Y28804359D01*
X99796227Y29104009D01*
X99913144Y29386273D01*
X100082882Y29640304D01*
X100298918Y29856340D01*
X100552949Y30026078D01*
X100835213Y30142995D01*
X101015690Y30178894D01*
X101134862Y30202599D01*
X101440384Y30202599D01*
X101559556Y30178894D01*
X101559556Y30178894D01*
G37*
G36*
X181901531Y32054578D02*
G01*
X182051356Y32024776D01*
X182333620Y31907859D01*
X182587651Y31738121D01*
X182803687Y31522085D01*
X182973425Y31268054D01*
X183090342Y30985790D01*
X183149946Y30686140D01*
X183149946Y30380620D01*
X183090342Y30080970D01*
X182973425Y29798706D01*
X182803687Y29544675D01*
X182587651Y29328639D01*
X182333620Y29158901D01*
X182051356Y29041984D01*
X181901531Y29012182D01*
X181751707Y28982380D01*
X181446185Y28982380D01*
X181296361Y29012182D01*
X181146536Y29041984D01*
X180864272Y29158901D01*
X180610241Y29328639D01*
X180394205Y29544675D01*
X180224467Y29798706D01*
X180107550Y30080970D01*
X180047946Y30380620D01*
X180047946Y30686140D01*
X180107550Y30985790D01*
X180224467Y31268054D01*
X180394205Y31522085D01*
X180610241Y31738121D01*
X180864272Y31907859D01*
X181146536Y32024776D01*
X181296361Y32054578D01*
X181446185Y32084380D01*
X181751707Y32084380D01*
X181901531Y32054578D01*
X181901531Y32054578D01*
G37*
G36*
X112527553Y33800814D02*
G01*
X111852512Y32130027D01*
X110181725Y32805068D01*
X110856766Y34475855D01*
X112527553Y33800814D01*
X112527553Y33800814D01*
G37*
G36*
X174833869Y32807552D02*
G01*
X173163082Y32132511D01*
X172488041Y33803298D01*
X174158828Y34478339D01*
X174833869Y32807552D01*
X174833869Y32807552D01*
G37*
G36*
X109110034Y35148924D02*
G01*
X109176219Y35142405D01*
X109346058Y35090885D01*
X109502583Y35007220D01*
X109538321Y34977890D01*
X109639778Y34894628D01*
X109723040Y34793171D01*
X109752370Y34757433D01*
X109836035Y34600908D01*
X109887555Y34431069D01*
X109904951Y34254442D01*
X109887555Y34077815D01*
X109836035Y33907976D01*
X109752370Y33751451D01*
X109723040Y33715713D01*
X109639778Y33614256D01*
X109538321Y33530994D01*
X109502583Y33501664D01*
X109346058Y33417999D01*
X109176219Y33366479D01*
X109110035Y33359961D01*
X109043852Y33353442D01*
X108955332Y33353442D01*
X108889149Y33359961D01*
X108822965Y33366479D01*
X108653126Y33417999D01*
X108496601Y33501664D01*
X108460863Y33530994D01*
X108359406Y33614256D01*
X108276144Y33715713D01*
X108246814Y33751451D01*
X108163149Y33907976D01*
X108111629Y34077815D01*
X108094233Y34254442D01*
X108111629Y34431069D01*
X108163149Y34600908D01*
X108246814Y34757433D01*
X108276144Y34793171D01*
X108359406Y34894628D01*
X108460863Y34977890D01*
X108496601Y35007220D01*
X108653126Y35090885D01*
X108822965Y35142405D01*
X108889150Y35148924D01*
X108955332Y35155442D01*
X109043852Y35155442D01*
X109110034Y35148924D01*
X109110034Y35148924D01*
G37*
G36*
X176126445Y35151407D02*
G01*
X176192629Y35144889D01*
X176362468Y35093369D01*
X176518993Y35009704D01*
X176554731Y34980374D01*
X176656188Y34897112D01*
X176739450Y34795655D01*
X176768780Y34759917D01*
X176852445Y34603392D01*
X176903965Y34433553D01*
X176921361Y34256926D01*
X176903965Y34080299D01*
X176852445Y33910460D01*
X176768780Y33753935D01*
X176766741Y33751451D01*
X176656188Y33616740D01*
X176554731Y33533478D01*
X176518993Y33504148D01*
X176362468Y33420483D01*
X176192629Y33368963D01*
X176126445Y33362445D01*
X176060262Y33355926D01*
X175971742Y33355926D01*
X175905559Y33362445D01*
X175839375Y33368963D01*
X175669536Y33420483D01*
X175513011Y33504148D01*
X175477273Y33533478D01*
X175375816Y33616740D01*
X175265263Y33751451D01*
X175263224Y33753935D01*
X175179559Y33910460D01*
X175128039Y34080299D01*
X175110643Y34256926D01*
X175128039Y34433553D01*
X175179559Y34603392D01*
X175263224Y34759917D01*
X175292554Y34795655D01*
X175375816Y34897112D01*
X175477273Y34980374D01*
X175513011Y35009704D01*
X175669536Y35093369D01*
X175839375Y35144889D01*
X175905559Y35151407D01*
X175971742Y35157926D01*
X176060262Y35157926D01*
X176126445Y35151407D01*
X176126445Y35151407D01*
G37*
G36*
X106754988Y36100423D02*
G01*
X106821172Y36093905D01*
X106991011Y36042385D01*
X107147536Y35958720D01*
X107183274Y35929390D01*
X107284731Y35846128D01*
X107367993Y35744671D01*
X107397323Y35708933D01*
X107480988Y35552408D01*
X107532508Y35382569D01*
X107549904Y35205942D01*
X107532508Y35029315D01*
X107480988Y34859476D01*
X107397323Y34702951D01*
X107367993Y34667213D01*
X107284731Y34565756D01*
X107183274Y34482494D01*
X107147536Y34453164D01*
X106991011Y34369499D01*
X106821172Y34317979D01*
X106754987Y34311460D01*
X106688805Y34304942D01*
X106600285Y34304942D01*
X106534103Y34311460D01*
X106467918Y34317979D01*
X106298079Y34369499D01*
X106141554Y34453164D01*
X106105816Y34482494D01*
X106004359Y34565756D01*
X105921097Y34667213D01*
X105891767Y34702951D01*
X105808102Y34859476D01*
X105756582Y35029315D01*
X105739186Y35205942D01*
X105756582Y35382569D01*
X105808102Y35552408D01*
X105891767Y35708933D01*
X105921097Y35744671D01*
X106004359Y35846128D01*
X106105816Y35929390D01*
X106141554Y35958720D01*
X106298079Y36042385D01*
X106467918Y36093905D01*
X106534102Y36100423D01*
X106600285Y36106942D01*
X106688805Y36106942D01*
X106754988Y36100423D01*
X106754988Y36100423D01*
G37*
G36*
X178481492Y36102907D02*
G01*
X178547676Y36096389D01*
X178717515Y36044869D01*
X178874040Y35961204D01*
X178909778Y35931874D01*
X179011235Y35848612D01*
X179094497Y35747155D01*
X179123827Y35711417D01*
X179207492Y35554892D01*
X179259012Y35385053D01*
X179276408Y35208426D01*
X179259012Y35031799D01*
X179207492Y34861960D01*
X179123827Y34705435D01*
X179121788Y34702951D01*
X179011235Y34568240D01*
X178909778Y34484978D01*
X178874040Y34455648D01*
X178717515Y34371983D01*
X178547676Y34320463D01*
X178481492Y34313945D01*
X178415309Y34307426D01*
X178326789Y34307426D01*
X178260606Y34313945D01*
X178194422Y34320463D01*
X178024583Y34371983D01*
X177868058Y34455648D01*
X177832320Y34484978D01*
X177730863Y34568240D01*
X177620310Y34702951D01*
X177618271Y34705435D01*
X177534606Y34861960D01*
X177483086Y35031799D01*
X177465690Y35208426D01*
X177483086Y35385053D01*
X177534606Y35554892D01*
X177618271Y35711417D01*
X177647601Y35747155D01*
X177730863Y35848612D01*
X177832320Y35931874D01*
X177868058Y35961204D01*
X178024583Y36044869D01*
X178194422Y36096389D01*
X178260607Y36102908D01*
X178326789Y36109426D01*
X178415309Y36109426D01*
X178481492Y36102907D01*
X178481492Y36102907D01*
G37*
G36*
X104399941Y37051924D02*
G01*
X104466125Y37045406D01*
X104635964Y36993886D01*
X104792489Y36910221D01*
X104828227Y36880891D01*
X104929684Y36797629D01*
X105012946Y36696172D01*
X105042276Y36660434D01*
X105125941Y36503909D01*
X105177461Y36334070D01*
X105194857Y36157443D01*
X105177461Y35980816D01*
X105125941Y35810977D01*
X105042276Y35654452D01*
X105012946Y35618714D01*
X104929684Y35517257D01*
X104828227Y35433995D01*
X104792489Y35404665D01*
X104635964Y35321000D01*
X104466125Y35269480D01*
X104399940Y35262961D01*
X104333758Y35256443D01*
X104245238Y35256443D01*
X104179056Y35262961D01*
X104112871Y35269480D01*
X103943032Y35321000D01*
X103786507Y35404665D01*
X103750769Y35433995D01*
X103649312Y35517257D01*
X103566050Y35618714D01*
X103536720Y35654452D01*
X103453055Y35810977D01*
X103401535Y35980816D01*
X103384139Y36157443D01*
X103401535Y36334070D01*
X103453055Y36503909D01*
X103536720Y36660434D01*
X103566050Y36696172D01*
X103649312Y36797629D01*
X103750769Y36880891D01*
X103786507Y36910221D01*
X103943032Y36993886D01*
X104112871Y37045406D01*
X104179055Y37051924D01*
X104245238Y37058443D01*
X104333758Y37058443D01*
X104399941Y37051924D01*
X104399941Y37051924D01*
G37*
G36*
X180836539Y37054408D02*
G01*
X180902723Y37047890D01*
X181072562Y36996370D01*
X181229087Y36912705D01*
X181264825Y36883375D01*
X181366282Y36800113D01*
X181449544Y36698656D01*
X181478874Y36662918D01*
X181562539Y36506393D01*
X181614059Y36336554D01*
X181631455Y36159927D01*
X181614059Y35983300D01*
X181562539Y35813461D01*
X181478874Y35656936D01*
X181476835Y35654452D01*
X181366282Y35519741D01*
X181264825Y35436479D01*
X181229087Y35407149D01*
X181072562Y35323484D01*
X180902723Y35271964D01*
X180836539Y35265446D01*
X180770356Y35258927D01*
X180681836Y35258927D01*
X180615653Y35265446D01*
X180549469Y35271964D01*
X180379630Y35323484D01*
X180223105Y35407149D01*
X180187367Y35436479D01*
X180085910Y35519741D01*
X179975357Y35654452D01*
X179973318Y35656936D01*
X179889653Y35813461D01*
X179838133Y35983300D01*
X179820737Y36159927D01*
X179838133Y36336554D01*
X179889653Y36506393D01*
X179973318Y36662918D01*
X180002648Y36698656D01*
X180085910Y36800113D01*
X180187367Y36883375D01*
X180223105Y36912705D01*
X180379630Y36996370D01*
X180549469Y37047890D01*
X180615653Y37054408D01*
X180681836Y37060927D01*
X180770356Y37060927D01*
X180836539Y37054408D01*
X180836539Y37054408D01*
G37*
M02*
