G04 #@! TF.GenerationSoftware,KiCad,Pcbnew,(5.1.4)-1*
G04 #@! TF.CreationDate,2023-05-25T13:23:40-04:00*
G04 #@! TF.ProjectId,ThumbsUp,5468756d-6273-4557-902e-6b696361645f,rev?*
G04 #@! TF.SameCoordinates,Original*
G04 #@! TF.FileFunction,Paste,Bot*
G04 #@! TF.FilePolarity,Positive*
%FSLAX46Y46*%
G04 Gerber Fmt 4.6, Leading zero omitted, Abs format (unit mm)*
G04 Created by KiCad (PCBNEW (5.1.4)-1) date 2023-05-25 13:23:40*
%MOMM*%
%LPD*%
G04 APERTURE LIST*
%ADD10C,2.500000*%
%ADD11C,0.100000*%
%ADD12C,0.975000*%
%ADD13R,0.900000X1.200000*%
%ADD14R,1.200000X0.900000*%
G04 APERTURE END LIST*
D10*
X235830964Y-27949443D03*
D11*
G36*
X235117063Y-29586046D02*
G01*
X234180546Y-27268087D01*
X236544865Y-26312840D01*
X237481382Y-28630799D01*
X235117063Y-29586046D01*
X235117063Y-29586046D01*
G37*
D10*
X246865169Y-20751856D03*
D11*
G36*
X246151268Y-22388459D02*
G01*
X245214751Y-20070500D01*
X247579070Y-19115253D01*
X248515587Y-21433212D01*
X246151268Y-22388459D01*
X246151268Y-22388459D01*
G37*
D10*
X68473168Y-27612850D03*
D11*
G36*
X66822750Y-28294206D02*
G01*
X67759267Y-25976247D01*
X70123586Y-26931494D01*
X69187069Y-29249453D01*
X66822750Y-28294206D01*
X66822750Y-28294206D01*
G37*
D10*
X55535961Y-25125357D03*
D11*
G36*
X53885543Y-25806713D02*
G01*
X54822060Y-23488754D01*
X57186379Y-24444001D01*
X56249862Y-26761960D01*
X53885543Y-25806713D01*
X53885543Y-25806713D01*
G37*
D10*
X36046434Y-22643751D03*
D11*
G36*
X34396016Y-23325107D02*
G01*
X35332533Y-21007148D01*
X37696852Y-21962395D01*
X36760335Y-24280354D01*
X34396016Y-23325107D01*
X34396016Y-23325107D01*
G37*
D10*
X48983641Y-25131244D03*
D11*
G36*
X47333223Y-25812600D02*
G01*
X48269740Y-23494641D01*
X50634059Y-24449888D01*
X49697542Y-26767847D01*
X47333223Y-25812600D01*
X47333223Y-25812600D01*
G37*
D10*
X104070777Y9774449D03*
D11*
G36*
X102420359Y9093093D02*
G01*
X103356876Y11411052D01*
X105721195Y10455805D01*
X104784678Y8137846D01*
X102420359Y9093093D01*
X102420359Y9093093D01*
G37*
D10*
X91133570Y12261942D03*
D11*
G36*
X89483152Y11580586D02*
G01*
X90419669Y13898545D01*
X92783988Y12943298D01*
X91847471Y10625339D01*
X89483152Y11580586D01*
X89483152Y11580586D01*
G37*
D10*
X111188303Y27390943D03*
D11*
G36*
X109537885Y26709587D02*
G01*
X110474402Y29027546D01*
X112838721Y28072299D01*
X111902204Y25754340D01*
X109537885Y26709587D01*
X109537885Y26709587D01*
G37*
D10*
X98251096Y29878436D03*
D11*
G36*
X96600678Y29197080D02*
G01*
X97537195Y31515039D01*
X99901514Y30559792D01*
X98964997Y28241833D01*
X96600678Y29197080D01*
X96600678Y29197080D01*
G37*
D10*
X117366015Y26469646D03*
D11*
G36*
X115715597Y25788290D02*
G01*
X116652114Y28106249D01*
X119016433Y27151002D01*
X118079916Y24833043D01*
X115715597Y25788290D01*
X115715597Y25788290D01*
G37*
D10*
X130303222Y23982153D03*
D11*
G36*
X128652804Y23300797D02*
G01*
X129589321Y25618756D01*
X131953640Y24663509D01*
X131017123Y22345550D01*
X128652804Y23300797D01*
X128652804Y23300797D01*
G37*
D10*
X227375643Y-23233462D03*
D11*
G36*
X226661742Y-24870065D02*
G01*
X225725225Y-22552106D01*
X228089544Y-21596859D01*
X229026061Y-23914818D01*
X226661742Y-24870065D01*
X226661742Y-24870065D01*
G37*
D10*
X216341438Y-30431049D03*
D11*
G36*
X215627537Y-32067652D02*
G01*
X214691020Y-29749693D01*
X217055339Y-28794446D01*
X217991856Y-31112405D01*
X215627537Y-32067652D01*
X215627537Y-32067652D01*
G37*
D10*
X161628909Y3547461D03*
D11*
G36*
X160915008Y1910858D02*
G01*
X159978491Y4228817D01*
X162342810Y5184064D01*
X163279327Y2866105D01*
X160915008Y1910858D01*
X160915008Y1910858D01*
G37*
D10*
X172663114Y10745048D03*
D11*
G36*
X171949213Y9108445D02*
G01*
X171012696Y11426404D01*
X173377015Y12381651D01*
X174313532Y10063692D01*
X171949213Y9108445D01*
X171949213Y9108445D01*
G37*
D10*
X175863959Y-31685525D03*
D11*
G36*
X175150058Y-33322128D02*
G01*
X174213541Y-31004169D01*
X176577860Y-30048922D01*
X177514377Y-32366881D01*
X175150058Y-33322128D01*
X175150058Y-33322128D01*
G37*
D10*
X186898164Y-24487938D03*
D11*
G36*
X186184263Y-26124541D02*
G01*
X185247746Y-23806582D01*
X187612065Y-22851335D01*
X188548582Y-25169294D01*
X186184263Y-26124541D01*
X186184263Y-26124541D01*
G37*
D10*
X96953252Y-7842044D03*
D11*
G36*
X95302834Y-8523400D02*
G01*
X96239351Y-6205441D01*
X98603670Y-7160688D01*
X97667153Y-9478647D01*
X95302834Y-8523400D01*
X95302834Y-8523400D01*
G37*
D10*
X84016045Y-5354551D03*
D11*
G36*
X82365627Y-6035907D02*
G01*
X83302144Y-3717948D01*
X85666463Y-4673195D01*
X84729946Y-6991154D01*
X82365627Y-6035907D01*
X82365627Y-6035907D01*
G37*
D10*
X168746434Y-14069032D03*
D11*
G36*
X168032533Y-15705635D02*
G01*
X167096016Y-13387676D01*
X169460335Y-12432429D01*
X170396852Y-14750388D01*
X168032533Y-15705635D01*
X168032533Y-15705635D01*
G37*
D10*
X179780639Y-6871445D03*
D11*
G36*
X179066738Y-8508048D02*
G01*
X178130221Y-6190089D01*
X180494540Y-5234842D01*
X181431057Y-7552801D01*
X179066738Y-8508048D01*
X179066738Y-8508048D01*
G37*
D10*
X110248490Y8853152D03*
D11*
G36*
X108598072Y8171796D02*
G01*
X109534589Y10489755D01*
X111898908Y9534508D01*
X110962391Y7216549D01*
X108598072Y8171796D01*
X108598072Y8171796D01*
G37*
D10*
X123185697Y6365659D03*
D11*
G36*
X121535279Y5684303D02*
G01*
X122471796Y8002262D01*
X124836115Y7047015D01*
X123899598Y4729056D01*
X121535279Y5684303D01*
X121535279Y5684303D01*
G37*
D10*
X198895559Y-3462655D03*
D11*
G36*
X198181658Y-5099258D02*
G01*
X197245141Y-2781299D01*
X199609460Y-1826052D01*
X200545977Y-4144011D01*
X198181658Y-5099258D01*
X198181658Y-5099258D01*
G37*
D10*
X187861354Y-10660242D03*
D11*
G36*
X187147453Y-12296845D02*
G01*
X186210936Y-9978886D01*
X188575255Y-9023639D01*
X189511772Y-11341598D01*
X187147453Y-12296845D01*
X187147453Y-12296845D01*
G37*
D10*
X103130965Y-8763341D03*
D11*
G36*
X101480547Y-9444697D02*
G01*
X102417064Y-7126738D01*
X104781383Y-8081985D01*
X103844866Y-10399944D01*
X101480547Y-9444697D01*
X101480547Y-9444697D01*
G37*
D10*
X116068172Y-11250834D03*
D11*
G36*
X114417754Y-11932190D02*
G01*
X115354271Y-9614231D01*
X117718590Y-10569478D01*
X116782073Y-12887437D01*
X114417754Y-11932190D01*
X114417754Y-11932190D01*
G37*
D10*
X89835727Y-25458537D03*
D11*
G36*
X88185309Y-26139893D02*
G01*
X89121826Y-23821934D01*
X91486145Y-24777181D01*
X90549628Y-27095140D01*
X88185309Y-26139893D01*
X88185309Y-26139893D01*
G37*
D10*
X76898520Y-22971044D03*
D11*
G36*
X75248102Y-23652400D02*
G01*
X76184619Y-21334441D01*
X78548938Y-22289688D01*
X77612421Y-24607647D01*
X75248102Y-23652400D01*
X75248102Y-23652400D01*
G37*
D10*
X96013439Y-26379834D03*
D11*
G36*
X94363021Y-27061190D02*
G01*
X95299538Y-24743231D01*
X97663857Y-25698478D01*
X96727340Y-28016437D01*
X94363021Y-27061190D01*
X94363021Y-27061190D01*
G37*
D10*
X108950646Y-28867327D03*
D11*
G36*
X107300228Y-29548683D02*
G01*
X108236745Y-27230724D01*
X110601064Y-28185971D01*
X109664547Y-30503930D01*
X107300228Y-29548683D01*
X107300228Y-29548683D01*
G37*
D10*
X191778033Y14153838D03*
D11*
G36*
X191064132Y12517235D02*
G01*
X190127615Y14835194D01*
X192491934Y15790441D01*
X193428451Y13472482D01*
X191064132Y12517235D01*
X191064132Y12517235D01*
G37*
D10*
X180743828Y6956251D03*
D11*
G36*
X180029927Y5319648D02*
G01*
X179093410Y7637607D01*
X181457729Y8592854D01*
X182394246Y6274895D01*
X180029927Y5319648D01*
X180029927Y5319648D01*
G37*
D10*
X206013084Y-21079148D03*
D11*
G36*
X205299183Y-22715751D02*
G01*
X204362666Y-20397792D01*
X206726985Y-19442545D01*
X207663502Y-21760504D01*
X205299183Y-22715751D01*
X205299183Y-22715751D01*
G37*
D10*
X194978879Y-28276735D03*
D11*
G36*
X194264978Y-29913338D02*
G01*
X193328461Y-27595379D01*
X195692780Y-26640132D01*
X196629297Y-28958091D01*
X194264978Y-29913338D01*
X194264978Y-29913338D01*
G37*
D10*
X184660508Y31770331D03*
D11*
G36*
X183946607Y30133728D02*
G01*
X183010090Y32451687D01*
X185374409Y33406934D01*
X186310926Y31088975D01*
X183946607Y30133728D01*
X183946607Y30133728D01*
G37*
D10*
X173626303Y24572744D03*
D11*
G36*
X172912402Y22936141D02*
G01*
X171975885Y25254100D01*
X174340204Y26209347D01*
X175276721Y23891388D01*
X172912402Y22936141D01*
X172912402Y22936141D01*
G37*
D10*
X154511384Y21163955D03*
D11*
G36*
X153797483Y19527352D02*
G01*
X152860966Y21845311D01*
X155225285Y22800558D01*
X156161802Y20482599D01*
X153797483Y19527352D01*
X153797483Y19527352D01*
G37*
D10*
X165545589Y28361542D03*
D11*
G36*
X164831688Y26724939D02*
G01*
X163895171Y29042898D01*
X166259490Y29998145D01*
X167196007Y27680186D01*
X164831688Y26724939D01*
X164831688Y26724939D01*
G37*
G36*
X183380142Y-67051174D02*
G01*
X183403803Y-67054684D01*
X183427007Y-67060496D01*
X183449529Y-67068554D01*
X183471153Y-67078782D01*
X183491670Y-67091079D01*
X183510883Y-67105329D01*
X183528607Y-67121393D01*
X183544671Y-67139117D01*
X183558921Y-67158330D01*
X183571218Y-67178847D01*
X183581446Y-67200471D01*
X183589504Y-67222993D01*
X183595316Y-67246197D01*
X183598826Y-67269858D01*
X183600000Y-67293750D01*
X183600000Y-67781250D01*
X183598826Y-67805142D01*
X183595316Y-67828803D01*
X183589504Y-67852007D01*
X183581446Y-67874529D01*
X183571218Y-67896153D01*
X183558921Y-67916670D01*
X183544671Y-67935883D01*
X183528607Y-67953607D01*
X183510883Y-67969671D01*
X183491670Y-67983921D01*
X183471153Y-67996218D01*
X183449529Y-68006446D01*
X183427007Y-68014504D01*
X183403803Y-68020316D01*
X183380142Y-68023826D01*
X183356250Y-68025000D01*
X182443750Y-68025000D01*
X182419858Y-68023826D01*
X182396197Y-68020316D01*
X182372993Y-68014504D01*
X182350471Y-68006446D01*
X182328847Y-67996218D01*
X182308330Y-67983921D01*
X182289117Y-67969671D01*
X182271393Y-67953607D01*
X182255329Y-67935883D01*
X182241079Y-67916670D01*
X182228782Y-67896153D01*
X182218554Y-67874529D01*
X182210496Y-67852007D01*
X182204684Y-67828803D01*
X182201174Y-67805142D01*
X182200000Y-67781250D01*
X182200000Y-67293750D01*
X182201174Y-67269858D01*
X182204684Y-67246197D01*
X182210496Y-67222993D01*
X182218554Y-67200471D01*
X182228782Y-67178847D01*
X182241079Y-67158330D01*
X182255329Y-67139117D01*
X182271393Y-67121393D01*
X182289117Y-67105329D01*
X182308330Y-67091079D01*
X182328847Y-67078782D01*
X182350471Y-67068554D01*
X182372993Y-67060496D01*
X182396197Y-67054684D01*
X182419858Y-67051174D01*
X182443750Y-67050000D01*
X183356250Y-67050000D01*
X183380142Y-67051174D01*
X183380142Y-67051174D01*
G37*
D12*
X182900000Y-67537500D03*
D11*
G36*
X183380142Y-65176174D02*
G01*
X183403803Y-65179684D01*
X183427007Y-65185496D01*
X183449529Y-65193554D01*
X183471153Y-65203782D01*
X183491670Y-65216079D01*
X183510883Y-65230329D01*
X183528607Y-65246393D01*
X183544671Y-65264117D01*
X183558921Y-65283330D01*
X183571218Y-65303847D01*
X183581446Y-65325471D01*
X183589504Y-65347993D01*
X183595316Y-65371197D01*
X183598826Y-65394858D01*
X183600000Y-65418750D01*
X183600000Y-65906250D01*
X183598826Y-65930142D01*
X183595316Y-65953803D01*
X183589504Y-65977007D01*
X183581446Y-65999529D01*
X183571218Y-66021153D01*
X183558921Y-66041670D01*
X183544671Y-66060883D01*
X183528607Y-66078607D01*
X183510883Y-66094671D01*
X183491670Y-66108921D01*
X183471153Y-66121218D01*
X183449529Y-66131446D01*
X183427007Y-66139504D01*
X183403803Y-66145316D01*
X183380142Y-66148826D01*
X183356250Y-66150000D01*
X182443750Y-66150000D01*
X182419858Y-66148826D01*
X182396197Y-66145316D01*
X182372993Y-66139504D01*
X182350471Y-66131446D01*
X182328847Y-66121218D01*
X182308330Y-66108921D01*
X182289117Y-66094671D01*
X182271393Y-66078607D01*
X182255329Y-66060883D01*
X182241079Y-66041670D01*
X182228782Y-66021153D01*
X182218554Y-65999529D01*
X182210496Y-65977007D01*
X182204684Y-65953803D01*
X182201174Y-65930142D01*
X182200000Y-65906250D01*
X182200000Y-65418750D01*
X182201174Y-65394858D01*
X182204684Y-65371197D01*
X182210496Y-65347993D01*
X182218554Y-65325471D01*
X182228782Y-65303847D01*
X182241079Y-65283330D01*
X182255329Y-65264117D01*
X182271393Y-65246393D01*
X182289117Y-65230329D01*
X182308330Y-65216079D01*
X182328847Y-65203782D01*
X182350471Y-65193554D01*
X182372993Y-65185496D01*
X182396197Y-65179684D01*
X182419858Y-65176174D01*
X182443750Y-65175000D01*
X183356250Y-65175000D01*
X183380142Y-65176174D01*
X183380142Y-65176174D01*
G37*
D12*
X182900000Y-65662500D03*
D11*
G36*
X181380142Y-65176174D02*
G01*
X181403803Y-65179684D01*
X181427007Y-65185496D01*
X181449529Y-65193554D01*
X181471153Y-65203782D01*
X181491670Y-65216079D01*
X181510883Y-65230329D01*
X181528607Y-65246393D01*
X181544671Y-65264117D01*
X181558921Y-65283330D01*
X181571218Y-65303847D01*
X181581446Y-65325471D01*
X181589504Y-65347993D01*
X181595316Y-65371197D01*
X181598826Y-65394858D01*
X181600000Y-65418750D01*
X181600000Y-65906250D01*
X181598826Y-65930142D01*
X181595316Y-65953803D01*
X181589504Y-65977007D01*
X181581446Y-65999529D01*
X181571218Y-66021153D01*
X181558921Y-66041670D01*
X181544671Y-66060883D01*
X181528607Y-66078607D01*
X181510883Y-66094671D01*
X181491670Y-66108921D01*
X181471153Y-66121218D01*
X181449529Y-66131446D01*
X181427007Y-66139504D01*
X181403803Y-66145316D01*
X181380142Y-66148826D01*
X181356250Y-66150000D01*
X180443750Y-66150000D01*
X180419858Y-66148826D01*
X180396197Y-66145316D01*
X180372993Y-66139504D01*
X180350471Y-66131446D01*
X180328847Y-66121218D01*
X180308330Y-66108921D01*
X180289117Y-66094671D01*
X180271393Y-66078607D01*
X180255329Y-66060883D01*
X180241079Y-66041670D01*
X180228782Y-66021153D01*
X180218554Y-65999529D01*
X180210496Y-65977007D01*
X180204684Y-65953803D01*
X180201174Y-65930142D01*
X180200000Y-65906250D01*
X180200000Y-65418750D01*
X180201174Y-65394858D01*
X180204684Y-65371197D01*
X180210496Y-65347993D01*
X180218554Y-65325471D01*
X180228782Y-65303847D01*
X180241079Y-65283330D01*
X180255329Y-65264117D01*
X180271393Y-65246393D01*
X180289117Y-65230329D01*
X180308330Y-65216079D01*
X180328847Y-65203782D01*
X180350471Y-65193554D01*
X180372993Y-65185496D01*
X180396197Y-65179684D01*
X180419858Y-65176174D01*
X180443750Y-65175000D01*
X181356250Y-65175000D01*
X181380142Y-65176174D01*
X181380142Y-65176174D01*
G37*
D12*
X180900000Y-65662500D03*
D11*
G36*
X181380142Y-67051174D02*
G01*
X181403803Y-67054684D01*
X181427007Y-67060496D01*
X181449529Y-67068554D01*
X181471153Y-67078782D01*
X181491670Y-67091079D01*
X181510883Y-67105329D01*
X181528607Y-67121393D01*
X181544671Y-67139117D01*
X181558921Y-67158330D01*
X181571218Y-67178847D01*
X181581446Y-67200471D01*
X181589504Y-67222993D01*
X181595316Y-67246197D01*
X181598826Y-67269858D01*
X181600000Y-67293750D01*
X181600000Y-67781250D01*
X181598826Y-67805142D01*
X181595316Y-67828803D01*
X181589504Y-67852007D01*
X181581446Y-67874529D01*
X181571218Y-67896153D01*
X181558921Y-67916670D01*
X181544671Y-67935883D01*
X181528607Y-67953607D01*
X181510883Y-67969671D01*
X181491670Y-67983921D01*
X181471153Y-67996218D01*
X181449529Y-68006446D01*
X181427007Y-68014504D01*
X181403803Y-68020316D01*
X181380142Y-68023826D01*
X181356250Y-68025000D01*
X180443750Y-68025000D01*
X180419858Y-68023826D01*
X180396197Y-68020316D01*
X180372993Y-68014504D01*
X180350471Y-68006446D01*
X180328847Y-67996218D01*
X180308330Y-67983921D01*
X180289117Y-67969671D01*
X180271393Y-67953607D01*
X180255329Y-67935883D01*
X180241079Y-67916670D01*
X180228782Y-67896153D01*
X180218554Y-67874529D01*
X180210496Y-67852007D01*
X180204684Y-67828803D01*
X180201174Y-67805142D01*
X180200000Y-67781250D01*
X180200000Y-67293750D01*
X180201174Y-67269858D01*
X180204684Y-67246197D01*
X180210496Y-67222993D01*
X180218554Y-67200471D01*
X180228782Y-67178847D01*
X180241079Y-67158330D01*
X180255329Y-67139117D01*
X180271393Y-67121393D01*
X180289117Y-67105329D01*
X180308330Y-67091079D01*
X180328847Y-67078782D01*
X180350471Y-67068554D01*
X180372993Y-67060496D01*
X180396197Y-67054684D01*
X180419858Y-67051174D01*
X180443750Y-67050000D01*
X181356250Y-67050000D01*
X181380142Y-67051174D01*
X181380142Y-67051174D01*
G37*
D12*
X180900000Y-67537500D03*
D13*
X162850000Y-11600000D03*
X159550000Y-11600000D03*
X162850000Y-14000000D03*
X159550000Y-14000000D03*
X162850000Y-16400000D03*
X159550000Y-16400000D03*
X162850000Y-18800000D03*
X159550000Y-18800000D03*
X162850000Y-21250000D03*
X159550000Y-21250000D03*
D14*
X97900000Y-52650000D03*
X97900000Y-55950000D03*
D13*
X162850000Y-6700000D03*
X159550000Y-6700000D03*
D14*
X95400000Y-55950000D03*
X95400000Y-52650000D03*
D13*
X121750000Y-20650000D03*
X125050000Y-20650000D03*
X121750000Y-35600000D03*
X125050000Y-35600000D03*
X121750000Y-23098888D03*
X125050000Y-23098888D03*
X121750000Y-25597776D03*
X125050000Y-25597776D03*
X121750000Y-28096664D03*
X125050000Y-28096664D03*
X121750000Y-30595552D03*
X125050000Y-30595552D03*
D14*
X203111530Y-45650000D03*
X203111530Y-48950000D03*
X200292300Y-45650000D03*
X200292300Y-48950000D03*
X186276920Y-48950000D03*
X186276920Y-45650000D03*
X189096150Y-48950000D03*
X189096150Y-45650000D03*
X191915380Y-48950000D03*
X191915380Y-45650000D03*
X194734610Y-48950000D03*
X194734610Y-45650000D03*
X175000000Y-48950000D03*
X175000000Y-45650000D03*
X177819230Y-48950000D03*
X177819230Y-45650000D03*
X180638460Y-48950000D03*
X180638460Y-45650000D03*
X183457690Y-48950000D03*
X183457690Y-45650000D03*
D13*
X162850000Y-23700000D03*
X159550000Y-23700000D03*
X162850000Y-26250000D03*
X159550000Y-26250000D03*
X162850000Y-28750000D03*
X159550000Y-28750000D03*
X162850000Y-31250000D03*
X159550000Y-31250000D03*
D14*
X208750000Y-45650000D03*
X208750000Y-48950000D03*
X205930760Y-45650000D03*
X205930760Y-48950000D03*
X197473070Y-45650000D03*
X197473070Y-48950000D03*
D13*
X162850000Y-38712500D03*
X159550000Y-38712500D03*
X162850000Y-36250000D03*
X159550000Y-36250000D03*
X162850000Y-41200000D03*
X159550000Y-41200000D03*
X162850000Y-33750000D03*
X159550000Y-33750000D03*
X162850000Y-9150000D03*
X159550000Y-9150000D03*
D14*
X85054545Y-43700000D03*
X85054545Y-47000000D03*
D13*
X121750000Y-33100000D03*
X125050000Y-33100000D03*
X121750000Y-18150000D03*
X125050000Y-18150000D03*
D14*
X75272729Y-43700000D03*
X75272729Y-47000000D03*
X72827275Y-43700000D03*
X72827275Y-47000000D03*
X82609091Y-43700000D03*
X82609091Y-47000000D03*
D13*
X121750000Y-40590000D03*
X125050000Y-40590000D03*
X121750000Y-38100000D03*
X125050000Y-38100000D03*
D14*
X77718183Y-43700000D03*
X77718183Y-47000000D03*
X80163637Y-43700000D03*
X80163637Y-47000000D03*
X85527270Y-52650000D03*
X85527270Y-55950000D03*
X87972733Y-52650000D03*
X87972733Y-55950000D03*
X90418187Y-52650000D03*
X90418187Y-55950000D03*
X92863641Y-52650000D03*
X92863641Y-55950000D03*
X98200000Y-43700000D03*
X98200000Y-47000000D03*
X95600000Y-43700000D03*
X95600000Y-47000000D03*
X93000000Y-43700000D03*
X93000000Y-47000000D03*
X90400000Y-43700000D03*
X90400000Y-47000000D03*
X108550000Y-43700000D03*
X108550000Y-47000000D03*
X105950000Y-43700000D03*
X105950000Y-47000000D03*
X103350000Y-43700000D03*
X103350000Y-47000000D03*
X100750000Y-43700000D03*
X100750000Y-47000000D03*
M02*
