M48
; DRILL file {KiCad (5.1.4)-1} date 10/11/2024 12:26:40 PM
; FORMAT={-:-/ absolute / metric / decimal}
; #@! TF.CreationDate,2024-10-11T12:26:40-04:00
; #@! TF.GenerationSoftware,Kicad,Pcbnew,(5.1.4)-1
; #@! TF.FileFunction,NonPlated,1,2,NPTH
FMAT,2
METRIC
T1C1.750
T2C3.000
T3C3.988
%
G90
G05
T1
X164.439Y1.944
X173.86Y5.75
X92.041Y9.156
X101.461Y5.35
X104.038Y-11.869
X113.459Y-15.675
X157.322Y19.56
X166.742Y23.366
X238.641Y-29.553
X248.062Y-25.747
X56.443Y-28.231
X65.864Y-32.037
X77.806Y-26.077
X87.226Y-29.883
X219.152Y-32.035
X228.572Y-28.229
X183.554Y5.352
X192.975Y9.158
X178.674Y-33.289
X188.095Y-29.483
X96.921Y-29.486
X106.341Y-33.292
X176.437Y22.969
X185.857Y26.775
X36.954Y-25.75
X46.374Y-29.556
X111.156Y5.747
X120.576Y1.941
X118.274Y23.364
X127.694Y19.558
X197.789Y-29.881
X207.21Y-26.075
X84.924Y-8.461
X94.344Y-12.267
X190.672Y-12.264
X200.092Y-8.458
X171.557Y-15.673
X180.977Y-11.867
X99.159Y26.772
X108.579Y22.966
T2
X87.053Y-6.581
X93.892Y-6.605
X190.898Y-9.433
X195.834Y-4.7
X171.783Y-12.842
X176.719Y-8.108
X101.288Y28.652
X108.127Y28.628
X164.665Y4.774
X169.602Y9.508
X94.17Y11.035
X101.009Y11.011
X106.167Y-9.99
X113.007Y-10.014
X157.548Y22.391
X162.484Y27.125
X238.867Y-26.723
X243.804Y-21.989
X58.572Y-26.352
X65.412Y-26.376
X79.935Y-24.198
X86.774Y-24.222
X219.378Y-29.204
X224.314Y-24.47
X183.78Y8.183
X188.716Y12.917
X178.9Y-30.459
X183.837Y-25.725
X99.05Y-27.607
X105.889Y-27.63
X176.663Y25.8
X181.599Y30.533
X39.083Y-23.871
X45.922Y-23.894
X113.285Y7.626
X120.124Y7.603
X120.403Y25.243
X127.242Y25.219
X198.015Y-27.05
X202.952Y-22.316
T3
X89.634Y-10.364
X195.382Y-10.361
X176.267Y-13.77
X103.869Y24.869
X169.15Y3.847
X96.751Y7.253
X108.749Y-13.772
X162.032Y21.463
X243.352Y-27.65
X61.154Y-30.134
X82.516Y-27.98
X223.862Y-30.132
X188.264Y7.255
X183.385Y-31.386
X101.631Y-31.389
X181.147Y24.872
X41.664Y-27.653
X115.866Y3.844
X122.984Y21.461
X202.499Y-27.978
T0
M30
