M48
; DRILL file {KiCad (5.1.4)-1} date 10/11/2024 12:26:40 PM
; FORMAT={-:-/ absolute / metric / decimal}
; #@! TF.CreationDate,2024-10-11T12:26:40-04:00
; #@! TF.GenerationSoftware,Kicad,Pcbnew,(5.1.4)-1
; #@! TF.FileFunction,Plated,1,2,PTH
FMAT,2
METRIC
T1C0.400
T2C0.750
T3C0.800
T4C1.000
T5C1.050
T6C1.470
T7C1.500
%
G90
G05
T1
X70.25Y-35.75
X71.15Y-42.15
X87.55Y-42.5
X89.3Y-49.0
X90.35Y-42.2
X91.1Y-18.05
X92.9Y-42.3
X94.172Y18.541
X95.6Y-42.45
X96.527Y17.589
X98.2Y-42.55
X99.25Y-18.3
X100.75Y-42.65
X103.3Y13.05
X103.35Y-42.7
X105.847Y13.958
X105.894Y15.996
X105.906Y14.956
X105.95Y-42.75
X106.004Y16.99
X108.55Y-42.65
X112.45Y-46.139
X120.25Y-38.1
X120.3Y-40.55
X120.392Y-35.592
X120.5Y-33.1
X120.55Y-30.65
X120.552Y-25.598
X120.6Y-23.15
X120.6Y-28.1
X120.7Y-20.65
X120.75Y-18.15
X127.35Y-43.3
X128.399Y-43.449
X129.95Y-63.4
X130.75Y-64.25
X131.8Y-61.45
X132.1Y-60.3
X132.3Y-41.9
X137.0Y-60.35
X137.35Y-43.35
X137.911Y-61.198
X138.95Y-43.0
X148.1Y-49.15
X149.1Y-48.8
X150.12Y-45.55
X151.15Y-44.35
X156.8Y-44.4
X163.95Y-16.45
X163.95Y-18.8
X164.0Y-11.6
X164.0Y-14.0
X164.0Y-23.7
X164.05Y-21.3
X164.05Y-31.3
X164.15Y-26.25
X164.15Y-28.75
X164.237Y-38.712
X164.25Y-36.25
X164.3Y-41.3
X166.45Y-44.4
X166.55Y-45.55
X175.0Y-44.65
X177.85Y-44.6
X180.65Y-44.6
X183.45Y-44.55
X186.277Y-44.589
X186.311Y-16.3
X189.1Y-44.4
X191.9Y-44.4
X194.1Y-61.9
X194.75Y-44.35
X208.4Y-52.2
X214.7Y-51.4
X233.612Y-35.164
T2
X138.8Y-76.0
T3
X140.8Y-76.0
X142.8Y-76.0
T4
X65.505Y-51.454
X67.533Y-52.982
X69.562Y-54.511
X71.59Y-56.04
X79.851Y-62.225
X81.879Y-63.754
X83.908Y-65.283
X85.936Y-66.811
X250.582Y-24.19
X251.533Y-26.545
X252.485Y-28.9
X253.436Y-31.255
X190.896Y-1.928
X193.251Y-0.976
X195.606Y-0.025
X197.961Y0.927
X198.014Y-19.544
X200.369Y-18.593
X202.724Y-17.641
X205.079Y-16.69
X199.106Y-66.815
X201.134Y-65.287
X203.163Y-63.758
X205.191Y-62.23
X94.172Y18.541
X96.527Y17.589
X98.882Y16.638
X101.237Y15.686
X136.8Y-76.0
X144.8Y-76.0
X189.081Y-64.978
X190.61Y-67.007
X192.139Y-69.035
X193.667Y-71.064
X91.359Y-71.047
X92.888Y-69.019
X94.416Y-66.99
X95.945Y-64.962
X104.289Y36.157
X106.645Y35.206
X109.0Y34.254
X111.355Y33.303
X183.778Y15.689
X186.134Y16.64
X188.489Y17.592
X190.844Y18.543
X141.4Y-33.2
X143.94Y-33.2
X79.937Y-16.692
X82.292Y-17.644
X84.647Y-18.595
X87.002Y-19.547
X213.46Y-56.038
X215.489Y-54.509
X217.517Y-52.981
X219.546Y-51.452
X31.579Y-31.258
X32.531Y-28.903
X33.482Y-26.547
X34.434Y-24.192
X87.054Y0.924
X89.409Y-0.027
X91.765Y-0.979
X94.12Y-1.93
X173.661Y33.305
X176.016Y34.257
X178.371Y35.208
X180.726Y36.16
X142.5Y0.5
X142.5Y-2.04
X142.5Y-4.58
X142.5Y-7.12
T5
X169.4Y-72.8
X169.4Y-77.3
X172.65Y-79.55
X175.9Y-72.8
X175.9Y-77.3
T6
X92.493Y3.494
X92.747Y4.017
X97.571Y2.608
X99.332Y3.471
X104.491Y-17.531
X104.745Y-17.008
X109.568Y-18.418
X111.33Y-17.555
X161.4Y16.354
X161.58Y15.801
X165.848Y18.691
X166.516Y20.535
X242.719Y-32.759
X242.9Y-33.312
X247.168Y-30.423
X247.836Y-28.578
X56.896Y-33.893
X57.15Y-33.37
X61.973Y-34.78
X63.735Y-33.917
X78.258Y-31.739
X78.512Y-31.216
X83.336Y-32.625
X85.097Y-31.762
X223.23Y-35.241
X223.41Y-35.794
X227.678Y-32.904
X228.346Y-31.06
X187.632Y2.146
X187.812Y1.594
X192.081Y4.483
X192.748Y6.327
X182.752Y-36.495
X182.933Y-37.048
X187.201Y-34.159
X187.869Y-32.314
X97.373Y-35.148
X97.627Y-34.625
X102.451Y-36.034
X104.212Y-35.171
X180.515Y19.763
X180.695Y19.21
X184.963Y22.1
X185.631Y23.944
X37.406Y-31.411
X37.66Y-30.889
X42.484Y-32.298
X44.245Y-31.435
X111.608Y0.085
X111.862Y0.608
X116.686Y-0.801
X118.447Y0.062
X118.726Y17.702
X118.98Y18.225
X123.803Y16.815
X125.565Y17.678
X201.867Y-33.087
X202.047Y-33.639
X206.316Y-30.75
X206.984Y-28.905
X85.376Y-14.122
X85.63Y-13.599
X90.453Y-15.009
X92.215Y-14.146
X194.75Y-15.47
X194.93Y-16.023
X199.198Y-13.133
X199.866Y-11.289
X175.635Y-18.879
X175.815Y-19.432
X180.083Y-16.542
X180.751Y-14.698
X99.611Y21.111
X99.865Y21.633
X104.688Y20.224
X106.45Y21.087
X168.517Y-1.262
X168.697Y-1.815
X172.966Y1.074
X173.634Y2.919
T7
X134.88Y2.97
X134.88Y0.43
X134.88Y-2.11
X134.88Y-4.65
X134.88Y-7.19
X134.88Y-9.73
X134.88Y-12.27
X134.88Y-14.81
X134.88Y-17.35
X134.88Y-19.89
X134.88Y-22.43
X134.88Y-24.97
X150.12Y2.97
X150.12Y0.43
X150.12Y-2.11
X150.12Y-4.65
X150.12Y-7.19
X150.12Y-9.73
X150.12Y-12.27
X150.12Y-14.81
X150.12Y-17.35
X150.12Y-19.89
X150.12Y-22.43
X150.12Y-24.97
T0
M30
