G04 #@! TF.GenerationSoftware,KiCad,Pcbnew,(5.1.4)-1*
G04 #@! TF.CreationDate,2024-10-11T12:26:31-04:00*
G04 #@! TF.ProjectId,ThumbsUp,5468756d-6273-4557-902e-6b696361645f,rev?*
G04 #@! TF.SameCoordinates,Original*
G04 #@! TF.FileFunction,Profile,NP*
%FSLAX46Y46*%
G04 Gerber Fmt 4.6, Leading zero omitted, Abs format (unit mm)*
G04 Created by KiCad (PCBNEW (5.1.4)-1) date 2024-10-11 12:26:31*
%MOMM*%
%LPD*%
G04 APERTURE LIST*
%ADD10C,0.050000*%
G04 APERTURE END LIST*
D10*
X142100000Y2900000D02*
X142900000Y2900000D01*
X71330000Y-27370000D02*
X56990000Y-21580000D01*
X51620000Y-24790000D02*
X38250000Y-19400000D01*
X228090000Y-21550000D02*
X213410000Y-27480000D01*
X246720000Y-19380000D02*
X233190000Y-24840000D01*
X117994823Y33179110D02*
X134025000Y26700000D01*
X141500000Y-81700000D02*
X143500000Y-81700000D01*
X150315867Y25800000D02*
X150975000Y26700000D01*
X146700000Y2900000D02*
X150300000Y6500000D01*
X146700000Y2900000D02*
X142900000Y2900000D01*
X150315867Y25800000D02*
X150300000Y6500000D01*
X181609192Y-81716377D02*
X143500000Y-81700000D01*
X255067676Y-32623597D02*
X236987591Y-39928425D01*
X255343965Y-31972702D02*
X255067676Y-32623597D01*
X167005177Y33179110D02*
X150975000Y26700000D01*
X181609192Y-81716377D02*
X236987591Y-39928425D01*
X167005177Y33179110D02*
X180200000Y38500000D01*
X255343965Y-31972702D02*
X251223292Y-21773679D01*
X29656035Y-31972702D02*
X33776708Y-21773679D01*
X51620000Y-24790000D02*
X56990000Y-21580000D01*
X38250000Y-19400000D02*
X33776708Y-21773679D01*
X117994823Y33179110D02*
X104800000Y38500000D01*
X138300000Y2900000D02*
X134700000Y6500000D01*
X29932324Y-32623597D02*
X48012409Y-39928425D01*
X73900000Y-26400000D02*
X99200000Y36100000D01*
X103390808Y-81716377D02*
X48012409Y-39928425D01*
X73900000Y-26400000D02*
X71330000Y-27370000D01*
X138300000Y2900000D02*
X142100000Y2900000D01*
X29656035Y-31972702D02*
X29932324Y-32623597D01*
X211100000Y-26400000D02*
X213410000Y-27480000D01*
X99200000Y36100000D02*
X104800000Y38500000D01*
X134684133Y25800000D02*
X134700000Y6500000D01*
X103390808Y-81716377D02*
X141500000Y-81700000D01*
X134684133Y25800000D02*
X134025000Y26700000D01*
X185800000Y36100000D02*
X180200000Y38500000D01*
X211100000Y-26400000D02*
X185800000Y36100000D01*
X233190000Y-24840000D02*
X228090000Y-21550000D01*
X246720000Y-19380000D02*
X251223292Y-21773679D01*
M02*
