%FSLAX45Y45*%
G04 Gerber Fmt 4.5, Leading zero omitted, Abs format (unit mm)*
G04 Created by KiCad (PCBNEW (5.1.4)-1) date 2023-05-25 15:27:50*
%MOMM*%
%LPD*%
G04 APERTURE LIST*
%ADD10C,0.050000*%
%ADD11C,0.200000*%
%ADD12C,0.300000*%
G04 APERTURE END LIST*
D10*
X14280000Y23690000D02*
X14220000Y23690000D01*
X14150000Y12930000D02*
X14350000Y12930000D01*
X17677500Y15981000D02*
X17802500Y15937500D01*
X14570000Y23690000D02*
X14280000Y23690000D01*
X18160919Y12928362D02*
X14350000Y12930000D01*
X21186000Y17307000D02*
X21344000Y17279000D01*
X18160919Y12928362D02*
X22110000Y15910000D01*
X10822500Y15981000D02*
X13930000Y23690000D01*
X6390000Y16260000D02*
X7156000Y17279000D01*
X13930000Y23690000D02*
X14220000Y23690000D01*
X10339081Y12928362D02*
X6390000Y15910000D01*
X7314000Y17307000D02*
X10697500Y15937500D01*
X10822500Y15981000D02*
X10697500Y15937500D01*
X7314000Y17307000D02*
X7156000Y17279000D01*
X6390000Y15910000D02*
X6390000Y16260000D01*
X10339081Y12928362D02*
X14150000Y12930000D01*
X17677500Y15981000D02*
X14570000Y23690000D01*
X21186000Y17307000D02*
X17802500Y15937500D01*
X22110000Y16260000D02*
X21344000Y17279000D01*
X22110000Y15910000D02*
X22110000Y16260000D01*
D11*
X21701709Y15851931D02*
X21801709Y15751931D01*
X21801709Y15851931D02*
X21701709Y15751931D01*
X6500453Y16004612D02*
X6600453Y15904612D01*
X6600453Y16004612D02*
X6500453Y15904612D01*
X9085889Y14045255D02*
X9185889Y13945255D01*
X9185889Y14045255D02*
X9085889Y13945255D01*
X9238750Y14248108D02*
X9338750Y14148108D01*
X9338750Y14248108D02*
X9238750Y14148108D01*
X9391611Y14450961D02*
X9491611Y14350961D01*
X9491611Y14450961D02*
X9391611Y14350961D01*
X9544472Y14653815D02*
X9644472Y14553815D01*
X9644472Y14653815D02*
X9544472Y14553815D01*
X18858148Y14652189D02*
X18958148Y14552189D01*
X18958148Y14652189D02*
X18858148Y14552189D01*
X19011009Y14449336D02*
X19111009Y14349336D01*
X19111009Y14449336D02*
X19011009Y14349336D01*
X19163870Y14246482D02*
X19263870Y14146482D01*
X19263870Y14246482D02*
X19163870Y14146482D01*
X19316731Y14043629D02*
X19416731Y13943629D01*
X19416731Y14043629D02*
X19316731Y13943629D01*
X21296003Y15546209D02*
X21396003Y15446209D01*
X21396003Y15546209D02*
X21296003Y15446209D01*
X21498856Y15699070D02*
X21598856Y15599070D01*
X21598856Y15699070D02*
X21498856Y15599070D01*
X21904563Y16004792D02*
X22004563Y15904792D01*
X22004563Y16004792D02*
X21904563Y15904792D01*
X14200000Y21200000D02*
X14300000Y21100000D01*
X14300000Y21200000D02*
X14200000Y21100000D01*
X14200000Y20946000D02*
X14300000Y20846000D01*
X14300000Y20946000D02*
X14200000Y20846000D01*
X14200000Y20692000D02*
X14300000Y20592000D01*
X14300000Y20692000D02*
X14200000Y20592000D01*
X14200000Y20438000D02*
X14300000Y20338000D01*
X14300000Y20438000D02*
X14200000Y20338000D01*
X6703306Y15851751D02*
X6803306Y15751751D01*
X6803306Y15851751D02*
X6703306Y15751751D01*
X6906160Y15698890D02*
X7006160Y15598890D01*
X7006160Y15698890D02*
X6906160Y15598890D01*
X7109013Y15546029D02*
X7209013Y15446029D01*
X7209013Y15546029D02*
X7109013Y15446029D01*
X19781419Y14704005D02*
G75*
G03X19781419Y14704005I-73500J0D01*
G01*
X19813129Y14655277D02*
G75*
G03X19813129Y14655277I-73500J0D01*
G01*
X20150646Y15044844D02*
G75*
G03X20150646Y15044844I-73500J0D01*
G01*
X20167402Y15240283D02*
G75*
G03X20167402Y15240283I-73500J0D01*
G01*
X21298826Y15847454D02*
G75*
G03X21298826Y15847454I-73500J0D01*
G01*
X21330537Y15798726D02*
G75*
G03X21330537Y15798726I-73500J0D01*
G01*
X21668053Y16188293D02*
G75*
G03X21668053Y16188293I-73500J0D01*
G01*
X21684809Y16383732D02*
G75*
G03X21684809Y16383732I-73500J0D01*
G01*
X9948191Y13819177D02*
G75*
G03X9948191Y13819177I-73500J0D01*
G01*
X9986291Y13863090D02*
G75*
G03X9986291Y13863090I-73500J0D01*
G01*
X10415700Y13602114D02*
G75*
G03X10415700Y13602114I-73500J0D01*
G01*
X10608186Y13639877D02*
G75*
G03X10608186Y13639877I-73500J0D01*
G01*
X18264011Y13560557D02*
G75*
G03X18264011Y13560557I-73500J0D01*
G01*
X18295722Y13511829D02*
G75*
G03X18295722Y13511829I-73500J0D01*
G01*
X18633238Y13901396D02*
G75*
G03X18633238Y13901396I-73500J0D01*
G01*
X18649994Y14096835D02*
G75*
G03X18649994Y14096835I-73500J0D01*
G01*
X6913376Y16106074D02*
G75*
G03X6913376Y16106074I-73500J0D01*
G01*
X6951476Y16149987D02*
G75*
G03X6951476Y16149987I-73500J0D01*
G01*
X7380885Y15889011D02*
G75*
G03X7380885Y15889011I-73500J0D01*
G01*
X7573371Y15926775D02*
G75*
G03X7573371Y15926775I-73500J0D01*
G01*
X8430784Y14962625D02*
G75*
G03X8430784Y14962625I-73500J0D01*
G01*
X8468884Y15006539D02*
G75*
G03X8468884Y15006539I-73500J0D01*
G01*
X8898292Y14745563D02*
G75*
G03X8898292Y14745563I-73500J0D01*
G01*
X9090778Y14783326D02*
G75*
G03X9090778Y14783326I-73500J0D01*
G01*
D12*
X6673928Y12460148D02*
X6673928Y12760148D01*
X6745357Y12760148D01*
X6788214Y12745862D01*
X6816786Y12717291D01*
X6831071Y12688719D01*
X6845357Y12631576D01*
X6845357Y12588719D01*
X6831071Y12531576D01*
X6816786Y12503005D01*
X6788214Y12474434D01*
X6745357Y12460148D01*
X6673928Y12460148D01*
X6973928Y12460148D02*
X6973928Y12660148D01*
X6973928Y12603005D02*
X6988214Y12631576D01*
X7002500Y12645862D01*
X7031071Y12660148D01*
X7059643Y12660148D01*
X7159643Y12460148D02*
X7159643Y12660148D01*
X7159643Y12760148D02*
X7145357Y12745862D01*
X7159643Y12731576D01*
X7173928Y12745862D01*
X7159643Y12760148D01*
X7159643Y12731576D01*
X7345357Y12460148D02*
X7316786Y12474434D01*
X7302500Y12503005D01*
X7302500Y12760148D01*
X7502500Y12460148D02*
X7473928Y12474434D01*
X7459643Y12503005D01*
X7459643Y12760148D01*
X7845357Y12460148D02*
X7845357Y12760148D01*
X7945357Y12545862D01*
X8045357Y12760148D01*
X8045357Y12460148D01*
X8316786Y12460148D02*
X8316786Y12617291D01*
X8302500Y12645862D01*
X8273928Y12660148D01*
X8216786Y12660148D01*
X8188214Y12645862D01*
X8316786Y12474434D02*
X8288214Y12460148D01*
X8216786Y12460148D01*
X8188214Y12474434D01*
X8173928Y12503005D01*
X8173928Y12531576D01*
X8188214Y12560148D01*
X8216786Y12574434D01*
X8288214Y12574434D01*
X8316786Y12588719D01*
X8459643Y12660148D02*
X8459643Y12360148D01*
X8459643Y12645862D02*
X8488214Y12660148D01*
X8545357Y12660148D01*
X8573928Y12645862D01*
X8588214Y12631576D01*
X8602500Y12603005D01*
X8602500Y12517291D01*
X8588214Y12488719D01*
X8573928Y12474434D01*
X8545357Y12460148D01*
X8488214Y12460148D01*
X8459643Y12474434D01*
X8731071Y12488719D02*
X8745357Y12474434D01*
X8731071Y12460148D01*
X8716786Y12474434D01*
X8731071Y12488719D01*
X8731071Y12460148D01*
X8731071Y12645862D02*
X8745357Y12631576D01*
X8731071Y12617291D01*
X8716786Y12631576D01*
X8731071Y12645862D01*
X8731071Y12617291D01*
X6287500Y12015862D02*
X6387500Y11915862D01*
X6387500Y12015862D02*
X6287500Y11915862D01*
X6831071Y11830148D02*
X6659643Y11830148D01*
X6745357Y11830148D02*
X6745357Y12130148D01*
X6716786Y12087291D01*
X6688214Y12058719D01*
X6659643Y12044434D01*
X6959643Y11858719D02*
X6973928Y11844434D01*
X6959643Y11830148D01*
X6945357Y11844434D01*
X6959643Y11858719D01*
X6959643Y11830148D01*
X7159643Y12130148D02*
X7188214Y12130148D01*
X7216786Y12115862D01*
X7231071Y12101576D01*
X7245357Y12073005D01*
X7259643Y12015862D01*
X7259643Y11944434D01*
X7245357Y11887291D01*
X7231071Y11858719D01*
X7216786Y11844434D01*
X7188214Y11830148D01*
X7159643Y11830148D01*
X7131071Y11844434D01*
X7116786Y11858719D01*
X7102500Y11887291D01*
X7088214Y11944434D01*
X7088214Y12015862D01*
X7102500Y12073005D01*
X7116786Y12101576D01*
X7131071Y12115862D01*
X7159643Y12130148D01*
X7445357Y12130148D02*
X7473928Y12130148D01*
X7502500Y12115862D01*
X7516786Y12101576D01*
X7531071Y12073005D01*
X7545357Y12015862D01*
X7545357Y11944434D01*
X7531071Y11887291D01*
X7516786Y11858719D01*
X7502500Y11844434D01*
X7473928Y11830148D01*
X7445357Y11830148D01*
X7416786Y11844434D01*
X7402500Y11858719D01*
X7388214Y11887291D01*
X7373928Y11944434D01*
X7373928Y12015862D01*
X7388214Y12073005D01*
X7402500Y12101576D01*
X7416786Y12115862D01*
X7445357Y12130148D01*
X7673928Y11830148D02*
X7673928Y12030148D01*
X7673928Y12001576D02*
X7688214Y12015862D01*
X7716786Y12030148D01*
X7759643Y12030148D01*
X7788214Y12015862D01*
X7802500Y11987291D01*
X7802500Y11830148D01*
X7802500Y11987291D02*
X7816786Y12015862D01*
X7845357Y12030148D01*
X7888214Y12030148D01*
X7916786Y12015862D01*
X7931071Y11987291D01*
X7931071Y11830148D01*
X8073928Y11830148D02*
X8073928Y12030148D01*
X8073928Y12001576D02*
X8088214Y12015862D01*
X8116786Y12030148D01*
X8159643Y12030148D01*
X8188214Y12015862D01*
X8202500Y11987291D01*
X8202500Y11830148D01*
X8202500Y11987291D02*
X8216786Y12015862D01*
X8245357Y12030148D01*
X8288214Y12030148D01*
X8316786Y12015862D01*
X8331071Y11987291D01*
X8331071Y11830148D01*
X8916786Y12144434D02*
X8659643Y11758719D01*
X9302500Y12130148D02*
X9331071Y12130148D01*
X9359643Y12115862D01*
X9373928Y12101576D01*
X9388214Y12073005D01*
X9402500Y12015862D01*
X9402500Y11944434D01*
X9388214Y11887291D01*
X9373928Y11858719D01*
X9359643Y11844434D01*
X9331071Y11830148D01*
X9302500Y11830148D01*
X9273928Y11844434D01*
X9259643Y11858719D01*
X9245357Y11887291D01*
X9231071Y11944434D01*
X9231071Y12015862D01*
X9245357Y12073005D01*
X9259643Y12101576D01*
X9273928Y12115862D01*
X9302500Y12130148D01*
X9531071Y11858719D02*
X9545357Y11844434D01*
X9531071Y11830148D01*
X9516786Y11844434D01*
X9531071Y11858719D01*
X9531071Y11830148D01*
X9731071Y12130148D02*
X9759643Y12130148D01*
X9788214Y12115862D01*
X9802500Y12101576D01*
X9816786Y12073005D01*
X9831071Y12015862D01*
X9831071Y11944434D01*
X9816786Y11887291D01*
X9802500Y11858719D01*
X9788214Y11844434D01*
X9759643Y11830148D01*
X9731071Y11830148D01*
X9702500Y11844434D01*
X9688214Y11858719D01*
X9673928Y11887291D01*
X9659643Y11944434D01*
X9659643Y12015862D01*
X9673928Y12073005D01*
X9688214Y12101576D01*
X9702500Y12115862D01*
X9731071Y12130148D01*
X9931071Y12130148D02*
X10116786Y12130148D01*
X10016786Y12015862D01*
X10059643Y12015862D01*
X10088214Y12001576D01*
X10102500Y11987291D01*
X10116786Y11958719D01*
X10116786Y11887291D01*
X10102500Y11858719D01*
X10088214Y11844434D01*
X10059643Y11830148D01*
X9973928Y11830148D01*
X9945357Y11844434D01*
X9931071Y11858719D01*
X10259643Y11830148D02*
X10316786Y11830148D01*
X10345357Y11844434D01*
X10359643Y11858719D01*
X10388214Y11901576D01*
X10402500Y11958719D01*
X10402500Y12073005D01*
X10388214Y12101576D01*
X10373928Y12115862D01*
X10345357Y12130148D01*
X10288214Y12130148D01*
X10259643Y12115862D01*
X10245357Y12101576D01*
X10231071Y12073005D01*
X10231071Y12001576D01*
X10245357Y11973005D01*
X10259643Y11958719D01*
X10288214Y11944434D01*
X10345357Y11944434D01*
X10373928Y11958719D01*
X10388214Y11973005D01*
X10402500Y12001576D01*
X10516786Y12130148D02*
X10516786Y12073005D01*
X10631071Y12130148D02*
X10631071Y12073005D01*
X11073928Y11715862D02*
X11059643Y11730148D01*
X11031071Y11773005D01*
X11016786Y11801576D01*
X11002500Y11844434D01*
X10988214Y11915862D01*
X10988214Y11973005D01*
X11002500Y12044434D01*
X11016786Y12087291D01*
X11031071Y12115862D01*
X11059643Y12158719D01*
X11073928Y12173005D01*
X11173928Y12101576D02*
X11188214Y12115862D01*
X11216786Y12130148D01*
X11288214Y12130148D01*
X11316786Y12115862D01*
X11331071Y12101576D01*
X11345357Y12073005D01*
X11345357Y12044434D01*
X11331071Y12001576D01*
X11159643Y11830148D01*
X11345357Y11830148D01*
X11531071Y12130148D02*
X11559643Y12130148D01*
X11588214Y12115862D01*
X11602500Y12101576D01*
X11616786Y12073005D01*
X11631071Y12015862D01*
X11631071Y11944434D01*
X11616786Y11887291D01*
X11602500Y11858719D01*
X11588214Y11844434D01*
X11559643Y11830148D01*
X11531071Y11830148D01*
X11502500Y11844434D01*
X11488214Y11858719D01*
X11473928Y11887291D01*
X11459643Y11944434D01*
X11459643Y12015862D01*
X11473928Y12073005D01*
X11488214Y12101576D01*
X11502500Y12115862D01*
X11531071Y12130148D01*
X11988214Y11830148D02*
X11988214Y12130148D01*
X12116786Y11830148D02*
X12116786Y11987291D01*
X12102500Y12015862D01*
X12073928Y12030148D01*
X12031071Y12030148D01*
X12002500Y12015862D01*
X11988214Y12001576D01*
X12302500Y11830148D02*
X12273928Y11844434D01*
X12259643Y11858719D01*
X12245357Y11887291D01*
X12245357Y11973005D01*
X12259643Y12001576D01*
X12273928Y12015862D01*
X12302500Y12030148D01*
X12345357Y12030148D01*
X12373928Y12015862D01*
X12388214Y12001576D01*
X12402500Y11973005D01*
X12402500Y11887291D01*
X12388214Y11858719D01*
X12373928Y11844434D01*
X12345357Y11830148D01*
X12302500Y11830148D01*
X12573928Y11830148D02*
X12545357Y11844434D01*
X12531071Y11873005D01*
X12531071Y12130148D01*
X12802500Y11844434D02*
X12773928Y11830148D01*
X12716786Y11830148D01*
X12688214Y11844434D01*
X12673928Y11873005D01*
X12673928Y11987291D01*
X12688214Y12015862D01*
X12716786Y12030148D01*
X12773928Y12030148D01*
X12802500Y12015862D01*
X12816786Y11987291D01*
X12816786Y11958719D01*
X12673928Y11930148D01*
X12931071Y11844434D02*
X12959643Y11830148D01*
X13016786Y11830148D01*
X13045357Y11844434D01*
X13059643Y11873005D01*
X13059643Y11887291D01*
X13045357Y11915862D01*
X13016786Y11930148D01*
X12973928Y11930148D01*
X12945357Y11944434D01*
X12931071Y11973005D01*
X12931071Y11987291D01*
X12945357Y12015862D01*
X12973928Y12030148D01*
X13016786Y12030148D01*
X13045357Y12015862D01*
X13159643Y11715862D02*
X13173928Y11730148D01*
X13202500Y11773005D01*
X13216786Y11801576D01*
X13231071Y11844434D01*
X13245357Y11915862D01*
X13245357Y11973005D01*
X13231071Y12044434D01*
X13216786Y12087291D01*
X13202500Y12115862D01*
X13173928Y12158719D01*
X13159643Y12173005D01*
X6387500Y11569862D02*
G75*
G03X6387500Y11569862I-73500J0D01*
G01*
X6831071Y11434148D02*
X6659643Y11434148D01*
X6745357Y11434148D02*
X6745357Y11734148D01*
X6716786Y11691291D01*
X6688214Y11662719D01*
X6659643Y11648434D01*
X6959643Y11462719D02*
X6973928Y11448434D01*
X6959643Y11434148D01*
X6945357Y11448434D01*
X6959643Y11462719D01*
X6959643Y11434148D01*
X7231071Y11634148D02*
X7231071Y11434148D01*
X7159643Y11748434D02*
X7088214Y11534148D01*
X7273928Y11534148D01*
X7359643Y11734148D02*
X7559643Y11734148D01*
X7431071Y11434148D01*
X7673928Y11434148D02*
X7673928Y11634148D01*
X7673928Y11605576D02*
X7688214Y11619862D01*
X7716786Y11634148D01*
X7759643Y11634148D01*
X7788214Y11619862D01*
X7802500Y11591291D01*
X7802500Y11434148D01*
X7802500Y11591291D02*
X7816786Y11619862D01*
X7845357Y11634148D01*
X7888214Y11634148D01*
X7916786Y11619862D01*
X7931071Y11591291D01*
X7931071Y11434148D01*
X8073928Y11434148D02*
X8073928Y11634148D01*
X8073928Y11605576D02*
X8088214Y11619862D01*
X8116786Y11634148D01*
X8159643Y11634148D01*
X8188214Y11619862D01*
X8202500Y11591291D01*
X8202500Y11434148D01*
X8202500Y11591291D02*
X8216786Y11619862D01*
X8245357Y11634148D01*
X8288214Y11634148D01*
X8316786Y11619862D01*
X8331071Y11591291D01*
X8331071Y11434148D01*
X8916786Y11748434D02*
X8659643Y11362719D01*
X9302500Y11734148D02*
X9331071Y11734148D01*
X9359643Y11719862D01*
X9373928Y11705576D01*
X9388214Y11677005D01*
X9402500Y11619862D01*
X9402500Y11548434D01*
X9388214Y11491291D01*
X9373928Y11462719D01*
X9359643Y11448434D01*
X9331071Y11434148D01*
X9302500Y11434148D01*
X9273928Y11448434D01*
X9259643Y11462719D01*
X9245357Y11491291D01*
X9231071Y11548434D01*
X9231071Y11619862D01*
X9245357Y11677005D01*
X9259643Y11705576D01*
X9273928Y11719862D01*
X9302500Y11734148D01*
X9531071Y11462719D02*
X9545357Y11448434D01*
X9531071Y11434148D01*
X9516786Y11448434D01*
X9531071Y11462719D01*
X9531071Y11434148D01*
X9731071Y11734148D02*
X9759643Y11734148D01*
X9788214Y11719862D01*
X9802500Y11705576D01*
X9816786Y11677005D01*
X9831071Y11619862D01*
X9831071Y11548434D01*
X9816786Y11491291D01*
X9802500Y11462719D01*
X9788214Y11448434D01*
X9759643Y11434148D01*
X9731071Y11434148D01*
X9702500Y11448434D01*
X9688214Y11462719D01*
X9673928Y11491291D01*
X9659643Y11548434D01*
X9659643Y11619862D01*
X9673928Y11677005D01*
X9688214Y11705576D01*
X9702500Y11719862D01*
X9731071Y11734148D01*
X10102500Y11734148D02*
X9959643Y11734148D01*
X9945357Y11591291D01*
X9959643Y11605576D01*
X9988214Y11619862D01*
X10059643Y11619862D01*
X10088214Y11605576D01*
X10102500Y11591291D01*
X10116786Y11562719D01*
X10116786Y11491291D01*
X10102500Y11462719D01*
X10088214Y11448434D01*
X10059643Y11434148D01*
X9988214Y11434148D01*
X9959643Y11448434D01*
X9945357Y11462719D01*
X10288214Y11605576D02*
X10259643Y11619862D01*
X10245357Y11634148D01*
X10231071Y11662719D01*
X10231071Y11677005D01*
X10245357Y11705576D01*
X10259643Y11719862D01*
X10288214Y11734148D01*
X10345357Y11734148D01*
X10373928Y11719862D01*
X10388214Y11705576D01*
X10402500Y11677005D01*
X10402500Y11662719D01*
X10388214Y11634148D01*
X10373928Y11619862D01*
X10345357Y11605576D01*
X10288214Y11605576D01*
X10259643Y11591291D01*
X10245357Y11577005D01*
X10231071Y11548434D01*
X10231071Y11491291D01*
X10245357Y11462719D01*
X10259643Y11448434D01*
X10288214Y11434148D01*
X10345357Y11434148D01*
X10373928Y11448434D01*
X10388214Y11462719D01*
X10402500Y11491291D01*
X10402500Y11548434D01*
X10388214Y11577005D01*
X10373928Y11591291D01*
X10345357Y11605576D01*
X10516786Y11734148D02*
X10516786Y11677005D01*
X10631071Y11734148D02*
X10631071Y11677005D01*
X11073928Y11319862D02*
X11059643Y11334148D01*
X11031071Y11377005D01*
X11016786Y11405576D01*
X11002500Y11448434D01*
X10988214Y11519862D01*
X10988214Y11577005D01*
X11002500Y11648434D01*
X11016786Y11691291D01*
X11031071Y11719862D01*
X11059643Y11762719D01*
X11073928Y11777005D01*
X11173928Y11705576D02*
X11188214Y11719862D01*
X11216786Y11734148D01*
X11288214Y11734148D01*
X11316786Y11719862D01*
X11331071Y11705576D01*
X11345357Y11677005D01*
X11345357Y11648434D01*
X11331071Y11605576D01*
X11159643Y11434148D01*
X11345357Y11434148D01*
X11602500Y11634148D02*
X11602500Y11434148D01*
X11531071Y11748434D02*
X11459643Y11534148D01*
X11645357Y11534148D01*
X11988214Y11434148D02*
X11988214Y11734148D01*
X12116786Y11434148D02*
X12116786Y11591291D01*
X12102500Y11619862D01*
X12073928Y11634148D01*
X12031071Y11634148D01*
X12002500Y11619862D01*
X11988214Y11605576D01*
X12302500Y11434148D02*
X12273928Y11448434D01*
X12259643Y11462719D01*
X12245357Y11491291D01*
X12245357Y11577005D01*
X12259643Y11605576D01*
X12273928Y11619862D01*
X12302500Y11634148D01*
X12345357Y11634148D01*
X12373928Y11619862D01*
X12388214Y11605576D01*
X12402500Y11577005D01*
X12402500Y11491291D01*
X12388214Y11462719D01*
X12373928Y11448434D01*
X12345357Y11434148D01*
X12302500Y11434148D01*
X12573928Y11434148D02*
X12545357Y11448434D01*
X12531071Y11477005D01*
X12531071Y11734148D01*
X12802500Y11448434D02*
X12773928Y11434148D01*
X12716786Y11434148D01*
X12688214Y11448434D01*
X12673928Y11477005D01*
X12673928Y11591291D01*
X12688214Y11619862D01*
X12716786Y11634148D01*
X12773928Y11634148D01*
X12802500Y11619862D01*
X12816786Y11591291D01*
X12816786Y11562719D01*
X12673928Y11534148D01*
X12931071Y11448434D02*
X12959643Y11434148D01*
X13016786Y11434148D01*
X13045357Y11448434D01*
X13059643Y11477005D01*
X13059643Y11491291D01*
X13045357Y11519862D01*
X13016786Y11534148D01*
X12973928Y11534148D01*
X12945357Y11548434D01*
X12931071Y11577005D01*
X12931071Y11591291D01*
X12945357Y11619862D01*
X12973928Y11634148D01*
X13016786Y11634148D01*
X13045357Y11619862D01*
X13159643Y11319862D02*
X13173928Y11334148D01*
X13202500Y11377005D01*
X13216786Y11405576D01*
X13231071Y11448434D01*
X13245357Y11519862D01*
X13245357Y11577005D01*
X13231071Y11648434D01*
X13216786Y11691291D01*
X13202500Y11719862D01*
X13173928Y11762719D01*
X13159643Y11777005D01*
M02*
