G04 #@! TF.GenerationSoftware,KiCad,Pcbnew,(5.1.4)-1*
G04 #@! TF.CreationDate,2023-05-25T15:27:45-04:00*
G04 #@! TF.ProjectId,ThumbsUp,5468756d-6273-4557-902e-6b696361645f,rev?*
G04 #@! TF.SameCoordinates,Original*
G04 #@! TF.FileFunction,Copper,L2,Bot*
G04 #@! TF.FilePolarity,Positive*
%FSLAX46Y46*%
G04 Gerber Fmt 4.6, Leading zero omitted, Abs format (unit mm)*
G04 Created by KiCad (PCBNEW (5.1.4)-1) date 2023-05-25 15:27:45*
%MOMM*%
%LPD*%
G04 APERTURE LIST*
%ADD10C,1.700000*%
%ADD11C,1.700000*%
%ADD12C,0.100000*%
%ADD13R,1.700000X1.700000*%
%ADD14O,1.700000X1.700000*%
%ADD15C,2.500000*%
%ADD16C,2.250000*%
%ADD17C,2.250000*%
%ADD18R,1.500000X0.800000*%
%ADD19R,1.500000X0.600000*%
%ADD20C,0.254000*%
%ADD21C,0.508000*%
G04 APERTURE END LIST*
D10*
X213460025Y154962088D03*
D11*
X213460025Y154962088D02*
X213460025Y154962088D01*
D10*
X215488560Y156490698D03*
D11*
X215488560Y156490698D02*
X215488560Y156490698D01*
D10*
X217517094Y158019308D03*
D11*
X217517094Y158019308D02*
X217517094Y158019308D01*
D10*
X219545628Y159547918D03*
D12*
G36*
X220736011Y159380621D02*
G01*
X219378331Y158357535D01*
X218355245Y159715215D01*
X219712925Y160738301D01*
X220736011Y159380621D01*
X220736011Y159380621D01*
G37*
D13*
X142500000Y211500000D03*
D14*
X142500000Y208960000D03*
X142500000Y206420000D03*
X142500000Y203880000D03*
D10*
X71590133Y154960293D03*
D12*
G36*
X71757430Y153769910D02*
G01*
X70399750Y154792996D01*
X71422836Y156150676D01*
X72780516Y155127590D01*
X71757430Y153769910D01*
X71757430Y153769910D01*
G37*
D10*
X69561599Y156488903D03*
D11*
X69561599Y156488903D02*
X69561599Y156488903D01*
D10*
X67533065Y158017513D03*
D11*
X67533065Y158017513D02*
X67533065Y158017513D01*
D10*
X65504530Y159546123D03*
D11*
X65504530Y159546123D02*
X65504530Y159546123D01*
D10*
X95944722Y146038149D03*
D12*
G36*
X97135105Y146205446D02*
G01*
X96112019Y144847766D01*
X94754339Y145870852D01*
X95777425Y147228532D01*
X97135105Y146205446D01*
X97135105Y146205446D01*
G37*
D10*
X94416112Y144009615D03*
D11*
X94416112Y144009615D02*
X94416112Y144009615D01*
D10*
X92887502Y141981081D03*
D11*
X92887502Y141981081D02*
X92887502Y141981081D01*
D10*
X91358892Y139952546D03*
D11*
X91358892Y139952546D02*
X91358892Y139952546D01*
D10*
X193667308Y139936287D03*
D11*
X193667308Y139936287D02*
X193667308Y139936287D01*
D10*
X192138698Y141964822D03*
D11*
X192138698Y141964822D02*
X192138698Y141964822D01*
D10*
X190610088Y143993356D03*
D11*
X190610088Y143993356D02*
X190610088Y143993356D01*
D10*
X189081478Y146021890D03*
D12*
G36*
X189248775Y147212273D02*
G01*
X190271861Y145854593D01*
X188914181Y144831507D01*
X187891095Y146189187D01*
X189248775Y147212273D01*
X189248775Y147212273D01*
G37*
D15*
X99702944Y147012618D03*
D12*
G36*
X97932415Y146781638D02*
G01*
X99436953Y148778227D01*
X101473473Y147243598D01*
X99968935Y145247009D01*
X97932415Y146781638D01*
X97932415Y146781638D01*
G37*
D15*
X111555515Y141261489D03*
D12*
G36*
X109784986Y141030509D02*
G01*
X111289524Y143027098D01*
X113326044Y141492469D01*
X111821506Y139495880D01*
X109784986Y141030509D01*
X109784986Y141030509D01*
G37*
D16*
X103421995Y136021144D03*
X104384425Y136209960D03*
D17*
X105346857Y136398775D02*
X103421993Y136021145D01*
D16*
X98746911Y138191766D03*
X98937411Y138411334D03*
D17*
X99127910Y138630902D02*
X98746912Y138191766D01*
D15*
X84528870Y158447104D03*
D12*
G36*
X82758341Y158216124D02*
G01*
X84262879Y160212713D01*
X86299399Y158678084D01*
X84794861Y156681495D01*
X82758341Y158216124D01*
X82758341Y158216124D01*
G37*
D15*
X96381441Y152695975D03*
D12*
G36*
X94610912Y152464995D02*
G01*
X96115450Y154461584D01*
X98151970Y152926955D01*
X96647432Y150930366D01*
X94610912Y152464995D01*
X94610912Y152464995D01*
G37*
D16*
X88247921Y147455630D03*
X89210351Y147644446D03*
D17*
X90172783Y147833261D02*
X88247919Y147455631D01*
D16*
X83572837Y149626252D03*
X83763337Y149845820D03*
D17*
X83953836Y150065388D02*
X83572838Y149626252D01*
D16*
X197237740Y146796411D03*
D17*
X197079186Y147040052D02*
X197396294Y146552770D01*
D16*
X197396293Y146552770D03*
X200855236Y151425637D03*
D17*
X200939018Y152402830D02*
X200771454Y150448444D01*
D16*
X200771456Y150448445D03*
D15*
X197976015Y159711321D03*
D12*
G36*
X197710024Y157945712D02*
G01*
X196205486Y159942301D01*
X198242006Y161476930D01*
X199746544Y159480341D01*
X197710024Y157945712D01*
X197710024Y157945712D01*
G37*
D15*
X189180664Y149903124D03*
D12*
G36*
X188914673Y148137515D02*
G01*
X187410135Y150134104D01*
X189446655Y151668733D01*
X190951193Y149672144D01*
X188914673Y148137515D01*
X188914673Y148137515D01*
G37*
D15*
X204354739Y161337610D03*
D12*
G36*
X204088748Y159572001D02*
G01*
X202584210Y161568590D01*
X204620730Y163103219D01*
X206125268Y161106630D01*
X204088748Y159572001D01*
X204088748Y159572001D01*
G37*
D15*
X213150090Y171145807D03*
D12*
G36*
X212884099Y169380198D02*
G01*
X211379561Y171376787D01*
X213416081Y172911416D01*
X214920619Y170914827D01*
X212884099Y169380198D01*
X212884099Y169380198D01*
G37*
D16*
X215945531Y161882931D03*
X216029311Y162860123D03*
D17*
X216113093Y163837316D02*
X215945529Y161882930D01*
D16*
X212570368Y157987256D03*
X212411815Y158230897D03*
D17*
X212253261Y158474538D02*
X212570369Y157987256D01*
D16*
X68589262Y161280305D03*
D17*
X68779761Y161499873D02*
X68398763Y161060737D01*
D16*
X68398762Y161060737D03*
X74036276Y159078931D03*
D17*
X74998708Y159267746D02*
X73073844Y158890116D01*
D16*
X73073846Y158890115D03*
D15*
X81207366Y164130460D03*
D12*
G36*
X79436837Y163899480D02*
G01*
X80941375Y165896069D01*
X82977895Y164361440D01*
X81473357Y162364851D01*
X79436837Y163899480D01*
X79436837Y163899480D01*
G37*
D15*
X69354795Y169881589D03*
D12*
G36*
X67584266Y169650609D02*
G01*
X69088804Y171647198D01*
X71125324Y170112569D01*
X69620786Y168115980D01*
X67584266Y169650609D01*
X67584266Y169650609D01*
G37*
D16*
X182063666Y135361927D03*
D17*
X181905112Y135605568D02*
X182222220Y135118286D01*
D16*
X182222219Y135118286D03*
X185681162Y139991153D03*
D17*
X185764944Y140968346D02*
X185597380Y139013960D01*
D16*
X185597382Y139013961D03*
D15*
X182801941Y148276837D03*
D12*
G36*
X182535950Y146511228D02*
G01*
X181031412Y148507817D01*
X183067932Y150042446D01*
X184572470Y148045857D01*
X182535950Y146511228D01*
X182535950Y146511228D01*
G37*
D15*
X174006590Y138468640D03*
D12*
G36*
X173740599Y136703031D02*
G01*
X172236061Y138699620D01*
X174272581Y140234249D01*
X175777119Y138237660D01*
X173740599Y136703031D01*
X173740599Y136703031D01*
G37*
D18*
X167100000Y149250000D03*
X169900000Y149250000D03*
X167100000Y156750000D03*
X169900000Y156750000D03*
D19*
X167100000Y150250000D03*
X169900000Y150750000D03*
X167100000Y151250000D03*
X169900000Y151750000D03*
X167100000Y152250000D03*
X169900000Y152750000D03*
X167100000Y153250000D03*
X169900000Y153750000D03*
X167100000Y154250000D03*
X169900000Y154750000D03*
X167100000Y155250000D03*
X169900000Y155750000D03*
D20*
X170904000Y151750000D02*
X169900000Y151750000D01*
X190435178Y141964822D02*
X187081011Y145318989D01*
X192138698Y141964822D02*
X190435178Y141964822D01*
X187081011Y145318989D02*
X187081011Y147640662D01*
X187081011Y147640662D02*
X182983695Y151737978D01*
X182983695Y151737978D02*
X170916022Y151737978D01*
X170916022Y151737978D02*
X170904000Y151750000D01*
X166096000Y151250000D02*
X167100000Y151250000D01*
X165400000Y151946000D02*
X166096000Y151250000D01*
X165400000Y157500000D02*
X165400000Y151946000D01*
X171340662Y158581011D02*
X166481011Y158581011D01*
X177021672Y152900000D02*
X171340662Y158581011D01*
X166481011Y158581011D02*
X165400000Y157500000D01*
X191400000Y144783268D02*
X191400000Y145962522D01*
X190610088Y143993356D02*
X191400000Y144783268D01*
X191400000Y145962522D02*
X189662522Y147700000D01*
X189662522Y147700000D02*
X188665019Y147700000D01*
X188665019Y147700000D02*
X183465019Y152900000D01*
X183465019Y152900000D02*
X177021672Y152900000D01*
D21*
X186500000Y144978327D02*
X186500000Y147400000D01*
X183150000Y150750000D02*
X171158000Y150750000D01*
X193667308Y139936287D02*
X191542040Y139936287D01*
X191542040Y139936287D02*
X186500000Y144978327D01*
X171158000Y150750000D02*
X169900000Y150750000D01*
X186500000Y147400000D02*
X183150000Y150750000D01*
X168358000Y150250000D02*
X167100000Y150250000D01*
X168500000Y150392000D02*
X168358000Y150250000D01*
X168500000Y157317202D02*
X168500000Y150392000D01*
X171100000Y158000000D02*
X169182798Y158000000D01*
X169182798Y158000000D02*
X168500000Y157317202D01*
X188403821Y147139525D02*
X183224357Y152318989D01*
X188403821Y146699547D02*
X188403821Y147139525D01*
X189081478Y146021890D02*
X188403821Y146699547D01*
X183224357Y152318989D02*
X176781011Y152318989D01*
X176781011Y152318989D02*
X171100000Y158000000D01*
D20*
X203498276Y154962088D02*
X200939018Y152402830D01*
X213460025Y154962088D02*
X203498276Y154962088D01*
X198632347Y159711321D02*
X197976015Y159711321D01*
X203498276Y154962088D02*
X203381580Y154962088D01*
X203381580Y154962088D02*
X198632347Y159711321D01*
X190143944Y148939844D02*
X189180664Y149903124D01*
X191544505Y147539283D02*
X190143944Y148939844D01*
X196579955Y147539283D02*
X191544505Y147539283D01*
X197079186Y147040052D02*
X196579955Y147539283D01*
X212708491Y158019308D02*
X212253261Y158474538D01*
X217517094Y158019308D02*
X212708491Y158019308D01*
X207217811Y158474538D02*
X204354739Y161337610D01*
X212253261Y158474538D02*
X207217811Y158474538D01*
X217210615Y161882931D02*
X215945531Y161882931D01*
X219545628Y159547918D02*
X217210615Y161882931D01*
X216113093Y163837316D02*
X215662684Y163837316D01*
X213150090Y166349910D02*
X213150090Y171145807D01*
X215662684Y163837316D02*
X213150090Y166349910D01*
X73073846Y160126154D02*
X73073846Y158890115D01*
X69800000Y163400000D02*
X73073846Y160126154D01*
X67700000Y163400000D02*
X69800000Y163400000D01*
X66354529Y162054529D02*
X67700000Y163400000D01*
X65504530Y159546123D02*
X66354529Y160396122D01*
X66354529Y160396122D02*
X66354529Y162054529D01*
X81207366Y162465290D02*
X81207366Y164130460D01*
X81207366Y161207366D02*
X81207366Y162465290D01*
X78000000Y158000000D02*
X81207366Y161207366D01*
X74998708Y159267746D02*
X76266454Y158000000D01*
X76266454Y158000000D02*
X78000000Y158000000D01*
X68779761Y161499873D02*
X68779761Y160520239D01*
X68398762Y158883210D02*
X68398762Y161060737D01*
X67533065Y158017513D02*
X68398762Y158883210D01*
X70539987Y158017513D02*
X71403489Y157154011D01*
X67533065Y158017513D02*
X70539987Y158017513D01*
X80100000Y168500000D02*
X75300000Y168500000D01*
X75300000Y168500000D02*
X73300000Y170500000D01*
X71100000Y170500000D02*
X70500000Y169900000D01*
X77954011Y157154011D02*
X84200000Y163400000D01*
X71403489Y157154011D02*
X77954011Y157154011D01*
X73300000Y170500000D02*
X71100000Y170500000D01*
X84200000Y164400000D02*
X80100000Y168500000D01*
X84200000Y163400000D02*
X84200000Y164400000D01*
X69561599Y156488903D02*
X69772696Y156700000D01*
X82781766Y156700000D02*
X84528870Y158447104D01*
X69772696Y156700000D02*
X82781766Y156700000D01*
X83565590Y157483824D02*
X84528870Y158447104D01*
X81900000Y155818234D02*
X83565590Y157483824D01*
X81900000Y152119224D02*
X81900000Y155818234D01*
X83953836Y150065388D02*
X81900000Y152119224D01*
X89639522Y147300000D02*
X90172783Y147833261D01*
X83000000Y147300000D02*
X89639522Y147300000D01*
X74100000Y156200000D02*
X83000000Y147300000D01*
X71590133Y154960293D02*
X72829840Y156200000D01*
X72829840Y156200000D02*
X74100000Y156200000D01*
X96381441Y151030805D02*
X96381441Y152695975D01*
X96381441Y150281441D02*
X96381441Y151030805D01*
X93400000Y147300000D02*
X96381441Y150281441D01*
X90172783Y147833261D02*
X90706044Y147300000D01*
X90706044Y147300000D02*
X93400000Y147300000D01*
X111555515Y139596319D02*
X111555515Y141261489D01*
X111555515Y138455515D02*
X111555515Y139596319D01*
X108800000Y135700000D02*
X111555515Y138455515D01*
X105346857Y136398775D02*
X106045632Y135700000D01*
X106045632Y135700000D02*
X108800000Y135700000D01*
X104969226Y136021144D02*
X105346857Y136398775D01*
X98178856Y136021144D02*
X104969226Y136021144D01*
X91358892Y139952546D02*
X94247454Y139952546D01*
X94247454Y139952546D02*
X98178856Y136021144D01*
X92887502Y141981081D02*
X94957596Y141981081D01*
X95069339Y141869339D02*
X98746911Y138191766D01*
X94957596Y141981081D02*
X95069339Y141869339D01*
X99702944Y146402944D02*
X99702944Y147012618D01*
X95069339Y141869339D02*
X95169339Y141869339D01*
X95169339Y141869339D02*
X99702944Y146402944D01*
X174006590Y137693410D02*
X174006590Y138468640D01*
X181905112Y135605568D02*
X176094432Y135605568D01*
X176094432Y135605568D02*
X174006590Y137693410D01*
X174006590Y132906590D02*
X174006590Y138468640D01*
X98354010Y150754010D02*
X106145990Y150754010D01*
X172400000Y131300000D02*
X174006590Y132906590D01*
X125600000Y131300000D02*
X172400000Y131300000D01*
X94416112Y144009615D02*
X93900000Y144525727D01*
X93900000Y144525727D02*
X93900000Y146300000D01*
X106145990Y150754010D02*
X125600000Y131300000D01*
X93900000Y146300000D02*
X98354010Y150754010D01*
X182801941Y143931349D02*
X182801941Y148276837D01*
X185764944Y140968346D02*
X182801941Y143931349D01*
X172588058Y130845990D02*
X172642068Y130900000D01*
X125411943Y130845989D02*
X172588058Y130845990D01*
X172642068Y130900000D02*
X181400000Y130900000D01*
X105957933Y150299999D02*
X125411943Y130845989D01*
X185597382Y135097382D02*
X185597382Y137422971D01*
X181400000Y130900000D02*
X185597382Y135097382D01*
X100206572Y150299999D02*
X105957933Y150299999D01*
X95944722Y146038149D02*
X100206572Y150299999D01*
X185597382Y137422971D02*
X185597382Y139013961D01*
X142500000Y210396000D02*
X142500000Y203880000D01*
X142500000Y211500000D02*
X142500000Y210396000D01*
M02*
