G04 #@! TF.GenerationSoftware,KiCad,Pcbnew,(5.1.4)-1*
G04 #@! TF.CreationDate,2023-05-25T15:27:45-04:00*
G04 #@! TF.ProjectId,ThumbsUp,5468756d-6273-4557-902e-6b696361645f,rev?*
G04 #@! TF.SameCoordinates,Original*
G04 #@! TF.FileFunction,Soldermask,Bot*
G04 #@! TF.FilePolarity,Negative*
%FSLAX46Y46*%
G04 Gerber Fmt 4.6, Leading zero omitted, Abs format (unit mm)*
G04 Created by KiCad (PCBNEW (5.1.4)-1) date 2023-05-25 15:27:45*
%MOMM*%
%LPD*%
G04 APERTURE LIST*
%ADD10C,0.100000*%
G04 APERTURE END LIST*
D10*
G36*
X182099185Y136767263D02*
G01*
X182149693Y136761669D01*
X182252666Y136729063D01*
X182370537Y136691740D01*
X182573496Y136580069D01*
X182750769Y136430949D01*
X182859264Y136295427D01*
X183203635Y135766252D01*
X183204417Y135765068D01*
X183240341Y135711304D01*
X183264377Y135675331D01*
X183287275Y135620049D01*
X183291803Y135610327D01*
X183319365Y135557221D01*
X183331630Y135514949D01*
X183336184Y135501973D01*
X183353026Y135461313D01*
X183364699Y135402629D01*
X183367238Y135392223D01*
X183383915Y135334744D01*
X183387697Y135290896D01*
X183389635Y135277270D01*
X183398219Y135234114D01*
X183398219Y135174282D01*
X183398679Y135163581D01*
X183403823Y135103949D01*
X183398978Y135060207D01*
X183398219Y135046463D01*
X183398219Y135002460D01*
X183386546Y134943775D01*
X183384907Y134933170D01*
X183384622Y134930597D01*
X183378321Y134873704D01*
X183365039Y134831758D01*
X183361610Y134818414D01*
X183353026Y134775259D01*
X183330128Y134719978D01*
X183326450Y134709891D01*
X183308392Y134652861D01*
X183287183Y134614315D01*
X183281219Y134601902D01*
X183264377Y134561241D01*
X183264376Y134561240D01*
X183231138Y134511495D01*
X183225561Y134502317D01*
X183196721Y134449902D01*
X183168396Y134416230D01*
X183160127Y134405220D01*
X183135680Y134368632D01*
X183093369Y134326321D01*
X183086105Y134318403D01*
X183047601Y134272629D01*
X183013252Y134245130D01*
X183002994Y134235946D01*
X182971873Y134204825D01*
X182922127Y134171586D01*
X182913470Y134165247D01*
X182866762Y134127854D01*
X182827703Y134107582D01*
X182815853Y134100576D01*
X182779266Y134076129D01*
X182779265Y134076128D01*
X182779264Y134076128D01*
X182723974Y134053226D01*
X182714266Y134048707D01*
X182661154Y134021141D01*
X182618895Y134008880D01*
X182605899Y134004318D01*
X182565246Y133987479D01*
X182506552Y133975804D01*
X182496144Y133973264D01*
X182438677Y133956591D01*
X182394837Y133952809D01*
X182381211Y133950872D01*
X182338046Y133942286D01*
X182278204Y133942286D01*
X182267502Y133941826D01*
X182207882Y133936683D01*
X182164145Y133941527D01*
X182150406Y133942286D01*
X182106392Y133942286D01*
X182047708Y133953959D01*
X182037098Y133955598D01*
X181977639Y133962184D01*
X181935682Y133975470D01*
X181922362Y133978892D01*
X181892910Y133984750D01*
X181879196Y133987478D01*
X181879195Y133987478D01*
X181879192Y133987479D01*
X181823880Y134010390D01*
X181813852Y134014047D01*
X181756795Y134032114D01*
X181718246Y134053324D01*
X181705853Y134059278D01*
X181665174Y134076128D01*
X181615399Y134109387D01*
X181606239Y134114952D01*
X181553836Y134143785D01*
X181520167Y134172107D01*
X181509163Y134180371D01*
X181472565Y134204825D01*
X181430243Y134247147D01*
X181422320Y134254415D01*
X181376563Y134292905D01*
X181349073Y134327243D01*
X181339888Y134337502D01*
X181308758Y134368632D01*
X181275509Y134418393D01*
X181269165Y134427057D01*
X181268068Y134428427D01*
X181240902Y134470172D01*
X181240099Y134471388D01*
X181219439Y134502308D01*
X181180061Y134561241D01*
X181180060Y134561244D01*
X181177933Y134564427D01*
X181171009Y134577572D01*
X180887939Y135012550D01*
X180807967Y135166634D01*
X180743417Y135389111D01*
X180723510Y135619905D01*
X180744781Y135811959D01*
X180749011Y135850149D01*
X180804139Y136024249D01*
X180818940Y136070993D01*
X180930611Y136273952D01*
X181079731Y136451225D01*
X181260570Y136596000D01*
X181466178Y136702713D01*
X181688655Y136767263D01*
X181919449Y136787170D01*
X182099185Y136767263D01*
X182099185Y136767263D01*
G37*
G36*
X105435570Y137571801D02*
G01*
X105580434Y137557149D01*
X105801934Y137489323D01*
X106005945Y137379587D01*
X106184627Y137232160D01*
X106331115Y137052705D01*
X106439779Y136848120D01*
X106506442Y136626268D01*
X106528542Y136395673D01*
X106505231Y136165197D01*
X106437405Y135943698D01*
X106327669Y135739687D01*
X106180242Y135561005D01*
X106000787Y135414517D01*
X105796202Y135305853D01*
X105629945Y135255896D01*
X105629935Y135255894D01*
X103650612Y134867579D01*
X103650290Y134867515D01*
X103537822Y134845144D01*
X103484172Y134845144D01*
X103472256Y134844574D01*
X103418892Y134839460D01*
X103418890Y134839460D01*
X103368973Y134844509D01*
X103356394Y134845144D01*
X103306167Y134845144D01*
X103253549Y134855610D01*
X103241744Y134857377D01*
X103203605Y134861235D01*
X103188416Y134862771D01*
X103140432Y134877464D01*
X103128226Y134880539D01*
X103078968Y134890337D01*
X103042755Y134905337D01*
X103029406Y134910866D01*
X103018195Y134914895D01*
X102966916Y134930597D01*
X102922700Y134954380D01*
X102911360Y134959762D01*
X102864950Y134978986D01*
X102820345Y135008790D01*
X102810142Y135014925D01*
X102762905Y135040333D01*
X102724184Y135072281D01*
X102714089Y135079788D01*
X102672341Y135107683D01*
X102634410Y135145614D01*
X102625585Y135153633D01*
X102584223Y135187760D01*
X102552487Y135226638D01*
X102544043Y135235981D01*
X102508536Y135271488D01*
X102478737Y135316085D01*
X102471645Y135325674D01*
X102437735Y135367215D01*
X102414181Y135411560D01*
X102407740Y135422340D01*
X102379837Y135464099D01*
X102359313Y135513649D01*
X102354235Y135524423D01*
X102329071Y135571800D01*
X102314615Y135619909D01*
X102310406Y135631719D01*
X102291188Y135678117D01*
X102280725Y135730718D01*
X102277849Y135742265D01*
X102262408Y135793652D01*
X102257616Y135843652D01*
X102255788Y135856087D01*
X102245995Y135905319D01*
X102245995Y135958937D01*
X102245426Y135970846D01*
X102240308Y136024246D01*
X102245360Y136074195D01*
X102245995Y136086774D01*
X102245995Y136136970D01*
X102256458Y136189571D01*
X102258219Y136201337D01*
X102263619Y136254722D01*
X102278322Y136302737D01*
X102281395Y136314938D01*
X102291188Y136364170D01*
X102291188Y136364171D01*
X102311711Y136413717D01*
X102315736Y136424919D01*
X102331445Y136476222D01*
X102355237Y136520454D01*
X102360623Y136531803D01*
X102379837Y136578189D01*
X102409625Y136622770D01*
X102415776Y136633002D01*
X102441180Y136680231D01*
X102441181Y136680233D01*
X102473137Y136718964D01*
X102480648Y136729063D01*
X102508536Y136770800D01*
X102546453Y136808717D01*
X102554471Y136817541D01*
X102588608Y136858915D01*
X102588610Y136858916D01*
X102588611Y136858918D01*
X102627496Y136890659D01*
X102636840Y136899104D01*
X102672341Y136934605D01*
X102716925Y136964395D01*
X102726515Y136971487D01*
X102768063Y137005403D01*
X102812405Y137028955D01*
X102823210Y137035412D01*
X102832811Y137041827D01*
X102864950Y137063302D01*
X102914494Y137083824D01*
X102925284Y137088910D01*
X102943300Y137098479D01*
X102972648Y137114067D01*
X103020731Y137128515D01*
X103032593Y137132742D01*
X103044686Y137137751D01*
X103078968Y137151951D01*
X103131573Y137162415D01*
X103134791Y137163217D01*
X103145226Y137165264D01*
X103194220Y137174876D01*
X103306169Y137197144D01*
X103306171Y137197144D01*
X103316281Y137199155D01*
X103319641Y137199482D01*
X104664476Y137463319D01*
X105177143Y137563897D01*
X105177145Y137563897D01*
X105177149Y137563898D01*
X105349958Y137580460D01*
X105349960Y137580460D01*
X105435570Y137571801D01*
X105435570Y137571801D01*
G37*
G36*
X174282620Y140305671D02*
G01*
X175692097Y138435232D01*
X175848542Y138227622D01*
X173730561Y136631608D01*
X173729511Y136633002D01*
X172164638Y138709658D01*
X172254208Y138777154D01*
X174282619Y140305672D01*
X174282620Y140305671D01*
X174282620Y140305671D01*
G37*
G36*
X177406569Y138537160D02*
G01*
X177575091Y138467356D01*
X177726756Y138366017D01*
X177855737Y138237036D01*
X177957076Y138085371D01*
X178026880Y137916849D01*
X178062465Y137737948D01*
X178062465Y137555542D01*
X178026880Y137376641D01*
X177957076Y137208119D01*
X177855737Y137056454D01*
X177726756Y136927473D01*
X177575091Y136826134D01*
X177406569Y136756330D01*
X177227668Y136720745D01*
X177045262Y136720745D01*
X176866361Y136756330D01*
X176697839Y136826134D01*
X176546174Y136927473D01*
X176417193Y137056454D01*
X176315854Y137208119D01*
X176246050Y137376641D01*
X176210465Y137555542D01*
X176210465Y137737948D01*
X176246050Y137916849D01*
X176315854Y138085371D01*
X176417193Y138237036D01*
X176546174Y138366017D01*
X176697839Y138467356D01*
X176866361Y138537160D01*
X177045262Y138572745D01*
X177227668Y138572745D01*
X177406569Y138537160D01*
X177406569Y138537160D01*
G37*
G36*
X108159838Y138553419D02*
G01*
X108328360Y138483615D01*
X108480025Y138382276D01*
X108609006Y138253295D01*
X108710345Y138101630D01*
X108780149Y137933108D01*
X108815734Y137754207D01*
X108815734Y137571801D01*
X108780149Y137392900D01*
X108710345Y137224378D01*
X108609006Y137072713D01*
X108480025Y136943732D01*
X108328360Y136842393D01*
X108159838Y136772589D01*
X107980937Y136737004D01*
X107798531Y136737004D01*
X107619630Y136772589D01*
X107451108Y136842393D01*
X107299443Y136943732D01*
X107170462Y137072713D01*
X107069123Y137224378D01*
X106999319Y137392900D01*
X106963734Y137571801D01*
X106963734Y137754207D01*
X106999319Y137933108D01*
X107069123Y138101630D01*
X107170462Y138253295D01*
X107299443Y138382276D01*
X107451108Y138483615D01*
X107619630Y138553419D01*
X107798531Y138589004D01*
X107980937Y138589004D01*
X108159838Y138553419D01*
X108159838Y138553419D01*
G37*
G36*
X99275916Y139803286D02*
G01*
X99501793Y139751884D01*
X99713302Y139657404D01*
X99902314Y139523476D01*
X100061567Y139355247D01*
X100184939Y139159181D01*
X100265636Y138948188D01*
X100267691Y138942813D01*
X100302687Y138737650D01*
X100306642Y138714460D01*
X100300294Y138482896D01*
X100248892Y138257019D01*
X100154412Y138045511D01*
X100154410Y138045508D01*
X100054040Y137903855D01*
X99688791Y137482872D01*
X99679274Y137470401D01*
X99660372Y137442112D01*
X99611035Y137392775D01*
X99605007Y137386304D01*
X99597333Y137377459D01*
X99597328Y137377454D01*
X99568343Y137350016D01*
X99565887Y137347627D01*
X99496566Y137278306D01*
X99491853Y137275157D01*
X99475363Y137261998D01*
X99471255Y137258109D01*
X99443491Y137240639D01*
X99388307Y137205915D01*
X99385533Y137204116D01*
X99303956Y137149608D01*
X99298707Y137147434D01*
X99279989Y137137756D01*
X99275191Y137134737D01*
X99183599Y137099707D01*
X99180581Y137098505D01*
X99089938Y137060959D01*
X99084364Y137059850D01*
X99064112Y137054008D01*
X99058823Y137051985D01*
X98962221Y137035507D01*
X98958895Y137034893D01*
X98862738Y137015766D01*
X98857067Y137015766D01*
X98836054Y137013987D01*
X98830470Y137013034D01*
X98830469Y137013034D01*
X98825234Y137013178D01*
X98732509Y137015719D01*
X98729118Y137015766D01*
X98631085Y137015766D01*
X98625514Y137016874D01*
X98604569Y137019227D01*
X98598907Y137019382D01*
X98503362Y137041125D01*
X98500067Y137041827D01*
X98494450Y137042944D01*
X98403884Y137060959D01*
X98398627Y137063136D01*
X98378559Y137069526D01*
X98373029Y137070784D01*
X98283575Y137110743D01*
X98280491Y137112070D01*
X98189866Y137149608D01*
X98185141Y137152765D01*
X98166692Y137162954D01*
X98161520Y137165264D01*
X98081545Y137221932D01*
X98078806Y137223816D01*
X97997257Y137278305D01*
X97993236Y137282326D01*
X97977131Y137295916D01*
X97972508Y137299192D01*
X97905172Y137370325D01*
X97902825Y137372737D01*
X97833451Y137442111D01*
X97830296Y137446833D01*
X97817139Y137463319D01*
X97813259Y137467418D01*
X97811382Y137470401D01*
X97761102Y137550306D01*
X97759248Y137553163D01*
X97704753Y137634721D01*
X97702579Y137639970D01*
X97692897Y137658697D01*
X97689883Y137663487D01*
X97654866Y137755046D01*
X97653672Y137758041D01*
X97616104Y137848739D01*
X97614995Y137854315D01*
X97609155Y137874564D01*
X97607131Y137879855D01*
X97590660Y137976416D01*
X97590046Y137979741D01*
X97570911Y138075939D01*
X97570911Y138081616D01*
X97569131Y138102634D01*
X97568180Y138108207D01*
X97570055Y138176599D01*
X97570865Y138206133D01*
X97570911Y138209523D01*
X97570911Y138307591D01*
X97572019Y138313161D01*
X97574373Y138334115D01*
X97574528Y138339771D01*
X97596273Y138435328D01*
X97596967Y138438583D01*
X97599965Y138453657D01*
X97616104Y138534793D01*
X97618283Y138540054D01*
X97624673Y138560125D01*
X97625930Y138565649D01*
X97665882Y138655087D01*
X97667217Y138658190D01*
X97667579Y138659065D01*
X97704753Y138748811D01*
X97707914Y138753541D01*
X97718105Y138771997D01*
X97720410Y138777158D01*
X97777054Y138857100D01*
X97778956Y138859863D01*
X97802171Y138894606D01*
X97833452Y138941422D01*
X97882808Y138990778D01*
X97888836Y138997250D01*
X98277484Y139445205D01*
X98316178Y139481834D01*
X98403566Y139564559D01*
X98599632Y139687932D01*
X98815998Y139770683D01*
X98846706Y139775921D01*
X99044350Y139809634D01*
X99044351Y139809634D01*
X99275916Y139803286D01*
X99275916Y139803286D01*
G37*
G36*
X186093642Y142103400D02*
G01*
X186308764Y142017464D01*
X186502988Y141891211D01*
X186668849Y141729493D01*
X186799973Y141538525D01*
X186891322Y141325645D01*
X186939384Y141099034D01*
X186941580Y140925447D01*
X186782469Y139069648D01*
X186773839Y138968997D01*
X186773382Y138958319D01*
X186773382Y138898134D01*
X186752344Y138792368D01*
X186752065Y138790921D01*
X186732434Y138685262D01*
X186732432Y138685256D01*
X186731785Y138681776D01*
X186729535Y138674184D01*
X186728189Y138670935D01*
X186728189Y138670934D01*
X186686869Y138571178D01*
X186686412Y138570055D01*
X186646498Y138470140D01*
X186646494Y138470133D01*
X186645182Y138466850D01*
X186641492Y138459839D01*
X186639542Y138456920D01*
X186639540Y138456916D01*
X186579547Y138367130D01*
X186578882Y138366122D01*
X186520245Y138275916D01*
X186520239Y138275909D01*
X186518309Y138272941D01*
X186513325Y138266789D01*
X186434584Y138188048D01*
X186433599Y138187050D01*
X186358528Y138110055D01*
X186358524Y138110052D01*
X186356060Y138107525D01*
X186349957Y138102452D01*
X186257435Y138040631D01*
X186256207Y138039799D01*
X186167559Y137978931D01*
X186167556Y137978930D01*
X186164651Y137976935D01*
X186157673Y137973148D01*
X186154429Y137971804D01*
X186154427Y137971803D01*
X186054792Y137930533D01*
X186053672Y137930061D01*
X185954679Y137887582D01*
X185954674Y137887581D01*
X185951428Y137886188D01*
X185943865Y137883842D01*
X185940412Y137883155D01*
X185940409Y137883154D01*
X185834737Y137862134D01*
X185833430Y137861866D01*
X185728068Y137839520D01*
X185728065Y137839520D01*
X185724614Y137838788D01*
X185716728Y137837961D01*
X185605570Y137837961D01*
X185604072Y137837952D01*
X185496436Y137836590D01*
X185496433Y137836591D01*
X185492910Y137836546D01*
X185485011Y137837274D01*
X185481557Y137837961D01*
X185481556Y137837961D01*
X185375999Y137858958D01*
X185374646Y137859218D01*
X185268682Y137878906D01*
X185268676Y137878908D01*
X185265212Y137879552D01*
X185257617Y137881804D01*
X185254360Y137883153D01*
X185254355Y137883154D01*
X185154874Y137924360D01*
X185153665Y137924852D01*
X185053560Y137964842D01*
X185053556Y137964844D01*
X185050283Y137966152D01*
X185043269Y137969844D01*
X184950844Y138031600D01*
X184949525Y138032469D01*
X184938333Y138039744D01*
X184859336Y138091095D01*
X184859335Y138091096D01*
X184856383Y138093015D01*
X184850219Y138098009D01*
X184771629Y138176599D01*
X184770629Y138177585D01*
X184693475Y138252812D01*
X184693471Y138252818D01*
X184690954Y138255272D01*
X184685883Y138261371D01*
X184624162Y138353743D01*
X184623335Y138354964D01*
X184562351Y138443781D01*
X184562349Y138443786D01*
X184560357Y138446687D01*
X184556575Y138453657D01*
X184555227Y138456912D01*
X184555224Y138456916D01*
X184514006Y138556426D01*
X184513557Y138557490D01*
X184471002Y138656661D01*
X184471001Y138656667D01*
X184469612Y138659903D01*
X184467264Y138667472D01*
X184464419Y138681776D01*
X184445596Y138776402D01*
X184445278Y138777949D01*
X184422209Y138886718D01*
X184421382Y138894606D01*
X184421382Y139005686D01*
X184421373Y139007167D01*
X184420744Y139056858D01*
X184420925Y139058970D01*
X184421382Y139069648D01*
X184421382Y139129789D01*
X184429897Y139172598D01*
X184431842Y139186305D01*
X184598177Y141126353D01*
X184598177Y141126354D01*
X184598178Y141126364D01*
X184629890Y141297044D01*
X184715826Y141512166D01*
X184842079Y141706390D01*
X185003796Y141872251D01*
X185194765Y142003375D01*
X185407645Y142094724D01*
X185634255Y142142786D01*
X185865888Y142145716D01*
X186093642Y142103400D01*
X186093642Y142103400D01*
G37*
G36*
X181790007Y142670281D02*
G01*
X181947592Y142605007D01*
X182162156Y142516132D01*
X182497081Y142292342D01*
X182781910Y142007513D01*
X183005700Y141672588D01*
X183028164Y141618354D01*
X183159849Y141300439D01*
X183238433Y140905371D01*
X183238433Y140502559D01*
X183159849Y140107491D01*
X183088934Y139936287D01*
X183005700Y139735342D01*
X182781910Y139400417D01*
X182497081Y139115588D01*
X182162156Y138891798D01*
X182008007Y138827948D01*
X181790007Y138737649D01*
X181394939Y138659065D01*
X180992127Y138659065D01*
X180597059Y138737649D01*
X180379059Y138827948D01*
X180224910Y138891798D01*
X179889985Y139115588D01*
X179605156Y139400417D01*
X179381366Y139735342D01*
X179298132Y139936287D01*
X179227217Y140107491D01*
X179148633Y140502559D01*
X179148633Y140905371D01*
X179227217Y141300439D01*
X179358902Y141618354D01*
X179381366Y141672588D01*
X179605156Y142007513D01*
X179889985Y142292342D01*
X180224910Y142516132D01*
X180439474Y142605007D01*
X180597059Y142670281D01*
X180992127Y142748865D01*
X181394939Y142748865D01*
X181790007Y142670281D01*
X181790007Y142670281D01*
G37*
G36*
X104429140Y142686540D02*
G01*
X104586725Y142621266D01*
X104801289Y142532391D01*
X105136214Y142308601D01*
X105421043Y142023772D01*
X105644833Y141688847D01*
X105667297Y141634613D01*
X105798982Y141316698D01*
X105877566Y140921630D01*
X105877566Y140518818D01*
X105798982Y140123750D01*
X105742410Y139987174D01*
X105644833Y139751601D01*
X105421043Y139416676D01*
X105136214Y139131847D01*
X104801289Y138908057D01*
X104647140Y138844207D01*
X104429140Y138753908D01*
X104034072Y138675324D01*
X103631260Y138675324D01*
X103236192Y138753908D01*
X103018192Y138844207D01*
X102864043Y138908057D01*
X102529118Y139131847D01*
X102244289Y139416676D01*
X102020499Y139751601D01*
X101922922Y139987174D01*
X101866350Y140123750D01*
X101787766Y140518818D01*
X101787766Y140921630D01*
X101866350Y141316698D01*
X101998035Y141634613D01*
X102020499Y141688847D01*
X102244289Y142023772D01*
X102529118Y142308601D01*
X102864043Y142532391D01*
X103078607Y142621266D01*
X103236192Y142686540D01*
X103631260Y142765124D01*
X104034072Y142765124D01*
X104429140Y142686540D01*
X104429140Y142686540D01*
G37*
G36*
X176904397Y141964822D02*
G01*
X177074532Y141930980D01*
X177356796Y141814063D01*
X177610827Y141644325D01*
X177826863Y141428289D01*
X177996601Y141174258D01*
X178113518Y140891994D01*
X178173122Y140592344D01*
X178173122Y140286824D01*
X178113518Y139987174D01*
X177996601Y139704910D01*
X177826863Y139450879D01*
X177610827Y139234843D01*
X177356796Y139065105D01*
X177074532Y138948188D01*
X176926813Y138918805D01*
X176774883Y138888584D01*
X176469361Y138888584D01*
X176317431Y138918805D01*
X176169712Y138948188D01*
X175887448Y139065105D01*
X175633417Y139234843D01*
X175417381Y139450879D01*
X175247643Y139704910D01*
X175130726Y139987174D01*
X175071122Y140286824D01*
X175071122Y140592344D01*
X175130726Y140891994D01*
X175247643Y141174258D01*
X175417381Y141428289D01*
X175633417Y141644325D01*
X175887448Y141814063D01*
X176169712Y141930980D01*
X176339847Y141964822D01*
X176469361Y141990584D01*
X176774883Y141990584D01*
X176904397Y141964822D01*
X176904397Y141964822D01*
G37*
G36*
X193777751Y140830768D02*
G01*
X193843935Y140824250D01*
X194013774Y140772730D01*
X194170299Y140689065D01*
X194206037Y140659735D01*
X194307494Y140576473D01*
X194390756Y140475016D01*
X194420086Y140439278D01*
X194503751Y140282753D01*
X194555271Y140112914D01*
X194572667Y139936287D01*
X194555271Y139759660D01*
X194503751Y139589821D01*
X194420086Y139433296D01*
X194393103Y139400417D01*
X194307494Y139296101D01*
X194206037Y139212839D01*
X194170299Y139183509D01*
X194013774Y139099844D01*
X193843935Y139048324D01*
X193777751Y139041806D01*
X193711568Y139035287D01*
X193623048Y139035287D01*
X193556865Y139041806D01*
X193490681Y139048324D01*
X193320842Y139099844D01*
X193164317Y139183509D01*
X193128579Y139212839D01*
X193027122Y139296101D01*
X192941513Y139400417D01*
X192914530Y139433296D01*
X192830865Y139589821D01*
X192779345Y139759660D01*
X192761949Y139936287D01*
X192779345Y140112914D01*
X192830865Y140282753D01*
X192914530Y140439278D01*
X192943860Y140475016D01*
X193027122Y140576473D01*
X193128579Y140659735D01*
X193164317Y140689065D01*
X193320842Y140772730D01*
X193490681Y140824250D01*
X193556865Y140830768D01*
X193623048Y140837287D01*
X193711568Y140837287D01*
X193777751Y140830768D01*
X193777751Y140830768D01*
G37*
G36*
X91469334Y140847028D02*
G01*
X91535519Y140840509D01*
X91705358Y140788989D01*
X91861883Y140705324D01*
X91897621Y140675994D01*
X91999078Y140592732D01*
X92073079Y140502560D01*
X92111670Y140455537D01*
X92195335Y140299012D01*
X92246855Y140129173D01*
X92264251Y139952546D01*
X92246855Y139775919D01*
X92195335Y139606080D01*
X92111670Y139449555D01*
X92084687Y139416676D01*
X91999078Y139312360D01*
X91904623Y139234844D01*
X91861883Y139199768D01*
X91705358Y139116103D01*
X91535519Y139064583D01*
X91478528Y139058970D01*
X91403152Y139051546D01*
X91314632Y139051546D01*
X91239256Y139058970D01*
X91182265Y139064583D01*
X91012426Y139116103D01*
X90855901Y139199768D01*
X90813161Y139234844D01*
X90718706Y139312360D01*
X90633097Y139416676D01*
X90606114Y139449555D01*
X90522449Y139606080D01*
X90470929Y139775919D01*
X90453533Y139952546D01*
X90470929Y140129173D01*
X90522449Y140299012D01*
X90606114Y140455537D01*
X90644705Y140502560D01*
X90718706Y140592732D01*
X90820163Y140675994D01*
X90855901Y140705324D01*
X91012426Y140788989D01*
X91182265Y140840509D01*
X91248450Y140847028D01*
X91314632Y140853546D01*
X91403152Y140853546D01*
X91469334Y140847028D01*
X91469334Y140847028D01*
G37*
G36*
X113384649Y141512166D02*
G01*
X113397467Y141502507D01*
X111831545Y139424458D01*
X111831544Y139424457D01*
X109713563Y141020471D01*
X109793359Y141126364D01*
X111279485Y143098520D01*
X111279486Y143098521D01*
X113384649Y141512166D01*
X113384649Y141512166D01*
G37*
G36*
X192249140Y142859304D02*
G01*
X192315325Y142852785D01*
X192485164Y142801265D01*
X192641689Y142717600D01*
X192677427Y142688270D01*
X192778884Y142605008D01*
X192862146Y142503551D01*
X192891476Y142467813D01*
X192975141Y142311288D01*
X193026661Y142141449D01*
X193044057Y141964822D01*
X193026661Y141788195D01*
X192975141Y141618356D01*
X192891476Y141461831D01*
X192863949Y141428289D01*
X192778884Y141324636D01*
X192677427Y141241374D01*
X192641689Y141212044D01*
X192485164Y141128379D01*
X192315325Y141076859D01*
X192249140Y141070340D01*
X192182958Y141063822D01*
X192094438Y141063822D01*
X192028256Y141070340D01*
X191962071Y141076859D01*
X191792232Y141128379D01*
X191635707Y141212044D01*
X191599969Y141241374D01*
X191498512Y141324636D01*
X191413447Y141428289D01*
X191385920Y141461831D01*
X191302255Y141618356D01*
X191250735Y141788195D01*
X191233339Y141964822D01*
X191250735Y142141449D01*
X191302255Y142311288D01*
X191385920Y142467813D01*
X191415250Y142503551D01*
X191498512Y142605008D01*
X191599969Y142688270D01*
X191635707Y142717600D01*
X191792232Y142801265D01*
X191962071Y142852785D01*
X192028256Y142859304D01*
X192094438Y142865822D01*
X192182958Y142865822D01*
X192249140Y142859304D01*
X192249140Y142859304D01*
G37*
G36*
X92997945Y142875562D02*
G01*
X93064129Y142869044D01*
X93233968Y142817524D01*
X93390493Y142733859D01*
X93426231Y142704529D01*
X93527688Y142621267D01*
X93610950Y142519810D01*
X93640280Y142484072D01*
X93723945Y142327547D01*
X93775465Y142157708D01*
X93792861Y141981081D01*
X93775465Y141804454D01*
X93723945Y141634615D01*
X93640280Y141478090D01*
X93626938Y141461833D01*
X93527688Y141340895D01*
X93426231Y141257633D01*
X93390493Y141228303D01*
X93233968Y141144638D01*
X93064129Y141093118D01*
X92997944Y141086599D01*
X92931762Y141080081D01*
X92843242Y141080081D01*
X92777060Y141086599D01*
X92710875Y141093118D01*
X92541036Y141144638D01*
X92384511Y141228303D01*
X92348773Y141257633D01*
X92247316Y141340895D01*
X92148066Y141461833D01*
X92134724Y141478090D01*
X92051059Y141634615D01*
X91999539Y141804454D01*
X91982143Y141981081D01*
X91999539Y142157708D01*
X92051059Y142327547D01*
X92134724Y142484072D01*
X92164054Y142519810D01*
X92247316Y142621267D01*
X92348773Y142704529D01*
X92384511Y142733859D01*
X92541036Y142817524D01*
X92710875Y142869044D01*
X92777059Y142875562D01*
X92843242Y142882081D01*
X92931762Y142882081D01*
X92997945Y142875562D01*
X92997945Y142875562D01*
G37*
G36*
X109188514Y144776343D02*
G01*
X109370831Y144740078D01*
X109653095Y144623161D01*
X109907126Y144453423D01*
X110123162Y144237387D01*
X110292900Y143983356D01*
X110409817Y143701092D01*
X110469421Y143401442D01*
X110469421Y143095922D01*
X110409817Y142796272D01*
X110292900Y142514008D01*
X110123162Y142259977D01*
X109907126Y142043941D01*
X109653095Y141874203D01*
X109370831Y141757286D01*
X109231111Y141729494D01*
X109071182Y141697682D01*
X108765660Y141697682D01*
X108605731Y141729494D01*
X108466011Y141757286D01*
X108183747Y141874203D01*
X107929716Y142043941D01*
X107713680Y142259977D01*
X107543942Y142514008D01*
X107427025Y142796272D01*
X107367421Y143095922D01*
X107367421Y143401442D01*
X107427025Y143701092D01*
X107543942Y143983356D01*
X107713680Y144237387D01*
X107929716Y144453423D01*
X108183747Y144623161D01*
X108466011Y144740078D01*
X108648328Y144776343D01*
X108765660Y144799682D01*
X109071182Y144799682D01*
X109188514Y144776343D01*
X109188514Y144776343D01*
G37*
G36*
X185520705Y144651600D02*
G01*
X185689227Y144581796D01*
X185840892Y144480457D01*
X185969873Y144351476D01*
X186071212Y144199811D01*
X186141016Y144031289D01*
X186176601Y143852388D01*
X186176601Y143669982D01*
X186141016Y143491081D01*
X186071212Y143322559D01*
X185969873Y143170894D01*
X185840892Y143041913D01*
X185689227Y142940574D01*
X185520705Y142870770D01*
X185341804Y142835185D01*
X185159398Y142835185D01*
X184980497Y142870770D01*
X184811975Y142940574D01*
X184660310Y143041913D01*
X184531329Y143170894D01*
X184429990Y143322559D01*
X184360186Y143491081D01*
X184324601Y143669982D01*
X184324601Y143852388D01*
X184360186Y144031289D01*
X184429990Y144199811D01*
X184531329Y144351476D01*
X184660310Y144480457D01*
X184811975Y144581796D01*
X184980497Y144651600D01*
X185159398Y144687185D01*
X185341804Y144687185D01*
X185520705Y144651600D01*
X185520705Y144651600D01*
G37*
G36*
X100045702Y144667859D02*
G01*
X100214224Y144598055D01*
X100365889Y144496716D01*
X100494870Y144367735D01*
X100596209Y144216070D01*
X100666013Y144047548D01*
X100701598Y143868647D01*
X100701598Y143686241D01*
X100666013Y143507340D01*
X100596209Y143338818D01*
X100494870Y143187153D01*
X100365889Y143058172D01*
X100214224Y142956833D01*
X100045702Y142887029D01*
X99866801Y142851444D01*
X99684395Y142851444D01*
X99505494Y142887029D01*
X99336972Y142956833D01*
X99185307Y143058172D01*
X99056326Y143187153D01*
X98954987Y143338818D01*
X98885183Y143507340D01*
X98849598Y143686241D01*
X98849598Y143868647D01*
X98885183Y144047548D01*
X98954987Y144216070D01*
X99056326Y144367735D01*
X99185307Y144496716D01*
X99336972Y144598055D01*
X99505494Y144667859D01*
X99684395Y144703444D01*
X99866801Y144703444D01*
X100045702Y144667859D01*
X100045702Y144667859D01*
G37*
G36*
X190709611Y144888913D02*
G01*
X190786715Y144881319D01*
X190956554Y144829799D01*
X191113079Y144746134D01*
X191148817Y144716804D01*
X191250274Y144633542D01*
X191333536Y144532085D01*
X191362866Y144496347D01*
X191446531Y144339822D01*
X191498051Y144169983D01*
X191515447Y143993356D01*
X191498051Y143816729D01*
X191446531Y143646890D01*
X191362866Y143490365D01*
X191333536Y143454627D01*
X191250274Y143353170D01*
X191148817Y143269908D01*
X191113079Y143240578D01*
X191113077Y143240577D01*
X191013131Y143187154D01*
X190956554Y143156913D01*
X190786715Y143105393D01*
X190720530Y143098874D01*
X190654348Y143092356D01*
X190565828Y143092356D01*
X190499646Y143098874D01*
X190433461Y143105393D01*
X190263622Y143156913D01*
X190207046Y143187154D01*
X190107099Y143240577D01*
X190107097Y143240578D01*
X190071359Y143269908D01*
X189969902Y143353170D01*
X189886640Y143454627D01*
X189857310Y143490365D01*
X189773645Y143646890D01*
X189722125Y143816729D01*
X189704729Y143993356D01*
X189722125Y144169983D01*
X189773645Y144339822D01*
X189857310Y144496347D01*
X189886640Y144532085D01*
X189969902Y144633542D01*
X190071359Y144716804D01*
X190107097Y144746134D01*
X190263622Y144829799D01*
X190433461Y144881319D01*
X190510565Y144888913D01*
X190565828Y144894356D01*
X190654348Y144894356D01*
X190709611Y144888913D01*
X190709611Y144888913D01*
G37*
G36*
X94526554Y144904097D02*
G01*
X94592739Y144897578D01*
X94762578Y144846058D01*
X94919103Y144762393D01*
X94946294Y144740078D01*
X95056298Y144649801D01*
X95112107Y144581796D01*
X95168890Y144512606D01*
X95252555Y144356081D01*
X95304075Y144186242D01*
X95321471Y144009615D01*
X95304075Y143832988D01*
X95252555Y143663149D01*
X95168890Y143506624D01*
X95156135Y143491082D01*
X95056298Y143369429D01*
X94954841Y143286167D01*
X94919103Y143256837D01*
X94762578Y143173172D01*
X94592739Y143121652D01*
X94526554Y143115133D01*
X94460372Y143108615D01*
X94371852Y143108615D01*
X94305670Y143115133D01*
X94239485Y143121652D01*
X94069646Y143173172D01*
X93913121Y143256837D01*
X93877383Y143286167D01*
X93775926Y143369429D01*
X93676089Y143491082D01*
X93663334Y143506624D01*
X93579669Y143663149D01*
X93528149Y143832988D01*
X93510753Y144009615D01*
X93528149Y144186242D01*
X93579669Y144356081D01*
X93663334Y144512606D01*
X93720117Y144581796D01*
X93775926Y144649801D01*
X93885930Y144740078D01*
X93913121Y144762393D01*
X94069646Y144846058D01*
X94239485Y144897578D01*
X94305670Y144904097D01*
X94371852Y144910615D01*
X94460372Y144910615D01*
X94526554Y144904097D01*
X94526554Y144904097D01*
G37*
G36*
X102534444Y146580100D02*
G01*
X102770885Y146533069D01*
X103053149Y146416152D01*
X103307180Y146246414D01*
X103523216Y146030378D01*
X103692954Y145776347D01*
X103809871Y145494083D01*
X103830557Y145390085D01*
X103869475Y145194434D01*
X103869475Y144888912D01*
X103844309Y144762394D01*
X103809871Y144589263D01*
X103692954Y144306999D01*
X103523216Y144052968D01*
X103307180Y143836932D01*
X103053149Y143667194D01*
X102770885Y143550277D01*
X102621060Y143520475D01*
X102471236Y143490673D01*
X102165714Y143490673D01*
X102015890Y143520475D01*
X101866065Y143550277D01*
X101583801Y143667194D01*
X101329770Y143836932D01*
X101113734Y144052968D01*
X100943996Y144306999D01*
X100827079Y144589263D01*
X100792641Y144762394D01*
X100767475Y144888912D01*
X100767475Y145194434D01*
X100806393Y145390085D01*
X100827079Y145494083D01*
X100943996Y145776347D01*
X101113734Y146030378D01*
X101329770Y146246414D01*
X101583801Y146416152D01*
X101866065Y146533069D01*
X102102506Y146580100D01*
X102165714Y146592673D01*
X102471236Y146592673D01*
X102534444Y146580100D01*
X102534444Y146580100D01*
G37*
G36*
X180370319Y147830159D02*
G01*
X180617257Y147781040D01*
X180899521Y147664123D01*
X181153552Y147494385D01*
X181369588Y147278349D01*
X181539326Y147024318D01*
X181656243Y146742054D01*
X181670854Y146668598D01*
X181715847Y146442405D01*
X181715847Y146136883D01*
X181691018Y146012060D01*
X181656243Y145837234D01*
X181539326Y145554970D01*
X181369588Y145300939D01*
X181153552Y145084903D01*
X180899521Y144915165D01*
X180617257Y144798248D01*
X180507133Y144776343D01*
X180317608Y144738644D01*
X180012086Y144738644D01*
X179822561Y144776343D01*
X179712437Y144798248D01*
X179430173Y144915165D01*
X179176142Y145084903D01*
X178960106Y145300939D01*
X178790368Y145554970D01*
X178673451Y145837234D01*
X178638676Y146012060D01*
X178613847Y146136883D01*
X178613847Y146442405D01*
X178658840Y146668598D01*
X178673451Y146742054D01*
X178790368Y147024318D01*
X178960106Y147278349D01*
X179176142Y147494385D01*
X179430173Y147664123D01*
X179712437Y147781040D01*
X179959375Y147830159D01*
X180012086Y147840644D01*
X180317608Y147840644D01*
X180370319Y147830159D01*
X180370319Y147830159D01*
G37*
G36*
X189817594Y146542169D02*
G01*
X190343284Y145844555D01*
X190343284Y145844554D01*
X189736481Y145387296D01*
X188904143Y144760084D01*
X188904142Y144760084D01*
X188209707Y145681631D01*
X187819672Y146199225D01*
X187819672Y146199226D01*
X188871328Y146991705D01*
X189258813Y147283696D01*
X189258814Y147283696D01*
X189817594Y146542169D01*
X189817594Y146542169D01*
G37*
G36*
X96303725Y146895795D02*
G01*
X97206528Y146215485D01*
X97206528Y146215484D01*
X96795800Y145670430D01*
X96122058Y144776343D01*
X96122057Y144776343D01*
X95425895Y145300939D01*
X94682916Y145860813D01*
X94682916Y145860814D01*
X95196354Y146542169D01*
X95767386Y147299955D01*
X95767387Y147299955D01*
X96303725Y146895795D01*
X96303725Y146895795D01*
G37*
G36*
X101483429Y147299955D02*
G01*
X101544896Y147253636D01*
X99978974Y145175587D01*
X99978973Y145175586D01*
X97860992Y146771600D01*
X98157585Y147165192D01*
X99426914Y148849649D01*
X99426915Y148849650D01*
X101483429Y147299955D01*
X101483429Y147299955D01*
G37*
G36*
X197273259Y148201747D02*
G01*
X197323767Y148196153D01*
X197401655Y148171490D01*
X197544611Y148126224D01*
X197747570Y148014553D01*
X197924843Y147865433D01*
X198033338Y147729911D01*
X198377709Y147200736D01*
X198378491Y147199552D01*
X198401449Y147165192D01*
X198438451Y147109815D01*
X198461349Y147054533D01*
X198465877Y147044811D01*
X198493439Y146991705D01*
X198505704Y146949433D01*
X198510258Y146936457D01*
X198527100Y146895797D01*
X198538773Y146837113D01*
X198541312Y146826707D01*
X198557989Y146769228D01*
X198561771Y146725380D01*
X198563709Y146711754D01*
X198572293Y146668598D01*
X198572293Y146608766D01*
X198572753Y146598065D01*
X198577897Y146538433D01*
X198573052Y146494691D01*
X198572293Y146480947D01*
X198572293Y146436944D01*
X198560620Y146378259D01*
X198558981Y146367654D01*
X198554237Y146324823D01*
X198552395Y146308188D01*
X198539113Y146266242D01*
X198535684Y146252898D01*
X198527100Y146209743D01*
X198504202Y146154462D01*
X198500524Y146144375D01*
X198482466Y146087345D01*
X198461257Y146048799D01*
X198455293Y146036386D01*
X198438451Y145995725D01*
X198438450Y145995724D01*
X198405212Y145945979D01*
X198399635Y145936801D01*
X198370795Y145884386D01*
X198342470Y145850714D01*
X198334201Y145839704D01*
X198309754Y145803116D01*
X198267443Y145760805D01*
X198260179Y145752887D01*
X198221675Y145707113D01*
X198187326Y145679614D01*
X198177068Y145670430D01*
X198145947Y145639309D01*
X198096201Y145606070D01*
X198087544Y145599731D01*
X198040836Y145562338D01*
X198001777Y145542066D01*
X197989927Y145535060D01*
X197953340Y145510613D01*
X197953339Y145510612D01*
X197953338Y145510612D01*
X197898048Y145487710D01*
X197888340Y145483191D01*
X197835228Y145455625D01*
X197792969Y145443364D01*
X197779973Y145438802D01*
X197739320Y145421963D01*
X197680626Y145410288D01*
X197670218Y145407748D01*
X197612751Y145391075D01*
X197568911Y145387293D01*
X197555285Y145385356D01*
X197512120Y145376770D01*
X197452278Y145376770D01*
X197441576Y145376310D01*
X197381956Y145371167D01*
X197338219Y145376011D01*
X197324480Y145376770D01*
X197280466Y145376770D01*
X197221782Y145388443D01*
X197211172Y145390082D01*
X197151713Y145396668D01*
X197109756Y145409954D01*
X197096436Y145413376D01*
X197066984Y145419234D01*
X197053270Y145421962D01*
X197053269Y145421962D01*
X197053266Y145421963D01*
X196997954Y145444874D01*
X196987926Y145448531D01*
X196930869Y145466598D01*
X196892320Y145487808D01*
X196879927Y145493762D01*
X196839248Y145510612D01*
X196789473Y145543871D01*
X196780313Y145549436D01*
X196727910Y145578269D01*
X196694241Y145606591D01*
X196683237Y145614855D01*
X196646639Y145639309D01*
X196604317Y145681631D01*
X196596394Y145688899D01*
X196550637Y145727389D01*
X196523147Y145761727D01*
X196513962Y145771986D01*
X196482832Y145803116D01*
X196449583Y145852877D01*
X196443239Y145861541D01*
X196442142Y145862911D01*
X196414976Y145904656D01*
X196414173Y145905872D01*
X196393513Y145936792D01*
X196354135Y145995725D01*
X196354134Y145995728D01*
X196352007Y145998911D01*
X196345083Y146012056D01*
X196062013Y146447034D01*
X195982041Y146601118D01*
X195917491Y146823595D01*
X195897584Y147054389D01*
X195923085Y147284632D01*
X195993014Y147505477D01*
X196104685Y147708436D01*
X196253805Y147885709D01*
X196434644Y148030484D01*
X196640252Y148137197D01*
X196862729Y148201747D01*
X197093523Y148221654D01*
X197273259Y148201747D01*
X197273259Y148201747D01*
G37*
G36*
X90261496Y149006287D02*
G01*
X90406360Y148991635D01*
X90627860Y148923809D01*
X90831871Y148814073D01*
X91010553Y148666646D01*
X91157041Y148487191D01*
X91265705Y148282606D01*
X91332368Y148060754D01*
X91354468Y147830159D01*
X91331157Y147599683D01*
X91263331Y147378184D01*
X91153595Y147174173D01*
X91006168Y146995491D01*
X90826713Y146849003D01*
X90622128Y146740339D01*
X90455871Y146690382D01*
X90455861Y146690380D01*
X88476538Y146302065D01*
X88476216Y146302001D01*
X88363748Y146279630D01*
X88310098Y146279630D01*
X88298182Y146279060D01*
X88244818Y146273946D01*
X88244816Y146273946D01*
X88194899Y146278995D01*
X88182320Y146279630D01*
X88132093Y146279630D01*
X88079475Y146290096D01*
X88067670Y146291863D01*
X88029531Y146295721D01*
X88014342Y146297257D01*
X87966358Y146311950D01*
X87954152Y146315025D01*
X87904894Y146324823D01*
X87868681Y146339823D01*
X87855332Y146345352D01*
X87844121Y146349381D01*
X87792842Y146365083D01*
X87748626Y146388866D01*
X87737286Y146394248D01*
X87690876Y146413472D01*
X87646271Y146443276D01*
X87636068Y146449411D01*
X87588831Y146474819D01*
X87550110Y146506767D01*
X87540015Y146514274D01*
X87498267Y146542169D01*
X87460336Y146580100D01*
X87451511Y146588119D01*
X87410149Y146622246D01*
X87378413Y146661124D01*
X87369969Y146670467D01*
X87334462Y146705974D01*
X87304663Y146750571D01*
X87297571Y146760160D01*
X87263661Y146801701D01*
X87240107Y146846046D01*
X87233666Y146856826D01*
X87205763Y146898585D01*
X87185239Y146948135D01*
X87180161Y146958909D01*
X87154997Y147006286D01*
X87140543Y147054389D01*
X87136332Y147066205D01*
X87117114Y147112603D01*
X87106651Y147165204D01*
X87103775Y147176751D01*
X87088334Y147228138D01*
X87083542Y147278138D01*
X87081714Y147290573D01*
X87079848Y147299955D01*
X87071921Y147339804D01*
X87071921Y147393423D01*
X87071352Y147405332D01*
X87066234Y147458732D01*
X87071286Y147508681D01*
X87071921Y147521260D01*
X87071921Y147571455D01*
X87077536Y147599683D01*
X87082384Y147624057D01*
X87084145Y147635823D01*
X87089545Y147689208D01*
X87104248Y147737223D01*
X87107321Y147749424D01*
X87117114Y147798656D01*
X87117114Y147798657D01*
X87137637Y147848203D01*
X87141662Y147859405D01*
X87157371Y147910708D01*
X87181163Y147954940D01*
X87186549Y147966289D01*
X87205763Y148012675D01*
X87235551Y148057256D01*
X87241702Y148067488D01*
X87267106Y148114717D01*
X87267107Y148114719D01*
X87299063Y148153450D01*
X87306574Y148163549D01*
X87334462Y148205286D01*
X87372379Y148243203D01*
X87380397Y148252027D01*
X87414534Y148293401D01*
X87414536Y148293402D01*
X87414537Y148293404D01*
X87453422Y148325145D01*
X87462766Y148333590D01*
X87498267Y148369091D01*
X87542851Y148398881D01*
X87552441Y148405973D01*
X87593989Y148439889D01*
X87638331Y148463441D01*
X87649136Y148469898D01*
X87658737Y148476313D01*
X87690876Y148497788D01*
X87740420Y148518310D01*
X87751210Y148523396D01*
X87769226Y148532965D01*
X87798574Y148548553D01*
X87846657Y148563001D01*
X87858519Y148567228D01*
X87870612Y148572237D01*
X87904894Y148586437D01*
X87957499Y148596901D01*
X87960717Y148597703D01*
X87971152Y148599750D01*
X88020146Y148609362D01*
X88132095Y148631630D01*
X88132097Y148631630D01*
X88142207Y148633641D01*
X88145567Y148633968D01*
X89131466Y148827387D01*
X90003069Y148998383D01*
X90003071Y148998383D01*
X90003075Y148998384D01*
X90175884Y149014946D01*
X90175886Y149014946D01*
X90261496Y149006287D01*
X90261496Y149006287D01*
G37*
G36*
X183077971Y150113868D02*
G01*
X184328987Y148453714D01*
X184643893Y148035819D01*
X182525912Y146439805D01*
X182523954Y146442404D01*
X180959989Y148517855D01*
X181081497Y148609418D01*
X183077970Y150113869D01*
X183077971Y150113868D01*
X183077971Y150113868D01*
G37*
G36*
X189456694Y151740155D02*
G01*
X191003269Y149687780D01*
X191022616Y149662106D01*
X188904635Y148066092D01*
X188851054Y148137197D01*
X187338712Y150144142D01*
X187448472Y150226852D01*
X189456693Y151740156D01*
X189456694Y151740155D01*
X189456694Y151740155D01*
G37*
G36*
X192580643Y149971644D02*
G01*
X192749165Y149901840D01*
X192900830Y149800501D01*
X193029811Y149671520D01*
X193131150Y149519855D01*
X193200954Y149351333D01*
X193236539Y149172432D01*
X193236539Y148990026D01*
X193200954Y148811125D01*
X193131150Y148642603D01*
X193029811Y148490938D01*
X192900830Y148361957D01*
X192749165Y148260618D01*
X192580643Y148190814D01*
X192401742Y148155229D01*
X192219336Y148155229D01*
X192040435Y148190814D01*
X191871913Y148260618D01*
X191720248Y148361957D01*
X191591267Y148490938D01*
X191489928Y148642603D01*
X191420124Y148811125D01*
X191384539Y148990026D01*
X191384539Y149172432D01*
X191420124Y149351333D01*
X191489928Y149519855D01*
X191591267Y149671520D01*
X191720248Y149800501D01*
X191871913Y149901840D01*
X192040435Y149971644D01*
X192219336Y150007229D01*
X192401742Y150007229D01*
X192580643Y149971644D01*
X192580643Y149971644D01*
G37*
G36*
X92985764Y149987905D02*
G01*
X93154286Y149918101D01*
X93305951Y149816762D01*
X93434932Y149687781D01*
X93536271Y149536116D01*
X93606075Y149367594D01*
X93641660Y149188693D01*
X93641660Y149006287D01*
X93606075Y148827386D01*
X93536271Y148658864D01*
X93434932Y148507199D01*
X93305951Y148378218D01*
X93154286Y148276879D01*
X92985764Y148207075D01*
X92806863Y148171490D01*
X92624457Y148171490D01*
X92445556Y148207075D01*
X92277034Y148276879D01*
X92125369Y148378218D01*
X91996388Y148507199D01*
X91895049Y148658864D01*
X91825245Y148827386D01*
X91789660Y149006287D01*
X91789660Y149188693D01*
X91825245Y149367594D01*
X91895049Y149536116D01*
X91996388Y149687781D01*
X92125369Y149816762D01*
X92277034Y149918101D01*
X92445556Y149987905D01*
X92624457Y150023490D01*
X92806863Y150023490D01*
X92985764Y149987905D01*
X92985764Y149987905D01*
G37*
G36*
X84101842Y151237772D02*
G01*
X84327719Y151186370D01*
X84539228Y151091890D01*
X84728240Y150957962D01*
X84887493Y150789733D01*
X85010865Y150593667D01*
X85093617Y150377300D01*
X85103186Y150321202D01*
X85121874Y150211644D01*
X85132568Y150148946D01*
X85126220Y149917382D01*
X85074818Y149691505D01*
X84980338Y149479997D01*
X84980336Y149479994D01*
X84879966Y149338341D01*
X84514717Y148917358D01*
X84505200Y148904887D01*
X84486298Y148876598D01*
X84436961Y148827261D01*
X84430933Y148820790D01*
X84423259Y148811945D01*
X84423254Y148811940D01*
X84394269Y148784502D01*
X84391813Y148782113D01*
X84322492Y148712792D01*
X84317779Y148709643D01*
X84301289Y148696484D01*
X84297181Y148692595D01*
X84269417Y148675125D01*
X84214233Y148640401D01*
X84211459Y148638602D01*
X84129882Y148584094D01*
X84124633Y148581920D01*
X84105915Y148572242D01*
X84101117Y148569223D01*
X84009525Y148534193D01*
X84006507Y148532991D01*
X83915864Y148495445D01*
X83910290Y148494336D01*
X83890038Y148488494D01*
X83884749Y148486471D01*
X83788147Y148469993D01*
X83784821Y148469379D01*
X83688664Y148450252D01*
X83682993Y148450252D01*
X83661980Y148448473D01*
X83656396Y148447520D01*
X83656395Y148447520D01*
X83651160Y148447664D01*
X83558435Y148450205D01*
X83555044Y148450252D01*
X83457011Y148450252D01*
X83451440Y148451360D01*
X83430495Y148453713D01*
X83424833Y148453868D01*
X83329288Y148475611D01*
X83325993Y148476313D01*
X83320376Y148477430D01*
X83229810Y148495445D01*
X83224553Y148497622D01*
X83204485Y148504012D01*
X83198955Y148505270D01*
X83109501Y148545229D01*
X83106417Y148546556D01*
X83015792Y148584094D01*
X83011067Y148587251D01*
X82992618Y148597440D01*
X82987446Y148599750D01*
X82907471Y148656418D01*
X82904732Y148658302D01*
X82823183Y148712791D01*
X82819162Y148716812D01*
X82803057Y148730402D01*
X82798434Y148733678D01*
X82731098Y148804811D01*
X82728751Y148807223D01*
X82659377Y148876597D01*
X82656222Y148881319D01*
X82643065Y148897805D01*
X82639185Y148901904D01*
X82637308Y148904887D01*
X82587028Y148984792D01*
X82585174Y148987649D01*
X82530679Y149069207D01*
X82528505Y149074456D01*
X82518823Y149093183D01*
X82515809Y149097973D01*
X82480792Y149189532D01*
X82479598Y149192527D01*
X82442030Y149283225D01*
X82440921Y149288801D01*
X82435081Y149309050D01*
X82433057Y149314341D01*
X82416586Y149410902D01*
X82415972Y149414227D01*
X82396837Y149510425D01*
X82396837Y149516102D01*
X82395057Y149537120D01*
X82394106Y149542693D01*
X82395981Y149611083D01*
X82396791Y149640619D01*
X82396837Y149644009D01*
X82396837Y149742077D01*
X82397945Y149747647D01*
X82400299Y149768601D01*
X82400454Y149774257D01*
X82422199Y149869814D01*
X82422893Y149873069D01*
X82442030Y149969279D01*
X82444209Y149974540D01*
X82450599Y149994611D01*
X82451856Y150000135D01*
X82491808Y150089573D01*
X82493143Y150092676D01*
X82530679Y150183297D01*
X82533840Y150188027D01*
X82544031Y150206483D01*
X82546336Y150211644D01*
X82602980Y150291586D01*
X82604882Y150294349D01*
X82622825Y150321202D01*
X82659378Y150375908D01*
X82708734Y150425264D01*
X82714762Y150431736D01*
X83103410Y150879691D01*
X83142104Y150916320D01*
X83229492Y150999045D01*
X83425558Y151122418D01*
X83641924Y151205169D01*
X83870276Y151244120D01*
X83870277Y151244120D01*
X84101842Y151237772D01*
X84101842Y151237772D01*
G37*
G36*
X170701000Y148799000D02*
G01*
X169099000Y148799000D01*
X169099000Y149701000D01*
X170701000Y149701000D01*
X170701000Y148799000D01*
X170701000Y148799000D01*
G37*
G36*
X167901000Y148799000D02*
G01*
X166299000Y148799000D01*
X166299000Y150601000D01*
X167901000Y150601000D01*
X167901000Y148799000D01*
X167901000Y148799000D01*
G37*
G36*
X201267716Y153537884D02*
G01*
X201482838Y153451948D01*
X201677062Y153325695D01*
X201842923Y153163977D01*
X201974047Y152973009D01*
X202065396Y152760129D01*
X202113458Y152533518D01*
X202115654Y152359931D01*
X201961699Y150564273D01*
X201947913Y150403481D01*
X201947456Y150392803D01*
X201947456Y150332618D01*
X201926418Y150226852D01*
X201926139Y150225405D01*
X201906508Y150119746D01*
X201906506Y150119740D01*
X201905859Y150116260D01*
X201903609Y150108668D01*
X201902263Y150105419D01*
X201902263Y150105418D01*
X201860943Y150005662D01*
X201860486Y150004539D01*
X201820572Y149904624D01*
X201820568Y149904617D01*
X201819256Y149901334D01*
X201815566Y149894323D01*
X201813616Y149891404D01*
X201813614Y149891400D01*
X201753621Y149801614D01*
X201752956Y149800606D01*
X201694319Y149710400D01*
X201694313Y149710393D01*
X201692383Y149707425D01*
X201687399Y149701273D01*
X201608658Y149622532D01*
X201607673Y149621534D01*
X201532602Y149544539D01*
X201532598Y149544536D01*
X201530134Y149542009D01*
X201524031Y149536936D01*
X201431509Y149475115D01*
X201430281Y149474283D01*
X201341633Y149413415D01*
X201341630Y149413414D01*
X201338725Y149411419D01*
X201331747Y149407632D01*
X201328503Y149406288D01*
X201328501Y149406287D01*
X201228866Y149365017D01*
X201227746Y149364545D01*
X201128753Y149322066D01*
X201128748Y149322065D01*
X201125502Y149320672D01*
X201117939Y149318326D01*
X201114486Y149317639D01*
X201114483Y149317638D01*
X201008811Y149296618D01*
X201007504Y149296350D01*
X200902142Y149274004D01*
X200902139Y149274004D01*
X200898688Y149273272D01*
X200890802Y149272445D01*
X200779644Y149272445D01*
X200778146Y149272436D01*
X200670510Y149271074D01*
X200670507Y149271075D01*
X200666984Y149271030D01*
X200659085Y149271758D01*
X200655631Y149272445D01*
X200655630Y149272445D01*
X200550073Y149293442D01*
X200548720Y149293702D01*
X200442756Y149313390D01*
X200442750Y149313392D01*
X200439286Y149314036D01*
X200431691Y149316288D01*
X200428434Y149317637D01*
X200428429Y149317638D01*
X200328948Y149358844D01*
X200327739Y149359336D01*
X200227634Y149399326D01*
X200227630Y149399328D01*
X200224357Y149400636D01*
X200217343Y149404328D01*
X200124918Y149466084D01*
X200123599Y149466953D01*
X200112407Y149474228D01*
X200033410Y149525579D01*
X200033409Y149525580D01*
X200030457Y149527499D01*
X200024293Y149532493D01*
X199945703Y149611083D01*
X199944703Y149612069D01*
X199867549Y149687296D01*
X199867545Y149687302D01*
X199865028Y149689756D01*
X199859957Y149695855D01*
X199798236Y149788227D01*
X199797409Y149789448D01*
X199736425Y149878265D01*
X199736423Y149878270D01*
X199734431Y149881171D01*
X199730649Y149888141D01*
X199729301Y149891396D01*
X199729298Y149891400D01*
X199688080Y149990910D01*
X199687631Y149991974D01*
X199645076Y150091145D01*
X199645075Y150091151D01*
X199643686Y150094387D01*
X199641338Y150101956D01*
X199639776Y150109810D01*
X199619670Y150210886D01*
X199619352Y150212433D01*
X199596283Y150321202D01*
X199595456Y150329090D01*
X199595456Y150440170D01*
X199595447Y150441651D01*
X199594818Y150491342D01*
X199594999Y150493454D01*
X199595456Y150504132D01*
X199595456Y150564273D01*
X199603971Y150607082D01*
X199605916Y150620789D01*
X199772251Y152560837D01*
X199772251Y152560838D01*
X199772252Y152560848D01*
X199803964Y152731528D01*
X199889900Y152946650D01*
X200016153Y153140874D01*
X200177870Y153306735D01*
X200368839Y153437859D01*
X200581719Y153529208D01*
X200808329Y153577270D01*
X201039962Y153580200D01*
X201267716Y153537884D01*
X201267716Y153537884D01*
G37*
G36*
X196964081Y154104765D02*
G01*
X197069526Y154061088D01*
X197336230Y153950616D01*
X197671155Y153726826D01*
X197955984Y153441997D01*
X198179774Y153107072D01*
X198179774Y153107071D01*
X198333923Y152734923D01*
X198412507Y152339855D01*
X198412507Y151937043D01*
X198333923Y151541975D01*
X198312644Y151490603D01*
X198179774Y151169826D01*
X197955984Y150834901D01*
X197671155Y150550072D01*
X197336230Y150326282D01*
X197182081Y150262432D01*
X196964081Y150172133D01*
X196569013Y150093549D01*
X196166201Y150093549D01*
X195771133Y150172133D01*
X195553133Y150262432D01*
X195398984Y150326282D01*
X195064059Y150550072D01*
X194779230Y150834901D01*
X194555440Y151169826D01*
X194422570Y151490603D01*
X194401291Y151541975D01*
X194322707Y151937043D01*
X194322707Y152339855D01*
X194401291Y152734923D01*
X194555440Y153107071D01*
X194555440Y153107072D01*
X194779230Y153441997D01*
X195064059Y153726826D01*
X195398984Y153950616D01*
X195665688Y154061088D01*
X195771133Y154104765D01*
X196166201Y154183349D01*
X196569013Y154183349D01*
X196964081Y154104765D01*
X196964081Y154104765D01*
G37*
G36*
X89255066Y154121026D02*
G01*
X89473066Y154030727D01*
X89627215Y153966877D01*
X89962140Y153743087D01*
X90246969Y153458258D01*
X90470759Y153123333D01*
X90533025Y152973009D01*
X90624908Y152751184D01*
X90703492Y152356116D01*
X90703492Y151953304D01*
X90624908Y151558236D01*
X90618172Y151541975D01*
X90470759Y151186087D01*
X90246969Y150851162D01*
X89962140Y150566333D01*
X89627215Y150342543D01*
X89510864Y150294349D01*
X89255066Y150188394D01*
X88859998Y150109810D01*
X88457186Y150109810D01*
X88062118Y150188394D01*
X87806320Y150294349D01*
X87689969Y150342543D01*
X87355044Y150566333D01*
X87070215Y150851162D01*
X86846425Y151186087D01*
X86699012Y151541975D01*
X86692276Y151558236D01*
X86613692Y151953304D01*
X86613692Y152356116D01*
X86692276Y152751184D01*
X86784159Y152973009D01*
X86846425Y153123333D01*
X87070215Y153458258D01*
X87355044Y153743087D01*
X87689969Y153966877D01*
X87844118Y154030727D01*
X88062118Y154121026D01*
X88457186Y154199610D01*
X88859998Y154199610D01*
X89255066Y154121026D01*
X89255066Y154121026D01*
G37*
G36*
X192080009Y153399000D02*
G01*
X192248606Y153365464D01*
X192530870Y153248547D01*
X192784901Y153078809D01*
X193000937Y152862773D01*
X193170675Y152608742D01*
X193287592Y152326478D01*
X193347196Y152026828D01*
X193347196Y151721308D01*
X193287592Y151421658D01*
X193170675Y151139394D01*
X193000937Y150885363D01*
X192784901Y150669327D01*
X192530870Y150499589D01*
X192248606Y150382672D01*
X192098781Y150352870D01*
X191948957Y150323068D01*
X191643435Y150323068D01*
X191493611Y150352870D01*
X191343786Y150382672D01*
X191061522Y150499589D01*
X190807491Y150669327D01*
X190591455Y150885363D01*
X190421717Y151139394D01*
X190304800Y151421658D01*
X190245196Y151721308D01*
X190245196Y152026828D01*
X190304800Y152326478D01*
X190421717Y152608742D01*
X190591455Y152862773D01*
X190807491Y153078809D01*
X191061522Y153248547D01*
X191343786Y153365464D01*
X191512383Y153399000D01*
X191643435Y153425068D01*
X191948957Y153425068D01*
X192080009Y153399000D01*
X192080009Y153399000D01*
G37*
G36*
X170701000Y150399000D02*
G01*
X169099000Y150399000D01*
X169099000Y151101000D01*
X170701000Y151101000D01*
X170701000Y150399000D01*
X170701000Y150399000D01*
G37*
G36*
X97997692Y153107071D02*
G01*
X98223393Y152936993D01*
X96657471Y150858944D01*
X96657470Y150858943D01*
X94539489Y152454957D01*
X94747900Y152731528D01*
X96105411Y154533006D01*
X96105412Y154533007D01*
X97997692Y153107071D01*
X97997692Y153107071D01*
G37*
G36*
X167901000Y150899000D02*
G01*
X166299000Y150899000D01*
X166299000Y151601000D01*
X167901000Y151601000D01*
X167901000Y150899000D01*
X167901000Y150899000D01*
G37*
G36*
X170701000Y151399000D02*
G01*
X169099000Y151399000D01*
X169099000Y152101000D01*
X170701000Y152101000D01*
X170701000Y151399000D01*
X170701000Y151399000D01*
G37*
G36*
X167901000Y151899000D02*
G01*
X166299000Y151899000D01*
X166299000Y152601000D01*
X167901000Y152601000D01*
X167901000Y151899000D01*
X167901000Y151899000D01*
G37*
G36*
X170701000Y152399000D02*
G01*
X169099000Y152399000D01*
X169099000Y153101000D01*
X170701000Y153101000D01*
X170701000Y152399000D01*
X170701000Y152399000D01*
G37*
G36*
X167901000Y152899000D02*
G01*
X166299000Y152899000D01*
X166299000Y153601000D01*
X167901000Y153601000D01*
X167901000Y152899000D01*
X167901000Y152899000D01*
G37*
G36*
X94046932Y156204366D02*
G01*
X94196757Y156174564D01*
X94479021Y156057647D01*
X94733052Y155887909D01*
X94949088Y155671873D01*
X95118826Y155417842D01*
X95235743Y155135578D01*
X95295347Y154835928D01*
X95295347Y154530408D01*
X95235743Y154230758D01*
X95118826Y153948494D01*
X94949088Y153694463D01*
X94733052Y153478427D01*
X94479021Y153308689D01*
X94196757Y153191772D01*
X94057027Y153163978D01*
X93897108Y153132168D01*
X93591586Y153132168D01*
X93431667Y153163978D01*
X93291937Y153191772D01*
X93009673Y153308689D01*
X92755642Y153478427D01*
X92539606Y153694463D01*
X92369868Y153948494D01*
X92252951Y154230758D01*
X92193347Y154530408D01*
X92193347Y154835928D01*
X92252951Y155135578D01*
X92369868Y155417842D01*
X92539606Y155671873D01*
X92755642Y155887909D01*
X93009673Y156057647D01*
X93291937Y156174564D01*
X93441762Y156204366D01*
X93591586Y156234168D01*
X93897108Y156234168D01*
X94046932Y156204366D01*
X94046932Y156204366D01*
G37*
G36*
X170701000Y153399000D02*
G01*
X169099000Y153399000D01*
X169099000Y154101000D01*
X170701000Y154101000D01*
X170701000Y153399000D01*
X170701000Y153399000D01*
G37*
G36*
X71856283Y155887909D02*
G01*
X72851939Y155137629D01*
X72851939Y155137628D01*
X72450860Y154605379D01*
X71767469Y153698487D01*
X71767468Y153698487D01*
X71061121Y154230758D01*
X70328327Y154782957D01*
X70328327Y154782958D01*
X70945726Y155602274D01*
X71412797Y156222099D01*
X71412798Y156222099D01*
X71856283Y155887909D01*
X71856283Y155887909D01*
G37*
G36*
X167901000Y153899000D02*
G01*
X166299000Y153899000D01*
X166299000Y154601000D01*
X167901000Y154601000D01*
X167901000Y153899000D01*
X167901000Y153899000D01*
G37*
G36*
X213570467Y155856570D02*
G01*
X213636652Y155850051D01*
X213806491Y155798531D01*
X213963016Y155714866D01*
X213998754Y155685536D01*
X214100211Y155602274D01*
X214183473Y155500817D01*
X214212803Y155465079D01*
X214296468Y155308554D01*
X214347988Y155138715D01*
X214365384Y154962088D01*
X214347988Y154785461D01*
X214296468Y154615622D01*
X214212803Y154459097D01*
X214183473Y154423359D01*
X214100211Y154321902D01*
X213998754Y154238640D01*
X213963016Y154209310D01*
X213806491Y154125645D01*
X213636652Y154074125D01*
X213570467Y154067606D01*
X213504285Y154061088D01*
X213415765Y154061088D01*
X213349583Y154067606D01*
X213283398Y154074125D01*
X213113559Y154125645D01*
X212957034Y154209310D01*
X212921296Y154238640D01*
X212819839Y154321902D01*
X212736577Y154423359D01*
X212707247Y154459097D01*
X212623582Y154615622D01*
X212572062Y154785461D01*
X212554666Y154962088D01*
X212572062Y155138715D01*
X212623582Y155308554D01*
X212707247Y155465079D01*
X212736577Y155500817D01*
X212819839Y155602274D01*
X212921296Y155685536D01*
X212957034Y155714866D01*
X213113559Y155798531D01*
X213283398Y155850051D01*
X213349583Y155856570D01*
X213415765Y155863088D01*
X213504285Y155863088D01*
X213570467Y155856570D01*
X213570467Y155856570D01*
G37*
G36*
X200694779Y156086084D02*
G01*
X200863301Y156016280D01*
X201014966Y155914941D01*
X201143947Y155785960D01*
X201245286Y155634295D01*
X201315090Y155465773D01*
X201350675Y155286872D01*
X201350675Y155104466D01*
X201315090Y154925565D01*
X201245286Y154757043D01*
X201143947Y154605378D01*
X201014966Y154476397D01*
X200863301Y154375058D01*
X200694779Y154305254D01*
X200515878Y154269669D01*
X200333472Y154269669D01*
X200154571Y154305254D01*
X199986049Y154375058D01*
X199834384Y154476397D01*
X199705403Y154605378D01*
X199604064Y154757043D01*
X199534260Y154925565D01*
X199498675Y155104466D01*
X199498675Y155286872D01*
X199534260Y155465773D01*
X199604064Y155634295D01*
X199705403Y155785960D01*
X199834384Y155914941D01*
X199986049Y156016280D01*
X200154571Y156086084D01*
X200333472Y156121669D01*
X200515878Y156121669D01*
X200694779Y156086084D01*
X200694779Y156086084D01*
G37*
G36*
X84871628Y156102345D02*
G01*
X85040150Y156032541D01*
X85191815Y155931202D01*
X85320796Y155802221D01*
X85422135Y155650556D01*
X85491939Y155482034D01*
X85527524Y155303133D01*
X85527524Y155120727D01*
X85491939Y154941826D01*
X85422135Y154773304D01*
X85320796Y154621639D01*
X85191815Y154492658D01*
X85040150Y154391319D01*
X84871628Y154321515D01*
X84692727Y154285930D01*
X84510321Y154285930D01*
X84331420Y154321515D01*
X84162898Y154391319D01*
X84011233Y154492658D01*
X83882252Y154621639D01*
X83780913Y154773304D01*
X83711109Y154941826D01*
X83675524Y155120727D01*
X83675524Y155303133D01*
X83711109Y155482034D01*
X83780913Y155650556D01*
X83882252Y155802221D01*
X84011233Y155931202D01*
X84162898Y156032541D01*
X84331420Y156102345D01*
X84510321Y156137930D01*
X84692727Y156137930D01*
X84871628Y156102345D01*
X84871628Y156102345D01*
G37*
G36*
X170701000Y154399000D02*
G01*
X169099000Y154399000D01*
X169099000Y155101000D01*
X170701000Y155101000D01*
X170701000Y154399000D01*
X170701000Y154399000D01*
G37*
G36*
X167901000Y154899000D02*
G01*
X166299000Y154899000D01*
X166299000Y155601000D01*
X167901000Y155601000D01*
X167901000Y154899000D01*
X167901000Y154899000D01*
G37*
G36*
X87336631Y158019308D02*
G01*
X87596811Y157967555D01*
X87879075Y157850638D01*
X88133106Y157680900D01*
X88349142Y157464864D01*
X88518880Y157210833D01*
X88635797Y156928569D01*
X88695401Y156628919D01*
X88695401Y156323399D01*
X88635797Y156023749D01*
X88518880Y155741485D01*
X88349142Y155487454D01*
X88133106Y155271418D01*
X87879075Y155101680D01*
X87596811Y154984763D01*
X87482816Y154962088D01*
X87297162Y154925159D01*
X86991640Y154925159D01*
X86805986Y154962088D01*
X86691991Y154984763D01*
X86409727Y155101680D01*
X86155696Y155271418D01*
X85939660Y155487454D01*
X85769922Y155741485D01*
X85653005Y156023749D01*
X85593401Y156323399D01*
X85593401Y156628919D01*
X85653005Y156928569D01*
X85769922Y157210833D01*
X85939660Y157464864D01*
X86155696Y157680900D01*
X86409727Y157850638D01*
X86691991Y157967555D01*
X86952171Y158019308D01*
X86991640Y158027159D01*
X87297162Y158027159D01*
X87336631Y158019308D01*
X87336631Y158019308D01*
G37*
G36*
X170701000Y155399000D02*
G01*
X169099000Y155399000D01*
X169099000Y157201000D01*
X170701000Y157201000D01*
X170701000Y155399000D01*
X170701000Y155399000D01*
G37*
G36*
X69672041Y157383385D02*
G01*
X69738226Y157376866D01*
X69908065Y157325346D01*
X69908067Y157325345D01*
X69962894Y157296039D01*
X70064590Y157241681D01*
X70100328Y157212351D01*
X70201785Y157129089D01*
X70274023Y157041065D01*
X70314377Y156991894D01*
X70314378Y156991892D01*
X70397082Y156837166D01*
X70398042Y156835369D01*
X70449562Y156665530D01*
X70466958Y156488903D01*
X70449562Y156312276D01*
X70398042Y156142437D01*
X70314377Y155985912D01*
X70285047Y155950174D01*
X70201785Y155848717D01*
X70100328Y155765455D01*
X70064590Y155736125D01*
X69908065Y155652460D01*
X69738226Y155600940D01*
X69672041Y155594421D01*
X69605859Y155587903D01*
X69517339Y155587903D01*
X69451157Y155594421D01*
X69384972Y155600940D01*
X69215133Y155652460D01*
X69058608Y155736125D01*
X69022870Y155765455D01*
X68921413Y155848717D01*
X68838151Y155950174D01*
X68808821Y155985912D01*
X68725156Y156142437D01*
X68673636Y156312276D01*
X68656240Y156488903D01*
X68673636Y156665530D01*
X68725156Y156835369D01*
X68726117Y156837166D01*
X68808820Y156991892D01*
X68808821Y156991894D01*
X68849175Y157041065D01*
X68921413Y157129089D01*
X69022870Y157212351D01*
X69058608Y157241681D01*
X69160304Y157296039D01*
X69215131Y157325345D01*
X69215133Y157325346D01*
X69384972Y157376866D01*
X69451157Y157383385D01*
X69517339Y157389903D01*
X69605859Y157389903D01*
X69672041Y157383385D01*
X69672041Y157383385D01*
G37*
G36*
X215599002Y157385180D02*
G01*
X215665187Y157378661D01*
X215835026Y157327141D01*
X215991551Y157243476D01*
X216027289Y157214146D01*
X216128746Y157130884D01*
X216202457Y157041065D01*
X216241338Y156993689D01*
X216250494Y156976559D01*
X216302455Y156879349D01*
X216325003Y156837164D01*
X216376523Y156667325D01*
X216393919Y156490698D01*
X216376523Y156314071D01*
X216334204Y156174564D01*
X216325002Y156144230D01*
X216312943Y156121669D01*
X216241338Y155987707D01*
X216212008Y155951969D01*
X216128746Y155850512D01*
X216027289Y155767250D01*
X215991551Y155737920D01*
X215835026Y155654255D01*
X215665187Y155602735D01*
X215599002Y155596216D01*
X215532820Y155589698D01*
X215444300Y155589698D01*
X215378118Y155596216D01*
X215311933Y155602735D01*
X215142094Y155654255D01*
X214985569Y155737920D01*
X214949831Y155767250D01*
X214848374Y155850512D01*
X214765112Y155951969D01*
X214735782Y155987707D01*
X214664177Y156121669D01*
X214652118Y156144230D01*
X214642916Y156174564D01*
X214600597Y156314071D01*
X214583201Y156490698D01*
X214600597Y156667325D01*
X214652117Y156837164D01*
X214674666Y156879349D01*
X214726626Y156976559D01*
X214735782Y156993689D01*
X214774663Y157041065D01*
X214848374Y157130884D01*
X214949831Y157214146D01*
X214985569Y157243476D01*
X215142094Y157327141D01*
X215311933Y157378661D01*
X215378118Y157385180D01*
X215444300Y157391698D01*
X215532820Y157391698D01*
X215599002Y157385180D01*
X215599002Y157385180D01*
G37*
G36*
X195544388Y159264644D02*
G01*
X195791331Y159215524D01*
X196073595Y159098607D01*
X196327626Y158928869D01*
X196543662Y158712833D01*
X196713400Y158458802D01*
X196830317Y158176538D01*
X196840595Y158124867D01*
X196889921Y157876889D01*
X196889921Y157571367D01*
X196878971Y157516319D01*
X196830317Y157271718D01*
X196713400Y156989454D01*
X196543662Y156735423D01*
X196327626Y156519387D01*
X196073595Y156349649D01*
X195791331Y156232732D01*
X195737875Y156222099D01*
X195491682Y156173128D01*
X195186160Y156173128D01*
X194939967Y156222099D01*
X194886511Y156232732D01*
X194604247Y156349649D01*
X194350216Y156519387D01*
X194134180Y156735423D01*
X193964442Y156989454D01*
X193847525Y157271718D01*
X193798871Y157516319D01*
X193787921Y157571367D01*
X193787921Y157876889D01*
X193837247Y158124867D01*
X193847525Y158176538D01*
X193964442Y158458802D01*
X194134180Y158712833D01*
X194350216Y158928869D01*
X194604247Y159098607D01*
X194886511Y159215524D01*
X195133454Y159264644D01*
X195186160Y159275128D01*
X195491682Y159275128D01*
X195544388Y159264644D01*
X195544388Y159264644D01*
G37*
G36*
X167901000Y156299000D02*
G01*
X166299000Y156299000D01*
X166299000Y157201000D01*
X167901000Y157201000D01*
X167901000Y156299000D01*
X167901000Y156299000D01*
G37*
G36*
X86321806Y158725058D02*
G01*
X86370822Y158688122D01*
X84804900Y156610073D01*
X84804899Y156610072D01*
X82686918Y158206086D01*
X82820935Y158383933D01*
X84252840Y160284135D01*
X84252841Y160284136D01*
X86321806Y158725058D01*
X86321806Y158725058D01*
G37*
G36*
X212447334Y159636233D02*
G01*
X212497842Y159630639D01*
X212575733Y159605975D01*
X212718686Y159560710D01*
X212921645Y159449039D01*
X213098918Y159299919D01*
X213207413Y159164397D01*
X213551784Y158635222D01*
X213552566Y158634038D01*
X213567783Y158611264D01*
X213612526Y158544301D01*
X213635424Y158489019D01*
X213639952Y158479297D01*
X213667514Y158426191D01*
X213679779Y158383919D01*
X213684333Y158370943D01*
X213701175Y158330283D01*
X213712848Y158271599D01*
X213715387Y158261193D01*
X213732064Y158203714D01*
X213735846Y158159866D01*
X213737784Y158146240D01*
X213746368Y158103084D01*
X213746368Y158043252D01*
X213746828Y158032551D01*
X213751972Y157972919D01*
X213747127Y157929177D01*
X213746368Y157915433D01*
X213746368Y157871430D01*
X213734695Y157812745D01*
X213733056Y157802140D01*
X213731033Y157783874D01*
X213726470Y157742674D01*
X213713188Y157700728D01*
X213709759Y157687384D01*
X213701175Y157644229D01*
X213678277Y157588948D01*
X213674601Y157578866D01*
X213672226Y157571367D01*
X213656541Y157521831D01*
X213635332Y157483285D01*
X213629368Y157470872D01*
X213612526Y157430211D01*
X213612525Y157430210D01*
X213579287Y157380465D01*
X213573710Y157371287D01*
X213544870Y157318872D01*
X213516545Y157285200D01*
X213508276Y157274190D01*
X213483829Y157237602D01*
X213441518Y157195291D01*
X213434254Y157187373D01*
X213395750Y157141599D01*
X213361401Y157114100D01*
X213351143Y157104916D01*
X213320022Y157073795D01*
X213270276Y157040556D01*
X213261619Y157034217D01*
X213214911Y156996824D01*
X213175852Y156976552D01*
X213164002Y156969546D01*
X213127415Y156945099D01*
X213127414Y156945098D01*
X213127413Y156945098D01*
X213072123Y156922196D01*
X213062415Y156917677D01*
X213009303Y156890111D01*
X212967044Y156877850D01*
X212954048Y156873288D01*
X212913395Y156856449D01*
X212854701Y156844774D01*
X212844293Y156842234D01*
X212786826Y156825561D01*
X212742986Y156821779D01*
X212729360Y156819842D01*
X212686195Y156811256D01*
X212626353Y156811256D01*
X212615651Y156810796D01*
X212556031Y156805653D01*
X212512294Y156810497D01*
X212498555Y156811256D01*
X212454541Y156811256D01*
X212395857Y156822929D01*
X212385247Y156824568D01*
X212325788Y156831154D01*
X212283831Y156844440D01*
X212270511Y156847862D01*
X212241059Y156853720D01*
X212227345Y156856448D01*
X212227344Y156856448D01*
X212227341Y156856449D01*
X212172029Y156879360D01*
X212162001Y156883017D01*
X212104944Y156901084D01*
X212066395Y156922294D01*
X212054002Y156928248D01*
X212013323Y156945098D01*
X211963548Y156978357D01*
X211954388Y156983922D01*
X211901985Y157012755D01*
X211868316Y157041077D01*
X211857312Y157049341D01*
X211820714Y157073795D01*
X211778392Y157116117D01*
X211770469Y157123385D01*
X211763140Y157129550D01*
X211724712Y157161875D01*
X211697222Y157196213D01*
X211688037Y157206472D01*
X211656907Y157237602D01*
X211623658Y157287363D01*
X211617314Y157296027D01*
X211616217Y157297397D01*
X211589051Y157339142D01*
X211588248Y157340358D01*
X211563546Y157377327D01*
X211528210Y157430211D01*
X211528209Y157430214D01*
X211526082Y157433397D01*
X211519158Y157446542D01*
X211236088Y157881520D01*
X211156116Y158035604D01*
X211091566Y158258081D01*
X211071659Y158488875D01*
X211097160Y158719118D01*
X211113364Y158770291D01*
X211139855Y158853955D01*
X211167089Y158939963D01*
X211278760Y159142922D01*
X211427880Y159320195D01*
X211608719Y159464970D01*
X211814327Y159571683D01*
X212036804Y159636233D01*
X212267598Y159656140D01*
X212447334Y159636233D01*
X212447334Y159636233D01*
G37*
G36*
X67643507Y158911995D02*
G01*
X67709692Y158905476D01*
X67879531Y158853956D01*
X68036056Y158770291D01*
X68071794Y158740961D01*
X68173251Y158657699D01*
X68236791Y158580274D01*
X68285843Y158520504D01*
X68285844Y158520502D01*
X68368548Y158365776D01*
X68369508Y158363979D01*
X68421028Y158194140D01*
X68438424Y158017513D01*
X68421028Y157840886D01*
X68369508Y157671047D01*
X68285843Y157514522D01*
X68260207Y157483285D01*
X68173251Y157377327D01*
X68074200Y157296039D01*
X68036056Y157264735D01*
X67992927Y157241682D01*
X67935210Y157210831D01*
X67879531Y157181070D01*
X67709692Y157129550D01*
X67647097Y157123385D01*
X67577325Y157116513D01*
X67488805Y157116513D01*
X67419033Y157123385D01*
X67356438Y157129550D01*
X67186599Y157181070D01*
X67130921Y157210831D01*
X67073203Y157241682D01*
X67030074Y157264735D01*
X66991930Y157296039D01*
X66892879Y157377327D01*
X66805923Y157483285D01*
X66780287Y157514522D01*
X66696622Y157671047D01*
X66645102Y157840886D01*
X66627706Y158017513D01*
X66645102Y158194140D01*
X66696622Y158363979D01*
X66697583Y158365776D01*
X66780286Y158520502D01*
X66780287Y158520504D01*
X66829339Y158580274D01*
X66892879Y158657699D01*
X66994336Y158740961D01*
X67030074Y158770291D01*
X67186599Y158853956D01*
X67356438Y158905476D01*
X67422623Y158911995D01*
X67488805Y158918513D01*
X67577325Y158918513D01*
X67643507Y158911995D01*
X67643507Y158911995D01*
G37*
G36*
X217627537Y158913789D02*
G01*
X217693721Y158907271D01*
X217863560Y158855751D01*
X218020085Y158772086D01*
X218055823Y158742756D01*
X218157280Y158659494D01*
X218222293Y158580274D01*
X218269872Y158522299D01*
X218353537Y158365774D01*
X218405057Y158195935D01*
X218422453Y158019308D01*
X218405057Y157842681D01*
X218361996Y157700728D01*
X218353536Y157672840D01*
X218338244Y157644231D01*
X218269872Y157516317D01*
X218242763Y157483285D01*
X218157280Y157379122D01*
X218057700Y157297400D01*
X218020085Y157266530D01*
X218020083Y157266529D01*
X217871985Y157187368D01*
X217863560Y157182865D01*
X217693721Y157131345D01*
X217627536Y157124826D01*
X217561354Y157118308D01*
X217472834Y157118308D01*
X217406652Y157124826D01*
X217340467Y157131345D01*
X217170628Y157182865D01*
X217162204Y157187368D01*
X217014105Y157266529D01*
X217014103Y157266530D01*
X216976488Y157297400D01*
X216876908Y157379122D01*
X216791425Y157483285D01*
X216764316Y157516317D01*
X216695944Y157644231D01*
X216680652Y157672840D01*
X216672192Y157700728D01*
X216629131Y157842681D01*
X216611735Y158019308D01*
X216629131Y158195935D01*
X216680651Y158365774D01*
X216764316Y158522299D01*
X216811895Y158580274D01*
X216876908Y158659494D01*
X216978365Y158742756D01*
X217014103Y158772086D01*
X217170628Y158855751D01*
X217340467Y158907271D01*
X217406651Y158913789D01*
X217472834Y158920308D01*
X217561354Y158920308D01*
X217627537Y158913789D01*
X217627537Y158913789D01*
G37*
G36*
X75087421Y160440772D02*
G01*
X75232285Y160426120D01*
X75453785Y160358294D01*
X75657796Y160248558D01*
X75836478Y160101131D01*
X75982966Y159921676D01*
X76091630Y159717091D01*
X76158293Y159495239D01*
X76180393Y159264644D01*
X76157082Y159034168D01*
X76089256Y158812669D01*
X75979520Y158608658D01*
X75832093Y158429976D01*
X75652638Y158283488D01*
X75448053Y158174824D01*
X75281796Y158124867D01*
X75281786Y158124865D01*
X73302463Y157736550D01*
X73302141Y157736486D01*
X73189673Y157714115D01*
X73136023Y157714115D01*
X73124107Y157713545D01*
X73070743Y157708431D01*
X73070741Y157708431D01*
X73020824Y157713480D01*
X73008245Y157714115D01*
X72958018Y157714115D01*
X72905400Y157724581D01*
X72893595Y157726348D01*
X72855456Y157730206D01*
X72840267Y157731742D01*
X72792283Y157746435D01*
X72780077Y157749510D01*
X72730819Y157759308D01*
X72694606Y157774308D01*
X72681257Y157779837D01*
X72670046Y157783866D01*
X72618767Y157799568D01*
X72574551Y157823351D01*
X72563211Y157828733D01*
X72516801Y157847957D01*
X72472196Y157877761D01*
X72461993Y157883896D01*
X72414756Y157909304D01*
X72376035Y157941252D01*
X72365940Y157948759D01*
X72324192Y157976654D01*
X72286261Y158014585D01*
X72277436Y158022604D01*
X72236074Y158056731D01*
X72204338Y158095609D01*
X72195894Y158104952D01*
X72160387Y158140459D01*
X72130588Y158185056D01*
X72123496Y158194645D01*
X72089586Y158236186D01*
X72066032Y158280531D01*
X72059591Y158291311D01*
X72031688Y158333070D01*
X72011164Y158382620D01*
X72006086Y158393394D01*
X71980922Y158440771D01*
X71966468Y158488874D01*
X71962257Y158500690D01*
X71943039Y158547088D01*
X71932576Y158599689D01*
X71929700Y158611236D01*
X71914259Y158662623D01*
X71909467Y158712623D01*
X71907639Y158725058D01*
X71897846Y158774290D01*
X71897846Y158827908D01*
X71897277Y158839817D01*
X71892159Y158893217D01*
X71893446Y158905937D01*
X71897211Y158943166D01*
X71897846Y158955745D01*
X71897846Y159005940D01*
X71903461Y159034168D01*
X71908309Y159058542D01*
X71910070Y159070308D01*
X71915470Y159123693D01*
X71930173Y159171708D01*
X71933246Y159183909D01*
X71936378Y159199655D01*
X71943039Y159233142D01*
X71963562Y159282688D01*
X71967587Y159293890D01*
X71983296Y159345193D01*
X72007088Y159389425D01*
X72012474Y159400774D01*
X72031688Y159447160D01*
X72061476Y159491741D01*
X72067627Y159501973D01*
X72093031Y159549202D01*
X72093032Y159549204D01*
X72124988Y159587935D01*
X72132499Y159598034D01*
X72160387Y159639771D01*
X72198304Y159677688D01*
X72206322Y159686512D01*
X72240459Y159727886D01*
X72240461Y159727887D01*
X72240462Y159727889D01*
X72279347Y159759630D01*
X72288691Y159768075D01*
X72324192Y159803576D01*
X72368776Y159833366D01*
X72378366Y159840458D01*
X72419914Y159874374D01*
X72464256Y159897926D01*
X72475061Y159904383D01*
X72484662Y159910798D01*
X72516801Y159932273D01*
X72566345Y159952795D01*
X72577135Y159957881D01*
X72595151Y159967450D01*
X72624499Y159983038D01*
X72672582Y159997486D01*
X72684444Y160001713D01*
X72696537Y160006722D01*
X72730819Y160020922D01*
X72783424Y160031386D01*
X72786642Y160032188D01*
X72797077Y160034235D01*
X72846071Y160043847D01*
X72958020Y160066115D01*
X72958022Y160066115D01*
X72968132Y160068126D01*
X72971492Y160068453D01*
X74316327Y160332290D01*
X74828994Y160432868D01*
X74828996Y160432868D01*
X74829000Y160432869D01*
X75001809Y160449431D01*
X75001811Y160449431D01*
X75087421Y160440772D01*
X75087421Y160440772D01*
G37*
G36*
X198252045Y161548352D02*
G01*
X199623862Y159727889D01*
X199817967Y159470303D01*
X197699986Y157874289D01*
X197698028Y157876888D01*
X196134063Y159952339D01*
X196193975Y159997486D01*
X198252044Y161548353D01*
X198252045Y161548352D01*
X198252045Y161548352D01*
G37*
G36*
X220328069Y160006722D02*
G01*
X220807434Y159370583D01*
X220807434Y159370582D01*
X220013203Y158772087D01*
X219368293Y158286112D01*
X219368292Y158286112D01*
X218706461Y159164393D01*
X218283822Y159725253D01*
X218283822Y159725254D01*
X219156104Y160382565D01*
X219722963Y160809724D01*
X219722964Y160809724D01*
X220328069Y160006722D01*
X220328069Y160006722D01*
G37*
G36*
X65613272Y160440772D02*
G01*
X65681157Y160434086D01*
X65850996Y160382566D01*
X66007521Y160298901D01*
X66025512Y160284136D01*
X66144716Y160186309D01*
X66221004Y160093350D01*
X66257308Y160049114D01*
X66340973Y159892589D01*
X66392493Y159722750D01*
X66409889Y159546123D01*
X66392493Y159369496D01*
X66351130Y159233141D01*
X66340972Y159199655D01*
X66326028Y159171697D01*
X66257308Y159043132D01*
X66227978Y159007394D01*
X66144716Y158905937D01*
X66064168Y158839834D01*
X66007521Y158793345D01*
X65964392Y158770292D01*
X65856452Y158712596D01*
X65850996Y158709680D01*
X65681157Y158658160D01*
X65614973Y158651642D01*
X65548790Y158645123D01*
X65460270Y158645123D01*
X65394087Y158651642D01*
X65327903Y158658160D01*
X65158064Y158709680D01*
X65152609Y158712596D01*
X65044668Y158770292D01*
X65001539Y158793345D01*
X64944892Y158839834D01*
X64864344Y158905937D01*
X64781082Y159007394D01*
X64751752Y159043132D01*
X64683032Y159171697D01*
X64668088Y159199655D01*
X64657930Y159233141D01*
X64616567Y159369496D01*
X64599171Y159546123D01*
X64616567Y159722750D01*
X64668087Y159892589D01*
X64751752Y160049114D01*
X64788056Y160093350D01*
X64864344Y160186309D01*
X64983548Y160284136D01*
X65001539Y160298901D01*
X65158064Y160382566D01*
X65327903Y160434086D01*
X65395788Y160440772D01*
X65460270Y160447123D01*
X65548790Y160447123D01*
X65613272Y160440772D01*
X65613272Y160440772D01*
G37*
G36*
X204630769Y163174641D02*
G01*
X206016420Y161335820D01*
X206196691Y161096592D01*
X204078710Y159500578D01*
X204042068Y159549204D01*
X202512787Y161578628D01*
X202601359Y161645372D01*
X204630768Y163174642D01*
X204630769Y163174641D01*
X204630769Y163174641D01*
G37*
G36*
X207754718Y161406130D02*
G01*
X207923240Y161336326D01*
X208074905Y161234987D01*
X208203886Y161106006D01*
X208305225Y160954341D01*
X208375029Y160785819D01*
X208410614Y160606918D01*
X208410614Y160424512D01*
X208375029Y160245611D01*
X208305225Y160077089D01*
X208203886Y159925424D01*
X208074905Y159796443D01*
X207923240Y159695104D01*
X207754718Y159625300D01*
X207575817Y159589715D01*
X207393411Y159589715D01*
X207214510Y159625300D01*
X207045988Y159695104D01*
X206894323Y159796443D01*
X206765342Y159925424D01*
X206664003Y160077089D01*
X206594199Y160245611D01*
X206558614Y160424512D01*
X206558614Y160606918D01*
X206594199Y160785819D01*
X206664003Y160954341D01*
X206765342Y161106006D01*
X206894323Y161234987D01*
X207045988Y161336326D01*
X207214510Y161406130D01*
X207393411Y161441715D01*
X207575817Y161441715D01*
X207754718Y161406130D01*
X207754718Y161406130D01*
G37*
G36*
X77811689Y161422390D02*
G01*
X77980211Y161352586D01*
X78131876Y161251247D01*
X78260857Y161122266D01*
X78362196Y160970601D01*
X78432000Y160802079D01*
X78467585Y160623178D01*
X78467585Y160440772D01*
X78432000Y160261871D01*
X78362196Y160093349D01*
X78260857Y159941684D01*
X78131876Y159812703D01*
X77980211Y159711364D01*
X77811689Y159641560D01*
X77632788Y159605975D01*
X77450382Y159605975D01*
X77271481Y159641560D01*
X77102959Y159711364D01*
X76951294Y159812703D01*
X76822313Y159941684D01*
X76720974Y160093349D01*
X76651170Y160261871D01*
X76615585Y160440772D01*
X76615585Y160623178D01*
X76651170Y160802079D01*
X76720974Y160970601D01*
X76822313Y161122266D01*
X76951294Y161251247D01*
X77102959Y161352586D01*
X77271481Y161422390D01*
X77450382Y161457975D01*
X77632788Y161457975D01*
X77811689Y161422390D01*
X77811689Y161422390D01*
G37*
G36*
X68927767Y162672257D02*
G01*
X69153644Y162620855D01*
X69365153Y162526375D01*
X69554165Y162392447D01*
X69713418Y162224218D01*
X69836790Y162028152D01*
X69901198Y161859749D01*
X69919542Y161811784D01*
X69947799Y161646129D01*
X69958493Y161583431D01*
X69952145Y161351867D01*
X69900743Y161125990D01*
X69806263Y160914482D01*
X69806261Y160914479D01*
X69705891Y160772826D01*
X69340642Y160351843D01*
X69331125Y160339372D01*
X69312223Y160311083D01*
X69262886Y160261746D01*
X69256858Y160255275D01*
X69249184Y160246430D01*
X69249179Y160246425D01*
X69220194Y160218987D01*
X69217738Y160216598D01*
X69148417Y160147277D01*
X69143704Y160144128D01*
X69127214Y160130969D01*
X69123106Y160127080D01*
X69095342Y160109610D01*
X69040158Y160074886D01*
X69037384Y160073087D01*
X68955807Y160018579D01*
X68950558Y160016405D01*
X68931840Y160006727D01*
X68927042Y160003708D01*
X68835450Y159968678D01*
X68832432Y159967476D01*
X68741789Y159929930D01*
X68736215Y159928821D01*
X68715963Y159922979D01*
X68710674Y159920956D01*
X68614072Y159904478D01*
X68610746Y159903864D01*
X68514589Y159884737D01*
X68508918Y159884737D01*
X68487905Y159882958D01*
X68482321Y159882005D01*
X68482320Y159882005D01*
X68477085Y159882149D01*
X68384360Y159884690D01*
X68380969Y159884737D01*
X68282936Y159884737D01*
X68277365Y159885845D01*
X68256420Y159888198D01*
X68250758Y159888353D01*
X68155213Y159910096D01*
X68151918Y159910798D01*
X68146301Y159911915D01*
X68055735Y159929930D01*
X68050478Y159932107D01*
X68030410Y159938497D01*
X68024880Y159939755D01*
X67935426Y159979714D01*
X67932342Y159981041D01*
X67841717Y160018579D01*
X67836992Y160021736D01*
X67818543Y160031925D01*
X67813371Y160034235D01*
X67733396Y160090903D01*
X67730657Y160092787D01*
X67649108Y160147276D01*
X67645087Y160151297D01*
X67628982Y160164887D01*
X67624359Y160168163D01*
X67557023Y160239296D01*
X67554676Y160241708D01*
X67485302Y160311082D01*
X67482147Y160315804D01*
X67468990Y160332290D01*
X67465110Y160336389D01*
X67463233Y160339372D01*
X67412953Y160419277D01*
X67411099Y160422134D01*
X67356604Y160503692D01*
X67354430Y160508941D01*
X67344748Y160527668D01*
X67341734Y160532458D01*
X67306717Y160624017D01*
X67305523Y160627012D01*
X67267955Y160717710D01*
X67266846Y160723286D01*
X67261006Y160743535D01*
X67258982Y160748826D01*
X67242511Y160845387D01*
X67241897Y160848712D01*
X67222762Y160944910D01*
X67222762Y160950587D01*
X67220982Y160971605D01*
X67220031Y160977178D01*
X67221906Y161045569D01*
X67222716Y161075104D01*
X67222762Y161078494D01*
X67222762Y161176562D01*
X67223870Y161182132D01*
X67226224Y161203086D01*
X67226379Y161208742D01*
X67248124Y161304299D01*
X67248818Y161307554D01*
X67267955Y161403764D01*
X67270134Y161409025D01*
X67276524Y161429096D01*
X67277781Y161434620D01*
X67317733Y161524058D01*
X67319068Y161527161D01*
X67324346Y161539904D01*
X67356604Y161617782D01*
X67359765Y161622512D01*
X67369956Y161640968D01*
X67372261Y161646129D01*
X67428905Y161726071D01*
X67430807Y161728834D01*
X67485303Y161810393D01*
X67534659Y161859749D01*
X67540687Y161866221D01*
X67929335Y162314176D01*
X67968029Y162350805D01*
X68055417Y162433530D01*
X68251483Y162556903D01*
X68467849Y162639654D01*
X68696201Y162678605D01*
X68696202Y162678605D01*
X68927767Y162672257D01*
X68927767Y162672257D01*
G37*
G36*
X216441791Y164972370D02*
G01*
X216656913Y164886434D01*
X216851137Y164760181D01*
X217016998Y164598463D01*
X217148122Y164407495D01*
X217239471Y164194615D01*
X217287533Y163968004D01*
X217289729Y163794417D01*
X217155253Y162225958D01*
X217121988Y161837967D01*
X217121531Y161827289D01*
X217121531Y161767104D01*
X217100493Y161661338D01*
X217100214Y161659891D01*
X217080583Y161554232D01*
X217080581Y161554226D01*
X217079934Y161550746D01*
X217077684Y161543154D01*
X217076338Y161539905D01*
X217076338Y161539904D01*
X217035018Y161440148D01*
X217034561Y161439025D01*
X216994647Y161339110D01*
X216994643Y161339103D01*
X216993331Y161335820D01*
X216989641Y161328809D01*
X216987691Y161325890D01*
X216987689Y161325886D01*
X216927696Y161236100D01*
X216927031Y161235092D01*
X216868394Y161144886D01*
X216868388Y161144879D01*
X216866458Y161141911D01*
X216861474Y161135759D01*
X216782733Y161057018D01*
X216781748Y161056020D01*
X216706677Y160979025D01*
X216706673Y160979022D01*
X216704209Y160976495D01*
X216698106Y160971422D01*
X216605584Y160909601D01*
X216604356Y160908769D01*
X216515708Y160847901D01*
X216515705Y160847900D01*
X216512800Y160845905D01*
X216505822Y160842118D01*
X216502578Y160840774D01*
X216502576Y160840773D01*
X216402941Y160799503D01*
X216401821Y160799031D01*
X216302828Y160756552D01*
X216302823Y160756551D01*
X216299577Y160755158D01*
X216292014Y160752812D01*
X216288561Y160752125D01*
X216288558Y160752124D01*
X216182886Y160731104D01*
X216181579Y160730836D01*
X216076217Y160708490D01*
X216076214Y160708490D01*
X216072763Y160707758D01*
X216064877Y160706931D01*
X215953719Y160706931D01*
X215952221Y160706922D01*
X215844585Y160705560D01*
X215844582Y160705561D01*
X215841059Y160705516D01*
X215833160Y160706244D01*
X215829706Y160706931D01*
X215829705Y160706931D01*
X215724148Y160727928D01*
X215722795Y160728188D01*
X215616831Y160747876D01*
X215616825Y160747878D01*
X215613361Y160748522D01*
X215605766Y160750774D01*
X215602509Y160752123D01*
X215602504Y160752124D01*
X215503023Y160793330D01*
X215501814Y160793822D01*
X215401709Y160833812D01*
X215401705Y160833814D01*
X215398432Y160835122D01*
X215391418Y160838814D01*
X215298993Y160900570D01*
X215297674Y160901439D01*
X215286482Y160908714D01*
X215207485Y160960065D01*
X215207484Y160960066D01*
X215204532Y160961985D01*
X215198368Y160966979D01*
X215119778Y161045569D01*
X215118778Y161046555D01*
X215041624Y161121782D01*
X215041620Y161121788D01*
X215039103Y161124242D01*
X215034032Y161130341D01*
X214972311Y161222713D01*
X214971484Y161223934D01*
X214910500Y161312751D01*
X214910498Y161312756D01*
X214908506Y161315657D01*
X214904724Y161322627D01*
X214903376Y161325882D01*
X214903373Y161325886D01*
X214862155Y161425396D01*
X214861706Y161426460D01*
X214819151Y161525631D01*
X214819150Y161525637D01*
X214817761Y161528873D01*
X214815413Y161536442D01*
X214813044Y161548353D01*
X214793745Y161645372D01*
X214793427Y161646919D01*
X214770358Y161755688D01*
X214769531Y161763576D01*
X214769531Y161874656D01*
X214769522Y161876137D01*
X214768893Y161925828D01*
X214769074Y161927940D01*
X214769531Y161938618D01*
X214769531Y161998759D01*
X214778046Y162041568D01*
X214779991Y162055275D01*
X214946326Y163995323D01*
X214946326Y163995324D01*
X214946327Y163995334D01*
X214978039Y164166014D01*
X215063975Y164381136D01*
X215190228Y164575360D01*
X215351945Y164741221D01*
X215542914Y164872345D01*
X215755794Y164963694D01*
X215982404Y165011756D01*
X216214037Y165014686D01*
X216441791Y164972370D01*
X216441791Y164972370D01*
G37*
G36*
X212138156Y165539251D02*
G01*
X212356156Y165448952D01*
X212510305Y165385102D01*
X212845230Y165161312D01*
X213130059Y164876483D01*
X213353849Y164541558D01*
X213353849Y164541557D01*
X213507998Y164169409D01*
X213586582Y163774341D01*
X213586582Y163371529D01*
X213507998Y162976461D01*
X213486719Y162925089D01*
X213353849Y162604312D01*
X213130059Y162269387D01*
X212845230Y161984558D01*
X212510305Y161760768D01*
X212356156Y161696918D01*
X212138156Y161606619D01*
X211743088Y161528035D01*
X211340276Y161528035D01*
X210945208Y161606619D01*
X210727208Y161696918D01*
X210573059Y161760768D01*
X210238134Y161984558D01*
X209953305Y162269387D01*
X209729515Y162604312D01*
X209596645Y162925089D01*
X209575366Y162976461D01*
X209496782Y163371529D01*
X209496782Y163774341D01*
X209575366Y164169409D01*
X209729515Y164541557D01*
X209729515Y164541558D01*
X209953305Y164876483D01*
X210238134Y165161312D01*
X210573059Y165385102D01*
X210727208Y165448952D01*
X210945208Y165539251D01*
X211340276Y165617835D01*
X211743088Y165617835D01*
X212138156Y165539251D01*
X212138156Y165539251D01*
G37*
G36*
X74080991Y165555511D02*
G01*
X74298991Y165465212D01*
X74453140Y165401362D01*
X74788065Y165177572D01*
X75072894Y164892743D01*
X75296684Y164557818D01*
X75296684Y164557817D01*
X75450833Y164185669D01*
X75529417Y163790601D01*
X75529417Y163387789D01*
X75450833Y162992721D01*
X75394261Y162856145D01*
X75296684Y162620572D01*
X75072894Y162285647D01*
X74788065Y162000818D01*
X74453140Y161777028D01*
X74336789Y161728834D01*
X74080991Y161622879D01*
X73685923Y161544295D01*
X73283111Y161544295D01*
X72888043Y161622879D01*
X72632245Y161728834D01*
X72515894Y161777028D01*
X72180969Y162000818D01*
X71896140Y162285647D01*
X71672350Y162620572D01*
X71574773Y162856145D01*
X71518201Y162992721D01*
X71439617Y163387789D01*
X71439617Y163790601D01*
X71518201Y164185669D01*
X71672350Y164557817D01*
X71672350Y164557818D01*
X71896140Y164892743D01*
X72180969Y165177572D01*
X72515894Y165401362D01*
X72670043Y165465212D01*
X72888043Y165555511D01*
X73283111Y165634095D01*
X73685923Y165634095D01*
X74080991Y165555511D01*
X74080991Y165555511D01*
G37*
G36*
X207272856Y164829752D02*
G01*
X207422681Y164799950D01*
X207704945Y164683033D01*
X207958976Y164513295D01*
X208175012Y164297259D01*
X208344750Y164043228D01*
X208461667Y163760964D01*
X208521271Y163461314D01*
X208521271Y163155794D01*
X208461667Y162856144D01*
X208344750Y162573880D01*
X208175012Y162319849D01*
X207958976Y162103813D01*
X207704945Y161934075D01*
X207422681Y161817158D01*
X207274967Y161787776D01*
X207123032Y161757554D01*
X206817510Y161757554D01*
X206665575Y161787776D01*
X206517861Y161817158D01*
X206235597Y161934075D01*
X205981566Y162103813D01*
X205765530Y162319849D01*
X205595792Y162573880D01*
X205478875Y162856144D01*
X205419271Y163155794D01*
X205419271Y163461314D01*
X205478875Y163760964D01*
X205595792Y164043228D01*
X205765530Y164297259D01*
X205981566Y164513295D01*
X206235597Y164683033D01*
X206517861Y164799950D01*
X206667686Y164829752D01*
X206817510Y164859554D01*
X207123032Y164859554D01*
X207272856Y164829752D01*
X207272856Y164829752D01*
G37*
G36*
X82861122Y164513294D02*
G01*
X83049318Y164371478D01*
X81483396Y162293429D01*
X81483395Y162293428D01*
X79365414Y163889442D01*
X80007274Y164741219D01*
X80931336Y165967491D01*
X80931337Y165967492D01*
X82861122Y164513294D01*
X82861122Y164513294D01*
G37*
G36*
X78872857Y167638851D02*
G01*
X79022682Y167609049D01*
X79304946Y167492132D01*
X79558977Y167322394D01*
X79775013Y167106358D01*
X79944751Y166852327D01*
X80061668Y166570063D01*
X80121272Y166270413D01*
X80121272Y165964893D01*
X80061668Y165665243D01*
X79944751Y165382979D01*
X79775013Y165128948D01*
X79558977Y164912912D01*
X79304946Y164743174D01*
X79022682Y164626257D01*
X78882957Y164598464D01*
X78723033Y164566653D01*
X78417511Y164566653D01*
X78257587Y164598464D01*
X78117862Y164626257D01*
X77835598Y164743174D01*
X77581567Y164912912D01*
X77365531Y165128948D01*
X77195793Y165382979D01*
X77078876Y165665243D01*
X77019272Y165964893D01*
X77019272Y166270413D01*
X77078876Y166570063D01*
X77195793Y166852327D01*
X77365531Y167106358D01*
X77581567Y167322394D01*
X77835598Y167492132D01*
X78117862Y167609049D01*
X78267687Y167638851D01*
X78417511Y167668653D01*
X78723033Y167668653D01*
X78872857Y167638851D01*
X78872857Y167638851D01*
G37*
G36*
X215868854Y167520570D02*
G01*
X216037376Y167450766D01*
X216189041Y167349427D01*
X216318022Y167220446D01*
X216419361Y167068781D01*
X216489165Y166900259D01*
X216524750Y166721358D01*
X216524750Y166538952D01*
X216489165Y166360051D01*
X216419361Y166191529D01*
X216318022Y166039864D01*
X216189041Y165910883D01*
X216037376Y165809544D01*
X215868854Y165739740D01*
X215689953Y165704155D01*
X215507547Y165704155D01*
X215328646Y165739740D01*
X215160124Y165809544D01*
X215008459Y165910883D01*
X214879478Y166039864D01*
X214778139Y166191529D01*
X214708335Y166360051D01*
X214672750Y166538952D01*
X214672750Y166721358D01*
X214708335Y166900259D01*
X214778139Y167068781D01*
X214879478Y167220446D01*
X215008459Y167349427D01*
X215160124Y167450766D01*
X215328646Y167520570D01*
X215507547Y167556155D01*
X215689953Y167556155D01*
X215868854Y167520570D01*
X215868854Y167520570D01*
G37*
G36*
X69697553Y167536830D02*
G01*
X69866075Y167467026D01*
X70017740Y167365687D01*
X70146721Y167236706D01*
X70248060Y167085041D01*
X70317864Y166916519D01*
X70353449Y166737618D01*
X70353449Y166555212D01*
X70317864Y166376311D01*
X70248060Y166207789D01*
X70146721Y166056124D01*
X70017740Y165927143D01*
X69866075Y165825804D01*
X69697553Y165756000D01*
X69518652Y165720415D01*
X69336246Y165720415D01*
X69157345Y165756000D01*
X68988823Y165825804D01*
X68837158Y165927143D01*
X68708177Y166056124D01*
X68606838Y166207789D01*
X68537034Y166376311D01*
X68501449Y166555212D01*
X68501449Y166737618D01*
X68537034Y166916519D01*
X68606838Y167085041D01*
X68708177Y167236706D01*
X68837158Y167365687D01*
X68988823Y167467026D01*
X69157345Y167536830D01*
X69336246Y167572415D01*
X69518652Y167572415D01*
X69697553Y167536830D01*
X69697553Y167536830D01*
G37*
G36*
X72272911Y169431842D02*
G01*
X72422736Y169402040D01*
X72705000Y169285123D01*
X72959031Y169115385D01*
X73175067Y168899349D01*
X73344805Y168645318D01*
X73436501Y168423942D01*
X73461722Y168363053D01*
X73521326Y168063405D01*
X73521326Y167757883D01*
X73491721Y167609049D01*
X73461722Y167458234D01*
X73344805Y167175970D01*
X73175067Y166921939D01*
X72959031Y166705903D01*
X72705000Y166536165D01*
X72422736Y166419248D01*
X72272911Y166389446D01*
X72123087Y166359644D01*
X71817565Y166359644D01*
X71667741Y166389446D01*
X71517916Y166419248D01*
X71235652Y166536165D01*
X70981621Y166705903D01*
X70765585Y166921939D01*
X70595847Y167175970D01*
X70478930Y167458234D01*
X70448931Y167609049D01*
X70419326Y167757883D01*
X70419326Y168063405D01*
X70478930Y168363053D01*
X70504151Y168423942D01*
X70595847Y168645318D01*
X70765585Y168899349D01*
X70981621Y169115385D01*
X71235652Y169285123D01*
X71517916Y169402040D01*
X71667741Y169431842D01*
X71817565Y169461644D01*
X72123087Y169461644D01*
X72272911Y169431842D01*
X72272911Y169431842D01*
G37*
G36*
X210815581Y170679812D02*
G01*
X210965406Y170650010D01*
X211247670Y170533093D01*
X211501701Y170363355D01*
X211717737Y170147319D01*
X211887475Y169893288D01*
X211992153Y169640571D01*
X212004392Y169611023D01*
X212045962Y169402040D01*
X212063996Y169311374D01*
X212063996Y169005854D01*
X212004392Y168706204D01*
X211887475Y168423940D01*
X211717737Y168169909D01*
X211501701Y167953873D01*
X211247670Y167784135D01*
X210965406Y167667218D01*
X210815581Y167637416D01*
X210665757Y167607614D01*
X210360235Y167607614D01*
X210210411Y167637416D01*
X210060586Y167667218D01*
X209778322Y167784135D01*
X209524291Y167953873D01*
X209308255Y168169909D01*
X209138517Y168423940D01*
X209021600Y168706204D01*
X208961996Y169005854D01*
X208961996Y169311374D01*
X208980031Y169402040D01*
X209021600Y169611023D01*
X209033839Y169640571D01*
X209138517Y169893288D01*
X209308255Y170147319D01*
X209524291Y170363355D01*
X209778322Y170533093D01*
X210060586Y170650010D01*
X210210411Y170679812D01*
X210360235Y170709614D01*
X210665757Y170709614D01*
X210815581Y170679812D01*
X210815581Y170679812D01*
G37*
G36*
X70877265Y170363354D02*
G01*
X71196747Y170122607D01*
X69630825Y168044558D01*
X69630824Y168044557D01*
X67512843Y169640571D01*
X68057500Y170363355D01*
X69078765Y171718620D01*
X69078766Y171718621D01*
X70877265Y170363354D01*
X70877265Y170363354D01*
G37*
G36*
X214992042Y170904789D02*
G01*
X212874061Y169308775D01*
X212872103Y169311374D01*
X211308138Y171386825D01*
X211748446Y171718621D01*
X213426119Y172982839D01*
X214992042Y170904789D01*
X214992042Y170904789D01*
G37*
G36*
X142610443Y204774481D02*
G01*
X142676627Y204767963D01*
X142846466Y204716443D01*
X143002991Y204632778D01*
X143038729Y204603448D01*
X143140186Y204520186D01*
X143223448Y204418729D01*
X143252778Y204382991D01*
X143336443Y204226466D01*
X143387963Y204056627D01*
X143405359Y203880000D01*
X143387963Y203703373D01*
X143336443Y203533534D01*
X143252778Y203377009D01*
X143223448Y203341271D01*
X143140186Y203239814D01*
X143038729Y203156552D01*
X143002991Y203127222D01*
X142846466Y203043557D01*
X142676627Y202992037D01*
X142610443Y202985519D01*
X142544260Y202979000D01*
X142455740Y202979000D01*
X142389557Y202985519D01*
X142323373Y202992037D01*
X142153534Y203043557D01*
X141997009Y203127222D01*
X141961271Y203156552D01*
X141859814Y203239814D01*
X141776552Y203341271D01*
X141747222Y203377009D01*
X141663557Y203533534D01*
X141612037Y203703373D01*
X141594641Y203880000D01*
X141612037Y204056627D01*
X141663557Y204226466D01*
X141747222Y204382991D01*
X141776552Y204418729D01*
X141859814Y204520186D01*
X141961271Y204603448D01*
X141997009Y204632778D01*
X142153534Y204716443D01*
X142323373Y204767963D01*
X142389557Y204774481D01*
X142455740Y204781000D01*
X142544260Y204781000D01*
X142610443Y204774481D01*
X142610443Y204774481D01*
G37*
G36*
X142610442Y207314482D02*
G01*
X142676627Y207307963D01*
X142846466Y207256443D01*
X143002991Y207172778D01*
X143038729Y207143448D01*
X143140186Y207060186D01*
X143223448Y206958729D01*
X143252778Y206922991D01*
X143336443Y206766466D01*
X143387963Y206596627D01*
X143405359Y206420000D01*
X143387963Y206243373D01*
X143336443Y206073534D01*
X143252778Y205917009D01*
X143223448Y205881271D01*
X143140186Y205779814D01*
X143038729Y205696552D01*
X143002991Y205667222D01*
X142846466Y205583557D01*
X142676627Y205532037D01*
X142610442Y205525518D01*
X142544260Y205519000D01*
X142455740Y205519000D01*
X142389558Y205525518D01*
X142323373Y205532037D01*
X142153534Y205583557D01*
X141997009Y205667222D01*
X141961271Y205696552D01*
X141859814Y205779814D01*
X141776552Y205881271D01*
X141747222Y205917009D01*
X141663557Y206073534D01*
X141612037Y206243373D01*
X141594641Y206420000D01*
X141612037Y206596627D01*
X141663557Y206766466D01*
X141747222Y206922991D01*
X141776552Y206958729D01*
X141859814Y207060186D01*
X141961271Y207143448D01*
X141997009Y207172778D01*
X142153534Y207256443D01*
X142323373Y207307963D01*
X142389558Y207314482D01*
X142455740Y207321000D01*
X142544260Y207321000D01*
X142610442Y207314482D01*
X142610442Y207314482D01*
G37*
G36*
X142610442Y209854482D02*
G01*
X142676627Y209847963D01*
X142846466Y209796443D01*
X143002991Y209712778D01*
X143038729Y209683448D01*
X143140186Y209600186D01*
X143223448Y209498729D01*
X143252778Y209462991D01*
X143336443Y209306466D01*
X143387963Y209136627D01*
X143405359Y208960000D01*
X143387963Y208783373D01*
X143336443Y208613534D01*
X143252778Y208457009D01*
X143223448Y208421271D01*
X143140186Y208319814D01*
X143038729Y208236552D01*
X143002991Y208207222D01*
X142846466Y208123557D01*
X142676627Y208072037D01*
X142610442Y208065518D01*
X142544260Y208059000D01*
X142455740Y208059000D01*
X142389558Y208065518D01*
X142323373Y208072037D01*
X142153534Y208123557D01*
X141997009Y208207222D01*
X141961271Y208236552D01*
X141859814Y208319814D01*
X141776552Y208421271D01*
X141747222Y208457009D01*
X141663557Y208613534D01*
X141612037Y208783373D01*
X141594641Y208960000D01*
X141612037Y209136627D01*
X141663557Y209306466D01*
X141747222Y209462991D01*
X141776552Y209498729D01*
X141859814Y209600186D01*
X141961271Y209683448D01*
X141997009Y209712778D01*
X142153534Y209796443D01*
X142323373Y209847963D01*
X142389558Y209854482D01*
X142455740Y209861000D01*
X142544260Y209861000D01*
X142610442Y209854482D01*
X142610442Y209854482D01*
G37*
G36*
X143401000Y210599000D02*
G01*
X141599000Y210599000D01*
X141599000Y212401000D01*
X143401000Y212401000D01*
X143401000Y210599000D01*
X143401000Y210599000D01*
G37*
M02*
