%FSLAX45Y45*%
G04 Gerber Fmt 4.5, Leading zero omitted, Abs format (unit mm)*
G04 Created by KiCad (PCBNEW (5.1.4)-1) date 2023-05-25 15:27:50*
%MOMM*%
%LPD*%
G04 APERTURE LIST*
%ADD10C,0.050000*%
%ADD11C,0.200000*%
%ADD12C,0.300000*%
G04 APERTURE END LIST*
D10*
X14280000Y23690000D02*
X14220000Y23690000D01*
X14150000Y12930000D02*
X14350000Y12930000D01*
X17677500Y15981000D02*
X17802500Y15937500D01*
X14570000Y23690000D02*
X14280000Y23690000D01*
X18160919Y12928362D02*
X14350000Y12930000D01*
X21186000Y17307000D02*
X21344000Y17279000D01*
X18160919Y12928362D02*
X22110000Y15910000D01*
X10822500Y15981000D02*
X13930000Y23690000D01*
X6390000Y16260000D02*
X7156000Y17279000D01*
X13930000Y23690000D02*
X14220000Y23690000D01*
X10339081Y12928362D02*
X6390000Y15910000D01*
X7314000Y17307000D02*
X10697500Y15937500D01*
X10822500Y15981000D02*
X10697500Y15937500D01*
X7314000Y17307000D02*
X7156000Y17279000D01*
X6390000Y15910000D02*
X6390000Y16260000D01*
X10339081Y12928362D02*
X14150000Y12930000D01*
X17677500Y15981000D02*
X14570000Y23690000D01*
X21186000Y17307000D02*
X17802500Y15937500D01*
X22110000Y16260000D02*
X21344000Y17279000D01*
X22110000Y15910000D02*
X22110000Y16260000D01*
D11*
X19143554Y14995623D02*
X19318554Y14820623D01*
X19318554Y14995623D02*
X19143554Y14820623D01*
X19954968Y15607067D02*
X20129968Y15432067D01*
X20129968Y15607067D02*
X19954968Y15432067D01*
X20660961Y16139071D02*
X20835961Y15964071D01*
X20835961Y16139071D02*
X20660961Y15964071D01*
X21472375Y16750515D02*
X21647375Y16575515D01*
X21647375Y16750515D02*
X21472375Y16575515D01*
X9890060Y14465244D02*
X10065060Y14290244D01*
X10065060Y14465244D02*
X9890060Y14290244D01*
X10701473Y13853800D02*
X10876473Y13678800D01*
X10876473Y13853800D02*
X10701473Y13678800D01*
X17626147Y13852174D02*
X17801147Y13677174D01*
X17801147Y13852174D02*
X17626147Y13677174D01*
X18437560Y14463618D02*
X18612560Y14288618D01*
X18612560Y14463618D02*
X18437560Y14288618D01*
X6855245Y16752141D02*
X7030245Y16577141D01*
X7030245Y16752141D02*
X6855245Y16577141D01*
X7666658Y16140697D02*
X7841658Y15965697D01*
X7841658Y16140697D02*
X7666658Y15965697D01*
X8372652Y15608693D02*
X8547652Y15433693D01*
X8547652Y15608693D02*
X8372652Y15433693D01*
X9184066Y14997249D02*
X9359066Y14822249D01*
X9359066Y14997249D02*
X9184066Y14822249D01*
X19329620Y15187407D02*
G75*
G03X19329620Y15187407I-150000J0D01*
G01*
X19683892Y15772413D02*
G75*
G03X19683892Y15772413I-150000J0D01*
G01*
X20847027Y16330855D02*
G75*
G03X20847027Y16330855I-150000J0D01*
G01*
X21201300Y16915861D02*
G75*
G03X21201300Y16915861I-150000J0D01*
G01*
X10381848Y14504167D02*
G75*
G03X10381848Y14504167I-150000J0D01*
G01*
X11041842Y14324868D02*
G75*
G03X11041842Y14324868I-150000J0D01*
G01*
X17812212Y14043958D02*
G75*
G03X17812212Y14043958I-150000J0D01*
G01*
X18166485Y14628964D02*
G75*
G03X18166485Y14628964I-150000J0D01*
G01*
X7347033Y16791064D02*
G75*
G03X7347033Y16791064I-150000J0D01*
G01*
X8007027Y16611765D02*
G75*
G03X8007027Y16611765I-150000J0D01*
G01*
X8864440Y15647616D02*
G75*
G03X8864440Y15647616I-150000J0D01*
G01*
X9524435Y15468317D02*
G75*
G03X9524435Y15468317I-150000J0D01*
G01*
X8865859Y15414861D02*
X8865859Y15016081D01*
X8666469Y15215471D02*
X9065249Y15215471D01*
X19636761Y15413235D02*
X19636761Y15014455D01*
X19437371Y15213845D02*
X19836151Y15213845D01*
X21154168Y16556683D02*
X21154168Y16157903D01*
X20954778Y16357293D02*
X21353558Y16357293D01*
X10383267Y14271412D02*
X10383267Y13872632D01*
X10183877Y14072022D02*
X10582657Y14072022D01*
X18119353Y14269786D02*
X18119353Y13871006D01*
X17919963Y14070396D02*
X18318743Y14070396D01*
X7348452Y16558309D02*
X7348452Y16159529D01*
X7149062Y16358919D02*
X7547842Y16358919D01*
D12*
X6673928Y12460148D02*
X6673928Y12760148D01*
X6745357Y12760148D01*
X6788214Y12745862D01*
X6816786Y12717291D01*
X6831071Y12688719D01*
X6845357Y12631576D01*
X6845357Y12588719D01*
X6831071Y12531576D01*
X6816786Y12503005D01*
X6788214Y12474434D01*
X6745357Y12460148D01*
X6673928Y12460148D01*
X6973928Y12460148D02*
X6973928Y12660148D01*
X6973928Y12603005D02*
X6988214Y12631576D01*
X7002500Y12645862D01*
X7031071Y12660148D01*
X7059643Y12660148D01*
X7159643Y12460148D02*
X7159643Y12660148D01*
X7159643Y12760148D02*
X7145357Y12745862D01*
X7159643Y12731576D01*
X7173928Y12745862D01*
X7159643Y12760148D01*
X7159643Y12731576D01*
X7345357Y12460148D02*
X7316786Y12474434D01*
X7302500Y12503005D01*
X7302500Y12760148D01*
X7502500Y12460148D02*
X7473928Y12474434D01*
X7459643Y12503005D01*
X7459643Y12760148D01*
X7845357Y12460148D02*
X7845357Y12760148D01*
X7945357Y12545862D01*
X8045357Y12760148D01*
X8045357Y12460148D01*
X8316786Y12460148D02*
X8316786Y12617291D01*
X8302500Y12645862D01*
X8273928Y12660148D01*
X8216786Y12660148D01*
X8188214Y12645862D01*
X8316786Y12474434D02*
X8288214Y12460148D01*
X8216786Y12460148D01*
X8188214Y12474434D01*
X8173928Y12503005D01*
X8173928Y12531576D01*
X8188214Y12560148D01*
X8216786Y12574434D01*
X8288214Y12574434D01*
X8316786Y12588719D01*
X8459643Y12660148D02*
X8459643Y12360148D01*
X8459643Y12645862D02*
X8488214Y12660148D01*
X8545357Y12660148D01*
X8573928Y12645862D01*
X8588214Y12631576D01*
X8602500Y12603005D01*
X8602500Y12517291D01*
X8588214Y12488719D01*
X8573928Y12474434D01*
X8545357Y12460148D01*
X8488214Y12460148D01*
X8459643Y12474434D01*
X8731071Y12488719D02*
X8745357Y12474434D01*
X8731071Y12460148D01*
X8716786Y12474434D01*
X8731071Y12488719D01*
X8731071Y12460148D01*
X8731071Y12645862D02*
X8745357Y12631576D01*
X8731071Y12617291D01*
X8716786Y12631576D01*
X8731071Y12645862D01*
X8731071Y12617291D01*
X6212500Y12053362D02*
X6387500Y11878362D01*
X6387500Y12053362D02*
X6212500Y11878362D01*
X6831071Y11830148D02*
X6659643Y11830148D01*
X6745357Y11830148D02*
X6745357Y12130148D01*
X6716786Y12087291D01*
X6688214Y12058719D01*
X6659643Y12044434D01*
X6959643Y11858719D02*
X6973928Y11844434D01*
X6959643Y11830148D01*
X6945357Y11844434D01*
X6959643Y11858719D01*
X6959643Y11830148D01*
X7073928Y12130148D02*
X7273928Y12130148D01*
X7145357Y11830148D01*
X7531071Y12130148D02*
X7388214Y12130148D01*
X7373928Y11987291D01*
X7388214Y12001576D01*
X7416786Y12015862D01*
X7488214Y12015862D01*
X7516786Y12001576D01*
X7531071Y11987291D01*
X7545357Y11958719D01*
X7545357Y11887291D01*
X7531071Y11858719D01*
X7516786Y11844434D01*
X7488214Y11830148D01*
X7416786Y11830148D01*
X7388214Y11844434D01*
X7373928Y11858719D01*
X7673928Y11830148D02*
X7673928Y12030148D01*
X7673928Y12001576D02*
X7688214Y12015862D01*
X7716786Y12030148D01*
X7759643Y12030148D01*
X7788214Y12015862D01*
X7802500Y11987291D01*
X7802500Y11830148D01*
X7802500Y11987291D02*
X7816786Y12015862D01*
X7845357Y12030148D01*
X7888214Y12030148D01*
X7916786Y12015862D01*
X7931071Y11987291D01*
X7931071Y11830148D01*
X8073928Y11830148D02*
X8073928Y12030148D01*
X8073928Y12001576D02*
X8088214Y12015862D01*
X8116786Y12030148D01*
X8159643Y12030148D01*
X8188214Y12015862D01*
X8202500Y11987291D01*
X8202500Y11830148D01*
X8202500Y11987291D02*
X8216786Y12015862D01*
X8245357Y12030148D01*
X8288214Y12030148D01*
X8316786Y12015862D01*
X8331071Y11987291D01*
X8331071Y11830148D01*
X8916786Y12144434D02*
X8659643Y11758719D01*
X9302500Y12130148D02*
X9331071Y12130148D01*
X9359643Y12115862D01*
X9373928Y12101576D01*
X9388214Y12073005D01*
X9402500Y12015862D01*
X9402500Y11944434D01*
X9388214Y11887291D01*
X9373928Y11858719D01*
X9359643Y11844434D01*
X9331071Y11830148D01*
X9302500Y11830148D01*
X9273928Y11844434D01*
X9259643Y11858719D01*
X9245357Y11887291D01*
X9231071Y11944434D01*
X9231071Y12015862D01*
X9245357Y12073005D01*
X9259643Y12101576D01*
X9273928Y12115862D01*
X9302500Y12130148D01*
X9531071Y11858719D02*
X9545357Y11844434D01*
X9531071Y11830148D01*
X9516786Y11844434D01*
X9531071Y11858719D01*
X9531071Y11830148D01*
X9731071Y12130148D02*
X9759643Y12130148D01*
X9788214Y12115862D01*
X9802500Y12101576D01*
X9816786Y12073005D01*
X9831071Y12015862D01*
X9831071Y11944434D01*
X9816786Y11887291D01*
X9802500Y11858719D01*
X9788214Y11844434D01*
X9759643Y11830148D01*
X9731071Y11830148D01*
X9702500Y11844434D01*
X9688214Y11858719D01*
X9673928Y11887291D01*
X9659643Y11944434D01*
X9659643Y12015862D01*
X9673928Y12073005D01*
X9688214Y12101576D01*
X9702500Y12115862D01*
X9731071Y12130148D01*
X10088214Y12130148D02*
X10031071Y12130148D01*
X10002500Y12115862D01*
X9988214Y12101576D01*
X9959643Y12058719D01*
X9945357Y12001576D01*
X9945357Y11887291D01*
X9959643Y11858719D01*
X9973928Y11844434D01*
X10002500Y11830148D01*
X10059643Y11830148D01*
X10088214Y11844434D01*
X10102500Y11858719D01*
X10116786Y11887291D01*
X10116786Y11958719D01*
X10102500Y11987291D01*
X10088214Y12001576D01*
X10059643Y12015862D01*
X10002500Y12015862D01*
X9973928Y12001576D01*
X9959643Y11987291D01*
X9945357Y11958719D01*
X10259643Y11830148D02*
X10316786Y11830148D01*
X10345357Y11844434D01*
X10359643Y11858719D01*
X10388214Y11901576D01*
X10402500Y11958719D01*
X10402500Y12073005D01*
X10388214Y12101576D01*
X10373928Y12115862D01*
X10345357Y12130148D01*
X10288214Y12130148D01*
X10259643Y12115862D01*
X10245357Y12101576D01*
X10231071Y12073005D01*
X10231071Y12001576D01*
X10245357Y11973005D01*
X10259643Y11958719D01*
X10288214Y11944434D01*
X10345357Y11944434D01*
X10373928Y11958719D01*
X10388214Y11973005D01*
X10402500Y12001576D01*
X10516786Y12130148D02*
X10516786Y12073005D01*
X10631071Y12130148D02*
X10631071Y12073005D01*
X11073928Y11715862D02*
X11059643Y11730148D01*
X11031071Y11773005D01*
X11016786Y11801576D01*
X11002500Y11844434D01*
X10988214Y11915862D01*
X10988214Y11973005D01*
X11002500Y12044434D01*
X11016786Y12087291D01*
X11031071Y12115862D01*
X11059643Y12158719D01*
X11073928Y12173005D01*
X11345357Y11830148D02*
X11173928Y11830148D01*
X11259643Y11830148D02*
X11259643Y12130148D01*
X11231071Y12087291D01*
X11202500Y12058719D01*
X11173928Y12044434D01*
X11459643Y12101576D02*
X11473928Y12115862D01*
X11502500Y12130148D01*
X11573928Y12130148D01*
X11602500Y12115862D01*
X11616786Y12101576D01*
X11631071Y12073005D01*
X11631071Y12044434D01*
X11616786Y12001576D01*
X11445357Y11830148D01*
X11631071Y11830148D01*
X11988214Y11830148D02*
X11988214Y12130148D01*
X12116786Y11830148D02*
X12116786Y11987291D01*
X12102500Y12015862D01*
X12073928Y12030148D01*
X12031071Y12030148D01*
X12002500Y12015862D01*
X11988214Y12001576D01*
X12302500Y11830148D02*
X12273928Y11844434D01*
X12259643Y11858719D01*
X12245357Y11887291D01*
X12245357Y11973005D01*
X12259643Y12001576D01*
X12273928Y12015862D01*
X12302500Y12030148D01*
X12345357Y12030148D01*
X12373928Y12015862D01*
X12388214Y12001576D01*
X12402500Y11973005D01*
X12402500Y11887291D01*
X12388214Y11858719D01*
X12373928Y11844434D01*
X12345357Y11830148D01*
X12302500Y11830148D01*
X12573928Y11830148D02*
X12545357Y11844434D01*
X12531071Y11873005D01*
X12531071Y12130148D01*
X12802500Y11844434D02*
X12773928Y11830148D01*
X12716786Y11830148D01*
X12688214Y11844434D01*
X12673928Y11873005D01*
X12673928Y11987291D01*
X12688214Y12015862D01*
X12716786Y12030148D01*
X12773928Y12030148D01*
X12802500Y12015862D01*
X12816786Y11987291D01*
X12816786Y11958719D01*
X12673928Y11930148D01*
X12931071Y11844434D02*
X12959643Y11830148D01*
X13016786Y11830148D01*
X13045357Y11844434D01*
X13059643Y11873005D01*
X13059643Y11887291D01*
X13045357Y11915862D01*
X13016786Y11930148D01*
X12973928Y11930148D01*
X12945357Y11944434D01*
X12931071Y11973005D01*
X12931071Y11987291D01*
X12945357Y12015862D01*
X12973928Y12030148D01*
X13016786Y12030148D01*
X13045357Y12015862D01*
X13159643Y11715862D02*
X13173928Y11730148D01*
X13202500Y11773005D01*
X13216786Y11801576D01*
X13231071Y11844434D01*
X13245357Y11915862D01*
X13245357Y11973005D01*
X13231071Y12044434D01*
X13216786Y12087291D01*
X13202500Y12115862D01*
X13173928Y12158719D01*
X13159643Y12173005D01*
X13702500Y11715862D02*
X13688214Y11730148D01*
X13659643Y11773005D01*
X13645357Y11801576D01*
X13631071Y11844434D01*
X13616786Y11915862D01*
X13616786Y11973005D01*
X13631071Y12044434D01*
X13645357Y12087291D01*
X13659643Y12115862D01*
X13688214Y12158719D01*
X13702500Y12173005D01*
X13816786Y12030148D02*
X13816786Y11830148D01*
X13816786Y12001576D02*
X13831071Y12015862D01*
X13859643Y12030148D01*
X13902500Y12030148D01*
X13931071Y12015862D01*
X13945357Y11987291D01*
X13945357Y11830148D01*
X14131071Y11830148D02*
X14102500Y11844434D01*
X14088214Y11858719D01*
X14073928Y11887291D01*
X14073928Y11973005D01*
X14088214Y12001576D01*
X14102500Y12015862D01*
X14131071Y12030148D01*
X14173928Y12030148D01*
X14202500Y12015862D01*
X14216786Y12001576D01*
X14231071Y11973005D01*
X14231071Y11887291D01*
X14216786Y11858719D01*
X14202500Y11844434D01*
X14173928Y11830148D01*
X14131071Y11830148D01*
X14316786Y12030148D02*
X14431071Y12030148D01*
X14359643Y12130148D02*
X14359643Y11873005D01*
X14373928Y11844434D01*
X14402500Y11830148D01*
X14431071Y11830148D01*
X14759643Y12030148D02*
X14759643Y11730148D01*
X14759643Y12015862D02*
X14788214Y12030148D01*
X14845357Y12030148D01*
X14873928Y12015862D01*
X14888214Y12001576D01*
X14902500Y11973005D01*
X14902500Y11887291D01*
X14888214Y11858719D01*
X14873928Y11844434D01*
X14845357Y11830148D01*
X14788214Y11830148D01*
X14759643Y11844434D01*
X15073928Y11830148D02*
X15045357Y11844434D01*
X15031071Y11873005D01*
X15031071Y12130148D01*
X15316786Y11830148D02*
X15316786Y11987291D01*
X15302500Y12015862D01*
X15273928Y12030148D01*
X15216786Y12030148D01*
X15188214Y12015862D01*
X15316786Y11844434D02*
X15288214Y11830148D01*
X15216786Y11830148D01*
X15188214Y11844434D01*
X15173928Y11873005D01*
X15173928Y11901576D01*
X15188214Y11930148D01*
X15216786Y11944434D01*
X15288214Y11944434D01*
X15316786Y11958719D01*
X15416786Y12030148D02*
X15531071Y12030148D01*
X15459643Y12130148D02*
X15459643Y11873005D01*
X15473928Y11844434D01*
X15502500Y11830148D01*
X15531071Y11830148D01*
X15745357Y11844434D02*
X15716786Y11830148D01*
X15659643Y11830148D01*
X15631071Y11844434D01*
X15616786Y11873005D01*
X15616786Y11987291D01*
X15631071Y12015862D01*
X15659643Y12030148D01*
X15716786Y12030148D01*
X15745357Y12015862D01*
X15759643Y11987291D01*
X15759643Y11958719D01*
X15616786Y11930148D01*
X16016786Y11830148D02*
X16016786Y12130148D01*
X16016786Y11844434D02*
X15988214Y11830148D01*
X15931071Y11830148D01*
X15902500Y11844434D01*
X15888214Y11858719D01*
X15873928Y11887291D01*
X15873928Y11973005D01*
X15888214Y12001576D01*
X15902500Y12015862D01*
X15931071Y12030148D01*
X15988214Y12030148D01*
X16016786Y12015862D01*
X16131071Y11715862D02*
X16145357Y11730148D01*
X16173928Y11773005D01*
X16188214Y11801576D01*
X16202500Y11844434D01*
X16216786Y11915862D01*
X16216786Y11973005D01*
X16202500Y12044434D01*
X16188214Y12087291D01*
X16173928Y12115862D01*
X16145357Y12158719D01*
X16131071Y12173005D01*
X6387500Y11569862D02*
G75*
G03X6387500Y11569862I-150000J0D01*
G01*
X6645357Y11734148D02*
X6831071Y11734148D01*
X6731071Y11619862D01*
X6773928Y11619862D01*
X6802500Y11605576D01*
X6816786Y11591291D01*
X6831071Y11562719D01*
X6831071Y11491291D01*
X6816786Y11462719D01*
X6802500Y11448434D01*
X6773928Y11434148D01*
X6688214Y11434148D01*
X6659643Y11448434D01*
X6645357Y11462719D01*
X6959643Y11462719D02*
X6973928Y11448434D01*
X6959643Y11434148D01*
X6945357Y11448434D01*
X6959643Y11462719D01*
X6959643Y11434148D01*
X7159643Y11734148D02*
X7188214Y11734148D01*
X7216786Y11719862D01*
X7231071Y11705576D01*
X7245357Y11677005D01*
X7259643Y11619862D01*
X7259643Y11548434D01*
X7245357Y11491291D01*
X7231071Y11462719D01*
X7216786Y11448434D01*
X7188214Y11434148D01*
X7159643Y11434148D01*
X7131071Y11448434D01*
X7116786Y11462719D01*
X7102500Y11491291D01*
X7088214Y11548434D01*
X7088214Y11619862D01*
X7102500Y11677005D01*
X7116786Y11705576D01*
X7131071Y11719862D01*
X7159643Y11734148D01*
X7445357Y11734148D02*
X7473928Y11734148D01*
X7502500Y11719862D01*
X7516786Y11705576D01*
X7531071Y11677005D01*
X7545357Y11619862D01*
X7545357Y11548434D01*
X7531071Y11491291D01*
X7516786Y11462719D01*
X7502500Y11448434D01*
X7473928Y11434148D01*
X7445357Y11434148D01*
X7416786Y11448434D01*
X7402500Y11462719D01*
X7388214Y11491291D01*
X7373928Y11548434D01*
X7373928Y11619862D01*
X7388214Y11677005D01*
X7402500Y11705576D01*
X7416786Y11719862D01*
X7445357Y11734148D01*
X7673928Y11434148D02*
X7673928Y11634148D01*
X7673928Y11605576D02*
X7688214Y11619862D01*
X7716786Y11634148D01*
X7759643Y11634148D01*
X7788214Y11619862D01*
X7802500Y11591291D01*
X7802500Y11434148D01*
X7802500Y11591291D02*
X7816786Y11619862D01*
X7845357Y11634148D01*
X7888214Y11634148D01*
X7916786Y11619862D01*
X7931071Y11591291D01*
X7931071Y11434148D01*
X8073928Y11434148D02*
X8073928Y11634148D01*
X8073928Y11605576D02*
X8088214Y11619862D01*
X8116786Y11634148D01*
X8159643Y11634148D01*
X8188214Y11619862D01*
X8202500Y11591291D01*
X8202500Y11434148D01*
X8202500Y11591291D02*
X8216786Y11619862D01*
X8245357Y11634148D01*
X8288214Y11634148D01*
X8316786Y11619862D01*
X8331071Y11591291D01*
X8331071Y11434148D01*
X8916786Y11748434D02*
X8659643Y11362719D01*
X9302500Y11734148D02*
X9331071Y11734148D01*
X9359643Y11719862D01*
X9373928Y11705576D01*
X9388214Y11677005D01*
X9402500Y11619862D01*
X9402500Y11548434D01*
X9388214Y11491291D01*
X9373928Y11462719D01*
X9359643Y11448434D01*
X9331071Y11434148D01*
X9302500Y11434148D01*
X9273928Y11448434D01*
X9259643Y11462719D01*
X9245357Y11491291D01*
X9231071Y11548434D01*
X9231071Y11619862D01*
X9245357Y11677005D01*
X9259643Y11705576D01*
X9273928Y11719862D01*
X9302500Y11734148D01*
X9531071Y11462719D02*
X9545357Y11448434D01*
X9531071Y11434148D01*
X9516786Y11448434D01*
X9531071Y11462719D01*
X9531071Y11434148D01*
X9831071Y11434148D02*
X9659643Y11434148D01*
X9745357Y11434148D02*
X9745357Y11734148D01*
X9716786Y11691291D01*
X9688214Y11662719D01*
X9659643Y11648434D01*
X10116786Y11434148D02*
X9945357Y11434148D01*
X10031071Y11434148D02*
X10031071Y11734148D01*
X10002500Y11691291D01*
X9973928Y11662719D01*
X9945357Y11648434D01*
X10288214Y11605576D02*
X10259643Y11619862D01*
X10245357Y11634148D01*
X10231071Y11662719D01*
X10231071Y11677005D01*
X10245357Y11705576D01*
X10259643Y11719862D01*
X10288214Y11734148D01*
X10345357Y11734148D01*
X10373928Y11719862D01*
X10388214Y11705576D01*
X10402500Y11677005D01*
X10402500Y11662719D01*
X10388214Y11634148D01*
X10373928Y11619862D01*
X10345357Y11605576D01*
X10288214Y11605576D01*
X10259643Y11591291D01*
X10245357Y11577005D01*
X10231071Y11548434D01*
X10231071Y11491291D01*
X10245357Y11462719D01*
X10259643Y11448434D01*
X10288214Y11434148D01*
X10345357Y11434148D01*
X10373928Y11448434D01*
X10388214Y11462719D01*
X10402500Y11491291D01*
X10402500Y11548434D01*
X10388214Y11577005D01*
X10373928Y11591291D01*
X10345357Y11605576D01*
X10516786Y11734148D02*
X10516786Y11677005D01*
X10631071Y11734148D02*
X10631071Y11677005D01*
X11073928Y11319862D02*
X11059643Y11334148D01*
X11031071Y11377005D01*
X11016786Y11405576D01*
X11002500Y11448434D01*
X10988214Y11519862D01*
X10988214Y11577005D01*
X11002500Y11648434D01*
X11016786Y11691291D01*
X11031071Y11719862D01*
X11059643Y11762719D01*
X11073928Y11777005D01*
X11345357Y11434148D02*
X11173928Y11434148D01*
X11259643Y11434148D02*
X11259643Y11734148D01*
X11231071Y11691291D01*
X11202500Y11662719D01*
X11173928Y11648434D01*
X11459643Y11705576D02*
X11473928Y11719862D01*
X11502500Y11734148D01*
X11573928Y11734148D01*
X11602500Y11719862D01*
X11616786Y11705576D01*
X11631071Y11677005D01*
X11631071Y11648434D01*
X11616786Y11605576D01*
X11445357Y11434148D01*
X11631071Y11434148D01*
X11988214Y11434148D02*
X11988214Y11734148D01*
X12116786Y11434148D02*
X12116786Y11591291D01*
X12102500Y11619862D01*
X12073928Y11634148D01*
X12031071Y11634148D01*
X12002500Y11619862D01*
X11988214Y11605576D01*
X12302500Y11434148D02*
X12273928Y11448434D01*
X12259643Y11462719D01*
X12245357Y11491291D01*
X12245357Y11577005D01*
X12259643Y11605576D01*
X12273928Y11619862D01*
X12302500Y11634148D01*
X12345357Y11634148D01*
X12373928Y11619862D01*
X12388214Y11605576D01*
X12402500Y11577005D01*
X12402500Y11491291D01*
X12388214Y11462719D01*
X12373928Y11448434D01*
X12345357Y11434148D01*
X12302500Y11434148D01*
X12573928Y11434148D02*
X12545357Y11448434D01*
X12531071Y11477005D01*
X12531071Y11734148D01*
X12802500Y11448434D02*
X12773928Y11434148D01*
X12716786Y11434148D01*
X12688214Y11448434D01*
X12673928Y11477005D01*
X12673928Y11591291D01*
X12688214Y11619862D01*
X12716786Y11634148D01*
X12773928Y11634148D01*
X12802500Y11619862D01*
X12816786Y11591291D01*
X12816786Y11562719D01*
X12673928Y11534148D01*
X12931071Y11448434D02*
X12959643Y11434148D01*
X13016786Y11434148D01*
X13045357Y11448434D01*
X13059643Y11477005D01*
X13059643Y11491291D01*
X13045357Y11519862D01*
X13016786Y11534148D01*
X12973928Y11534148D01*
X12945357Y11548434D01*
X12931071Y11577005D01*
X12931071Y11591291D01*
X12945357Y11619862D01*
X12973928Y11634148D01*
X13016786Y11634148D01*
X13045357Y11619862D01*
X13159643Y11319862D02*
X13173928Y11334148D01*
X13202500Y11377005D01*
X13216786Y11405576D01*
X13231071Y11448434D01*
X13245357Y11519862D01*
X13245357Y11577005D01*
X13231071Y11648434D01*
X13216786Y11691291D01*
X13202500Y11719862D01*
X13173928Y11762719D01*
X13159643Y11777005D01*
X13702500Y11319862D02*
X13688214Y11334148D01*
X13659643Y11377005D01*
X13645357Y11405576D01*
X13631071Y11448434D01*
X13616786Y11519862D01*
X13616786Y11577005D01*
X13631071Y11648434D01*
X13645357Y11691291D01*
X13659643Y11719862D01*
X13688214Y11762719D01*
X13702500Y11777005D01*
X13816786Y11634148D02*
X13816786Y11434148D01*
X13816786Y11605576D02*
X13831071Y11619862D01*
X13859643Y11634148D01*
X13902500Y11634148D01*
X13931071Y11619862D01*
X13945357Y11591291D01*
X13945357Y11434148D01*
X14131071Y11434148D02*
X14102500Y11448434D01*
X14088214Y11462719D01*
X14073928Y11491291D01*
X14073928Y11577005D01*
X14088214Y11605576D01*
X14102500Y11619862D01*
X14131071Y11634148D01*
X14173928Y11634148D01*
X14202500Y11619862D01*
X14216786Y11605576D01*
X14231071Y11577005D01*
X14231071Y11491291D01*
X14216786Y11462719D01*
X14202500Y11448434D01*
X14173928Y11434148D01*
X14131071Y11434148D01*
X14316786Y11634148D02*
X14431071Y11634148D01*
X14359643Y11734148D02*
X14359643Y11477005D01*
X14373928Y11448434D01*
X14402500Y11434148D01*
X14431071Y11434148D01*
X14759643Y11634148D02*
X14759643Y11334148D01*
X14759643Y11619862D02*
X14788214Y11634148D01*
X14845357Y11634148D01*
X14873928Y11619862D01*
X14888214Y11605576D01*
X14902500Y11577005D01*
X14902500Y11491291D01*
X14888214Y11462719D01*
X14873928Y11448434D01*
X14845357Y11434148D01*
X14788214Y11434148D01*
X14759643Y11448434D01*
X15073928Y11434148D02*
X15045357Y11448434D01*
X15031071Y11477005D01*
X15031071Y11734148D01*
X15316786Y11434148D02*
X15316786Y11591291D01*
X15302500Y11619862D01*
X15273928Y11634148D01*
X15216786Y11634148D01*
X15188214Y11619862D01*
X15316786Y11448434D02*
X15288214Y11434148D01*
X15216786Y11434148D01*
X15188214Y11448434D01*
X15173928Y11477005D01*
X15173928Y11505576D01*
X15188214Y11534148D01*
X15216786Y11548434D01*
X15288214Y11548434D01*
X15316786Y11562719D01*
X15416786Y11634148D02*
X15531071Y11634148D01*
X15459643Y11734148D02*
X15459643Y11477005D01*
X15473928Y11448434D01*
X15502500Y11434148D01*
X15531071Y11434148D01*
X15745357Y11448434D02*
X15716786Y11434148D01*
X15659643Y11434148D01*
X15631071Y11448434D01*
X15616786Y11477005D01*
X15616786Y11591291D01*
X15631071Y11619862D01*
X15659643Y11634148D01*
X15716786Y11634148D01*
X15745357Y11619862D01*
X15759643Y11591291D01*
X15759643Y11562719D01*
X15616786Y11534148D01*
X16016786Y11434148D02*
X16016786Y11734148D01*
X16016786Y11448434D02*
X15988214Y11434148D01*
X15931071Y11434148D01*
X15902500Y11448434D01*
X15888214Y11462719D01*
X15873928Y11491291D01*
X15873928Y11577005D01*
X15888214Y11605576D01*
X15902500Y11619862D01*
X15931071Y11634148D01*
X15988214Y11634148D01*
X16016786Y11619862D01*
X16131071Y11319862D02*
X16145357Y11334148D01*
X16173928Y11377005D01*
X16188214Y11405576D01*
X16202500Y11448434D01*
X16216786Y11519862D01*
X16216786Y11577005D01*
X16202500Y11648434D01*
X16188214Y11691291D01*
X16173928Y11719862D01*
X16145357Y11762719D01*
X16131071Y11777005D01*
X6188110Y11339252D02*
X6188110Y10940472D01*
X5988720Y11139862D02*
X6387500Y11139862D01*
X6645357Y11304148D02*
X6831071Y11304148D01*
X6731071Y11189862D01*
X6773928Y11189862D01*
X6802500Y11175576D01*
X6816786Y11161291D01*
X6831071Y11132719D01*
X6831071Y11061291D01*
X6816786Y11032719D01*
X6802500Y11018434D01*
X6773928Y11004148D01*
X6688214Y11004148D01*
X6659643Y11018434D01*
X6645357Y11032719D01*
X6959643Y11032719D02*
X6973928Y11018434D01*
X6959643Y11004148D01*
X6945357Y11018434D01*
X6959643Y11032719D01*
X6959643Y11004148D01*
X7116786Y11004148D02*
X7173928Y11004148D01*
X7202500Y11018434D01*
X7216786Y11032719D01*
X7245357Y11075576D01*
X7259643Y11132719D01*
X7259643Y11247005D01*
X7245357Y11275576D01*
X7231071Y11289862D01*
X7202500Y11304148D01*
X7145357Y11304148D01*
X7116786Y11289862D01*
X7102500Y11275576D01*
X7088214Y11247005D01*
X7088214Y11175576D01*
X7102500Y11147005D01*
X7116786Y11132719D01*
X7145357Y11118434D01*
X7202500Y11118434D01*
X7231071Y11132719D01*
X7245357Y11147005D01*
X7259643Y11175576D01*
X7402500Y11004148D02*
X7459643Y11004148D01*
X7488214Y11018434D01*
X7502500Y11032719D01*
X7531071Y11075576D01*
X7545357Y11132719D01*
X7545357Y11247005D01*
X7531071Y11275576D01*
X7516786Y11289862D01*
X7488214Y11304148D01*
X7431071Y11304148D01*
X7402500Y11289862D01*
X7388214Y11275576D01*
X7373928Y11247005D01*
X7373928Y11175576D01*
X7388214Y11147005D01*
X7402500Y11132719D01*
X7431071Y11118434D01*
X7488214Y11118434D01*
X7516786Y11132719D01*
X7531071Y11147005D01*
X7545357Y11175576D01*
X7673928Y11004148D02*
X7673928Y11204148D01*
X7673928Y11175576D02*
X7688214Y11189862D01*
X7716786Y11204148D01*
X7759643Y11204148D01*
X7788214Y11189862D01*
X7802500Y11161291D01*
X7802500Y11004148D01*
X7802500Y11161291D02*
X7816786Y11189862D01*
X7845357Y11204148D01*
X7888214Y11204148D01*
X7916786Y11189862D01*
X7931071Y11161291D01*
X7931071Y11004148D01*
X8073928Y11004148D02*
X8073928Y11204148D01*
X8073928Y11175576D02*
X8088214Y11189862D01*
X8116786Y11204148D01*
X8159643Y11204148D01*
X8188214Y11189862D01*
X8202500Y11161291D01*
X8202500Y11004148D01*
X8202500Y11161291D02*
X8216786Y11189862D01*
X8245357Y11204148D01*
X8288214Y11204148D01*
X8316786Y11189862D01*
X8331071Y11161291D01*
X8331071Y11004148D01*
X8916786Y11318434D02*
X8659643Y10932719D01*
X9302500Y11304148D02*
X9331071Y11304148D01*
X9359643Y11289862D01*
X9373928Y11275576D01*
X9388214Y11247005D01*
X9402500Y11189862D01*
X9402500Y11118434D01*
X9388214Y11061291D01*
X9373928Y11032719D01*
X9359643Y11018434D01*
X9331071Y11004148D01*
X9302500Y11004148D01*
X9273928Y11018434D01*
X9259643Y11032719D01*
X9245357Y11061291D01*
X9231071Y11118434D01*
X9231071Y11189862D01*
X9245357Y11247005D01*
X9259643Y11275576D01*
X9273928Y11289862D01*
X9302500Y11304148D01*
X9531071Y11032719D02*
X9545357Y11018434D01*
X9531071Y11004148D01*
X9516786Y11018434D01*
X9531071Y11032719D01*
X9531071Y11004148D01*
X9831071Y11004148D02*
X9659643Y11004148D01*
X9745357Y11004148D02*
X9745357Y11304148D01*
X9716786Y11261291D01*
X9688214Y11232719D01*
X9659643Y11218434D01*
X10102500Y11304148D02*
X9959643Y11304148D01*
X9945357Y11161291D01*
X9959643Y11175576D01*
X9988214Y11189862D01*
X10059643Y11189862D01*
X10088214Y11175576D01*
X10102500Y11161291D01*
X10116786Y11132719D01*
X10116786Y11061291D01*
X10102500Y11032719D01*
X10088214Y11018434D01*
X10059643Y11004148D01*
X9988214Y11004148D01*
X9959643Y11018434D01*
X9945357Y11032719D01*
X10216786Y11304148D02*
X10416786Y11304148D01*
X10288214Y11004148D01*
X10516786Y11304148D02*
X10516786Y11247005D01*
X10631071Y11304148D02*
X10631071Y11247005D01*
X11073928Y10889862D02*
X11059643Y10904148D01*
X11031071Y10947005D01*
X11016786Y10975576D01*
X11002500Y11018434D01*
X10988214Y11089862D01*
X10988214Y11147005D01*
X11002500Y11218434D01*
X11016786Y11261291D01*
X11031071Y11289862D01*
X11059643Y11332719D01*
X11073928Y11347005D01*
X11316786Y11304148D02*
X11259643Y11304148D01*
X11231071Y11289862D01*
X11216786Y11275576D01*
X11188214Y11232719D01*
X11173928Y11175576D01*
X11173928Y11061291D01*
X11188214Y11032719D01*
X11202500Y11018434D01*
X11231071Y11004148D01*
X11288214Y11004148D01*
X11316786Y11018434D01*
X11331071Y11032719D01*
X11345357Y11061291D01*
X11345357Y11132719D01*
X11331071Y11161291D01*
X11316786Y11175576D01*
X11288214Y11189862D01*
X11231071Y11189862D01*
X11202500Y11175576D01*
X11188214Y11161291D01*
X11173928Y11132719D01*
X11702500Y11004148D02*
X11702500Y11304148D01*
X11831071Y11004148D02*
X11831071Y11161291D01*
X11816786Y11189862D01*
X11788214Y11204148D01*
X11745357Y11204148D01*
X11716786Y11189862D01*
X11702500Y11175576D01*
X12016786Y11004148D02*
X11988214Y11018434D01*
X11973928Y11032719D01*
X11959643Y11061291D01*
X11959643Y11147005D01*
X11973928Y11175576D01*
X11988214Y11189862D01*
X12016786Y11204148D01*
X12059643Y11204148D01*
X12088214Y11189862D01*
X12102500Y11175576D01*
X12116786Y11147005D01*
X12116786Y11061291D01*
X12102500Y11032719D01*
X12088214Y11018434D01*
X12059643Y11004148D01*
X12016786Y11004148D01*
X12288214Y11004148D02*
X12259643Y11018434D01*
X12245357Y11047005D01*
X12245357Y11304148D01*
X12516786Y11018434D02*
X12488214Y11004148D01*
X12431071Y11004148D01*
X12402500Y11018434D01*
X12388214Y11047005D01*
X12388214Y11161291D01*
X12402500Y11189862D01*
X12431071Y11204148D01*
X12488214Y11204148D01*
X12516786Y11189862D01*
X12531071Y11161291D01*
X12531071Y11132719D01*
X12388214Y11104148D01*
X12645357Y11018434D02*
X12673928Y11004148D01*
X12731071Y11004148D01*
X12759643Y11018434D01*
X12773928Y11047005D01*
X12773928Y11061291D01*
X12759643Y11089862D01*
X12731071Y11104148D01*
X12688214Y11104148D01*
X12659643Y11118434D01*
X12645357Y11147005D01*
X12645357Y11161291D01*
X12659643Y11189862D01*
X12688214Y11204148D01*
X12731071Y11204148D01*
X12759643Y11189862D01*
X12873928Y10889862D02*
X12888214Y10904148D01*
X12916786Y10947005D01*
X12931071Y10975576D01*
X12945357Y11018434D01*
X12959643Y11089862D01*
X12959643Y11147005D01*
X12945357Y11218434D01*
X12931071Y11261291D01*
X12916786Y11289862D01*
X12888214Y11332719D01*
X12873928Y11347005D01*
X13416786Y10889862D02*
X13402500Y10904148D01*
X13373928Y10947005D01*
X13359643Y10975576D01*
X13345357Y11018434D01*
X13331071Y11089862D01*
X13331071Y11147005D01*
X13345357Y11218434D01*
X13359643Y11261291D01*
X13373928Y11289862D01*
X13402500Y11332719D01*
X13416786Y11347005D01*
X13531071Y11204148D02*
X13531071Y11004148D01*
X13531071Y11175576D02*
X13545357Y11189862D01*
X13573928Y11204148D01*
X13616786Y11204148D01*
X13645357Y11189862D01*
X13659643Y11161291D01*
X13659643Y11004148D01*
X13845357Y11004148D02*
X13816786Y11018434D01*
X13802500Y11032719D01*
X13788214Y11061291D01*
X13788214Y11147005D01*
X13802500Y11175576D01*
X13816786Y11189862D01*
X13845357Y11204148D01*
X13888214Y11204148D01*
X13916786Y11189862D01*
X13931071Y11175576D01*
X13945357Y11147005D01*
X13945357Y11061291D01*
X13931071Y11032719D01*
X13916786Y11018434D01*
X13888214Y11004148D01*
X13845357Y11004148D01*
X14031071Y11204148D02*
X14145357Y11204148D01*
X14073928Y11304148D02*
X14073928Y11047005D01*
X14088214Y11018434D01*
X14116786Y11004148D01*
X14145357Y11004148D01*
X14473928Y11204148D02*
X14473928Y10904148D01*
X14473928Y11189862D02*
X14502500Y11204148D01*
X14559643Y11204148D01*
X14588214Y11189862D01*
X14602500Y11175576D01*
X14616786Y11147005D01*
X14616786Y11061291D01*
X14602500Y11032719D01*
X14588214Y11018434D01*
X14559643Y11004148D01*
X14502500Y11004148D01*
X14473928Y11018434D01*
X14788214Y11004148D02*
X14759643Y11018434D01*
X14745357Y11047005D01*
X14745357Y11304148D01*
X15031071Y11004148D02*
X15031071Y11161291D01*
X15016786Y11189862D01*
X14988214Y11204148D01*
X14931071Y11204148D01*
X14902500Y11189862D01*
X15031071Y11018434D02*
X15002500Y11004148D01*
X14931071Y11004148D01*
X14902500Y11018434D01*
X14888214Y11047005D01*
X14888214Y11075576D01*
X14902500Y11104148D01*
X14931071Y11118434D01*
X15002500Y11118434D01*
X15031071Y11132719D01*
X15131071Y11204148D02*
X15245357Y11204148D01*
X15173928Y11304148D02*
X15173928Y11047005D01*
X15188214Y11018434D01*
X15216786Y11004148D01*
X15245357Y11004148D01*
X15459643Y11018434D02*
X15431071Y11004148D01*
X15373928Y11004148D01*
X15345357Y11018434D01*
X15331071Y11047005D01*
X15331071Y11161291D01*
X15345357Y11189862D01*
X15373928Y11204148D01*
X15431071Y11204148D01*
X15459643Y11189862D01*
X15473928Y11161291D01*
X15473928Y11132719D01*
X15331071Y11104148D01*
X15731071Y11004148D02*
X15731071Y11304148D01*
X15731071Y11018434D02*
X15702500Y11004148D01*
X15645357Y11004148D01*
X15616786Y11018434D01*
X15602500Y11032719D01*
X15588214Y11061291D01*
X15588214Y11147005D01*
X15602500Y11175576D01*
X15616786Y11189862D01*
X15645357Y11204148D01*
X15702500Y11204148D01*
X15731071Y11189862D01*
X15845357Y10889862D02*
X15859643Y10904148D01*
X15888214Y10947005D01*
X15902500Y10975576D01*
X15916786Y11018434D01*
X15931071Y11089862D01*
X15931071Y11147005D01*
X15916786Y11218434D01*
X15902500Y11261291D01*
X15888214Y11289862D01*
X15859643Y11332719D01*
X15845357Y11347005D01*
M02*
