M48
; DRILL file {KiCad (5.1.4)-1} date 5/25/2023 3:27:48 PM
; FORMAT={-:-/ absolute / metric / decimal}
; #@! TF.CreationDate,2023-05-25T15:27:48-04:00
; #@! TF.GenerationSoftware,Kicad,Pcbnew,(5.1.4)-1
; #@! TF.FileFunction,NonPlated,1,2,NPTH
FMAT,2
METRIC
T1C1.750
T2C3.000
T3C3.988
%
G90
G05
T1
X192.311Y149.081
X200.425Y155.196
X207.485Y160.516
X215.599Y166.63
X99.776Y143.777
X107.89Y137.663
X177.136Y137.647
X185.251Y143.761
X69.427Y166.646
X77.542Y160.532
X84.602Y155.212
X92.716Y149.097
T2
X191.796Y151.874
X195.339Y157.724
X206.97Y163.309
X210.513Y169.159
X102.318Y145.042
X108.918Y143.249
X176.622Y140.44
X180.165Y146.29
X71.97Y167.911
X78.57Y166.118
X87.144Y156.476
X93.744Y154.683
T3
X88.659Y152.155
X196.368Y152.138
X211.542Y163.573
X103.833Y140.72
X181.194Y140.704
X73.485Y163.589
T0
M30
