M48
; DRILL file {KiCad (5.1.4)-1} date 5/25/2023 3:27:48 PM
; FORMAT={-:-/ absolute / metric / decimal}
; #@! TF.CreationDate,2023-05-25T15:27:48-04:00
; #@! TF.GenerationSoftware,Kicad,Pcbnew,(5.1.4)-1
; #@! TF.FileFunction,Plated,1,2,PTH
FMAT,2
METRIC
T1C1.000
T2C1.470
%
G90
G05
T1
X217.517Y158.019
X65.505Y159.546
X91.359Y139.953
X92.888Y141.981
X94.416Y144.01
X95.945Y146.038
X189.081Y146.022
X190.61Y143.993
X192.139Y141.965
X193.667Y139.936
X213.46Y154.962
X215.489Y156.491
X219.546Y159.548
X142.5Y211.5
X142.5Y208.96
X142.5Y206.42
X142.5Y203.88
X67.533Y158.018
X69.562Y156.489
X71.59Y154.96
T2
X197.079Y147.04
X197.396Y146.553
X200.771Y150.448
X200.939Y152.403
X212.253Y158.475
X212.57Y157.987
X215.946Y161.883
X216.113Y163.837
X98.747Y138.192
X99.128Y138.631
X103.422Y136.021
X105.347Y136.399
X181.905Y135.606
X182.222Y135.118
X185.597Y139.014
X185.765Y140.968
X68.399Y161.061
X68.78Y161.5
X73.074Y158.89
X74.999Y159.268
X83.573Y149.626
X83.954Y150.065
X88.248Y147.456
X90.173Y147.833
T0
M30
